<svg xmlns="http://www.w3.org/2000/svg" xmlns:xlink="http://www.w3.org/1999/xlink" width="147.542" height="276.542" viewBox="0 0 147.542 276.542"><defs><clipPath id="a"><rect width="147.542" height="276.543" fill="none"/></clipPath></defs><g clip-path="url(#a)"><path d="M84.964,206.668a347.565,347.565,0,0,0-71.179-3.509c.052.858.1,1.712.151,2.573,24.567-4.217,49.971-4.644,73.513.879.15-.864.306-1.733.461-2.6-18.621-3.7-38.362-3.143-57.638-.981a1.3,1.3,0,0,0,.154,2.573c12.447-.6,24.77-.165,37.177-.2a66.867,66.867,0,0,0,12.489-.992c2.847-.545,6.969-1.552,8.381-4.879.31-.746-.043-1.757-.833-1.766-23.025-.41-46.25,1.566-69.191.348q.064,1.25.138,2.491c9.239-3.059,18.72-.828,27.937-1.152,9.278-.322,19.666-3.635,28.444-.423.048-.8.106-1.608.157-2.409-6.919,3.294-14.883.606-21.83.462-9.271-.185-18.646-.93-28,1.361-1.513.374-1.377,2.948.153,2.575,9.485-2.326,19.066-1.568,28.484-1.312,7.1.188,14.825,2.68,21.943-.706.941-.449,1.134-2.053.161-2.412-8.928-3.259-19.365-.288-28.8.252-9.814.563-19.551-1.888-29.394,1.383-1.186.389-.992,2.429.137,2.487,22.942,1.214,46.178-.754,69.2-.348-.279-.592-.557-1.179-.835-1.766-1.229,2.908-6.326,3.289-8.647,3.615a76.6,76.6,0,0,1-11.819.586c-11.856-.13-23.687-.348-35.606.228.048.858.1,1.712.154,2.573,19.075-2.14,38.582-2.653,57.023,1,1.486.3,1.9-2.258.461-2.6-23.723-5.563-49.373-5.1-74.126-.856-1.566.272-1.349,2.658.151,2.573A344.618,344.618,0,0,1,84.5,209.264c1.493.221,1.956-2.372.465-2.6" transform="translate(4.319 66.317)" fill="#fff"/><path d="M21.725,196.859c-.162,0-.33,0-.486-.007-.046.847-.09,1.687-.129,2.538a12.327,12.327,0,0,0,1.381-.1c-.06-.845-.118-1.691-.182-2.532A34.7,34.7,0,0,1,15.02,197.9c-1.383.075-1.412,2.38-.123,2.543a26.132,26.132,0,0,1,6.491,1.408c-.127-.653-.252-1.312-.375-1.963-2.415,2.53-6.236,2.49-9.193,2.231a33.443,33.443,0,0,1-9.28-2.319c-.241.819-.494,1.647-.742,2.465,4.006-.013,7.853.967,11.845,1.052.044-.841.079-1.69.126-2.536a4.546,4.546,0,0,1-4.308-.858c.032.6.071,1.2.1,1.794,1.946-2.368,4.817-3.182,7.418-4.269-.263-.787-.521-1.568-.778-2.352q-4.414,1.99-8.819,3.988c-1.459.662-.693,2.936.781,2.346a18.72,18.72,0,0,1,6.318-1.367c1.532-.074,1.343-2.6-.182-2.536a20.707,20.707,0,0,0-6.917,1.557c.261.783.525,1.566.781,2.346q4.4-2,8.817-3.982c1.458-.662.689-2.967-.778-2.352-3.054,1.281-6.156,2.309-8.425,5.078a1.333,1.333,0,0,0,.1,1.8c1.915,1.34,3.667,2,6.073,1.343,1.231-.336,1.577-2.507.129-2.535-3.986-.1-7.841-1.08-11.842-1.064-1.256.008-2.062,1.95-.745,2.471,6,2.356,15.688,5.127,21.311-.753a1.285,1.285,0,0,0-.371-1.962,28.807,28.807,0,0,0-7.1-1.578c-.035.849-.082,1.695-.122,2.54a34.908,34.908,0,0,0,7.285-1.148c1.486-.4,1.381-2.8-.182-2.532a11.134,11.134,0,0,1-1.38.1c-1.356.084-1.473,2.5-.13,2.538.159.009.323.011.5.012,1.507.02,1.966-2.526.43-2.545" transform="translate(0.277 66.283)" fill="#fff"/><path d="M7.47,253.056C15.552,182.4,17.905,110.582,12.064,39.092c-2.443.339-4.88.669-7.332,1,13.912,72.687,17.068,148.69,3.09,220.39,2.479.265,4.972.545,7.447.827,9.142-56.57,6.052-115.586-1.589-172.861C13.06,83.8,6.02,85,6.346,89.465c2.66,37.155,2.357,74.162,3.389,111.323.347,12.386,1.189,24.935,3.783,37.2,1.775,8.412,4.964,20.542,14.57,24.06,2.155.766,5.01-.5,4.978-2.875-.586-69.057-8-138.2-6.268-207.183q-3.56.464-7.1.949c9.437,27.017,3.788,55.9,5.419,83.438,1.627,27.722,11.877,58.13,3.377,85.112,2.3-.028,4.6-.028,6.889-.047-9.93-20.022-2.863-44.449-2.981-65.292-.178-27.811,1.231-56.054-6.02-83.568-1.182-4.453-8.523-3.5-7.343,1.008,7.367,27.915,5.93,56.775,5.918,85.041,0,21.315-6.525,44.983,3.686,65.576,1.353,2.723,5.948,2.955,6.9-.034,8.628-27.442-.65-58.07-2.913-86.229-2.354-29.275,3.9-58.969-6.185-87.75-1.2-3.47-7.012-2.449-7.09.942-1.722,68.983,5.672,138.159,6.265,207.212l4.979-2.882c-8.4-3.056-9.875-18.242-10.982-25.124-1.923-11.692-2.4-23.538-2.571-35.28-.533-35.54-.809-71.027-3.362-106.6-2.448.326-4.883.669-7.335,1.012,7.561,56.68,10.516,115,1.477,171.022-.736,4.517,6.591,5.208,7.447.827,14.076-72.253,10.8-148.987-3.205-222.222-.892-4.635-7.692-3.473-7.332,1C10.524,110.94,8.027,182.209.027,252.22c-.519,4.52,6.917,5.352,7.443.836" transform="translate(0 12.281)" fill="#fff"/><path d="M29.585,61.544c-.008-.484-.027-.984-.031-1.45-2.464.019-4.911.042-7.383.082a36.963,36.963,0,0,0,.446,4.1c2.451-.336,4.9-.662,7.333-1.012a104.8,104.8,0,0,1-4.114-21.522c-.366-4.106-7.06-3.771-7.4.1-.595,6.68-1.193,13.265-3.389,19.611,1.881-.5,3.78-.99,5.657-1.479-7.607-6.73-7.9-18.133-7.466-27a103.764,103.764,0,0,1,5.734-28.1c-2.4-.568-4.832-1.171-7.237-1.755.469,11.941-1.963,23.592-1.778,35.508,2.447-.025,4.913-.076,7.378-.094-1.582-5.132-.7-8.616,2.026-13-1.731.206-3.462.431-5.2.627,7.087,5.362,9.76,13.777,13.193,21.329,2.256-.929,4.5-1.844,6.747-2.756Q27.849,31.947,21.577,19.181c-2.078-4.231-8.6-1.523-6.729,2.76A56.148,56.148,0,0,1,19.5,40.524c.377,4.556,7.7,3.523,7.341-1.008a62.008,62.008,0,0,0-5.262-20.336c-2.244.923-4.493,1.853-6.729,2.76Q21.114,34.7,27.357,47.495c2.082,4.222,8.689,1.5,6.747-2.756-4.051-8.866-7.366-17.927-15.65-24.183-1.519-1.132-4.215-.954-5.206.642C9.561,27.156,7.821,32.5,10,39.552c1.109,3.611,7.447,4.24,7.375-.086-.151-11.9,2.289-23.576,1.813-35.5C19.031.221,13.308-1.825,11.937,2.2c-6.194,18.319-13.2,47.719,4.477,63.4a3.736,3.736,0,0,0,5.657-1.47c2.4-6.937,3.157-14.135,3.817-21.467-2.467.052-4.928.07-7.39.1a105.36,105.36,0,0,0,4.119,21.508c1.312,4.357,8.282,3.6,7.333-1.012a34.111,34.111,0,0,1-.435-4.1c-.39-4.025-7.425-3.926-7.383.082-.011.48,0,.967.019,1.482.1,4.5,7.542,5.392,7.434.812" transform="translate(1.768 0)" fill="#fff"/><path d="M10.866,15.562a387.869,387.869,0,0,1,75.419-5.369c-.076.868-.151,1.734-.226,2.6C60.167,9.161,33.294,9.38,8.237,15.568c-.137-.87-.279-1.745-.422-2.613,19.8-4.217,40.68-4.16,61.024-2.467,1.651.137,1.353,2.642-.229,2.606-13.157-.288-26.21.466-39.34.753a73.418,73.418,0,0,1-13.192-.682c-3-.48-7.336-1.392-8.746-4.721A1.272,1.272,0,0,1,8.26,6.638c24.379-1,48.907.4,73.217-1.418-.068.843-.137,1.683-.21,2.522-9.7-2.858-19.791-.358-29.537-.452-9.811-.087-20.719-3.172-30.092.3-.029-.811-.071-1.623-.1-2.432,7.238,3.154,15.733.232,23.09-.091,9.818-.425,19.758-1.416,29.595.661,1.592.338,1.383,2.945-.228,2.609-9.978-2.112-20.138-1.1-30.111-.6-7.521.371-15.759,3.09-23.2-.153a1.358,1.358,0,0,1-.11-2.433c9.532-3.525,20.5-.788,30.478-.482,10.371.318,20.739-2.411,31.073.645a1.328,1.328,0,0,1-.209,2.519C57.6,9.648,33.059,8.252,8.683,9.251q.466-.906.929-1.806c1.226,2.909,6.61,3.164,9.058,3.434a84.272,84.272,0,0,0,12.493.289c12.55-.434,25.077-.959,37.676-.681-.072.87-.15,1.734-.229,2.606-20.132-1.676-40.763-1.7-60.373,2.473-1.58.339-1.952-2.234-.422-2.613C33.065,6.723,60.2,6.532,86.285,10.193a1.311,1.311,0,0,1-.226,2.6,384.891,384.891,0,0,0-74.766,5.376c-1.586.263-2.01-2.346-.426-2.612" transform="translate(2.325 1.145)" fill="#fff"/><rect width="75.211" height="260.242" transform="translate(16.825 7.308)" fill="#fff"/><path d="M26.766,194.947c-4.178-3.418-6.74-7.6-6.551-13.2q.143-4.556,4.557-4.558c13.957,0,28.008-.094,41.964,0,3.039,0,4.462,2.09,4.557,5.792,0,3.038-1.234,4.557-4.367,4.557-5.317-.1-10.634.1-15.855-.1-4.652-.1-9.3.665-13.957.1a2.456,2.456,0,0,0-2.942,2.657c0,3.229-1.9,4.273-4.557,4.749Z" transform="translate(6.868 60.217)" fill="#2a2221"/><path d="M70.152,151.9c-.189,4.651,0,9.208-1.234,13.86C66.45,175.349,56.1,182.755,46.134,181.71a83.3,83.3,0,0,0-9.685-.758c-7.025.1-14.526-9.589-16.046-15.191a55.632,55.632,0,0,1-1.234-22.69c1.329-8.165,4.273-16.046,12.818-19.085,9.874-3.417,20.222-3.323,29.336,2.281,6.267,3.892,8.259,11.013,8.829,18.228.1,2.468,0,4.936,0,7.406m-40.919-1.8c.285,3.7.1,6.267.665,8.83,1.615,7.5,6.265,11.582,13.861,11.773,8.64.189,12.911-2.565,14.811-10.35.758-3.133,1.9-6.17,1.518-9.777C59.045,142.69,56.766,136.234,48.6,133.2c-5.411-2.089-14.905,1.139-16.994,6.267-1.518,3.7-3.133,7.5-2.373,10.632" transform="translate(6.3 41.363)" fill="#2a2221"/><path d="M70.152,99.964c-.189,4.651,0,9.208-1.234,13.86-2.468,9.588-12.816,16.994-22.784,15.949a83.307,83.307,0,0,0-9.685-.758c-7.025.1-14.526-9.588-16.046-15.191a55.631,55.631,0,0,1-1.234-22.69C20.5,82.969,23.442,75.089,31.987,72.05c9.874-3.417,20.222-3.322,29.336,2.281,6.267,3.892,8.259,11.013,8.829,18.228.1,2.468,0,4.936,0,7.406m-40.919-1.8c.285,3.7.1,6.267.665,8.83,1.615,7.5,6.265,11.582,13.861,11.773,8.64.189,12.911-2.565,14.811-10.35.758-3.133,1.9-6.17,1.518-9.777C59.045,90.754,56.766,84.3,48.6,81.26,43.19,79.171,33.7,82.4,31.606,87.527c-1.518,3.7-3.133,7.5-2.373,10.632" transform="translate(6.3 23.709)" fill="#2a2221"/><path d="M71.3,72.626c-.19,1.235,1.045,4.083-1.424,5.128C67.5,78.8,65.886,76.329,64.368,74.9L45.378,55.822c-.758-.758-1.518-2.373-2.657-1.708-1.518.76-.666,2.183-.19,3.323,1.994,4.652.19,9.114-1.045,13.291-1.138,3.892-7.309,5.6-13.289,4.558-7.692-1.331-8.45-5.412-8.356-13.2a16.2,16.2,0,0,1,.758-4.083c1.424-5.792,4.842-8.64,11.108-9.019,1.045-.1,2.184,0,3.229,0,.665-.1,1.423.1,1.9-.666.474-.949-.381-1.518-.95-1.992C32.372,42.72,28.67,39.3,25.347,35.6s-6.454-7.5-6.265-13.007c.1-2.089.666-3.7,2.373-4.747s2.754.569,3.8,1.615c6.362,6.265,12.437,12.816,19.083,18.893C53.07,46.519,60.38,55.917,69.114,63.987c2.374,2.184,2.469,4.936,2.184,8.638m.1-40.539A17.9,17.9,0,0,1,70.255,39.4c-1.616,4.083-5.223,5.031-9.115,5.886C52.689,46.992,46.9,41.012,48.417,33.7a5.407,5.407,0,0,0-.1-2.469c-2.372-7.595,4.652-13.2,11.585-12.437,8.163.855,11.676,4.749,11.486,13.292" transform="translate(6.483 5.951)" fill="#2a2221"/><path d="M92.935,163.9c2.555.238,5.766-.059,8.973.358,6.6.772,11.175,7.131,11.947,12.956a86.443,86.443,0,0,1,.178,13.016c-.118,4.814-1.13,9.748-5.408,12.779-2.794,1.9-6,3.507-9.689,3.031-2.971-.415-5.884.832-8.856.476a46.762,46.762,0,0,1-6.537-.772c-1.6-.417-1.962-2.14-1.723-3.627a2.885,2.885,0,0,1,2.733-2.674c4.577-.535,9.094.119,13.67.06a9.328,9.328,0,0,0,9.034-8.617c.239-3.449.892-6.836.536-10.4a10.584,10.584,0,0,0-9.807-9.747c-4.458-.417-8.975-.119-13.433-.3-2.972-.178-2.2-2.14-2.377-3.685-.237-1.842.594-2.853,2.437-2.853Z" transform="translate(27.79 55.712)" fill="#fff"/><path d="M103.494,161.645c2.436,0,4.934-.059,7.429,0a2.739,2.739,0,0,1,3.091,2.913c.06,1.962-.595,3.268-2.733,3.507a96.678,96.678,0,0,1-10.163.059c-5.411,0-10.819.18-16.287.358-1.9.059-3.566-2.437-2.853-4.4a11.032,11.032,0,0,1,2.378-3.922c4.457-4.162,7.9-9.331,12.48-13.493a34.755,34.755,0,0,0,4.518-5.289c.3-.476,1.01-.832.595-1.545a1.7,1.7,0,0,0-1.723-.714c-1.607.118-3.21.595-4.755.356-3.626-.594-7.252.891-10.876-.3-2.081-.654-2.676-1.842-2.5-3.685.178-1.96,1.546-2.437,3.269-2.437h15.512c3.032,0,6.062-.237,9.153,0,1.426.06,2.913-.059,3.566,1.427a4.251,4.251,0,0,1-.3,4.577,58.1,58.1,0,0,1-5.646,6.42c-3.149,2.733-5.527,6.121-8.439,9.093l-4.041,4.339c-.535.594-1.605,1.071-1.13,2.081.417.891,1.427.594,2.2.594,2.377.059,4.814,0,7.252,0Z" transform="translate(27.809 45.193)" fill="#fff"/><path d="M94.392,120.97c5.944.774,11.353.119,16.821.3,1.6,0,3.03.713,3.208,2.674a3.6,3.6,0,0,1-2.733,3.925,9.312,9.312,0,0,1-2.853.176c-5.587-.594-11.233-.176-16.82,0-2.733.06-5.35-.533-8.084-.473-2.436.058-1.842-2.5-2.08-3.925-.178-1.247,1.01-2.081,2.318-2.081,3.566-.177,7.131.181,10.222-.594" transform="translate(27.817 41.12)" fill="#fff"/><path d="M119.716,89.032a9.305,9.305,0,0,1-3.566,7.487,4.445,4.445,0,0,0-1.783,3.508c-.06,4.159.178,8.321-.3,12.481-.654,5.527-4.993,11.233-10.4,12.54a27.624,27.624,0,0,1-10.819-.118c-3.744-.655-6.479-3.21-8.617-6.243-.239-.3-.655-.594-.655-.891-.355-3.209-2.2-6.062-1.663-9.508.356-2.674-.06-5.529,0-8.262.059-3.21.417-6.537,2.259-9.331,3.921-6.123,10.459-8.559,17.889-7.075a17.775,17.775,0,0,1,8.677,4.7c.476.476,1.071,1.546,2.022.773.772-.654.355-1.427-.06-2.2a4.79,4.79,0,0,1-.238-3.626,2.511,2.511,0,0,1,2.437-1.9c1.842-.118,2.853,1.071,3.448,2.5a12.205,12.205,0,0,1,1.367,5.172m-31.2,15.274c0,1.309-.059,3.21.06,5.112a17.881,17.881,0,0,0,.891,3.389,9.066,9.066,0,0,0,12.066,5.408c4.7-2.081,4.755-2.733.772-6a9.3,9.3,0,0,1-3.268-7.844c0-3.8,2.377-6.062,4.991-8.023,1.545-1.19,1.428-2.2.417-3.508A6.951,6.951,0,0,0,97.9,90.1c-3.15.6-6.479,1.19-8.2,4.636-1.368,2.854-1.308,5.885-1.19,9.57" transform="translate(27.812 27.655)" fill="#fff"/><path d="M92.935,45.085c2.555.239,5.766-.059,8.973.358,6.6.772,11.175,7.131,11.947,12.956a86.443,86.443,0,0,1,.178,13.016c-.118,4.814-1.13,9.748-5.408,12.779-2.794,1.9-6,3.507-9.689,3.031-2.971-.415-5.884.832-8.856.476a46.766,46.766,0,0,1-6.537-.772c-1.6-.417-1.962-2.14-1.723-3.627a2.885,2.885,0,0,1,2.733-2.674c4.577-.535,9.094.119,13.67.06a9.328,9.328,0,0,0,9.034-8.617c.239-3.449.892-6.836.536-10.4a10.584,10.584,0,0,0-9.807-9.747c-4.458-.417-8.975-.119-13.433-.3-2.972-.178-2.2-2.14-2.377-3.685-.237-1.842.594-2.853,2.437-2.853Z" transform="translate(27.79 15.325)" fill="#fff"/><path d="M81.669,15.54a3.691,3.691,0,0,1,4.043-2.377c2.258.3,2.912,1.128,2.853,3.507-.118,7.785-.118,15.632-.118,23.477,0,2.081,1.068,2.853,3.268,2.913,1.9,0,2.972-.535,3.031-2.794.3-6.539.535-13.076.356-19.673-.06-2.021.773-2.676,2.733-2.616,3.091.059,3.745.356,3.745,2.674.059,6.181,0,12.362.059,18.543,0,2.794.773,3.745,3.091,3.8,2.555.119,3.982-1.6,3.507-4.4a52.593,52.593,0,0,1,0-14.324,3.287,3.287,0,0,0,.059-1.308c-1.247-2.555-.594-5.053,0-7.667.417-1.962,1.545-2.14,3.152-2.14a2.441,2.441,0,0,1,2.733,2.5c.237,5.052.237,10.163.237,15.215.059,5.172-.3,10.342-.06,15.512.119,2.022-.772,2.735-2.674,3.151a24.323,24.323,0,0,1-9.034,0c-2.853-.417-5.646.653-8.5.476-2.794-.239-5.586-.714-8.439-.239-2.259.415-3.21-.832-3.328-3.21-.18-4.337.476-8.736-.714-13.016Z" transform="translate(27.761 4.462)" fill="#fff"/><path d="M55.16,29.753a7.046,7.046,0,0,1-.449,2.881c-.636,1.609-2.058,1.983-3.591,2.319-3.33.674-5.613-1.683-5.014-4.564a2.135,2.135,0,0,0-.038-.973c-.935-2.993,1.833-5.2,4.565-4.9,3.217.336,4.6,1.872,4.526,5.238" transform="translate(15.597 8.324)" fill="#fff"/><path d="M34.183,52.178a7.044,7.044,0,0,1-.448,2.881c-.636,1.609-2.059,1.983-3.591,2.319-3.331.674-5.614-1.683-5.015-4.564a2.135,2.135,0,0,0-.038-.973c-.935-2.993,1.833-5.2,4.565-4.9,3.218.336,4.6,1.872,4.526,5.238" transform="translate(8.466 15.947)" fill="#fff"/></g></svg>