<?xml version="1.0" encoding="utf-8"?>
<!-- Generator: Adobe Illustrator 26.4.0, SVG Export Plug-In . SVG Version: 6.00 Build 0)  -->
<svg version="1.1" id="Layer_1" xmlns="http://www.w3.org/2000/svg" xmlns:xlink="http://www.w3.org/1999/xlink" x="0px" y="0px"
	 viewBox="0 0 235.4 123.7" style="enable-background:new 0 0 235.4 123.7;" xml:space="preserve">
<style type="text/css">
	.st0{fill:#00C4B3;}
	.st1{enable-background:new    ;}
	.st2{fill:#FFFFFF;}
	.st3{fill:#8AE3D8;}
	.st4{display:none;}
</style>
<g id="Layer_1_00000101072460411244163270000008372700287694013623_">
	<g>
		<g>
			<g>
				<g>
					<g>
						<g>
							<path class="st0" d="M42.9,42.8c41.2,4.7,83,6.1,124.7,2.7c-0.2-1.4-0.4-2.8-0.6-4.3c-42.4,8.1-86.6,9.9-128.4,1.8
								c-0.2,1.4-0.3,2.9-0.5,4.3c33,5.3,67.4,3.5,100.7-0.9c2.7-0.4,2-4.5-0.6-4.3c-21.7,1.6-43.2,1.4-64.9,2
								c-7.2,0.2-14.5,0.7-21.7,2.2c-4.9,1-12,2.9-14,8.5c-0.4,1.3,0.3,2.9,1.7,2.9C79.5,57.4,119.8,53,160,54
								c-0.2-1.4-0.4-2.8-0.6-4.1c-15.7,5.5-32.6,2.2-48.6,3.2C94.7,54,77,60,61.3,55.1c0,1.3,0,2.7,0,4c11.7-5.8,25.9-1.7,38-1.7
								c16.2-0.1,32.7,0.7,48.7-3.5c2.6-0.7,2-5-0.6-4.3c-16.3,4.3-33.1,3.5-49.6,3.4c-12.4,0-26.2-3.8-38.2,2.1
								c-1.6,0.8-1.7,3.5,0,4c16,5,33.8-0.4,50.2-1.7c17.1-1.4,34.4,2.3,51.1-3.6c2-0.7,1.4-4.1-0.5-4.1c-40.2-1-80.5,3.3-120.7,3.7
								c0.6,1,1.1,1.9,1.7,2.9c1.8-4.9,10.6-5.8,14.6-6.4c6.8-1.1,13.7-1.4,20.6-1.5c20.7-0.3,41.4-0.5,62.1-2
								c-0.2-1.4-0.4-2.8-0.6-4.3c-33,4.4-67,6.1-99.7,0.9c-2.6-0.4-3,3.8-0.5,4.3c42.1,8.2,86.8,6.3,129.5-1.9
								c2.7-0.5,2-4.5-0.6-4.3C125.5,44.5,84,43,43.2,38.4C40.8,38.2,40.3,42.5,42.9,42.8L42.9,42.8z"/>
						</g>
						<g>
							<path class="st0" d="M161.7,56.7c0.3,0,0.6,0,0.8,0c0-1.4,0-2.9,0-4.3c-0.8,0.1-1.6,0.1-2.4,0.3c0.2,1.4,0.4,2.9,0.6,4.3
								c4.1-1.2,8.3-2,12.5-2.4c2.4-0.2,2.2-4.1-0.1-4.3c-3.9-0.3-7.7-0.7-11.4-2c0.3,1.1,0.6,2.2,0.9,3.3
								c3.9-4.4,10.6-4.6,15.7-4.4c5.6,0.3,11.1,1.6,16.4,3.3c0.3-1.4,0.7-2.8,1-4.2c-7,0.3-13.7-1.1-20.7-1c0,1.4,0,2.9,0.1,4.3
								c3-0.9,5-0.4,7.6,1.2c-0.1-1-0.3-2-0.4-3c-3.1,4.1-8,5.7-12.4,7.7c0.5,1.3,1.1,2.6,1.6,3.9c5-2.4,9.9-4.9,14.9-7.3
								c2.5-1.2,0.9-5-1.6-3.9c-3.5,1.6-7.1,2.4-10.8,2.7c-2.7,0.2-2.1,4.5,0.6,4.3c4.1-0.3,8-1.4,11.8-3.1
								c-0.5-1.3-1.1-2.6-1.6-3.9c-5,2.4-9.9,4.9-14.9,7.3c-2.5,1.2-0.9,5.1,1.6,3.9c5.2-2.4,10.4-4.3,14.1-9.1
								c0.7-0.9,0.6-2.5-0.4-3c-3.5-2.1-6.6-3.2-10.7-1.9c-2.1,0.6-2.5,4.3,0,4.3c6.9-0.1,13.7,1.3,20.7,1.1c2.2-0.1,3.4-3.4,1-4.2
								c-10.7-3.6-27.8-7.7-36.9,2.6c-0.9,1.1-0.3,2.9,0.9,3.3c4,1.4,8.2,1.8,12.5,2.2c0-1.4,0-2.9-0.1-4.3
								c-4.2,0.4-8.4,1.2-12.5,2.4c-2.5,0.8-2.1,4.8,0.6,4.3c0.8-0.2,1.6-0.2,2.4-0.3c2.3-0.2,2.3-4.3,0-4.3c-0.3,0-0.6,0-0.9,0
								C159.5,52.5,159,56.8,161.7,56.7L161.7,56.7z"/>
						</g>
					</g>
				</g>
				<g>
					<g>
						<g>
							<path class="st0" d="M187.8,46.2c2.4,14.4,3.6,29.2,3.1,43.9c-0.5,0-1-0.1-1.5-0.1c2.1-15.1,2-30.7-1.6-45.3
								c0.5-0.1,1-0.2,1.5-0.2c2.5,11.5,2.4,23.7,1.4,35.6c-0.1,1-1.5,0.8-1.5-0.1c0.2-7.7-0.3-15.3-0.4-22.9
								c-0.1-2.6,0-5.1,0.4-7.7c0.3-1.7,0.8-4.3,2.8-5.1c0.4-0.2,1,0.1,1.1,0.5c0.6,14.2-0.2,28.5,0.8,42.7c-0.5,0-1-0.1-1.5-0.1
								c1.7-5.7,0.2-11.5,0.3-17.2s1.8-12.1-0.2-17.5c0.5,0,0.9,0,1.4-0.1c-1.8,4.2-0.1,9.2,0.1,13.5c0.2,5.7,0.8,11.5-0.4,17.2
								c-0.2,0.9-1.7,0.8-1.5-0.1c1.2-5.8,0.6-11.7,0.3-17.5c-0.2-4.4-1.8-9.2,0.1-13.5c0.3-0.6,1.2-0.7,1.4-0.1
								c2.1,5.6,0.5,11.9,0.3,17.8c-0.2,6,1.4,12.1-0.4,18.1c-0.2,0.7-1.4,0.6-1.5-0.1c-1.1-14.2-0.2-28.5-0.8-42.7
								c0.4,0.2,0.7,0.4,1.1,0.5c-1.7,0.7-1.8,3.9-2,5.3c-0.3,2.4-0.3,4.9-0.2,7.3c0.3,7.3,0.6,14.6,0.4,22c-0.5,0-1-0.1-1.5-0.1
								c1-11.7,1-23.8-1.4-35.2c-0.2-0.9,1.3-1.1,1.5-0.2c3.6,14.7,3.7,30.5,1.6,45.7c-0.1,1-1.5,0.8-1.5-0.1
								c0.5-14.6-0.8-29.3-3.1-43.6C186.1,45.5,187.6,45.2,187.8,46.2L187.8,46.2z"/>
						</g>
					</g>
				</g>
			</g>
		</g>
		<g>
			<rect x="41.6" y="48.3" class="st0" width="151.6" height="43.8"/>
			<g class="st1">
				<path class="st2" d="M74,62.7c-0.1,1.1,0.5,1.8,1.5,2c1.8,0.5,3.4,1.3,5,2.1c2.6,1.4,2.8,4.7,0.7,6.7c-1.4,1.2-2.8,1.7-4.5,1.9
					c-0.7,0.1-1.4,0.4-1.9,0.9c-0.8,0.6-1.7,1.1-2.8,1.2c-0.7,0-1.2-0.1-1.7-0.7c-0.7-0.8-1.6-1-2.6-1.2c-2.1-0.4-3.9-1.6-5.4-3.2
					c-0.5-0.6-0.4-1.2,0.1-1.7c0.8-0.9,1.6-1.3,2.8-0.9c1,0.3,1.5,1.2,2.4,1.6c0.6,0.3,1.1,1,1.9,0.5c0.8-0.5,0.5-1.3,0.5-2
					c0.1-2-1.8-1.6-2.7-2.3c-0.7-0.5-1.6-0.6-2.4-0.8c-1.8-0.6-2.8-2-2.9-3.8c-0.1-1.7,0.8-3.6,2.7-4.3c1.3-0.5,2.4-1.4,3.9-1.3
					c0.5,0,0.8-0.4,1.1-0.8c1.7-2.2,3.2-2.1,4.7,0.1c0.4,0.5,0.9,0.6,1.4,0.8c1.8,0.6,3.6,1.2,4.9,2.6c0.7,0.7,1.5,1.4,0.8,2.5
					c-0.7,1-2.1,1.3-3.2,0.6c-0.8-0.5-1.6-1.1-2.5-1.5C74.7,61,74,61.4,74,62.7z M68.5,61.1c-0.7,0.3-1.8,0.4-2,1.3
					c-0.3,1.1,0.9,1,1.4,1.4c0.1,0.1,0.2,0.1,0.3,0.2c0.5,0.2,1,0.5,1.5,0c0.6-0.6,0.4-1.3,0.2-2C69.8,61.2,69.2,61.1,68.5,61.1z
					 M75.8,71.9c1.1,0,2.3-0.8,2.3-1.4c0-0.7-1.4-1.5-2.4-1.5c-1.1-0.1-1.6,0.8-1.6,1.6C74.1,71.6,75,71.8,75.8,71.9z"/>
				<path class="st2" d="M87.9,62.4c1.2-1.5,2.8-2.5,4.8-2.4c1.1,0,1.7,0.6,1.7,1.7c0,5.1,0,10.2,0,15.3c0,1.1-0.8,1.6-2.1,1.7
					c-1.1,0-1.7-0.4-1.7-1.6c0-1.9,0-3.9,0-5.8c0-1.7-0.2-3.4,0-5.1c0.1-0.7-0.3-1.1-1-1.1c-1.2,0-1.6-0.7-1.7-1.7V62.4z"/>
				<path class="st2" d="M100.4,81.7c-0.9-0.6-1.1-1.4-0.7-2.4c0.5-0.9,0.3-2,0.5-3c0.1-1.2,0.9-1.3,1.7-1.3c0.9,0,1.5,0.4,1.8,1.2
					c0.8,2.3-0.4,3.9-1.8,5.4H100.4z"/>
				<path class="st2" d="M116.8,78.3c-2.1,0.1-4.2-0.1-6.1-1c-1.2-0.6-2.1-1.6-2.9-2.6c-0.4-0.6-0.4-1.3,0-1.9
					c0.4-0.6,1-0.8,1.8-0.7c1,0.2,1.8,0.7,2.6,1.3c1.2,0.9,2.5,1.5,4,1.3c1.9-0.3,3.9,0.2,5.5-1.3c1.2-1.1,1.2-3-0.3-3.8
					c-2-1.2-4.2-1.2-6.4-1c-1.6,0.1-2.9,0.8-4.4,1.1c-0.8,0.2-1.7,0.7-2.5-0.1c-0.8-0.8-0.6-1.9-0.4-2.8c0.4-1.4,0.8-2.8,0.9-4.2
					c0.2-2.5,1.8-3.6,4.7-3.2c1.7,0.2,3.3,0,5,0c1.9,0,3.8,0.3,5.7,0.1c1-0.1,1.3,0.8,1.3,1.7c0.1,1-0.3,1.8-1.4,1.8
					c-2.4,0.2-4.7,0.3-7.1,0.1c-1.2-0.1-2.5,0-3.7,0.3c-0.7,0.2-1.2,0.7-1.1,1.4c0.1,0.8,0.8,0.6,1.4,0.5c2.2-0.4,4.4-0.5,6.6-0.3
					c1.2,0.1,2.3,0.6,3.4,1.1c2.8,1.6,4.1,5.2,2.7,8.2c-1.1,2.2-3.3,3.1-5.5,3.8C119.4,78.4,118.1,78.3,116.8,78.3z"/>
				<path class="st2" d="M141.1,78c-1.7-0.1-3.4,0-5.1-0.5c-3.5-0.9-6.2-4.7-5.8-8.3c0.1-1.2,0.3-2.4,0.3-3.5c0-2.6,3.5-5.3,5.5-5.9
					c2.7-0.7,5.5-0.9,8.3-0.5c3,0.5,5.9,1.6,7,4.7c1.2,3.6,1.2,7.4-0.8,10.7c-1.4,2.3-4,3-6.6,3.2C142.9,78,142,78,141.1,78z
					 M141.8,63.1c-1.3,0.1-2.3,0-3.2,0.2c-2.7,0.6-4.2,2.3-4.3,5.1c-0.1,3.2,0.9,4.7,3.8,5.4c1.1,0.3,2.3,0.7,3.6,0.6
					c2.9-0.4,5.2-1.2,6.3-4.2c0.8-2-0.4-5.4-2.3-6.2C144.3,63.4,142.9,62.8,141.8,63.1z"/>
				<path class="st2" d="M166.5,78c-1.7-0.1-3.4,0-5.1-0.5c-3.5-0.9-6.2-4.7-5.8-8.3c0.1-1.2,0.3-2.4,0.3-3.5c0-2.6,3.5-5.3,5.5-5.9
					c2.7-0.7,5.5-0.9,8.3-0.5c3,0.5,5.9,1.6,7,4.7c1.2,3.6,1.2,7.4-0.8,10.7c-1.4,2.3-4,3-6.6,3.2C168.3,78,167.4,78,166.5,78z
					 M167.2,63.1c-1.3,0.1-2.3,0-3.2,0.2c-2.7,0.6-4.2,2.3-4.3,5.1c-0.1,3.2,0.9,4.7,3.8,5.4c1.1,0.3,2.3,0.7,3.6,0.6
					c2.9-0.4,5.2-1.2,6.3-4.2c0.8-2-0.4-5.4-2.3-6.2C169.7,63.4,168.3,62.8,167.2,63.1z"/>
			</g>
			<g class="st1">
				<path class="st3" d="M48.3,35.4c-1.8,0-3.3,0-4.8-0.4c-0.7-0.2-1.4-0.6-1.9-1.1c-0.3-0.4-0.7-0.9-0.2-1.5
					c0.4-0.5,1.1-0.7,1.8-0.4c0.5,0.2,0.8,0.7,1.4,0.9c1.8,0.5,3.6,0.5,5.3,0.2c0.3-0.1,0.7-0.1,1-0.2c0.3-0.1,0.7-0.2,0.7-0.5
					c0-0.3-0.3-0.5-0.6-0.6c-0.8-0.2-1.5-0.5-2.3-0.5c-1.6-0.1-3.1-0.3-4.5-0.8c-0.9-0.3-1.9-0.6-2.3-1.7c-0.4-1.3,0.1-2.5,1.3-3.1
					c1.4-0.7,2.9-1,4.5-0.9c0.8,0.1,1.6,0,2.4,0.1c0.9,0.1,1.6,0.5,2.4,0.8c0.7,0.2,1.1,0.7,1.4,1.3c0.2,0.3,0.1,0.5-0.1,0.8
					c-0.3,0.4-0.7,0.7-1.3,0.5c-0.3-0.1-0.6-0.2-0.8-0.4c-1.7-1.2-3.6-1.1-5.6-0.8c-0.5,0.1-1.3,0-1.3,0.8c0,0.7,0.8,0.8,1.3,0.9
					c1.3,0.2,2.7,0.4,4,0.4c1.1,0.1,2.2,0.4,3.2,1c1.1,0.7,1.4,1.6,1.2,2.7c-0.2,1.1-1.1,1.6-1.9,1.8C50.9,35.1,49.5,35.7,48.3,35.4
					z"/>
				<path class="st3" d="M63.7,30.4c0,1.3,0,2.5,0,3.8c0,1-0.4,1.3-1.3,1.2c-0.4,0-0.7-0.2-0.7-0.6c0-0.2-0.1-0.4-0.1-0.6
					c0-1.6,0-3.2-0.1-4.8c0-0.6,0.1-1.1,0-1.7c-0.1-0.5-0.3-0.8-0.9-0.7c-1.1,0.1-2.3-0.2-3.4,0c-0.5,0.1-0.9,0-0.9-0.6
					C56.2,25.6,56.5,25,57,25c1.9,0.2,4,0,5.9,0c1.7,0,3.5,0.1,5.2,0c0.4,0,0.8,0.1,0.8,0.6c0,0.5,0.1,1.1-0.6,1.3
					C68.1,27,67.9,27,67.6,27H65c-0.9,0-1.2,0.3-1.2,1.2C63.7,28.9,63.7,29.7,63.7,30.4L63.7,30.4z"/>
				<path class="st3" d="M85.1,35.4c-0.7,0.1-1.3-0.3-1.7-1c-0.5-1-1.3-1.5-2.5-1.4c-1.5,0-3.1,0.1-4.6,0c-0.9,0-1.5,0.3-2,1.1
					c-0.6,0.9-1.3,1.6-2.5,1.4c-0.8-0.1-1-0.4-0.6-1.1c0.9-1.4,2-2.6,2.9-3.9c1-1.5,2-2.9,3.1-4.3c0.1-0.2,0.3-0.4,0.4-0.6
					c0.8-0.8,1.8-0.7,2.6,0.2c0.4,0.5,0.6,1,0.9,1.5c0.6,0.9,1.2,1.8,1.9,2.6c1.2,1.4,2,3,3.1,4.4C86.6,35,86.3,35.4,85.1,35.4z
					 M78.5,30.8c0.4,0,0.8,0,1.1,0c0.8-0.1,1-0.4,0.5-1.1c-0.3-0.5-0.7-0.9-1-1.4c-0.3-0.5-0.6-0.5-0.9,0c-0.4,0.6-0.8,1.2-1.2,1.7
					c-0.3,0.4-0.2,0.7,0.4,0.8C77.7,30.9,78.1,30.8,78.5,30.8z"/>
				<path class="st3" d="M100.3,28.2c0,0.3,0,0.7,0,1c-0.1,0.7-0.4,1.2-1.1,1.4c-1.1,0.3-2.1,0.8-3.3,0.6c-0.1,0-0.2,0.1-0.3,0.2
					c-0.1,0.2,0.1,0.3,0.2,0.4c0.7,0.8,1.6,1.1,2.6,1.4c0.9,0.3,1.7,0.4,2.6,0.4c0.7,0,0.9,0.4,0.8,1.1c0,0.6-0.4,0.9-1,0.9
					c-2.4,0-4.7-0.6-6.7-2.1c-0.5-0.4-0.9-0.9-1.2-1.5c-0.3-0.7-0.9-0.9-1.6-0.8c-0.6,0.1-0.9,0.6-1,1.2c-0.1,0.7-0.2,1.4,0,2.1
					c0.1,0.5-0.2,0.7-0.5,0.9c-0.7,0.3-1.7-0.2-1.6-1c0.1-1.4-0.2-2.7,0-4.1c0.1-0.7,0-1.4,0-2.1c0-1,0-1.9,0.2-2.9
					c0.1-0.4,0.4-0.7,1-0.6c0.8,0.1,1.6,0.1,2.3,0.1c1.7-0.1,3.5,0,5.3-0.1C99,24.7,100.3,26.1,100.3,28.2z M94.1,27
					c-0.9,0-1.8,0-2.7,0c-0.6,0-0.9,0.4-0.9,1.1c0,0.6,0.2,1,0.9,1c0.7,0,1.5,0,2.2,0c1.2,0.1,2.4,0,3.6-0.1
					c0.4-0.1,0.8-0.3,0.8-0.8c0.1-0.5-0.2-0.8-0.6-1C97.2,27,96.9,27,96.6,27H94.1z"/>
				<path class="st3" d="M111.2,30.4c0,1.3,0,2.5,0,3.8c0,1-0.4,1.3-1.3,1.2c-0.4,0-0.7-0.2-0.7-0.6c0-0.2-0.1-0.4-0.1-0.6
					c0-1.6,0-3.2-0.1-4.8c0-0.6,0.1-1.1,0-1.7c-0.1-0.5-0.3-0.8-0.9-0.7c-1.1,0.1-2.3-0.2-3.4,0c-0.5,0.1-0.9,0-0.9-0.6
					c-0.1-0.7,0.2-1.4,0.7-1.3c1.9,0.2,4,0,5.9,0c1.7,0,3.5,0.1,5.2,0c0.4,0,0.8,0.1,0.8,0.6c0,0.5,0.1,1.1-0.6,1.3
					c-0.3,0.1-0.5,0.1-0.8,0.1h-2.7c-0.9,0-1.2,0.3-1.2,1.2C111.2,28.9,111.3,29.7,111.2,30.4L111.2,30.4z"/>
				<path class="st3" d="M121.8,29c-0.3,1.9,0,3.7-0.1,5.5c0,0.5-0.2,1-0.9,1c-0.6,0.1-1.1-0.3-1.3-0.9c-0.1-0.3-0.1-0.6-0.1-0.9
					c0.2-1.8,0.1-3.7,0-5.5c0-0.9,0.2-1.8,0.2-2.6c0-0.8,0.8-0.6,1.3-0.7c0.4-0.1,0.7,0.3,0.7,0.8C121.7,26.8,121.6,28,121.8,29z"/>
				<path class="st3" d="M127,32c0,0.8,0,1.6,0,2.4c0,0.6-0.3,1-1,1c-0.6,0-1.1-0.2-1.1-0.9c-0.1-1.1,0-2.2,0-3.3
					c0-1.8-0.1-3.5-0.1-5.3c0-0.6,0.8-1.2,1.4-0.9c0.5,0.2,0.9,0.4,1.3,0.8c1.4,1.5,3.1,2.6,4.4,4.1c0.5,0.6,1.1,1,1.7,1.5
					c0.2,0.1,0.3,0.3,0.5,0.2c0.2-0.1,0.3-0.3,0.2-0.6c0-0.5-0.2-1-0.1-1.6c0.2-1.2-0.3-2.4,0.1-3.6c0.2-0.7,0.6-0.9,1.2-0.8
					c0.6,0.1,0.8,0.5,0.8,1.1v5.1c0,1,0.1,2,0,3c0,0.5,0,1-0.5,1.2c-0.5,0.2-1,0.3-1.5-0.1c-0.7-0.6-1.5-1.2-2.1-1.8
					c-0.9-1-2-1.8-3-2.8l-1.4-1.3c-0.2-0.2-0.3-0.5-0.7-0.4c-0.3,0.1-0.2,0.5-0.2,0.7C127,30.4,127,31.2,127,32L127,32z"/>
				<path class="st3" d="M152.4,30.4c-0.2,3.1-1.6,4.6-4.9,5c-1.6,0.2-3.2,0.2-4.9,0c-2-0.2-3.7-1.4-4.2-3.5
					c-0.4-1.5-0.3-3.1,0.4-4.6c0.6-1.2,1.7-1.9,3-2.2c2.1-0.4,4.2-0.2,6.3-0.1c1.3,0,2.3,0.7,3.2,1.6c0.3,0.3,0.3,0.7,0.1,1
					c-0.2,0.4-0.5,0.8-1,0.8c-0.5,0.1-0.9,0-1.3-0.3c-2.1-1.4-4.5-1.4-6.8-0.7c-1.4,0.4-2,1.6-1.8,3c0.2,1.9,1.3,2.8,3.2,3
					c1.5,0.1,3,0,4.5-0.4c0.4-0.1,0.8-0.4,1.1-0.7c0.2-0.2,0.4-0.4,0.3-0.7c-0.1-0.3-0.4-0.3-0.7-0.3c-0.7,0-3.2,0-4,0
					c-0.5,0-0.9-0.2-1-0.8c-0.1-0.8,0.2-1.2,0.8-1.4c0.9-0.2,3.5,0,4.4,0c0.7,0,1.4-0.2,2.1-0.1C152.4,29.3,152.4,29.3,152.4,30.4z"
					/>
				<path class="st3" d="M174.4,35.4c-0.7,0.1-1.3-0.3-1.7-1c-0.5-1-1.3-1.5-2.5-1.4c-1.5,0-3.1,0.1-4.6,0c-0.9,0-1.5,0.3-2,1.1
					c-0.6,0.9-1.3,1.6-2.5,1.4c-0.8-0.1-1-0.4-0.6-1.1c0.9-1.4,2-2.6,2.9-3.9c1-1.5,2-2.9,3.1-4.3c0.1-0.2,0.3-0.4,0.4-0.6
					c0.8-0.8,1.8-0.7,2.6,0.2c0.4,0.5,0.6,1,0.9,1.5c0.6,0.9,1.2,1.8,1.9,2.6c1.2,1.4,2,3,3.1,4.4C175.9,35,175.5,35.4,174.4,35.4z
					 M167.8,30.8c0.4,0,0.8,0,1.1,0c0.8-0.1,1-0.4,0.5-1.1c-0.3-0.5-0.7-0.9-1-1.4c-0.3-0.5-0.6-0.5-0.9,0c-0.4,0.6-0.8,1.2-1.2,1.7
					c-0.3,0.4-0.2,0.7,0.4,0.8C167,30.9,167.4,30.8,167.8,30.8z"/>
				<path class="st3" d="M184.9,30.4c0,1.3,0,2.5,0,3.8c0,1-0.4,1.3-1.3,1.2c-0.4,0-0.7-0.2-0.7-0.6c0-0.2-0.1-0.4-0.1-0.6
					c0-1.6,0-3.2-0.1-4.8c0-0.6,0.1-1.1,0-1.7c-0.1-0.5-0.3-0.8-0.9-0.7c-1.1,0.1-2.3-0.2-3.4,0c-0.5,0.1-0.9,0-0.9-0.6
					c-0.1-0.7,0.2-1.4,0.7-1.3c1.9,0.2,4,0,5.9,0c1.7,0,3.5,0.1,5.2,0c0.4,0,0.8,0.1,0.8,0.6c0,0.5,0.1,1.1-0.6,1.3
					c-0.3,0.1-0.5,0.1-0.8,0.1h-2.7c-0.9,0-1.2,0.3-1.2,1.2C184.9,28.9,185,29.7,184.9,30.4L184.9,30.4z"/>
			</g>
		</g>
	</g>
</g>
<g id="Layer_2_00000039098881515918969300000013310027956265961090_">
</g>
<g id="Layer_3" class="st4">
</g>
</svg>
