<?xml version="1.0" encoding="utf-8"?>
<!-- Generator: Adobe Illustrator 26.4.0, SVG Export Plug-In . SVG Version: 6.00 Build 0)  -->
<svg version="1.1" id="Layer_1" xmlns="http://www.w3.org/2000/svg" xmlns:xlink="http://www.w3.org/1999/xlink" x="0px" y="0px"
	 viewBox="0 0 235.4 123.7" style="enable-background:new 0 0 235.4 123.7;" xml:space="preserve">
<style type="text/css">
	.st0{fill:#00C4B3;}
	.st1{enable-background:new    ;}
	.st2{fill:#FFFFFF;}
	.st3{fill:#8AE3D8;}
	.st4{display:none;}
</style>
<g id="Layer_1_00000134212733564521012330000016080650195370633653_">
	<g>
		<g>
			<g>
				<g>
					<g>
						<g>
							<path class="st0" d="M43.3,43.1c41.2,4.7,83,6.1,124.7,2.7c-0.2-1.4-0.4-2.8-0.6-4.3C125,49.6,80.8,51.4,39,43.3
								c-0.2,1.4-0.3,2.9-0.5,4.3c33,5.3,67.4,3.5,100.7-0.9c2.7-0.4,2-4.5-0.6-4.3c-21.7,1.6-43.2,1.4-64.9,2
								c-7.2,0.2-14.5,0.7-21.7,2.2c-4.9,1-12,2.9-14,8.5c-0.4,1.3,0.3,2.9,1.7,2.9c40.2-0.3,80.5-4.7,120.7-3.7
								c-0.2-1.4-0.4-2.8-0.6-4.1c-15.7,5.5-32.6,2.2-48.6,3.2c-16.2,0.9-33.9,6.9-49.6,2c0,1.3,0,2.7,0,4c11.7-5.8,25.9-1.7,38-1.7
								c16.2-0.1,32.7,0.7,48.7-3.5c2.6-0.7,2-5-0.6-4.3c-16.3,4.3-33.1,3.5-49.6,3.4c-12.4,0-26.2-3.8-38.2,2.1
								c-1.6,0.8-1.7,3.5,0,4c16,5,33.8-0.4,50.2-1.7c17.1-1.4,34.4,2.3,51.1-3.6c2-0.7,1.4-4.1-0.5-4.1c-40.2-1-80.5,3.3-120.7,3.7
								c0.6,1,1.1,1.9,1.7,2.9c1.8-4.9,10.6-5.8,14.6-6.4c6.8-1.1,13.7-1.4,20.6-1.5c20.7-0.3,41.4-0.5,62.1-2
								c-0.2-1.4-0.4-2.8-0.6-4.3c-33,4.4-67,6.1-99.7,0.9c-2.6-0.4-3,3.8-0.5,4.3c42.1,8.2,86.8,6.3,129.5-1.9
								c2.7-0.5,2-4.5-0.6-4.3c-41.3,3.4-82.8,1.9-123.6-2.7C41.1,38.5,40.6,42.8,43.3,43.1L43.3,43.1z"/>
						</g>
						<g>
							<path class="st0" d="M162,57c0.3,0,0.6,0,0.8,0c0-1.4,0-2.9,0-4.3c-0.8,0.1-1.6,0.1-2.4,0.3c0.2,1.4,0.4,2.9,0.6,4.3
								c4.1-1.2,8.3-2,12.5-2.4c2.4-0.2,2.2-4.1-0.1-4.3c-3.9-0.3-7.7-0.7-11.4-2c0.3,1.1,0.6,2.2,0.9,3.3
								c3.9-4.4,10.6-4.6,15.7-4.4c5.6,0.3,11.1,1.6,16.4,3.3c0.3-1.4,0.7-2.8,1-4.2c-7,0.3-13.7-1.1-20.7-1c0,1.4,0,2.9,0.1,4.3
								c3-0.9,5-0.4,7.6,1.2c-0.1-1-0.3-2-0.4-3c-3.1,4.1-8,5.7-12.4,7.7c0.5,1.3,1.1,2.6,1.6,3.9c5-2.4,9.9-4.9,14.9-7.3
								c2.5-1.2,0.9-5-1.6-3.9c-3.5,1.6-7.1,2.4-10.8,2.7c-2.7,0.2-2.1,4.5,0.6,4.3c4.1-0.3,8-1.4,11.8-3.1
								c-0.5-1.3-1.1-2.6-1.6-3.9c-5,2.4-9.9,4.9-14.9,7.3c-2.5,1.2-0.9,5.1,1.6,3.9c5.2-2.4,10.4-4.3,14.1-9.1
								c0.7-0.9,0.6-2.5-0.4-3c-3.5-2.1-6.6-3.2-10.7-1.9c-2.1,0.6-2.5,4.3,0,4.3c6.9-0.1,13.7,1.3,20.7,1.1c2.2-0.1,3.4-3.4,1-4.2
								c-10.7-3.6-27.8-7.7-36.9,2.6c-0.9,1.1-0.3,2.9,0.9,3.3c4,1.4,8.2,1.8,12.5,2.2c0-1.4,0-2.9-0.1-4.3
								c-4.2,0.4-8.4,1.2-12.5,2.4c-2.5,0.8-2.1,4.8,0.6,4.3c0.8-0.2,1.6-0.2,2.4-0.3c2.3-0.2,2.3-4.3,0-4.3c-0.3,0-0.6,0-0.9,0
								C159.9,52.7,159.4,57.1,162,57L162,57z"/>
						</g>
					</g>
				</g>
				<g>
					<g>
						<g>
							<path class="st0" d="M188.2,46.4c2.4,14.4,3.6,29.2,3.1,43.9c-0.5,0-1-0.1-1.5-0.1c2.1-15.1,2-30.7-1.6-45.3
								c0.5-0.1,1-0.2,1.5-0.2c2.5,11.5,2.4,23.7,1.4,35.6c-0.1,1-1.5,0.8-1.5-0.1c0.2-7.7-0.3-15.3-0.4-22.9
								c-0.1-2.6,0-5.1,0.4-7.7c0.3-1.7,0.8-4.3,2.8-5.1c0.4-0.2,1,0.1,1.1,0.5c0.6,14.2-0.2,28.5,0.8,42.7c-0.5,0-1-0.1-1.5-0.1
								c1.7-5.7,0.2-11.5,0.3-17.2s1.8-12.1-0.2-17.5c0.5,0,0.9,0,1.4-0.1c-1.8,4.2-0.1,9.2,0.1,13.5c0.2,5.7,0.8,11.5-0.4,17.2
								c-0.2,0.9-1.7,0.8-1.5-0.1c1.2-5.8,0.6-11.7,0.3-17.5c-0.2-4.4-1.8-9.2,0.1-13.5c0.3-0.6,1.2-0.7,1.4-0.1
								c2.1,5.6,0.5,11.9,0.3,17.8c-0.2,6,1.4,12.1-0.4,18.1c-0.2,0.7-1.4,0.6-1.5-0.1c-1.1-14.2-0.2-28.5-0.8-42.7
								c0.4,0.2,0.7,0.4,1.1,0.5c-1.7,0.7-1.8,3.9-2,5.3c-0.3,2.4-0.3,4.9-0.2,7.3c0.3,7.3,0.6,14.6,0.4,22c-0.5,0-1-0.1-1.5-0.1
								c1-11.7,1-23.8-1.4-35.2c-0.2-0.9,1.3-1.1,1.5-0.2c3.6,14.7,3.7,30.5,1.6,45.7c-0.1,1-1.5,0.8-1.5-0.1
								c0.5-14.6-0.8-29.3-3.1-43.6C186.5,45.8,188,45.5,188.2,46.4L188.2,46.4z"/>
						</g>
					</g>
				</g>
			</g>
		</g>
		<g>
			<rect x="42" y="48.5" class="st0" width="151.6" height="43.8"/>
			<g class="st1">
				<path class="st2" d="M71.2,62.9c-0.1,1.1,0.5,1.8,1.5,2c1.8,0.5,3.4,1.3,5,2.1c2.6,1.4,2.8,4.7,0.7,6.7
					c-1.3,1.2-2.8,1.7-4.5,1.9c-0.7,0.1-1.4,0.4-1.9,0.9c-0.8,0.6-1.7,1.1-2.8,1.2c-0.7,0-1.2-0.1-1.7-0.7c-0.7-0.8-1.6-1-2.6-1.2
					c-2.1-0.4-3.9-1.6-5.4-3.2c-0.5-0.6-0.4-1.2,0.1-1.7c0.8-0.9,1.6-1.3,2.8-0.9c1,0.3,1.5,1.2,2.4,1.6c0.6,0.3,1.1,1,1.9,0.5
					c0.8-0.5,0.5-1.3,0.5-2c0.1-2-1.8-1.6-2.7-2.3c-0.7-0.5-1.6-0.6-2.4-0.8c-1.8-0.6-2.8-2-2.9-3.8c-0.1-1.7,0.8-3.6,2.7-4.3
					c1.3-0.5,2.4-1.4,3.9-1.3c0.5,0,0.8-0.4,1.1-0.8c1.7-2.2,3.2-2.1,4.7,0.1c0.4,0.5,0.9,0.6,1.4,0.8c1.8,0.6,3.6,1.2,4.9,2.6
					c0.7,0.7,1.5,1.4,0.8,2.5c-0.7,1-2.1,1.3-3.2,0.6c-0.8-0.5-1.6-1.1-2.5-1.5C71.9,61.2,71.2,61.7,71.2,62.9z M65.7,61.3
					c-0.7,0.3-1.8,0.4-2,1.3c-0.3,1.1,0.9,1,1.4,1.4c0.1,0.1,0.2,0.1,0.3,0.2c0.5,0.2,1,0.5,1.5,0c0.6-0.6,0.4-1.3,0.2-2
					C67,61.5,66.4,61.4,65.7,61.3z M73,72.1c1.1,0,2.3-0.8,2.3-1.4c0-0.7-1.4-1.5-2.4-1.5c-1.1-0.1-1.6,0.8-1.6,1.6
					C71.3,71.9,72.2,72.1,73,72.1z"/>
				<path class="st2" d="M92.7,78.6c-2.1,0.1-4.2-0.1-6.1-1C85.3,77,84.5,76,83.6,75c-0.4-0.6-0.4-1.3,0-1.9c0.4-0.6,1-0.8,1.8-0.7
					c1,0.2,1.8,0.7,2.6,1.3c1.2,0.9,2.5,1.5,4,1.3c1.9-0.3,3.9,0.2,5.5-1.3c1.2-1.1,1.2-3-0.3-3.8c-2-1.2-4.2-1.2-6.4-1
					c-1.6,0.1-2.9,0.8-4.4,1.1c-0.8,0.2-1.7,0.7-2.5-0.1c-0.8-0.8-0.6-1.9-0.4-2.8c0.4-1.4,0.8-2.8,0.9-4.2c0.2-2.5,1.8-3.6,4.7-3.2
					c1.7,0.2,3.3,0,5,0c1.9,0,3.8,0.3,5.7,0.1c1-0.1,1.3,0.8,1.3,1.7c0.1,1-0.3,1.8-1.4,1.8c-2.4,0.2-4.7,0.3-7.1,0.1
					c-1.2-0.1-2.5,0-3.7,0.3c-0.7,0.2-1.2,0.7-1.1,1.4c0.1,0.8,0.8,0.6,1.3,0.5c2.2-0.4,4.4-0.5,6.6-0.3c1.2,0.1,2.3,0.6,3.4,1.1
					c2.8,1.6,4.1,5.2,2.7,8.2c-1.1,2.2-3.3,3.1-5.5,3.8C95.2,78.7,93.9,78.6,92.7,78.6z"/>
				<path class="st2" d="M106.9,82c-0.9-0.6-1.1-1.4-0.7-2.4c0.5-0.9,0.3-2,0.5-3c0.1-1.2,0.9-1.3,1.7-1.3c0.9,0,1.5,0.4,1.8,1.2
					c0.8,2.3-0.4,3.9-1.8,5.4H106.9z"/>
				<path class="st2" d="M123.4,78.6c-2.1,0.1-4.2-0.1-6.1-1c-1.2-0.6-2.1-1.6-2.9-2.6c-0.5-0.6-0.4-1.3,0-1.9
					c0.4-0.6,1-0.8,1.8-0.7c1,0.2,1.8,0.7,2.6,1.3c1.2,0.9,2.5,1.5,4,1.3c1.9-0.3,3.9,0.2,5.5-1.3c1.2-1.1,1.2-3-0.3-3.8
					c-2-1.2-4.2-1.2-6.4-1c-1.6,0.1-2.9,0.8-4.4,1.1c-0.8,0.2-1.7,0.7-2.5-0.1c-0.8-0.8-0.6-1.9-0.4-2.8c0.4-1.4,0.8-2.8,0.9-4.2
					c0.2-2.5,1.8-3.6,4.7-3.2c1.7,0.2,3.3,0,5,0c1.9,0,3.8,0.3,5.7,0.1c1-0.1,1.3,0.8,1.3,1.7c0.1,1-0.3,1.8-1.4,1.8
					c-2.4,0.2-4.7,0.3-7.1,0.1c-1.2-0.1-2.5,0-3.7,0.3c-0.7,0.2-1.2,0.7-1.1,1.4c0.1,0.8,0.8,0.6,1.4,0.5c2.2-0.4,4.4-0.5,6.6-0.3
					c1.2,0.1,2.3,0.6,3.4,1.1c2.8,1.6,4.1,5.2,2.7,8.2c-1.1,2.2-3.3,3.1-5.5,3.8C125.9,78.7,124.6,78.6,123.4,78.6z"/>
				<path class="st2" d="M147.6,78.3c-1.7-0.1-3.4,0-5.1-0.5c-3.5-0.9-6.2-4.7-5.8-8.3c0.1-1.2,0.3-2.4,0.3-3.5
					c0-2.6,3.5-5.3,5.5-5.9c2.7-0.7,5.5-0.9,8.3-0.5c3,0.5,5.9,1.6,7,4.7c1.2,3.6,1.2,7.4-0.8,10.7c-1.4,2.3-4,3-6.6,3.2
					C149.4,78.3,148.5,78.3,147.6,78.3z M148.3,63.4c-1.4,0.1-2.3,0-3.2,0.2c-2.7,0.6-4.2,2.3-4.3,5.1c-0.1,3.2,0.9,4.7,3.8,5.4
					c1.1,0.3,2.2,0.7,3.6,0.6c2.9-0.4,5.2-1.2,6.3-4.2c0.8-2-0.4-5.4-2.3-6.2C150.8,63.7,149.4,63.1,148.3,63.4z"/>
				<path class="st2" d="M173,78.3c-1.7-0.1-3.4,0-5.1-0.5c-3.5-0.9-6.2-4.7-5.8-8.3c0.1-1.2,0.3-2.4,0.3-3.5c0-2.6,3.5-5.3,5.5-5.9
					c2.7-0.7,5.5-0.9,8.3-0.5c3,0.5,5.9,1.6,7,4.7c1.2,3.6,1.2,7.4-0.8,10.7c-1.4,2.3-4,3-6.6,3.2C174.8,78.3,173.9,78.3,173,78.3z
					 M173.7,63.4c-1.4,0.1-2.3,0-3.2,0.2c-2.7,0.6-4.2,2.3-4.3,5.1c-0.1,3.2,0.9,4.7,3.8,5.4c1.1,0.3,2.2,0.7,3.6,0.6
					c2.9-0.4,5.2-1.2,6.3-4.2c0.8-2-0.4-5.4-2.3-6.2C176.2,63.7,174.8,63.1,173.7,63.4z"/>
			</g>
			<g class="st1">
				<path class="st3" d="M48.6,35.7c-1.8,0-3.3,0-4.8-0.4c-0.7-0.2-1.4-0.6-1.9-1.1c-0.3-0.4-0.7-0.9-0.2-1.5
					c0.4-0.5,1.1-0.7,1.8-0.4c0.5,0.2,0.8,0.7,1.4,0.9c1.8,0.5,3.6,0.5,5.3,0.2c0.3-0.1,0.7-0.1,1-0.2c0.3-0.1,0.7-0.2,0.7-0.5
					c0-0.3-0.3-0.5-0.6-0.6c-0.8-0.2-1.5-0.5-2.3-0.5c-1.6-0.1-3.1-0.3-4.5-0.8c-0.9-0.3-1.9-0.6-2.3-1.7c-0.4-1.3,0.1-2.5,1.3-3.1
					c1.4-0.7,2.9-1,4.5-0.9c0.8,0.1,1.6,0,2.4,0.1c0.9,0.1,1.6,0.5,2.4,0.8c0.7,0.2,1.1,0.7,1.4,1.3c0.2,0.3,0.1,0.5-0.1,0.8
					c-0.3,0.4-0.7,0.7-1.3,0.5c-0.3-0.1-0.6-0.2-0.8-0.4c-1.7-1.2-3.6-1.1-5.6-0.8c-0.5,0.1-1.3,0-1.3,0.8c0,0.7,0.8,0.8,1.3,0.9
					c1.3,0.2,2.7,0.4,4,0.4c1.1,0.1,2.2,0.4,3.2,1c1.1,0.7,1.4,1.6,1.2,2.7c-0.2,1.1-1.1,1.6-1.9,1.8C51.3,35.4,49.9,36,48.6,35.7z"
					/>
				<path class="st3" d="M64.1,30.7c0,1.3,0,2.5,0,3.8c0,1-0.4,1.3-1.3,1.2c-0.4,0-0.7-0.2-0.7-0.6c0-0.2-0.1-0.4-0.1-0.6
					c0-1.6,0-3.2-0.1-4.8c0-0.6,0.1-1.1,0-1.7c-0.1-0.5-0.3-0.8-0.9-0.7c-1.1,0.1-2.3-0.2-3.4,0c-0.5,0.1-0.9,0-0.9-0.6
					c-0.1-0.7,0.2-1.4,0.7-1.3c1.9,0.2,4,0,5.9,0c1.7,0,3.5,0.1,5.2,0c0.4,0,0.8,0.1,0.8,0.6c0,0.5,0.1,1.1-0.6,1.3
					c-0.3,0.1-0.5,0.1-0.8,0.1h-2.7c-0.9,0-1.2,0.3-1.2,1.2C64.1,29.2,64.1,30,64.1,30.7L64.1,30.7z"/>
				<path class="st3" d="M85.5,35.7c-0.7,0.1-1.3-0.3-1.7-1c-0.5-1-1.3-1.5-2.5-1.4c-1.5,0-3.1,0.1-4.6,0c-0.9,0-1.5,0.3-2,1.1
					c-0.6,0.9-1.3,1.6-2.5,1.4c-0.8-0.1-1-0.4-0.6-1.1c0.9-1.4,2-2.6,2.9-3.9c1-1.5,2-2.9,3.1-4.3c0.1-0.2,0.3-0.4,0.4-0.6
					c0.8-0.8,1.8-0.7,2.6,0.2c0.4,0.5,0.6,1,0.9,1.5c0.6,0.9,1.2,1.8,1.9,2.6c1.2,1.4,2,3,3.1,4.4C87,35.3,86.6,35.7,85.5,35.7z
					 M78.9,31.1c0.4,0,0.8,0,1.1,0c0.8-0.1,1-0.4,0.5-1.1c-0.3-0.5-0.7-0.9-1-1.4c-0.3-0.5-0.6-0.5-0.9,0c-0.4,0.6-0.8,1.2-1.2,1.7
					c-0.3,0.4-0.2,0.7,0.4,0.8C78.1,31.2,78.5,31.1,78.9,31.1z"/>
				<path class="st3" d="M100.7,28.5c0,0.3,0,0.7,0,1c-0.1,0.7-0.4,1.2-1.1,1.4c-1.1,0.3-2.1,0.8-3.3,0.6c-0.1,0-0.2,0.1-0.3,0.2
					c-0.1,0.2,0.1,0.3,0.2,0.4c0.7,0.8,1.6,1.1,2.6,1.4c0.9,0.3,1.7,0.4,2.6,0.4c0.7,0,0.9,0.4,0.8,1.1c0,0.6-0.4,0.9-1,0.9
					c-2.4,0-4.7-0.6-6.7-2.1c-0.5-0.4-0.9-0.9-1.2-1.5c-0.3-0.7-0.9-0.9-1.6-0.8c-0.6,0.1-0.9,0.6-1,1.2c-0.1,0.7-0.2,1.4,0,2.1
					c0.1,0.5-0.2,0.7-0.5,0.9c-0.7,0.3-1.7-0.2-1.6-1c0.1-1.4-0.2-2.7,0-4.1c0.1-0.7,0-1.4,0-2.1c0-1,0-1.9,0.2-2.9
					c0.1-0.4,0.4-0.7,1-0.6c0.8,0.1,1.6,0.1,2.3,0.1c1.7-0.1,3.5,0,5.3-0.1C99.4,25,100.7,26.4,100.7,28.5z M94.5,27.3
					c-0.9,0-1.8,0-2.7,0c-0.6,0-0.9,0.4-0.9,1.1c0,0.6,0.2,1,0.9,1c0.7,0,1.5,0,2.2,0c1.2,0.1,2.4,0,3.6-0.1
					c0.4-0.1,0.8-0.3,0.8-0.8c0.1-0.5-0.2-0.8-0.6-1c-0.3-0.1-0.5-0.2-0.8-0.2H94.5z"/>
				<path class="st3" d="M111.6,30.7c0,1.3,0,2.5,0,3.8c0,1-0.4,1.3-1.3,1.2c-0.4,0-0.7-0.2-0.7-0.6c0-0.2-0.1-0.4-0.1-0.6
					c0-1.6,0-3.2-0.1-4.8c0-0.6,0.1-1.1,0-1.7c-0.1-0.5-0.3-0.8-0.9-0.7c-1.1,0.1-2.3-0.2-3.4,0c-0.5,0.1-0.9,0-0.9-0.6
					c-0.1-0.7,0.2-1.4,0.7-1.3c1.9,0.2,4,0,5.9,0c1.7,0,3.5,0.1,5.2,0c0.4,0,0.8,0.1,0.8,0.6c0,0.5,0.1,1.1-0.6,1.3
					c-0.3,0.1-0.5,0.1-0.8,0.1h-2.7c-0.9,0-1.2,0.3-1.2,1.2C111.6,29.2,111.6,30,111.6,30.7L111.6,30.7z"/>
				<path class="st3" d="M122.2,29.3c-0.3,1.9,0,3.7-0.1,5.5c0,0.5-0.2,1-0.9,1c-0.6,0.1-1.1-0.3-1.3-0.9c-0.1-0.3-0.1-0.6-0.1-0.9
					c0.2-1.8,0.1-3.7,0-5.5c0-0.9,0.2-1.8,0.2-2.6c0-0.8,0.8-0.6,1.3-0.7c0.4-0.1,0.7,0.3,0.7,0.8C122.1,27.1,121.9,28.3,122.2,29.3
					z"/>
				<path class="st3" d="M127.3,32.3c0,0.8,0,1.6,0,2.4c0,0.6-0.3,1-1,1c-0.6,0-1.1-0.2-1.1-0.9c-0.1-1.1,0-2.2,0-3.3
					c0-1.8-0.1-3.5-0.1-5.3c0-0.6,0.8-1.2,1.4-0.9c0.5,0.2,0.9,0.4,1.3,0.8c1.4,1.5,3.1,2.6,4.4,4.1c0.5,0.6,1.1,1,1.7,1.5
					c0.2,0.1,0.3,0.3,0.5,0.2c0.2-0.1,0.3-0.3,0.2-0.6c0-0.5-0.2-1-0.1-1.6c0.2-1.2-0.3-2.4,0.1-3.6c0.2-0.7,0.6-0.9,1.2-0.8
					c0.6,0.1,0.8,0.5,0.8,1.1v5.1c0,1,0.1,2,0,3c0,0.5,0,1-0.5,1.2c-0.5,0.2-1,0.3-1.5-0.1c-0.7-0.6-1.5-1.2-2.1-1.8
					c-0.9-1-2-1.8-3-2.8l-1.4-1.3c-0.2-0.2-0.3-0.5-0.7-0.4c-0.3,0.1-0.2,0.5-0.2,0.7C127.3,30.7,127.4,31.5,127.3,32.3L127.3,32.3z
					"/>
				<path class="st3" d="M152.8,30.6c-0.2,3.1-1.6,4.6-4.9,5c-1.6,0.2-3.2,0.2-4.9,0c-2-0.2-3.7-1.4-4.2-3.5
					c-0.4-1.5-0.3-3.1,0.4-4.6c0.6-1.2,1.7-1.9,3-2.2c2.1-0.4,4.2-0.2,6.3-0.1c1.3,0,2.3,0.7,3.2,1.6c0.3,0.3,0.3,0.7,0.1,1
					c-0.2,0.4-0.5,0.8-1,0.8c-0.5,0.1-0.9,0-1.3-0.3c-2.1-1.4-4.5-1.4-6.8-0.7c-1.4,0.4-2,1.6-1.8,3c0.2,1.9,1.3,2.8,3.2,3
					c1.5,0.1,3,0,4.5-0.4c0.4-0.1,0.8-0.4,1.1-0.7c0.2-0.2,0.4-0.4,0.3-0.7c-0.1-0.3-0.4-0.3-0.7-0.3c-0.7,0-3.2,0-4,0
					c-0.5,0-0.9-0.2-1-0.8c-0.1-0.8,0.2-1.2,0.8-1.4c0.9-0.2,3.5,0,4.4,0c0.7,0,1.4-0.2,2.1-0.1C152.8,29.6,152.8,29.5,152.8,30.6z"
					/>
				<path class="st3" d="M174.7,35.7c-0.7,0.1-1.3-0.3-1.7-1c-0.5-1-1.3-1.5-2.5-1.4c-1.5,0-3.1,0.1-4.6,0c-0.9,0-1.5,0.3-2,1.1
					c-0.6,0.9-1.3,1.6-2.5,1.4c-0.8-0.1-1-0.4-0.6-1.1c0.9-1.4,2-2.6,2.9-3.9c1-1.5,2-2.9,3.1-4.3c0.1-0.2,0.3-0.4,0.4-0.6
					C168,25,169,25,169.7,26c0.4,0.5,0.6,1,0.9,1.5c0.6,0.9,1.2,1.8,1.9,2.6c1.2,1.4,2,3,3.1,4.4C176.3,35.3,175.9,35.7,174.7,35.7z
					 M168.1,31.1c0.4,0,0.8,0,1.1,0c0.8-0.1,1-0.4,0.5-1.1c-0.3-0.5-0.7-0.9-1-1.4c-0.3-0.5-0.6-0.5-0.9,0c-0.4,0.6-0.8,1.2-1.2,1.7
					c-0.3,0.4-0.2,0.7,0.4,0.8C167.4,31.2,167.8,31.1,168.1,31.1z"/>
				<path class="st3" d="M185.3,30.7c0,1.3,0,2.5,0,3.8c0,1-0.4,1.3-1.3,1.2c-0.4,0-0.7-0.2-0.7-0.6c0-0.2-0.1-0.4-0.1-0.6
					c0-1.6,0-3.2-0.1-4.8c0-0.6,0.1-1.1,0-1.7c-0.1-0.5-0.3-0.8-0.9-0.7c-1.1,0.1-2.3-0.2-3.4,0c-0.5,0.1-0.9,0-0.9-0.6
					c-0.1-0.7,0.2-1.4,0.7-1.3c1.9,0.2,4,0,5.9,0c1.7,0,3.5,0.1,5.2,0c0.4,0,0.8,0.1,0.8,0.6c0,0.5,0.1,1.1-0.6,1.3
					c-0.3,0.1-0.5,0.1-0.8,0.1h-2.7c-0.9,0-1.2,0.3-1.2,1.2C185.3,29.2,185.3,30,185.3,30.7L185.3,30.7z"/>
			</g>
		</g>
	</g>
</g>
<g id="Layer_2_00000134972205471025364260000015439372803653808053_">
</g>
<g id="Layer_3" class="st4">
</g>
</svg>
