<?xml version="1.0" encoding="utf-8"?>
<!-- Generator: Adobe Illustrator 26.0.2, SVG Export Plug-In . SVG Version: 6.00 Build 0)  -->
<svg version="1.1" id="Layer_1" xmlns="http://www.w3.org/2000/svg" xmlns:xlink="http://www.w3.org/1999/xlink" x="0px" y="0px"
	 viewBox="0 0 459.74 428.04" style="enable-background:new 0 0 459.74 428.04;" xml:space="preserve">
<style type="text/css">
	.st0{fill:#674459;}
	.st1{fill:#839794;}
	.st2{fill:#AF95A6;}
	.st3{clip-path:url(#SVGID_00000002380183463176957890000002080985413384861072_);}
	.st4{clip-path:url(#SVGID_00000114051094566966620200000018087642153243120806_);}
	.st5{clip-path:url(#SVGID_00000100353357648427805930000015565272496146259118_);}
</style>
<g>
	<g>
		<g>
			<path class="st0" d="M336.55,201.27c0.04,0.3-0.24,0.56-0.49,0.81c-0.29,0.04-0.58,0.06-0.87,0.04
				c-0.16-0.01-0.32-0.03-0.48-0.05c-0.38-0.12-0.78-0.19-1.18-0.22c0.06-0.03,0.11-0.06,0.17-0.09c-2.55-1-3.05-1.11-5.03-0.47
				c-3.82,1.23-7.41,0.52-10.9-1.15c-2.68-1.29-4.35-3.56-5.66-6.11c-0.67-1.3-0.37-1.77,1.06-1.98c0.78-0.11,1.56-0.21,2.35-0.29
				c5.31-0.54,9.78,0.81,12.68,5.67c0.6,1,1.43,1.64,2.61,1.93c1.98,0.47,3.95,0.9,5.98,1.05
				C336.61,200.66,336.52,200.95,336.55,201.27z"/>
			<g>
				<g>
					<path class="st0" d="M294.04,309.55c-1.51,0.7-2.34,3.08-3.25,1.63c-0.99-1.57,18.96-19.91,20.19-21.3
						c21.88-24.83,35.91-59.8,17.87-99.01c-4.5-9.77-12.52-21.87-20.19-29.28c-1.33-1.29-0.61-1.4,0.68-2.74
						c1.29-1.33,3.67,1.43,4.97,2.75c7.54,7.67,12.96,14.31,18.19,25.01c5.07,10.36,8.69,22.7,9.4,34.11
						c0.69,11.02-0.42,18.49-3.64,29.11c-6.51,21.51-16.52,36.08-33.08,49.47C305.06,299.4,294.17,309.49,294.04,309.55z"/>
					<path class="st0" d="M335.35,168.4c-2.91,4.32-3.97,8.73-2.29,13.4c0.3,0.84,0.76,1.68,0.35,2.62
						c-0.65,1.48-1.33,2.95-2.08,4.57c0.66,0.64,1.31,1.27,1.93,1.93c0.31-0.68,0.62-1.37,0.89-2.06c0.7-1.78,1.81-3.08,3.76-4.15
						c10.88-5.98,12.42-17.38,9-25.47c-0.76-1.8-1.77-2-3.1-0.63C340.78,161.73,337.76,164.84,335.35,168.4z"/>
					<path class="st0" d="M354.86,223.21c-4.08,0.82-7.15,2.74-8.82,6.34c-0.3,0.64-0.51,1.38-1.27,1.69
						c-1.2,0.47-2.41,0.93-3.74,1.43c0.02,0.73,0.03,1.46,0.02,2.18c0.56-0.21,1.12-0.43,1.66-0.67c1.39-0.62,2.76-0.74,4.46-0.25
						c9.54,2.7,16.81-2.93,19.4-9.44c0.58-1.45,0.11-2.13-1.41-2.1C361.7,222.45,358.23,222.53,354.86,223.21z"/>
					<path class="st0" d="M322.46,253.25c2.6,2.78,3.84,5.81,3.13,9.27c-0.13,0.62-0.37,1.26,0.03,1.89
						c0.64,0.98,1.29,1.96,2.01,3.04c-0.41,0.51-0.82,1.02-1.2,1.55c-0.3-0.45-0.6-0.91-0.88-1.37c-0.71-1.19-1.66-2.01-3.2-2.58
						c-8.59-3.21-10.96-11.14-9.33-17.18c0.36-1.35,1.08-1.58,2.2-0.74C317.77,249.03,320.32,250.95,322.46,253.25z"/>
					<path class="st0" d="M353.7,188.05c-6.31,5.76-9.69,12.36-8.82,20.45c0.15,1.45,0.56,2.98-0.46,4.31
						c-1.61,2.1-3.25,4.18-5.07,6.47c0.8,1.26,1.59,2.53,2.33,3.82c0.76-0.97,1.52-1.94,2.22-2.93c1.8-2.56,4.07-4.2,7.59-5.16
						c19.62-5.32,26.48-22.89,24.15-37.08c-0.52-3.16-2.05-3.87-4.69-2.2C364.93,179.51,358.91,183.3,353.7,188.05z"/>
					<path class="st0" d="M318.88,153.4c-1.26,3.97-1.09,7.58,1.25,10.78c0.42,0.57,0.96,1.12,0.85,1.93
						c-0.17,1.28-0.36,2.56-0.57,3.97c0.65,0.34,1.29,0.68,1.91,1.05c0.09-0.59,0.17-1.19,0.22-1.78c0.14-1.52,0.7-2.77,1.95-4.02
						c7-7.02,5.62-16.11,1.19-21.54c-0.99-1.21-1.8-1.14-2.52,0.21C321.55,147.06,319.93,150.12,318.88,153.4z"/>
					<path class="st0" d="M351.17,250.22c-5.22,0.79-9.36,2.95-12.03,7.23c-0.48,0.77-0.87,1.65-1.87,1.98
						c-1.57,0.51-3.15,1-4.9,1.54c-0.1,0.89-0.21,1.77-0.34,2.65c0.73-0.23,1.47-0.46,2.18-0.73c1.84-0.68,3.55-0.75,5.6-0.08
						c11.43,3.76,21.42-2.69,25.72-10.45c0.96-1.73,0.5-2.58-1.41-2.62C359.8,249.66,355.48,249.57,351.17,250.22z"/>
				</g>
			</g>
			<path class="st0" d="M328.32,223.83c3.89,2.85,6.19,6.36,6.19,10.96c0,0.82-0.14,1.71,0.52,2.39c1.03,1.08,2.08,2.15,3.24,3.33
				c-0.37,0.76-0.74,1.52-1.08,2.29c-0.49-0.5-0.97-1-1.42-1.51c-1.17-1.33-2.54-2.12-4.57-2.44c-11.35-1.8-16.26-11.26-15.81-19.37
				c0.1-1.81,0.92-2.3,2.5-1.52C321.5,219.71,325.11,221.47,328.32,223.83z"/>
			<path class="st1" d="M372.94,176.63c0,0-25.03,13.37-25.81,29.63l-0.81,4.86C346.33,211.12,378.41,178.24,372.94,176.63z"/>
			<g>
				<path class="st0" d="M351.63,199.56c-3.03,9.01-1.96,16.54-2.16,16.5c0.2,0.04-0.24-7.51,2.75-16.35
					c2.68-8.94,7.43-15.36,8.17-14.66C359.71,184.26,354.33,190.54,351.63,199.56z"/>
				<path class="st0" d="M357.4,185.21c0.15,0-5.03,5.1-7.24,13.09c-3.05,7.72-2.82,14.39-2.42,14.3c-0.38,0-0.03-6.47,3.01-14.17
					C352.92,190.59,357.52,185.24,357.4,185.21z"/>
			</g>
			<path class="st1" d="M346.26,160.64c0,0,1.15,15.94-8.38,21.61l-1.87,1.11C336.01,183.36,343.2,158.99,346.26,160.64z"/>
			<path class="st1" d="M317.16,220.78c0,0,3.42,12.88,12.51,14.62l1.78,0.34C331.46,235.74,319.06,218.56,317.16,220.78z"/>
			<path class="st1" d="M341,259.52c0,0,11.38,4.09,20.14-4.54l1.72-1.7C362.86,253.28,341.14,255.98,341,259.52z"/>
			<g>
				<path class="st0" d="M314.22,161.63c-0.05,0.03-0.75-1.23-0.89-1.11c-0.15,0.13-0.36,0.28-0.43,0.33
					c-0.3,0.13-0.61,0.24-0.92,0.33c-0.72,0.2-1.32,0.63-1.79,1.18c-1.43-0.74-2.78-1.51-4.05-2.41c-1.95-1.37-4.02-1.67-6.45-1.45
					c-9.26,0.83-18.05-0.55-26.31-4.28c-7.8-3.52-13.88-8.95-18.72-15.77c-2.42-3.42-1.72-4.91,2.48-5.53
					c3.19-0.47,6.4-0.87,9.6-1.26c15.86-1.95,28.45,2.46,35.65,16.68c2.68,5.3,6.26,10.08,11.37,12.61
					C313.58,161.11,314.54,163.36,314.22,161.63z"/>
				<path class="st1" d="M260.11,137.7l39.62,16.93c0,0-3.11-15.58-14.79-18.06C273.26,134.1,261.89,135.55,260.11,137.7z"/>
				<g>
					<path class="st0" d="M290,158.69c-0.1,0.11-0.18-7-4.52-13.92c-3.54-7.34-8.66-11.63-8.88-11.28c0.28-0.28,4.82,4.3,8.36,11.62
						C289.22,151.88,289.89,158.76,290,158.69z"/>
					<path class="st0" d="M291.84,155.51c0.61-0.07-0.55-5.38-3.35-11.13c-2.96-5.79-7-9.14-6.84-9.25c-0.16,0.1,3.43,3.92,6.3,9.54
						C290.73,150.41,292.43,155.38,291.84,155.51z"/>
				</g>
				<g>
					<path class="st0" d="M295.91,156.24c-0.09,0.09-0.16-6.01-3.88-11.95c-3.04-6.3-7.44-9.98-7.62-9.68
						c0.24-0.24,4.14,3.69,7.18,9.97C295.24,150.4,295.82,156.3,295.91,156.24z"/>
				</g>
			</g>
			<g>
				<path class="st0" d="M309.43,160.11c0.02-0.01,0.19-0.07,0.28-0.11c0.1-0.04,0.21-0.1,0.26-0.11c0.13-0.1,0.26-0.22,0.37-0.34
					c0.27-0.28,0.61-0.44,0.97-0.52c0-0.86-0.03-1.7-0.13-2.53c-0.16-1.28,0.2-2.31,0.88-3.38c2.59-4.08,4.06-8.53,4.34-13.37
					c0.26-4.57-0.77-8.85-2.73-12.92c-0.98-2.04-1.83-2.12-3.12-0.33c-0.98,1.36-1.93,2.74-2.87,4.12
					c-4.69,6.84-5.68,13.88-0.9,21.04c1.78,2.67,2.41,5.51,2.34,8.55C309.21,160.18,309.32,160.15,309.43,160.11z"/>
				<path class="st1" d="M312.01,129.16l-1.74,22.95c0,0-6.38-5.62-4.72-11.71S310.6,129.41,312.01,129.16z"/>
				<g>
					<path class="st0" d="M314.58,147.66c0.07-0.02-3.16-1.96-5.29-5.83c-2.51-3.61-3.24-7.14-3.03-7.15
						c-0.19,0.05,0.81,3.39,3.31,7C311.65,145.48,314.64,147.63,314.58,147.66z"/>
					<path class="st0" d="M312.69,147.67c-0.18,0.26-2.33-1.7-4.29-4.54c-1.94-2.93-2.5-5.7-2.59-5.66
						c0.08-0.05,0.97,2.65,2.86,5.48C310.62,145.78,312.48,147.9,312.69,147.67z"/>
				</g>
				<g>
					<path class="st0" d="M312.04,149.75c0.06-0.02-2.71-1.68-4.54-5.01c-2.15-3.1-2.78-6.13-2.6-6.14
						c-0.16,0.05,0.7,2.91,2.84,6.01C309.53,147.88,312.09,149.73,312.04,149.75z"/>
				</g>
			</g>
			<g>
				<path class="st0" d="M313.23,165.22c-0.01-0.01-0.1-0.11-0.14-0.16c-0.05-0.05-0.12-0.12-0.14-0.14
					c-0.1-0.06-0.21-0.12-0.32-0.16c-0.25-0.11-0.44-0.29-0.58-0.52c-0.57,0.21-1.12,0.44-1.64,0.71c-0.81,0.42-1.58,0.44-2.46,0.25
					c-3.34-0.72-6.66-0.59-9.94,0.42c-3.09,0.96-5.68,2.69-7.9,5c-1.11,1.16-0.95,1.74,0.55,2.15c1.14,0.32,2.29,0.6,3.44,0.89
					c5.69,1.42,10.6,0.34,14.17-4.59c1.33-1.84,3.06-2.95,5.09-3.66C313.33,165.35,313.28,165.28,313.23,165.22z"/>
				<path class="st1" d="M292.07,171.14l15.65-4.51c0,0-2.03,5.17-6.48,5.57C296.79,172.61,292.58,172.02,292.07,171.14z"/>
				<path class="st1" d="M324.93,145.46l-2.91,19.07c0,0-3.35-6-1.94-10.23C321.5,150.06,323.93,145.58,324.93,145.46z"/>
				<path class="st1" d="M327.92,199.77l-13.7-6.11c0,0,4.87-1.3,8.05,0.75C325.46,196.46,328.03,198.92,327.92,199.77z"/>
				<path class="st1" d="M364.51,224.89l-17.46,6.13c0,0,3.89-5.68,8.37-6.41C359.91,223.88,363.92,224.04,364.51,224.89z"/>
				<path class="st1" d="M323.84,263.69l-9.55-14.86c0,0,6.1,3.05,8.12,6.96C324.43,259.7,324.43,263.01,323.84,263.69z"/>
				<g>
					<path class="st0" d="M347.25,166.64c-0.03-0.09-1.87,4.31-5.9,7.5c-3.72,3.66-7.48,5.01-7.51,4.74
						c0.07,0.24,3.61-1.43,7.32-5.08C345.11,170.67,347.21,166.57,347.25,166.64z"/>
					<path class="st0" d="M347.4,169.09c0.3,0.2-1.65,3.21-4.58,6.06c-3.02,2.84-5.98,3.88-5.93,3.99c-0.06-0.1,2.79-1.55,5.72-4.32
						C345.53,171.98,347.67,169.33,347.4,169.09z"/>
				</g>
			</g>
			<path class="st0" d="M304.98,263.25c0.83,4.9,1.66,9.79,1.57,14.81c-0.11,6.07-2.12,11.17-6.98,14.99
				c-0.87,0.68-1.91,1.29-2.15,2.48c-0.55,2.73-1.03,5.47-1.65,8.81c0.98-0.76,1.43-1,1.74-1.36c4.72-5.65,10.01-10.75,15.82-15.24
				c2.74-2.12,4.76-4.73,6.69-7.47c1.98,0.87,3.03-2.04,5.22-2.09c-1.16,0.89-3.22,5.49-4.4,6.67c3.81-0.22,8.93-1.03,12.01-0.78
				c1.72,0.14,3.08-0.4,4.47-1.38c5.29-3.71,11.16-5.94,17.62-6.59c6.1-0.61,11.89,0.52,17.47,2.92c0.24,0.1,0.44,0.21,0.65,0.31
				c0.49,0.74,0.99,1.47,1.47,2.19c-0.2,0.5-0.68,1.04-1.47,1.67c-1.75,1.39-3.54,2.74-5.33,4.09c-8.86,6.68-18.21,8.42-28.09,2.43
				c-4.18-2.53-8.55-3.07-13.25-2.49c-2.59,0.32-5.19,0.58-7.72,1.29c-1.2,0.33-2.38,0.71-3.4,1.48
				c-7.27,5.48-13.33,12.16-19.32,19.19c5.17-0.07,6.14-0.24,9.14-2.76c5.81-4.87,12.6-6.21,19.9-5.77
				c5.61,0.33,10.16,3.13,14.28,6.66c2.1,1.8,1.91,2.84-0.43,4.22c-1.29,0.75-2.59,1.49-3.9,2.19c-8.91,4.75-17.7,5.56-26.25-0.87
				c-1.76-1.33-3.67-1.86-5.94-1.51c-3.82,0.59-7.61,1.25-11.28,2.45c-0.72,0.23-1.43,0.67-2-0.14c-0.39-0.56-0.28-1.21,0.14-1.73
				c2.89-3.58,3-8.07,4.02-12.26c0.53-2.21,0.34-4.17-0.83-6.38c-6.57-12.29-0.22-24.82,8.72-31.13
				C303.49,260.73,304.61,261.1,304.98,263.25z"/>
			<path class="st1" d="M369.79,280.61c0,0-15.61-7.58-28.2,2.58l-4.54,2.81C337.06,286.01,372.92,284.96,369.79,280.61z"/>
			<g>
				<path class="st0" d="M360.22,278.05c0.11,0.07-5.97,0.71-11.23,4.67c-5.74,3.37-8.63,7.74-8.3,7.88
					c-0.28-0.19,2.94-4.13,8.67-7.5C354.51,279.21,360.29,278.13,360.22,278.05z"/>
				<path class="st0" d="M357.22,276.86c-0.15-0.47-4.52,0.86-9.01,3.53c-4.5,2.79-6.75,6.23-6.87,6.12
					c0.11,0.12,2.83-3.01,7.21-5.71C353.02,278.14,357.01,276.41,357.22,276.86z"/>
			</g>
			<path class="st1" d="M308.78,310c0,0,18.9,7.86,26.3,0.36l1.45-1.47C336.53,308.89,306.56,306.14,308.78,310z"/>
			<path class="st1" d="M294.82,292.65c0,0-4.79-16.55,4.61-25.56l1.85-1.76C301.27,265.32,298.75,293.58,294.82,292.65z"/>
			<g>
				<path class="st0" d="M298.07,266.35c0.12-0.06-1.94,5.79-0.4,12.7c0.75,7.03,3.73,12.01,4.02,11.79
					c-0.31,0.15-2.73-4.9-3.48-11.91C296.68,272.15,298.18,266.33,298.07,266.35z"/>
				<path class="st0" d="M295.59,268.43c-0.53-0.12-1.16,4.57-0.54,10.07c0.73,5.59,3.09,9.49,2.93,9.54
					c0.16-0.04-1.69-4.19-2.39-9.62C294.98,272.93,295.06,268.37,295.59,268.43z"/>
			</g>
		</g>
		<g>
			<g>
				<g>
					<path class="st0" d="M220.36,211.38c0-73.42-53.92-31.04-40.7-9.84l-43.48-14.01c14.26-19.3,25.74-29.9,58.1-31.79
						c7.31-0.38,81.41-4.92,80.71,61.69c-0.7,43.15,0,72.67,0,72.67c0,26.87,16.37,34.34,16.37,34.34l0.33,0.48h-47.66
						c-12.17,0-16.7-4.92-17.74-8.71c-5.92,6.44-19.13,8.71-32.36,8.71c-66.1,0-79.67-25.74-79.67-56.77
						C114.25,212.51,174.78,211.38,220.36,211.38z M220.36,220.84c-21.57,0.76-51.14,1.89-51.14,46.55
						c0,32.17,9.39,46.93,32.36,46.93c4.17,0,18.78-3.4,18.78-25.36C220.36,269.66,220.36,269.66,220.36,220.84z"/>
				</g>
			</g>
			<path class="st2" d="M214.83,162.84c0,0,47.74,9.3,54.25,47.88c0.12,0.7,0.17,1.42,0.17,2.12l0,78.31c0,8.94,2.59,17.77,7.86,25
				c2.37,3.26,5.02,5.86,7.56,6.13l-19.77-1.57c0,0-13.06-9.47-7.26-25.26C263.44,279.66,277.95,181.78,214.83,162.84z"/>
			<path class="st2" d="M165.49,227.57c0,0-73.28,14.21-25.4,77.36C140.09,304.92,108.89,259.14,165.49,227.57z"/>
			<g>
				<defs>
					<path id="SVGID_1_" d="M165.49,227.57c0,0-73.28,14.21-25.4,77.36C140.09,304.92,108.89,259.14,165.49,227.57z"/>
				</defs>
				<clipPath id="SVGID_00000036220039490299539560000002819899866963038096_">
					<use xlink:href="#SVGID_1_"  style="overflow:visible;"/>
				</clipPath>
				<g style="clip-path:url(#SVGID_00000036220039490299539560000002819899866963038096_);">
					<g>
						<line class="st0" x1="129.2" y1="249.72" x2="129.4" y2="249.82"/>
					</g>
					<g>
						<path class="st0" d="M133.03,261.64c-0.07-0.08-0.17-0.12-0.3-0.12c-1.01-0.11-2.02-0.19-3.02-0.25
							c-0.34-0.05-0.64-0.08-0.91-0.08v0.08c-0.2,0-0.4,0-0.6,0c-0.6,0-1.21,0-1.81,0c-0.07,0-0.12,0.01-0.15,0.04
							c-0.04,0.03-0.09,0.1-0.15,0.21c0,0.06,0.02,0.11,0.05,0.17c0.03,0.06,0.08,0.08,0.15,0.08c2.22,0.72,4.47,0.89,6.75,0.5
							c0.07-0.11,0.13-0.19,0.2-0.25c0-0.05-0.03-0.08-0.1-0.08C133.13,261.82,133.1,261.72,133.03,261.64z"/>
					</g>
					<g>
						<path class="st0" d="M133.54,255.82c0.13,0.03,0.27,0.05,0.4,0.05c0.34,0.07,0.71,0.07,1.11,0c0.07,0,0.13-0.03,0.2-0.1
							c0.07-0.07,0.13-0.13,0.2-0.2c0-0.07,0.03-0.13,0.1-0.2c-0.2-0.47-0.5-0.67-0.91-0.61h-0.1c-0.27,0.07-0.52,0.14-0.76,0.2
							c-0.24,0.07-0.42,0.17-0.55,0.3c-0.07,0.14-0.07,0.25,0,0.35C133.3,255.72,133.4,255.79,133.54,255.82z"/>
					</g>
					<g>
						<path class="st0" d="M130.92,277.34c0.13-0.07,0.27-0.17,0.4-0.3c0.07-0.07,0.13-0.13,0.2-0.2c-0.07,0-0.14-0.03-0.2-0.1
							c-0.07-0.07-0.12-0.13-0.15-0.2c-0.03-0.07-0.08-0.1-0.15-0.1c-0.87-0.07-1.71-0.07-2.52,0c-0.14,0.07-0.27,0.07-0.4,0
							c-0.27,0-0.5,0.04-0.71,0.1c-0.2,0.07-0.37,0.24-0.5,0.5c0.13,0.07,0.27,0.1,0.4,0.1c0.4,0.14,0.77,0.24,1.11,0.3
							c0.2,0,0.4,0,0.6,0c0.2,0,0.4,0,0.6,0h0.2C130.07,277.44,130.44,277.41,130.92,277.34z"/>
					</g>
					<g>
						<path class="st0" d="M128.7,273.21c-0.2,0-0.4,0-0.6,0c-0.34,0-0.61,0.05-0.81,0.15c-0.2,0.1-0.27,0.35-0.2,0.76
							c0.07,0.34,0.25,0.5,0.55,0.5c0.3,0,0.59-0.03,0.86-0.1h0.1c0.27-0.07,0.5-0.15,0.71-0.25c0.2-0.1,0.3-0.32,0.3-0.65
							c-0.07-0.07-0.15-0.13-0.25-0.2c-0.1-0.07-0.22-0.12-0.35-0.15C128.86,273.23,128.76,273.21,128.7,273.21z"/>
					</g>
					<g>
						<path class="st0" d="M123.76,274.22c0.07,0,0.12,0.02,0.15,0.05c0.03,0.03,0.08,0.05,0.15,0.05c0.13-0.07,0.27-0.17,0.4-0.3
							c0-0.07,0.03-0.1,0.1-0.1l-0.1-0.1c-0.2-0.07-0.37-0.13-0.5-0.2C123.62,273.75,123.56,273.95,123.76,274.22z"/>
					</g>
					<g>
						<path class="st0" d="M128.8,271.29c0-0.07,0.02-0.13,0.05-0.2c0.03-0.07,0.08-0.13,0.15-0.2c0-0.13,0.03-0.23,0.1-0.3
							c-0.14-0.13-0.34-0.25-0.6-0.35c-0.27-0.1-0.55-0.15-0.86-0.15c-0.3,0-0.55,0.07-0.76,0.2c-0.07,0.2-0.07,0.4,0,0.6
							C127.42,271.36,128.06,271.5,128.8,271.29z"/>
					</g>
					<g>
						<path class="st0" d="M130.81,264.64c-0.07,0-0.14,0-0.2,0c-0.2,0-0.37,0-0.5,0c-0.07,0-0.12,0-0.15,0c-0.03,0-0.09,0-0.15,0
							c-0.27,0.04-0.54,0.06-0.81,0.06c-0.34-0.04-0.64-0.04-0.91,0c-0.27,0.04-0.4,0.21-0.4,0.5c0.07,0.17,0.22,0.28,0.45,0.35
							c0.23,0.06,0.5,0.09,0.81,0.09c0.3,0,0.62-0.02,0.96-0.06c0.74-0.08,1.48-0.19,2.22-0.31h0.1c0.13-0.04,0.27-0.1,0.4-0.19
							c0.07-0.04,0.13-0.06,0.2-0.06c-0.07-0.04-0.14-0.08-0.2-0.13c-0.14-0.08-0.27-0.13-0.4-0.13
							C131.69,264.73,131.22,264.69,130.81,264.64z"/>
					</g>
					<g>
						<path class="st0" d="M125.98,268.31c0.67-0.05,1.34,0,2.02,0.16c0.27,0,0.54,0,0.81,0c0.81,0,1.68-0.03,2.62-0.08
							c0.2,0,0.4-0.03,0.6-0.08c0.2-0.05,0.34-0.13,0.4-0.24c0-0.11-0.05-0.2-0.15-0.28c-0.1-0.08-0.25-0.15-0.45-0.2
							c-0.07,0-0.14-0.03-0.2-0.08c-0.6-0.22-1.23-0.3-1.86-0.24c-0.64,0.05-1.3,0.13-1.97,0.24c-0.07,0-0.14,0-0.2,0
							c-0.54,0.11-1.08,0.14-1.61,0.08c-0.81-0.05-1.58,0.06-2.32,0.32c0.34,0.22,0.71,0.35,1.11,0.4
							C125.17,268.36,125.57,268.36,125.98,268.31z"/>
					</g>
					<g>
						<path class="st0" d="M148.56,234.19c0-0.07,0.03-0.13,0.1-0.2c0.07-0.07,0.1-0.13,0.1-0.2c0-0.13,0.03-0.24,0.1-0.3
							c-0.2-0.27-0.52-0.44-0.96-0.5c-0.44-0.07-0.86,0.03-1.26,0.3c-0.07,0-0.1,0.05-0.1,0.15c0,0.1,0,0.25,0,0.45
							C147.15,234.29,147.82,234.39,148.56,234.19z"/>
					</g>
					<g>
						<path class="st0" d="M131.42,289.84c0.54,0.07,1.07,0.1,1.61,0.1c0.2,0.07,0.37,0.1,0.5,0.1c0.2,0,0.37,0,0.5,0
							c0.47-0.07,0.97-0.14,1.51-0.2c0.07,0,0.13-0.03,0.2-0.1c0.07-0.07,0.13-0.17,0.2-0.3l0.1-0.1c-0.07-0.07-0.14-0.17-0.2-0.3
							c-1.48-0.4-2.96-0.37-4.44,0.1c-0.07,0-0.12,0.03-0.15,0.1c-0.03,0.07-0.05,0.13-0.05,0.2c0,0.07,0.03,0.13,0.1,0.2
							C131.38,289.71,131.42,289.77,131.42,289.84z"/>
					</g>
					<g>
						<path class="st0" d="M151.18,242.7c-3.7-0.24-7.36-0.17-10.99,0.22c-0.2,0.05-0.37,0.12-0.5,0.21l-0.1,0.07
							c0.07,0.05,0.13,0.12,0.2,0.21c0.13,0.1,0.24,0.17,0.3,0.21c0.07,0.05,0.17,0.07,0.3,0.07c1.34,0.05,2.65,0.07,3.93,0.07
							c0.47,0,0.91,0,1.31,0c0-0.05,0-0.1,0-0.14c0.47,0,0.94,0,1.41,0c1.34,0,2.65,0,3.93,0c0.2,0,0.4-0.04,0.6-0.11
							c0.2-0.07,0.3-0.18,0.3-0.32c0-0.14-0.07-0.26-0.2-0.36C151.55,242.75,151.38,242.7,151.18,242.7z"/>
					</g>
					<g>
						<path class="st0" d="M156.98,239.49c-0.1-0.03-0.19-0.08-0.25-0.15c-1.75,0-3.5,0.04-5.24,0.1c-0.07,0-0.15,0.02-0.25,0.05
							c-0.1,0.03-0.19,0.09-0.25,0.15c-0.07,0.07-0.1,0.14-0.1,0.2c0.07,0,0.13,0.03,0.2,0.1c0.13,0.14,0.27,0.24,0.4,0.3
							c0.6,0,1.21,0,1.81,0c0.2,0,0.4,0,0.6,0c0.27,0,0.54,0,0.81,0c0.67,0,1.38,0,2.12,0c0.07,0,0.13-0.03,0.2-0.1
							c0.07-0.07,0.13-0.13,0.2-0.2c0.07-0.07,0.13-0.13,0.2-0.2c-0.07,0-0.14-0.03-0.2-0.1
							C157.16,239.57,157.08,239.52,156.98,239.49z"/>
					</g>
					<g>
						<path class="st0" d="M128.95,282.58c-0.24-0.07-0.45-0.14-0.66-0.2c-1.01-0.14-2.02-0.03-3.02,0.3
							c-0.6,0.13-1.18,0.23-1.71,0.3c-0.14,0-0.3,0.07-0.5,0.2c-0.07,0.07-0.14,0.13-0.2,0.2c0.07,0,0.13,0.03,0.2,0.1
							c0.07,0.07,0.13,0.13,0.2,0.2c0.07,0.07,0.13,0.1,0.2,0.1c0.54,0.13,1.11,0.23,1.71,0.3c0.27,0,0.54,0,0.81,0
							c0.2,0,0.4,0,0.6,0c0.54-0.07,1.11-0.14,1.71-0.2c0.13-0.07,0.27-0.1,0.4-0.1c0.27,0,0.5-0.05,0.71-0.15
							c0.2-0.1,0.3-0.32,0.3-0.66c0-0.07-0.07-0.14-0.2-0.2C129.37,282.72,129.18,282.65,128.95,282.58z"/>
					</g>
					<g>
						<path class="st0" d="M146.24,245.69c-0.34-0.13-0.67-0.27-1.01-0.4c-0.14,0-0.24,0-0.3,0c-0.14,0-0.24,0.03-0.3,0.1
							c-0.2,0.07-0.4,0.14-0.6,0.2c0,0.07,0,0.14,0,0.2c0,0.07,0.03,0.1,0.1,0.1c0.2,0.34,0.52,0.54,0.96,0.6
							c0.44,0.07,0.82,0,1.16-0.2c0.07,0,0.1-0.05,0.1-0.15c0-0.1,0-0.2,0-0.3C146.34,245.74,146.3,245.69,146.24,245.69z"/>
					</g>
					<g>
						<path class="st0" d="M154.2,234.09c0.07-0.07,0.13-0.13,0.2-0.2c0.07,0,0.13-0.03,0.2-0.1c0.07-0.07,0.1-0.13,0.1-0.2
							c0-0.27-0.09-0.44-0.25-0.5c-0.17-0.07-0.35-0.03-0.55,0.1c-0.07,0-0.12,0.05-0.15,0.15c-0.03,0.1-0.05,0.19-0.05,0.25
							c-0.07,0.07-0.14,0.14-0.2,0.2h0.1C153.8,233.93,154,234.03,154.2,234.09z"/>
					</g>
					<g>
						<path class="st0" d="M154.4,230.97c0.07,0.07,0.13,0.1,0.2,0.1c0.6,0,1.21,0,1.81,0c0.2,0,0.4,0,0.6,0v-0.1
							c0.27,0,0.5,0,0.71,0c0.87,0,1.75,0,2.62,0c0.13-0.07,0.2-0.13,0.2-0.2c0-0.07-0.02-0.13-0.05-0.2
							c-0.03-0.07-0.09-0.1-0.15-0.1c-0.07-0.07-0.2-0.1-0.4-0.1s-0.4,0-0.6,0c-1.55-0.07-3.09-0.1-4.64-0.1
							c-0.07,0-0.14,0.03-0.2,0.1c-0.07,0.07-0.14,0.1-0.2,0.1c-0.07,0.07-0.14,0.14-0.2,0.2l0.1,0.1
							C154.27,230.83,154.34,230.9,154.4,230.97z"/>
					</g>
					<g>
						<path class="st0" d="M142,248.61c-0.27-0.13-0.54-0.2-0.81-0.2c-0.07,0-0.14,0-0.2,0c-0.14,0-0.27,0-0.4,0
							c-0.2,0-0.37,0.03-0.5,0.1c-0.14,0.07-0.25,0.14-0.35,0.2c-0.1,0.07-0.19,0.14-0.25,0.2c-0.07,0.27-0.04,0.47,0.1,0.61
							c0.13,0.14,0.3,0.2,0.5,0.2c0.67,0,1.34-0.03,2.02-0.1c0.07-0.07,0.12-0.12,0.15-0.15c0.03-0.03,0.08-0.12,0.15-0.25
							c0.07-0.07,0.13-0.13,0.2-0.2c-0.07,0-0.14-0.03-0.2-0.1C142.27,248.78,142.14,248.68,142,248.61z"/>
					</g>
					<g>
						<path class="st0" d="M130.01,280.77c0.54-0.07,1.07-0.1,1.61-0.1c0.4-0.07,0.57-0.23,0.5-0.5c-0.07-0.13-0.27-0.24-0.61-0.3
							c-0.34-0.07-0.67-0.08-1.01-0.05c-0.34,0.03-0.57,0.15-0.71,0.35c-0.07,0.14-0.07,0.24,0,0.3
							C129.81,280.54,129.87,280.64,130.01,280.77z"/>
					</g>
					<g>
						<path class="st0" d="M135.5,292.16c-0.03,0.07-0.09,0.13-0.15,0.2c0,0.07-0.03,0.13-0.1,0.2c0.07,0,0.13,0.03,0.2,0.1
							c0.13,0.13,0.27,0.24,0.4,0.3c0.2,0.07,0.37,0.1,0.5,0.1h0.1c0.13,0,0.27,0,0.4,0c0.2,0,0.37,0,0.5,0
							c0.2,0,0.39-0.07,0.55-0.2c0.17-0.14,0.25-0.3,0.25-0.5c-0.07-0.2-0.19-0.35-0.35-0.45c-0.17-0.1-0.35-0.15-0.55-0.15
							c-0.54,0.07-1.08,0.17-1.61,0.3C135.59,292.06,135.54,292.09,135.5,292.16z"/>
					</g>
					<g>
						<path class="st0" d="M125.67,258.79c0.4,0.07,0.77,0.14,1.11,0.2c0.07,0,0.17,0,0.3,0c0.13,0,0.23,0,0.3,0
							c0.13,0,0.23,0,0.3,0c0.13-0.07,0.27-0.13,0.4-0.2c0.07-0.07,0.13-0.1,0.2-0.1c0-0.07-0.03-0.13-0.1-0.2
							c0-0.07-0.03-0.13-0.1-0.2c-0.07-0.07-0.14-0.1-0.2-0.1c-0.6-0.2-1.24-0.34-1.92-0.4c-0.2,0-0.39,0.02-0.55,0.05
							c-0.17,0.03-0.25,0.19-0.25,0.45c0,0.14,0.07,0.25,0.2,0.35C125.5,258.74,125.61,258.79,125.67,258.79z"/>
					</g>
					<g>
						<path class="st0" d="M128.39,252.38c0,0.03,0.03,0.05,0.1,0.05c1.68,0.68,3.39,0.72,5.14,0.1c0.07,0,0.12-0.02,0.15-0.05
							c0.03-0.03,0.08-0.08,0.15-0.15c0-0.07-0.04-0.1-0.1-0.1c0-0.14-0.03-0.24-0.1-0.31c-0.07-0.07-0.14-0.14-0.2-0.21
							c-0.47-0.07-0.98-0.17-1.51-0.31c-0.2,0-0.44-0.03-0.71-0.1c-0.14,0.07-0.3,0.1-0.5,0.1c-0.74,0.14-1.48,0.27-2.22,0.41
							c-0.14,0.14-0.2,0.24-0.2,0.31c-0.07,0-0.09,0.04-0.05,0.1C128.38,252.3,128.39,252.35,128.39,252.38z"/>
					</g>
					<g>
						<path class="st0" d="M126.88,289.94c0.13,0,0.24,0,0.3,0c0.27,0,0.57-0.03,0.91-0.1c0.07-0.07,0.13-0.17,0.2-0.3v-0.1
							c-0.07-0.07-0.12-0.15-0.15-0.25c-0.03-0.1-0.12-0.19-0.25-0.25c-0.74-0.27-1.51-0.27-2.32,0c-0.07,0.07-0.12,0.12-0.15,0.15
							c-0.04,0.03-0.09,0.08-0.15,0.15v0.1c0.07,0.07,0.13,0.15,0.2,0.25c0.07,0.1,0.13,0.15,0.2,0.15c0.27,0.13,0.54,0.2,0.81,0.2
							C126.61,289.94,126.75,289.94,126.88,289.94z"/>
					</g>
					<g>
						<path class="st0" d="M136.21,246.44c0.1,0.1,0.22,0.15,0.35,0.15c0.07,0,0.13-0.03,0.2-0.1c0.07-0.07,0.13-0.1,0.2-0.1
							c0.07-0.07,0.13-0.13,0.2-0.2c-0.07-0.07-0.14-0.1-0.2-0.1c-0.14-0.13-0.27-0.24-0.4-0.3c-0.14-0.07-0.27-0.07-0.4,0
							c-0.14,0.07-0.17,0.17-0.1,0.3C136.06,246.23,136.11,246.34,136.21,246.44z"/>
					</g>
					<g>
						<path class="st0" d="M131.52,246.39c0.13,0.07,0.3,0.14,0.5,0.2c0.13,0,0.23,0,0.3,0c0.07,0,0.13,0,0.2,0
							c0.2,0,0.4-0.03,0.61-0.1c0.07-0.07,0.12-0.15,0.15-0.25c0.03-0.1,0.07-0.18,0.1-0.25c0.03-0.07,0.02-0.13-0.05-0.2
							c-0.34-0.2-0.67-0.33-1.01-0.4c-0.2-0.07-0.4-0.08-0.6-0.05c-0.2,0.03-0.37,0.15-0.5,0.35c0,0.14,0.03,0.27,0.1,0.4
							C131.38,246.23,131.45,246.33,131.52,246.39z"/>
					</g>
					<g>
						<path class="st0" d="M129.1,249.72h0.1c0.67,0,1.28-0.03,1.81-0.1c1.68-0.13,3.19-0.23,4.54-0.3c0.27,0,0.5-0.07,0.71-0.2
							c0.07,0,0.12-0.03,0.15-0.1c0.03-0.07,0.05-0.13,0.05-0.2c0-0.07-0.02-0.12-0.05-0.15c-0.04-0.03-0.05-0.07-0.05-0.1
							c0-0.03-0.03-0.05-0.1-0.05c-2.42-0.27-4.81-0.13-7.16,0.4c-0.07,0.07-0.12,0.15-0.15,0.25c-0.03,0.1-0.09,0.19-0.15,0.25v0.1
							c0.07,0.07,0.12,0.12,0.15,0.15C128.98,249.7,129.03,249.72,129.1,249.72z"/>
					</g>
					<g>
						<path class="st0" d="M126.08,287.12c0.27,0,0.54-0.07,0.81-0.2c0.27-0.14,0.37-0.37,0.3-0.71c0-0.14-0.1-0.27-0.3-0.4
							c-0.2-0.14-0.4-0.2-0.6-0.2c-0.81-0.14-1.61-0.17-2.42-0.1c-0.27-0.07-0.52-0.03-0.76,0.1c-0.24,0.13-0.35,0.37-0.35,0.71
							c0.07,0.33,0.22,0.55,0.45,0.66c0.24,0.1,0.52,0.15,0.86,0.15c0.13,0,0.3,0,0.5,0c0.13,0,0.27,0.03,0.4,0.1
							c0.07-0.07,0.17-0.1,0.3-0.1C125.54,287.12,125.81,287.12,126.08,287.12z"/>
					</g>
					<g>
						<path class="st0" d="M122.95,280.57c0.2,0.07,0.4,0.1,0.6,0.1c0.13,0.07,0.27,0.1,0.4,0.1c0.13,0,0.27-0.03,0.4-0.1
							c0.4,0,0.87-0.03,1.41-0.1c0.4-0.07,0.47-0.27,0.2-0.6c-0.2-0.2-0.54-0.34-1.01-0.4c-0.47-0.07-0.94-0.07-1.41,0
							c-0.47,0.07-0.77,0.2-0.91,0.4c-0.07,0.14-0.07,0.27,0,0.4C122.71,280.5,122.82,280.57,122.95,280.57z"/>
					</g>
					<g>
						<path class="st0" d="M123.05,265.04c0.07,0.07,0.13,0.1,0.2,0.1c0.54,0.27,0.94,0.1,1.21-0.5c0-0.07-0.04-0.13-0.1-0.2
							c0-0.07-0.02-0.13-0.05-0.2c-0.03-0.07-0.08-0.13-0.15-0.2c-0.6-0.2-1.01-0.03-1.21,0.51c-0.07,0.07-0.09,0.15-0.05,0.25
							C122.93,264.89,122.98,264.98,123.05,265.04z"/>
					</g>
					<g>
						<path class="st0" d="M125.72,255.77c0.17,0.07,0.35,0.1,0.55,0.1c0.13,0,0.27,0,0.4,0c0.07,0,0.13,0,0.2,0c0.2,0,0.4,0,0.6,0
							c0.13-0.07,0.27-0.17,0.4-0.3c0.07,0,0.13-0.03,0.2-0.1c-0.07,0-0.14-0.03-0.2-0.1c-0.07-0.13-0.17-0.27-0.3-0.4
							c-0.27-0.07-0.54-0.1-0.81-0.1c-0.07,0-0.17,0-0.3,0c-0.2,0-0.4,0.02-0.61,0.05c-0.2,0.04-0.34,0.15-0.4,0.35
							C125.47,255.53,125.55,255.7,125.72,255.77z"/>
					</g>
					<g>
						<path class="st0" d="M129.6,293.17c0.27,0,0.57,0,0.91,0c0.34,0.07,0.66,0.08,0.96,0.05c0.3-0.03,0.59-0.15,0.86-0.35
							c-0.2-0.4-0.47-0.64-0.81-0.71c-0.34-0.07-0.71-0.1-1.11-0.1c-0.27,0.07-0.57,0.07-0.91,0c-0.81-0.07-1.65-0.07-2.52,0
							c-0.07,0-0.17,0-0.3,0c-0.07,0-0.12,0.03-0.15,0.1c-0.03,0.07-0.09,0.13-0.15,0.2c-0.07,0.07-0.14,0.13-0.2,0.2
							c0.07,0.07,0.13,0.1,0.2,0.1c0.07,0.07,0.13,0.13,0.2,0.2c0.07,0.07,0.13,0.1,0.2,0.1c0.67,0.07,1.34,0.13,2.02,0.2
							C129.07,293.17,129.33,293.17,129.6,293.17z"/>
					</g>
					<g>
						<path class="st0" d="M137.87,240.17c0.4,0.06,0.81,0.13,1.21,0.19c1.34,0.32,2.69,0.28,4.03-0.09
							c0.13-0.06,0.23-0.14,0.3-0.24c0.07-0.09,0.1-0.2,0.1-0.33c0-0.06-0.05-0.16-0.15-0.28c-0.1-0.13-0.22-0.19-0.35-0.19
							c-0.47-0.06-0.94-0.06-1.41,0c-0.2,0-0.4,0-0.6,0v0.09c-0.2,0-0.44,0-0.71,0c-0.74,0-1.45,0.03-2.12,0.09
							c-0.14,0-0.3,0.06-0.5,0.19c-0.07,0.06-0.14,0.09-0.2,0.09c0.07,0.06,0.13,0.13,0.2,0.19
							C137.67,240.01,137.74,240.11,137.87,240.17z"/>
					</g>
				</g>
			</g>
			<g>
				<defs>
					<path id="SVGID_00000142886506441726334070000011358242576653969570_" d="M214.83,162.84c0,0,48.61,9.47,54.42,48.94v89.99
						c0,0,7.55,18.96,15.3,20.36l-19.16-0.8c0,0-13.55-10.09-7.75-25.88C263.44,279.66,277.95,181.78,214.83,162.84z"/>
				</defs>
				<clipPath id="SVGID_00000026147833483878290990000012447975157834966680_">
					<use xlink:href="#SVGID_00000142886506441726334070000011358242576653969570_"  style="overflow:visible;"/>
				</clipPath>
				<g style="clip-path:url(#SVGID_00000026147833483878290990000012447975157834966680_);">
					<g>
						<g>
							<path class="st0" d="M270.51,322L270.51,322L270.51,322z M270.54,321.87c-0.01,0.04-0.01,0.08-0.02,0.11
								C270.53,321.95,270.54,321.91,270.54,321.87z"/>
						</g>
					</g>
					<g>
						<g>
							<path class="st0" d="M248.67,263.79c0.48-0.09,1-0.14,1.58-0.14c1.34,0,2.63,0.1,3.87,0.29c0.19,0,0.36,0.1,0.5,0.29
								c0.14,0.19,0.21,0.34,0.21,0.43c0,0.19-0.05,0.38-0.14,0.57c-0.09,0.19-0.24,0.34-0.43,0.43c-0.29,0.1-0.57,0.17-0.86,0.21
								c-0.29,0.05-0.57,0.07-0.86,0.07c-0.57,0-1,0-1.29,0c-0.19,0-0.36,0-0.5,0c-0.14,0-0.26,0-0.36,0c-0.29,0-0.57,0-0.86,0
								c-0.48,0.1-0.88,0.07-1.22-0.07c-0.34-0.14-0.5-0.5-0.5-1.08C247.91,264.22,248.2,263.89,248.67,263.79z"/>
							<path class="st0" d="M248.99,266.46c-0.3,0-0.59-0.06-0.86-0.17c-0.36-0.15-0.78-0.54-0.78-1.5
								c0.17-1.04,0.76-1.36,1.23-1.45l0,0c0.52-0.1,1.08-0.15,1.66-0.15c1.35,0,2.67,0.1,3.94,0.29c0.19,0,0.51,0.08,0.8,0.47
								c0.21,0.27,0.3,0.5,0.3,0.7c0,0.26-0.06,0.52-0.19,0.77c-0.14,0.29-0.36,0.5-0.64,0.64c-0.36,0.13-0.68,0.2-0.99,0.25
								c-0.3,0.05-0.61,0.08-0.94,0.08h-3.01C249.35,266.44,249.17,266.46,248.99,266.46z M248.76,264.25
								c-0.2,0.04-0.42,0.15-0.5,0.63c0.01,0.18,0.05,0.5,0.23,0.58c0.25,0.11,0.57,0.13,0.95,0.05l3.1-0.01
								c0.26,0,0.52-0.02,0.78-0.06c0.27-0.04,0.53-0.11,0.79-0.2c0.04-0.03,0.11-0.1,0.17-0.2c0.06-0.12,0.09-0.24,0.09-0.35l0,0
								c-0.01,0-0.04-0.06-0.12-0.17c-0.08-0.1-0.12-0.1-0.14-0.1c-1.29-0.19-2.57-0.29-3.87-0.29
								C249.72,264.11,249.22,264.16,248.76,264.25z"/>
						</g>
					</g>
					<g>
						<g>
							<path class="st0" d="M251.25,259.66c-5.18,0-10.63,0.05-16.19,0.14c-1.78,0-3.56,0.05-5.29,0.15c-0.21,0-0.37,0.06-0.53,0.19
								c-0.09,0.08-0.1,0.11-0.07,0.21c0.08,0.23,0.18,0.4,0.32,0.54c0.14,0.14,0.32,0.25,0.54,0.32c0.19,0.09,0.31,0.12,0.43,0.12
								h0.57c3.88-0.47,7.87-0.57,11.79-0.29c2.23,0.1,4.54,0.14,6.85,0.14h17.35c0.68,0.09,1.32,0.1,1.94,0
								c0.3,0,0.54-0.04,0.77-0.12l0.15-0.03c0.55,0,1.05-0.05,1.49-0.13c0.29-0.06,0.35-0.14,0.35-0.14
								c-0.1-0.75-0.39-0.81-0.49-0.82c-0.4-0.09-0.85-0.04-1.34,0.13l-0.15,0.03h-1.29C262.81,259.91,257.03,259.76,251.25,259.66z
								"/>
						</g>
					</g>
					<g>
						<g>
							<path class="st0" d="M259.25,291.05c1.74,0.71,3.56,0.99,5.44,0.82h1.04c1.8-0.09,3.72-0.23,5.69-0.43l0.62,0
								c0.06,0,0.11-0.01,0.18-0.08c0.08-0.08,0.15-0.17,0.22-0.27c-0.02-0.08-0.06-0.12-0.13-0.15c-0.16-0.1-0.35-0.15-0.55-0.15
								c-1.25-0.09-2.48-0.09-3.69,0h-2.19c-0.71,0-1.47-0.1-2.26-0.3c-0.89-0.18-1.76-0.25-2.59-0.2
								C260.45,290.31,259.86,290.57,259.25,291.05z"/>
						</g>
					</g>
					<g>
						<g>
							<path class="st0" d="M258.21,305.06h0.21c0.93,0.19,1.76,0.29,2.58,0.29c3.71-0.1,7.14-0.24,10.44-0.43h0.03
								c0.19,0,0.35-0.06,0.5-0.18c0.04-0.04,0.13-0.1,0.06-0.39c-0.01-0.01-0.13-0.18-0.38-0.43c-0.22-0.22-0.32-0.23-0.32-0.23
								c-1.62-0.09-3.2-0.09-4.7,0h-1.29v0.29h-2.04c-1.62-0.09-3.2-0.09-4.7,0c-0.24,0-0.46,0.05-0.68,0.16
								c-0.16,0.08-0.17,0.15-0.17,0.24l-0.03,0.15c-0.05,0.16-0.01,0.21,0.03,0.24C257.87,304.9,258.03,304.99,258.21,305.06z"/>
						</g>
					</g>
					<g>
						<g>
							<path class="st0" d="M259.68,309.44c0.75,0,1.49,0.02,2.21,0.07c2.9,0.28,5.82,0.09,8.7-0.55c0.08-0.05,0.14-0.11,0.18-0.19
								c0.09-0.18,0.1-0.24,0.1-0.24c0-0.04-0.01-0.1-0.08-0.16c-0.09-0.09-0.18-0.16-0.29-0.23h-6.48
								c-0.43,0.09-0.94,0.14-1.43,0.14c-1.71,0.1-3.47,0.29-5.23,0.56c-0.11,0.09-0.14,0.15-0.16,0.18
								c-0.03,0.06-0.02,0.1,0.04,0.19c0.08,0.12,0.16,0.22,0.23,0.3C258.2,309.46,258.94,309.44,259.68,309.44z"/>
						</g>
					</g>
					<g>
						<g>
							<path class="st0" d="M250.97,250.6c1.72,0,3.44,0,5.16,0c1.63,0,3.2,0.05,4.73,0.14c0.19,0.1,0.36,0.19,0.5,0.29
								c0.14,0.1,0.26,0.24,0.36,0.43c0.1,0.38,0.02,0.65-0.21,0.79c-0.24,0.14-0.5,0.26-0.79,0.36c-2.87,0.38-5.78,0.43-8.75,0.14
								c-3.06-0.38-6.17-0.33-9.32,0.14c-1.53,0-3.06-0.05-4.59-0.14c-3.25-0.38-6.55-0.38-9.9,0c-0.95,0.19-1.91,0.19-2.87,0
								c-0.29-0.09-0.62-0.14-1-0.14c-0.57,0-1.08-0.09-1.51-0.29c-0.43-0.19-0.65-0.57-0.65-1.15c0-0.29,0.19-0.43,0.57-0.43
								c0.38,0,0.81,0,1.29,0c0.48,0,0.91,0,1.29,0c0.38,0,0.77-0.05,1.15-0.14c1.15-0.19,2.29-0.29,3.44-0.29
								C236.96,250.7,243.99,250.79,250.97,250.6z"/>
							<path class="st0" d="M255.72,253.39c-1.26,0-2.52-0.06-3.79-0.19c-3.02-0.37-6.11-0.33-9.21,0.14
								c-1.62-0.01-3.17-0.05-4.68-0.14c-3.22-0.38-6.52-0.38-9.81,0c-0.97,0.2-2,0.2-3.01-0.01c-0.3-0.09-0.59-0.13-0.91-0.13
								c-0.64,0-1.21-0.11-1.7-0.33c-0.42-0.19-0.91-0.61-0.91-1.57c0-0.43,0.27-0.89,1.03-0.89h2.58c0.35,0,0.7-0.04,1.03-0.13
								c1.21-0.2,2.4-0.3,3.56-0.3c7.07,0.38,14.15,0.48,21.06,0.29h5.17c1.59,0,3.19,0.05,4.76,0.14l0.18,0.05
								c0.21,0.1,0.39,0.21,0.55,0.31c0.22,0.15,0.39,0.35,0.52,0.61c0.23,0.87-0.15,1.24-0.39,1.38c-0.27,0.16-0.57,0.3-0.88,0.4
								C259.15,253.28,257.44,253.39,255.72,253.39z M247.86,252.04c1.4,0,2.79,0.08,4.17,0.25c2.9,0.28,5.81,0.23,8.63-0.14
								c0.17-0.06,0.4-0.17,0.61-0.29c0.06-0.04,0.03-0.21,0.01-0.29c-0.02-0.02-0.09-0.11-0.17-0.16c-0.1-0.07-0.23-0.14-0.37-0.22
								c-1.52-0.09-3.07-0.14-4.61-0.14h-5.15c-6.94,0.19-14.05,0.09-21.11-0.29c-1.09,0-2.22,0.09-3.34,0.28
								c-0.37,0.1-0.8,0.15-1.22,0.15h-2.58c-0.12,0-0.16,0.02-0.16,0.02c0.05,0.45,0.24,0.6,0.42,0.68
								c0.67,0.3,1.71,0.18,2.47,0.41c0.84,0.17,1.74,0.16,2.64-0.01c3.4-0.39,6.76-0.39,10.04-0.01c1.47,0.09,3.01,0.14,4.53,0.14
								C244.38,252.17,246.12,252.04,247.86,252.04z"/>
						</g>
					</g>
					<g>
						<g>
							<path class="st0" d="M219.85,256.75c0.73,0.09,1.46,0.13,2.15,0.13l9.31-0.29c6.04-0.19,12.12-0.29,18.08-0.29
								c1.99-0.1,4.03-0.05,6.06,0.15c2.04,0.09,4.11,0.14,6.12,0.14h1c0.6,0.09,1.15,0.1,1.72,0.01c0.43-0.07,0.84-0.21,1.24-0.43
								c-0.25-0.37-0.54-0.57-0.85-0.6c-0.53-0.04-1.07-0.02-1.61,0.06c-0.48,0.1-1,0.15-1.51,0.15c-2.1-0.19-4.16-0.24-6.15-0.14
								h-2.31c-2.65-0.1-5.25-0.14-7.75-0.14c-2.8,0-5.61-0.1-8.35-0.29h0c-5.75-0.48-11.51-0.24-17.16,0.7
								c-0.11,0.06-0.2,0.15-0.28,0.26c-0.11,0.15-0.13,0.21-0.13,0.21c0.01,0,0.02,0.06,0.09,0.12
								C219.62,256.61,219.73,256.69,219.85,256.75z"/>
						</g>
					</g>
					<g>
						<g>
							<path class="st0" d="M263.27,299.11c-0.39,0.02-0.79,0.06-1.19,0.13c-1.36,0.01-2.7,0.05-4.06,0.15
								c-0.22,0.06-0.44,0.17-0.57,0.3c-0.1,0.1-0.15,0.23-0.15,0.39c0.05,0.15,0.15,0.32,0.28,0.4c0.17,0.1,0.35,0.15,0.55,0.15
								c4.01,0.38,8.04,0.33,11.99-0.14c0.24,0,0.4-0.06,0.55-0.19l0.01,0c0.09-0.08,0.1-0.11,0.06-0.21
								c-0.07-0.2-0.18-0.37-0.35-0.51c-0.22-0.17-0.33-0.19-0.36-0.19c-1.62-0.09-3.2-0.09-4.7,0h-2.07V299.11z"/>
						</g>
					</g>
					<g>
						<g>
							<path class="st0" d="M266.02,270c0.4,0,0.8,0.03,1.2,0.08c0.93,0.19,1.8,0.2,2.59,0.08c0.61-0.1,1.2-0.42,1.77-0.95
								c-0.56-0.27-1.14-0.44-1.74-0.51c-0.83-0.08-1.66-0.08-2.48,0l-2.2,0c-0.61-0.09-1.08-0.14-1.51-0.14
								c-0.3,0.1-0.56,0.14-0.79,0.14h-0.46v-0.14h-7.71l-0.23,0.27c0.05,0.07,0.1,0.14,0.13,0.22c0.02,0.03,0.04,0.06,0.07,0.1
								c1.83,0.62,3.66,0.94,5.47,0.94h4.73C265.25,270.03,265.63,270,266.02,270z"/>
						</g>
					</g>
					<g>
						<g>
							<path class="st0" d="M259.07,295.92c3.73,0.54,7.51,0.68,11.22,0.4c0.09,0,0.15-0.01,0.21-0.08
								c0.08-0.08,0.15-0.17,0.21-0.26c-0.01-0.03-0.03-0.06-0.06-0.08l-0.29-0.29c-1.7-0.61-3.46-0.79-5.27-0.52
								c-0.67,0.1-1.37,0.15-2.08,0.15H259c-0.05,0-0.11,0.01-0.18,0.08c-0.06,0.05-0.08,0.1-0.08,0.17v0.1
								c0.05,0.05,0.11,0.11,0.16,0.16C258.95,295.79,259.01,295.86,259.07,295.92z"/>
						</g>
					</g>
					<g>
						<g>
							<path class="st0" d="M266.76,251.86h1.52v-0.14h3.33c0.1-0.03,0.14-0.08,0.14-0.08l-0.03-0.18l-0.01,0.04
								c-0.01-0.02-0.03-0.03-0.03-0.03l-4.98-0.27c0.01,0-0.03,0-0.11,0.1c-0.11,0.14-0.13,0.2-0.13,0.2
								c0.05,0.08,0.1,0.14,0.15,0.19C266.68,251.76,266.73,251.81,266.76,251.86z"/>
						</g>
					</g>
					<g>
						<g>
							<path class="st0" d="M267.31,264.37c0.48-0.29,0.76-0.19,0.86,0.29c0,0.1-0.02,0.19-0.07,0.29c-0.05,0.1-0.12,0.19-0.21,0.29
								c-0.38,0.19-0.67,0.05-0.86-0.43c0.1,0,0.14-0.05,0.14-0.14c0-0.09,0-0.17,0-0.22C267.17,264.39,267.22,264.37,267.31,264.37
								z"/>
							<path class="st0" d="M267.62,264.72c0,0.05-0.01,0.09-0.03,0.13c0.04-0.03,0.07-0.08,0.09-0.11c0-0.02,0-0.04,0.01-0.06
								C267.68,264.69,267.65,264.7,267.62,264.72z"/>
						</g>
					</g>
					<g>
						<g>
							<path class="st0" d="M266.48,287.42c0.43,0,0.89,0.05,1.36,0.15c0.81,0.18,1.59,0.22,2.36,0.14l0,0
								c0.57-0.06,1.15-0.37,1.72-0.91c-0.64-0.42-1.28-0.65-1.91-0.68c-0.83-0.04-1.66-0.02-2.5,0.07c-0.89,0.1-1.79,0.1-2.68,0
								c-1.67-0.09-3.38-0.05-5.06,0.14l-1.84,0c-0.24,0.09-0.44,0.18-0.63,0.29c-0.09,0.06-0.14,0.19-0.14,0.4
								c0,0.16,0.05,0.29,0.15,0.39c0.1,0.11,0.23,0.15,0.39,0.15h7.6C265.66,287.47,266.06,287.42,266.48,287.42z"/>
						</g>
					</g>
					<g>
						<g>
							<path class="st0" d="M258.05,273.81l4.42,0.28h1.26c0.42,0,0.76-0.06,1.04-0.18c0.2-0.08,0.24-0.14,0.24-0.14
								c-0.02-0.43-0.2-0.47-0.3-0.49c-0.41-0.09-0.82-0.13-1.26-0.13c-0.35,0.11-0.77,0.1-1.15-0.03
								c-0.28-0.06-0.65-0.06-1.06,0.02l-0.98,0.01V273h-2.22l-0.22,0.23c-0.06,0.05-0.08,0.1-0.08,0.18c0,0.06,0.01,0.11,0.08,0.18
								L258.05,273.81z"/>
						</g>
					</g>
					<g>
						<g>
							<path class="st0" d="M262.53,265.02C262.53,265.02,262.53,265.03,262.53,265.02C262.53,265.03,262.53,265.02,262.53,265.02z
								 M259.93,264.65l0.11,0.1c0.8,0.1,1.65,0.15,2.54,0.15c0.02-0.06,0.04-0.12,0.06-0.19c0.03-0.08,0.06-0.15,0.1-0.22
								l-1.13-0.27l-0.61,0.01c-0.4,0-0.58,0.06-0.66,0.1C260.22,264.41,260.08,264.52,259.93,264.65z"/>
						</g>
					</g>
					<g>
						<g>
							<path class="st0" d="M271.39,283.13h4.84c0.56,0,0.81-0.11,0.86-0.22c0.02-0.04,0.15-0.38-0.7-1.51
								c-0.14-0.06-0.24-0.18-0.3-0.32c-0.19-0.22-0.33-0.44-0.43-0.7c-0.22-0.55,0.05-0.92,0.36-1.08
								c0.89-0.67,1.11-0.99,1.16-1.09c0.04-0.09,0.04-0.13,0.04-0.13c-0.11-0.04-0.3-0.11-0.56-0.15
								c-0.31-0.04-0.65-0.07-1.01-0.07h-0.29c-3.74-0.29-7.44-0.43-11.04-0.43h-0.57c-0.41-0.09-0.72-0.09-1.04-0.01
								c-0.06,0.01-0.22,0.06-0.22,0.56c0,0.09,0.15,0.17,0.28,0.22c0.33,0.13,0.66,0.19,0.99,0.19l0.29,0.03
								c0.23,0.08,0.47,0.12,0.71,0.12h1c0.61,0.09,1.24,0.1,1.95,0c0.7-0.1,1.39-0.09,2.06,0c0.76,0.12,1.42,0.63,1.97,1.51
								l0.19,0.3l-0.25,0.26c-0.54,0.55-1.16,0.88-1.83,0.99c-0.62,0.11-1.24,0.11-1.86,0c-0.68-0.08-1.35-0.04-1.95,0.14
								l-0.13,0.02h-0.47c-0.43,0.19-0.86,0.08-1.34,0.31c-0.17,0.09-0.17,0.18-0.17,0.24c-0.08,0.52,0.04,0.55,0.09,0.56
								c0.34,0.08,0.69,0.13,1.03,0.13c1.47,0.1,2.9,0.15,4.3,0.15c0.42-0.09,0.98-0.15,1.58-0.15h0.46V283.13z"/>
						</g>
					</g>
					<g>
						<g>
							<path class="st0" d="M271.9,274.55c-0.38,0-0.72-0.07-1-0.21c-0.29-0.14-0.52-0.36-0.72-0.65c0-0.38,0.12-0.64,0.36-0.79
								c0.24-0.14,0.5-0.26,0.79-0.36c0.38,0,0.74,0.07,1.07,0.21c0.34,0.14,0.5,0.45,0.5,0.93c0.1,0.29,0.05,0.53-0.14,0.72
								C272.57,274.6,272.29,274.65,271.9,274.55z"/>
							<path class="st0" d="M272.26,275.05c-0.13,0-0.26-0.01-0.41-0.05c-0.43-0.01-0.82-0.1-1.15-0.27
								c-0.36-0.18-0.66-0.44-0.89-0.8l-0.08-0.12v-0.14c0-0.68,0.32-1.02,0.58-1.18c0.27-0.16,0.56-0.29,0.88-0.4l0.15-0.03
								c0.44,0,0.87,0.09,1.26,0.25c0.34,0.15,0.75,0.49,0.78,1.28c0.12,0.43,0.02,0.82-0.28,1.12
								C272.93,274.89,272.67,275.05,272.26,275.05z M270.65,273.55c0.13,0.16,0.28,0.29,0.46,0.38c0.22,0.11,0.49,0.16,0.8,0.16
								l0.11,0.01c0.14,0.03,0.34,0.06,0.42-0.02c0.04-0.04,0.09-0.09,0.04-0.25l-0.03-0.15c0-0.42-0.15-0.48-0.22-0.51
								c-0.25-0.11-0.53-0.17-0.82-0.18c-0.23,0.08-0.44,0.18-0.63,0.29C270.71,273.33,270.67,273.42,270.65,273.55z"/>
						</g>
					</g>
					<g>
						<g>
							<path class="st0" d="M269.55,313.96c0.63,0.09,1.24,0.12,1.82,0.06c0.43-0.03,0.83-0.18,1.24-0.46
								c-0.36-0.6-0.76-0.94-1.19-1c-0.62-0.09-1.28-0.04-1.97,0.13c-0.81,0.2-1.61,0.26-2.33,0.15c-1.7-0.28-3.45-0.43-5.24-0.43
								h-1.15c-0.87,0.09-1.8,0.23-2.71,0.41c-0.09,0.05-0.16,0.11-0.21,0.18c-0.05,0.08-0.11,0.17-0.16,0.28
								c0.09,0.07,0.16,0.15,0.21,0.24c2.04,0.18,3.86,0.27,5.45,0.27c0.45,0.1,0.8,0.14,1.15,0.14h2.58
								C267.74,313.76,268.62,313.76,269.55,313.96z M257.71,313.52c0.01,0,0.03,0,0.04,0
								C257.73,313.52,257.72,313.52,257.71,313.52z"/>
						</g>
					</g>
					<g>
						<g>
							<path class="st0" d="M279.55,319.11c0.63,0.09,1.24,0.12,1.82,0.06c0.43-0.03,0.83-0.18,1.24-0.46
								c-0.36-0.6-0.76-0.94-1.19-1c-0.62-0.09-1.28-0.04-1.97,0.13c-0.81,0.2-1.61,0.26-2.33,0.15c-1.7-0.28-3.45-0.43-5.24-0.43
								h-1.15c-0.87,0.09-1.8,0.23-2.71,0.41c-0.09,0.05-0.16,0.11-0.21,0.18c-0.05,0.08-0.11,0.17-0.16,0.28
								c0.09,0.07,0.16,0.15,0.21,0.24c2.04,0.18,3.86,0.27,5.45,0.27c0.45,0.1,0.8,0.14,1.15,0.14h2.58
								C277.75,318.91,278.63,318.92,279.55,319.11z M267.71,318.68c0.01,0,0.03,0,0.04,0
								C267.74,318.68,267.73,318.68,267.71,318.68z"/>
						</g>
					</g>
				</g>
				<g style="clip-path:url(#SVGID_00000026147833483878290990000012447975157834966680_);">
					<g>
						<g>
							<path class="st0" d="M256.87,246.52c3.83,0.57,7.68,0.53,11.54-0.14c0.17-0.06,0.37-0.16,0.52-0.27c0,0,0.03-0.08-0.03-0.32
								c-0.02-0.02-0.06-0.05-0.12-0.1c-0.15-0.11-0.24-0.12-0.3-0.12c-1.37-0.09-2.66-0.19-3.91-0.29
								c-1.43-0.09-2.85-0.24-4.19-0.43c-0.14,0.03-0.33-0.07-0.55-0.22c-0.17-0.11-0.32-0.23-0.43-0.35l-0.27-0.27v-0.19
								c0-0.15,0.05-0.38,0.28-0.61c0.06-0.06,0.1-0.11,0.13-0.17c0.07-0.13,0.17-0.27,0.3-0.4l0.12-0.12l3.9-0.3
								c1.28-0.09,2.51-0.18,3.7-0.27h0.01c0.09-0.09,0.21-0.18,0.35-0.28c0.08-0.06,0.1-0.09,0.1-0.12c-0.01,0-0.04-0.06-0.12-0.17
								c-0.09-0.12-0.17-0.22-0.24-0.3c-1.33-0.33-2.83-0.47-4.46-0.38h-0.03c-0.96,0-2.04-0.05-3.19-0.14h-4.84l0,0
								c-0.52,0-0.98,0.08-1.41,0.25c-0.34,0.13-0.52,0.34-0.58,0.66c-0.12,0.32-0.15,0.51-0.09,0.56c0.15,0.12,0.37,0.18,0.65,0.18
								l0.15,0.03c0.31,0.1,0.56,0.21,0.77,0.31c0.41,0.09,0.77,0.33,0.98,0.68c0.14,0.23,0.31,0.7-0.08,1.28
								c-0.59,0.95-0.58,1.27-0.57,1.32c0.01,0.13,0.07,0.25,0.35,0.36c0.37,0.14,0.82,0.25,1.35,0.34L256.87,246.52z
								 M268.92,245.82L268.92,245.82L268.92,245.82z"/>
						</g>
					</g>
					<g>
						<g>
							<path class="st0" d="M276.23,187.62c-0.48-0.09-1-0.14-1.58-0.14c-1.34,0-2.63,0.1-3.87,0.29c-0.19,0-0.36,0.1-0.5,0.29
								c-0.14,0.19-0.21,0.34-0.21,0.43c0,0.19,0.05,0.38,0.14,0.57c0.09,0.19,0.24,0.34,0.43,0.43c0.29,0.1,0.57,0.17,0.86,0.21
								c0.29,0.05,0.57,0.07,0.86,0.07c0.57,0,1,0,1.29,0c0.19,0,0.36,0,0.5,0c0.14,0,0.26,0,0.36,0c0.29,0,0.57,0,0.86,0
								c0.48,0.1,0.88,0.07,1.22-0.07c0.34-0.14,0.5-0.5,0.5-1.08C276.99,188.05,276.71,187.71,276.23,187.62z"/>
							<path class="st0" d="M275.91,190.29c-0.2,0-0.41-0.02-0.63-0.06l-2.92,0.01c-0.31,0-0.62-0.03-0.94-0.08
								c-0.31-0.05-0.62-0.13-0.93-0.23c-0.34-0.16-0.55-0.38-0.69-0.66c-0.13-0.25-0.19-0.52-0.19-0.78c0-0.21,0.09-0.42,0.31-0.71
								c0.29-0.39,0.63-0.47,0.87-0.47c1.2-0.19,2.52-0.29,3.87-0.29c0.58,0,1.15,0.05,1.66,0.15l0,0c0.66,0.13,1.1,0.62,1.22,1.38
								c0.01,1.04-0.42,1.42-0.77,1.57C276.51,190.23,276.22,190.29,275.91,190.29z M274.65,187.93c-1.31,0-2.58,0.09-3.8,0.28
								c-0.08,0-0.13,0-0.2,0.11c-0.11,0.14-0.13,0.2-0.13,0.2c0.01,0.07,0.04,0.19,0.1,0.32c0.05,0.11,0.13,0.18,0.23,0.23
								c0.21,0.06,0.47,0.13,0.74,0.17c0.26,0.04,0.52,0.06,0.78,0.06h3.01c0.47,0.08,0.79,0.07,1.03-0.04
								c0.19-0.08,0.23-0.4,0.23-0.65c-0.07-0.41-0.29-0.51-0.49-0.55C275.68,187.98,275.18,187.93,274.65,187.93z"/>
						</g>
					</g>
					<g>
						<g>
							<path class="st0" d="M286.5,184.7c2.47,0,4.96,0.15,7.42,0.45l0.52,0c0.12,0,0.24-0.03,0.37-0.09c0.28-0.1,0.46-0.2,0.6-0.35
								c0.14-0.14,0.25-0.32,0.32-0.54c0.03-0.09,0.03-0.14-0.07-0.22c-0.16-0.12-0.32-0.18-0.5-0.18c-1.78-0.1-3.55-0.14-5.31-0.14
								c-5.57-0.1-11.01-0.14-16.2-0.14c-5.69,0.1-11.48,0.24-17.19,0.43l-1.45-0.02c-0.5-0.17-0.94-0.21-1.35-0.13
								c-0.25,0.05-0.42,0.35-0.48,0.88c0-0.04,0.09,0.04,0.34,0.08c0.45,0.09,0.94,0.14,1.49,0.14l0.15,0.03
								c0.24,0.08,0.47,0.12,0.71,0.12c0.69,0.09,1.32,0.1,1.94,0l17.42,0c2.31,0,4.62-0.05,6.86-0.14
								C283.55,184.76,285.02,184.7,286.5,184.7z"/>
						</g>
					</g>
					<g>
						<g>
							<path class="st0" d="M260.17,215.7c1.9,0.16,3.74-0.11,5.48-0.82c-0.61-0.48-1.2-0.74-1.77-0.77
								c-0.82-0.05-1.7,0.02-2.61,0.2c-0.79,0.2-1.55,0.3-2.24,0.3h-2.15c-1.25-0.09-2.48-0.1-3.69,0c-0.25,0-0.42,0.05-0.59,0.15
								c-0.06,0.04-0.11,0.08-0.13,0.15c0.06,0.1,0.13,0.19,0.21,0.27c0.06,0.07,0.11,0.08,0.18,0.08h0.58
								c1.92,0.19,3.84,0.34,5.76,0.43H260.17z"/>
						</g>
					</g>
					<g>
						<g>
							<path class="st0" d="M255.97,227.44c-0.79,0-1.58,0.03-2.37,0.07c-0.03,0-0.13,0.01-0.34,0.22
								c-0.26,0.25-0.37,0.42-0.42,0.52c-0.04,0.2,0.05,0.27,0.09,0.3c0.16,0.13,0.32,0.19,0.51,0.19h0.03
								c3.42,0.19,6.94,0.34,10.45,0.43c0.83,0,1.64-0.09,2.47-0.28l0.3-0.01c0.19-0.07,0.34-0.17,0.47-0.3
								c0.04-0.04,0.09-0.09,0.04-0.25l-0.03-0.15c0-0.08-0.01-0.15-0.18-0.24c-0.23-0.11-0.44-0.16-0.66-0.16
								c-1.53-0.09-3.11-0.09-4.7,0h-2.07v-0.29h-1.26C257.54,227.46,256.76,227.44,255.97,227.44z"/>
						</g>
					</g>
					<g>
						<g>
							<path class="st0" d="M254.31,232.78c2.88,0.65,5.81,0.83,8.69,0.55c1.46-0.1,2.97-0.1,4.51,0c0.01-0.09,0.09-0.19,0.17-0.3
								c0.05-0.08,0.06-0.12,0.06-0.12c-0.04-0.09-0.08-0.15-0.16-0.22c-1.81-0.3-3.58-0.49-5.29-0.58c0,0-0.01,0-0.01,0
								c-0.48,0-0.99-0.05-1.49-0.15l-6.39,0.01c-0.11,0.06-0.2,0.14-0.29,0.23c-0.08,0.07-0.09,0.13-0.09,0.18l0,0
								c0,0,0.02,0.06,0.1,0.22C254.17,232.67,254.23,232.74,254.31,232.78z"/>
						</g>
					</g>
					<g>
						<g>
							<path class="st0" d="M259.91,174.42c-1.72,0-3.44,0-5.16,0c-1.63,0-3.2,0.05-4.73,0.14c-0.19,0.1-0.36,0.19-0.5,0.29
								c-0.14,0.1-0.26,0.24-0.36,0.43c-0.1,0.38-0.02,0.65,0.21,0.79c0.24,0.14,0.5,0.26,0.79,0.36c2.87,0.38,5.78,0.43,8.75,0.14
								c3.06-0.38,6.17-0.33,9.32,0.14c1.53,0,3.06-0.05,4.59-0.14c3.25-0.38,6.55-0.38,9.9,0c0.95,0.19,1.91,0.19,2.87,0
								c0.29-0.09,0.62-0.14,1-0.14c0.57,0,1.08-0.09,1.51-0.29c0.43-0.19,0.65-0.57,0.65-1.15c0-0.29-0.19-0.43-0.57-0.43
								c-0.38,0-0.81,0-1.29,0c-0.48,0-0.91,0-1.29,0c-0.38,0-0.77-0.05-1.15-0.14c-1.15-0.19-2.29-0.29-3.44-0.29
								C273.91,174.52,266.88,174.62,259.91,174.42z"/>
							<path class="st0" d="M255.12,177.22c-1.7,0-3.37-0.11-5.02-0.33c-0.4-0.12-0.7-0.26-0.96-0.42
								c-0.24-0.14-0.61-0.51-0.42-1.29c0.17-0.37,0.34-0.57,0.56-0.71c0.15-0.1,0.33-0.21,0.55-0.32l0.17-0.05
								c1.57-0.09,3.17-0.14,4.76-0.14h5.17c6.91,0.19,14,0.09,21.04-0.29c0,0,0.01,0,0.01,0c1.18,0,2.36,0.1,3.53,0.29
								c0.37,0.09,0.72,0.14,1.07,0.14h2.58c0.76,0,1.03,0.46,1.03,0.89c0,0.96-0.5,1.38-0.92,1.57c-0.48,0.22-1.05,0.33-1.69,0.33
								c-0.33,0-0.62,0.04-0.86,0.12c-1.08,0.22-2.1,0.22-3.1,0.02c-3.26-0.38-6.56-0.37-9.75,0c-1.53,0.1-3.09,0.15-4.64,0.15
								c-3.17-0.48-6.26-0.52-9.26-0.15C257.67,177.16,256.39,177.22,255.12,177.22z M249.56,175.49c0.01,0-0.01,0.16,0.04,0.2
								c0.21,0.13,0.44,0.23,0.7,0.31c2.73,0.36,5.64,0.41,8.56,0.13c3.07-0.39,6.25-0.33,9.43,0.14c1.46,0,3-0.05,4.49-0.15
								c3.25-0.38,6.61-0.38,9.98,0c0.94,0.19,1.84,0.18,2.73,0c0.28-0.1,0.65-0.15,1.09-0.15c0.51,0,0.95-0.08,1.32-0.25
								c0.17-0.08,0.37-0.22,0.38-0.7l0,0c-0.02,0-0.06,0-0.11,0h-2.58c-0.43,0-0.85-0.05-1.26-0.16c-1.08-0.18-2.21-0.27-3.32-0.27
								c-7.04,0.38-14.14,0.48-21.09,0.29h-5.15c-1.54,0-3.09,0.05-4.61,0.14c-0.14,0.08-0.27,0.15-0.37,0.22
								C249.69,175.29,249.62,175.37,249.56,175.49C249.56,175.49,249.56,175.49,249.56,175.49z"/>
						</g>
					</g>
					<g>
						<g>
							<path class="st0" d="M261.55,180.13c5.93,0,12,0.1,18.02,0.29c3.06,0.1,6.16,0.19,9.32,0.29c0.71,0,1.43-0.04,2.14-0.13
								c0.12-0.06,0.22-0.14,0.32-0.24c0.06-0.06,0.08-0.11,0.08-0.16l0,0c-0.01,0-0.04-0.06-0.12-0.17
								c-0.09-0.12-0.18-0.2-0.29-0.27c-5.64-0.93-11.41-1.17-17.16-0.7h0c-5.38,0.37-10.76,0.24-16.07,0.43h-2.31
								c-1.98-0.09-4.04-0.04-6.13,0.14c-0.01,0-0.02,0-0.03,0c-0.56,0-1.05-0.05-1.54-0.15c-0.52-0.08-1.05-0.11-1.58-0.06
								c-0.32,0.03-0.6,0.23-0.85,0.6c0.41,0.22,0.81,0.36,1.24,0.42c0.57,0.1,1.12,0.09,1.65,0l1.08-0.01
								c2.02,0,4.08-0.05,6.15-0.14c2-0.19,4.04-0.24,6.06-0.14C261.52,180.13,261.53,180.13,261.55,180.13z"/>
						</g>
					</g>
					<g>
						<g>
							<path class="st0" d="M257.26,223.14c-0.78,0-1.57,0.02-2.37,0.07c-0.09,0-0.21,0.05-0.38,0.19c-0.17,0.13-0.29,0.3-0.35,0.5
								c-0.04,0.1-0.03,0.14,0.06,0.22h0c0.16,0.13,0.32,0.19,0.5,0.19c4.02,0.47,8.04,0.52,12,0.15c0.25,0,0.43-0.05,0.59-0.15
								c0.12-0.07,0.22-0.22,0.28-0.45c-0.01-0.14-0.06-0.24-0.15-0.34c-0.13-0.13-0.35-0.23-0.65-0.31
								c-1.28-0.08-2.61-0.13-3.9-0.13c-0.46-0.07-0.87-0.11-1.26-0.13v0.28h-2.04C258.83,223.16,258.05,223.14,257.26,223.14z"/>
						</g>
					</g>
					<g>
						<g>
							<path class="st0" d="M253.32,193.03c0.57,0.53,1.15,0.84,1.77,0.95c0.81,0.14,1.66,0.1,2.56-0.07
								c0.83-0.1,1.64-0.1,2.44-0.01l4.68,0c1.82,0,3.66-0.32,5.47-0.94c0.03-0.04,0.05-0.07,0.07-0.1c0.04-0.07,0.08-0.14,0.13-0.2
								c-0.08-0.08-0.18-0.18-0.27-0.27l-7.67,0v0.14h-0.46c-0.23,0-0.49-0.05-0.79-0.14c-0.42,0-0.89,0.05-1.43,0.14l-2.23,0.01
								c-0.88-0.1-1.71-0.09-2.53,0l0,0C254.45,192.58,253.87,192.75,253.32,193.03z"/>
						</g>
					</g>
					<g>
						<g>
							<path class="st0" d="M254.19,219.79c0.05,0.09,0.13,0.18,0.21,0.27c0.06,0.06,0.11,0.08,0.17,0.08
								c3.75,0.28,7.53,0.15,11.26-0.4l0.33-0.33v-0.1c0-0.07-0.02-0.12-0.08-0.17c-0.06-0.06-0.11-0.09-0.18-0.09h-4.01
								c-0.7,0-1.39-0.05-2.07-0.15c-1.8-0.27-3.57-0.1-5.27,0.52l-0.28,0.28C254.23,219.73,254.21,219.77,254.19,219.79z
								 M266.29,219.27C266.29,219.27,266.29,219.27,266.29,219.27L266.29,219.27z"/>
						</g>
					</g>
					<g>
						<g>
							<path class="st0" d="M242.58,175.69h1.53c0.03-0.05,0.08-0.1,0.13-0.15c0.06-0.06,0.11-0.12,0.13-0.17
								c0.03-0.03,0.01-0.08-0.1-0.23c-0.03-0.04-0.09-0.1-0.13-0.1l-5,0.29l0.01,0.01c-0.02,0.01-0.03,0.03-0.03,0.03l-0.01,0.13
								c0.01,0,0.06,0.04,0.23,0.08l3.24-0.01V175.69z"/>
						</g>
					</g>
					<g>
						<g>
							<path class="st0" d="M257.27,188.65c0.01,0,0.01,0,0.03,0c-0.01-0.03-0.01-0.07-0.02-0.11c-0.04-0.02-0.06-0.03-0.09-0.04
								c0,0.01-0.01,0.04-0.01,0.06C257.21,188.58,257.23,188.61,257.27,188.65z"/>
						</g>
					</g>
					<g>
						<g>
							<path class="st0" d="M254.7,211.54c0.75,0.09,1.55,0.04,2.36-0.14c0.93-0.2,1.82-0.2,2.65,0l7.49-0.01
								c0.16,0,0.29-0.05,0.39-0.15c0.11-0.1,0.15-0.22,0.15-0.39c0-0.32-0.1-0.38-0.14-0.39c-0.18-0.11-0.39-0.21-0.63-0.29h-1.79
								c-1.73-0.19-3.45-0.24-5.14-0.14c-0.86,0.09-1.76,0.1-2.66,0c-0.84-0.09-1.69-0.11-2.51-0.07c-0.62,0.04-1.26,0.27-1.9,0.68
								C253.55,211.17,254.13,211.47,254.7,211.54L254.7,211.54z"/>
						</g>
					</g>
					<g>
						<g>
							<path class="st0" d="M259.91,197.63c0.02,0,0.08,0.05,0.22,0.1c0.28,0.12,0.62,0.18,1.04,0.18h1.29l4.39-0.28l0.23-0.23
								c0.08-0.07,0.09-0.12,0.09-0.18c0-0.07-0.02-0.12-0.08-0.17l-0.23-0.23h-2.22v0.14h-0.89c-0.5-0.09-0.87-0.09-1.18-0.01
								c-0.33,0.11-0.75,0.12-1.23,0c-0.32,0.01-0.74,0.06-1.15,0.15C260.09,197.12,259.92,197.16,259.91,197.63L259.91,197.63z"/>
						</g>
					</g>
					<g>
						<g>
							<path class="st0" d="M262.18,189.19c0.95,0,1.87-0.05,2.72-0.14c0.09,0,0.19-0.05,0.29-0.14c0.09-0.09,0.19-0.19,0.29-0.29
								c0-0.09,0.05-0.19,0.14-0.29c-0.1-0.09-0.19-0.14-0.29-0.14c-0.19-0.19-0.38-0.33-0.57-0.43c-0.19-0.09-0.48-0.14-0.86-0.14
								c-0.1,0-0.24,0-0.43,0c-0.1,0-0.19,0-0.29,0c-0.38,0.1-0.77,0.19-1.15,0.29c-0.1,0-0.17,0.02-0.22,0.07
								c-0.05,0.05-0.12,0.17-0.21,0.36c0.09,0.1,0.17,0.21,0.21,0.36c0.05,0.14,0.09,0.26,0.14,0.36
								C262.01,189.15,262.08,189.19,262.18,189.19z"/>
							<path class="st0" d="M262.18,189.65c-0.28,0-0.51-0.15-0.63-0.4c-0.05-0.1-0.11-0.24-0.17-0.42
								c-0.03-0.07-0.06-0.13-0.11-0.18l-0.22-0.23l0.14-0.29c0.13-0.27,0.22-0.41,0.32-0.49c0.08-0.08,0.25-0.19,0.53-0.19
								l1.04-0.27l0.83-0.01c0.45,0,0.8,0.06,1.06,0.19c0.2,0.1,0.4,0.24,0.59,0.42c0.12,0.04,0.26,0.11,0.4,0.25l0.31,0.32
								l-0.31,0.32v0.19l-0.14,0.1l-0.29,0.29c-0.23,0.23-0.46,0.28-0.62,0.28C264.09,189.6,263.16,189.65,262.18,189.65z
								 M262.36,188.83C262.36,188.83,262.36,188.83,262.36,188.83C262.36,188.83,262.36,188.83,262.36,188.83z M262.17,188.35
								c0.03,0.06,0.06,0.13,0.09,0.2c0.03,0.07,0.05,0.14,0.07,0.19c0.89,0,1.74-0.05,2.53-0.14l0.12-0.12
								c-0.14-0.14-0.28-0.24-0.42-0.31c-0.07-0.03-0.25-0.09-0.65-0.09h-0.72L262.17,188.35z"/>
						</g>
					</g>
					<g>
						<g>
							<path class="st0" d="M252.06,206.8h0.46c0.58,0,1.15,0.05,1.66,0.15c1.35-0.01,2.79-0.05,4.18-0.15
								c0.38,0,0.73-0.04,1.06-0.13c0.05-0.01,0.17-0.04,0.09-0.48c-0.01-0.16-0.02-0.23-0.18-0.31c-0.46-0.24-0.9-0.13-1.33-0.31
								l-0.6-0.02c-0.61-0.18-1.27-0.22-1.97-0.13c-0.61,0.1-1.23,0.1-1.85,0c-0.67-0.11-1.28-0.44-1.83-0.99l-0.25-0.26l0.19-0.31
								c0.55-0.88,1.22-1.38,1.97-1.5c0.66-0.1,1.36-0.1,2.07,0c0.71,0.09,1.34,0.09,1.86,0l1.08-0.01c0.23,0,0.47-0.04,0.72-0.12
								l0.29-0.02c0.33,0,0.66-0.06,0.99-0.19c0.1-0.04,0.28-0.12,0.28-0.22c0-0.5-0.17-0.54-0.23-0.56c-0.3-0.07-0.61-0.07-0.93,0
								l-0.68,0.01c-3.61,0-7.31,0.14-11.01,0.43h-0.33c-0.38,0-0.71,0.02-1.01,0.07c-0.24,0.03-0.43,0.09-0.56,0.18
								c0.01,0.01,0.02,0.04,0.04,0.08c0.04,0.08,0.25,0.4,1.23,1.13c0.25,0.12,0.52,0.49,0.3,1.04c-0.1,0.26-0.25,0.49-0.44,0.7
								c-0.05,0.14-0.15,0.25-0.29,0.32c-0.85,1.12-0.72,1.47-0.7,1.51c0.05,0.1,0.3,0.21,0.86,0.21h4.85V206.8z M247.01,203.94
								c0,0,0.01,0,0.01,0.01C247.01,203.94,247.01,203.94,247.01,203.94z"/>
						</g>
					</g>
					<g>
						<g>
							<path class="st0" d="M253.5,196.82c-0.29,0.01-0.56,0.07-0.81,0.18c-0.08,0.03-0.23,0.09-0.23,0.51l-0.03,0.15
								c-0.05,0.16-0.01,0.2,0.03,0.24c0.09,0.08,0.27,0.06,0.43,0.03l0.11-0.01c0.31,0,0.58-0.06,0.8-0.16
								c0.17-0.09,0.32-0.21,0.46-0.38c-0.02-0.13-0.06-0.22-0.13-0.25C253.94,197.01,253.73,196.91,253.5,196.82z"/>
						</g>
					</g>
					<g>
						<g>
							<path class="st0" d="M252.3,237.39c0.41,0.28,0.81,0.43,1.24,0.46c0.56,0.05,1.16,0.03,1.81-0.06
								c0.92-0.2,1.81-0.2,2.63,0.01l2.47-0.01c0.35,0,0.7-0.04,1.04-0.13c1.67-0.01,3.51-0.11,5.56-0.29
								c0.05-0.09,0.12-0.18,0.2-0.26c-0.05-0.09-0.1-0.18-0.15-0.25c-0.04-0.06-0.11-0.13-0.2-0.18c-0.91-0.18-1.84-0.32-2.76-0.41
								l-1.1,0c-1.78,0-3.54,0.14-5.23,0.42c-0.74,0.1-1.52,0.06-2.34-0.15c-0.7-0.18-1.36-0.22-1.97-0.13
								C253.06,236.46,252.66,236.79,252.3,237.39z M267.15,237.35c0,0-0.01,0-0.01,0C267.14,237.35,267.15,237.35,267.15,237.35
								L267.15,237.35z"/>
						</g>
					</g>
				</g>
			</g>
		</g>
		<g>
			<defs>
				<path id="SVGID_00000108273541765037052280000017842456964279759505_" d="M308.78,310c0,0,18.9,7.86,26.3,0.36l1.45-1.47
					C336.53,308.89,306.56,306.14,308.78,310z"/>
			</defs>
			<clipPath id="SVGID_00000128484206631893376060000008143863546929644430_">
				<use xlink:href="#SVGID_00000108273541765037052280000017842456964279759505_"  style="overflow:visible;"/>
			</clipPath>
			<g style="clip-path:url(#SVGID_00000128484206631893376060000008143863546929644430_);">
				<path class="st0" d="M319.28,307.09c-0.09,0.06,4.97,0.52,9.39,3.77c4.81,2.74,7.26,6.34,6.99,6.47
					c0.23-0.16-2.49-3.41-7.29-6.14C324.04,307.99,319.22,307.16,319.28,307.09z"/>
				<path class="st0" d="M321.76,306.07c0.12-0.39,3.77,0.67,7.53,2.84c3.78,2.27,5.68,5.11,5.78,5.02
					c-0.09,0.1-2.38-2.47-6.05-4.67C325.27,307.09,321.93,305.69,321.76,306.07z"/>
			</g>
		</g>
	</g>
</g>
</svg>
