<?xml version="1.0" encoding="utf-8"?>
<!-- Generator: Adobe Illustrator 26.4.0, SVG Export Plug-In . SVG Version: 6.00 Build 0)  -->
<svg version="1.1" id="Layer_1" xmlns="http://www.w3.org/2000/svg" xmlns:xlink="http://www.w3.org/1999/xlink" x="0px" y="0px"
	 viewBox="0 0 818.2 1070.9" style="enable-background:new 0 0 818.2 1070.9;" xml:space="preserve">
<style type="text/css">
	.st0{fill:#A9A4A3;}
	.st1{fill:#00C4B3;}
	.st2{fill:#99D9D9;}
	.st3{fill:#FFFFFF;}
	.st4{enable-background:new    ;}
	.st5{display:none;}
</style>
<g id="Layer_1_00000052823414570511769510000011640806484425811129_">
	<g>
		<g>
			<g>
				<g>
					<g>
						<g>
							<g>
								<g>
									<g>
										<g>
											<g>
												<g>
													<path d="M173.3,172.6v8.4H189v9.7h-15.7v8.3h22v9.7h-34.8v-45.9h34.8v9.9L173.3,172.6L173.3,172.6z"/>
													<path d="M277.3,172.6v8.4H293v9.7h-15.7v8.3h22v9.7h-34.8v-45.9h34.8v9.9L277.3,172.6L277.3,172.6z"/>
													<path d="M254,172.6h-17.6v36h-13v-36h-17.3v-9.9H254V172.6z"/>
												</g>
											</g>
										</g>
										<g>
											<polygon points="638.6,181.8 620.7,181.8 620.7,162.8 607.8,162.8 607.8,208.7 620.7,208.7 620.7,191.5 638.6,191.5 
												638.6,208.7 651.3,208.7 651.3,162.8 638.6,162.8 											"/>
											<path d="M595.4,164.2c-1.3-0.9-2.8-1.4-4.5-1.4h-37.7v45.9h13.1v-15.1l0,0v-0.7h24.6c1.8,0,3.3-0.5,4.5-1.4
												c1.3-0.9,1.9-2.1,1.9-3.5v-20.4C597.3,166.3,596.7,165.1,595.4,164.2z M584.3,183.1h-18v-0.5l0,0v-10h18V183.1z"/>
											<polygon points="679.5,162.8 661.8,162.8 682.4,187.7 682.4,208.7 695.4,208.7 695.4,187.7 716.1,162.8 698.3,162.8 
												688.7,174.2 											"/>
											<path d="M540.8,191.5c1.3-0.9,1.9-2.1,1.9-3.5v-20.4c0-1.3-0.6-2.5-1.9-3.4c-1.3-0.9-2.8-1.4-4.7-1.4h-37.3v45.9h13
												v-15.8h6.5l9.4,15.8h15.1l-9.8-15.8C534.7,192.9,539.6,192.4,540.8,191.5z M529.7,183.2h-18v-10.6h18V183.2z"/>
											<polygon points="403.9,182.8 394.5,162.8 374.5,162.8 374.5,208.7 387.5,208.7 387.4,172.7 399.7,200.1 408,200.1 
												420.4,172.7 420.4,208.7 433.2,208.7 433.2,162.8 413.2,162.8 											"/>
											<path d="M475.2,198.9h-18.5v-36.3h-13.1v41.2c0,1.4,0.6,2.6,1.9,3.5s2.8,1.4,4.7,1.4h31.6c1.8,0,3.4-0.5,4.7-1.4
												s1.9-2.1,1.9-3.5v-41.2h-13.1v36.3H475.2z"/>
										</g>
										<path d="M147.9,164.2c-1.3-0.9-2.8-1.4-4.5-1.4h-37.7v45.9h13.1v-15.5l0,0v-10.4l0,0v-10.2h18v10.5h-20v9.8h26.6
											c1.8,0,3.3-0.5,4.5-1.4c1.3-0.9,1.9-2.1,1.9-3.5v-20.4C149.8,166.3,149.2,165.1,147.9,164.2z"/>
									</g>
								</g>
							</g>
						</g>
					</g>
					<path d="M351.9,191.5c1.3-0.9,1.9-2.1,1.9-3.5v-20.4c0-1.3-0.6-2.5-1.9-3.4s-2.8-1.4-4.7-1.4h-37.4v45.9h13v-15.8h6.5l9.4,15.8
						h15.1l-9.8-15.8C345.8,192.9,350.6,192.4,351.9,191.5z M340.8,183.2h-18v-10.6h18V183.2z"/>
				</g>
			</g>
		</g>
		<g>
			<path class="st0" d="M262.3,237.5c0.6,0.4,1.4,0.4,2,0.4c1.6,0.2,2.7,1,3.6,2.2c0.4,0.6,0.2,1.4-0.5,1.8c-0.7,0.4-1.4,0.5-2,0
				c-2.9-2.3-6.2-1.8-9.4-1c-0.9,0.3-1.6,0.9-1.9,1.9c-0.9,3.3,0.5,5.2,3.8,5.7c1.2,0.1,2.4,0.1,3.5,0.1c1,0,2.1-0.2,2.9-0.9
				c0.5-0.4,1-0.7,1.7-0.8c0.9-0.2,1.6,0.2,2,0.9c0.5,0.7-0.1,1.2-0.6,1.7c-2.1,2.3-6.3,2-9.1,1.9c-3.2-0.1-7.1-1.8-7.1-5.6
				c0-0.7,0-1.4,0-2.1c-0.2-2.2,0.9-3.6,2.5-4.9c0.6-0.5,1.4-0.7,2.1-0.8c1-0.1,1.8-0.5,2.8-0.6h3.7V237.5z"/>
			<path class="st0" d="M311.1,242c0,0.4,0,0.9,0,1.3c-0.1,0.9-0.5,1.5-1.5,1.8c-1.4,0.4-2.7,1-4.2,0.8c-0.2,0-0.3,0.1-0.4,0.2
				c-0.1,0.3,0.1,0.4,0.2,0.6c0.9,1.1,2.1,1.4,3.4,1.8c1.1,0.3,2.3,0.5,3.4,0.6c0.9,0,1.2,0.6,1.1,1.4c0,0.8-0.5,1.2-1.3,1.2
				c-3.2,0-6.1-0.8-8.6-2.7c-0.7-0.5-1.1-1.2-1.5-2c-0.4-0.9-1.1-1.2-2-1.1c-0.8,0.2-1.2,0.7-1.3,1.6c-0.1,0.9-0.2,1.8,0,2.8
				c0.1,0.6-0.2,1-0.7,1.1c-0.9,0.4-2.1-0.3-2.1-1.2c0.1-1.8-0.2-3.5,0-5.3c0.1-0.9-0.1-1.8-0.1-2.7c0.1-1.2,0.1-2.5,0.2-3.7
				c0.1-0.6,0.6-0.9,1.3-0.8c1,0.1,2,0.2,3,0.1c2.3-0.1,4.5,0,6.8-0.1C309.5,237.4,311.1,239.2,311.1,242z M303.2,240.4
				c-1.1,0-2.3,0-3.4,0c-0.8,0-1.2,0.5-1.2,1.4c0,0.8,0.3,1.2,1.1,1.2c1,0,1.9,0,2.9,0c1.6,0.1,3.1,0,4.7-0.2c0.5-0.1,1-0.4,1.1-1
				s-0.2-1-0.8-1.3c-0.3-0.1-0.7-0.2-1.1-0.2h-3.3V240.4z"/>
			<path class="st0" d="M355.2,237.6c0.7,0.4,1.1,0.9,1,1.7c-0.1,1-0.5,1.2-1.5,1.2c-3.3,0-6.6,0-9.9,0c-0.9,0-1.2,0.5-1.2,1.4
				c0,0.8,0.2,1.3,1.2,1.3c2.8,0.1,5.5,0.2,8.3,0.2c0.9,0,1.1,0.3,1.1,1.2c0,1.3-0.2,1.6-1.1,1.6c-2.6,0-5.2,0-7.8,0
				c-1.2,0-1.6,0.3-1.6,1.3c0,1.1,0.7,1.7,1.9,1.5c2-0.3,4-0.2,6,0c0.2,0,0.4,0.1,0.6,0c1.1-0.5,2.1-0.2,3.2,0
				c0.8,0.2,0.9,0.7,0.9,1.3c0,0.7-0.4,1.1-1.1,1.2c-2.1,0.1-4.3,0.1-6.4,0.1c-2.2,0-4.4-0.1-6.5,0c-0.9,0-1.2-0.3-1.3-1.1
				c-0.3-1.3-0.2-2.5,0-3.8c0.2-1.2-0.3-2.4-0.2-3.6c0.1-1.2,0.3-2.4,0.1-3.6c-0.2-1,0.4-1.4,1.4-1.4c1.8-0.1,3.7,0.2,5.5-0.3h7.4
				V237.6z"/>
			<path class="st0" d="M402,251.2c-1,0.1-1.6-0.3-2.2-1.3c-0.7-1.2-1.7-1.9-3.2-1.9c-2,0-4,0.1-5.9,0c-1.2,0-2,0.4-2.6,1.4
				c-0.8,1.2-1.7,2-3.2,1.8c-1-0.1-1.4-0.6-0.8-1.4c1.1-1.8,2.5-3.3,3.7-5.1c1.3-1.9,2.6-3.7,3.9-5.5c0.2-0.2,0.4-0.5,0.6-0.7
				c1-1.1,2.3-1,3.3,0.2c0.5,0.6,0.8,1.3,1.2,2c0.7,1.2,1.6,2.3,2.5,3.4c1.5,1.8,2.6,3.9,4,5.7C403.9,250.7,403.5,251.2,402,251.2z
				 M393.5,245.3c0.5,0,1,0,1.5,0c1-0.1,1.2-0.6,0.6-1.4c-0.5-0.6-1-1.1-1.3-1.8s-0.8-0.7-1.2-0.1c-0.5,0.8-1,1.5-1.6,2.3
				c-0.4,0.6-0.2,0.9,0.5,1C392.5,245.4,393,245.3,393.5,245.3z"/>
			<path class="st0" d="M440.6,244.8c0,1.6,0,3.3,0,4.9c0,1.3-0.5,1.6-1.6,1.6c-0.5,0-0.9-0.2-0.9-0.8c0-0.3-0.1-0.6-0.1-0.8
				c0-2.1,0-4.2-0.1-6.2c0-0.7,0.1-1.5,0-2.2s-0.4-1-1.1-1c-1.5,0.2-2.9-0.2-4.4,0c-0.6,0.1-1.1,0-1.2-0.8c-0.1-1,0.2-1.8,1-1.7
				c2.5,0.2,5.2,0,7.6,0c2.2,0,4.6,0.1,6.7,0c0.5-0.1,1,0.1,1.1,0.7c0,0.7,0.1,1.4-0.8,1.7c-0.3,0.1-0.7,0.2-1,0.2h-3.4
				c-1.2,0-1.6,0.3-1.6,1.5C440.6,242.9,440.7,243.9,440.6,244.8L440.6,244.8z"/>
			<path class="st0" d="M479.3,243c-0.3,2.5,0,4.8-0.1,7.1c0,0.7-0.3,1.3-1.1,1.4c-0.8,0.1-1.5-0.4-1.7-1.2
				c-0.1-0.4-0.1-0.8-0.1-1.2c0.2-2.4,0.1-4.7,0-7.1c0-1.2,0.2-2.3,0.2-3.4c0-1,1.1-0.8,1.7-0.9c0.5-0.1,0.9,0.4,0.9,1
				C479.1,240.2,478.9,241.7,479.3,243z"/>
			<path class="st0" d="M517.8,251.3c-0.7,0.1-1.2-0.2-1.6-0.8c-2-2.8-4.1-5.6-6.1-8.4c-0.5-0.8-1.1-1.5-1.6-2.2
				c-0.3-0.5-0.7-1-0.3-1.6s1.1-0.5,1.7-0.3c0.8,0.3,1.6,0.8,2.1,1.5c1.6,2.4,3.3,4.8,5.1,7.1c0.8,1,1.1,1,1.8,0
				c1.2-1.6,2.2-3.3,3.4-4.9c0.6-0.8,1.1-1.7,1.7-2.5c0.7-1,1.7-1.2,2.8-1.3c0.7,0,1,0.5,0.8,1.2c-0.1,0.4-0.4,0.7-0.7,1
				c-1.6,2.3-3.1,4.6-4.8,6.8c-0.5,0.7-1,1.4-1.4,2.2C520,250.4,518.9,251.3,517.8,251.3z"/>
			<path class="st0" d="M569.7,237.6c0.7,0.4,1.1,0.9,1,1.7c-0.1,1-0.5,1.2-1.5,1.2c-3.3,0-6.6,0-9.9,0c-0.9,0-1.2,0.5-1.2,1.4
				c0,0.8,0.2,1.3,1.2,1.3c2.8,0.1,5.5,0.2,8.3,0.2c0.9,0,1.1,0.3,1.1,1.2c0,1.3-0.2,1.6-1.1,1.6c-2.6,0-5.2,0-7.8,0
				c-1.2,0-1.6,0.3-1.6,1.3c0,1.1,0.7,1.7,1.9,1.5c2-0.3,4-0.2,6,0c0.2,0,0.4,0.1,0.6,0c1.1-0.5,2.1-0.2,3.2,0
				c0.8,0.2,0.9,0.7,0.9,1.3c0,0.7-0.4,1.1-1.1,1.2c-2.1,0.1-4.3,0.1-6.4,0.1c-2.2,0-4.4-0.1-6.5,0c-0.9,0-1.2-0.3-1.3-1.1
				c-0.3-1.3-0.2-2.5,0-3.8c0.2-1.2-0.3-2.4-0.2-3.6c0.1-1.2,0.3-2.4,0.1-3.6c-0.2-1,0.4-1.4,1.4-1.4c1.8-0.1,3.7,0.2,5.5-0.3h7.4
				V237.6z"/>
		</g>
	</g>
	<g>
		<g>
			<g>
				<path class="st0" d="M197.9,449.7h-5.7l-7.9-6.8h6.6L197.9,449.7z M188.7,449.7h-5.5l-7.9-6.8h5.5L188.7,449.7z M179.7,449.7
					h-5.6l-7.9-6.8h5.6L179.7,449.7z M170.6,449.7h-6l-7.9-6.8h6L170.6,449.7z M161.1,449.7h-5.9l-7.9-6.8h5.9L161.1,449.7z
					 M147.7,440.6l7.8-6.8h5.5l-7.8,6.8H147.7z M164.6,433.7h5.6l-7.8,6.8h-5.6L164.6,433.7z M173.7,433.7h6l-7.8,6.8h-6
					L173.7,433.7z M183.2,433.7h5.9l-7.8,6.8h-5.9L183.2,433.7z M141.1,442.9h2.8l7.9,6.8h-1.3C150.1,449.7,141.6,450.1,141.1,442.9
					z M152.1,433.7l-7.8,6.8h-3.1c0.5-7.1,8.9-6.8,9.3-6.8H152.1z M190.9,440.6h-6.3l7.8-6.8h5.4L190.9,440.6z"/>
				<polygon class="st0" points="201.6,441.5 114.7,441.5 107.2,443.8 203.7,443.8 				"/>
			</g>
			<g>
				<path class="st0" d="M64.7,435.4h5.7l7.9,6.8h-6.6L64.7,435.4z M73.9,435.4h5.5l7.9,6.8h-5.5L73.9,435.4z M82.9,435.4h5.6
					l7.9,6.8h-5.6L82.9,435.4z M92,435.4h6l7.9,6.8h-6L92,435.4z M101.5,435.4h5.9l7.9,6.8h-5.9L101.5,435.4z M114.9,444.5l-7.8,6.8
					h-5.5l7.8-6.8H114.9z M98,451.3h-5.6l7.8-6.8h5.6L98,451.3z M88.9,451.3h-6l7.8-6.8h6L88.9,451.3z M79.5,451.3h-5.9l7.8-6.8h5.9
					L79.5,451.3z M121.5,442.2h-2.8l-7.9-6.8h1.3C112.6,435.3,121,435,121.5,442.2z M110.5,451.3l7.8-6.8h3.1
					c-0.5,7.1-8.9,6.8-9.3,6.8H110.5z M71.7,444.5H78l-7.8,6.8h-5.4L71.7,444.5z"/>
				<polygon class="st0" points="61,443.6 148,443.6 155.4,441.3 58.9,441.3 				"/>
			</g>
		</g>
	</g>
	<g>
		<g>
			<path d="M92.8,362c-0.1-0.8-0.8-1.6-1.6-1.6c-0.6,0-1.2,0.5-1.4,1.1c-0.1,0.1-0.1,0.3-0.1,0.5v0.1c0,0,0,0,0,0.1
				c0,0.2,0,0.5,0.1,0.8c1.2,5.2,8.8,5.5,13.8,1.3C103.7,364.1,94.5,368.5,92.8,362z"/>
			<path d="M91.1,399.7c-6-3.8-15.6-6.8-15.6-6.8l4.6-4l-1.9-3.5l0,0c-0.3,0.4-0.6,0.7-1,1c0,0-0.1,0-0.1,0.1l0,0
				c-1.3,0.9-3.2,1.4-5,1c-0.6-0.1-1.2-0.4-1.7-0.7c-2.1,0.3-2.5,0.1-3.5-0.9c0,0-0.5-0.7-0.5-0.8c1.1,0.6,1.8,0.6,2.9,0.5
				c-0.5-0.8-0.5-1.8-0.1-2.7c0.6-1.2,2-2.4,3.7-3l0.2-0.2l-0.3-0.5c-2.4,0.4-5.1-0.6-5.8-2.8c-0.4-1.2-0.2-2.3,0.4-3.3
				c-1.1-0.2-1.7-0.2-2.8,0.4c0-0.1,0.6-0.8,0.6-0.8c1.1-1.1,1.5-1.3,3.6-0.9c0.5-0.3,1-0.5,1.6-0.7c2.3-0.5,4.8,0.7,5.7,2.7
				l0.5-0.1c-0.3-2.1,0.8-4.4,2.6-5.6c1-0.7,2.1-0.8,3.1-0.5c0.1-1.1,0-1.8-0.7-2.7c0.1,0,0.8,0.3,0.9,0.3c1.2,0.7,1.5,1.1,1.3,3.2
				c0.4,0.4,0.7,0.8,0.9,1.4c0.8,2.3-0.2,5.3-2.3,6.6c-0.1,0.1-0.2,0.1-0.3,0.1c3.1,3.6,9.1,6.2,12.7,8.6c0,0,0.4,4.7-1.2,9.9
				C92.7,397.4,91.1,399.7,91.1,399.7z"/>
			<path d="M161.7,395.9c0,0-9.8,2.9-13.8,15.4c0,0.1,0,0.1-0.1,0.2l-1.7,0.1c0,0,0-0.1,0-0.2c0.6-1.5,0.2-3.2-1.1-4.3
				c-1.7-1.5-4.5-1.4-6.1,0.3c-0.4,0.4-0.7,0.9-0.9,1.3c-1.8,0.6-2,1-2.2,2.4c0,0.1,0,0.9,0,1c0.5-1,1-1.4,2-1.7
				c0.1,1,0.5,2,1.4,2.7c0.4,0.3,0.8,0.6,1.3,0.8l0.1,1.1h0.1c-0.6,0.6-1,1.3-1.2,2.2c-0.1,0.5-0.1,1.1,0,1.6
				c-1.2,1.4-1.2,1.9-0.6,3.2c0,0.1,0.5,0.8,0.5,0.8c-0.1-1.1,0.1-1.7,0.7-2.5c0.6,0.8,1.5,1.4,2.7,1.5c2.3,0.3,4.6-1.3,5-3.5
				c0.1-0.3,0.1-0.6,0.1-0.8l2.1-0.3c0,0,0,0.1,0,0.3l0,0c0,0.6,0.1,1.3,0.5,1.9c1.1,2,3.7,2.9,5.7,2c1-0.5,1.7-1.3,2.1-2.2
				c0.8,0.6,1.2,1,1.4,2.2l0.2-0.9c0.2-1.4,0.1-1.8-1.5-2.9c-0.1-0.5-0.2-1-0.5-1.5c0,0,0,0,0-0.1l0,0c-0.1-0.2-0.2-0.3-0.3-0.5
				c-0.1-0.1-0.1-0.2-0.2-0.2c-0.3-0.3-0.6-0.6-1-0.9l-0.1-2.3l6.7-0.1v-7.6l3.2-2C166.4,402.1,162.3,400.2,161.7,395.9z"/>
			<path d="M193.7,413.4l2.2,0.9v-7.9c-6.3-0.2-3.2-13-3.2-13c-14.1,2.9-10.2-7.1-10.2-7.1c5.3-0.7,14.3-5.8,13.6-14
				c-1.2-15.4-39.7-9.6-51.1-8.9c-11.5,0.7-6.1-2.6,3.5-3.4s-4.5-12.2-4.5-12.2s3.4,3.2-10.9,10.9c-14.3,7.7,4.3,9.3,4.3,9.3
				c-4.6,4.2,2.8,7,2.8,7c-2.5-3.4,1.8-6.2,1.8-6.2s32.2-6.5,43.4-1.8s1.2,17.7-6.8,15.2c-8.1-2.5-25.1-0.7-25.1-0.7l-13.8,18
				c15.4-11.8,24.1-9,24.1-9c5.7,12.8,10.1,10.1,17.2,12.7c7.1,2.6,4.7,9.1,4.7,9.1h-4.1c0.3-0.9,0.3-1.9-0.1-2.8
				c-0.9-2.1-3.4-3.2-5.6-2.4c-0.5,0.2-1,0.5-1.4,0.8c-1.8-0.2-2.2,0-3,1.2c0,0-0.4,0.8-0.4,0.9c0.9-0.7,1.5-0.8,2.5-0.7
				c-0.4,0.9-0.4,2,0,3c0.4,0.9,1,1.5,1.8,2l0.8,0.9c-0.5,0.3-0.9,0.6-1.3,1c-0.4,0.4-0.6,0.9-0.8,1.4c-1.7,0.7-1.9,1.1-2,2.6
				c0,0.1,0,0.9,0.1,1c0.4-1.1,0.9-1.4,1.8-1.8c0.1,1,0.7,1.9,1.6,2.6c1.8,1.3,4.5,1,6-0.8c0.6-0.7,0.9-1.6,0.9-2.4h1.8
				c0.1,0.4,0.3,0.9,0.5,1.3c1.2,2,3.9,2.7,5.9,1.6c1-0.5,1.6-1.4,1.9-2.4c0.9,0.5,1.3,1,1.6,2.1l0.2-0.9c0.1-1.4-0.1-1.8-1.7-2.8
				c-0.1-0.5-0.3-1-0.6-1.5c-0.3-0.4-0.6-0.7-0.9-1C191.6,413.8,193.7,413.4,193.7,413.4z"/>
			<path d="M127.5,381.4c0,0-10,19.5-49.7,23.8c0.1-0.3,0.1-0.5,0.1-0.8c0.2-2.5-1.6-5.1-4-5.8c-0.6-0.2-1.1-0.2-1.6-0.1
				c-1.6-1.4-2-1.4-3.3-0.8c-0.1,0-0.8,0.5-0.8,0.5c1.2-0.1,1.7,0.2,2.6,1c-0.8,0.6-1.3,1.6-1.4,2.8c-0.1,2.3,1.3,4.6,3.4,5.5
				l-0.2,0.4c-2-0.5-4.2,0.3-5.5,2.1c-0.4,0.5-0.6,1.1-0.8,1.7c-1.7,1-1.9,1.4-1.9,2.9c0,0.1,0.1,1,0.1,1c0.4-1.1,0.8-1.6,1.7-2.1
				c0.2,1.1,0.9,2,1.9,2.6c2.1,1.2,4.9,0,6.4-2.1c0,0,0,0,0-0.1l0.6,0.1l0.1,0.4c-0.3,1.8,0.1,3.7,0.9,4.8c0.6,0.9,1.5,1.2,2.5,1.2
				c-0.4,1.1-0.7,1.7-1.8,2.4l0.9-0.1c1.4-0.4,1.7-0.7,2.4-2.7c0.5-0.3,0.9-0.6,1.3-1.1c0.7-0.8,1.1-1.7,1.3-2.7l0,0
				c0-0.1,0-0.1,0-0.2c0.2-0.8,0.2-1.6,0-2.3l3.8,0.6l0.3,6.1c0,0,14.2-8.6,30.3-6.9c0,0,1.5-1.9,0.4-3.2c-1.1-1.3-2.3-9.8,1.3-11.9
				c0,0-1.6,11.1,5.7,7.2s12.4-6.3,12.4-6.3l12.8-17.6h-22.2V381.4z"/>
		</g>
		<g>
			<path d="M125.8,348.8l-4.6-0.4c-0.3,0-0.7,0.1-0.9,0.3l0,0c-0.2,0.1-0.4,0.3-0.5,0.6l-0.4,0.8c-0.2,0.4-0.1,0.2-0.5,1l-2,3.6
				l2.2-6.3l-12.2-0.5c-0.4,0-1,0.2-1.3,0.4c-0.2,0.1-0.6,0.3-0.7,0.5l-2,1.6l0,0l-6.7,0.5c-0.4,0-0.7,0.1-0.7,0.5l-0.7,2.6
				c0,0,0.3,0,0.4,0l3.9-0.7c0,0-0.3,1.1-3.3,1.6c-3,0.4,0.7,7.1,0.9,7.5c0.1,0.1,0.2,0.5,0.4,0.6l0.4,0.1c0.4,0.1,1.1-0.2,1.4-0.4
				c1.6-0.7,6.5-2.4,7.7,1.2c1.4,4.3-4.6,5.6-7.8,4.8c-0.1,0-0.1,0-0.1,0.1l0.1,5.6c0.1,0,0.1,0,0.1,0.1c0.9-0.8,6-5.4,10.7-3.5v0.1
				c-1.1,0.6-11.3,6.2-12,11.7c-0.7,5.6-0.7,14.7-3.6,16.7c-0.1,0,0,0.2,0.1,0.1l5.8-2.8l0.7-0.4c0.1,0,0.3-0.1,0.4-0.1l2.5-7.3
				l-0.6,6.6c2-0.7,4.1-1.6,6.2-2.5l2.9-12.2l-0.2,10.9c1.9-1,3.6-2.2,5.2-3.6l3.2-14.2v10.9l0.1-0.1l4.1-4.2
				c0.2-0.2,0.3-0.4,0.3-0.7c0-0.5,0-1.3,0-1.3V360c0-0.1,0-0.3-0.1-0.4l-0.6-0.9c-0.1-0.2-0.3-0.3-0.4-0.4l-2-1l2.1-0.6
				c0,0,0.1,0,0.3-0.1c0.6-0.2,1-0.7,1.1-1.2l1.4-5.8C126.5,349.2,126.2,348.8,125.8,348.8z M111.1,350.6l-0.9,1
				c-0.1,0.1-0.3,0.2-0.5,0.2l-4.6-0.1c-0.3,0-0.5-0.4-0.2-0.6l1.1-1c0.2-0.1,0.4-0.2,0.6-0.2l4.4,0.1
				C111.2,350,111.3,350.4,111.1,350.6z M123.4,354.4c-0.1,0.3-0.3,0.5-0.6,0.6l-3.1,0.1l3.7-4.9h1.2L123.4,354.4z"/>
			<polygon points="121.5,352.1 123.4,352.5 120.7,353.3 			"/>
			<polygon points="120.6,353.5 122.5,353.9 119.8,354.7 			"/>
		</g>
	</g>
	<g>
		<g>
			<g>
				<path d="M377.2,84.6c-0.1-0.7-0.7-1.4-1.3-1.4c-0.6,0-1,0.4-1.2,0.9c0,0.1-0.1,0.2-0.1,0.4c0,0,0,0,0,0.1c0,0,0,0,0,0.1
					c0,0.2,0,0.4,0.1,0.7c1,4.4,7.5,4.7,11.7,1.1C386.4,86.4,378.6,90.1,377.2,84.6z"/>
				<path d="M375.7,116.6c-5.1-3.3-13.3-5.8-13.3-5.8l3.9-3.4l-1.6-2.9l0,0c-0.2,0.3-0.5,0.6-0.8,0.8c0,0,0,0-0.1,0.1l0,0
					c-1.1,0.8-2.7,1.1-4.2,0.8c-0.5-0.1-1-0.3-1.4-0.6c-1.8,0.3-2.1,0.1-3-0.8l-0.5-0.6c0.9,0.5,1.5,0.5,2.5,0.4
					c-0.4-0.7-0.5-1.5-0.1-2.3c0.5-1,1.7-2,3.1-2.5l0.2-0.2l-0.2-0.4c-2.1,0.3-4.3-0.5-4.9-2.4c-0.3-1-0.2-2,0.3-2.8
					c-0.9-0.2-1.5-0.2-2.4,0.3c0-0.1,0.5-0.7,0.5-0.7c0.9-1,1.3-1.1,3-0.7c0.4-0.3,0.8-0.5,1.3-0.6c2-0.4,4.1,0.6,4.9,2.3l0.4-0.1
					c-0.2-1.8,0.6-3.8,2.2-4.8c0.9-0.6,1.8-0.7,2.6-0.4c0.1-1,0-1.5-0.6-2.3c0,0,0.7,0.3,0.8,0.3c1,0.6,1.2,0.9,1.1,2.7
					c0.3,0.3,0.6,0.7,0.7,1.2c0.7,2-0.2,4.5-2,5.6c-0.1,0-0.2,0.1-0.2,0.1c2.6,3,7.7,5.2,10.8,7.3c0,0,0.4,4-1,8.4
					C377.1,114.6,375.7,116.6,375.7,116.6z"/>
				<path d="M435.7,113.4c0,0-8.3,2.5-11.7,13.1c0,0.1,0,0.1-0.1,0.2l-1.5,0.1c0,0,0-0.1,0-0.2c0.5-1.3,0.1-2.7-0.9-3.6
					c-1.5-1.3-3.8-1.2-5.2,0.3c-0.3,0.3-0.6,0.7-0.7,1.1c-1.5,0.5-1.7,0.8-1.9,2v0.8c0.4-0.9,0.9-1.1,1.7-1.4c0,0.9,0.4,1.7,1.1,2.3
					c0.3,0.3,0.7,0.5,1.1,0.6l0.1,0.9h0.1c-0.5,0.5-0.8,1.1-1,1.8c-0.1,0.5-0.1,0.9,0,1.3c-1,1.2-1,1.6-0.5,2.7l0.4,0.7
					c-0.1-1,0.1-1.4,0.6-2.1c0.5,0.7,1.3,1.2,2.3,1.3c2,0.3,3.9-1.1,4.3-3c0-0.2,0.1-0.5,0.1-0.7l1.8-0.2c0,0,0,0.1,0,0.2l0,0
					c0,0.5,0.1,1.1,0.4,1.6c0.9,1.7,3.1,2.5,4.9,1.7c0.9-0.4,1.5-1.1,1.7-1.9c0.7,0.5,1,0.9,1.2,1.8c0,0,0.2-0.7,0.2-0.8
					c0.2-1.2,0.1-1.6-1.2-2.5c0-0.4-0.2-0.9-0.4-1.3c0,0,0,0,0-0.1l0,0c-0.1-0.1-0.2-0.3-0.3-0.4c-0.1-0.1-0.1-0.1-0.2-0.2
					c-0.2-0.3-0.5-0.5-0.9-0.8l-0.1-1.9l5.7-0.1v-6.5l2.7-1.7C439.7,118.6,436.3,117,435.7,113.4z"/>
				<path d="M462.9,128.2l1.9,0.8v-6.7c-5.4-0.2-2.7-11.1-2.7-11.1c-11.9,2.5-8.7-6-8.7-6c4.5-0.6,12.1-4.9,11.6-11.9
					c-1-13-33.7-8.1-43.4-7.5c-9.8,0.6-5.2-2.2,3-2.9c8.2-0.7-3.8-10.4-3.8-10.4s2.9,2.7-9.3,9.3c-12.1,6.6,3.7,7.9,3.7,7.9
					c-3.9,3.6,2.4,6,2.4,6c-2.1-2.9,1.5-5.3,1.5-5.3s27.3-5.5,36.9-1.5c9.6,4,1.1,15-5.8,12.9c-6.9-2.1-21.3-0.6-21.3-0.6
					l-11.7,15.3c13-10.1,20.5-7.7,20.5-7.7c4.9,10.9,8.6,8.6,14.6,10.8c6.1,2.2,4,7.8,4,7.8h-3.5c0.3-0.7,0.3-1.6-0.1-2.4
					c-0.8-1.8-2.9-2.7-4.7-2c-0.4,0.2-0.8,0.4-1.2,0.7c-1.6-0.2-1.9,0-2.6,1l-0.4,0.7c0.8-0.6,1.3-0.7,2.1-0.6
					c-0.3,0.8-0.4,1.7,0,2.6c0.3,0.7,0.9,1.3,1.5,1.7l0.7,0.7c-0.4,0.2-0.8,0.5-1.1,0.9s-0.5,0.8-0.6,1.2c-1.4,0.6-1.6,1-1.7,2.2
					v0.8c0.4-0.9,0.8-1.2,1.5-1.6c0.1,0.8,0.6,1.6,1.3,2.2c1.6,1.1,3.9,0.8,5.1-0.7c0.5-0.6,0.8-1.4,0.8-2.1h1.5
					c0.1,0.4,0.2,0.8,0.4,1.1c1.1,1.7,3.3,2.3,5,1.3c0.8-0.5,1.4-1.2,1.6-2c0.7,0.4,1.1,0.8,1.3,1.7l0.2-0.8
					c0.1-1.2-0.1-1.6-1.4-2.4c-0.1-0.4-0.2-0.9-0.5-1.3c-0.2-0.3-0.5-0.6-0.8-0.9C461.1,128.5,462.9,128.2,462.9,128.2z"/>
				<path d="M406.7,101c0,0-8.5,16.5-42.2,20.2c0.1-0.2,0.1-0.4,0.1-0.7c0.1-2.1-1.4-4.3-3.4-4.9c-0.5-0.1-0.9-0.2-1.4-0.1
					c-1.3-1.2-1.7-1.2-2.8-0.7l-0.7,0.4c1,0,1.5,0.2,2.2,0.8c-0.7,0.5-1.1,1.4-1.2,2.4c-0.1,2,1.1,3.9,2.9,4.7l-0.2,0.3
					c-1.7-0.4-3.6,0.3-4.7,1.8c-0.3,0.4-0.5,0.9-0.6,1.4c-1.4,0.8-1.6,1.2-1.6,2.5c0,0.1,0.1,0.8,0.1,0.9c0.3-1,0.7-1.4,1.5-1.8
					c0.2,0.9,0.7,1.7,1.6,2.2c1.8,1,4.2,0,5.4-1.8l0,0l0.5,0.1v0.3c-0.2,1.5,0.1,3.2,0.8,4.1c0.5,0.7,1.3,1,2.1,1
					c-0.3,0.9-0.6,1.4-1.5,2c0,0,0.7-0.1,0.8-0.1c1.2-0.3,1.5-0.6,2.1-2.3c0.4-0.2,0.8-0.5,1.1-1c0.6-0.7,1-1.5,1.1-2.3l0,0
					c0-0.1,0-0.1,0-0.2c0.1-0.7,0.2-1.4,0-2l3.2,0.5l0.2,5.2c0,0,12-7.3,25.7-5.9c0,0,1.3-1.7,0.3-2.8c-0.9-1.1-2-8.4,1.1-10.1
					c0,0-1.3,9.4,4.9,6.1c6.2-3.3,10.6-5.4,10.6-5.4l10.9-15h-18.9V101z"/>
			</g>
			<g>
				<path class="st0" d="M559.8,117.9h-8l9.5-8.2h6.8L559.8,117.9z M547.6,117.9h-6.7l9.5-8.2h6.7L547.6,117.9z M536.7,117.9h-6.8
					l9.5-8.2h6.8L536.7,117.9z M525.7,117.9h-7.2l9.5-8.2h7.2L525.7,117.9z M514.3,117.9h-7.1l9.5-8.2h7.1L514.3,117.9z
					 M514.3,120.6l9.4,8.2H517l-9.4-8.2C507.6,120.6,514.3,120.6,514.3,120.6z M518.5,120.6h6.8l9.4,8.2h-6.8L518.5,120.6z
					 M529.5,120.6h7.2l9.4,8.2h-7.2L529.5,120.6z M540.9,120.6h7.1l9.4,8.2h-7.1L540.9,120.6z M510.9,109.6h1.6l-9.5,8.2h-3.4
					C500.3,109.2,510.5,109.6,510.9,109.6z M511,128.9c-0.5,0-10.6,0.4-11.3-8.2h3.8l9.4,8.2H511z M568.1,128.9h-6.5l-9.4-8.2h7.6
					L568.1,128.9z"/>
				<polygon class="st0" points="572.6,119.5 480.2,119.5 471.3,116.8 575.2,116.8 				"/>
			</g>
			<g>
				<path class="st0" d="M253.7,109.6h6.8l9.5,8.2h-8L253.7,109.6z M264.8,109.6h6.7l9.5,8.2h-6.7L264.8,109.6z M275.7,109.6h6.8
					l9.5,8.2h-6.8L275.7,109.6z M286.6,109.6h7.2l9.5,8.2h-7.2L286.6,109.6z M298,109.6h7.1l9.5,8.2h-7.1L298,109.6z M314.1,120.6
					l-9.4,8.2H298l9.4-8.2C307.4,120.6,314.1,120.6,314.1,120.6z M293.8,128.9H287l9.4-8.2h6.8L293.8,128.9z M282.9,128.9h-7.2
					l9.4-8.2h7.2L282.9,128.9z M271.4,128.9h-7.1l9.4-8.2h7.1L271.4,128.9z M322.1,117.9h-3.3l-9.5-8.2h1.6
					C311.3,109.6,321.5,109.2,322.1,117.9z M308.9,128.9l9.4-8.2h3.8c-0.7,8.6-10.8,8.3-11.3,8.2H308.9z M262.1,120.6h7.6l-9.4,8.2
					h-6.5L262.1,120.6z"/>
				<polygon class="st0" points="249.2,119.5 341.6,119.5 350.5,116.8 246.6,116.8 				"/>
			</g>
		</g>
		<g>
			<path d="M405.2,73.4l-3.9-0.4c-0.3,0-0.6,0.1-0.8,0.2l0,0c-0.2,0.1-0.3,0.3-0.4,0.5l-0.3,0.6c-0.2,0.4-0.1,0.2-0.4,0.8l-1.7,3.1
				l1.8-5.4l-10.4-0.4c-0.3,0-0.8,0.2-1.1,0.3c-0.2,0.1-0.5,0.3-0.6,0.4l-1.7,1.3l0,0l-5.7,0.5c-0.3,0-0.6,0.1-0.6,0.4l-0.3,2.3h0.3
				l3.3-0.6c0,0-0.2,1-2.8,1.3c-2.5,0.4,0.6,6,0.7,6.4c0.1,0.1,0.2,0.4,0.4,0.5l0.4,0.1c0.3,0.1,0.9-0.2,1.2-0.3
				c1.4-0.6,5.5-2,6.5,1.1c1.2,3.7-3.9,4.8-6.6,4.1c0,0-0.1,0-0.1,0.1l0.1,4.8c0.1,0,0.1,0,0.1,0.1c0.8-0.7,5.1-4.6,9.1-3
				c0,0,0,0,0,0.1c-1,0.5-9.6,5.3-10.2,10s-0.6,12.5-3.1,14.2c-0.1,0,0,0.1,0.1,0.1l4.9-2.3l0.6-0.3c0.1,0,0.2-0.1,0.4-0.1l2.1-6.2
				l-0.5,5.6c1.7-0.6,3.5-1.4,5.2-2.1l2.5-10.3l-0.2,9.2c1.6-0.9,3.1-1.9,4.4-3.1l2.7-12v9.3l0.1-0.1l3.5-3.5
				c0.2-0.2,0.2-0.4,0.2-0.6c0-0.4,0-1.1,0-1.1V82.9c0-0.1,0-0.2-0.1-0.3l-0.5-0.8c-0.1-0.1-0.2-0.3-0.4-0.3l-1.7-0.8l1.8-0.5
				c0,0,0.1,0,0.2-0.1c0.5-0.2,0.9-0.6,1-1.1l1.2-5C405.8,73.7,405.6,73.4,405.2,73.4z M392.7,74.9l-0.8,0.9
				c-0.1,0.1-0.3,0.2-0.4,0.2l-3.9-0.1c-0.3,0-0.4-0.3-0.2-0.5l0.9-0.8c0.1-0.1,0.3-0.2,0.5-0.2l3.7,0.1
				C392.8,74.4,392.9,74.7,392.7,74.9z M403.2,78.1c-0.1,0.3-0.3,0.4-0.5,0.5l-2.6,0.1l3.1-4.2h1.1L403.2,78.1z"/>
			<polygon points="401.6,76.1 403.1,76.5 400.9,77.2 			"/>
			<polygon points="400.8,77.3 402.4,77.7 400.1,78.3 			"/>
		</g>
	</g>
</g>
<g id="Layer_2_00000176042529361602234070000017967164748750971026_">
	<g>
		<g>
			<g>
				<g>
					<g>
						<path class="st0" d="M517.7,409.4h-6.4l7.6-6.3h5.5L517.7,409.4z M507.9,409.4h-5.3l7.6-6.3h5.3L507.9,409.4z M499.2,409.4
							h-5.4l7.6-6.3h5.4L499.2,409.4z M490.5,409.4h-5.8l7.6-6.3h5.8L490.5,409.4z M481.3,409.4h-5.6l7.6-6.3h5.6L481.3,409.4z
							 M481.4,411.5l7.6,6.3h-5.3l-7.6-6.3H481.4z M484.7,411.5h5.4l7.6,6.3h-5.4L484.7,411.5z M493.5,411.5h5.8l7.6,6.3h-5.8
							L493.5,411.5z M502.6,411.5h5.6l7.6,6.3h-5.6L502.6,411.5z M478.6,403.1h1.3l-7.6,6.3h-2.7
							C470.1,402.8,478.3,403.1,478.6,403.1z M478.6,417.8c-0.4,0-8.5,0.3-9-6.3h3l7.6,6.3H478.6z M524.4,417.8h-5.2l-7.6-6.3h6
							L524.4,417.8z"/>
						<polygon class="st0" points="465.6,408.5 465.4,410.7 528,410.7 530,408.5 						"/>
					</g>
					<g>
						<path class="st0" d="M297.4,406.8h5.5l7.6,6.3h-6.4L297.4,406.8z M306.3,406.8h5.3l7.6,6.3h-5.3L306.3,406.8z M315,406.8h5.4
							l7.6,6.3h-5.4L315,406.8z M323.8,406.8h5.8l7.6,6.3h-5.8L323.8,406.8z M332.9,406.8h5.6l7.6,6.3h-5.6L332.9,406.8z
							 M345.8,415.2l-7.6,6.3h-5.3l7.6-6.3H345.8z M329.5,421.5h-5.4l7.6-6.3h5.4L329.5,421.5z M320.8,421.5H315l7.6-6.3h5.8
							L320.8,421.5z M311.6,421.5H306l7.6-6.3h5.6L311.6,421.5z M352.2,413.1h-2.7l-7.6-6.3h1.3
							C343.6,406.8,351.7,406.5,352.2,413.1z M341.6,421.5l7.6-6.3h3c-0.5,6.6-8.6,6.3-9,6.3H341.6z M304.1,415.2h6l-7.6,6.3h-5.2
							L304.1,415.2z"/>
						<polygon class="st0" points="356.9,414.3 356.5,412.3 291.8,412.3 293.8,414.4 356.9,414.4 						"/>
					</g>
				</g>
				<g>
					<g>
						<g>
							<path d="M380.6,377.9c-0.1-0.6-0.7-1.2-1.3-1.2c-0.5,0-1,0.3-1.1,0.8c0,0.1-0.1,0.2-0.1,0.4c0,0,0,0,0,0.1l0,0
								c0,0.2,0,0.4,0.1,0.6c1,4,7.1,4.3,11.2,1C389.3,379.6,381.9,382.9,380.6,377.9z"/>
							<path d="M379.2,407c-4.8-3-12.7-5.3-12.7-5.3l3.8-3.1l-1.5-2.7l0,0c-0.2,0.3-0.5,0.5-0.8,0.8c0,0,0,0-0.1,0.1l0,0
								c-1.1,0.7-2.6,1-4,0.7c-0.5-0.1-1-0.3-1.4-0.5c-1.7,0.2-2,0.1-2.8-0.7c0,0-0.4-0.5-0.4-0.6c0.9,0.4,1.4,0.5,2.3,0.4
								c-0.4-0.6-0.4-1.4-0.1-2.1c0.5-0.9,1.6-1.8,3-2.3l0.1-0.1l-0.2-0.4c-2,0.3-4.1-0.4-4.7-2.2c-0.3-0.9-0.2-1.8,0.3-2.5
								c-0.9-0.2-1.4-0.2-2.3,0.3c0,0,0.4-0.6,0.5-0.7c0.9-0.9,1.2-1,2.9-0.7c0.4-0.2,0.8-0.4,1.3-0.5c1.9-0.4,3.9,0.5,4.7,2.1
								l0.4-0.1c-0.2-1.6,0.6-3.4,2.1-4.3c0.8-0.5,1.7-0.6,2.5-0.4c0.1-0.9,0-1.4-0.6-2.1c0,0,0.7,0.2,0.7,0.3c1,0.5,1.2,0.8,1,2.5
								c0.3,0.3,0.5,0.6,0.7,1.1c0.7,1.8-0.2,4.1-1.9,5.1c-0.1,0-0.1,0.1-0.2,0.1c2.5,2.8,7.3,4.8,10.3,6.6c0,0,0.3,3.6-1,7.7
								C380.5,405.2,379.2,407,379.2,407z"/>
							<path d="M436.3,404.1c0,0-8,2.2-11.2,11.9c0,0.1,0,0.1-0.1,0.2h-1.4v-0.1c0.4-1.1,0.1-2.5-0.9-3.3c-1.4-1.2-3.6-1-4.9,0.2
								c-0.3,0.3-0.5,0.7-0.7,1c-1.4,0.5-1.6,0.8-1.8,1.8v0.7c0.4-0.8,0.8-1,1.6-1.3c0,0.8,0.4,1.5,1.1,2.1c0.3,0.3,0.7,0.4,1.1,0.6
								l0.1,0.8h0.1c-0.5,0.5-0.8,1-0.9,1.7c-0.1,0.4-0.1,0.8,0,1.2c-0.9,1.1-0.9,1.5-0.5,2.4l0.4,0.6c-0.1-0.9,0.1-1.3,0.6-1.9
								c0.5,0.6,1.2,1.1,2.2,1.2c1.9,0.2,3.7-1,4.1-2.7c0-0.2,0.1-0.4,0.1-0.6l1.7-0.2c0,0,0,0.1,0,0.2l0,0c0,0.5,0.1,1,0.4,1.5
								c0.9,1.6,3,2.3,4.7,1.5c0.8-0.4,1.4-1,1.7-1.7c0.7,0.5,1,0.8,1.1,1.7l0.2-0.7c0.2-1.1,0.1-1.4-1.2-2.2c0-0.4-0.2-0.8-0.4-1.2
								c0,0,0,0,0-0.1l0,0c-0.1-0.1-0.2-0.3-0.3-0.4c-0.1-0.1-0.1-0.1-0.2-0.2c-0.2-0.2-0.5-0.5-0.8-0.7v-1.8h5.4v-5.9l2.6-1.5
								C440.1,408.8,436.8,407.4,436.3,404.1z"/>
							<path d="M462.2,417.6l1.8,0.7v-6.1c-5.1-0.2-2.6-10-2.6-10c-11.4,2.3-8.2-5.5-8.2-5.5c4.3-0.5,11.5-4.5,11-10.8
								c-0.9-11.8-32.1-7.4-41.4-6.9s-4.9-2,2.8-2.6c7.8-0.6-3.6-9.4-3.6-9.4s2.7,2.4-8.8,8.4c-11.6,6,3.5,7.1,3.5,7.1
								c-3.7,3.3,2.3,5.4,2.3,5.4c-2-2.6,1.4-4.8,1.4-4.8s26-5,35.1-1.4c9.1,3.6,1,13.6-5.5,11.7s-20.3-0.5-20.3-0.5L418.6,407
								c12.4-9.1,19.5-7,19.5-7c4.6,9.9,8.2,7.8,13.9,9.8c5.8,2,3.8,7.1,3.8,7.1h-3.3c0.3-0.7,0.3-1.4-0.1-2.2
								c-0.7-1.6-2.8-2.5-4.5-1.9c-0.4,0.1-0.8,0.4-1.1,0.6c-1.5-0.2-1.8,0-2.5,0.9c0,0-0.4,0.6-0.4,0.7c0.7-0.5,1.2-0.6,2-0.5
								c-0.3,0.7-0.3,1.5,0,2.3c0.3,0.7,0.8,1.2,1.4,1.5l0.6,0.7c-0.4,0.2-0.7,0.5-1,0.8s-0.5,0.7-0.6,1.1c-1.4,0.6-1.6,0.9-1.6,2
								v0.7c0.3-0.8,0.7-1.1,1.5-1.4c0.1,0.8,0.5,1.5,1.3,2c1.5,1,3.7,0.8,4.9-0.6c0.5-0.6,0.7-1.2,0.7-1.9h1.4
								c0.1,0.3,0.2,0.7,0.4,1c1,1.5,3.1,2,4.8,1.2c0.8-0.4,1.3-1.1,1.5-1.8c0.7,0.4,1,0.7,1.3,1.6l0.1-0.7c0.1-1.1-0.1-1.4-1.3-2.2
								c-0.1-0.4-0.2-0.8-0.5-1.1c-0.2-0.3-0.5-0.6-0.8-0.8C460.5,417.9,462.2,417.6,462.2,417.6z"/>
							<path d="M408.6,392.8c0,0-8.1,15-40.2,18.3c0-0.2,0.1-0.4,0.1-0.6c0.1-1.9-1.3-3.9-3.2-4.5c-0.5-0.1-0.9-0.1-1.3-0.1
								c-1.3-1.1-1.6-1.1-2.7-0.7l-0.6,0.4c0.9,0,1.4,0.2,2.1,0.8c-0.6,0.5-1.1,1.2-1.1,2.2c-0.1,1.8,1.1,3.6,2.7,4.3l-0.2,0.3
								c-1.6-0.4-3.4,0.2-4.4,1.6c-0.3,0.4-0.5,0.8-0.6,1.3c-1.4,0.8-1.5,1.1-1.5,2.3l0.1,0.8c0.3-0.9,0.7-1.2,1.4-1.7
								c0.2,0.8,0.7,1.6,1.5,2c1.7,0.9,4,0,5.2-1.7l0,0l0.5,0.1v0.3c-0.2,1.4,0.1,2.9,0.7,3.7c0.5,0.7,1.2,1,2,0.9
								c-0.3,0.8-0.6,1.3-1.4,1.8l0.7-0.1c1.1-0.3,1.4-0.6,2-2.1c0.4-0.2,0.7-0.5,1.1-0.9c0.5-0.6,0.9-1.3,1.1-2.1l0,0
								c0,0,0-0.1,0-0.2c0.1-0.6,0.1-1.2,0-1.8l3.1,0.5l0.2,4.7c0,0,11.5-6.6,24.5-5.3c0,0,1.2-1.5,0.3-2.5c-0.9-1-1.9-7.6,1.1-9.2
								c0,0-1.3,8.5,4.6,5.5s10.1-4.9,10.1-4.9l10.4-13.6h-18.3V392.8z"/>
						</g>
					</g>
					<g>
						<path d="M407.2,367.7l-3.8-0.3c-0.3,0-0.5,0.1-0.8,0.2l0,0c-0.2,0.1-0.3,0.3-0.4,0.5l-0.3,0.6c-0.2,0.3-0.1,0.2-0.4,0.8
							l-1.6,2.8l1.7-4.9l-9.9-0.4c-0.3,0-0.8,0.2-1.1,0.3c-0.2,0.1-0.4,0.2-0.6,0.3l-1.6,1.2l0,0l-5.4,0.4c-0.3,0-0.6,0.1-0.6,0.4
							l-0.3,2.1c0,0,0.2,0,0.3,0l3.1-0.6c0,0-0.2,0.9-2.7,1.2c-2.4,0.3,0.6,5.5,0.7,5.8c0.1,0.1,0.2,0.4,0.4,0.5l0.3,0.1
							c0.3,0.1,0.9-0.2,1.1-0.3c1.3-0.5,5.3-1.8,6.2,1c1.1,3.3-3.7,4.3-6.3,3.7c0,0-0.1,0-0.1,0.1l0.1,4.4c0.1,0,0.1,0,0.1,0
							c0.7-0.7,4.9-4.2,8.7-2.7c0,0,0,0,0,0.1c-0.9,0.5-9.2,4.8-9.7,9c-0.6,4.3-0.6,11.4-2.9,12.9c-0.1,0,0,0.1,0.1,0.1l4.7-2.1
							l0.6-0.3c0.1,0,0.2-0.1,0.3-0.1l2-5.6l-0.5,5.1c1.6-0.6,3.3-1.3,5-1.9l2.4-9.4l-0.2,8.4c1.5-0.8,2.9-1.7,4.2-2.8l2.6-10.9v8.4
							l0.1-0.1l3.4-3.2c0.1-0.1,0.2-0.3,0.2-0.6c0-0.4,0-1,0-1v-14.5c0-0.1,0-0.2-0.1-0.3l-0.5-0.7c-0.1-0.1-0.2-0.2-0.3-0.3
							l-1.6-0.7l1.7-0.5c0,0,0.1,0,0.2-0.1c0.5-0.1,0.8-0.5,0.9-1l1.1-4.5C407.8,368,407.6,367.7,407.2,367.7z M395.4,369.1
							l-0.8,0.8c-0.1,0.1-0.3,0.2-0.4,0.2l-3.7-0.1c-0.3,0-0.4-0.3-0.2-0.4l0.9-0.8c0.1-0.1,0.3-0.1,0.5-0.1l3.5,0.1
							C395.4,368.6,395.5,368.9,395.4,369.1z M405.3,372.1c-0.1,0.2-0.3,0.4-0.5,0.5l-2.5,0.1l3-3.8h1L405.3,372.1z"/>
						<polygon points="403.8,370.2 405.3,370.6 403.1,371.2 						"/>
						<polygon points="403.1,371.3 404.6,371.7 402.4,372.2 						"/>
					</g>
				</g>
				<g>
					<g>
						<path d="M340.1,376.3c0.1-0.4,0.3-0.6,0.6-0.8c0.3-0.2,0.6-0.2,1-0.2l5.2,1.4c0.4,0.1,0.6,0.3,0.8,0.6c0.2,0.3,0.2,0.7,0.1,1
							l-1.5,5l4,1.1l-0.8,2.7l-11.8-3.1L340.1,376.3z M342.2,378.3l-1.1,3.7l2.7,0.7l1.1-3.7L342.2,378.3z"/>
						<path d="M338.4,383.8l11,2.9l0.6-1.9l-4-1.1l1.6-5.4c0.1-0.3,0.1-0.5-0.1-0.8c-0.1-0.2-0.3-0.4-0.5-0.4l-5.2-1.4
							c-0.2-0.1-0.4,0-0.7,0.1c-0.2,0.1-0.4,0.3-0.5,0.6l0,0L338.4,383.8z M344.2,383.2l-3.5-0.9l1.3-4.4l3.5,0.9L344.2,383.2z"/>
					</g>
					<g>
						<path d="M347.5,366.3l2,1l1.7-2.9l2.2,1.2l-1.7,2.9l1.9,1l3.1-5.3l2.2,1.2l-4.5,7.7l-10.7-5.7l4.5-7.7l2.3,1.2L347.5,366.3z"
							/>
						<path d="M344.4,367.3l10,5.3l4.1-7l-1.6-0.8l-3.1,5.3l-2.6-1.4l1.7-2.9l-1.6-0.8l-1.7,2.9l-2.7-1.4l3.1-5.3l-1.6-0.9
							L344.4,367.3z"/>
					</g>
					<g>
						<path d="M360.5,349.3l-1.9,2l7.2,6.2l-1.9,2l-7.2-6.2l-1.9,2l-1.9-1.6l5.7-6.1L360.5,349.3z"/>
						<path d="M356.7,352.8l7.2,6.2l1.4-1.5l-7.2-6.2l1.9-2l-1.3-1.1l-5.2,5.5l1.3,1.1L356.7,352.8z"/>
					</g>
					<g>
						<path d="M368.6,342.9l1.3,1.7l2.9-1.9l1.5,2l-2.9,1.9l1.3,1.7l5.2-3.5l1.5,2l-7.5,5.1l-7.1-9.5l7.5-5.1l1.5,2L368.6,342.9z"/>
						<path d="M365.3,342.5l6.6,8.9l6.8-4.6l-1-1.4l-5.2,3.5l-1.7-2.3l2.9-1.9l-1-1.4l-2.9,1.9l-1.8-2.4l5.2-3.5l-1.1-1.4
							L365.3,342.5z"/>
					</g>
					<g>
						<path d="M391.4,341.7l-4.1-2.7l-1.9,0.7l1.5,3.7l-2.7,1l-4.5-10.9l7.7-2.9c0.4-0.1,0.7-0.2,1.1,0c0.4,0.1,0.6,0.3,0.7,0.7
							l2,4.8c0.1,0.3,0.1,0.7,0,1c-0.2,0.3-0.4,0.6-0.8,0.7l4.1,2.7L391.4,341.7z M384.4,337.3l3.7-1.4l-1-2.5l-3.7,1.4L384.4,337.3
							z"/>
						<path d="M380.2,333.7l4.2,10.1l1.9-0.7l-1.5-3.7l2.5-0.9l4.1,2.7l2.2-0.8l-4.1-2.7l0.7-0.3c0.3-0.1,0.5-0.3,0.6-0.5
							s0.1-0.4,0-0.7l-2-4.8c-0.1-0.2-0.2-0.4-0.5-0.4c-0.3-0.1-0.5-0.1-0.8,0L380.2,333.7z M384.1,337.8l-1.3-3.2l4.5-1.7l1.3,3.2
							L384.1,337.8z"/>
					</g>
					<g>
						<path d="M423.3,327.3l-0.8,11.7l-2.9-0.2l0.6-9.1l-3.1,4.7l-1.8-0.1l-2.4-5l-0.6,9.1l-2.9-0.2l0.8-11.7l4.4,0.3l1.9,3.1
							l2.3-2.9L423.3,327.3z"/>
						<path d="M420.1,338.4l2.1,0.1l0.7-10.9l-3.8-0.2l-2.5,3.2l-2.1-3.5l-3.8-0.2l-0.7,10.9l2.1,0.1l0.6-10.3l3,6.2l1.4,0.1
							l3.8-5.8L420.1,338.4z"/>
					</g>
					<g>
						<path d="M435.9,342.8l-6.6-2.2c-0.4-0.1-0.7-0.3-0.9-0.6c-0.2-0.3-0.2-0.6-0.1-1l3.6-9.9l2.8,0.9l-3.1,8.7l3.9,1.3l3.1-8.7
							l2.8,0.9l-3.6,9.9c-0.1,0.3-0.4,0.6-0.7,0.7C436.7,343,436.3,343,435.9,342.8z"/>
						<path d="M436.1,342.5c0.3,0.1,0.6,0.1,0.8,0c0.2-0.1,0.4-0.2,0.5-0.5l3.4-9.5l-2-0.7l-3.1,8.7l-4.6-1.5l3.1-8.7l-2-0.7
							l-3.4,9.5c-0.1,0.2-0.1,0.4,0.1,0.6c0.1,0.2,0.3,0.4,0.6,0.5L436.1,342.5z"/>
					</g>
					<g>
						<path d="M449.2,349.9v-4.8l-1.7-1.1l-2.3,3.3l-2.4-1.5l6.7-9.8l7,4.4c0.3,0.2,0.6,0.5,0.7,0.8c0.1,0.3,0,0.7-0.1,0.9l-3,4.3
							c-0.2,0.3-0.5,0.5-0.9,0.5s-0.7,0-1.1-0.2v4.8L449.2,349.9z M448.8,341.9l3.3,2.1l1.6-2.3l-3.3-2.1L448.8,341.9z"/>
						<path d="M449.6,349.7l2,1.3v-4.8l0.6,0.4c0.3,0.2,0.5,0.2,0.8,0.2s0.4-0.2,0.6-0.4l3-4.3c0.1-0.2,0.2-0.4,0.1-0.6
							c-0.1-0.3-0.2-0.5-0.5-0.6l-6.6-4.1l-6.3,9.1l1.7,1.1l2.3-3.3l2.2,1.4L449.6,349.7z M452.3,344.5l-4-2.5l2-2.9l4,2.5
							L452.3,344.5z"/>
					</g>
					<g>
						<path d="M470,352.6c0.3,0.3,0.4,0.6,0.4,1s-0.1,0.7-0.4,0.9l-4,3.5c-0.3,0.2-0.6,0.3-1,0.3s-0.7-0.2-1-0.5l-3.7-3.8l-3.1,2.7
							l-2-2l9-7.9L470,352.6z M467.1,353.2l-2.7-2.8l-2.1,1.8l2.7,2.8L467.1,353.2z"/>
						<path d="M460.4,353.4l4,4.1c0.2,0.2,0.4,0.3,0.7,0.3s0.5,0,0.7-0.2l4-3.5c0.2-0.2,0.3-0.3,0.3-0.6c0-0.3-0.1-0.5-0.3-0.7
							l-5.4-5.6l-8.4,7.4l1.4,1.5L460.4,353.4z M465,355.6l-3.3-3.4l2.7-2.3l3.3,3.4L465,355.6z"/>
					</g>
					<g>
						<path d="M480.4,367.9l-10.7,5.7l-1.4-2.4l3.6-1.9L470,366l-3.6,1.9l-1.4-2.4l10.7-5.7l1.4,2.4l-4.8,2.6l1.9,3.3l4.8-2.6
							L480.4,367.9z"/>
						<path d="M468.9,371.4l1,1.7l10-5.3l-1-1.7l-4.8,2.6l-2.3-4l4.8-2.6l-1-1.7l-10,5.3l1,1.7l3.6-1.9l2.3,4L468.9,371.4z"/>
					</g>
					<g>
						<path d="M479.1,383.5l-5.4,1.4l-0.7-2.7l5.4-1.4l5.2-5.9l1,3.6l-2.4,2.7l3.4,1.2l1,3.6L479.1,383.5z"/>
						<path d="M479.1,383.1l7,2.4l-0.8-2.7l-3.8-1.3l2.6-2.9l-0.8-2.7l-4.8,5.4l-5.1,1.3l0.5,1.9L479.1,383.1z"/>
					</g>
				</g>
				<polygon class="st0" points="297,427.5 348.7,427.5 353.2,426.2 295.7,426.2 				"/>
				<polygon class="st0" points="525,399.6 473.2,399.6 468.7,398.3 526.2,398.3 				"/>
			</g>
		</g>
		<g>
			<path class="st0" d="M322,396.6c0.3,0.1,0.4,0.3,0.4,0.6c0,0.3-0.2,0.4-0.5,0.4c-1.2,0-2.4,0-3.6,0c-0.3,0-0.4,0.2-0.4,0.5
				s0.1,0.4,0.4,0.4c1,0,2,0.1,3,0.1c0.3,0,0.4,0.1,0.4,0.4c0,0.5-0.1,0.5-0.4,0.5c-0.9,0-1.9,0-2.8,0c-0.4,0-0.6,0.1-0.6,0.5
				s0.2,0.6,0.7,0.5c0.7-0.1,1.5-0.1,2.2,0c0.1,0,0.1,0,0.2,0c0.4-0.2,0.8-0.1,1.2,0c0.3,0.1,0.3,0.2,0.3,0.5s-0.1,0.4-0.4,0.4
				c-0.8,0-1.6,0-2.3,0c-0.8,0-1.6,0-2.4,0c-0.3,0-0.4-0.1-0.5-0.4c-0.1-0.5-0.1-0.9,0-1.3s-0.1-0.8-0.1-1.2c0-0.4,0.1-0.8,0-1.2
				c-0.1-0.3,0.1-0.5,0.5-0.5c0.7,0,1.3,0.1,2-0.1L322,396.6L322,396.6z"/>
			<path class="st0" d="M326.6,401.3c-0.9,0-1.6,0-2.2-0.2c-0.3-0.1-0.7-0.3-0.9-0.5c-0.2-0.2-0.3-0.4-0.1-0.7
				c0.2-0.2,0.5-0.3,0.8-0.2c0.2,0.1,0.4,0.3,0.6,0.4c0.8,0.2,1.7,0.2,2.5,0.1c0.2,0,0.3,0,0.5-0.1c0.1,0,0.3-0.1,0.3-0.2
				c0-0.2-0.1-0.2-0.3-0.3c-0.4-0.1-0.7-0.2-1.1-0.2c-0.7,0-1.4-0.1-2.1-0.3c-0.4-0.1-0.9-0.3-1.1-0.7c-0.2-0.6,0-1.1,0.6-1.4
				c0.7-0.3,1.4-0.4,2.1-0.4c0.4,0,0.7,0,1.1,0s0.7,0.2,1.1,0.3c0.3,0.1,0.5,0.3,0.7,0.6c0.1,0.1,0,0.2-0.1,0.3
				c-0.2,0.2-0.3,0.3-0.6,0.2c-0.1,0-0.3-0.1-0.4-0.2c-0.8-0.5-1.7-0.5-2.6-0.4c-0.2,0-0.6,0-0.6,0.4c0,0.3,0.4,0.4,0.6,0.4
				c0.6,0.1,1.2,0.2,1.9,0.2c0.5,0,1,0.2,1.5,0.4c0.5,0.3,0.6,0.7,0.6,1.2c-0.1,0.5-0.5,0.7-0.9,0.8
				C327.9,401.2,327.2,401.5,326.6,401.3z"/>
			<path class="st0" d="M333.8,399.1c0,0.6,0,1.1,0,1.7c0,0.4-0.2,0.6-0.6,0.5c-0.2,0-0.3-0.1-0.3-0.3c0-0.1-0.1-0.2-0.1-0.3
				c0-0.7,0-1.4,0-2.2c0-0.3,0-0.5,0-0.8c0-0.2-0.2-0.4-0.4-0.3c-0.5,0.1-1.1-0.1-1.6,0c-0.2,0-0.4,0-0.4-0.3s0.1-0.6,0.3-0.6
				c0.9,0.1,1.9,0,2.8,0c0.8,0,1.7,0.1,2.4,0c0.2,0,0.4,0,0.4,0.3c0,0.2,0,0.5-0.3,0.6c-0.1,0-0.2,0.1-0.4,0.1h-1.2
				c-0.4,0-0.6,0.1-0.6,0.5C333.8,398.4,333.8,398.8,333.8,399.1L333.8,399.1z"/>
			<path class="st0" d="M337.6,401.4c-0.3,0-0.5-0.2-0.4-0.6c0-0.3,0.2-0.3,0.5-0.3s0.5,0.2,0.5,0.4
				C338.3,401.1,337.9,401.4,337.6,401.4z"/>
		</g>
		<g>
			<path d="M400.3,440.3c0.6,0.1,1.1,0.2,1.6,0.2s0.6,0.1,0.6,0.6s-0.1,0.6-0.6,0.6H396c-0.4,0-0.6-0.1-0.6-0.5c0-0.6,0-0.6,0.5-0.7
				c1.6-0.4,3.1-0.8,4.3-1.9c0.4-0.3,0.7-0.8,0.7-1.3c0-0.3-0.2-0.5-0.5-0.6c-1.1-0.4-2.1-0.2-3.1,0.3c-0.3,0.2-0.6,0.5-1.1,0.3
				c-0.3-0.1-0.5-0.3-0.6-0.5c-0.1-0.3,0.1-0.5,0.3-0.7c1.7-1.2,3.5-1.1,5.3-0.4c0.4,0.2,0.7,0.5,0.8,0.9c0.3,1.2-0.1,2.4-1.2,3.1
				C400.7,439.8,400.5,440,400.3,440.3z"/>
			<path d="M407.7,441.7c-0.6,0-1.2,0-1.8-0.2c-1.3-0.3-2.3-1.6-2.1-2.9c0.1-0.4,0.1-0.8,0.1-1.2c0-0.9,1.3-1.8,2-2
				c1-0.3,2-0.3,3-0.2c1.1,0.2,2.1,0.5,2.5,1.6c0.5,1.2,0.4,2.6-0.3,3.7c-0.5,0.8-1.5,1-2.4,1.1
				C408.4,441.7,408.1,441.7,407.7,441.7z M408,436.5c-0.5,0-0.8,0-1.2,0.1c-1,0.2-1.5,0.8-1.6,1.8c0,1.1,0.3,1.6,1.4,1.9
				c0.4,0.1,0.8,0.2,1.3,0.2c1-0.1,1.9-0.4,2.3-1.5c0.3-0.7-0.2-1.9-0.8-2.1C408.9,436.6,408.4,436.4,408,436.5z"/>
			<path d="M413.6,436.2c0.5-0.5,1-0.9,1.7-0.8c0.4,0,0.6,0.2,0.6,0.6c0,1.8,0,3.5,0,5.3c0,0.4-0.3,0.6-0.8,0.6
				c-0.4,0-0.6-0.2-0.6-0.6c0-0.7,0-1.3,0-2c0-0.6-0.1-1.2,0-1.8c0-0.2-0.1-0.4-0.4-0.4c-0.4,0-0.6-0.2-0.6-0.6L413.6,436.2
				L413.6,436.2z"/>
			<path d="M421.3,441.7c-0.8,0.1-1.5,0-2.3-0.3c-0.4-0.2-0.7-0.5-1-0.8c-0.2-0.2-0.2-0.5,0-0.7c0.3-0.2,0.5-0.5,0.9-0.3
				s0.7,0.4,1,0.6c0.8,0.5,2.3,0.3,3.1-0.1c0.2-0.1,0.3-0.2,0.3-0.4c-0.1-0.2-0.2-0.4-0.4-0.5c-0.5-0.2-0.9-0.1-1.4-0.1
				c-0.4-0.1-0.6-0.3-0.6-0.6c0-0.6,0.1-0.7,0.6-0.7c0.4,0,0.8-0.1,1.2-0.2c0.3-0.1,0.3-0.2,0.2-0.5c-0.1-0.3-0.3-0.5-0.6-0.6
				c-1.1-0.3-2.1-0.1-3,0.6c-0.5,0.4-1.1,0.3-1.4-0.3c-0.1-0.2-0.1-0.4,0.2-0.6c0.7-0.6,1.4-0.9,2.4-1c1.2-0.2,2.2,0,3.2,0.5
				c0.6,0.3,1.1,1.2,0.8,1.8c-0.1,0.2-0.1,0.3-0.2,0.4c-0.2,0.3-0.1,0.5,0.1,0.7c0.4,0.5,0.5,1,0.4,1.6c-0.1,0.5-0.9,1.2-1.5,1.3
				C422.6,441.6,422,441.8,421.3,441.7z"/>
		</g>
		<g>
			<path class="st0" d="M481.3,422.8c0.7,0,1.1,0.4,1.5,0.8c0.2,0.3,0.5,0.5,0.7,0.8c0.2,0.2,0.5,0.2,0.8,0c0.5-0.4,0.9-0.9,1.4-1.3
				c0.3-0.2,0.9-0.4,1.2-0.2c0.2,0.1,0.2,0.1,0.1,0.3c-0.1,0.2-0.3,0.4-0.5,0.5c-0.5,0.3-0.8,0.8-1.2,1.2c-0.2,0.2-0.4,0.3-0.6,0.5
				c-0.2,0.2-0.3,0.4-0.3,0.7c0,0.4-0.1,0.8-0.1,1.1c0,0.3-0.2,0.4-0.6,0.4c-0.2,0-0.4-0.3-0.4-0.5c0-0.6,0.1-1.3-0.4-1.8
				c-0.3-0.3-0.7-0.6-1-0.9c-0.4-0.3-0.8-0.7-1.2-1.1c-0.2-0.2-0.1-0.4,0.1-0.5C481.1,422.8,481.2,422.8,481.3,422.8z"/>
			<path class="st0" d="M493.5,427.5c-0.5,0.1-0.8-0.2-1.2-0.5c-0.4-0.4-0.8-0.8-1.3-1.1c-0.2-0.1-0.3-0.1-0.5,0
				c-0.5,0.4-0.9,0.7-1.3,1.2c-0.3,0.3-0.7,0.5-1.1,0.4c-0.1,0-0.1,0-0.2,0c-0.1,0-0.3,0.1-0.3-0.1c-0.1-0.2,0-0.3,0.1-0.4
				c0.2-0.2,0.4-0.3,0.7-0.5c0.5-0.4,0.8-0.8,1.3-1.1c0.2-0.1,0.2-0.3,0.1-0.5c-0.3-0.2-0.5-0.5-0.8-0.7c-0.5-0.3-0.8-0.7-1.3-1.1
				c-0.1-0.1-0.2-0.2-0.1-0.3c0.1-0.1,0.2-0.2,0.3-0.2c0.6,0,1.1,0.1,1.5,0.5s0.8,0.7,1.2,1c0.2,0.2,0.7,0,0.9-0.2
				c0.4-0.4,0.8-0.8,1.2-1.1c0.4-0.3,0.8-0.2,1.2-0.1c0.2,0,0.2,0.2,0.1,0.3c-0.2,0.2-0.3,0.4-0.6,0.6s-0.6,0.5-0.9,0.7
				c-0.2,0.2-0.3,0.3-0.5,0.4c-0.3,0.2-0.3,0.3,0,0.6c0.5,0.5,1.1,0.8,1.6,1.2c0.2,0.2,0.4,0.3,0.5,0.5c0.1,0.1,0.1,0.1,0.1,0.3
				c0,0.1-0.2,0.1-0.3,0.1h-0.4V427.5z"/>
			<path class="st0" d="M500.2,422.8c0.3,0.1,0.4,0.3,0.4,0.6c0,0.3-0.2,0.4-0.5,0.4c-1.2,0-2.4,0-3.6,0c-0.3,0-0.4,0.2-0.4,0.5
				s0.1,0.4,0.4,0.4c1,0,2,0.1,3,0.1c0.3,0,0.4,0.1,0.4,0.4c0,0.5-0.1,0.5-0.4,0.5c-0.9,0-1.9,0-2.8,0c-0.4,0-0.6,0.1-0.6,0.5
				s0.2,0.6,0.7,0.5c0.7-0.1,1.5-0.1,2.2,0c0.1,0,0.1,0,0.2,0c0.4-0.2,0.8-0.1,1.2,0c0.3,0.1,0.3,0.2,0.3,0.5s-0.1,0.4-0.4,0.4
				c-0.8,0-1.6,0-2.3,0c-0.8,0-1.6,0-2.4,0c-0.3,0-0.4-0.1-0.5-0.4c-0.1-0.5-0.1-0.9,0-1.3s-0.1-0.8-0.1-1.2c0-0.4,0.1-0.8,0-1.2
				c-0.1-0.3,0.1-0.5,0.5-0.5c0.7,0,1.3,0.1,2-0.1L500.2,422.8L500.2,422.8z"/>
		</g>
		<g>
			<path d="M361.8,446.9c0.1,0.4,0.5,0.7,0.8,1c0.6,0.7,0.8,1.5,0.8,2.4c0,0.4-0.4,0.7-0.9,0.6s-0.8-0.4-0.9-0.8
				c-0.5-2.2-2.2-3.3-4-4.2c-0.5-0.3-1.1-0.2-1.6,0.1c-1.7,1.1-1.8,2.5-0.4,4c0.5,0.5,1.1,1,1.6,1.5c0.5,0.4,1.1,0.7,1.7,0.8
				c0.4,0.1,0.7,0.1,1.1,0.3c0.5,0.3,0.7,0.7,0.6,1.2s-0.5,0.5-0.9,0.5c-1.9,0.1-3.7-1.7-5-2.8c-1.5-1.3-2.6-3.7-1.1-5.4
				c0.3-0.3,0.6-0.6,0.8-0.9c0.7-1,1.8-1.2,3-1.2c0.5,0,0.9,0.2,1.3,0.5c0.5,0.3,1,0.5,1.5,0.9L361.8,446.9z"/>
			<path d="M376.5,459.5c-0.1,0.2-0.2,0.5-0.4,0.7c-0.3,0.4-0.7,0.6-1.3,0.5c-0.9-0.2-1.8-0.3-2.5-0.8c-0.1-0.1-0.2,0-0.3,0
				c-0.1,0.1-0.1,0.2,0,0.4c0.2,0.8,0.8,1.3,1.3,1.9c0.5,0.5,1.1,0.9,1.7,1.3c0.4,0.3,0.5,0.6,0.2,1c-0.2,0.4-0.6,0.5-1,0.2
				c-1.7-0.9-3.1-2.2-3.9-3.9c-0.2-0.5-0.3-1-0.3-1.5c0-0.6-0.3-0.9-0.8-1.1s-0.8,0-1.1,0.5c-0.3,0.5-0.6,0.9-0.8,1.4
				c-0.1,0.4-0.4,0.4-0.7,0.4c-0.6-0.1-1.1-0.8-0.8-1.2c0.6-0.9,0.9-1.9,1.5-2.7c0.3-0.4,0.5-1,0.7-1.4c0.4-0.6,0.7-1.3,1.1-1.9
				c0.2-0.3,0.6-0.3,0.9-0.1c0.5,0.3,1,0.7,1.6,0.9c1.3,0.6,2.5,1.4,3.7,2C376.9,456.6,377.3,458.1,376.5,459.5z M372.6,456.3
				c-0.6-0.3-1.2-0.7-1.9-1c-0.5-0.2-0.8-0.1-1,0.4c-0.2,0.4-0.2,0.7,0.3,1s1,0.5,1.5,0.9c0.8,0.5,1.7,0.9,2.6,1.3
				c0.3,0.1,0.7,0.1,0.9-0.2c0.2-0.3,0.2-0.6-0.1-0.9c-0.1-0.2-0.3-0.3-0.5-0.4L372.6,456.3z"/>
			<path d="M392.9,462.5c0.4,0.3,0.5,0.7,0.3,1.1c-0.2,0.5-0.5,0.6-1.1,0.4c-1.9-0.6-3.9-1.2-5.9-1.7c-0.5-0.2-0.8,0-1,0.6
				c-0.1,0.5-0.1,0.7,0.5,0.9c1.6,0.5,3.2,1.1,4.9,1.5c0.5,0.1,0.6,0.4,0.5,0.8c-0.2,0.7-0.4,0.9-0.9,0.7c-1.5-0.4-3.1-0.9-4.6-1.3
				c-0.7-0.2-1-0.1-1.2,0.5s0.1,1.1,0.9,1.2c1.2,0.2,2.4,0.6,3.6,1c0.1,0,0.2,0.1,0.3,0.1c0.7-0.1,1.3,0.2,1.9,0.6
				c0.5,0.2,0.4,0.5,0.3,0.9s-0.4,0.6-0.8,0.5c-1.3-0.3-2.6-0.7-3.8-1.1c-1.3-0.4-2.6-0.8-3.9-1.1c-0.5-0.1-0.6-0.4-0.6-0.9
				c0.1-0.8,0.3-1.5,0.6-2.2c0.3-0.6,0.2-1.4,0.5-2.1c0.3-0.6,0.6-1.3,0.6-2c0.1-0.6,0.4-0.7,1-0.6c1.1,0.3,2.2,0.8,3.3,0.8
				L392.9,462.5z"/>
			<path d="M409.9,472.6c-0.6,0-1-0.3-1.3-0.9c-0.4-0.7-1-1.2-1.9-1.2c-1.2-0.1-2.4-0.1-3.7-0.3c-0.7-0.1-1.2,0.2-1.6,0.7
				c-0.5,0.7-1.1,1.1-2.1,0.9c-0.6-0.1-0.8-0.4-0.4-0.9c0.8-1,1.7-1.8,2.5-2.8c0.8-1.1,1.8-2.1,2.7-3.1c0.1-0.1,0.3-0.3,0.4-0.4
				c0.7-0.6,1.5-0.5,2,0.3c0.3,0.4,0.4,0.8,0.7,1.2c0.4,0.7,0.9,1.4,1.4,2.1c0.9,1.1,1.4,2.4,2.2,3.5
				C411.2,472.4,410.8,472.7,409.9,472.6z M404.9,468.8c0.3,0,0.6,0.1,0.9,0c0.6,0,0.8-0.3,0.4-0.8c-0.3-0.4-0.5-0.7-0.7-1.1
				s-0.4-0.4-0.7-0.1c-0.3,0.5-0.7,0.9-1.1,1.3c-0.3,0.3-0.2,0.5,0.3,0.6C404.3,468.8,404.6,468.8,404.9,468.8z"/>
			<path d="M423.8,467.7c0.1,0.9,0.3,1.9,0.4,2.8c0.1,0.7-0.2,1-0.9,1.1c-0.3,0-0.6,0-0.6-0.4c0-0.2-0.1-0.3-0.2-0.5
				c-0.1-1.2-0.3-2.4-0.6-3.6c-0.1-0.4-0.1-0.9-0.2-1.3s-0.3-0.6-0.8-0.5c-0.9,0.2-1.8,0.1-2.7,0.4c-0.4,0.1-0.7,0.1-0.8-0.4
				c-0.1-0.5,0-1,0.4-1.1c1.5-0.1,3.2-0.5,4.7-0.7c1.3-0.2,2.8-0.3,4.1-0.6c0.3-0.1,0.6,0,0.7,0.3c0.1,0.4,0.2,0.8-0.4,1
				c-0.2,0.1-0.4,0.1-0.6,0.2l-2.1,0.3c-0.7,0.1-0.9,0.3-0.9,1C423.6,466.6,423.7,467.2,423.8,467.7L423.8,467.7z"/>
			<path d="M436.6,463.5c0.3,1.5,0.8,2.7,1.2,4c0.1,0.4,0.1,0.8-0.4,1c-0.4,0.2-0.9,0.1-1.2-0.3c-0.1-0.2-0.2-0.4-0.3-0.7
				c-0.3-1.4-0.8-2.7-1.3-4c-0.2-0.6-0.3-1.3-0.5-2c-0.2-0.6,0.5-0.6,0.8-0.8c0.3-0.1,0.6,0.1,0.7,0.4
				C436,462,436.1,462.9,436.6,463.5z"/>
			<path d="M451.1,462.7c-0.3,0.2-0.7,0.2-1.1,0c-1.9-0.9-3.8-1.7-5.6-2.6c-0.5-0.2-1-0.5-1.5-0.7c-0.3-0.2-0.7-0.3-0.6-0.7
				c0.1-0.4,0.5-0.6,0.8-0.6c0.5-0.1,1.1-0.1,1.5,0.2c1.5,0.8,3.1,1.5,4.7,2.2c0.7,0.3,0.8,0.2,1-0.5c0.2-1.2,0.3-2.4,0.5-3.5
				c0.1-0.6,0.1-1.2,0.2-1.8c0.1-0.7,0.6-1.1,1.2-1.5c0.4-0.2,0.7,0,0.8,0.4c0,0.2,0,0.5-0.1,0.7c-0.2,1.6-0.4,3.3-0.7,4.9
				c-0.1,0.5-0.1,1-0.1,1.5C452,461.6,451.7,462.3,451.1,462.7z"/>
			<path d="M464.2,443.5c0.5-0.1,0.8-0.1,1.1,0.4s0.2,0.7-0.2,1.1c-1.6,1.3-3.1,2.6-4.7,4c-0.4,0.4-0.4,0.7,0,1.1
				c0.3,0.4,0.6,0.5,1,0.1c1.3-1.1,2.7-2.1,3.9-3.3c0.4-0.4,0.7-0.3,1,0.1c0.5,0.6,0.5,0.8,0.1,1.2c-1.2,1.1-2.4,2.1-3.7,3.2
				c-0.6,0.5-0.6,0.8-0.3,1.2c0.4,0.5,1,0.5,1.4-0.1c0.8-1,1.8-1.7,2.8-2.4c0.1-0.1,0.2-0.1,0.3-0.2c0.3-0.7,0.9-1,1.5-1.3
				c0.5-0.3,0.7-0.1,0.9,0.2c0.3,0.3,0.2,0.7-0.1,0.9c-1,0.9-2,1.8-3,2.6c-1,0.9-2.1,1.7-3.1,2.6c-0.4,0.4-0.7,0.3-1.1,0
				c-0.6-0.5-1.1-1.1-1.5-1.7s-1-1-1.5-1.5c-0.4-0.6-0.8-1.2-1.3-1.6c-0.4-0.4-0.4-0.7,0.1-1.2c0.8-0.8,1.8-1.4,2.5-2.3L464.2,443.5
				z"/>
		</g>
	</g>
	<g>
		<g>
			<g>
				<g>
					<g>
						<g>
							<g>
								<g>
									<g>
										<g>
											<g>
												<g>
													<path class="st1" d="M173.3,663.9v8.4H189v9.7h-15.7v8.3h22v9.7h-34.8v-46h34.8v9.9H173.3z"/>
													<path class="st1" d="M277.3,663.9v8.4H293v9.7h-15.7v8.3h22v9.7h-34.8v-46h34.8v9.9H277.3z"/>
													<path class="st1" d="M254,663.9h-17.6v36h-13v-36h-17.3V654H254V663.9z"/>
												</g>
											</g>
										</g>
										<g>
											<polygon class="st2" points="638.6,673 620.7,673 620.7,654 607.8,654 607.8,699.9 620.7,699.9 620.7,682.8 638.6,682.8 
												638.6,699.9 651.3,699.9 651.3,654 638.6,654 											"/>
											<path class="st2" d="M595.4,655.4c-1.3-0.9-2.8-1.4-4.5-1.4h-37.7v45.9h13.1v-15.1l0,0v-0.7h24.6c1.8,0,3.3-0.5,4.5-1.4
												c1.3-0.9,1.9-2.1,1.9-3.5v-20.4C597.3,657.5,596.7,656.4,595.4,655.4z M584.3,674.4h-18v-0.5l0,0v-10h18V674.4z"/>
											<polygon class="st2" points="679.5,654 661.8,654 682.4,678.9 682.4,699.9 695.4,699.9 695.4,679 716.1,654 698.3,654 
												688.7,665.5 											"/>
											<path class="st2" d="M540.8,682.8c1.3-0.9,1.9-2.1,1.9-3.5v-20.4c0-1.3-0.6-2.5-1.9-3.4c-1.3-0.9-2.8-1.4-4.7-1.4h-37.3
												V700h13v-15.8h6.5l9.4,15.8h15.1l-9.8-15.8C534.7,684.2,539.6,683.7,540.8,682.8z M529.7,674.5h-18v-10.6h18V674.5z"/>
											<polygon class="st2" points="403.9,674 394.5,654 374.5,654 374.5,699.9 387.5,699.9 387.4,664 399.7,691.4 408,691.4 
												420.4,664 420.4,699.9 433.2,699.9 433.2,654 413.2,654 											"/>
											<path class="st2" d="M475.2,690.2h-18.5v-36.3h-13.1v41.2c0,1.4,0.6,2.6,1.9,3.5s2.8,1.4,4.7,1.4h31.6
												c1.8,0,3.4-0.5,4.7-1.4s1.9-2.1,1.9-3.5v-41.2h-13.1v36.3H475.2z"/>
										</g>
										<path class="st1" d="M147.9,655.4c-1.3-0.9-2.8-1.4-4.5-1.4h-37.7v45.9h13.1v-15.5l0,0V674l0,0v-10.2h18v10.5h-20v9.8
											h26.6c1.8,0,3.3-0.5,4.5-1.4c1.3-0.9,1.9-2.1,1.9-3.5v-20.4C149.8,657.5,149.2,656.4,147.9,655.4z"/>
									</g>
								</g>
							</g>
						</g>
					</g>
					<path class="st1" d="M351.9,682.8c1.3-0.9,1.9-2.1,1.9-3.5v-20.4c0-1.3-0.6-2.5-1.9-3.4s-2.8-1.4-4.7-1.4h-37.4V700h13v-15.8
						h6.5l9.4,15.8h15.1l-9.8-15.8C345.8,684.2,350.6,683.7,351.9,682.8z M340.8,674.5h-18v-10.6h18V674.5z"/>
				</g>
			</g>
		</g>
	</g>
	<g>
		<g>
			<g>
				<path class="st1" d="M377.2,575.8c-0.1-0.7-0.7-1.4-1.3-1.4c-0.6,0-1,0.4-1.2,0.9c0,0.1-0.1,0.2-0.1,0.4c0,0,0,0,0,0.1
					c0,0,0,0,0,0.1c0,0.2,0,0.4,0.1,0.7c1,4.4,7.5,4.7,11.7,1.1C386.4,577.7,378.6,581.3,377.2,575.8z"/>
				<path class="st1" d="M375.7,607.9c-5.1-3.3-13.3-5.8-13.3-5.8l3.9-3.4l-1.6-2.9l0,0c-0.2,0.3-0.5,0.6-0.8,0.8c0,0,0,0-0.1,0.1
					l0,0c-1.1,0.8-2.7,1.1-4.2,0.8c-0.5-0.1-1-0.3-1.4-0.6c-1.8,0.3-2.1,0.1-3-0.8l-0.5-0.6c0.9,0.5,1.5,0.5,2.5,0.4
					c-0.4-0.7-0.5-1.5-0.1-2.3c0.5-1,1.7-2,3.1-2.5l0.2-0.2l-0.2-0.4c-2.1,0.3-4.3-0.5-4.9-2.4c-0.3-1-0.2-2,0.3-2.8
					c-0.9-0.2-1.5-0.2-2.4,0.3c0-0.1,0.5-0.7,0.5-0.7c0.9-1,1.3-1.1,3-0.7c0.4-0.3,0.8-0.5,1.3-0.6c2-0.4,4.1,0.6,4.9,2.3l0.4-0.1
					c-0.2-1.8,0.6-3.8,2.2-4.8c0.9-0.6,1.8-0.7,2.6-0.4c0.1-1,0-1.5-0.6-2.3c0,0,0.7,0.3,0.8,0.3c1,0.6,1.2,0.9,1.1,2.7
					c0.3,0.3,0.6,0.7,0.7,1.2c0.7,2-0.2,4.5-2,5.6c-0.1,0-0.2,0.1-0.2,0.1c2.6,3,7.7,5.2,10.8,7.3c0,0,0.4,4-1,8.4
					C377.1,605.9,375.7,607.9,375.7,607.9z"/>
				<path class="st1" d="M435.7,604.6c0,0-8.3,2.5-11.7,13.1c0,0.1,0,0.1-0.1,0.2l-1.5,0.1c0,0,0-0.1,0-0.2c0.5-1.3,0.1-2.7-0.9-3.6
					c-1.5-1.3-3.8-1.2-5.2,0.3c-0.3,0.3-0.6,0.7-0.7,1.1c-1.5,0.5-1.7,0.8-1.9,2v0.8c0.4-0.9,0.9-1.1,1.7-1.4c0,0.9,0.4,1.7,1.1,2.3
					c0.3,0.3,0.7,0.5,1.1,0.6l0.1,0.9h0.1c-0.5,0.5-0.8,1.1-1,1.8c-0.1,0.5-0.1,0.9,0,1.3c-1,1.2-1,1.6-0.5,2.7l0.4,0.7
					c-0.1-1,0.1-1.4,0.6-2.1c0.5,0.7,1.3,1.2,2.3,1.3c2,0.3,3.9-1.1,4.3-3c0-0.2,0.1-0.5,0.1-0.7l1.8-0.2c0,0,0,0.1,0,0.2l0,0
					c0,0.5,0.1,1.1,0.4,1.6c0.9,1.7,3.1,2.5,4.9,1.7c0.9-0.4,1.5-1.1,1.7-1.9c0.7,0.5,1,0.9,1.2,1.8c0,0,0.2-0.7,0.2-0.8
					c0.2-1.2,0.1-1.6-1.2-2.5c0-0.4-0.2-0.9-0.4-1.3c0,0,0,0,0-0.1l0,0c-0.1-0.1-0.2-0.3-0.3-0.4c-0.1-0.1-0.1-0.1-0.2-0.2
					c-0.2-0.3-0.5-0.5-0.9-0.8l-0.1-1.9l5.7-0.1v-6.5l2.7-1.7C439.7,609.9,436.3,608.3,435.7,604.6z"/>
				<path class="st1" d="M462.9,619.5l1.9,0.8v-6.7c-5.4-0.2-2.7-11.1-2.7-11.1c-11.9,2.5-8.7-6-8.7-6c4.5-0.6,12.1-4.9,11.6-11.9
					c-1-13-33.7-8.1-43.4-7.5c-9.8,0.6-5.2-2.2,3-2.9s-3.8-10.4-3.8-10.4s2.9,2.7-9.3,9.3c-12.1,6.6,3.7,7.9,3.7,7.9
					c-3.9,3.6,2.4,6,2.4,6c-2.1-2.9,1.5-5.3,1.5-5.3s27.3-5.5,36.9-1.5s1.1,15-5.8,12.9c-6.9-2.1-21.3-0.6-21.3-0.6l-11.7,15.3
					c13-10.1,20.5-7.7,20.5-7.7c4.9,10.9,8.6,8.6,14.6,10.8c6.1,2.2,4,7.8,4,7.8h-3.5c0.3-0.7,0.3-1.6-0.1-2.4
					c-0.8-1.8-2.9-2.7-4.7-2c-0.4,0.2-0.8,0.4-1.2,0.7c-1.6-0.2-1.9,0-2.6,1l-0.4,0.7c0.8-0.6,1.3-0.7,2.1-0.6
					c-0.3,0.8-0.4,1.7,0,2.6c0.3,0.7,0.9,1.3,1.5,1.7l0.7,0.7c-0.4,0.2-0.8,0.5-1.1,0.9s-0.5,0.8-0.6,1.2c-1.4,0.6-1.6,1-1.7,2.2
					v0.8c0.4-0.9,0.8-1.2,1.5-1.6c0.1,0.8,0.6,1.6,1.3,2.2c1.6,1.1,3.9,0.8,5.1-0.7c0.5-0.6,0.8-1.4,0.8-2.1h1.5
					c0.1,0.4,0.2,0.8,0.4,1.1c1.1,1.7,3.3,2.3,5,1.3c0.8-0.5,1.4-1.2,1.6-2c0.7,0.4,1.1,0.8,1.3,1.7l0.2-0.8
					c0.1-1.2-0.1-1.6-1.4-2.4c-0.1-0.4-0.2-0.9-0.5-1.3c-0.2-0.3-0.5-0.6-0.8-0.9C461.1,619.8,462.9,619.5,462.9,619.5z"/>
				<path class="st1" d="M406.7,592.3c0,0-8.5,16.5-42.2,20.2c0.1-0.2,0.1-0.4,0.1-0.7c0.1-2.1-1.4-4.3-3.4-4.9
					c-0.5-0.1-0.9-0.2-1.4-0.1c-1.3-1.2-1.7-1.2-2.8-0.7l-0.7,0.4c1,0,1.5,0.2,2.2,0.8c-0.7,0.5-1.1,1.4-1.2,2.4
					c-0.1,2,1.1,3.9,2.9,4.7l-0.2,0.3c-1.7-0.4-3.6,0.3-4.7,1.8c-0.3,0.4-0.5,0.9-0.6,1.4c-1.4,0.8-1.6,1.2-1.6,2.5
					c0,0.1,0.1,0.8,0.1,0.9c0.3-1,0.7-1.4,1.5-1.8c0.2,0.9,0.7,1.7,1.6,2.2c1.8,1,4.2,0,5.4-1.8l0,0l0.5,0.1v0.3
					c-0.2,1.5,0.1,3.2,0.8,4.1c0.5,0.7,1.3,1,2.1,1c-0.3,0.9-0.6,1.4-1.5,2c0,0,0.7-0.1,0.8-0.1c1.2-0.3,1.5-0.6,2.1-2.3
					c0.4-0.2,0.8-0.5,1.1-1c0.6-0.7,1-1.5,1.1-2.3l0,0c0-0.1,0-0.1,0-0.2c0.1-0.7,0.2-1.4,0-2l3.2,0.5l0.2,5.2c0,0,12-7.3,25.7-5.9
					c0,0,1.3-1.7,0.3-2.8c-0.9-1.1-2-8.4,1.1-10.1c0,0-1.3,9.4,4.9,6.1c6.2-3.3,10.6-5.4,10.6-5.4l10.9-15h-18.9V592.3z"/>
			</g>
			<g>
				<path class="st2" d="M559.8,609.1h-8l9.5-8.2h6.8L559.8,609.1z M547.6,609.1h-6.7l9.5-8.2h6.7L547.6,609.1z M536.7,609.1h-6.8
					l9.5-8.2h6.8L536.7,609.1z M525.7,609.1h-7.2l9.5-8.2h7.2L525.7,609.1z M514.3,609.1h-7.1l9.5-8.2h7.1L514.3,609.1z
					 M514.3,611.9l9.4,8.2H517l-9.4-8.2H514.3z M518.5,611.9h6.8l9.4,8.2h-6.8L518.5,611.9z M529.5,611.9h7.2l9.4,8.2h-7.2
					L529.5,611.9z M540.9,611.9h7.1l9.4,8.2h-7.1L540.9,611.9z M510.9,600.9h1.6l-9.5,8.2h-3.4C500.3,600.5,510.5,600.9,510.9,600.9
					z M511,620.1c-0.5,0-10.6,0.4-11.3-8.2h3.8l9.4,8.2H511z M568.1,620.1h-6.5l-9.4-8.2h7.6L568.1,620.1z"/>
				<polygon class="st2" points="572.6,610.8 480.2,610.8 471.3,608 575.2,608 				"/>
			</g>
			<g>
				<path class="st2" d="M253.7,600.9h6.8l9.5,8.2h-8L253.7,600.9z M264.8,600.9h6.7l9.5,8.2h-6.7L264.8,600.9z M275.7,600.9h6.8
					l9.5,8.2h-6.8L275.7,600.9z M286.6,600.9h7.2l9.5,8.2h-7.2L286.6,600.9z M298,600.9h7.1l9.5,8.2h-7.1L298,600.9z M314.1,611.9
					l-9.4,8.2H298l9.4-8.2H314.1z M293.8,620.1H287l9.4-8.2h6.8L293.8,620.1z M282.9,620.1h-7.2l9.4-8.2h7.2L282.9,620.1z
					 M271.4,620.1h-7.1l9.4-8.2h7.1L271.4,620.1z M322.1,609.1h-3.3l-9.5-8.2h1.6C311.3,600.9,321.5,600.5,322.1,609.1z
					 M308.9,620.1l9.4-8.2h3.8c-0.7,8.6-10.8,8.3-11.3,8.2H308.9z M262.1,611.9h7.6l-9.4,8.2h-6.5L262.1,611.9z"/>
				<polygon class="st2" points="249.2,610.8 341.6,610.8 350.5,608 246.6,608 				"/>
			</g>
		</g>
		<path class="st1" d="M405.2,564.6l-3.9-0.4c-0.3,0-0.6,0.1-0.8,0.2l0,0c-0.2,0.1-0.3,0.3-0.4,0.5l-0.3,0.6
			c-0.2,0.4-0.1,0.2-0.4,0.8l-1.7,3.1l1.8-5.4l-10.4-0.4c-0.3,0-0.8,0.2-1.1,0.3c-0.2,0.1-0.5,0.3-0.6,0.4l-1.7,1.3l0,0l-5.7,0.5
			c-0.3,0-0.6,0.1-0.6,0.4l-0.3,2.3h0.3l3.3-0.6c0,0-0.2,1-2.8,1.3c-2.5,0.4,0.6,6,0.7,6.4c0.1,0.1,0.2,0.4,0.4,0.5l0.4,0.1
			c0.3,0.1,0.9-0.2,1.2-0.3c1.4-0.6,5.5-2,6.5,1.1c1.2,3.7-3.9,4.8-6.6,4.1c0,0-0.1,0-0.1,0.1l0.1,4.8c0.1,0,0.1,0,0.1,0.1
			c0.8-0.7,5.1-4.6,9.1-3c0,0,0,0,0,0.1c-1,0.5-9.6,5.3-10.2,10s-0.6,12.5-3.1,14.2c-0.1,0,0,0.1,0.1,0.1l4.9-2.3l0.6-0.3
			c0.1,0,0.2-0.1,0.4-0.1l2.1-6.2l-0.5,5.6c1.7-0.6,3.5-1.4,5.2-2.1l2.5-10.3l-0.2,9.2c1.6-0.9,3.1-1.9,4.4-3.1l2.7-12v9.3l0.1-0.1
			l3.5-3.5c0.2-0.2,0.2-0.4,0.2-0.6c0-0.4,0-1.1,0-1.1v-15.9c0-0.1,0-0.2-0.1-0.3l-0.5-0.8c-0.1-0.1-0.2-0.3-0.4-0.3l-1.7-0.8
			l1.8-0.5c0,0,0.1,0,0.2-0.1c0.5-0.2,0.9-0.6,1-1.1l1.2-5C405.8,564.9,405.6,564.6,405.2,564.6z M392.7,566.1l-0.8,0.9
			c-0.1,0.1-0.3,0.2-0.4,0.2l-3.9-0.1c-0.3,0-0.4-0.3-0.2-0.5l0.9-0.8c0.1-0.1,0.3-0.2,0.5-0.2l3.7,0.1
			C392.8,565.6,392.9,565.9,392.7,566.1z"/>
		<g>
			<path class="st3" d="M403.1,565.8h1.1l-1,3.6c-0.1,0.3-0.3,0.4-0.5,0.5l-2.6,0.1L403.1,565.8z"/>
			<polygon class="st1" points="401.6,567.4 403.1,567.8 400.9,568.4 			"/>
			<polygon class="st1" points="400.8,568.6 402.4,569 400.1,569.6 			"/>
		</g>
	</g>
	<g>
		<g class="st4">
			<path class="st2" d="M263.1,728.7c0.6,0.4,1.4,0.4,2,0.4c1.6,0.2,2.7,1,3.6,2.2c0.4,0.6,0.2,1.4-0.5,1.8c-0.7,0.4-1.4,0.5-2,0
				c-2.9-2.3-6.2-1.8-9.4-1c-0.9,0.3-1.6,0.9-1.9,1.9c-0.9,3.3,0.5,5.2,3.8,5.7c1.2,0.1,2.4,0.1,3.5,0.1c1,0,2.1-0.2,2.9-0.9
				c0.5-0.4,1-0.7,1.7-0.8c0.9-0.2,1.6,0.2,2,0.9c0.5,0.7-0.1,1.2-0.6,1.7c-2.1,2.3-6.3,2-9.1,1.9c-3.2-0.1-7.1-1.8-7.1-5.6
				c0-0.7,0-1.4,0-2.1c-0.2-2.2,0.9-3.6,2.5-4.9c0.6-0.5,1.4-0.7,2.1-0.8c1-0.1,1.8-0.5,2.8-0.6H263.1z"/>
			<path class="st2" d="M311.8,733.1c0,0.4,0.1,0.9,0,1.3c-0.1,0.9-0.5,1.5-1.5,1.8c-1.4,0.4-2.7,1-4.2,0.8c-0.2,0-0.3,0.1-0.4,0.2
				c-0.1,0.3,0.1,0.4,0.2,0.6c0.9,1.1,2.1,1.4,3.4,1.8c1.1,0.3,2.3,0.5,3.4,0.6c0.9,0,1.2,0.6,1.1,1.4c-0.1,0.8-0.5,1.2-1.3,1.2
				c-3.2,0-6.1-0.8-8.6-2.7c-0.7-0.5-1.1-1.2-1.5-2c-0.4-0.9-1.1-1.2-2-1.1c-0.8,0.2-1.2,0.7-1.3,1.6c-0.1,0.9-0.2,1.8,0,2.8
				c0.1,0.6-0.2,1-0.7,1.1c-0.9,0.4-2.1-0.3-2.1-1.2c0.1-1.8-0.2-3.5,0-5.3c0.1-0.9-0.1-1.8-0.1-2.7c0.1-1.2,0.1-2.5,0.2-3.7
				c0.1-0.6,0.6-0.9,1.3-0.8c1,0.1,2,0.2,3,0.1c2.3-0.1,4.5,0,6.8-0.1C310.2,728.5,311.8,730.4,311.8,733.1z M303.9,731.5
				c-1.1,0-2.3,0-3.4,0c-0.8,0-1.2,0.5-1.2,1.4c0,0.8,0.3,1.2,1.1,1.2c1,0,1.9,0,2.9,0c1.6,0.1,3.1,0,4.7-0.2c0.5-0.1,1-0.4,1.1-1
				c0.1-0.6-0.3-1-0.8-1.3c-0.4-0.1-0.7-0.2-1.1-0.2H303.9z"/>
			<path class="st2" d="M355.9,728.7c0.7,0.4,1.1,0.9,1,1.7c-0.1,1-0.5,1.2-1.5,1.2c-3.3,0-6.6,0-9.9,0c-0.9,0-1.2,0.5-1.2,1.4
				c0,0.8,0.2,1.3,1.2,1.3c2.8,0.1,5.5,0.2,8.3,0.2c0.9,0,1.1,0.3,1.1,1.2c0,1.3-0.1,1.6-1.1,1.6c-2.6,0-5.2,0-7.8,0
				c-1.2,0-1.6,0.3-1.6,1.3c0,1.1,0.7,1.7,1.9,1.5c2-0.3,4-0.2,6,0c0.2,0,0.4,0.1,0.6,0c1.1-0.5,2.1-0.2,3.2,0
				c0.8,0.2,0.9,0.7,0.9,1.3c0,0.7-0.4,1.1-1.1,1.2c-2.1,0.1-4.3,0.1-6.4,0.1c-2.2,0-4.4-0.1-6.5,0c-0.9,0-1.2-0.3-1.3-1.1
				c-0.3-1.3-0.2-2.5,0-3.8c0.2-1.2-0.3-2.4-0.2-3.6c0.1-1.2,0.3-2.4,0.1-3.6c-0.2-1,0.4-1.4,1.4-1.4c1.8-0.1,3.7,0.2,5.5-0.3H355.9
				z"/>
			<path class="st2" d="M402.6,742.3c-1,0.1-1.6-0.3-2.2-1.3c-0.7-1.2-1.7-1.9-3.2-1.9c-2,0-4,0.1-5.9,0c-1.2,0-2,0.4-2.6,1.4
				c-0.8,1.2-1.7,2-3.2,1.8c-1-0.1-1.4-0.6-0.8-1.4c1.1-1.8,2.5-3.3,3.7-5.1c1.3-1.9,2.6-3.7,3.9-5.5c0.2-0.2,0.4-0.5,0.6-0.7
				c1-1.1,2.3-1,3.3,0.2c0.5,0.6,0.8,1.3,1.2,2c0.7,1.2,1.6,2.3,2.5,3.4c1.5,1.8,2.6,3.9,4,5.7C404.5,741.8,404.1,742.3,402.6,742.3
				z M394.1,736.5c0.5,0,1,0,1.5,0c1-0.1,1.2-0.6,0.6-1.4c-0.5-0.6-1-1.1-1.3-1.8c-0.3-0.7-0.8-0.7-1.2-0.1c-0.5,0.8-1,1.5-1.6,2.3
				c-0.4,0.6-0.2,0.9,0.5,1C393.1,736.5,393.6,736.5,394.1,736.5z"/>
			<path class="st2" d="M441.2,736c0,1.6,0,3.3,0,4.9c0,1.3-0.5,1.6-1.6,1.6c-0.6,0-0.9-0.2-0.9-0.8c0-0.3-0.2-0.6-0.2-0.8
				c0-2.1,0-4.2-0.1-6.2c0-0.7,0.1-1.5,0-2.2c-0.1-0.7-0.4-1-1.1-1c-1.5,0.2-2.9-0.2-4.4,0c-0.6,0.1-1.1,0-1.2-0.8
				c-0.1-1,0.2-1.8,1-1.7c2.5,0.2,5.2,0,7.6,0c2.2,0,4.6,0.1,6.7,0c0.5-0.1,1,0.1,1.1,0.7c0.1,0.7,0.1,1.4-0.8,1.7
				c-0.3,0.1-0.7,0.2-1,0.2h-3.4c-1.2,0-1.6,0.3-1.6,1.5C441.1,734,441.2,735,441.2,736L441.2,736z"/>
			<path class="st2" d="M479.8,734.1c-0.3,2.5-0.1,4.8-0.1,7.1c0,0.7-0.3,1.3-1.1,1.4c-0.8,0.1-1.5-0.4-1.7-1.2
				c-0.1-0.4-0.1-0.8-0.1-1.2c0.2-2.4,0.1-4.7,0-7.1c0-1.2,0.2-2.3,0.2-3.4c0-1,1.1-0.8,1.7-0.9c0.5-0.1,0.9,0.4,0.9,1
				C479.6,731.3,479.4,732.8,479.8,734.1z"/>
			<path class="st2" d="M518.3,742.4c-0.7,0.1-1.2-0.2-1.6-0.8c-2-2.8-4.1-5.6-6.1-8.4c-0.5-0.8-1.1-1.5-1.6-2.2
				c-0.3-0.5-0.7-1-0.3-1.6c0.4-0.6,1.1-0.5,1.7-0.3c0.8,0.3,1.6,0.8,2.1,1.5c1.6,2.4,3.3,4.8,5.1,7.1c0.8,1,1.1,1,1.8,0
				c1.2-1.6,2.2-3.3,3.4-4.9c0.6-0.8,1.1-1.7,1.7-2.5c0.7-1,1.7-1.2,2.8-1.3c0.7,0,1,0.5,0.8,1.2c-0.2,0.4-0.4,0.7-0.7,1
				c-1.6,2.3-3.1,4.6-4.8,6.8c-0.5,0.7-1,1.4-1.4,2.2C520.4,741.5,519.4,742.4,518.3,742.4z"/>
			<path class="st2" d="M570,728.7c0.7,0.4,1.1,0.9,1,1.7c-0.1,1-0.5,1.2-1.5,1.2c-3.3,0-6.6,0-9.9,0c-0.9,0-1.2,0.5-1.2,1.4
				c0,0.8,0.2,1.3,1.2,1.3c2.8,0.1,5.5,0.2,8.3,0.2c0.9,0,1.1,0.3,1.1,1.2c0,1.3-0.1,1.6-1.1,1.6c-2.6,0-5.2,0-7.8,0
				c-1.2,0-1.6,0.3-1.6,1.3c0,1.1,0.7,1.7,1.9,1.5c2-0.3,4-0.2,6,0c0.2,0,0.4,0.1,0.6,0c1.1-0.5,2.1-0.2,3.2,0
				c0.8,0.2,0.9,0.7,0.9,1.3c0,0.7-0.4,1.1-1.1,1.2c-2.1,0.1-4.3,0.1-6.4,0.1c-2.2,0-4.4-0.1-6.5,0c-0.9,0-1.2-0.3-1.3-1.1
				c-0.3-1.3-0.2-2.5,0-3.8c0.2-1.2-0.3-2.4-0.2-3.6c0.1-1.2,0.3-2.4,0.1-3.6c-0.2-1,0.4-1.4,1.4-1.4c1.8-0.1,3.7,0.2,5.5-0.3H570z"
				/>
		</g>
	</g>
	<g>
		<g>
			<g>
				<g>
					<path class="st0" d="M633,346.1l5.2,6.4l-0.6,15.1l-6-7.5L633,346.1z M641.3,356.5l5,6.3l-0.6,15.1l-5-6.3L641.3,356.5z
						 M649.5,366.8l5.1,6.4l-0.6,15.1l-5.1-6.4L649.5,366.8z M658.6,377.6l5.1,6.4l-0.6,15.1l-5.1-6.4L658.6,377.6z M667,387.4
						l5.1,6.4l-0.6,15.1l-5.1-6.4L667,387.4z M668.1,411.3l-14.9-2.7l-5-6.3l14.9,2.7L668.1,411.3z M645.1,398.3l-5.1-6.4l14.9,2.7
						l5.1,6.4L645.1,398.3z M636.8,388l-5.4-6.8l14.9,2.7l5.4,6.8L636.8,388z M628.2,377.3l-5.3-6.6l14.9,2.7l5.3,6.6L628.2,377.3z
						 M628.9,362.3l5.7,7.1l-14.9-2.7l-4.9-6.1L628.9,362.3z"/>
					<path class="st0" d="M741.5,360.2l-6,7.5l-0.6-15.1l5.2-6.4L741.5,360.2z M732.3,371.6l-5,6.3l-0.6-15.1l5-6.3L732.3,371.6z
						 M724.1,381.9l-5.1,6.4l-0.6-15.1l5.1-6.4L724.1,381.9z M715.8,392.2l-5.4,6.8l-0.6-15.1l5.4-6.8L715.8,392.2z M709.8,405
						l14.9-2.7l-5,6.3l-14.9,2.7L709.8,405z M713,401l5.1-6.4l14.9-2.7l-5.1,6.4L713,401z M721.3,390.7l5.4-6.8l14.9-2.7l-5.4,6.8
						L721.3,390.7z M729.9,380l5.3-6.6l14.9-2.7l-5.3,6.6L729.9,380z M715,414.4c-0.4,0.5-7.6,10.3-16.2,4.4l2.8-3.5l14.9-2.7
						L715,414.4z M758.1,360.6l-4.9,6.1l-14.9,2.7l5.7-7.1L758.1,360.6z"/>
				</g>
				<g>
					<g>
						<g>
							<path d="M667.8,377.3c-0.2-1-1-1.9-1.9-1.9c-0.8,0-1.4,0.6-1.7,1.3c-0.1,0.1-0.1,0.3-0.1,0.6v0.1v0.1c0,0.3,0.1,0.6,0.1,0.9
								c1.6,6.2,10.7,6.4,16.6,1.1C680.9,379.5,670.1,385,667.8,377.3z"/>
						</g>
					</g>
					<g>
						<path d="M706.4,396.5l-0.6-22.5c0-0.2-0.1-0.3-0.1-0.5l-0.7-1.1c-0.1-0.2-0.3-0.3-0.5-0.4l-2.4-1.1l2.5-0.8
							c0,0,0.1-0.1,0.3-0.1c0.7-0.2,1.2-0.8,1.3-1.5l1.5-7c0.1-0.5-0.3-1-0.8-0.9l-5.6-0.4c-0.4,0-0.8,0.1-1.1,0.3l0,0
							c-0.3,0.2-0.5,0.4-0.6,0.7l-0.5,0.9c-0.2,0.5-0.2,0.3-0.6,1.2l-2.3,4.4l2.4-7.6l-14.7-0.2c-0.4,0-1.1,0.3-1.5,0.5
							c-0.3,0.1-0.7,0.4-0.9,0.6l-2.4,2c0,0,0,0-0.1,0l-8,0.8c-0.4,0-0.8,0.1-0.8,0.6l-0.3,3.2c0,0,0.4,0,0.5-0.1l4.6-1
							c0,0-0.3,1.4-3.9,2c-3.5,0.6,1,8.5,1.3,8.9c0.1,0.2,0.2,0.6,0.6,0.7l0.5,0.1c0.4,0.1,1.3-0.3,1.7-0.5c1.9-0.9,7.7-3,9.2,1.3
							c1.8,5.1-5.4,6.9-9.2,6c-0.1,0-0.1,0-0.1,0.1l0.3,6.8c0.1,0,0.1,0,0.2,0.1c1-1,7-6.7,12.7-4.5c0,0.1,0,0.1,0,0.1
							c-1.4,0.8-13.4,7.8-14.1,14.4c-0.7,6.7-0.5,17.7-3.8,20.1c-0.1,0.1,0,0.2,0.1,0.2l6.9-3.5l0.9-0.5c0.2-0.1,0.3-0.1,0.5-0.2
							l2.7-8.8l-0.5,7.9c2.3-0.9,4.9-2.1,7.3-3.2l3.1-14.7v13c2.2-1.3,4.3-2.8,6.1-4.5l3.4-17.1l0.3,13.1l0.1-0.1l4.8-5.1
							c0.2-0.2,0.3-0.5,0.3-0.9C706.4,397.4,706.4,396.5,706.4,396.5z M689.4,363l-1.1,1.3c-0.2,0.2-0.4,0.3-0.6,0.3h-5.5
							c-0.4,0-0.6-0.5-0.3-0.7l1.2-1.2c0.2-0.1,0.4-0.2,0.7-0.2h5.2C689.5,362.4,689.7,362.8,689.4,363z M699.9,368.2l4.2-6h1.5
							l-1.3,5.1c-0.1,0.4-0.4,0.6-0.8,0.7L699.9,368.2z"/>
						<polygon points="701.9,364.5 704.2,365 701,366 						"/>
						<polygon points="700.9,366.2 703.2,366.7 700,367.7 						"/>
					</g>
				</g>
			</g>
			<g>
				<g>
					<path class="st0" d="M650.7,437.4c0.2,0.1,0.4,0.3,0.3,0.6c0,0.3-0.2,0.4-0.5,0.4c-1.1,0-2.2,0-3.3,0c-0.3,0-0.4,0.1-0.4,0.5
						c0,0.3,0.1,0.4,0.4,0.4c0.9,0,1.8,0.1,2.7,0c0.3,0,0.4,0.1,0.4,0.4c0,0.4,0,0.5-0.4,0.5c-0.9,0-1.7,0-2.6,0
						c-0.4,0-0.5,0.1-0.5,0.4c0,0.4,0.2,0.6,0.6,0.5c0.7-0.1,1.3-0.1,2,0c0.1,0,0.1,0,0.2,0c0.4-0.2,0.7-0.1,1.1,0
						c0.3,0.1,0.3,0.2,0.3,0.4c0,0.2-0.1,0.4-0.3,0.4c-0.7,0-1.4,0-2.1,0c-0.7,0-1.4,0-2.2,0c-0.3,0-0.4-0.1-0.4-0.4
						c-0.1-0.4-0.1-0.8,0-1.3c0.1-0.4-0.1-0.8-0.1-1.2c0-0.4,0.1-0.8,0-1.2c-0.1-0.3,0.1-0.4,0.4-0.5c0.6,0,1.2,0.1,1.8-0.1h2.6
						V437.4z"/>
					<path class="st0" d="M654.9,441.9c-0.8,0-1.4,0-2-0.2c-0.3-0.1-0.6-0.2-0.8-0.5c-0.1-0.2-0.3-0.4-0.1-0.6s0.5-0.3,0.7-0.2
						c0.2,0.1,0.4,0.3,0.6,0.4c0.8,0.2,1.5,0.2,2.3,0.1c0.1,0,0.3,0,0.4-0.1c0.1,0,0.3-0.1,0.3-0.2s-0.1-0.2-0.3-0.3
						c-0.3-0.1-0.6-0.2-1-0.2c-0.7,0-1.3-0.1-1.9-0.3c-0.4-0.1-0.8-0.3-1-0.7c-0.2-0.5,0-1.1,0.6-1.3c0.6-0.3,1.2-0.4,1.9-0.4
						c0.3,0,0.7,0,1,0c0.4,0,0.7,0.2,1,0.3c0.3,0.1,0.5,0.3,0.6,0.6c0.1,0.1,0,0.2-0.1,0.3c-0.1,0.2-0.3,0.3-0.6,0.2
						c-0.1,0-0.2-0.1-0.4-0.2c-0.7-0.5-1.6-0.5-2.4-0.3c-0.2,0-0.6,0-0.6,0.3s0.3,0.3,0.5,0.4c0.6,0.1,1.1,0.1,1.7,0.2
						c0.5,0,0.9,0.2,1.4,0.4c0.5,0.3,0.6,0.7,0.5,1.2s-0.5,0.7-0.8,0.8C656,441.8,655.4,442.1,654.9,441.9z"/>
					<path class="st0" d="M661.5,439.8c0,0.5,0,1.1,0,1.6c0,0.4-0.2,0.5-0.5,0.5c-0.2,0-0.3-0.1-0.3-0.3c0-0.1,0-0.2,0-0.3
						c0-0.7,0-1.4,0-2.1c0-0.2,0-0.5,0-0.7s-0.1-0.3-0.4-0.3c-0.5,0.1-1-0.1-1.5,0c-0.2,0-0.4,0-0.4-0.3s0.1-0.6,0.3-0.6
						c0.8,0.1,1.7,0,2.5,0c0.7,0,1.5,0.1,2.2,0c0.2,0,0.3,0,0.3,0.2s0,0.5-0.3,0.5c-0.1,0-0.2,0-0.3,0H662c-0.4,0-0.5,0.1-0.5,0.5
						C661.4,439.2,661.5,439.5,661.5,439.8L661.5,439.8z"/>
					<path class="st0" d="M664.9,442.1c-0.3,0-0.4-0.2-0.4-0.6c0-0.2,0.2-0.3,0.4-0.3c0.3,0,0.5,0.1,0.5,0.4
						C665.5,441.8,665.2,442.1,664.9,442.1z"/>
					<path class="st0" d="M706.6,441.9c-0.8,0-1.4,0-2-0.2c-0.3-0.1-0.6-0.2-0.8-0.5c-0.1-0.2-0.3-0.4-0.1-0.6s0.5-0.3,0.7-0.2
						c0.2,0.1,0.4,0.3,0.6,0.4c0.8,0.2,1.5,0.2,2.3,0.1c0.1,0,0.3,0,0.4-0.1c0.1,0,0.3-0.1,0.3-0.2s-0.1-0.2-0.3-0.3
						c-0.3-0.1-0.6-0.2-1-0.2c-0.7,0-1.3-0.1-1.9-0.3c-0.4-0.1-0.8-0.3-1-0.7c-0.2-0.5,0-1.1,0.6-1.3c0.6-0.3,1.2-0.4,1.9-0.4
						c0.3,0,0.7,0,1,0c0.4,0,0.7,0.2,1,0.3c0.3,0.1,0.5,0.3,0.6,0.6c0.1,0.1,0,0.2-0.1,0.3c-0.1,0.2-0.3,0.3-0.6,0.2
						c-0.1,0-0.2-0.1-0.4-0.2c-0.7-0.5-1.6-0.5-2.4-0.3c-0.2,0-0.6,0-0.6,0.3s0.3,0.3,0.5,0.4c0.6,0.1,1.1,0.1,1.7,0.2
						c0.5,0,0.9,0.2,1.4,0.4c0.5,0.3,0.6,0.7,0.5,1.2s-0.5,0.7-0.8,0.8C707.8,441.8,707.2,442.1,706.6,441.9z"/>
					<path class="st0" d="M716.1,442c-0.3,0-0.5-0.1-0.7-0.4c-0.2-0.4-0.6-0.6-1.1-0.6c-0.7,0-1.3,0-2,0c-0.4,0-0.7,0.1-0.8,0.5
						c-0.2,0.4-0.6,0.7-1.1,0.6c-0.3,0-0.4-0.2-0.3-0.5c0.4-0.6,0.8-1.1,1.2-1.7s0.9-1.2,1.3-1.8c0.1-0.1,0.1-0.2,0.2-0.2
						c0.3-0.3,0.8-0.3,1.1,0.1c0.2,0.2,0.3,0.4,0.4,0.6c0.2,0.4,0.5,0.8,0.8,1.1c0.5,0.6,0.8,1.3,1.3,1.9
						C716.7,441.8,716.6,442,716.1,442z M713.3,440c0.2,0,0.3,0,0.5,0c0.3,0,0.4-0.2,0.2-0.5c-0.1-0.2-0.3-0.4-0.4-0.6
						c-0.1-0.2-0.3-0.2-0.4,0c-0.2,0.3-0.3,0.5-0.5,0.7c-0.1,0.2-0.1,0.3,0.2,0.3C713,440,713.1,440,713.3,440z"/>
					<path class="st0" d="M720.5,441.9c-0.8,0-1.4,0-2-0.2c-0.3-0.1-0.6-0.2-0.8-0.5c-0.1-0.2-0.3-0.4-0.1-0.6s0.5-0.3,0.7-0.2
						c0.2,0.1,0.4,0.3,0.6,0.4c0.8,0.2,1.5,0.2,2.3,0.1c0.1,0,0.3,0,0.4-0.1c0.1,0,0.3-0.1,0.3-0.2s-0.1-0.2-0.3-0.3
						c-0.3-0.1-0.6-0.2-1-0.2c-0.7,0-1.3-0.1-1.9-0.3c-0.4-0.1-0.8-0.3-1-0.7c-0.2-0.5,0-1.1,0.6-1.3c0.6-0.3,1.2-0.4,1.9-0.4
						c0.3,0,0.7,0,1,0c0.4,0,0.7,0.2,1,0.3c0.3,0.1,0.5,0.3,0.6,0.6c0.1,0.1,0,0.2-0.1,0.3c-0.1,0.2-0.3,0.3-0.6,0.2
						c-0.1,0-0.2-0.1-0.4-0.2c-0.7-0.5-1.6-0.5-2.4-0.3c-0.2,0-0.6,0-0.6,0.3s0.3,0.3,0.5,0.4c0.6,0.1,1.1,0.1,1.7,0.2
						c0.5,0,0.9,0.2,1.4,0.4c0.5,0.3,0.6,0.7,0.5,1.2s-0.5,0.7-0.8,0.8C721.6,441.8,721,442.1,720.5,441.9z"/>
					<path class="st0" d="M728.8,441.9c-1-0.1-1.9-0.3-2.7-1c-0.3-0.3-0.6-0.5-0.8-0.8c0-0.1-0.1-0.1-0.2-0.1
						c-0.1,0-0.2,0.1-0.2,0.3c0,0.4,0,0.8,0,1.2c0,0.3-0.1,0.5-0.4,0.5c-0.4,0-0.6-0.3-0.6-0.6c0-0.5,0.1-1.1,0-1.6c0-0.7,0-1.3,0-2
						c0-0.2,0.1-0.3,0.3-0.3c0.4,0,0.6,0.1,0.6,0.4c0,0.2,0,0.5,0,0.7c0,0.3,0.1,0.4,0.4,0.3c0.7-0.3,1.4-0.6,2.1-1
						c0.4-0.3,0.9-0.3,1.4-0.3c0.1,0,0.3,0,0.3,0.2c0,0.1-0.1,0.2-0.2,0.3l-2.2,1.1l0,0c-0.6,0.3-0.6,0.6-0.1,1
						c0.6,0.5,1.3,0.9,2.1,0.9c0.2,0,0.4,0.1,0.6,0.2c0.2,0.1,0.2,0.3,0.2,0.4C729.2,441.8,729.1,442,728.8,441.9z"/>
				</g>
				<g>
					<g>
						<g>
							<g>
								<g>
									<polygon points="691.1,436.1 688.9,431.4 684.2,431.4 684.2,442.1 687.3,442.1 687.2,433.7 690.1,440.1 692.1,440.1 
										694.9,433.7 694.9,442.1 697.9,442.1 697.9,431.4 693.3,431.4 									"/>
								</g>
								<path d="M681.5,431.7c-0.3-0.2-0.6-0.3-1.1-0.3h-8.8v10.7h3.1v-3.6l0,0v-2.4l0,0v-2.4h4.2v2.5h-4.7v2.3h6.2
									c0.4,0,0.8-0.1,1.1-0.3c0.3-0.2,0.4-0.5,0.4-0.8v-4.8C682,432.2,681.8,431.9,681.5,431.7z"/>
							</g>
						</g>
					</g>
				</g>
				<g>
					<g>
						<g>
							<g>
								<g>
									<polygon points="691.1,436.1 688.9,431.4 684.2,431.4 684.2,442.1 687.3,442.1 687.2,433.7 690.1,440.1 692.1,440.1 
										694.9,433.7 694.9,442.1 697.9,442.1 697.9,431.4 693.3,431.4 									"/>
								</g>
								<path d="M681.5,431.7c-0.3-0.2-0.6-0.3-1.1-0.3h-8.8v10.7h3.1v-3.6l0,0v-2.4l0,0v-2.4h4.2v2.5h-4.7v2.3h6.2
									c0.4,0,0.8-0.1,1.1-0.3c0.3-0.2,0.4-0.5,0.4-0.8v-4.8C682,432.2,681.8,431.9,681.5,431.7z"/>
							</g>
						</g>
					</g>
				</g>
			</g>
		</g>
		<g>
			<g>
				<polygon class="st0" points="679.1,422.9 683.8,428.8 688.1,428.8 682.2,421.5 				"/>
				<polygon class="st0" points="671.1,407.6 620.9,344.9 620.2,349.4 670.2,411.8 				"/>
			</g>
			<polygon class="st0" points="700.9,444.8 700.9,445.1 696.9,445.1 699.2,448 708.5,454.3 			"/>
		</g>
		<g>
			<polygon class="st0" points="671.7,445.1 664.4,454.3 673.7,448 676,445.1 			"/>
			<polygon class="st0" points="689.1,428.8 752.7,349.4 752,344.9 684.9,428.8 			"/>
		</g>
	</g>
	<g>
		<g>
			<g>
				<path class="st2" d="M197.9,950.1h-5.7l-7.9-6.8h6.6L197.9,950.1z M188.7,950.1h-5.5l-7.9-6.8h5.5L188.7,950.1z M179.7,950.1
					h-5.6l-7.9-6.8h5.6L179.7,950.1z M170.6,950.1h-6l-7.9-6.8h6L170.6,950.1z M161.1,950.1h-5.9l-7.9-6.8h5.9L161.1,950.1z
					 M147.7,941l7.8-6.8h5.5l-7.8,6.8H147.7z M164.6,934.2h5.6l-7.8,6.8h-5.6L164.6,934.2z M173.7,934.2h6l-7.9,6.8h-6L173.7,934.2z
					 M183.2,934.2h5.9l-7.8,6.8h-5.9L183.2,934.2z M141.1,943.3h2.8l7.9,6.8h-1.3C150.1,950.2,141.6,950.5,141.1,943.3z
					 M152.1,934.2l-7.8,6.8h-3.1c0.5-7.1,8.9-6.8,9.3-6.8H152.1z M190.9,941h-6.3l7.8-6.8h5.4L190.9,941z"/>
				<polygon class="st2" points="201.6,941.9 114.7,941.9 107.2,944.2 203.7,944.2 				"/>
			</g>
			<g>
				<path class="st2" d="M64.7,935.8h5.7l7.9,6.8h-6.6L64.7,935.8z M73.9,935.8h5.5l7.9,6.8h-5.5L73.9,935.8z M82.9,935.8h5.6
					l7.9,6.8h-5.6L82.9,935.8z M92,935.8h6l7.9,6.8h-6L92,935.8z M101.5,935.8h5.9l7.9,6.8h-5.9L101.5,935.8z M114.9,944.9l-7.8,6.8
					h-5.5l7.8-6.8H114.9z M98,951.7h-5.6l7.8-6.8h5.6L98,951.7z M88.9,951.7h-6l7.8-6.8h6L88.9,951.7z M79.5,951.7h-5.9l7.8-6.8h5.9
					L79.5,951.7z M121.5,942.6h-2.8l-7.9-6.8h1.3C112.6,935.7,121,935.4,121.5,942.6z M110.5,951.7l7.8-6.8h3.1
					c-0.5,7.1-8.9,6.8-9.3,6.8H110.5z M71.7,944.9H78l-7.8,6.8h-5.4L71.7,944.9z"/>
				<polygon class="st2" points="61,944 148,944 155.4,941.7 58.9,941.7 				"/>
			</g>
		</g>
	</g>
	<g>
		<g>
			<path class="st1" d="M92.8,862.4c-0.1-0.8-0.8-1.6-1.6-1.6c-0.6,0-1.2,0.5-1.4,1.1c-0.1,0.1-0.1,0.3-0.1,0.5v0.1c0,0,0,0,0,0.1
				c0,0.2,0,0.5,0.1,0.8c1.2,5.2,8.8,5.5,13.8,1.3C103.7,864.6,94.5,868.9,92.8,862.4z"/>
			<path class="st1" d="M91.1,900.1c-6-3.8-15.6-6.8-15.6-6.8l4.6-4l-1.9-3.5l0,0c-0.3,0.4-0.6,0.7-1,1c0,0-0.1,0-0.1,0.1l0,0
				c-1.3,0.9-3.2,1.4-5,1c-0.6-0.1-1.2-0.4-1.7-0.7c-2.1,0.3-2.5,0.1-3.5-0.9c0,0-0.5-0.7-0.5-0.8c1.1,0.6,1.8,0.6,2.9,0.5
				c-0.5-0.8-0.5-1.8-0.1-2.7c0.6-1.2,2-2.4,3.7-3l0.2-0.2l-0.3-0.5c-2.4,0.4-5.1-0.6-5.8-2.8c-0.4-1.2-0.2-2.3,0.4-3.3
				c-1.1-0.2-1.7-0.2-2.8,0.4c0-0.1,0.6-0.8,0.6-0.8c1.1-1.1,1.5-1.3,3.6-0.9c0.5-0.3,1-0.5,1.6-0.7c2.3-0.5,4.8,0.7,5.7,2.7
				l0.5-0.1c-0.3-2.1,0.8-4.4,2.6-5.6c1-0.7,2.1-0.8,3.1-0.5c0.1-1.1,0-1.8-0.7-2.7c0.1,0,0.8,0.3,0.9,0.3c1.2,0.7,1.5,1.1,1.3,3.2
				c0.4,0.4,0.7,0.8,0.9,1.4c0.8,2.3-0.2,5.3-2.3,6.6c-0.1,0.1-0.2,0.1-0.3,0.1c3.1,3.6,9.1,6.2,12.7,8.6c0,0,0.4,4.7-1.2,9.9
				C92.7,897.8,91.1,900.1,91.1,900.1z"/>
			<path class="st1" d="M161.7,896.3c0,0-9.8,2.9-13.8,15.4c0,0.1,0,0.1-0.1,0.2l-1.7,0.1c0,0,0-0.1,0-0.2c0.6-1.5,0.2-3.2-1.1-4.3
				c-1.7-1.5-4.5-1.4-6.1,0.3c-0.4,0.4-0.7,0.9-0.9,1.3c-1.8,0.6-2,1-2.2,2.4c0,0.1,0,0.9,0,1c0.5-1,1-1.4,2-1.7
				c0.1,1,0.5,2,1.4,2.7c0.4,0.3,0.8,0.6,1.3,0.8l0.1,1.1h0.1c-0.6,0.6-1,1.3-1.2,2.2c-0.1,0.5-0.1,1.1,0,1.6
				c-1.2,1.4-1.2,1.9-0.6,3.2c0,0.1,0.5,0.8,0.5,0.8c-0.1-1.1,0.1-1.7,0.7-2.5c0.6,0.8,1.5,1.4,2.7,1.5c2.3,0.3,4.6-1.3,5-3.5
				c0.1-0.3,0.1-0.6,0.1-0.8l2.1-0.3c0,0,0,0.1,0,0.3l0,0c0,0.6,0.1,1.3,0.5,1.9c1.1,2,3.7,2.9,5.7,2c1-0.5,1.7-1.3,2.1-2.2
				c0.8,0.6,1.2,1,1.4,2.2l0.2-0.9c0.2-1.4,0.1-1.8-1.5-2.9c-0.1-0.5-0.2-1-0.5-1.5c0,0,0,0,0-0.1l0,0c-0.1-0.2-0.2-0.3-0.3-0.5
				c-0.1-0.1-0.1-0.2-0.2-0.2c-0.3-0.3-0.6-0.6-1-0.9l-0.1-2.3l6.7-0.1v-7.6l3.2-2C166.4,902.5,162.3,900.6,161.7,896.3z"/>
			<path class="st1" d="M193.7,913.8l2.2,0.9v-7.9c-6.3-0.2-3.2-13-3.2-13c-14.1,2.9-10.2-7.1-10.2-7.1c5.3-0.7,14.3-5.8,13.6-14
				c-1.2-15.4-39.7-9.6-51.1-8.9c-11.5,0.7-6.1-2.6,3.5-3.4c9.6-0.8-4.5-12.2-4.5-12.2s3.4,3.2-10.9,10.9c-14.3,7.7,4.3,9.3,4.3,9.3
				c-4.6,4.2,2.8,7,2.8,7c-2.5-3.4,1.8-6.2,1.8-6.2s32.2-6.5,43.4-1.8s1.2,17.7-6.8,15.2c-8.1-2.5-25.1-0.7-25.1-0.7l-13.8,18
				c15.4-11.8,24.1-9,24.1-9c5.7,12.8,10.1,10.1,17.2,12.7c7.1,2.6,4.7,9.1,4.7,9.1h-4.1c0.3-0.9,0.3-1.9-0.1-2.8
				c-0.9-2.1-3.4-3.2-5.6-2.4c-0.5,0.2-1,0.5-1.4,0.8c-1.8-0.2-2.2,0-3,1.2c0,0-0.4,0.8-0.4,0.9c0.9-0.7,1.5-0.8,2.5-0.7
				c-0.4,0.9-0.4,2,0,3c0.4,0.9,1,1.5,1.8,2l0.8,0.9c-0.5,0.3-0.9,0.6-1.3,1c-0.4,0.4-0.6,0.9-0.8,1.4c-1.7,0.7-1.9,1.1-2,2.6
				c0,0.1,0,0.9,0.1,1c0.4-1.1,0.9-1.4,1.8-1.8c0.1,1,0.7,1.9,1.6,2.6c1.8,1.3,4.5,1,6-0.8c0.6-0.7,0.9-1.6,0.9-2.4h1.8
				c0.1,0.4,0.3,0.9,0.5,1.3c1.2,2,3.9,2.7,5.9,1.6c1-0.5,1.6-1.4,1.9-2.4c0.9,0.5,1.3,1,1.6,2.1l0.2-0.9c0.1-1.4-0.1-1.8-1.7-2.8
				c-0.1-0.5-0.3-1-0.6-1.5c-0.3-0.4-0.6-0.7-0.9-1C191.6,914.2,193.7,913.8,193.7,913.8z"/>
			<path class="st1" d="M127.5,881.8c0,0-10,19.5-49.7,23.8c0.1-0.3,0.1-0.5,0.1-0.8c0.2-2.5-1.6-5.1-4-5.8
				c-0.6-0.2-1.1-0.2-1.6-0.1c-1.6-1.4-2-1.4-3.3-0.8c-0.1,0-0.8,0.5-0.8,0.5c1.2-0.1,1.7,0.2,2.6,1c-0.8,0.6-1.3,1.6-1.4,2.8
				c-0.1,2.3,1.3,4.6,3.4,5.5l-0.2,0.4c-2-0.5-4.2,0.3-5.5,2.1c-0.4,0.5-0.6,1.1-0.8,1.7c-1.7,1-1.9,1.4-1.9,2.9c0,0.1,0.1,1,0.1,1
				c0.4-1.1,0.8-1.6,1.7-2.1c0.2,1.1,0.9,2,1.9,2.6c2.1,1.2,4.9,0,6.4-2.1c0,0,0,0,0-0.1l0.6,0.1l0.1,0.4c-0.3,1.8,0.1,3.7,0.9,4.8
				c0.6,0.9,1.5,1.2,2.5,1.2c-0.4,1.1-0.7,1.7-1.8,2.4l0.9-0.1c1.4-0.4,1.7-0.7,2.4-2.7c0.5-0.3,0.9-0.6,1.3-1.1
				c0.7-0.8,1.1-1.7,1.3-2.7l0,0c0-0.1,0-0.1,0-0.2c0.2-0.8,0.2-1.6,0-2.3l3.8,0.6l0.3,6.1c0,0,14.2-8.6,30.3-6.9
				c0,0,1.5-1.9,0.4-3.2s-2.3-9.8,1.3-11.9c0,0-1.6,11.1,5.7,7.2c7.3-3.9,12.4-6.3,12.4-6.3l12.8-17.6h-22.2V881.8z"/>
		</g>
		<g>
			<path class="st1" d="M125.8,849.3l-4.6-0.4c-0.3,0-0.7,0.1-0.9,0.3l0,0c-0.2,0.1-0.4,0.3-0.5,0.6l-0.4,0.8
				c-0.2,0.4-0.1,0.2-0.5,1l-2,3.6l2.2-6.3l-12.2-0.5c-0.4,0-1,0.2-1.3,0.4c-0.2,0.1-0.6,0.3-0.7,0.5l-2,1.6l0,0l-6.7,0.5
				c-0.4,0-0.7,0.1-0.7,0.5l-0.3,2.7c0,0,0.3,0,0.4,0l3.9-0.7c0,0-0.3,1.1-3.3,1.6c-3,0.4,0.7,7.1,0.9,7.5c0.1,0.1,0.2,0.5,0.4,0.6
				l0.4,0.1c0.4,0.1,1.1-0.2,1.4-0.4c1.6-0.7,6.5-2.4,7.7,1.2c1.4,4.3-4.6,5.6-7.8,4.8c-0.1,0-0.1,0-0.1,0.1l0.1,5.6
				c0.1,0,0.1,0,0.1,0.1c0.9-0.8,6-5.4,10.7-3.5v0.1c-1.1,0.6-11.3,6.2-12,11.7c-0.7,5.6-0.7,14.7-3.6,16.7c-0.1,0,0,0.2,0.1,0.1
				l5.8-2.8l0.7-0.4c0.1,0,0.3-0.1,0.4-0.1l2.5-7.3l-0.6,6.6c2-0.7,4.1-1.6,6.2-2.5l2.9-12.2l-0.2,10.9c1.9-1,3.6-2.2,5.2-3.6
				l3.2-14.2v10.9l0.1-0.1l4.1-4.2c0.2-0.2,0.3-0.4,0.3-0.7c0-0.5,0-1.3,0-1.3v-18.8c0-0.1,0-0.3-0.1-0.4l-0.6-0.9
				c-0.1-0.2-0.3-0.3-0.4-0.4l-2-1l2.1-0.6c0,0,0.1,0,0.3-0.1c0.6-0.2,1-0.7,1.1-1.2l1.4-5.8C126.5,849.6,126.2,849.2,125.8,849.3z
				 M111.1,851l-0.9,1c-0.1,0.1-0.3,0.2-0.5,0.2l-4.6-0.1c-0.3,0-0.5-0.4-0.2-0.6l1.1-1c0.2-0.1,0.4-0.2,0.6-0.2l4.4,0.1
				C111.2,850.4,111.3,850.8,111.1,851z M123.4,854.8c-0.1,0.3-0.3,0.5-0.6,0.6l-3.1,0.1l3.7-4.9h1.2L123.4,854.8z"/>
			<polygon class="st1" points="121.5,852.5 123.4,852.9 120.7,853.7 			"/>
			<polygon class="st1" points="120.6,853.9 122.5,854.3 119.8,855.1 			"/>
		</g>
	</g>
	<g>
		<g>
			<g>
				<g>
					<g>
						<path class="st2" d="M517.7,909.8h-6.4l7.6-6.3h5.5L517.7,909.8z M507.9,909.8h-5.3l7.6-6.3h5.3L507.9,909.8z M499.2,909.8
							h-5.4l7.6-6.3h5.4L499.2,909.8z M490.5,909.8h-5.8l7.6-6.3h5.8L490.5,909.8z M481.3,909.8h-5.6l7.6-6.3h5.6L481.3,909.8z
							 M481.4,911.9l7.6,6.3h-5.3l-7.6-6.3H481.4z M484.7,911.9h5.4l7.6,6.3h-5.4L484.7,911.9z M493.5,911.9h5.8l7.6,6.3h-5.8
							L493.5,911.9z M502.6,911.9h5.6l7.6,6.3h-5.6L502.6,911.9z M478.6,903.5h1.3l-7.6,6.3h-2.7
							C470.1,903.2,478.3,903.5,478.6,903.5z M478.6,918.2c-0.4,0-8.5,0.3-9-6.3h3l7.6,6.3H478.6z M524.4,918.2h-5.2l-7.6-6.3h6
							L524.4,918.2z"/>
						<polygon class="st2" points="465.6,909 465.4,911.1 528,911.1 530,909 						"/>
					</g>
					<g>
						<path class="st2" d="M297.4,907.3h5.5l7.6,6.3h-6.4L297.4,907.3z M306.3,907.3h5.3l7.6,6.3h-5.3L306.3,907.3z M315,907.3h5.4
							l7.6,6.3h-5.4L315,907.3z M323.8,907.3h5.8l7.6,6.3h-5.8L323.8,907.3z M332.9,907.3h5.6l7.6,6.3h-5.6L332.9,907.3z
							 M345.8,915.7l-7.6,6.3h-5.3l7.6-6.3H345.8z M329.5,921.9h-5.4l7.6-6.3h5.4L329.5,921.9z M320.8,921.9H315l7.6-6.3h5.8
							L320.8,921.9z M311.6,921.9H306l7.6-6.3h5.6L311.6,921.9z M352.2,913.6h-2.7l-7.6-6.3h1.3
							C343.6,907.2,351.7,906.9,352.2,913.6z M341.6,921.9l7.6-6.3h3c-0.5,6.6-8.6,6.3-9,6.3H341.6z M304.1,915.7h6l-7.6,6.3h-5.2
							L304.1,915.7z"/>
						<polygon class="st2" points="356.9,914.7 356.5,912.7 291.8,912.7 293.8,914.8 356.9,914.8 						"/>
					</g>
				</g>
				<g>
					<g>
						<g>
							<path class="st1" d="M380.6,878.3c-0.1-0.6-0.7-1.2-1.3-1.2c-0.5,0-1,0.3-1.1,0.8c0,0.1-0.1,0.2-0.1,0.4c0,0,0,0,0,0.1l0,0
								c0,0.2,0,0.4,0.1,0.6c1,4,7.1,4.3,11.2,1C389.3,880,381.9,883.3,380.6,878.3z"/>
							<path class="st1" d="M379.2,907.4c-4.8-3-12.7-5.3-12.7-5.3l3.8-3.1l-1.5-2.7l0,0c-0.2,0.3-0.5,0.5-0.8,0.8c0,0,0,0-0.1,0.1
								l0,0c-1.1,0.7-2.6,1-4,0.7c-0.5-0.1-1-0.3-1.4-0.5c-1.7,0.2-2,0.1-2.8-0.7c0,0-0.4-0.5-0.4-0.6c0.9,0.4,1.4,0.5,2.3,0.4
								c-0.4-0.6-0.4-1.4-0.1-2.1c0.5-0.9,1.6-1.8,3-2.3l0.1-0.1l-0.2-0.4c-2,0.3-4.1-0.4-4.7-2.2c-0.3-0.9-0.2-1.8,0.3-2.5
								c-0.9-0.2-1.4-0.2-2.3,0.3c0,0,0.4-0.6,0.5-0.7c0.9-0.9,1.2-1,2.9-0.7c0.4-0.2,0.8-0.4,1.3-0.5c1.9-0.4,3.9,0.5,4.7,2.1
								l0.4-0.1c-0.2-1.6,0.6-3.4,2.1-4.3c0.8-0.5,1.7-0.6,2.5-0.4c0.1-0.9,0-1.4-0.6-2.1c0,0,0.7,0.2,0.7,0.3c1,0.5,1.2,0.8,1,2.5
								c0.3,0.3,0.5,0.6,0.7,1.1c0.7,1.8-0.2,4.1-1.9,5.1c-0.1,0-0.1,0.1-0.2,0.1c2.5,2.8,7.3,4.8,10.3,6.6c0,0,0.3,3.6-1,7.7
								C380.5,905.6,379.2,907.4,379.2,907.4z"/>
							<path class="st1" d="M436.3,904.5c0,0-8,2.2-11.2,11.9c0,0.1,0,0.1-0.1,0.2h-1.4v-0.1c0.4-1.1,0.1-2.5-0.9-3.3
								c-1.4-1.2-3.6-1-4.9,0.2c-0.3,0.3-0.5,0.7-0.7,1c-1.4,0.5-1.6,0.8-1.8,1.8v0.7c0.4-0.8,0.8-1,1.6-1.3c0,0.8,0.4,1.5,1.1,2.1
								c0.3,0.3,0.7,0.4,1.1,0.6l0.1,0.8h0.1c-0.5,0.5-0.8,1-0.9,1.7c-0.1,0.4-0.1,0.8,0,1.2c-0.9,1.1-0.9,1.5-0.5,2.4l0.4,0.6
								c-0.1-0.9,0.1-1.3,0.6-1.9c0.5,0.6,1.2,1.1,2.2,1.2c1.9,0.2,3.7-1,4.1-2.7c0-0.2,0.1-0.4,0.1-0.6l1.7-0.2c0,0,0,0.1,0,0.2
								l0,0c0,0.5,0.1,1,0.4,1.5c0.9,1.6,3,2.3,4.7,1.5c0.8-0.4,1.4-1,1.7-1.7c0.7,0.5,1,0.8,1.1,1.7l0.2-0.7
								c0.2-1.1,0.1-1.4-1.2-2.2c0-0.4-0.2-0.8-0.4-1.2c0,0,0,0,0-0.1l0,0c-0.1-0.1-0.2-0.3-0.3-0.4c-0.1-0.1-0.1-0.1-0.2-0.2
								c-0.2-0.2-0.5-0.5-0.8-0.7v-1.8h5.4v-5.9l2.6-1.5C440.1,909.3,436.8,907.8,436.3,904.5z"/>
							<path class="st1" d="M462.2,918l1.8,0.7v-6.1c-5.1-0.2-2.6-10-2.6-10c-11.4,2.3-8.2-5.5-8.2-5.5c4.3-0.5,11.5-4.5,11-10.8
								c-0.9-11.8-32.1-7.4-41.4-6.9s-4.9-2,2.8-2.6c7.8-0.6-3.6-9.4-3.6-9.4s2.7,2.4-8.8,8.4c-11.6,6,3.5,7.1,3.5,7.1
								c-3.7,3.3,2.3,5.4,2.3,5.4c-2-2.6,1.4-4.8,1.4-4.8s26-5,35.1-1.4s1,13.6-5.5,11.7c-6.5-1.9-20.3-0.5-20.3-0.5l-11.2,13.9
								c12.4-9.1,19.5-7,19.5-7c4.6,9.9,8.2,7.8,13.9,9.8c5.8,2,3.8,7.1,3.8,7.1h-3.3c0.3-0.7,0.3-1.4-0.1-2.2
								c-0.7-1.6-2.8-2.5-4.5-1.9c-0.4,0.1-0.8,0.4-1.1,0.6c-1.5-0.2-1.8,0-2.5,0.9c0,0-0.4,0.6-0.4,0.7c0.7-0.5,1.2-0.6,2-0.5
								c-0.3,0.7-0.3,1.5,0,2.3c0.3,0.7,0.8,1.2,1.4,1.5l0.6,0.7c-0.4,0.2-0.7,0.5-1,0.8s-0.5,0.7-0.6,1.1c-1.4,0.6-1.6,0.9-1.6,2
								v0.7c0.3-0.8,0.7-1.1,1.5-1.4c0.1,0.8,0.5,1.5,1.3,2c1.5,1,3.7,0.8,4.9-0.6c0.5-0.6,0.7-1.2,0.7-1.9h1.4
								c0.1,0.3,0.2,0.7,0.4,1c1,1.5,3.1,2,4.8,1.2c0.8-0.4,1.3-1.1,1.5-1.8c0.7,0.4,1,0.7,1.3,1.6l0.1-0.7c0.1-1.1-0.1-1.4-1.3-2.2
								c-0.1-0.4-0.2-0.8-0.5-1.1c-0.2-0.3-0.5-0.6-0.8-0.8C460.5,918.3,462.2,918,462.2,918z"/>
							<path class="st1" d="M408.6,893.3c0,0-8.1,15-40.2,18.3c0-0.2,0.1-0.4,0.1-0.6c0.1-1.9-1.3-3.9-3.2-4.5
								c-0.5-0.1-0.9-0.1-1.3-0.1c-1.3-1.1-1.6-1.1-2.7-0.7l-0.6,0.4c0.9,0,1.4,0.2,2.1,0.8c-0.6,0.5-1.1,1.2-1.1,2.2
								c-0.1,1.8,1.1,3.6,2.7,4.3l-0.2,0.3c-1.6-0.4-3.4,0.2-4.4,1.6c-0.3,0.4-0.5,0.8-0.6,1.3c-1.4,0.8-1.5,1.1-1.5,2.3l0.1,0.8
								c0.3-0.9,0.7-1.2,1.4-1.7c0.2,0.8,0.7,1.6,1.5,2c1.7,0.9,4,0,5.2-1.7l0,0l0.5,0.1v0.3c-0.2,1.4,0.1,2.9,0.7,3.7
								c0.5,0.7,1.2,1,2,0.9c-0.3,0.8-0.6,1.3-1.4,1.8l0.7-0.1c1.1-0.3,1.4-0.6,2-2.1c0.4-0.2,0.7-0.5,1.1-0.9
								c0.5-0.6,0.9-1.3,1.1-2.1l0,0c0,0,0-0.1,0-0.2c0.1-0.6,0.1-1.2,0-1.8l3.1,0.5l0.2,4.7c0,0,11.5-6.6,24.5-5.3
								c0,0,1.2-1.5,0.3-2.5c-0.9-1-1.9-7.6,1.1-9.2c0,0-1.3,8.5,4.6,5.5s10.1-4.9,10.1-4.9l10.4-13.6h-18.3V893.3z"/>
						</g>
					</g>
					<g>
						<path class="st1" d="M407.2,868.2l-3.8-0.3c-0.3,0-0.5,0.1-0.8,0.2l0,0c-0.2,0.1-0.3,0.3-0.4,0.5l-0.3,0.6
							c-0.2,0.3-0.1,0.2-0.4,0.8l-1.6,2.8l1.7-4.9l-9.9-0.4c-0.3,0-0.8,0.2-1.1,0.3c-0.2,0.1-0.4,0.2-0.6,0.3l-1.6,1.2l0,0l-5.4,0.4
							c-0.3,0-0.6,0.1-0.6,0.4l-0.3,2.1c0,0,0.2,0,0.3,0l3.1-0.6c0,0-0.2,0.9-2.7,1.2c-2.4,0.3,0.6,5.5,0.7,5.8
							c0.1,0.1,0.2,0.4,0.4,0.5l0.3,0.1c0.3,0.1,0.9-0.2,1.1-0.3c1.3-0.5,5.3-1.8,6.2,1c1.1,3.3-3.7,4.3-6.3,3.7c0,0-0.1,0-0.1,0.1
							l0.1,4.4c0.1,0,0.1,0,0.1,0c0.7-0.7,4.9-4.2,8.7-2.7c0,0,0,0,0,0.1c-0.9,0.5-9.2,4.8-9.7,9c-0.6,4.3-0.6,11.4-2.9,12.9
							c-0.1,0,0,0.1,0.1,0.1l4.7-2.1l0.6-0.3c0.1,0,0.2-0.1,0.3-0.1l2-5.6l-0.5,5.1c1.6-0.6,3.3-1.3,5-1.9l2.4-9.4l-0.2,8.4
							c1.5-0.8,2.9-1.7,4.2-2.8l2.6-10.9v8.4l0.1-0.1l3.4-3.2c0.1-0.1,0.2-0.3,0.2-0.6c0-0.4,0-1,0-1v-14.5c0-0.1,0-0.2-0.1-0.3
							l-0.5-0.7c-0.1-0.1-0.2-0.2-0.3-0.3l-1.6-0.7l1.7-0.5c0,0,0.1,0,0.2-0.1c0.5-0.1,0.8-0.5,0.9-1l1.1-4.5
							C407.8,868.4,407.6,868.1,407.2,868.2z M395.4,869.5l-0.8,0.8c-0.1,0.1-0.3,0.2-0.4,0.2l-3.7-0.1c-0.3,0-0.4-0.3-0.2-0.4
							l0.9-0.8c0.1-0.1,0.3-0.1,0.5-0.1l3.5,0.1C395.4,869.1,395.5,869.3,395.4,869.5z M405.3,872.5c-0.1,0.2-0.3,0.4-0.5,0.5
							l-2.5,0.1l3-3.8h1L405.3,872.5z"/>
						<polygon class="st1" points="403.8,870.7 405.3,871 403.1,871.6 						"/>
						<polygon class="st1" points="403.1,871.7 404.6,872.1 402.4,872.7 						"/>
					</g>
				</g>
				<g>
					<g>
						<path class="st1" d="M340.1,876.7c0.1-0.4,0.3-0.6,0.6-0.8c0.3-0.2,0.6-0.2,1-0.2l5.2,1.4c0.4,0.1,0.6,0.3,0.8,0.6
							c0.2,0.3,0.2,0.7,0.1,1l-1.5,5l4,1.1l-0.8,2.7l-11.8-3.1L340.1,876.7z M342.2,878.7l-1.1,3.7l2.7,0.7l1.1-3.7L342.2,878.7z"/>
						<path class="st1" d="M338.4,884.2l11,2.9l0.6-1.9l-4-1.1l1.6-5.4c0.1-0.3,0.1-0.5-0.1-0.8c-0.1-0.2-0.3-0.4-0.5-0.4l-5.2-1.4
							c-0.2-0.1-0.4,0-0.7,0.1c-0.2,0.1-0.4,0.3-0.5,0.6l0,0L338.4,884.2z M344.2,883.6l-3.5-0.9l1.3-4.4l3.5,0.9L344.2,883.6z"/>
					</g>
					<g>
						<path class="st1" d="M347.5,866.7l2,1l1.7-2.9l2.2,1.2l-1.7,2.9l1.9,1l3.1-5.3l2.2,1.2l-4.5,7.7l-10.7-5.7l4.5-7.7l2.3,1.2
							L347.5,866.7z"/>
						<path class="st1" d="M344.4,867.7l10,5.3l4.1-7l-1.6-0.8l-3.1,5.3l-2.6-1.4l1.7-2.9l-1.6-0.8l-1.7,2.9l-2.7-1.4l3.1-5.3
							l-1.6-0.9L344.4,867.7z"/>
					</g>
					<g>
						<path class="st1" d="M360.5,849.7l-1.9,2l7.2,6.2l-1.9,2l-7.2-6.2l-1.9,2l-1.9-1.6l5.7-6.1L360.5,849.7z"/>
						<path class="st1" d="M356.7,853.3l7.2,6.2l1.4-1.5l-7.2-6.2l1.9-2l-1.3-1.1l-5.2,5.5l1.3,1.1L356.7,853.3z"/>
					</g>
					<g>
						<path class="st1" d="M368.6,843.3l1.3,1.7l2.9-1.9l1.5,2l-2.9,1.9l1.3,1.7l5.2-3.5l1.5,2l-7.5,5.1l-7.1-9.5l7.5-5.1l1.5,2
							L368.6,843.3z"/>
						<path class="st1" d="M365.3,842.9l6.6,8.9l6.8-4.6l-1-1.4l-5.2,3.5l-1.7-2.3l2.9-1.9l-1-1.4l-2.9,1.9l-1.8-2.4l5.2-3.5
							l-1.1-1.4L365.3,842.9z"/>
					</g>
					<g>
						<path class="st1" d="M391.4,842.1l-4.1-2.7l-1.9,0.7l1.5,3.7l-2.7,1l-4.5-10.9l7.7-2.9c0.4-0.1,0.7-0.2,1.1,0
							c0.4,0.1,0.6,0.3,0.7,0.7l2,4.8c0.1,0.3,0.1,0.7,0,1s-0.4,0.6-0.8,0.7l4.1,2.7L391.4,842.1z M384.4,837.8l3.7-1.4l-1-2.5
							l-3.7,1.4L384.4,837.8z"/>
						<path class="st1" d="M380.2,834.2l4.2,10.1l1.9-0.7l-1.5-3.7l2.5-0.9l4.1,2.7l2.2-0.8l-4.1-2.7l0.7-0.3
							c0.3-0.1,0.5-0.3,0.6-0.5s0.1-0.4,0-0.7l-2-4.8c-0.1-0.2-0.2-0.4-0.5-0.4c-0.3-0.1-0.5-0.1-0.8,0L380.2,834.2z M384.1,838.3
							l-1.3-3.3l4.5-1.7l1.3,3.2L384.1,838.3z"/>
					</g>
					<g>
						<path class="st2" d="M423.3,827.7l-0.8,11.7l-2.9-0.2l0.6-9.1l-3.1,4.7l-1.8-0.1l-2.4-5l-0.6,9.1l-2.9-0.2l0.8-11.7l4.4,0.3
							l1.9,3.1l2.3-2.9L423.3,827.7z"/>
						<path class="st2" d="M420.1,838.9l2.1,0.1l0.7-10.9l-3.8-0.2l-2.5,3.2l-2.1-3.5l-3.8-0.2l-0.7,10.9l2.1,0.1l0.6-10.3l3,6.2
							l1.4,0.1l3.8-5.8L420.1,838.9z"/>
					</g>
					<g>
						<path class="st2" d="M435.9,843.2l-6.6-2.2c-0.4-0.1-0.7-0.3-0.9-0.6c-0.2-0.3-0.2-0.6-0.1-1l3.6-9.9l2.8,0.9l-3.1,8.7
							l3.9,1.3l3.1-8.7l2.8,0.9l-3.6,9.9c-0.1,0.3-0.4,0.6-0.7,0.7C436.7,843.4,436.3,843.4,435.9,843.2z"/>
						<path class="st2" d="M436.1,842.9c0.3,0.1,0.6,0.1,0.8,0c0.2-0.1,0.4-0.2,0.5-0.5l3.4-9.5l-2-0.7l-3.1,8.7l-4.6-1.5l3.1-8.7
							l-2-0.7l-3.4,9.5c-0.1,0.2-0.1,0.4,0.1,0.6c0.1,0.2,0.3,0.4,0.6,0.5L436.1,842.9z"/>
					</g>
					<g>
						<path class="st2" d="M449.2,850.3v-4.8l-1.7-1.1l-2.3,3.3l-2.4-1.5l6.7-9.8l7,4.4c0.3,0.2,0.6,0.5,0.7,0.8
							c0.1,0.3,0,0.7-0.1,0.9l-3,4.3c-0.2,0.3-0.5,0.5-0.9,0.5s-0.7,0-1.1-0.2v4.8L449.2,850.3z M448.8,842.3l3.3,2.1l1.6-2.3
							l-3.3-2.1L448.8,842.3z"/>
						<path class="st2" d="M449.6,850.1l2,1.3v-4.8l0.6,0.4c0.3,0.2,0.5,0.2,0.8,0.2s0.4-0.2,0.6-0.4l3-4.3c0.1-0.2,0.2-0.4,0.1-0.6
							c-0.1-0.3-0.2-0.5-0.5-0.6l-6.6-4.1l-6.3,9.1l1.7,1.1l2.3-3.3l2.2,1.4L449.6,850.1z M452.3,844.9l-4-2.5l2-2.9l4,2.5
							L452.3,844.9z"/>
					</g>
					<g>
						<path class="st2" d="M470,853c0.3,0.3,0.4,0.6,0.4,1s-0.1,0.7-0.4,0.9l-4,3.5c-0.3,0.2-0.6,0.3-1,0.3s-0.7-0.2-1-0.5l-3.7-3.8
							l-3.1,2.7l-2-2l9-7.9L470,853z M467.1,853.6l-2.7-2.8l-2.1,1.8l2.7,2.8L467.1,853.6z"/>
						<path class="st2" d="M460.4,853.8l4,4.1c0.2,0.2,0.4,0.3,0.7,0.3s0.5,0,0.7-0.2l4-3.5c0.2-0.2,0.3-0.3,0.3-0.6
							s-0.1-0.5-0.3-0.7l-5.4-5.6L456,855l1.4,1.5L460.4,853.8z M465,856l-3.3-3.4l2.7-2.3l3.3,3.4L465,856z"/>
					</g>
					<g>
						<path class="st2" d="M480.4,868.3l-10.7,5.7l-1.4-2.4l3.6-1.9l-1.9-3.3l-3.6,1.9l-1.4-2.4l10.7-5.7l1.4,2.4l-4.8,2.6l1.9,3.3
							l4.8-2.6L480.4,868.3z"/>
						<path class="st2" d="M468.9,871.8l1,1.7l10-5.3l-1-1.7l-4.8,2.6l-2.3-4l4.8-2.6l-1-1.7l-10,5.3l1,1.7l3.6-1.9l2.3,4
							L468.9,871.8z"/>
					</g>
					<g>
						<path class="st2" d="M479.1,883.9l-5.4,1.4l-0.7-2.7l5.4-1.4l5.2-5.9l1,3.6l-2.4,2.7l3.4,1.2l1,3.6L479.1,883.9z"/>
						<path class="st2" d="M479.1,883.5l7,2.4l-0.8-2.7l-3.8-1.3l2.6-2.9l-0.8-2.7l-4.8,5.4l-5.1,1.3l0.5,1.9L479.1,883.5z"/>
					</g>
				</g>
				<polygon class="st2" points="297,927.9 348.7,927.9 353.2,926.6 295.7,926.6 				"/>
				<polygon class="st2" points="525,900 473.2,900 468.7,898.7 526.2,898.7 				"/>
			</g>
		</g>
		<g>
			<path class="st2" d="M322,897c0.3,0.1,0.4,0.3,0.4,0.6s-0.2,0.4-0.5,0.4c-1.2,0-2.4,0-3.6,0c-0.3,0-0.4,0.2-0.4,0.5
				s0.1,0.4,0.4,0.4c1,0,2,0.1,3,0.1c0.3,0,0.4,0.1,0.4,0.4c0,0.5-0.1,0.5-0.4,0.5c-0.9,0-1.9,0-2.8,0c-0.4,0-0.6,0.1-0.6,0.5
				s0.2,0.6,0.7,0.5c0.7-0.1,1.5-0.1,2.2,0c0.1,0,0.1,0,0.2,0c0.4-0.2,0.8-0.1,1.2,0c0.3,0.1,0.3,0.2,0.3,0.5s-0.1,0.4-0.4,0.4
				c-0.8,0-1.6,0-2.3,0c-0.8,0-1.6,0-2.4,0c-0.3,0-0.4-0.1-0.5-0.4c-0.1-0.5-0.1-0.9,0-1.3c0.1-0.4-0.1-0.8-0.1-1.2s0.1-0.8,0-1.2
				c-0.1-0.3,0.1-0.5,0.5-0.5c0.7,0,1.3,0.1,2-0.1h2.7V897z"/>
			<path class="st2" d="M326.6,901.7c-0.9,0-1.6,0-2.2-0.2c-0.3-0.1-0.7-0.3-0.9-0.5c-0.2-0.2-0.3-0.4-0.1-0.7
				c0.2-0.2,0.5-0.3,0.8-0.2c0.2,0.1,0.4,0.3,0.6,0.4c0.8,0.2,1.7,0.2,2.5,0.1c0.2,0,0.3,0,0.5-0.1c0.1,0,0.3-0.1,0.3-0.2
				c0-0.2-0.1-0.2-0.3-0.3c-0.4-0.1-0.7-0.2-1.1-0.2c-0.7,0-1.4-0.1-2.1-0.3c-0.4-0.1-0.9-0.3-1.1-0.7c-0.2-0.6,0-1.1,0.6-1.4
				c0.7-0.3,1.4-0.4,2.1-0.4c0.4,0,0.7,0,1.1,0s0.7,0.2,1.1,0.3c0.3,0.1,0.5,0.3,0.7,0.6c0.1,0.1,0,0.2-0.1,0.3
				c-0.2,0.2-0.3,0.3-0.6,0.2c-0.1,0-0.3-0.1-0.4-0.2c-0.8-0.5-1.7-0.5-2.6-0.4c-0.2,0-0.6,0-0.6,0.4c0,0.3,0.4,0.4,0.6,0.4
				c0.6,0.1,1.2,0.2,1.9,0.2c0.5,0,1,0.2,1.5,0.4c0.5,0.3,0.6,0.7,0.6,1.2c-0.1,0.5-0.5,0.7-0.9,0.8
				C327.9,901.6,327.2,901.9,326.6,901.7z"/>
			<path class="st2" d="M333.8,899.5c0,0.6,0,1.1,0,1.7c0,0.4-0.2,0.6-0.6,0.5c-0.2,0-0.3-0.1-0.3-0.3c0-0.1-0.1-0.2-0.1-0.3
				c0-0.7,0-1.4,0-2.2c0-0.3,0-0.5,0-0.8c0-0.2-0.2-0.4-0.4-0.3c-0.5,0.1-1.1-0.1-1.6,0c-0.2,0-0.4,0-0.4-0.3s0.1-0.6,0.3-0.6
				c0.9,0.1,1.9,0,2.8,0c0.8,0,1.7,0.1,2.4,0c0.2,0,0.4,0,0.4,0.3c0,0.2,0,0.5-0.3,0.6c-0.1,0-0.2,0.1-0.4,0.1h-1.2
				c-0.4,0-0.6,0.1-0.6,0.5C333.8,898.8,333.8,899.2,333.8,899.5L333.8,899.5z"/>
			<path class="st2" d="M337.6,901.8c-0.3,0-0.5-0.2-0.4-0.6c0-0.3,0.2-0.3,0.5-0.3s0.5,0.2,0.5,0.4
				C338.3,901.6,337.9,901.8,337.6,901.8z"/>
		</g>
		<g>
			<path class="st1" d="M400.3,940.7c0.6,0.1,1.1,0.2,1.6,0.2s0.6,0.1,0.6,0.6s-0.1,0.6-0.6,0.6H396c-0.4,0-0.6-0.1-0.6-0.5
				c0-0.6,0-0.6,0.5-0.7c1.6-0.4,3.1-0.8,4.3-1.9c0.4-0.3,0.7-0.8,0.7-1.3c0-0.3-0.2-0.5-0.5-0.6c-1.1-0.4-2.1-0.2-3.1,0.3
				c-0.3,0.2-0.6,0.5-1.1,0.3c-0.3-0.1-0.5-0.3-0.6-0.5c-0.1-0.3,0.1-0.5,0.3-0.7c1.7-1.2,3.5-1.1,5.3-0.4c0.4,0.2,0.7,0.5,0.8,0.9
				c0.3,1.2-0.1,2.4-1.2,3.1C400.7,940.3,400.5,940.4,400.3,940.7z"/>
			<path class="st1" d="M407.7,942.1c-0.6,0-1.2,0-1.8-0.2c-1.3-0.3-2.3-1.6-2.1-2.9c0.1-0.4,0.1-0.8,0.1-1.2c0-0.9,1.3-1.8,2-2
				c1-0.3,2-0.3,3-0.2c1.1,0.2,2.1,0.5,2.5,1.6c0.5,1.2,0.4,2.6-0.3,3.7c-0.5,0.8-1.5,1-2.4,1.1
				C408.4,942.1,408.1,942.1,407.7,942.1z M408,936.9c-0.5,0-0.8,0-1.2,0.1c-1,0.2-1.5,0.8-1.6,1.8c0,1.1,0.3,1.6,1.4,1.9
				c0.4,0.1,0.8,0.2,1.3,0.2c1-0.1,1.9-0.4,2.3-1.5c0.3-0.7-0.2-1.9-0.8-2.1C408.9,937,408.4,936.8,408,936.9z"/>
			<path class="st1" d="M413.6,936.7c0.5-0.5,1-0.9,1.7-0.8c0.4,0,0.6,0.2,0.6,0.6c0,1.8,0,3.5,0,5.3c0,0.4-0.3,0.6-0.8,0.6
				c-0.4,0-0.6-0.2-0.6-0.6c0-0.7,0-1.3,0-2c0-0.6-0.1-1.2,0-1.8c0-0.2-0.1-0.4-0.4-0.4c-0.4,0-0.6-0.2-0.6-0.6L413.6,936.7
				L413.6,936.7z"/>
			<path class="st1" d="M421.3,942.1c-0.8,0.1-1.5,0-2.3-0.3c-0.4-0.2-0.7-0.5-1-0.8c-0.2-0.2-0.2-0.5,0-0.7
				c0.3-0.2,0.5-0.5,0.9-0.3s0.7,0.4,1,0.6c0.8,0.5,2.3,0.3,3.1-0.1c0.2-0.1,0.3-0.2,0.3-0.4c-0.1-0.2-0.2-0.4-0.4-0.5
				c-0.5-0.2-0.9-0.1-1.4-0.1c-0.4-0.1-0.6-0.3-0.6-0.6c0-0.6,0.1-0.7,0.6-0.7c0.4,0,0.8-0.1,1.2-0.2c0.3-0.1,0.3-0.2,0.2-0.5
				c-0.1-0.3-0.3-0.5-0.6-0.6c-1.1-0.3-2.1-0.1-3,0.6c-0.5,0.4-1.1,0.3-1.4-0.3c-0.1-0.2-0.1-0.4,0.2-0.6c0.7-0.6,1.4-0.9,2.4-1
				c1.2-0.2,2.2,0,3.2,0.5c0.6,0.3,1.1,1.2,0.8,1.8c-0.1,0.2-0.1,0.3-0.2,0.4c-0.2,0.3-0.1,0.5,0.1,0.7c0.4,0.5,0.5,1,0.4,1.6
				c-0.1,0.5-0.9,1.2-1.5,1.3C422.6,942.1,422,942.2,421.3,942.1z"/>
		</g>
		<g>
			<path class="st2" d="M481.3,923.2c0.7,0,1.1,0.4,1.5,0.8c0.2,0.3,0.5,0.5,0.7,0.8c0.2,0.2,0.5,0.2,0.8,0c0.5-0.4,0.9-0.9,1.4-1.3
				c0.3-0.2,0.9-0.4,1.2-0.2c0.2,0.1,0.2,0.1,0.1,0.3c-0.1,0.2-0.3,0.4-0.5,0.5c-0.5,0.3-0.8,0.8-1.2,1.2c-0.2,0.2-0.4,0.3-0.6,0.5
				c-0.2,0.2-0.3,0.4-0.3,0.7c0,0.4-0.1,0.8-0.1,1.1s-0.2,0.4-0.6,0.4c-0.2,0-0.4-0.3-0.4-0.5c0-0.6,0.1-1.3-0.4-1.8
				c-0.3-0.3-0.7-0.6-1-0.9c-0.4-0.3-0.8-0.7-1.2-1.1c-0.2-0.2-0.1-0.4,0.1-0.5C481.1,923.2,481.2,923.2,481.3,923.2z"/>
			<path class="st2" d="M493.5,927.9c-0.5,0.1-0.8-0.2-1.2-0.5c-0.4-0.4-0.8-0.8-1.3-1.1c-0.2-0.1-0.3-0.1-0.5,0
				c-0.5,0.4-0.9,0.7-1.3,1.2c-0.3,0.3-0.7,0.5-1.1,0.4c-0.1,0-0.1,0-0.2,0c-0.1,0-0.3,0.1-0.3-0.1c-0.1-0.2,0-0.3,0.1-0.4
				c0.2-0.2,0.4-0.3,0.7-0.5c0.5-0.4,0.8-0.8,1.3-1.1c0.2-0.1,0.2-0.3,0.1-0.5c-0.3-0.2-0.5-0.5-0.8-0.7c-0.5-0.3-0.8-0.7-1.3-1.1
				c-0.1-0.1-0.2-0.2-0.1-0.3c0.1-0.1,0.2-0.2,0.3-0.2c0.6,0,1.1,0.1,1.5,0.5s0.8,0.7,1.2,1c0.2,0.2,0.7,0,0.9-0.2
				c0.4-0.4,0.8-0.8,1.2-1.1s0.8-0.2,1.2-0.1c0.2,0,0.2,0.2,0.1,0.3c-0.2,0.2-0.3,0.4-0.6,0.6c-0.3,0.2-0.6,0.5-0.9,0.7
				c-0.2,0.2-0.3,0.3-0.5,0.4c-0.3,0.2-0.3,0.3,0,0.6c0.5,0.5,1.1,0.8,1.6,1.2c0.2,0.2,0.4,0.3,0.5,0.5c0.1,0.1,0.1,0.1,0.1,0.3
				c0,0.1-0.2,0.1-0.3,0.1L493.5,927.9L493.5,927.9z"/>
			<path class="st2" d="M500.2,923.2c0.3,0.1,0.4,0.3,0.4,0.6s-0.2,0.4-0.5,0.4c-1.2,0-2.4,0-3.6,0c-0.3,0-0.4,0.2-0.4,0.5
				s0.1,0.4,0.4,0.4c1,0,2,0.1,3,0.1c0.3,0,0.4,0.1,0.4,0.4c0,0.5-0.1,0.5-0.4,0.5c-0.9,0-1.9,0-2.8,0c-0.4,0-0.6,0.1-0.6,0.5
				s0.2,0.6,0.7,0.5c0.7-0.1,1.5-0.1,2.2,0c0.1,0,0.1,0,0.2,0c0.4-0.2,0.8-0.1,1.2,0c0.3,0.1,0.3,0.2,0.3,0.5s-0.1,0.4-0.4,0.4
				c-0.8,0-1.6,0-2.3,0c-0.8,0-1.6,0-2.4,0c-0.3,0-0.4-0.1-0.5-0.4c-0.1-0.5-0.1-0.9,0-1.3c0.1-0.4-0.1-0.8-0.1-1.2s0.1-0.8,0-1.2
				c-0.1-0.3,0.1-0.5,0.5-0.5c0.7,0,1.3,0.1,2-0.1h2.7V923.2z"/>
		</g>
		<g>
			<path class="st2" d="M361.8,947.4c0.1,0.4,0.5,0.7,0.8,1c0.6,0.7,0.8,1.5,0.8,2.4c0,0.4-0.4,0.7-0.9,0.6
				c-0.5-0.1-0.8-0.4-0.9-0.8c-0.5-2.2-2.2-3.3-4-4.2c-0.5-0.3-1.1-0.2-1.6,0.1c-1.7,1.1-1.8,2.5-0.4,4c0.5,0.5,1.1,1,1.6,1.5
				c0.5,0.4,1.1,0.7,1.7,0.8c0.4,0.1,0.7,0.1,1.1,0.3c0.5,0.3,0.7,0.7,0.6,1.2s-0.5,0.5-0.9,0.5c-1.9,0.1-3.7-1.7-5-2.8
				c-1.5-1.3-2.6-3.7-1.1-5.4c0.3-0.3,0.6-0.6,0.8-0.9c0.7-1,1.8-1.2,3-1.2c0.5,0,0.9,0.2,1.3,0.5c0.5,0.3,1,0.5,1.5,0.9
				L361.8,947.4z"/>
			<path class="st2" d="M376.5,959.9c-0.1,0.2-0.2,0.5-0.4,0.7c-0.3,0.4-0.7,0.6-1.3,0.5c-0.9-0.2-1.8-0.3-2.5-0.8
				c-0.1-0.1-0.2,0-0.3,0c-0.1,0.1-0.1,0.2,0,0.4c0.2,0.8,0.8,1.3,1.3,1.9c0.5,0.5,1.1,0.9,1.7,1.3c0.4,0.3,0.5,0.6,0.2,1
				c-0.2,0.4-0.6,0.5-1,0.2c-1.7-0.9-3.1-2.2-3.9-3.9c-0.2-0.5-0.3-1-0.3-1.5c0-0.6-0.3-0.9-0.8-1.1c-0.5-0.2-0.8,0-1.1,0.5
				c-0.3,0.5-0.6,0.9-0.8,1.4c-0.1,0.4-0.4,0.4-0.7,0.4c-0.6-0.1-1.1-0.8-0.8-1.2c0.6-0.9,0.9-1.9,1.5-2.7c0.3-0.4,0.5-1,0.7-1.4
				c0.4-0.6,0.7-1.3,1.1-1.9c0.2-0.3,0.6-0.3,0.9-0.1c0.5,0.3,1,0.7,1.6,0.9c1.3,0.6,2.5,1.4,3.7,2
				C376.9,957.1,377.3,958.5,376.5,959.9z M372.6,956.7c-0.6-0.3-1.2-0.7-1.9-1c-0.5-0.2-0.8-0.1-1,0.4c-0.2,0.4-0.2,0.7,0.3,1
				s1,0.5,1.5,0.9c0.8,0.5,1.7,0.9,2.6,1.3c0.3,0.1,0.7,0.1,0.9-0.2c0.2-0.3,0.2-0.6-0.1-0.9c-0.1-0.2-0.3-0.3-0.5-0.4L372.6,956.7z
				"/>
			<path class="st2" d="M392.9,962.9c0.4,0.3,0.5,0.7,0.3,1.1c-0.2,0.5-0.5,0.6-1.1,0.4c-1.9-0.6-3.9-1.2-5.9-1.7
				c-0.5-0.2-0.8,0-1,0.6c-0.1,0.5-0.1,0.7,0.5,0.9c1.6,0.5,3.2,1.1,4.9,1.5c0.5,0.1,0.6,0.4,0.5,0.8c-0.2,0.7-0.4,0.9-0.9,0.7
				c-1.5-0.4-3.1-0.9-4.6-1.3c-0.7-0.2-1-0.1-1.2,0.5s0.1,1.1,0.9,1.2c1.2,0.2,2.4,0.6,3.6,1c0.1,0,0.2,0.1,0.3,0.1
				c0.7-0.1,1.3,0.2,1.9,0.6c0.5,0.2,0.4,0.5,0.3,0.9s-0.4,0.6-0.8,0.5c-1.3-0.3-2.6-0.7-3.8-1.1c-1.3-0.4-2.6-0.8-3.9-1.1
				c-0.5-0.1-0.6-0.4-0.6-0.9c0.1-0.8,0.3-1.5,0.6-2.2c0.3-0.6,0.2-1.4,0.5-2.1c0.3-0.6,0.6-1.3,0.6-2c0.1-0.6,0.4-0.7,1-0.6
				c1.1,0.3,2.2,0.8,3.3,0.8L392.9,962.9z"/>
			<path class="st2" d="M409.9,973c-0.6,0-1-0.3-1.3-0.9c-0.4-0.7-1-1.2-1.9-1.2c-1.2-0.1-2.4-0.1-3.7-0.3c-0.7-0.1-1.2,0.2-1.6,0.7
				c-0.5,0.7-1.1,1.1-2.1,0.9c-0.6-0.1-0.8-0.4-0.4-0.9c0.8-1,1.7-1.8,2.5-2.8c0.8-1.1,1.8-2.1,2.7-3.1c0.1-0.1,0.3-0.3,0.4-0.4
				c0.7-0.6,1.5-0.5,2,0.3c0.3,0.4,0.4,0.8,0.7,1.2c0.4,0.7,0.9,1.4,1.4,2.1c0.9,1.1,1.4,2.4,2.2,3.5
				C411.2,972.8,410.8,973.1,409.9,973z M404.9,969.2c0.3,0,0.6,0.1,0.9,0c0.6,0,0.8-0.3,0.4-0.8c-0.3-0.4-0.5-0.7-0.7-1.1
				c-0.2-0.4-0.4-0.4-0.7-0.1c-0.3,0.5-0.7,0.9-1.1,1.3c-0.3,0.3-0.2,0.5,0.3,0.6C404.3,969.2,404.6,969.2,404.9,969.2z"/>
			<path class="st2" d="M423.8,968.2c0.1,0.9,0.3,1.9,0.4,2.8c0.1,0.7-0.2,1-0.9,1.1c-0.3,0-0.6,0-0.6-0.4c0-0.2-0.1-0.3-0.2-0.5
				c-0.1-1.2-0.3-2.4-0.6-3.6c-0.1-0.4-0.1-0.9-0.2-1.3c-0.1-0.4-0.3-0.6-0.8-0.5c-0.9,0.2-1.8,0.1-2.7,0.4
				c-0.4,0.1-0.7,0.1-0.8-0.4c-0.1-0.5,0-1,0.4-1.1c1.5-0.1,3.2-0.5,4.7-0.7c1.3-0.2,2.8-0.3,4.1-0.6c0.3-0.1,0.6,0,0.7,0.3
				c0.1,0.4,0.2,0.8-0.4,1c-0.2,0.1-0.4,0.1-0.6,0.2l-2.1,0.3c-0.7,0.1-0.9,0.3-0.9,1C423.6,967,423.7,967.6,423.8,968.2
				L423.8,968.2z"/>
			<path class="st2" d="M436.6,964c0.3,1.5,0.8,2.7,1.2,4c0.1,0.4,0.1,0.8-0.4,1c-0.4,0.2-0.9,0.1-1.2-0.3c-0.1-0.2-0.2-0.4-0.3-0.7
				c-0.3-1.4-0.8-2.7-1.3-4c-0.2-0.6-0.3-1.3-0.5-2c-0.2-0.6,0.5-0.6,0.8-0.8c0.3-0.1,0.6,0.1,0.7,0.4
				C436,962.4,436.1,963.3,436.6,964z"/>
			<path class="st2" d="M451.1,963.1c-0.3,0.2-0.7,0.2-1.1,0c-1.9-0.9-3.8-1.7-5.6-2.6c-0.5-0.2-1-0.5-1.5-0.7
				c-0.3-0.2-0.7-0.3-0.6-0.7s0.5-0.6,0.8-0.6c0.5-0.1,1.1-0.1,1.5,0.2c1.5,0.8,3.1,1.5,4.7,2.2c0.7,0.3,0.8,0.2,1-0.5
				c0.2-1.2,0.3-2.4,0.5-3.5c0.1-0.6,0.1-1.2,0.2-1.8c0.1-0.7,0.6-1.1,1.2-1.5c0.4-0.2,0.7,0,0.8,0.4c0,0.2,0,0.5-0.1,0.7
				c-0.2,1.6-0.4,3.3-0.7,4.9c-0.1,0.5-0.1,1-0.1,1.5C452,962,451.7,962.8,451.1,963.1z"/>
			<path class="st2" d="M464.2,943.9c0.5-0.1,0.8-0.1,1.1,0.4s0.2,0.7-0.2,1.1c-1.6,1.3-3.1,2.6-4.7,4c-0.4,0.4-0.4,0.7,0,1.1
				c0.3,0.4,0.6,0.5,1,0.1c1.3-1.1,2.7-2.1,3.9-3.3c0.4-0.4,0.7-0.3,1,0.1c0.5,0.6,0.5,0.8,0.1,1.2c-1.2,1.1-2.4,2.1-3.7,3.2
				c-0.6,0.5-0.6,0.8-0.3,1.2c0.4,0.5,1,0.5,1.4-0.1c0.8-1,1.8-1.7,2.8-2.4c0.1-0.1,0.2-0.1,0.3-0.2c0.3-0.7,0.9-1,1.5-1.3
				c0.5-0.3,0.7-0.1,0.9,0.2c0.3,0.3,0.2,0.7-0.1,0.9c-1,0.9-2,1.8-3,2.6c-1,0.9-2.1,1.7-3.1,2.6c-0.4,0.4-0.7,0.3-1.1,0
				c-0.6-0.5-1.1-1.1-1.5-1.7c-0.4-0.6-1-1-1.5-1.5c-0.4-0.6-0.8-1.2-1.3-1.6c-0.4-0.4-0.4-0.7,0.1-1.2c0.8-0.8,1.8-1.4,2.5-2.3
				L464.2,943.9z"/>
		</g>
	</g>
	<g>
		<g>
			<g>
				<g>
					<path class="st2" d="M633,846.5l5.2,6.4l-0.6,15.1l-6-7.5L633,846.5z M641.3,856.9l5,6.3l-0.6,15.1l-5-6.3L641.3,856.9z
						 M649.5,867.2l5.1,6.4l-0.6,15.1l-5.1-6.4L649.5,867.2z M658.6,878l5.1,6.4l-0.6,15.1l-5.1-6.4L658.6,878z M667,887.8l5.1,6.4
						l-0.6,15.1l-5.1-6.4L667,887.8z M668.1,911.7l-14.9-2.7l-5-6.3l14.9,2.7L668.1,911.7z M645.1,898.8l-5.1-6.4l14.9,2.7l5.1,6.4
						L645.1,898.8z M636.8,888.5l-5.4-6.8l14.9,2.7l5.4,6.8L636.8,888.5z M628.2,877.7l-5.3-6.6l14.9,2.7l5.3,6.6L628.2,877.7z
						 M628.9,862.7l5.7,7.1l-14.9-2.7l-4.9-6.1L628.9,862.7z"/>
					<path class="st2" d="M741.5,860.6l-6,7.5l-0.7-15.1l5.2-6.4L741.5,860.6z M732.3,872.1l-5,6.3l-0.6-15.1l5-6.3L732.3,872.1z
						 M724.1,882.3l-5.1,6.4l-0.6-15.1l5.1-6.4L724.1,882.3z M715.8,892.6l-5.4,6.8l-0.6-15.1l5.4-6.8L715.8,892.6z M709.8,905.4
						l14.9-2.7l-5,6.3l-14.9,2.7L709.8,905.4z M713,901.5l5.1-6.4l14.9-2.7l-5.1,6.4L713,901.5z M721.3,891.1l5.4-6.8l14.9-2.7
						l-5.4,6.8L721.3,891.1z M729.9,880.4l5.3-6.6l14.9-2.7l-5.3,6.6L729.9,880.4z M715,914.8c-0.4,0.5-7.6,10.3-16.2,4.4l2.8-3.5
						l14.9-2.7L715,914.8z M758.1,861l-4.9,6.1l-14.9,2.7l5.7-7.1L758.1,861z"/>
				</g>
				<g>
					<g>
						<g>
							<path class="st1" d="M667.8,877.7c-0.2-1-1-1.9-1.9-1.9c-0.8,0-1.4,0.6-1.7,1.3c-0.1,0.1-0.1,0.3-0.1,0.6v0.1v0.1
								c0,0.3,0.1,0.6,0.1,0.9c1.6,6.2,10.7,6.4,16.6,1.1C680.9,879.9,670.1,885.4,667.8,877.7z"/>
						</g>
					</g>
					<g>
						<path class="st1" d="M706.4,896.9l-0.6-22.5c0-0.2-0.1-0.3-0.1-0.5l-0.7-1.1c-0.1-0.2-0.3-0.3-0.5-0.4l-2.4-1.1l2.5-0.8
							c0,0,0.1-0.1,0.3-0.1c0.7-0.2,1.2-0.8,1.3-1.5l1.5-7c0.1-0.5-0.3-1-0.8-0.9l-5.6-0.4c-0.4,0-0.8,0.1-1.1,0.3l0,0
							c-0.3,0.2-0.5,0.4-0.6,0.7l-0.5,0.9c-0.2,0.5-0.2,0.3-0.6,1.2l-2.3,4.4l2.4-7.6l-14.7-0.2c-0.4,0-1.1,0.3-1.5,0.5
							c-0.3,0.1-0.7,0.4-0.9,0.6l-2.4,2c0,0,0,0-0.1,0l-8,0.8c-0.4,0-0.8,0.1-0.8,0.6l-0.3,3.2c0,0,0.4,0,0.5-0.1l4.6-1
							c0,0-0.3,1.4-3.9,2c-3.5,0.6,1,8.5,1.3,8.9c0.1,0.2,0.2,0.6,0.6,0.7l0.5,0.1c0.4,0.1,1.3-0.3,1.7-0.5c1.9-0.9,7.7-3,9.2,1.3
							c1.8,5.1-5.4,6.9-9.2,6c-0.1,0-0.1,0-0.1,0.1l0.3,6.8c0.1,0,0.1,0,0.2,0.1c1-1,7-6.7,12.7-4.5c0,0.1,0,0.1,0,0.1
							c-1.4,0.8-13.4,7.8-14.1,14.4c-0.7,6.7-0.5,17.7-3.8,20.1c-0.1,0.1,0,0.2,0.1,0.2l6.9-3.5l0.9-0.5c0.2-0.1,0.3-0.1,0.5-0.2
							l2.7-8.8l-0.5,7.9c2.3-0.9,4.9-2.1,7.3-3.2l3.1-14.7v13c2.2-1.3,4.3-2.8,6.1-4.5l3.4-17.1l0.3,13.1l0.1-0.1l4.8-5.1
							c0.2-0.2,0.3-0.5,0.3-0.9C706.4,897.9,706.4,896.9,706.4,896.9z M689.4,863.4l-1.1,1.3c-0.2,0.2-0.4,0.3-0.6,0.3h-5.5
							c-0.4,0-0.6-0.5-0.3-0.7l1.2-1.2c0.2-0.1,0.4-0.2,0.7-0.2h5.2C689.5,862.8,689.7,863.2,689.4,863.4z M699.9,868.6l4.2-6h1.5
							l-1.3,5.1c-0.1,0.4-0.4,0.6-0.8,0.7L699.9,868.6z"/>
						<polygon class="st1" points="701.9,864.9 704.2,865.4 701,866.4 						"/>
						<polygon class="st1" points="700.9,866.6 703.2,867.1 700,868.1 						"/>
					</g>
				</g>
			</g>
			<g>
				<g>
					<path class="st2" d="M650.7,937.9c0.2,0.1,0.4,0.3,0.3,0.6c0,0.3-0.2,0.4-0.5,0.4c-1.1,0-2.2,0-3.3,0c-0.3,0-0.4,0.1-0.4,0.5
						c0,0.3,0.1,0.4,0.4,0.4c0.9,0,1.8,0.1,2.7,0c0.3,0,0.4,0.1,0.4,0.4c0,0.4,0,0.5-0.4,0.5c-0.9,0-1.7,0-2.6,0
						c-0.4,0-0.5,0.1-0.5,0.4c0,0.4,0.2,0.6,0.6,0.5c0.7-0.1,1.3-0.1,2,0c0.1,0,0.1,0,0.2,0c0.4-0.2,0.7-0.1,1.1,0
						c0.3,0.1,0.3,0.2,0.3,0.4s-0.1,0.4-0.3,0.4c-0.7,0-1.4,0-2.1,0c-0.7,0-1.4,0-2.2,0c-0.3,0-0.4-0.1-0.4-0.4
						c-0.1-0.4-0.1-0.8,0-1.3c0.1-0.4-0.1-0.8-0.1-1.2s0.1-0.8,0-1.2c-0.1-0.3,0.1-0.4,0.4-0.5c0.6,0,1.2,0.1,1.8-0.1h2.6V937.9z"/>
					<path class="st2" d="M654.9,942.4c-0.8,0-1.4,0-2-0.2c-0.3-0.1-0.6-0.2-0.8-0.5c-0.1-0.2-0.3-0.4-0.1-0.6
						c0.2-0.2,0.5-0.3,0.7-0.2s0.4,0.3,0.6,0.4c0.8,0.2,1.5,0.2,2.3,0.1c0.1,0,0.3,0,0.4-0.1c0.1,0,0.3-0.1,0.3-0.2
						c0-0.1-0.1-0.2-0.3-0.3c-0.3-0.1-0.6-0.2-1-0.2c-0.7,0-1.3-0.1-1.9-0.3c-0.4-0.1-0.8-0.3-1-0.7c-0.2-0.5,0-1.1,0.6-1.3
						c0.6-0.3,1.2-0.4,1.9-0.4c0.3,0,0.7,0,1,0c0.4,0,0.7,0.2,1,0.3s0.5,0.3,0.6,0.6c0.1,0.1,0,0.2-0.1,0.3
						c-0.1,0.2-0.3,0.3-0.6,0.2c-0.1,0-0.2-0.1-0.4-0.2c-0.7-0.5-1.6-0.5-2.4-0.3c-0.2,0-0.6,0-0.6,0.3s0.3,0.3,0.5,0.4
						c0.6,0.1,1.1,0.1,1.7,0.2c0.5,0,0.9,0.2,1.4,0.4c0.5,0.3,0.6,0.7,0.5,1.2s-0.5,0.7-0.8,0.8C656,942.3,655.4,942.5,654.9,942.4z
						"/>
					<path class="st2" d="M661.5,940.3c0,0.5,0,1.1,0,1.6c0,0.4-0.2,0.5-0.5,0.5c-0.2,0-0.3-0.1-0.3-0.3c0-0.1,0-0.2,0-0.3
						c0-0.7,0-1.4,0-2.1c0-0.2,0-0.5,0-0.7s-0.1-0.3-0.4-0.3c-0.5,0.1-1-0.1-1.5,0c-0.2,0-0.4,0-0.4-0.3s0.1-0.6,0.3-0.6
						c0.8,0.1,1.7,0,2.5,0c0.7,0,1.5,0.1,2.2,0c0.2,0,0.3,0,0.3,0.2s0,0.5-0.3,0.5c-0.1,0-0.2,0-0.3,0H662c-0.4,0-0.5,0.1-0.5,0.5
						C661.4,939.6,661.5,939.9,661.5,940.3L661.5,940.3z"/>
					<path class="st2" d="M664.9,942.5c-0.3,0-0.4-0.2-0.4-0.6c0-0.2,0.2-0.3,0.4-0.3c0.3,0,0.5,0.1,0.5,0.4
						C665.5,942.2,665.2,942.5,664.9,942.5z"/>
					<path class="st2" d="M706.6,942.4c-0.8,0-1.4,0-2-0.2c-0.3-0.1-0.6-0.2-0.8-0.5c-0.1-0.2-0.3-0.4-0.1-0.6
						c0.2-0.2,0.5-0.3,0.7-0.2s0.4,0.3,0.6,0.4c0.8,0.2,1.5,0.2,2.3,0.1c0.1,0,0.3,0,0.4-0.1c0.1,0,0.3-0.1,0.3-0.2
						c0-0.1-0.1-0.2-0.3-0.3c-0.3-0.1-0.6-0.2-1-0.2c-0.7,0-1.3-0.1-1.9-0.3c-0.4-0.1-0.8-0.3-1-0.7c-0.2-0.5,0-1.1,0.6-1.3
						c0.6-0.3,1.2-0.4,1.9-0.4c0.3,0,0.7,0,1,0c0.4,0,0.7,0.2,1,0.3s0.5,0.3,0.6,0.6c0.1,0.1,0,0.2-0.1,0.3
						c-0.1,0.2-0.3,0.3-0.6,0.2c-0.1,0-0.2-0.1-0.4-0.2c-0.7-0.5-1.6-0.5-2.4-0.3c-0.2,0-0.6,0-0.6,0.3s0.3,0.3,0.5,0.4
						c0.6,0.1,1.1,0.1,1.7,0.2c0.5,0,0.9,0.2,1.4,0.4c0.5,0.3,0.6,0.7,0.5,1.2s-0.5,0.7-0.8,0.8
						C707.8,942.3,707.2,942.5,706.6,942.4z"/>
					<path class="st2" d="M716.1,942.4c-0.3,0-0.5-0.1-0.7-0.4c-0.2-0.4-0.6-0.6-1.1-0.6c-0.7,0-1.3,0-2,0c-0.4,0-0.7,0.1-0.8,0.5
						c-0.2,0.4-0.6,0.7-1.1,0.6c-0.3,0-0.4-0.2-0.3-0.5c0.4-0.6,0.8-1.1,1.2-1.7c0.4-0.6,0.9-1.2,1.3-1.8c0.1-0.1,0.1-0.2,0.2-0.2
						c0.3-0.3,0.8-0.3,1.1,0.1c0.2,0.2,0.3,0.4,0.4,0.6c0.2,0.4,0.5,0.8,0.8,1.1c0.5,0.6,0.8,1.3,1.3,1.9
						C716.7,942.2,716.6,942.4,716.1,942.4z M713.3,940.4c0.2,0,0.3,0,0.5,0c0.3,0,0.4-0.2,0.2-0.5c-0.1-0.2-0.3-0.4-0.4-0.6
						c-0.1-0.2-0.3-0.2-0.4,0c-0.2,0.3-0.3,0.5-0.5,0.7c-0.1,0.2-0.1,0.3,0.2,0.3C713,940.4,713.1,940.4,713.3,940.4z"/>
					<path class="st2" d="M720.5,942.4c-0.8,0-1.4,0-2-0.2c-0.3-0.1-0.6-0.2-0.8-0.5c-0.1-0.2-0.3-0.4-0.1-0.6
						c0.2-0.2,0.5-0.3,0.7-0.2s0.4,0.3,0.6,0.4c0.8,0.2,1.5,0.2,2.3,0.1c0.1,0,0.3,0,0.4-0.1c0.1,0,0.3-0.1,0.3-0.2
						c0-0.1-0.1-0.2-0.3-0.3c-0.3-0.1-0.6-0.2-1-0.2c-0.7,0-1.3-0.1-1.9-0.3c-0.4-0.1-0.8-0.3-1-0.7c-0.2-0.5,0-1.1,0.6-1.3
						c0.6-0.3,1.2-0.4,1.9-0.4c0.3,0,0.7,0,1,0c0.4,0,0.7,0.2,1,0.3s0.5,0.3,0.6,0.6c0.1,0.1,0,0.2-0.1,0.3
						c-0.1,0.2-0.3,0.3-0.6,0.2c-0.1,0-0.2-0.1-0.4-0.2c-0.7-0.5-1.6-0.5-2.4-0.3c-0.2,0-0.6,0-0.6,0.3s0.3,0.3,0.5,0.4
						c0.6,0.1,1.1,0.1,1.7,0.2c0.5,0,0.9,0.2,1.4,0.4c0.5,0.3,0.6,0.7,0.5,1.2s-0.5,0.7-0.8,0.8C721.6,942.3,721,942.5,720.5,942.4z
						"/>
					<path class="st2" d="M728.8,942.4c-1-0.1-1.9-0.3-2.7-1c-0.3-0.3-0.6-0.5-0.8-0.8c0-0.1-0.1-0.1-0.2-0.1
						c-0.1,0-0.2,0.1-0.2,0.3c0,0.4,0,0.8,0,1.2c0,0.3-0.1,0.5-0.4,0.5c-0.4,0-0.6-0.3-0.6-0.6c0-0.5,0.1-1.1,0-1.6c0-0.7,0-1.3,0-2
						c0-0.2,0.1-0.3,0.3-0.3c0.4,0,0.6,0.1,0.6,0.4c0,0.2,0,0.5,0,0.7c0,0.3,0.1,0.4,0.4,0.3c0.7-0.3,1.4-0.6,2.1-1
						c0.4-0.3,0.9-0.3,1.4-0.3c0.1,0,0.3,0,0.3,0.2c0,0.1-0.1,0.2-0.2,0.3l-2.2,1.1l0,0c-0.6,0.3-0.6,0.6-0.1,1
						c0.6,0.5,1.3,0.9,2.1,0.9c0.2,0,0.4,0.1,0.6,0.2c0.2,0.1,0.2,0.3,0.2,0.4C729.2,942.3,729.1,942.4,728.8,942.4z"/>
				</g>
				<g>
					<g>
						<g>
							<g>
								<g>
									<polygon class="st0" points="691.1,936.5 688.9,931.8 684.2,931.8 684.2,942.5 687.3,942.5 687.2,934.1 690.1,940.5 
										692.1,940.5 694.9,934.1 694.9,942.5 697.9,942.5 697.9,931.8 693.3,931.8 									"/>
								</g>
								<path class="st0" d="M681.5,932.1c-0.3-0.2-0.6-0.3-1.1-0.3h-8.8v10.7h3.1v-3.6l0,0v-2.4l0,0v-2.4h4.2v2.5h-4.7v2.3h6.2
									c0.4,0,0.8-0.1,1.1-0.3s0.4-0.5,0.4-0.8V933C682,932.6,681.8,932.3,681.5,932.1z"/>
							</g>
						</g>
					</g>
				</g>
				<g>
					<g>
						<g>
							<g>
								<g>
									<polygon class="st1" points="691.1,936.5 688.9,931.8 684.2,931.8 684.2,942.5 687.3,942.5 687.2,934.1 690.1,940.5 
										692.1,940.5 694.9,934.1 694.9,942.5 697.9,942.5 697.9,931.8 693.3,931.8 									"/>
								</g>
								<path class="st1" d="M681.5,932.1c-0.3-0.2-0.6-0.3-1.1-0.3h-8.8v10.7h3.1v-3.6l0,0v-2.4l0,0v-2.4h4.2v2.5h-4.7v2.3h6.2
									c0.4,0,0.8-0.1,1.1-0.3s0.4-0.5,0.4-0.8V933C682,932.6,681.8,932.3,681.5,932.1z"/>
							</g>
						</g>
					</g>
				</g>
			</g>
		</g>
		<g>
			<g>
				<polygon class="st2" points="679.1,923.3 683.8,929.2 688.1,929.2 682.2,921.9 				"/>
				<polygon class="st2" points="671.1,908 620.9,845.3 620.2,849.8 670.2,912.2 				"/>
			</g>
			<polygon class="st2" points="700.9,945.2 700.9,945.6 696.9,945.6 699.2,948.4 708.5,954.8 			"/>
		</g>
		<g>
			<polygon class="st2" points="671.7,945.6 664.4,954.8 673.7,948.4 676,945.6 			"/>
			<polygon class="st2" points="689.1,929.2 752.7,849.8 752,845.3 684.9,929.2 			"/>
		</g>
	</g>
</g>
<g id="Layer_3" class="st5">
</g>
</svg>
