<?xml version="1.0" encoding="utf-8"?>
<!-- Generator: Adobe Illustrator 26.3.1, SVG Export Plug-In . SVG Version: 6.00 Build 0)  -->
<svg version="1.1" xmlns="http://www.w3.org/2000/svg" xmlns:xlink="http://www.w3.org/1999/xlink" x="0px" y="0px"
	 viewBox="0 0 930.8 1070.9" style="enable-background:new 0 0 930.8 1070.9;" xml:space="preserve">
<style type="text/css">
	.st0{fill:#A9A4A3;}
	.st1{fill:#00C4B3;}
	.st2{fill:#00C4B3;stroke:#FFFFFF;stroke-width:0.5;stroke-miterlimit:10;}
	.st3{fill:#FFFFFF;stroke:#FFFFFF;stroke-width:0.5;stroke-miterlimit:10;}
	.st4{fill:#99D9D9;}
	.st5{fill:#FFFFFF;}
	.st6{font-family:'Wayfarer-Regular';}
	.st7{font-size:25.0296px;}
	.st8{letter-spacing:25;}
	.st9{display:none;}
	.st10{display:inline;}
	.st11{fill:#372E2C;}
	.st12{fill:#D2D0CF;}
</style>
<g id="Layer_1">
	<g>
		<g>
			<g>
				<g>
					<g>
						<g>
							<g>
								<g>
									<g>
										<g>
											<g>
												<g>
													<path d="M240.5,172.6v8.4h15.7v9.7h-15.7v8.3h22v9.7h-34.8v-45.9h34.8v9.9H240.5z"/>
													<path d="M344.5,172.6v8.4h15.7v9.7h-15.7v8.3h22v9.7h-34.8v-45.9h34.8v9.9H344.5z"/>
													<path d="M321.2,172.6h-17.6v36h-13v-36h-17.3v-9.9h47.9L321.2,172.6z"/>
												</g>
											</g>
										</g>
										<g>
											<polygon points="705.8,181.8 687.9,181.8 687.9,162.8 675,162.8 675,208.7 687.9,208.7 687.9,191.5 705.8,191.5 
												705.8,208.7 718.5,208.7 718.5,162.8 705.8,162.8 											"/>
											<path d="M662.6,164.2c-1.3-0.9-2.8-1.4-4.5-1.4h-37.7v45.9h13.1v-15.1h0v-0.7h24.6c1.8,0,3.3-0.5,4.5-1.4
												c1.3-0.9,1.9-2.1,1.9-3.5v-20.4C664.5,166.3,663.9,165.1,662.6,164.2z M651.5,183.1h-18v-0.5h0v-10h18V183.1z"/>
											<polygon points="746.7,162.8 729,162.8 749.6,187.7 749.6,208.7 762.6,208.7 762.6,187.7 783.3,162.8 765.5,162.8 
												755.9,174.2 											"/>
											<path d="M608,191.5c1.3-0.9,1.9-2.1,1.9-3.5v-20.4c0-1.3-0.6-2.5-1.9-3.4c-1.3-0.9-2.8-1.4-4.7-1.4H566v45.9h13v-15.8
												h6.5l9.4,15.8h15.1l-9.8-15.8C601.9,192.9,606.8,192.4,608,191.5z M596.9,183.2h-18v-10.6h18V183.2z"/>
											<polygon points="471.1,182.8 461.7,162.8 441.7,162.8 441.7,208.7 454.7,208.7 454.6,172.7 466.9,200.1 475.2,200.1 
												487.6,172.7 487.6,208.7 500.4,208.7 500.4,162.8 480.4,162.8 											"/>
											<path d="M542.4,198.9h-18.5v-36.3h-13.1v41.2c0,1.4,0.6,2.6,1.9,3.5c1.3,0.9,2.8,1.4,4.7,1.4h31.6c1.8,0,3.4-0.5,4.7-1.4
												c1.3-0.9,1.9-2.1,1.9-3.5v-41.2h-13.1V198.9z"/>
										</g>
										<path d="M215.1,164.2c-1.3-0.9-2.8-1.4-4.5-1.4h-37.7v45.9H186v-15.5h0v-10.4h0v-10.2h18v10.5h-20v9.8h26.6
											c1.8,0,3.3-0.5,4.5-1.4c1.3-0.9,1.9-2.1,1.9-3.5v-20.4C217,166.3,216.4,165.1,215.1,164.2z"/>
									</g>
								</g>
							</g>
						</g>
					</g>
					<path d="M419.1,191.5c1.3-0.9,1.9-2.1,1.9-3.5v-20.4c0-1.3-0.6-2.5-1.9-3.4c-1.3-0.9-2.8-1.4-4.7-1.4H377v45.9h13v-15.8h6.5
						l9.4,15.8H421l-9.8-15.8C413,192.9,417.8,192.4,419.1,191.5z M408,183.2h-18v-10.6h18V183.2z"/>
				</g>
			</g>
		</g>
		<g>
			<path class="st0" d="M329.5,237.5c0.6,0.4,1.4,0.4,2,0.4c1.6,0.2,2.7,1,3.6,2.2c0.4,0.6,0.2,1.4-0.5,1.8c-0.7,0.4-1.4,0.5-2,0
				c-2.9-2.3-6.2-1.8-9.4-1c-0.9,0.3-1.6,0.9-1.9,1.9c-0.9,3.3,0.5,5.2,3.8,5.7c1.2,0.1,2.4,0.1,3.5,0.1c1,0,2.1-0.2,2.9-0.9
				c0.5-0.4,1-0.7,1.7-0.8c0.9-0.2,1.6,0.2,2,0.9c0.5,0.7-0.1,1.2-0.6,1.7c-2.1,2.3-6.3,2-9.1,1.9c-3.2-0.1-7.1-1.8-7.1-5.6
				c0-0.7,0-1.4,0-2.1c-0.2-2.2,0.9-3.6,2.5-4.9c0.6-0.5,1.4-0.7,2.1-0.8c1-0.1,1.8-0.5,2.8-0.6H329.5z"/>
			<path class="st0" d="M378.3,242c0,0.4,0,0.9,0,1.3c-0.1,0.9-0.5,1.5-1.5,1.8c-1.4,0.4-2.7,1-4.2,0.8c-0.2,0-0.3,0.1-0.4,0.2
				c-0.1,0.3,0.1,0.4,0.2,0.6c0.9,1.1,2.1,1.4,3.4,1.8c1.1,0.3,2.3,0.5,3.4,0.6c0.9,0,1.2,0.6,1.1,1.4c0,0.8-0.5,1.2-1.3,1.2
				c-3.2,0-6.1-0.8-8.6-2.7c-0.7-0.5-1.1-1.2-1.5-2c-0.4-0.9-1.1-1.2-2-1.1c-0.8,0.2-1.2,0.7-1.3,1.6c-0.1,0.9-0.2,1.8,0,2.8
				c0.1,0.6-0.2,1-0.7,1.1c-0.9,0.4-2.1-0.3-2.1-1.2c0.1-1.8-0.2-3.5,0-5.3c0.1-0.9-0.1-1.8-0.1-2.7c0.1-1.2,0.1-2.5,0.2-3.7
				c0.1-0.6,0.6-0.9,1.3-0.8c1,0.1,2,0.2,3,0.1c2.3-0.1,4.5,0,6.8-0.1C376.7,237.4,378.3,239.2,378.3,242z M370.4,240.4
				c-1.1,0-2.3,0-3.4,0c-0.8,0-1.2,0.5-1.2,1.4c0,0.8,0.3,1.2,1.1,1.2c1,0,1.9,0,2.9,0c1.6,0.1,3.1,0,4.7-0.2c0.5-0.1,1-0.4,1.1-1
				c0.1-0.6-0.2-1-0.8-1.3c-0.3-0.1-0.7-0.2-1.1-0.2H370.4z"/>
			<path class="st0" d="M422.4,237.6c0.7,0.4,1.1,0.9,1,1.7c-0.1,1-0.5,1.2-1.5,1.2c-3.3,0-6.6,0-9.9,0c-0.9,0-1.2,0.5-1.2,1.4
				c0,0.8,0.2,1.3,1.2,1.3c2.8,0.1,5.5,0.2,8.3,0.2c0.9,0,1.1,0.3,1.1,1.2c0,1.3-0.2,1.6-1.1,1.6c-2.6,0-5.2,0-7.8,0
				c-1.2,0-1.6,0.3-1.6,1.3c0,1.1,0.7,1.7,1.9,1.5c2-0.3,4-0.2,6,0c0.2,0,0.4,0.1,0.6,0c1.1-0.5,2.1-0.2,3.2,0
				c0.8,0.2,0.9,0.7,0.9,1.3c0,0.7-0.4,1.1-1.1,1.2c-2.1,0.1-4.3,0.1-6.4,0.1c-2.2,0-4.4-0.1-6.5,0c-0.9,0-1.2-0.3-1.3-1.1
				c-0.3-1.3-0.2-2.5,0-3.8c0.2-1.2-0.3-2.4-0.2-3.6c0.1-1.2,0.3-2.4,0.1-3.6c-0.2-1,0.4-1.4,1.4-1.4c1.8-0.1,3.7,0.2,5.5-0.3H422.4
				z"/>
			<path class="st0" d="M469.2,251.2c-1,0.1-1.6-0.3-2.2-1.3c-0.7-1.2-1.7-1.9-3.2-1.9c-2,0-4,0.1-5.9,0c-1.2,0-2,0.4-2.6,1.4
				c-0.8,1.2-1.7,2-3.2,1.8c-1-0.1-1.4-0.6-0.8-1.4c1.1-1.8,2.5-3.3,3.7-5.1c1.3-1.9,2.6-3.7,3.9-5.5c0.2-0.2,0.4-0.5,0.6-0.7
				c1-1.1,2.3-1,3.3,0.2c0.5,0.6,0.8,1.3,1.2,2c0.7,1.2,1.6,2.3,2.5,3.4c1.5,1.8,2.6,3.9,4,5.7C471.1,250.7,470.7,251.2,469.2,251.2
				z M460.7,245.3c0.5,0,1,0,1.5,0c1-0.1,1.2-0.6,0.6-1.4c-0.5-0.6-1-1.1-1.3-1.8c-0.3-0.7-0.8-0.7-1.2-0.1c-0.5,0.8-1,1.5-1.6,2.3
				c-0.4,0.6-0.2,0.9,0.5,1C459.7,245.4,460.2,245.3,460.7,245.3z"/>
			<path class="st0" d="M507.8,244.8c0,1.6,0,3.3,0,4.9c0,1.3-0.5,1.6-1.6,1.6c-0.5,0-0.9-0.2-0.9-0.8c0-0.3-0.1-0.6-0.1-0.8
				c0-2.1,0-4.2-0.1-6.2c0-0.7,0.1-1.5,0-2.2c-0.1-0.7-0.4-1-1.1-1c-1.5,0.2-2.9-0.2-4.4,0c-0.6,0.1-1.1,0-1.2-0.8
				c-0.1-1,0.2-1.8,1-1.7c2.5,0.2,5.2,0,7.6,0c2.2,0,4.6,0.1,6.7,0c0.5-0.1,1,0.1,1.1,0.7c0,0.7,0.1,1.4-0.8,1.7
				c-0.3,0.1-0.7,0.2-1,0.2h-3.4c-1.2,0-1.6,0.3-1.6,1.5C507.8,242.9,507.9,243.9,507.8,244.8L507.8,244.8z"/>
			<path class="st0" d="M546.5,243c-0.3,2.5,0,4.8-0.1,7.1c0,0.7-0.3,1.3-1.1,1.4c-0.8,0.1-1.5-0.4-1.7-1.2
				c-0.1-0.4-0.1-0.8-0.1-1.2c0.2-2.4,0.1-4.7,0-7.1c0-1.2,0.2-2.3,0.2-3.4c0-1,1.1-0.8,1.7-0.9c0.5-0.1,0.9,0.4,0.9,1
				C546.3,240.2,546.1,241.7,546.5,243z"/>
			<path class="st0" d="M585,251.3c-0.7,0.1-1.2-0.2-1.6-0.8c-2-2.8-4.1-5.6-6.1-8.4c-0.5-0.8-1.1-1.5-1.6-2.2
				c-0.3-0.5-0.7-1-0.3-1.6c0.4-0.6,1.1-0.5,1.7-0.3c0.8,0.3,1.6,0.8,2.1,1.5c1.6,2.4,3.3,4.8,5.1,7.1c0.8,1,1.1,1,1.8,0
				c1.2-1.6,2.2-3.3,3.4-4.9c0.6-0.8,1.1-1.7,1.7-2.5c0.7-1,1.7-1.2,2.8-1.3c0.7,0,1,0.5,0.8,1.2c-0.1,0.4-0.4,0.7-0.7,1
				c-1.6,2.3-3.1,4.6-4.8,6.8c-0.5,0.7-1,1.4-1.4,2.2C587.2,250.4,586.1,251.3,585,251.3z"/>
			<path class="st0" d="M636.9,237.6c0.7,0.4,1.1,0.9,1,1.7c-0.1,1-0.5,1.2-1.5,1.2c-3.3,0-6.6,0-9.9,0c-0.9,0-1.2,0.5-1.2,1.4
				c0,0.8,0.2,1.3,1.2,1.3c2.8,0.1,5.5,0.2,8.3,0.2c0.9,0,1.1,0.3,1.1,1.2c0,1.3-0.2,1.6-1.1,1.6c-2.6,0-5.2,0-7.8,0
				c-1.2,0-1.6,0.3-1.6,1.3c0,1.1,0.7,1.7,1.9,1.5c2-0.3,4-0.2,6,0c0.2,0,0.4,0.1,0.6,0c1.1-0.5,2.1-0.2,3.2,0
				c0.8,0.2,0.9,0.7,0.9,1.3c0,0.7-0.4,1.1-1.1,1.2c-2.1,0.1-4.3,0.1-6.4,0.1c-2.2,0-4.4-0.1-6.5,0c-0.9,0-1.2-0.3-1.3-1.1
				c-0.3-1.3-0.2-2.5,0-3.8c0.2-1.2-0.3-2.4-0.2-3.6c0.1-1.2,0.3-2.4,0.1-3.6c-0.2-1,0.4-1.4,1.4-1.4c1.8-0.1,3.7,0.2,5.5-0.3H636.9
				z"/>
		</g>
	</g>
	<g>
		<g>
			<g>
				<path class="st0" d="M265.1,449.7l-5.7,0l-7.9-6.8h6.6L265.1,449.7z M255.9,449.7l-5.5,0l-7.9-6.8h5.5L255.9,449.7z
					 M246.9,449.7l-5.6,0l-7.9-6.8h5.6L246.9,449.7z M237.8,449.7l-6,0l-7.9-6.8h6L237.8,449.7z M228.3,449.7l-5.9,0l-7.9-6.8h5.9
					L228.3,449.7z M214.9,440.6l7.8-6.8h5.5l-7.8,6.8H214.9z M231.8,433.7h5.6l-7.8,6.8H224L231.8,433.7z M240.9,433.7h6l-7.8,6.8
					h-6L240.9,433.7z M250.4,433.7h5.9l-7.8,6.8h-5.9L250.4,433.7z M208.3,442.9h2.8l7.9,6.8h-1.3
					C217.3,449.7,208.8,450.1,208.3,442.9z M219.3,433.7l-7.8,6.8h-3.1c0.5-7.1,8.9-6.8,9.3-6.8H219.3z M258.1,440.6h-6.3l7.8-6.8
					h5.4L258.1,440.6z"/>
				<polygon class="st0" points="268.8,441.5 181.9,441.5 174.4,443.8 270.9,443.8 				"/>
			</g>
			<g>
				<path class="st0" d="M131.9,435.4l5.7,0l7.9,6.8h-6.6L131.9,435.4z M141.1,435.4l5.5,0l7.9,6.8H149L141.1,435.4z M150.1,435.4
					l5.6,0l7.9,6.8H158L150.1,435.4z M159.2,435.4l6,0l7.9,6.8h-6L159.2,435.4z M168.7,435.4l5.9,0l7.9,6.8h-5.9L168.7,435.4z
					 M182.1,444.5l-7.8,6.8h-5.5l7.8-6.8H182.1z M165.2,451.3h-5.6l7.8-6.8h5.6L165.2,451.3z M156.1,451.3h-6l7.8-6.8h6L156.1,451.3
					z M146.7,451.3h-5.9l7.8-6.8h5.9L146.7,451.3z M188.7,442.2h-2.8l-7.9-6.8h1.3C179.8,435.3,188.2,435,188.7,442.2z M177.7,451.3
					l7.8-6.8h3.1c-0.5,7.1-8.9,6.8-9.3,6.8H177.7z M138.9,444.5h6.3l-7.8,6.8H132L138.9,444.5z"/>
				<polygon class="st0" points="128.2,443.6 215.2,443.6 222.6,441.3 126.1,441.3 				"/>
			</g>
		</g>
	</g>
	<g>
		<g>
			<path d="M160,362c-0.1-0.8-0.8-1.6-1.6-1.6c-0.6,0-1.2,0.5-1.4,1.1c-0.1,0.1-0.1,0.3-0.1,0.5c0,0,0,0.1,0,0.1c0,0,0,0,0,0.1
				c0,0.2,0,0.5,0.1,0.8c1.2,5.2,8.8,5.5,13.8,1.3C170.9,364.1,161.7,368.5,160,362z"/>
			<path d="M158.3,399.7c-6-3.8-15.6-6.8-15.6-6.8l4.6-4l-1.9-3.5c0,0,0,0,0,0c-0.3,0.4-0.6,0.7-1,1c0,0-0.1,0-0.1,0.1c0,0,0,0,0,0
				c-1.3,0.9-3.2,1.4-5,1c-0.6-0.1-1.2-0.4-1.7-0.7c-2.1,0.3-2.5,0.1-3.5-0.9c0,0-0.5-0.7-0.5-0.8c1.1,0.6,1.8,0.6,2.9,0.5
				c-0.5-0.8-0.5-1.8-0.1-2.7c0.6-1.2,2-2.4,3.7-3l0.2-0.2l-0.3-0.5c-2.4,0.4-5.1-0.6-5.8-2.8c-0.4-1.2-0.2-2.3,0.4-3.3
				c-1.1-0.2-1.7-0.2-2.8,0.4c0-0.1,0.6-0.8,0.6-0.8c1.1-1.1,1.5-1.3,3.6-0.9c0.5-0.3,1-0.5,1.6-0.7c2.3-0.5,4.8,0.7,5.7,2.7
				l0.5-0.1c-0.3-2.1,0.8-4.4,2.6-5.6c1-0.7,2.1-0.8,3.1-0.5c0.1-1.1,0-1.8-0.7-2.7c0.1,0,0.8,0.3,0.9,0.3c1.2,0.7,1.5,1.1,1.3,3.2
				c0.4,0.4,0.7,0.8,0.9,1.4c0.8,2.3-0.2,5.3-2.3,6.6c-0.1,0.1-0.2,0.1-0.3,0.1c3.1,3.6,9.1,6.2,12.7,8.6c0,0,0.4,4.7-1.2,9.9
				C159.9,397.4,158.3,399.7,158.3,399.7z"/>
			<path d="M228.9,395.9c0,0-9.8,2.9-13.8,15.4c0,0.1,0,0.1-0.1,0.2l-1.7,0.1c0,0,0-0.1,0-0.2c0.6-1.5,0.2-3.2-1.1-4.3
				c-1.7-1.5-4.5-1.4-6.1,0.3c-0.4,0.4-0.7,0.9-0.9,1.3c-1.8,0.6-2,1-2.2,2.4c0,0.1,0,0.9,0,1c0.5-1,1-1.4,2-1.7
				c0.1,1,0.5,2,1.4,2.7c0.4,0.3,0.8,0.6,1.3,0.8l0.1,1.1c0,0,0.1,0,0.1,0c-0.6,0.6-1,1.3-1.2,2.2c-0.1,0.5-0.1,1.1,0,1.6
				c-1.2,1.4-1.2,1.9-0.6,3.2c0,0.1,0.5,0.8,0.5,0.8c-0.1-1.1,0.1-1.7,0.7-2.5c0.6,0.8,1.5,1.4,2.7,1.5c2.3,0.3,4.6-1.3,5-3.5
				c0.1-0.3,0.1-0.6,0.1-0.8l2.1-0.3c0,0,0,0.1,0,0.3c0,0,0,0,0,0c0,0.6,0.1,1.3,0.5,1.9c1.1,2,3.7,2.9,5.7,2c1-0.5,1.7-1.3,2.1-2.2
				c0.8,0.6,1.2,1,1.4,2.2c0,0,0.2-0.9,0.2-0.9c0.2-1.4,0.1-1.8-1.5-2.9c-0.1-0.5-0.2-1-0.5-1.5c0,0,0,0,0-0.1c0,0,0,0,0,0
				c-0.1-0.2-0.2-0.3-0.3-0.5c-0.1-0.1-0.1-0.2-0.2-0.2c-0.3-0.3-0.6-0.6-1-0.9l-0.1-2.3l6.7-0.1v-7.6l3.2-2
				C233.6,402.1,229.5,400.2,228.9,395.9z"/>
			<path d="M260.9,413.4l2.2,0.9v-7.9c-6.3-0.2-3.2-13-3.2-13c-14.1,2.9-10.2-7.1-10.2-7.1c5.3-0.7,14.3-5.8,13.6-14
				c-1.2-15.4-39.7-9.6-51.1-8.9c-11.5,0.7-6.1-2.6,3.5-3.4c9.6-0.8-4.5-12.2-4.5-12.2s3.4,3.2-10.9,10.9c-14.3,7.7,4.3,9.3,4.3,9.3
				c-4.6,4.2,2.8,7,2.8,7c-2.5-3.4,1.8-6.2,1.8-6.2s32.2-6.5,43.4-1.8c11.2,4.7,1.2,17.7-6.8,15.2c-8.1-2.5-25.1-0.7-25.1-0.7
				l-13.8,18c15.4-11.8,24.1-9,24.1-9c5.7,12.8,10.1,10.1,17.2,12.7c7.1,2.6,4.7,9.1,4.7,9.1h-4.1c0.3-0.9,0.3-1.9-0.1-2.8
				c-0.9-2.1-3.4-3.2-5.6-2.4c-0.5,0.2-1,0.5-1.4,0.8c-1.8-0.2-2.2,0-3,1.2c0,0-0.4,0.8-0.4,0.9c0.9-0.7,1.5-0.8,2.5-0.7
				c-0.4,0.9-0.4,2,0,3c0.4,0.9,1,1.5,1.8,2l0.8,0.9c-0.5,0.3-0.9,0.6-1.3,1c-0.4,0.4-0.6,0.9-0.8,1.4c-1.7,0.7-1.9,1.1-2,2.6
				c0,0.1,0,0.9,0.1,1c0.4-1.1,0.9-1.4,1.8-1.8c0.1,1,0.7,1.9,1.6,2.6c1.8,1.3,4.5,1,6-0.8c0.6-0.7,0.9-1.6,0.9-2.4h1.8
				c0.1,0.4,0.3,0.9,0.5,1.3c1.2,2,3.9,2.7,5.9,1.6c1-0.5,1.6-1.4,1.9-2.4c0.9,0.5,1.3,1,1.6,2.1c0,0,0.2-0.9,0.2-0.9
				c0.1-1.4-0.1-1.8-1.7-2.8c-0.1-0.5-0.3-1-0.6-1.5c-0.3-0.4-0.6-0.7-0.9-1C258.8,413.8,260.9,413.4,260.9,413.4z"/>
			<path d="M194.7,381.4c0,0-10,19.5-49.7,23.8c0.1-0.3,0.1-0.5,0.1-0.8c0.2-2.5-1.6-5.1-4-5.8c-0.6-0.2-1.1-0.2-1.6-0.1
				c-1.6-1.4-2-1.4-3.3-0.8c-0.1,0-0.8,0.5-0.8,0.5c1.2-0.1,1.7,0.2,2.6,1c-0.8,0.6-1.3,1.6-1.4,2.8c-0.1,2.3,1.3,4.6,3.4,5.5
				l-0.2,0.4c-2-0.5-4.2,0.3-5.5,2.1c-0.4,0.5-0.6,1.1-0.8,1.7c-1.7,1-1.9,1.4-1.9,2.9c0,0.1,0.1,1,0.1,1c0.4-1.1,0.8-1.6,1.7-2.1
				c0.2,1.1,0.9,2,1.9,2.6c2.1,1.2,4.9,0,6.4-2.1c0,0,0,0,0-0.1l0.6,0.1l0.1,0.4c-0.3,1.8,0.1,3.7,0.9,4.8c0.6,0.9,1.5,1.2,2.5,1.2
				c-0.4,1.1-0.7,1.7-1.8,2.4c0,0,0.9-0.1,0.9-0.1c1.4-0.4,1.7-0.7,2.4-2.7c0.5-0.3,0.9-0.6,1.3-1.1c0.7-0.8,1.1-1.7,1.3-2.7
				c0,0,0,0,0,0c0-0.1,0-0.1,0-0.2c0.2-0.8,0.2-1.6,0-2.3l3.8,0.6l0.3,6.1c0,0,14.2-8.6,30.3-6.9c0,0,1.5-1.9,0.4-3.2
				c-1.1-1.3-2.3-9.8,1.3-11.9c0,0-1.6,11.1,5.7,7.2c7.3-3.9,12.4-6.3,12.4-6.3l12.8-17.6H194.7z"/>
		</g>
		<g>
			<path d="M193,348.8l-4.6-0.4c-0.3,0-0.7,0.1-0.9,0.3c0,0,0,0,0,0c-0.2,0.1-0.4,0.3-0.5,0.6l-0.4,0.8c-0.2,0.4-0.1,0.2-0.5,1
				l-2,3.6l2.2-6.3l-12.2-0.5c-0.4,0-1,0.2-1.3,0.4c-0.2,0.1-0.6,0.3-0.7,0.5l-2,1.6c0,0,0,0,0,0l-6.7,0.5c-0.4,0-0.7,0.1-0.7,0.5
				L162,354c0,0,0.3,0,0.4,0l3.9-0.7c0,0-0.3,1.1-3.3,1.6c-3,0.4,0.7,7.1,0.9,7.5c0.1,0.1,0.2,0.5,0.4,0.6l0.4,0.1
				c0.4,0.1,1.1-0.2,1.4-0.4c1.6-0.7,6.5-2.4,7.7,1.2c1.4,4.3-4.6,5.6-7.8,4.8c-0.1,0-0.1,0-0.1,0.1l0.1,5.6c0.1,0,0.1,0,0.1,0.1
				c0.9-0.8,6-5.4,10.7-3.5c0,0,0,0.1,0,0.1c-1.1,0.6-11.3,6.2-12,11.7c-0.7,5.6-0.7,14.7-3.6,16.7c-0.1,0,0,0.2,0.1,0.1l5.8-2.8
				l0.7-0.4c0.1,0,0.3-0.1,0.4-0.1l2.5-7.3l-0.6,6.6c2-0.7,4.1-1.6,6.2-2.5l2.9-12.2l-0.2,10.9c1.9-1,3.6-2.2,5.2-3.6l3.2-14.2
				l0,10.9l0.1-0.1l4.1-4.2c0.2-0.2,0.3-0.4,0.3-0.7c0-0.5,0-1.3,0-1.3V360c0-0.1,0-0.3-0.1-0.4l-0.6-0.9c-0.1-0.2-0.3-0.3-0.4-0.4
				l-2-1l2.1-0.6c0,0,0.1,0,0.3-0.1c0.6-0.2,1-0.7,1.1-1.2l1.4-5.8C193.7,349.2,193.4,348.8,193,348.8z M178.3,350.6l-0.9,1
				c-0.1,0.1-0.3,0.2-0.5,0.2l-4.6-0.1c-0.3,0-0.5-0.4-0.2-0.6l1.1-1c0.2-0.1,0.4-0.2,0.6-0.2l4.4,0.1
				C178.4,350,178.5,350.4,178.3,350.6z M190.6,354.4c-0.1,0.3-0.3,0.5-0.6,0.6l-3.1,0.1l3.7-4.9l1.2,0L190.6,354.4z"/>
			<polygon points="188.7,352.1 190.6,352.5 187.9,353.3 			"/>
			<polygon points="187.8,353.5 189.7,353.9 187,354.7 			"/>
		</g>
	</g>
	<g>
		<g>
			<g>
				<path d="M444.4,84.6c-0.1-0.7-0.7-1.4-1.3-1.4c-0.6,0-1,0.4-1.2,0.9c0,0.1-0.1,0.2-0.1,0.4c0,0,0,0,0,0.1c0,0,0,0,0,0.1
					c0,0.2,0,0.4,0.1,0.7c1,4.4,7.5,4.7,11.7,1.1C453.6,86.4,445.8,90.1,444.4,84.6z"/>
				<path d="M442.9,116.6c-5.1-3.3-13.3-5.8-13.3-5.8l3.9-3.4l-1.6-2.9c0,0,0,0,0,0c-0.2,0.3-0.5,0.6-0.8,0.8c0,0,0,0-0.1,0.1
					c0,0,0,0,0,0c-1.1,0.8-2.7,1.1-4.2,0.8c-0.5-0.1-1-0.3-1.4-0.6c-1.8,0.3-2.1,0.1-3-0.8c0,0-0.5-0.6-0.5-0.6
					c0.9,0.5,1.5,0.5,2.5,0.4c-0.4-0.7-0.5-1.5-0.1-2.3c0.5-1,1.7-2,3.1-2.5l0.2-0.2l-0.2-0.4c-2.1,0.3-4.3-0.5-4.9-2.4
					c-0.3-1-0.2-2,0.3-2.8c-0.9-0.2-1.5-0.2-2.4,0.3c0-0.1,0.5-0.7,0.5-0.7c0.9-1,1.3-1.1,3-0.7c0.4-0.3,0.8-0.5,1.3-0.6
					c2-0.4,4.1,0.6,4.9,2.3l0.4-0.1c-0.2-1.8,0.6-3.8,2.2-4.8c0.9-0.6,1.8-0.7,2.6-0.4c0.1-1,0-1.5-0.6-2.3c0,0,0.7,0.3,0.8,0.3
					c1,0.6,1.2,0.9,1.1,2.7c0.3,0.3,0.6,0.7,0.7,1.2c0.7,2-0.2,4.5-2,5.6c-0.1,0-0.2,0.1-0.2,0.1c2.6,3,7.7,5.2,10.8,7.3
					c0,0,0.4,4-1,8.4C444.3,114.6,442.9,116.6,442.9,116.6z"/>
				<path d="M502.9,113.4c0,0-8.3,2.5-11.7,13.1c0,0.1,0,0.1-0.1,0.2l-1.5,0.1c0,0,0-0.1,0-0.2c0.5-1.3,0.1-2.7-0.9-3.6
					c-1.5-1.3-3.8-1.2-5.2,0.3c-0.3,0.3-0.6,0.7-0.7,1.1c-1.5,0.5-1.7,0.8-1.9,2c0,0,0,0.8,0,0.8c0.4-0.9,0.9-1.1,1.7-1.4
					c0,0.9,0.4,1.7,1.1,2.3c0.3,0.3,0.7,0.5,1.1,0.6l0.1,0.9c0,0,0.1,0,0.1,0c-0.5,0.5-0.8,1.1-1,1.8c-0.1,0.5-0.1,0.9,0,1.3
					c-1,1.2-1,1.6-0.5,2.7c0,0,0.4,0.7,0.4,0.7c-0.1-1,0.1-1.4,0.6-2.1c0.5,0.7,1.3,1.2,2.3,1.3c2,0.3,3.9-1.1,4.3-3
					c0-0.2,0.1-0.5,0.1-0.7l1.8-0.2c0,0,0,0.1,0,0.2c0,0,0,0,0,0c0,0.5,0.1,1.1,0.4,1.6c0.9,1.7,3.1,2.5,4.9,1.7
					c0.9-0.4,1.5-1.1,1.7-1.9c0.7,0.5,1,0.9,1.2,1.8c0,0,0.2-0.7,0.2-0.8c0.2-1.2,0.1-1.6-1.2-2.5c0-0.4-0.2-0.9-0.4-1.3
					c0,0,0,0,0-0.1c0,0,0,0,0,0c-0.1-0.1-0.2-0.3-0.3-0.4c-0.1-0.1-0.1-0.1-0.2-0.2c-0.2-0.3-0.5-0.5-0.9-0.8l-0.1-1.9l5.7-0.1v-6.5
					l2.7-1.7C506.9,118.6,503.5,117,502.9,113.4z"/>
				<path d="M530.1,128.2l1.9,0.8v-6.7c-5.4-0.2-2.7-11.1-2.7-11.1c-11.9,2.5-8.7-6-8.7-6c4.5-0.6,12.1-4.9,11.6-11.9
					c-1-13-33.7-8.1-43.4-7.5c-9.8,0.6-5.2-2.2,3-2.9c8.2-0.7-3.8-10.4-3.8-10.4s2.9,2.7-9.3,9.3c-12.1,6.6,3.7,7.9,3.7,7.9
					c-3.9,3.6,2.4,6,2.4,6c-2.1-2.9,1.5-5.3,1.5-5.3s27.3-5.5,36.9-1.5c9.6,4,1.1,15-5.8,12.9c-6.9-2.1-21.3-0.6-21.3-0.6
					l-11.7,15.3c13-10.1,20.5-7.7,20.5-7.7c4.9,10.9,8.6,8.6,14.6,10.8c6.1,2.2,4,7.8,4,7.8h-3.5c0.3-0.7,0.3-1.6-0.1-2.4
					c-0.8-1.8-2.9-2.7-4.7-2c-0.4,0.2-0.8,0.4-1.2,0.7c-1.6-0.2-1.9,0-2.6,1c0,0-0.4,0.7-0.4,0.7c0.8-0.6,1.3-0.7,2.1-0.6
					c-0.3,0.8-0.4,1.7,0,2.6c0.3,0.7,0.9,1.3,1.5,1.7l0.7,0.7c-0.4,0.2-0.8,0.5-1.1,0.9c-0.3,0.4-0.5,0.8-0.6,1.2
					c-1.4,0.6-1.6,1-1.7,2.2c0,0,0,0.8,0,0.8c0.4-0.9,0.8-1.2,1.5-1.6c0.1,0.8,0.6,1.6,1.3,2.2c1.6,1.1,3.9,0.8,5.1-0.7
					c0.5-0.6,0.8-1.4,0.8-2.1h1.5c0.1,0.4,0.2,0.8,0.4,1.1c1.1,1.7,3.3,2.3,5,1.3c0.8-0.5,1.4-1.2,1.6-2c0.7,0.4,1.1,0.8,1.3,1.7
					c0,0,0.2-0.8,0.2-0.8c0.1-1.2-0.1-1.6-1.4-2.4c-0.1-0.4-0.2-0.9-0.5-1.3c-0.2-0.3-0.5-0.6-0.8-0.9
					C528.3,128.5,530.1,128.2,530.1,128.2z"/>
				<path d="M473.9,101c0,0-8.5,16.5-42.2,20.2c0.1-0.2,0.1-0.4,0.1-0.7c0.1-2.1-1.4-4.3-3.4-4.9c-0.5-0.1-0.9-0.2-1.4-0.1
					c-1.3-1.2-1.7-1.2-2.8-0.7c0,0-0.7,0.4-0.7,0.4c1,0,1.5,0.2,2.2,0.8c-0.7,0.5-1.1,1.4-1.2,2.4c-0.1,2,1.1,3.9,2.9,4.7l-0.2,0.3
					c-1.7-0.4-3.6,0.3-4.7,1.8c-0.3,0.4-0.5,0.9-0.6,1.4c-1.4,0.8-1.6,1.2-1.6,2.5c0,0.1,0.1,0.8,0.1,0.9c0.3-1,0.7-1.4,1.5-1.8
					c0.2,0.9,0.7,1.7,1.6,2.2c1.8,1,4.2,0,5.4-1.8c0,0,0,0,0,0l0.5,0.1l0,0.3c-0.2,1.5,0.1,3.2,0.8,4.1c0.5,0.7,1.3,1,2.1,1
					c-0.3,0.9-0.6,1.4-1.5,2c0,0,0.7-0.1,0.8-0.1c1.2-0.3,1.5-0.6,2.1-2.3c0.4-0.2,0.8-0.5,1.1-1c0.6-0.7,1-1.5,1.1-2.3c0,0,0,0,0,0
					c0-0.1,0-0.1,0-0.2c0.1-0.7,0.2-1.4,0-2l3.2,0.5l0.2,5.2c0,0,12-7.3,25.7-5.9c0,0,1.3-1.7,0.3-2.8c-0.9-1.1-2-8.4,1.1-10.1
					c0,0-1.3,9.4,4.9,6.1c6.2-3.3,10.6-5.4,10.6-5.4l10.9-15H473.9z"/>
			</g>
			<g>
				<path class="st0" d="M627,117.9h-8l9.5-8.2l6.8,0L627,117.9z M614.8,117.9h-6.7l9.5-8.2l6.7,0L614.8,117.9z M603.9,117.9h-6.8
					l9.5-8.2l6.8,0L603.9,117.9z M592.9,117.9h-7.2l9.5-8.2l7.2,0L592.9,117.9z M581.5,117.9h-7.1l9.5-8.2l7.1,0L581.5,117.9z
					 M581.5,120.6l9.4,8.2h-6.7l-9.4-8.2H581.5z M585.7,120.6h6.8l9.4,8.2h-6.8L585.7,120.6z M596.7,120.6h7.2l9.4,8.2h-7.2
					L596.7,120.6z M608.1,120.6h7.1l9.4,8.2h-7.1L608.1,120.6z M578.1,109.6h1.6l-9.5,8.2h-3.4C567.5,109.2,577.7,109.6,578.1,109.6
					z M578.2,128.9c-0.5,0-10.6,0.4-11.3-8.2h3.8l9.4,8.2H578.2z M635.3,128.9h-6.5l-9.4-8.2h7.6L635.3,128.9z"/>
				<polygon class="st0" points="639.8,119.5 547.4,119.5 538.5,116.8 642.4,116.8 				"/>
			</g>
			<g>
				<path class="st0" d="M320.9,109.6l6.8,0l9.5,8.2h-8L320.9,109.6z M332,109.6l6.7,0l9.5,8.2h-6.7L332,109.6z M342.9,109.6l6.8,0
					l9.5,8.2h-6.8L342.9,109.6z M353.8,109.6l7.2,0l9.5,8.2h-7.2L353.8,109.6z M365.2,109.6l7.1,0l9.5,8.2h-7.1L365.2,109.6z
					 M381.3,120.6l-9.4,8.2h-6.7l9.4-8.2H381.3z M361,128.9h-6.8l9.4-8.2h6.8L361,128.9z M350.1,128.9h-7.2l9.4-8.2h7.2L350.1,128.9
					z M338.6,128.9h-7.1l9.4-8.2h7.1L338.6,128.9z M389.3,117.9H386l-9.5-8.2h1.6C378.5,109.6,388.7,109.2,389.3,117.9z
					 M376.1,128.9l9.4-8.2h3.8c-0.7,8.6-10.8,8.3-11.3,8.2H376.1z M329.3,120.6h7.6l-9.4,8.2h-6.5L329.3,120.6z"/>
				<polygon class="st0" points="316.4,119.5 408.8,119.5 417.7,116.8 313.8,116.8 				"/>
			</g>
		</g>
		<g>
			<path d="M472.4,73.4l-3.9-0.4c-0.3,0-0.6,0.1-0.8,0.2c0,0,0,0,0,0c-0.2,0.1-0.3,0.3-0.4,0.5l-0.3,0.6c-0.2,0.4-0.1,0.2-0.4,0.8
				l-1.7,3.1l1.8-5.4l-10.4-0.4c-0.3,0-0.8,0.2-1.1,0.3c-0.2,0.1-0.5,0.3-0.6,0.4l-1.7,1.3c0,0,0,0,0,0l-5.7,0.5
				c-0.3,0-0.6,0.1-0.6,0.4l-0.3,2.3c0,0,0.3,0,0.3,0l3.3-0.6c0,0-0.2,1-2.8,1.3c-2.5,0.4,0.6,6,0.7,6.4c0.1,0.1,0.2,0.4,0.4,0.5
				l0.4,0.1c0.3,0.1,0.9-0.2,1.2-0.3c1.4-0.6,5.5-2,6.5,1.1c1.2,3.7-3.9,4.8-6.6,4.1c0,0-0.1,0-0.1,0.1l0.1,4.8c0.1,0,0.1,0,0.1,0.1
				c0.8-0.7,5.1-4.6,9.1-3c0,0,0,0,0,0.1c-1,0.5-9.6,5.3-10.2,10c-0.6,4.7-0.6,12.5-3.1,14.2c-0.1,0,0,0.1,0.1,0.1l4.9-2.3l0.6-0.3
				c0.1,0,0.2-0.1,0.4-0.1l2.1-6.2l-0.5,5.6c1.7-0.6,3.5-1.4,5.2-2.1l2.5-10.3l-0.2,9.2c1.6-0.9,3.1-1.9,4.4-3.1l2.7-12l0,9.3
				l0.1-0.1l3.5-3.5c0.2-0.2,0.2-0.4,0.2-0.6c0-0.4,0-1.1,0-1.1V82.9c0-0.1,0-0.2-0.1-0.3l-0.5-0.8c-0.1-0.1-0.2-0.3-0.4-0.3
				l-1.7-0.8l1.8-0.5c0,0,0.1,0,0.2-0.1c0.5-0.2,0.9-0.6,1-1.1l1.2-5C473,73.7,472.8,73.4,472.4,73.4z M459.9,74.9l-0.8,0.9
				c-0.1,0.1-0.3,0.2-0.4,0.2l-3.9-0.1c-0.3,0-0.4-0.3-0.2-0.5l0.9-0.8c0.1-0.1,0.3-0.2,0.5-0.2l3.7,0.1
				C460,74.4,460.1,74.7,459.9,74.9z M470.4,78.1c-0.1,0.3-0.3,0.4-0.5,0.5l-2.6,0.1l3.1-4.2l1.1,0L470.4,78.1z"/>
			<polygon points="468.8,76.1 470.3,76.5 468.1,77.2 			"/>
			<polygon points="468,77.3 469.6,77.7 467.3,78.3 			"/>
		</g>
	</g>
</g>
<g id="Layer_2">
	<g>
		<g>
			<g>
				<g>
					<g>
						<path class="st0" d="M584.9,409.4h-6.4l7.6-6.3l5.5,0L584.9,409.4z M575.1,409.4h-5.3l7.6-6.3l5.3,0L575.1,409.4z
							 M566.4,409.4H561l7.6-6.3l5.4,0L566.4,409.4z M557.7,409.4h-5.8l7.6-6.3l5.8,0L557.7,409.4z M548.5,409.4h-5.6l7.6-6.3l5.6,0
							L548.5,409.4z M548.6,411.5l7.6,6.3h-5.3l-7.6-6.3H548.6z M551.9,411.5h5.4l7.6,6.3h-5.4L551.9,411.5z M560.7,411.5h5.8
							l7.6,6.3h-5.8L560.7,411.5z M569.8,411.5h5.6l7.6,6.3h-5.6L569.8,411.5z M545.8,403.1h1.3l-7.6,6.3h-2.7
							C537.3,402.8,545.5,403.1,545.8,403.1z M545.8,417.8c-0.4,0-8.5,0.3-9-6.3h3l7.6,6.3H545.8z M591.6,417.8h-5.2l-7.6-6.3h6
							L591.6,417.8z"/>
						<polygon class="st0" points="532.8,408.5 532.6,410.7 595.2,410.7 597.2,408.5 						"/>
					</g>
					<g>
						<path class="st0" d="M364.6,406.8l5.5,0l7.6,6.3h-6.4L364.6,406.8z M373.5,406.8l5.3,0l7.6,6.3h-5.3L373.5,406.8z
							 M382.2,406.8l5.4,0l7.6,6.3h-5.4L382.2,406.8z M391,406.8l5.8,0l7.6,6.3h-5.8L391,406.8z M400.1,406.8l5.6,0l7.6,6.3h-5.6
							L400.1,406.8z M413,415.2l-7.6,6.3h-5.3l7.6-6.3H413z M396.7,421.5h-5.4l7.6-6.3h5.4L396.7,421.5z M388,421.5h-5.8l7.6-6.3
							h5.8L388,421.5z M378.8,421.5h-5.6l7.6-6.3h5.6L378.8,421.5z M419.4,413.1h-2.7l-7.6-6.3h1.3
							C410.8,406.8,418.9,406.5,419.4,413.1z M408.8,421.5l7.6-6.3h3c-0.5,6.6-8.6,6.3-9,6.3H408.8z M371.3,415.2h6l-7.6,6.3h-5.2
							L371.3,415.2z"/>
						<polygon class="st0" points="424.1,414.3 423.7,412.3 359,412.3 361,414.4 424.1,414.4 						"/>
					</g>
				</g>
				<g>
					<g>
						<g>
							<path d="M447.8,377.9c-0.1-0.6-0.7-1.2-1.3-1.2c-0.5,0-1,0.3-1.1,0.8c0,0.1-0.1,0.2-0.1,0.4c0,0,0,0,0,0.1c0,0,0,0,0,0
								c0,0.2,0,0.4,0.1,0.6c1,4,7.1,4.3,11.2,1C456.5,379.6,449.1,382.9,447.8,377.9z"/>
							<path d="M446.4,407c-4.8-3-12.7-5.3-12.7-5.3l3.8-3.1l-1.5-2.7c0,0,0,0,0,0c-0.2,0.3-0.5,0.5-0.8,0.8c0,0,0,0-0.1,0.1
								c0,0,0,0,0,0c-1.1,0.7-2.6,1-4,0.7c-0.5-0.1-1-0.3-1.4-0.5c-1.7,0.2-2,0.1-2.8-0.7c0,0-0.4-0.5-0.4-0.6
								c0.9,0.4,1.4,0.5,2.3,0.4c-0.4-0.6-0.4-1.4-0.1-2.1c0.5-0.9,1.6-1.8,3-2.3l0.1-0.1l-0.2-0.4c-2,0.3-4.1-0.4-4.7-2.2
								c-0.3-0.9-0.2-1.8,0.3-2.5c-0.9-0.2-1.4-0.2-2.3,0.3c0,0,0.4-0.6,0.5-0.7c0.9-0.9,1.2-1,2.9-0.7c0.4-0.2,0.8-0.4,1.3-0.5
								c1.9-0.4,3.9,0.5,4.7,2.1l0.4-0.1c-0.2-1.6,0.6-3.4,2.1-4.3c0.8-0.5,1.7-0.6,2.5-0.4c0.1-0.9,0-1.4-0.6-2.1
								c0,0,0.7,0.2,0.7,0.3c1,0.5,1.2,0.8,1,2.5c0.3,0.3,0.5,0.6,0.7,1.1c0.7,1.8-0.2,4.1-1.9,5.1c-0.1,0-0.1,0.1-0.2,0.1
								c2.5,2.8,7.3,4.8,10.3,6.6c0,0,0.3,3.6-1,7.7C447.7,405.2,446.4,407,446.4,407z"/>
							<path d="M503.5,404.1c0,0-8,2.2-11.2,11.9c0,0.1,0,0.1-0.1,0.2l-1.4,0c0,0,0-0.1,0-0.1c0.4-1.1,0.1-2.5-0.9-3.3
								c-1.4-1.2-3.6-1-4.9,0.2c-0.3,0.3-0.5,0.7-0.7,1c-1.4,0.5-1.6,0.8-1.8,1.8c0,0,0,0.7,0,0.7c0.4-0.8,0.8-1,1.6-1.3
								c0,0.8,0.4,1.5,1.1,2.1c0.3,0.3,0.7,0.4,1.1,0.6l0.1,0.8c0,0,0.1,0,0.1,0c-0.5,0.5-0.8,1-0.9,1.7c-0.1,0.4-0.1,0.8,0,1.2
								c-0.9,1.1-0.9,1.5-0.5,2.4c0,0,0.4,0.6,0.4,0.6c-0.1-0.9,0.1-1.3,0.6-1.9c0.5,0.6,1.2,1.1,2.2,1.2c1.9,0.2,3.7-1,4.1-2.7
								c0-0.2,0.1-0.4,0.1-0.6l1.7-0.2c0,0,0,0.1,0,0.2c0,0,0,0,0,0c0,0.5,0.1,1,0.4,1.5c0.9,1.6,3,2.3,4.7,1.5
								c0.8-0.4,1.4-1,1.7-1.7c0.7,0.5,1,0.8,1.1,1.7c0,0,0.2-0.7,0.2-0.7c0.2-1.1,0.1-1.4-1.2-2.2c0-0.4-0.2-0.8-0.4-1.2
								c0,0,0,0,0-0.1c0,0,0,0,0,0c-0.1-0.1-0.2-0.3-0.3-0.4c-0.1-0.1-0.1-0.1-0.2-0.2c-0.2-0.2-0.5-0.5-0.8-0.7l0-1.8l5.4,0v-5.9
								l2.6-1.5C507.3,408.8,504,407.4,503.5,404.1z"/>
							<path d="M529.4,417.6l1.8,0.7v-6.1c-5.1-0.2-2.6-10-2.6-10c-11.4,2.3-8.2-5.5-8.2-5.5c4.3-0.5,11.5-4.5,11-10.8
								c-0.9-11.8-32.1-7.4-41.4-6.9c-9.3,0.5-4.9-2,2.8-2.6c7.8-0.6-3.6-9.4-3.6-9.4s2.7,2.4-8.8,8.4c-11.6,6,3.5,7.1,3.5,7.1
								c-3.7,3.3,2.3,5.4,2.3,5.4c-2-2.6,1.4-4.8,1.4-4.8s26-5,35.1-1.4c9.1,3.6,1,13.6-5.5,11.7c-6.5-1.9-20.3-0.5-20.3-0.5
								L485.8,407c12.4-9.1,19.5-7,19.5-7c4.6,9.9,8.2,7.8,13.9,9.8c5.8,2,3.8,7.1,3.8,7.1h-3.3c0.3-0.7,0.3-1.4-0.1-2.2
								c-0.7-1.6-2.8-2.5-4.5-1.9c-0.4,0.1-0.8,0.4-1.1,0.6c-1.5-0.2-1.8,0-2.5,0.9c0,0-0.4,0.6-0.4,0.7c0.7-0.5,1.2-0.6,2-0.5
								c-0.3,0.7-0.3,1.5,0,2.3c0.3,0.7,0.8,1.2,1.4,1.5l0.6,0.7c-0.4,0.2-0.7,0.5-1,0.8c-0.3,0.3-0.5,0.7-0.6,1.1
								c-1.4,0.6-1.6,0.9-1.6,2c0,0,0,0.7,0,0.7c0.3-0.8,0.7-1.1,1.5-1.4c0.1,0.8,0.5,1.5,1.3,2c1.5,1,3.7,0.8,4.9-0.6
								c0.5-0.6,0.7-1.2,0.7-1.9h1.4c0.1,0.3,0.2,0.7,0.4,1c1,1.5,3.1,2,4.8,1.2c0.8-0.4,1.3-1.1,1.5-1.8c0.7,0.4,1,0.7,1.3,1.6
								c0,0,0.1-0.7,0.1-0.7c0.1-1.1-0.1-1.4-1.3-2.2c-0.1-0.4-0.2-0.8-0.5-1.1c-0.2-0.3-0.5-0.6-0.8-0.8
								C527.7,417.9,529.4,417.6,529.4,417.6z"/>
							<path d="M475.8,392.8c0,0-8.1,15-40.2,18.3c0-0.2,0.1-0.4,0.1-0.6c0.1-1.9-1.3-3.9-3.2-4.5c-0.5-0.1-0.9-0.1-1.3-0.1
								c-1.3-1.1-1.6-1.1-2.7-0.7c0,0-0.6,0.4-0.6,0.4c0.9,0,1.4,0.2,2.1,0.8c-0.6,0.5-1.1,1.2-1.1,2.2c-0.1,1.8,1.1,3.6,2.7,4.3
								l-0.2,0.3c-1.6-0.4-3.4,0.2-4.4,1.6c-0.3,0.4-0.5,0.8-0.6,1.3c-1.4,0.8-1.5,1.1-1.5,2.3c0,0,0.1,0.8,0.1,0.8
								c0.3-0.9,0.7-1.2,1.4-1.7c0.2,0.8,0.7,1.6,1.5,2c1.7,0.9,4,0,5.2-1.7c0,0,0,0,0,0l0.5,0.1l0,0.3c-0.2,1.4,0.1,2.9,0.7,3.7
								c0.5,0.7,1.2,1,2,0.9c-0.3,0.8-0.6,1.3-1.4,1.8c0,0,0.7-0.1,0.7-0.1c1.1-0.3,1.4-0.6,2-2.1c0.4-0.2,0.7-0.5,1.1-0.9
								c0.5-0.6,0.9-1.3,1.1-2.1c0,0,0,0,0,0c0,0,0-0.1,0-0.2c0.1-0.6,0.1-1.2,0-1.8l3.1,0.5l0.2,4.7c0,0,11.5-6.6,24.5-5.3
								c0,0,1.2-1.5,0.3-2.5c-0.9-1-1.9-7.6,1.1-9.2c0,0-1.3,8.5,4.6,5.5c5.9-3,10.1-4.9,10.1-4.9l10.4-13.6H475.8z"/>
						</g>
					</g>
					<g>
						<path d="M474.4,367.7l-3.8-0.3c-0.3,0-0.5,0.1-0.8,0.2c0,0,0,0,0,0c-0.2,0.1-0.3,0.3-0.4,0.5l-0.3,0.6
							c-0.2,0.3-0.1,0.2-0.4,0.8l-1.6,2.8l1.7-4.9l-9.9-0.4c-0.3,0-0.8,0.2-1.1,0.3c-0.2,0.1-0.4,0.2-0.6,0.3l-1.6,1.2c0,0,0,0,0,0
							l-5.4,0.4c-0.3,0-0.6,0.1-0.6,0.4l-0.3,2.1c0,0,0.2,0,0.3,0l3.1-0.6c0,0-0.2,0.9-2.7,1.2c-2.4,0.3,0.6,5.5,0.7,5.8
							c0.1,0.1,0.2,0.4,0.4,0.5l0.3,0.1c0.3,0.1,0.9-0.2,1.1-0.3c1.3-0.5,5.3-1.8,6.2,1c1.1,3.3-3.7,4.3-6.3,3.7c0,0-0.1,0-0.1,0.1
							l0.1,4.4c0.1,0,0.1,0,0.1,0c0.7-0.7,4.9-4.2,8.7-2.7c0,0,0,0,0,0.1c-0.9,0.5-9.2,4.8-9.7,9c-0.6,4.3-0.6,11.4-2.9,12.9
							c-0.1,0,0,0.1,0.1,0.1l4.7-2.1l0.6-0.3c0.1,0,0.2-0.1,0.3-0.1l2-5.6l-0.5,5.1c1.6-0.6,3.3-1.3,5-1.9l2.4-9.4l-0.2,8.4
							c1.5-0.8,2.9-1.7,4.2-2.8l2.6-10.9l0,8.4l0.1-0.1l3.4-3.2c0.1-0.1,0.2-0.3,0.2-0.6c0-0.4,0-1,0-1v-14.5c0-0.1,0-0.2-0.1-0.3
							l-0.5-0.7c-0.1-0.1-0.2-0.2-0.3-0.3l-1.6-0.7l1.7-0.5c0,0,0.1,0,0.2-0.1c0.5-0.1,0.8-0.5,0.9-1l1.1-4.5
							C475,368,474.8,367.7,474.4,367.7z M462.6,369.1l-0.8,0.8c-0.1,0.1-0.3,0.2-0.4,0.2l-3.7-0.1c-0.3,0-0.4-0.3-0.2-0.4l0.9-0.8
							c0.1-0.1,0.3-0.1,0.5-0.1l3.5,0.1C462.6,368.6,462.7,368.9,462.6,369.1z M472.5,372.1c-0.1,0.2-0.3,0.4-0.5,0.5l-2.5,0.1
							l3-3.8l1,0L472.5,372.1z"/>
						<polygon points="471,370.2 472.5,370.6 470.3,371.2 						"/>
						<polygon points="470.3,371.3 471.8,371.7 469.6,372.2 						"/>
					</g>
				</g>
				<g>
					<g>
						<path d="M407.3,376.3c0.1-0.4,0.3-0.6,0.6-0.8c0.3-0.2,0.6-0.2,1-0.2l5.2,1.4c0.4,0.1,0.6,0.3,0.8,0.6c0.2,0.3,0.2,0.7,0.1,1
							l-1.5,5l4,1.1l-0.8,2.7l-11.8-3.1L407.3,376.3z M409.4,378.3l-1.1,3.7l2.7,0.7l1.1-3.7L409.4,378.3z"/>
						<path d="M405.6,383.8l11,2.9l0.6-1.9l-4-1.1l1.6-5.4c0.1-0.3,0.1-0.5-0.1-0.8c-0.1-0.2-0.3-0.4-0.5-0.4l-5.2-1.4
							c-0.2-0.1-0.4,0-0.7,0.1c-0.2,0.1-0.4,0.3-0.5,0.6v0L405.6,383.8z M411.4,383.2l-3.5-0.9l1.3-4.4l3.5,0.9L411.4,383.2z"/>
					</g>
					<g>
						<path d="M414.7,366.3l2,1l1.7-2.9l2.2,1.2l-1.7,2.9l1.9,1l3.1-5.3l2.2,1.2l-4.5,7.7l-10.7-5.7l4.5-7.7l2.3,1.2L414.7,366.3z"
							/>
						<path d="M411.6,367.3l10,5.3l4.1-7l-1.6-0.8l-3.1,5.3l-2.6-1.4l1.7-2.9l-1.6-0.8l-1.7,2.9l-2.7-1.4l3.1-5.3l-1.6-0.9
							L411.6,367.3z"/>
					</g>
					<g>
						<path d="M427.7,349.3l-1.9,2l7.2,6.2l-1.9,2l-7.2-6.2l-1.9,2l-1.9-1.6l5.7-6.1L427.7,349.3z"/>
						<path d="M423.9,352.8l7.2,6.2l1.4-1.5l-7.2-6.2l1.9-2l-1.3-1.1l-5.2,5.5l1.3,1.1L423.9,352.8z"/>
					</g>
					<g>
						<path d="M435.8,342.9l1.3,1.7l2.9-1.9l1.5,2l-2.9,1.9l1.3,1.7l5.2-3.5l1.5,2l-7.5,5.1l-7.1-9.5l7.5-5.1l1.5,2L435.8,342.9z"/>
						<path d="M432.5,342.5l6.6,8.9l6.8-4.6l-1-1.4l-5.2,3.5l-1.7-2.3l2.9-1.9l-1-1.4l-2.9,1.9l-1.8-2.4l5.2-3.5l-1.1-1.4
							L432.5,342.5z"/>
					</g>
					<g>
						<path d="M458.6,341.7l-4.1-2.7l-1.9,0.7l1.5,3.7l-2.7,1l-4.5-10.9l7.7-2.9c0.4-0.1,0.7-0.2,1.1,0c0.4,0.1,0.6,0.3,0.7,0.7
							l2,4.8c0.1,0.3,0.1,0.7,0,1c-0.2,0.3-0.4,0.6-0.8,0.7l4.1,2.7L458.6,341.7z M451.6,337.3l3.7-1.4l-1-2.5l-3.7,1.4L451.6,337.3
							z"/>
						<path d="M447.4,333.7l4.2,10.1l1.9-0.7l-1.5-3.7l2.5-0.9l4.1,2.7l2.2-0.8l-4.1-2.7l0.7-0.3c0.3-0.1,0.5-0.3,0.6-0.5
							c0.1-0.2,0.1-0.4,0-0.7l-2-4.8c-0.1-0.2-0.2-0.4-0.5-0.4c-0.3-0.1-0.5-0.1-0.8,0L447.4,333.7z M451.3,337.8l-1.3-3.2l4.5-1.7
							l1.3,3.2L451.3,337.8z"/>
					</g>
					<g>
						<path d="M490.5,327.3l-0.8,11.7l-2.9-0.2l0.6-9.1l-3.1,4.7l-1.8-0.1l-2.4-5l-0.6,9.1l-2.9-0.2l0.8-11.7l4.4,0.3l1.9,3.1
							l2.3-2.9L490.5,327.3z"/>
						<path d="M487.3,338.4l2.1,0.1l0.7-10.9l-3.8-0.2l-2.5,3.2l-2.1-3.5l-3.8-0.2l-0.7,10.9l2.1,0.1l0.6-10.3l3,6.2l1.4,0.1
							l3.8-5.8L487.3,338.4z"/>
					</g>
					<g>
						<path d="M503.1,342.8l-6.6-2.2c-0.4-0.1-0.7-0.3-0.9-0.6c-0.2-0.3-0.2-0.6-0.1-1l3.6-9.9l2.8,0.9l-3.1,8.7l3.9,1.3l3.1-8.7
							l2.8,0.9l-3.6,9.9c-0.1,0.3-0.4,0.6-0.7,0.7C503.9,343,503.5,343,503.1,342.8z"/>
						<path d="M503.3,342.5c0.3,0.1,0.6,0.1,0.8,0c0.2-0.1,0.4-0.2,0.5-0.5l3.4-9.5l-2-0.7l-3.1,8.7l-4.6-1.5l3.1-8.7l-2-0.7
							l-3.4,9.5c-0.1,0.2-0.1,0.4,0.1,0.6c0.1,0.2,0.3,0.4,0.6,0.5L503.3,342.5z"/>
					</g>
					<g>
						<path d="M516.4,349.9l0-4.8l-1.7-1.1l-2.3,3.3l-2.4-1.5l6.7-9.8l7,4.4c0.3,0.2,0.6,0.5,0.7,0.8c0.1,0.3,0,0.7-0.1,0.9l-3,4.3
							c-0.2,0.3-0.5,0.5-0.9,0.5s-0.7,0-1.1-0.2l0,4.8L516.4,349.9z M516,341.9l3.3,2.1l1.6-2.3l-3.3-2.1L516,341.9z"/>
						<path d="M516.8,349.7l2,1.3l0-4.8l0.6,0.4c0.3,0.2,0.5,0.2,0.8,0.2c0.3,0,0.4-0.2,0.6-0.4l3-4.3c0.1-0.2,0.2-0.4,0.1-0.6
							c-0.1-0.3-0.2-0.5-0.5-0.6l-6.6-4.1l-6.3,9.1l1.7,1.1l2.3-3.3l2.2,1.4L516.8,349.7z M519.5,344.5l-4-2.5l2-2.9l4,2.5
							L519.5,344.5z"/>
					</g>
					<g>
						<path d="M537.2,352.6c0.3,0.3,0.4,0.6,0.4,1c0,0.4-0.1,0.7-0.4,0.9l-4,3.5c-0.3,0.2-0.6,0.3-1,0.3c-0.4,0-0.7-0.2-1-0.5
							l-3.7-3.8l-3.1,2.7l-2-2l9-7.9L537.2,352.6z M534.3,353.2l-2.7-2.8l-2.1,1.8l2.7,2.8L534.3,353.2z"/>
						<path d="M527.6,353.4l4,4.1c0.2,0.2,0.4,0.3,0.7,0.3c0.3,0,0.5,0,0.7-0.2l4-3.5c0.2-0.2,0.3-0.3,0.3-0.6
							c0-0.3-0.1-0.5-0.3-0.7l-5.4-5.6l-8.4,7.4l1.4,1.5L527.6,353.4z M532.2,355.6l-3.3-3.4l2.7-2.3l3.3,3.4L532.2,355.6z"/>
					</g>
					<g>
						<path d="M547.6,367.9l-10.7,5.7l-1.4-2.4l3.6-1.9l-1.9-3.3l-3.6,1.9l-1.4-2.4l10.7-5.7l1.4,2.4l-4.8,2.6l1.9,3.3l4.8-2.6
							L547.6,367.9z"/>
						<path d="M536.1,371.4l1,1.7l10-5.3l-1-1.7l-4.8,2.6l-2.3-4l4.8-2.6l-1-1.7l-10,5.3l1,1.7l3.6-1.9l2.3,4L536.1,371.4z"/>
					</g>
					<g>
						<path d="M546.3,383.5l-5.4,1.4l-0.7-2.7l5.4-1.4l5.2-5.9l1,3.6l-2.4,2.7l3.4,1.2l1,3.6L546.3,383.5z"/>
						<path d="M546.3,383.1l7,2.4l-0.8-2.7l-3.8-1.3l2.6-2.9l-0.8-2.7l-4.8,5.4l-5.1,1.3l0.5,1.9L546.3,383.1z"/>
					</g>
				</g>
				<polygon class="st0" points="364.2,427.5 415.9,427.5 420.4,426.2 362.9,426.2 				"/>
				<polygon class="st0" points="592.2,399.6 540.4,399.6 535.9,398.3 593.4,398.3 				"/>
			</g>
		</g>
		<g>
			<path class="st0" d="M389.2,396.6c0.3,0.1,0.4,0.3,0.4,0.6c0,0.3-0.2,0.4-0.5,0.4c-1.2,0-2.4,0-3.6,0c-0.3,0-0.4,0.2-0.4,0.5
				c0,0.3,0.1,0.4,0.4,0.4c1,0,2,0.1,3,0.1c0.3,0,0.4,0.1,0.4,0.4c0,0.5-0.1,0.5-0.4,0.5c-0.9,0-1.9,0-2.8,0c-0.4,0-0.6,0.1-0.6,0.5
				c0,0.4,0.2,0.6,0.7,0.5c0.7-0.1,1.5-0.1,2.2,0c0.1,0,0.1,0,0.2,0c0.4-0.2,0.8-0.1,1.2,0c0.3,0.1,0.3,0.2,0.3,0.5
				c0,0.3-0.1,0.4-0.4,0.4c-0.8,0-1.6,0-2.3,0c-0.8,0-1.6,0-2.4,0c-0.3,0-0.4-0.1-0.5-0.4c-0.1-0.5-0.1-0.9,0-1.3
				c0.1-0.4-0.1-0.8-0.1-1.2c0-0.4,0.1-0.8,0-1.2c-0.1-0.3,0.1-0.5,0.5-0.5c0.7,0,1.3,0.1,2-0.1H389.2z"/>
			<path class="st0" d="M393.8,401.3c-0.9,0-1.6,0-2.2-0.2c-0.3-0.1-0.7-0.3-0.9-0.5c-0.2-0.2-0.3-0.4-0.1-0.7
				c0.2-0.2,0.5-0.3,0.8-0.2c0.2,0.1,0.4,0.3,0.6,0.4c0.8,0.2,1.7,0.2,2.5,0.1c0.2,0,0.3,0,0.5-0.1c0.1,0,0.3-0.1,0.3-0.2
				c0-0.2-0.1-0.2-0.3-0.3c-0.4-0.1-0.7-0.2-1.1-0.2c-0.7,0-1.4-0.1-2.1-0.3c-0.4-0.1-0.9-0.3-1.1-0.7c-0.2-0.6,0-1.1,0.6-1.4
				c0.7-0.3,1.4-0.4,2.1-0.4c0.4,0,0.7,0,1.1,0c0.4,0,0.7,0.2,1.1,0.3c0.3,0.1,0.5,0.3,0.7,0.6c0.1,0.1,0,0.2-0.1,0.3
				c-0.2,0.2-0.3,0.3-0.6,0.2c-0.1,0-0.3-0.1-0.4-0.2c-0.8-0.5-1.7-0.5-2.6-0.4c-0.2,0-0.6,0-0.6,0.4c0,0.3,0.4,0.4,0.6,0.4
				c0.6,0.1,1.2,0.2,1.9,0.2c0.5,0,1,0.2,1.5,0.4c0.5,0.3,0.6,0.7,0.6,1.2c-0.1,0.5-0.5,0.7-0.9,0.8
				C395.1,401.2,394.4,401.5,393.8,401.3z"/>
			<path class="st0" d="M401,399.1c0,0.6,0,1.1,0,1.7c0,0.4-0.2,0.6-0.6,0.5c-0.2,0-0.3-0.1-0.3-0.3c0-0.1-0.1-0.2-0.1-0.3
				c0-0.7,0-1.4,0-2.2c0-0.3,0-0.5,0-0.8c0-0.2-0.2-0.4-0.4-0.3c-0.5,0.1-1.1-0.1-1.6,0c-0.2,0-0.4,0-0.4-0.3c0-0.3,0.1-0.6,0.3-0.6
				c0.9,0.1,1.9,0,2.8,0c0.8,0,1.7,0.1,2.4,0c0.2,0,0.4,0,0.4,0.3c0,0.2,0,0.5-0.3,0.6c-0.1,0-0.2,0.1-0.4,0.1h-1.2
				c-0.4,0-0.6,0.1-0.6,0.5C401,398.4,401,398.8,401,399.1L401,399.1z"/>
			<path class="st0" d="M404.8,401.4c-0.3,0-0.5-0.2-0.4-0.6c0-0.3,0.2-0.3,0.5-0.3c0.3,0,0.5,0.2,0.5,0.4
				C405.5,401.1,405.1,401.4,404.8,401.4z"/>
		</g>
		<g>
			<path d="M467.5,440.3c0.6,0.1,1.1,0.2,1.6,0.2c0.5,0,0.6,0.1,0.6,0.6c0,0.5-0.1,0.6-0.6,0.6h-5.9c-0.4,0-0.6-0.1-0.6-0.5
				c0-0.6,0-0.6,0.5-0.7c1.6-0.4,3.1-0.8,4.3-1.9c0.4-0.3,0.7-0.8,0.7-1.3c0-0.3-0.2-0.5-0.5-0.6c-1.1-0.4-2.1-0.2-3.1,0.3
				c-0.3,0.2-0.6,0.5-1.1,0.3c-0.3-0.1-0.5-0.3-0.6-0.5c-0.1-0.3,0.1-0.5,0.3-0.7c1.7-1.2,3.5-1.1,5.3-0.4c0.4,0.2,0.7,0.5,0.8,0.9
				c0.3,1.2-0.1,2.4-1.2,3.1C467.9,439.8,467.7,440,467.5,440.3z"/>
			<path d="M474.9,441.7c-0.6,0-1.2,0-1.8-0.2c-1.3-0.3-2.3-1.6-2.1-2.9c0.1-0.4,0.1-0.8,0.1-1.2c0-0.9,1.3-1.8,2-2
				c1-0.3,2-0.3,3-0.2c1.1,0.2,2.1,0.5,2.5,1.6c0.5,1.2,0.4,2.6-0.3,3.7c-0.5,0.8-1.5,1-2.4,1.1
				C475.6,441.7,475.3,441.7,474.9,441.7z M475.2,436.5c-0.5,0-0.8,0-1.2,0.1c-1,0.2-1.5,0.8-1.6,1.8c0,1.1,0.3,1.6,1.4,1.9
				c0.4,0.1,0.8,0.2,1.3,0.2c1-0.1,1.9-0.4,2.3-1.5c0.3-0.7-0.2-1.9-0.8-2.1C476.1,436.6,475.6,436.4,475.2,436.5z"/>
			<path d="M480.8,436.2c0.5-0.5,1-0.9,1.7-0.8c0.4,0,0.6,0.2,0.6,0.6c0,1.8,0,3.5,0,5.3c0,0.4-0.3,0.6-0.8,0.6
				c-0.4,0-0.6-0.2-0.6-0.6c0-0.7,0-1.3,0-2c0-0.6-0.1-1.2,0-1.8c0-0.2-0.1-0.4-0.4-0.4c-0.4,0-0.6-0.2-0.6-0.6V436.2z"/>
			<path d="M488.5,441.7c-0.8,0.1-1.5,0-2.3-0.3c-0.4-0.2-0.7-0.5-1-0.8c-0.2-0.2-0.2-0.5,0-0.7c0.3-0.2,0.5-0.5,0.9-0.3
				c0.4,0.2,0.7,0.4,1,0.6c0.8,0.5,2.3,0.3,3.1-0.1c0.2-0.1,0.3-0.2,0.3-0.4c-0.1-0.2-0.2-0.4-0.4-0.5c-0.5-0.2-0.9-0.1-1.4-0.1
				c-0.4-0.1-0.6-0.3-0.6-0.6c0-0.6,0.1-0.7,0.6-0.7c0.4,0,0.8-0.1,1.2-0.2c0.3-0.1,0.3-0.2,0.2-0.5c-0.1-0.3-0.3-0.5-0.6-0.6
				c-1.1-0.3-2.1-0.1-3,0.6c-0.5,0.4-1.1,0.3-1.4-0.3c-0.1-0.2-0.1-0.4,0.2-0.6c0.7-0.6,1.4-0.9,2.4-1c1.2-0.2,2.2,0,3.2,0.5
				c0.6,0.3,1.1,1.2,0.8,1.8c-0.1,0.2-0.1,0.3-0.2,0.4c-0.2,0.3-0.1,0.5,0.1,0.7c0.4,0.5,0.5,1,0.4,1.6c-0.1,0.5-0.9,1.2-1.5,1.3
				C489.8,441.6,489.2,441.8,488.5,441.7z"/>
		</g>
		<g>
			<path class="st0" d="M548.5,422.8c0.7,0,1.1,0.4,1.5,0.8c0.2,0.3,0.5,0.5,0.7,0.8c0.2,0.2,0.5,0.2,0.8,0c0.5-0.4,0.9-0.9,1.4-1.3
				c0.3-0.2,0.9-0.4,1.2-0.2c0.2,0.1,0.2,0.1,0.1,0.3c-0.1,0.2-0.3,0.4-0.5,0.5c-0.5,0.3-0.8,0.8-1.2,1.2c-0.2,0.2-0.4,0.3-0.6,0.5
				c-0.2,0.2-0.3,0.4-0.3,0.7c0,0.4-0.1,0.8-0.1,1.1c0,0.3-0.2,0.4-0.6,0.4c-0.2,0-0.4-0.3-0.4-0.5c0-0.6,0.1-1.3-0.4-1.8
				c-0.3-0.3-0.7-0.6-1-0.9c-0.4-0.3-0.8-0.7-1.2-1.1c-0.2-0.2-0.1-0.4,0.1-0.5C548.3,422.8,548.4,422.8,548.5,422.8z"/>
			<path class="st0" d="M560.7,427.5c-0.5,0.1-0.8-0.2-1.2-0.5c-0.4-0.4-0.8-0.8-1.3-1.1c-0.2-0.1-0.3-0.1-0.5,0
				c-0.5,0.4-0.9,0.7-1.3,1.2c-0.3,0.3-0.7,0.5-1.1,0.4c-0.1,0-0.1,0-0.2,0c-0.1,0-0.3,0.1-0.3-0.1c-0.1-0.2,0-0.3,0.1-0.4
				c0.2-0.2,0.4-0.3,0.7-0.5c0.5-0.4,0.8-0.8,1.3-1.1c0.2-0.1,0.2-0.3,0.1-0.5c-0.3-0.2-0.5-0.5-0.8-0.7c-0.5-0.3-0.8-0.7-1.3-1.1
				c-0.1-0.1-0.2-0.2-0.1-0.3c0.1-0.1,0.2-0.2,0.3-0.2c0.6,0,1.1,0.1,1.5,0.5c0.4,0.4,0.8,0.7,1.2,1c0.2,0.2,0.7,0,0.9-0.2
				c0.4-0.4,0.8-0.8,1.2-1.1c0.4-0.3,0.8-0.2,1.2-0.1c0.2,0,0.2,0.2,0.1,0.3c-0.2,0.2-0.3,0.4-0.6,0.6c-0.3,0.2-0.6,0.5-0.9,0.7
				c-0.2,0.2-0.3,0.3-0.5,0.4c-0.3,0.2-0.3,0.3,0,0.6c0.5,0.5,1.1,0.8,1.6,1.2c0.2,0.2,0.4,0.3,0.5,0.5c0.1,0.1,0.1,0.1,0.1,0.3
				c0,0.1-0.2,0.1-0.3,0.1H560.7z"/>
			<path class="st0" d="M567.4,422.8c0.3,0.1,0.4,0.3,0.4,0.6c0,0.3-0.2,0.4-0.5,0.4c-1.2,0-2.4,0-3.6,0c-0.3,0-0.4,0.2-0.4,0.5
				c0,0.3,0.1,0.4,0.4,0.4c1,0,2,0.1,3,0.1c0.3,0,0.4,0.1,0.4,0.4c0,0.5-0.1,0.5-0.4,0.5c-0.9,0-1.9,0-2.8,0c-0.4,0-0.6,0.1-0.6,0.5
				c0,0.4,0.2,0.6,0.7,0.5c0.7-0.1,1.5-0.1,2.2,0c0.1,0,0.1,0,0.2,0c0.4-0.2,0.8-0.1,1.2,0c0.3,0.1,0.3,0.2,0.3,0.5
				c0,0.3-0.1,0.4-0.4,0.4c-0.8,0-1.6,0-2.3,0c-0.8,0-1.6,0-2.4,0c-0.3,0-0.4-0.1-0.5-0.4c-0.1-0.5-0.1-0.9,0-1.3
				c0.1-0.4-0.1-0.8-0.1-1.2c0-0.4,0.1-0.8,0-1.2c-0.1-0.3,0.1-0.5,0.5-0.5c0.7,0,1.3,0.1,2-0.1H567.4z"/>
		</g>
		<g>
			<path d="M429,446.9c0.1,0.4,0.5,0.7,0.8,1c0.6,0.7,0.8,1.5,0.8,2.4c0,0.4-0.4,0.7-0.9,0.6c-0.5-0.1-0.8-0.4-0.9-0.8
				c-0.5-2.2-2.2-3.3-4-4.2c-0.5-0.3-1.1-0.2-1.6,0.1c-1.7,1.1-1.8,2.5-0.4,4c0.5,0.5,1.1,1,1.6,1.5c0.5,0.4,1.1,0.7,1.7,0.8
				c0.4,0.1,0.7,0.1,1.1,0.3c0.5,0.3,0.7,0.7,0.6,1.2c-0.1,0.5-0.5,0.5-0.9,0.5c-1.9,0.1-3.7-1.7-5-2.8c-1.5-1.3-2.6-3.7-1.1-5.4
				c0.3-0.3,0.6-0.6,0.8-0.9c0.7-1,1.8-1.2,3-1.2c0.5,0,0.9,0.2,1.3,0.5c0.5,0.3,1,0.5,1.5,0.9L429,446.9z"/>
			<path d="M443.7,459.5c-0.1,0.2-0.2,0.5-0.4,0.7c-0.3,0.4-0.7,0.6-1.3,0.5c-0.9-0.2-1.8-0.3-2.5-0.8c-0.1-0.1-0.2,0-0.3,0
				c-0.1,0.1-0.1,0.2,0,0.4c0.2,0.8,0.8,1.3,1.3,1.9c0.5,0.5,1.1,0.9,1.7,1.3c0.4,0.3,0.5,0.6,0.2,1c-0.2,0.4-0.6,0.5-1,0.2
				c-1.7-0.9-3.1-2.2-3.9-3.9c-0.2-0.5-0.3-1-0.3-1.5c0-0.6-0.3-0.9-0.8-1.1c-0.5-0.2-0.8,0-1.1,0.5c-0.3,0.5-0.6,0.9-0.8,1.4
				c-0.1,0.4-0.4,0.4-0.7,0.4c-0.6-0.1-1.1-0.8-0.8-1.2c0.6-0.9,0.9-1.9,1.5-2.7c0.3-0.4,0.5-1,0.7-1.4c0.4-0.6,0.7-1.3,1.1-1.9
				c0.2-0.3,0.6-0.3,0.9-0.1c0.5,0.3,1,0.7,1.6,0.9c1.3,0.6,2.5,1.4,3.7,2C444.1,456.6,444.5,458.1,443.7,459.5z M439.8,456.3
				c-0.6-0.3-1.2-0.7-1.9-1c-0.5-0.2-0.8-0.1-1,0.4c-0.2,0.4-0.2,0.7,0.3,1c0.5,0.3,1,0.5,1.5,0.9c0.8,0.5,1.7,0.9,2.6,1.3
				c0.3,0.1,0.7,0.1,0.9-0.2c0.2-0.3,0.2-0.6-0.1-0.9c-0.1-0.2-0.3-0.3-0.5-0.4L439.8,456.3z"/>
			<path d="M460.1,462.5c0.4,0.3,0.5,0.7,0.3,1.1c-0.2,0.5-0.5,0.6-1.1,0.4c-1.9-0.6-3.9-1.2-5.9-1.7c-0.5-0.2-0.8,0-1,0.6
				c-0.1,0.5-0.1,0.7,0.5,0.9c1.6,0.5,3.2,1.1,4.9,1.5c0.5,0.1,0.6,0.4,0.5,0.8c-0.2,0.7-0.4,0.9-0.9,0.7c-1.5-0.4-3.1-0.9-4.6-1.3
				c-0.7-0.2-1-0.1-1.2,0.5c-0.2,0.6,0.1,1.1,0.9,1.2c1.2,0.2,2.4,0.6,3.6,1c0.1,0,0.2,0.1,0.3,0.1c0.7-0.1,1.3,0.2,1.9,0.6
				c0.5,0.2,0.4,0.5,0.3,0.9c-0.1,0.4-0.4,0.6-0.8,0.5c-1.3-0.3-2.6-0.7-3.8-1.1c-1.3-0.4-2.6-0.8-3.9-1.1c-0.5-0.1-0.6-0.4-0.6-0.9
				c0.1-0.8,0.3-1.5,0.6-2.2c0.3-0.6,0.2-1.4,0.5-2.1c0.3-0.6,0.6-1.3,0.6-2c0.1-0.6,0.4-0.7,1-0.6c1.1,0.3,2.2,0.8,3.3,0.8
				L460.1,462.5z"/>
			<path d="M477.1,472.6c-0.6,0-1-0.3-1.3-0.9c-0.4-0.7-1-1.2-1.9-1.2c-1.2-0.1-2.4-0.1-3.7-0.3c-0.7-0.1-1.2,0.2-1.6,0.7
				c-0.5,0.7-1.1,1.1-2.1,0.9c-0.6-0.1-0.8-0.4-0.4-0.9c0.8-1,1.7-1.8,2.5-2.8c0.8-1.1,1.8-2.1,2.7-3.1c0.1-0.1,0.3-0.3,0.4-0.4
				c0.7-0.6,1.5-0.5,2,0.3c0.3,0.4,0.4,0.8,0.7,1.2c0.4,0.7,0.9,1.4,1.4,2.1c0.9,1.1,1.4,2.4,2.2,3.5
				C478.4,472.4,478,472.7,477.1,472.6z M472.1,468.8c0.3,0,0.6,0.1,0.9,0c0.6,0,0.8-0.3,0.4-0.8c-0.3-0.4-0.5-0.7-0.7-1.1
				c-0.2-0.4-0.4-0.4-0.7-0.1c-0.3,0.5-0.7,0.9-1.1,1.3c-0.3,0.3-0.2,0.5,0.3,0.6C471.5,468.8,471.8,468.8,472.1,468.8z"/>
			<path d="M491,467.7c0.1,0.9,0.3,1.9,0.4,2.8c0.1,0.7-0.2,1-0.9,1.1c-0.3,0-0.6,0-0.6-0.4c0-0.2-0.1-0.3-0.2-0.5
				c-0.1-1.2-0.3-2.4-0.6-3.6c-0.1-0.4-0.1-0.9-0.2-1.3c-0.1-0.4-0.3-0.6-0.8-0.5c-0.9,0.2-1.8,0.1-2.7,0.4
				c-0.4,0.1-0.7,0.1-0.8-0.4c-0.1-0.5,0-1,0.4-1.1c1.5-0.1,3.2-0.5,4.7-0.7c1.3-0.2,2.8-0.3,4.1-0.6c0.3-0.1,0.6,0,0.7,0.3
				c0.1,0.4,0.2,0.8-0.4,1c-0.2,0.1-0.4,0.1-0.6,0.2l-2.1,0.3c-0.7,0.1-0.9,0.3-0.9,1C490.8,466.6,490.9,467.2,491,467.7L491,467.7z
				"/>
			<path d="M503.8,463.5c0.3,1.5,0.8,2.7,1.2,4c0.1,0.4,0.1,0.8-0.4,1c-0.4,0.2-0.9,0.1-1.2-0.3c-0.1-0.2-0.2-0.4-0.3-0.7
				c-0.3-1.4-0.8-2.7-1.3-4c-0.2-0.6-0.3-1.3-0.5-2c-0.2-0.6,0.5-0.6,0.8-0.8c0.3-0.1,0.6,0.1,0.7,0.4
				C503.2,462,503.3,462.9,503.8,463.5z"/>
			<path d="M518.3,462.7c-0.3,0.2-0.7,0.2-1.1,0c-1.9-0.9-3.8-1.7-5.6-2.6c-0.5-0.2-1-0.5-1.5-0.7c-0.3-0.2-0.7-0.3-0.6-0.7
				c0.1-0.4,0.5-0.6,0.8-0.6c0.5-0.1,1.1-0.1,1.5,0.2c1.5,0.8,3.1,1.5,4.7,2.2c0.7,0.3,0.8,0.2,1-0.5c0.2-1.2,0.3-2.4,0.5-3.5
				c0.1-0.6,0.1-1.2,0.2-1.8c0.1-0.7,0.6-1.1,1.2-1.5c0.4-0.2,0.7,0,0.8,0.4c0,0.2,0,0.5-0.1,0.7c-0.2,1.6-0.4,3.3-0.7,4.9
				c-0.1,0.5-0.1,1-0.1,1.5C519.2,461.6,518.9,462.3,518.3,462.7z"/>
			<path d="M531.4,443.5c0.5-0.1,0.8-0.1,1.1,0.4c0.3,0.5,0.2,0.7-0.2,1.1c-1.6,1.3-3.1,2.6-4.7,4c-0.4,0.4-0.4,0.7,0,1.1
				c0.3,0.4,0.6,0.5,1,0.1c1.3-1.1,2.7-2.1,3.9-3.3c0.4-0.4,0.7-0.3,1,0.1c0.5,0.6,0.5,0.8,0.1,1.2c-1.2,1.1-2.4,2.1-3.7,3.2
				c-0.6,0.5-0.6,0.8-0.3,1.2c0.4,0.5,1,0.5,1.4-0.1c0.8-1,1.8-1.7,2.8-2.4c0.1-0.1,0.2-0.1,0.3-0.2c0.3-0.7,0.9-1,1.5-1.3
				c0.5-0.3,0.7-0.1,0.9,0.2c0.3,0.3,0.2,0.7-0.1,0.9c-1,0.9-2,1.8-3,2.6c-1,0.9-2.1,1.7-3.1,2.6c-0.4,0.4-0.7,0.3-1.1,0
				c-0.6-0.5-1.1-1.1-1.5-1.7c-0.4-0.6-1-1-1.5-1.5c-0.4-0.6-0.8-1.2-1.3-1.6c-0.4-0.4-0.4-0.7,0.1-1.2c0.8-0.8,1.8-1.4,2.5-2.3
				L531.4,443.5z"/>
		</g>
	</g>
	<g>
		<g>
			<g>
				<g>
					<g>
						<g>
							<g>
								<g>
									<g>
										<g>
											<g>
												<g>
													<path class="st1" d="M240.5,663.9v8.4h15.7v9.7h-15.7v8.3h22v9.7h-34.8V654h34.8v9.9H240.5z"/>
													<path class="st1" d="M344.5,663.9v8.4h15.7v9.7h-15.7v8.3h22v9.7h-34.8V654h34.8v9.9H344.5z"/>
													<path class="st1" d="M321.2,663.9h-17.6v36h-13v-36h-17.3V654h47.9L321.2,663.9z"/>
												</g>
											</g>
										</g>
										<g>
											<polygon class="st4" points="705.8,673 687.9,673 687.9,654 675,654 675,699.9 687.9,699.9 687.9,682.8 705.8,682.8 
												705.8,699.9 718.5,699.9 718.5,654 705.8,654 											"/>
											<path class="st4" d="M662.6,655.4c-1.3-0.9-2.8-1.4-4.5-1.4h-37.7v45.9h13.1v-15.1h0v-0.7h24.6c1.8,0,3.3-0.5,4.5-1.4
												c1.3-0.9,1.9-2.1,1.9-3.5v-20.4C664.5,657.5,663.9,656.4,662.6,655.4z M651.5,674.4h-18v-0.5h0v-10h18V674.4z"/>
											<polygon class="st4" points="746.7,654 729,654 749.6,678.9 749.6,699.9 762.6,699.9 762.6,679 783.3,654 765.5,654 
												755.9,665.5 											"/>
											<path class="st4" d="M608,682.8c1.3-0.9,1.9-2.1,1.9-3.5v-20.4c0-1.3-0.6-2.5-1.9-3.4c-1.3-0.9-2.8-1.4-4.7-1.4H566v45.9
												h13v-15.8h6.5l9.4,15.8h15.1l-9.8-15.8C601.9,684.2,606.8,683.7,608,682.8z M596.9,674.5h-18v-10.6h18V674.5z"/>
											<polygon class="st4" points="471.1,674 461.7,654 441.7,654 441.7,699.9 454.7,699.9 454.6,664 466.9,691.4 475.2,691.4 
												487.6,664 487.6,699.9 500.4,699.9 500.4,654 480.4,654 											"/>
											<path class="st4" d="M542.4,690.2h-18.5v-36.3h-13.1v41.2c0,1.4,0.6,2.6,1.9,3.5c1.3,0.9,2.8,1.4,4.7,1.4h31.6
												c1.8,0,3.4-0.5,4.7-1.4c1.3-0.9,1.9-2.1,1.9-3.5v-41.2h-13.1V690.2z"/>
										</g>
										<path class="st1" d="M215.1,655.4c-1.3-0.9-2.8-1.4-4.5-1.4h-37.7v45.9H186v-15.5h0v-10.4h0v-10.2h18v10.5h-20v9.8h26.6
											c1.8,0,3.3-0.5,4.5-1.4c1.3-0.9,1.9-2.1,1.9-3.5v-20.4C217,657.5,216.4,656.4,215.1,655.4z"/>
									</g>
								</g>
							</g>
						</g>
					</g>
					<path class="st1" d="M419.1,682.8c1.3-0.9,1.9-2.1,1.9-3.5v-20.4c0-1.3-0.6-2.5-1.9-3.4c-1.3-0.9-2.8-1.4-4.7-1.4H377v45.9h13
						v-15.8h6.5l9.4,15.8H421l-9.8-15.8C413,684.2,417.8,683.7,419.1,682.8z M408,674.5h-18v-10.6h18V674.5z"/>
				</g>
			</g>
		</g>
	</g>
	<g>
		<g>
			<g>
				<path class="st1" d="M444.4,575.8c-0.1-0.7-0.7-1.4-1.3-1.4c-0.6,0-1,0.4-1.2,0.9c0,0.1-0.1,0.2-0.1,0.4c0,0,0,0,0,0.1
					c0,0,0,0,0,0.1c0,0.2,0,0.4,0.1,0.7c1,4.4,7.5,4.7,11.7,1.1C453.6,577.7,445.8,581.3,444.4,575.8z"/>
				<path class="st1" d="M442.9,607.9c-5.1-3.3-13.3-5.8-13.3-5.8l3.9-3.4l-1.6-2.9c0,0,0,0,0,0c-0.2,0.3-0.5,0.6-0.8,0.8
					c0,0,0,0-0.1,0.1c0,0,0,0,0,0c-1.1,0.8-2.7,1.1-4.2,0.8c-0.5-0.1-1-0.3-1.4-0.6c-1.8,0.3-2.1,0.1-3-0.8c0,0-0.5-0.6-0.5-0.6
					c0.9,0.5,1.5,0.5,2.5,0.4c-0.4-0.7-0.5-1.5-0.1-2.3c0.5-1,1.7-2,3.1-2.5l0.2-0.2l-0.2-0.4c-2.1,0.3-4.3-0.5-4.9-2.4
					c-0.3-1-0.2-2,0.3-2.8c-0.9-0.2-1.5-0.2-2.4,0.3c0-0.1,0.5-0.7,0.5-0.7c0.9-1,1.3-1.1,3-0.7c0.4-0.3,0.8-0.5,1.3-0.6
					c2-0.4,4.1,0.6,4.9,2.3l0.4-0.1c-0.2-1.8,0.6-3.8,2.2-4.8c0.9-0.6,1.8-0.7,2.6-0.4c0.1-1,0-1.5-0.6-2.3c0,0,0.7,0.3,0.8,0.3
					c1,0.6,1.2,0.9,1.1,2.7c0.3,0.3,0.6,0.7,0.7,1.2c0.7,2-0.2,4.5-2,5.6c-0.1,0-0.2,0.1-0.2,0.1c2.6,3,7.7,5.2,10.8,7.3
					c0,0,0.4,4-1,8.4C444.3,605.9,442.9,607.9,442.9,607.9z"/>
				<path class="st1" d="M502.9,604.6c0,0-8.3,2.5-11.7,13.1c0,0.1,0,0.1-0.1,0.2l-1.5,0.1c0,0,0-0.1,0-0.2c0.5-1.3,0.1-2.7-0.9-3.6
					c-1.5-1.3-3.8-1.2-5.2,0.3c-0.3,0.3-0.6,0.7-0.7,1.1c-1.5,0.5-1.7,0.8-1.9,2c0,0,0,0.8,0,0.8c0.4-0.9,0.9-1.1,1.7-1.4
					c0,0.9,0.4,1.7,1.1,2.3c0.3,0.3,0.7,0.5,1.1,0.6l0.1,0.9c0,0,0.1,0,0.1,0c-0.5,0.5-0.8,1.1-1,1.8c-0.1,0.5-0.1,0.9,0,1.3
					c-1,1.2-1,1.6-0.5,2.7c0,0,0.4,0.7,0.4,0.7c-0.1-1,0.1-1.4,0.6-2.1c0.5,0.7,1.3,1.2,2.3,1.3c2,0.3,3.9-1.1,4.3-3
					c0-0.2,0.1-0.5,0.1-0.7l1.8-0.2c0,0,0,0.1,0,0.2c0,0,0,0,0,0c0,0.5,0.1,1.1,0.4,1.6c0.9,1.7,3.1,2.5,4.9,1.7
					c0.9-0.4,1.5-1.1,1.7-1.9c0.7,0.5,1,0.9,1.2,1.8c0,0,0.2-0.7,0.2-0.8c0.2-1.2,0.1-1.6-1.2-2.5c0-0.4-0.2-0.9-0.4-1.3
					c0,0,0,0,0-0.1c0,0,0,0,0,0c-0.1-0.1-0.2-0.3-0.3-0.4c-0.1-0.1-0.1-0.1-0.2-0.2c-0.2-0.3-0.5-0.5-0.9-0.8l-0.1-1.9l5.7-0.1v-6.5
					l2.7-1.7C506.9,609.9,503.5,608.3,502.9,604.6z"/>
				<path class="st1" d="M530.1,619.5l1.9,0.8v-6.7c-5.4-0.2-2.7-11.1-2.7-11.1c-11.9,2.5-8.7-6-8.7-6c4.5-0.6,12.1-4.9,11.6-11.9
					c-1-13-33.7-8.1-43.4-7.5c-9.8,0.6-5.2-2.2,3-2.9c8.2-0.7-3.8-10.4-3.8-10.4s2.9,2.7-9.3,9.3c-12.1,6.6,3.7,7.9,3.7,7.9
					c-3.9,3.6,2.4,6,2.4,6c-2.1-2.9,1.5-5.3,1.5-5.3s27.3-5.5,36.9-1.5s1.1,15-5.8,12.9c-6.9-2.1-21.3-0.6-21.3-0.6l-11.7,15.3
					c13-10.1,20.5-7.7,20.5-7.7c4.9,10.9,8.6,8.6,14.6,10.8c6.1,2.2,4,7.8,4,7.8h-3.5c0.3-0.7,0.3-1.6-0.1-2.4
					c-0.8-1.8-2.9-2.7-4.7-2c-0.4,0.2-0.8,0.4-1.2,0.7c-1.6-0.2-1.9,0-2.6,1c0,0-0.4,0.7-0.4,0.7c0.8-0.6,1.3-0.7,2.1-0.6
					c-0.3,0.8-0.4,1.7,0,2.6c0.3,0.7,0.9,1.3,1.5,1.7l0.7,0.7c-0.4,0.2-0.8,0.5-1.1,0.9c-0.3,0.4-0.5,0.8-0.6,1.2
					c-1.4,0.6-1.6,1-1.7,2.2c0,0,0,0.8,0,0.8c0.4-0.9,0.8-1.2,1.5-1.6c0.1,0.8,0.6,1.6,1.3,2.2c1.6,1.1,3.9,0.8,5.1-0.7
					c0.5-0.6,0.8-1.4,0.8-2.1h1.5c0.1,0.4,0.2,0.8,0.4,1.1c1.1,1.7,3.3,2.3,5,1.3c0.8-0.5,1.4-1.2,1.6-2c0.7,0.4,1.1,0.8,1.3,1.7
					c0,0,0.2-0.8,0.2-0.8c0.1-1.2-0.1-1.6-1.4-2.4c-0.1-0.4-0.2-0.9-0.5-1.3c-0.2-0.3-0.5-0.6-0.8-0.9
					C528.3,619.8,530.1,619.5,530.1,619.5z"/>
				<path class="st1" d="M473.9,592.3c0,0-8.5,16.5-42.2,20.2c0.1-0.2,0.1-0.4,0.1-0.7c0.1-2.1-1.4-4.3-3.4-4.9
					c-0.5-0.1-0.9-0.2-1.4-0.1c-1.3-1.2-1.7-1.2-2.8-0.7c0,0-0.7,0.4-0.7,0.4c1,0,1.5,0.2,2.2,0.8c-0.7,0.5-1.1,1.4-1.2,2.4
					c-0.1,2,1.1,3.9,2.9,4.7l-0.2,0.3c-1.7-0.4-3.6,0.3-4.7,1.8c-0.3,0.4-0.5,0.9-0.6,1.4c-1.4,0.8-1.6,1.2-1.6,2.5
					c0,0.1,0.1,0.8,0.1,0.9c0.3-1,0.7-1.4,1.5-1.8c0.2,0.9,0.7,1.7,1.6,2.2c1.8,1,4.2,0,5.4-1.8c0,0,0,0,0,0l0.5,0.1l0,0.3
					c-0.2,1.5,0.1,3.2,0.8,4.1c0.5,0.7,1.3,1,2.1,1c-0.3,0.9-0.6,1.4-1.5,2c0,0,0.7-0.1,0.8-0.1c1.2-0.3,1.5-0.6,2.1-2.3
					c0.4-0.2,0.8-0.5,1.1-1c0.6-0.7,1-1.5,1.1-2.3c0,0,0,0,0,0c0-0.1,0-0.1,0-0.2c0.1-0.7,0.2-1.4,0-2l3.2,0.5l0.2,5.2
					c0,0,12-7.3,25.7-5.9c0,0,1.3-1.7,0.3-2.8c-0.9-1.1-2-8.4,1.1-10.1c0,0-1.3,9.4,4.9,6.1c6.2-3.3,10.6-5.4,10.6-5.4l10.9-15
					H473.9z"/>
			</g>
			<g>
				<path class="st4" d="M627,609.1h-8l9.5-8.2l6.8,0L627,609.1z M614.8,609.1h-6.7l9.5-8.2l6.7,0L614.8,609.1z M603.9,609.1h-6.8
					l9.5-8.2l6.8,0L603.9,609.1z M592.9,609.1h-7.2l9.5-8.2l7.2,0L592.9,609.1z M581.5,609.1h-7.1l9.5-8.2l7.1,0L581.5,609.1z
					 M581.5,611.9l9.4,8.2h-6.7l-9.4-8.2H581.5z M585.7,611.9h6.8l9.4,8.2h-6.8L585.7,611.9z M596.7,611.9h7.2l9.4,8.2h-7.2
					L596.7,611.9z M608.1,611.9h7.1l9.4,8.2h-7.1L608.1,611.9z M578.1,600.9h1.6l-9.5,8.2h-3.4C567.5,600.5,577.7,600.9,578.1,600.9
					z M578.2,620.1c-0.5,0-10.6,0.4-11.3-8.2h3.8l9.4,8.2H578.2z M635.3,620.1h-6.5l-9.4-8.2h7.6L635.3,620.1z"/>
				<polygon class="st4" points="639.8,610.8 547.4,610.8 538.5,608 642.4,608 				"/>
			</g>
			<g>
				<path class="st4" d="M320.9,600.9l6.8,0l9.5,8.2h-8L320.9,600.9z M332,600.9l6.7,0l9.5,8.2h-6.7L332,600.9z M342.9,600.9l6.8,0
					l9.5,8.2h-6.8L342.9,600.9z M353.8,600.9l7.2,0l9.5,8.2h-7.2L353.8,600.9z M365.2,600.9l7.1,0l9.5,8.2h-7.1L365.2,600.9z
					 M381.3,611.9l-9.4,8.2h-6.7l9.4-8.2H381.3z M361,620.1h-6.8l9.4-8.2h6.8L361,620.1z M350.1,620.1h-7.2l9.4-8.2h7.2L350.1,620.1
					z M338.6,620.1h-7.1l9.4-8.2h7.1L338.6,620.1z M389.3,609.1H386l-9.5-8.2h1.6C378.5,600.9,388.7,600.5,389.3,609.1z
					 M376.1,620.1l9.4-8.2h3.8c-0.7,8.6-10.8,8.3-11.3,8.2H376.1z M329.3,611.9h7.6l-9.4,8.2h-6.5L329.3,611.9z"/>
				<polygon class="st4" points="316.4,610.8 408.8,610.8 417.7,608 313.8,608 				"/>
			</g>
		</g>
		<path class="st1" d="M472.4,564.6l-3.9-0.4c-0.3,0-0.6,0.1-0.8,0.2c0,0,0,0,0,0c-0.2,0.1-0.3,0.3-0.4,0.5l-0.3,0.6
			c-0.2,0.4-0.1,0.2-0.4,0.8l-1.7,3.1l1.8-5.4l-10.4-0.4c-0.3,0-0.8,0.2-1.1,0.3c-0.2,0.1-0.5,0.3-0.6,0.4l-1.7,1.3c0,0,0,0,0,0
			l-5.7,0.5c-0.3,0-0.6,0.1-0.6,0.4l-0.3,2.3c0,0,0.3,0,0.3,0l3.3-0.6c0,0-0.2,1-2.8,1.3c-2.5,0.4,0.6,6,0.7,6.4
			c0.1,0.1,0.2,0.4,0.4,0.5l0.4,0.1c0.3,0.1,0.9-0.2,1.2-0.3c1.4-0.6,5.5-2,6.5,1.1c1.2,3.7-3.9,4.8-6.6,4.1c0,0-0.1,0-0.1,0.1
			l0.1,4.8c0.1,0,0.1,0,0.1,0.1c0.8-0.7,5.1-4.6,9.1-3c0,0,0,0,0,0.1c-1,0.5-9.6,5.3-10.2,10c-0.6,4.7-0.6,12.5-3.1,14.2
			c-0.1,0,0,0.1,0.1,0.1l4.9-2.3l0.6-0.3c0.1,0,0.2-0.1,0.4-0.1l2.1-6.2l-0.5,5.6c1.7-0.6,3.5-1.4,5.2-2.1l2.5-10.3l-0.2,9.2
			c1.6-0.9,3.1-1.9,4.4-3.1l2.7-12l0,9.3l0.1-0.1l3.5-3.5c0.2-0.2,0.2-0.4,0.2-0.6c0-0.4,0-1.1,0-1.1v-15.9c0-0.1,0-0.2-0.1-0.3
			l-0.5-0.8c-0.1-0.1-0.2-0.3-0.4-0.3l-1.7-0.8l1.8-0.5c0,0,0.1,0,0.2-0.1c0.5-0.2,0.9-0.6,1-1.1l1.2-5
			C473,564.9,472.8,564.6,472.4,564.6z M459.9,566.1l-0.8,0.9c-0.1,0.1-0.3,0.2-0.4,0.2l-3.9-0.1c-0.3,0-0.4-0.3-0.2-0.5l0.9-0.8
			c0.1-0.1,0.3-0.2,0.5-0.2l3.7,0.1C460,565.6,460.1,565.9,459.9,566.1z"/>
		<g>
			<path class="st5" d="M470.3,565.8l1.1,0l-1,3.6c-0.1,0.3-0.3,0.4-0.5,0.5l-2.6,0.1L470.3,565.8z"/>
			<polygon class="st1" points="468.8,567.4 470.3,567.8 468.1,568.4 			"/>
			<polygon class="st1" points="468,568.6 469.6,569 467.3,569.6 			"/>
		</g>
	</g>
	<g>
		<text transform="matrix(1 0 0 1 317.8418 742.175)" class="st4 st6 st7 st8">creative</text>
	</g>
	<g>
		<g>
			<g>
				<g>
					<path class="st0" d="M700.2,346.1l5.2,6.4l-0.6,15.1l-6-7.5L700.2,346.1z M708.5,356.5l5,6.3l-0.6,15.1l-5-6.3L708.5,356.5z
						 M716.7,366.8l5.1,6.4l-0.6,15.1l-5.1-6.4L716.7,366.8z M725.8,377.6l5.1,6.4l-0.6,15.1l-5.1-6.4L725.8,377.6z M734.2,387.4
						l5.1,6.4l-0.6,15.1l-5.1-6.4L734.2,387.4z M735.3,411.3l-14.9-2.7l-5-6.3l14.9,2.7L735.3,411.3z M712.3,398.3l-5.1-6.4
						l14.9,2.7l5.1,6.4L712.3,398.3z M704,388l-5.4-6.8l14.9,2.7l5.4,6.8L704,388z M695.4,377.3l-5.3-6.6l14.9,2.7l5.3,6.6
						L695.4,377.3z M696.1,362.3l5.7,7.1l-14.9-2.7l-4.9-6.1L696.1,362.3z"/>
					<path class="st0" d="M808.7,360.2l-6,7.5l-0.6-15.1l5.2-6.4L808.7,360.2z M799.5,371.6l-5,6.3l-0.6-15.1l5-6.3L799.5,371.6z
						 M791.3,381.9l-5.1,6.4l-0.6-15.1l5.1-6.4L791.3,381.9z M783,392.2l-5.4,6.8l-0.6-15.1l5.4-6.8L783,392.2z M777,405l14.9-2.7
						l-5,6.3l-14.9,2.7L777,405z M780.2,401l5.1-6.4l14.9-2.7l-5.1,6.4L780.2,401z M788.5,390.7l5.4-6.8l14.9-2.7l-5.4,6.8
						L788.5,390.7z M797.1,380l5.3-6.6l14.9-2.7l-5.3,6.6L797.1,380z M782.2,414.4c-0.4,0.5-7.6,10.3-16.2,4.4l2.8-3.5l14.9-2.7
						L782.2,414.4z M825.3,360.6l-4.9,6.1l-14.9,2.7l5.7-7.1L825.3,360.6z"/>
				</g>
				<g>
					<g>
						<g>
							<path d="M735,377.3c-0.2-1-1-1.9-1.9-1.9c-0.8,0-1.4,0.6-1.7,1.3c-0.1,0.1-0.1,0.3-0.1,0.6c0,0,0,0.1,0,0.1c0,0,0,0.1,0,0.1
								c0,0.3,0.1,0.6,0.1,0.9c1.6,6.2,10.7,6.4,16.6,1.1C748.1,379.5,737.3,385,735,377.3z"/>
						</g>
					</g>
					<g>
						<path d="M773.6,396.5l-0.6-22.5c0-0.2-0.1-0.3-0.1-0.5l-0.7-1.1c-0.1-0.2-0.3-0.3-0.5-0.4l-2.4-1.1l2.5-0.8
							c0,0,0.1-0.1,0.3-0.1c0.7-0.2,1.2-0.8,1.3-1.5l1.5-7c0.1-0.5-0.3-1-0.8-0.9l-5.6-0.4c-0.4,0-0.8,0.1-1.1,0.3c0,0,0,0,0,0
							c-0.3,0.2-0.5,0.4-0.6,0.7l-0.5,0.9c-0.2,0.5-0.2,0.3-0.6,1.2l-2.3,4.4l2.4-7.6l-14.7-0.2c-0.4,0-1.1,0.3-1.5,0.5
							c-0.3,0.1-0.7,0.4-0.9,0.6l-2.4,2c0,0,0,0-0.1,0l-8,0.8c-0.4,0-0.8,0.1-0.8,0.6l-0.3,3.2c0,0,0.4,0,0.5-0.1l4.6-1
							c0,0-0.3,1.4-3.9,2c-3.5,0.6,1,8.5,1.3,8.9c0.1,0.2,0.2,0.6,0.6,0.7l0.5,0.1c0.4,0.1,1.3-0.3,1.7-0.5c1.9-0.9,7.7-3,9.2,1.3
							c1.8,5.1-5.4,6.9-9.2,6c-0.1,0-0.1,0-0.1,0.1l0.3,6.8c0.1,0,0.1,0,0.2,0.1c1-1,7-6.7,12.7-4.5c0,0.1,0,0.1,0,0.1
							c-1.4,0.8-13.4,7.8-14.1,14.4c-0.7,6.7-0.5,17.7-3.8,20.1c-0.1,0.1,0,0.2,0.1,0.2l6.9-3.5l0.9-0.5c0.2-0.1,0.3-0.1,0.5-0.2
							l2.7-8.8l-0.5,7.9c2.3-0.9,4.9-2.1,7.3-3.2l3.1-14.7l0,13c2.2-1.3,4.3-2.8,6.1-4.5l3.4-17.1l0.3,13.1l0.1-0.1l4.8-5.1
							c0.2-0.2,0.3-0.5,0.3-0.9C773.6,397.4,773.6,396.5,773.6,396.5z M756.6,363l-1.1,1.3c-0.2,0.2-0.4,0.3-0.6,0.3l-5.5,0
							c-0.4,0-0.6-0.5-0.3-0.7l1.2-1.2c0.2-0.1,0.4-0.2,0.7-0.2l5.2,0C756.7,362.4,756.9,362.8,756.6,363z M767.1,368.2l4.2-6l1.5,0
							l-1.3,5.1c-0.1,0.4-0.4,0.6-0.8,0.7L767.1,368.2z"/>
						<polygon points="769.1,364.5 771.4,365 768.2,366 						"/>
						<polygon points="768.1,366.2 770.4,366.7 767.2,367.7 						"/>
					</g>
				</g>
			</g>
			<g>
				<g>
					<path class="st0" d="M717.9,437.4c0.2,0.1,0.4,0.3,0.3,0.6c0,0.3-0.2,0.4-0.5,0.4c-1.1,0-2.2,0-3.3,0c-0.3,0-0.4,0.1-0.4,0.5
						c0,0.3,0.1,0.4,0.4,0.4c0.9,0,1.8,0.1,2.7,0c0.3,0,0.4,0.1,0.4,0.4c0,0.4,0,0.5-0.4,0.5c-0.9,0-1.7,0-2.6,0
						c-0.4,0-0.5,0.1-0.5,0.4c0,0.4,0.2,0.6,0.6,0.5c0.7-0.1,1.3-0.1,2,0c0.1,0,0.1,0,0.2,0c0.4-0.2,0.7-0.1,1.1,0
						c0.3,0.1,0.3,0.2,0.3,0.4c0,0.2-0.1,0.4-0.3,0.4c-0.7,0-1.4,0-2.1,0c-0.7,0-1.4,0-2.2,0c-0.3,0-0.4-0.1-0.4-0.4
						c-0.1-0.4-0.1-0.8,0-1.3c0.1-0.4-0.1-0.8-0.1-1.2c0-0.4,0.1-0.8,0-1.2c-0.1-0.3,0.1-0.4,0.4-0.5c0.6,0,1.2,0.1,1.8-0.1H717.9z"
						/>
					<path class="st0" d="M722.1,441.9c-0.8,0-1.4,0-2-0.2c-0.3-0.1-0.6-0.2-0.8-0.5c-0.1-0.2-0.3-0.4-0.1-0.6
						c0.2-0.2,0.5-0.3,0.7-0.2c0.2,0.1,0.4,0.3,0.6,0.4c0.8,0.2,1.5,0.2,2.3,0.1c0.1,0,0.3,0,0.4-0.1c0.1,0,0.3-0.1,0.3-0.2
						c0-0.1-0.1-0.2-0.3-0.3c-0.3-0.1-0.6-0.2-1-0.2c-0.7,0-1.3-0.1-1.9-0.3c-0.4-0.1-0.8-0.3-1-0.7c-0.2-0.5,0-1.1,0.6-1.3
						c0.6-0.3,1.2-0.4,1.9-0.4c0.3,0,0.7,0,1,0c0.4,0,0.7,0.2,1,0.3c0.3,0.1,0.5,0.3,0.6,0.6c0.1,0.1,0,0.2-0.1,0.3
						c-0.1,0.2-0.3,0.3-0.6,0.2c-0.1,0-0.2-0.1-0.4-0.2c-0.7-0.5-1.6-0.5-2.4-0.3c-0.2,0-0.6,0-0.6,0.3c0,0.3,0.3,0.3,0.5,0.4
						c0.6,0.1,1.1,0.1,1.7,0.2c0.5,0,0.9,0.2,1.4,0.4c0.5,0.3,0.6,0.7,0.5,1.2c-0.1,0.5-0.5,0.7-0.8,0.8
						C723.2,441.8,722.6,442.1,722.1,441.9z"/>
					<path class="st0" d="M728.7,439.8c0,0.5,0,1.1,0,1.6c0,0.4-0.2,0.5-0.5,0.5c-0.2,0-0.3-0.1-0.3-0.3c0-0.1,0-0.2,0-0.3
						c0-0.7,0-1.4,0-2.1c0-0.2,0-0.5,0-0.7c0-0.2-0.1-0.3-0.4-0.3c-0.5,0.1-1-0.1-1.5,0c-0.2,0-0.4,0-0.4-0.3c0-0.3,0.1-0.6,0.3-0.6
						c0.8,0.1,1.7,0,2.5,0c0.7,0,1.5,0.1,2.2,0c0.2,0,0.3,0,0.3,0.2c0,0.2,0,0.5-0.3,0.5c-0.1,0-0.2,0-0.3,0h-1.1
						c-0.4,0-0.5,0.1-0.5,0.5C728.6,439.2,728.7,439.5,728.7,439.8L728.7,439.8z"/>
					<path class="st0" d="M732.1,442.1c-0.3,0-0.4-0.2-0.4-0.6c0-0.2,0.2-0.3,0.4-0.3c0.3,0,0.5,0.1,0.5,0.4
						C732.7,441.8,732.4,442.1,732.1,442.1z"/>
					<path class="st0" d="M773.8,441.9c-0.8,0-1.4,0-2-0.2c-0.3-0.1-0.6-0.2-0.8-0.5c-0.1-0.2-0.3-0.4-0.1-0.6
						c0.2-0.2,0.5-0.3,0.7-0.2c0.2,0.1,0.4,0.3,0.6,0.4c0.8,0.2,1.5,0.2,2.3,0.1c0.1,0,0.3,0,0.4-0.1c0.1,0,0.3-0.1,0.3-0.2
						c0-0.1-0.1-0.2-0.3-0.3c-0.3-0.1-0.6-0.2-1-0.2c-0.7,0-1.3-0.1-1.9-0.3c-0.4-0.1-0.8-0.3-1-0.7c-0.2-0.5,0-1.1,0.6-1.3
						c0.6-0.3,1.2-0.4,1.9-0.4c0.3,0,0.7,0,1,0c0.4,0,0.7,0.2,1,0.3c0.3,0.1,0.5,0.3,0.6,0.6c0.1,0.1,0,0.2-0.1,0.3
						c-0.1,0.2-0.3,0.3-0.6,0.2c-0.1,0-0.2-0.1-0.4-0.2c-0.7-0.5-1.6-0.5-2.4-0.3c-0.2,0-0.6,0-0.6,0.3c0,0.3,0.3,0.3,0.5,0.4
						c0.6,0.1,1.1,0.1,1.7,0.2c0.5,0,0.9,0.2,1.4,0.4c0.5,0.3,0.6,0.7,0.5,1.2c-0.1,0.5-0.5,0.7-0.8,0.8
						C775,441.8,774.4,442.1,773.8,441.9z"/>
					<path class="st0" d="M783.3,442c-0.3,0-0.5-0.1-0.7-0.4c-0.2-0.4-0.6-0.6-1.1-0.6c-0.7,0-1.3,0-2,0c-0.4,0-0.7,0.1-0.8,0.5
						c-0.2,0.4-0.6,0.7-1.1,0.6c-0.3,0-0.4-0.2-0.3-0.5c0.4-0.6,0.8-1.1,1.2-1.7c0.4-0.6,0.9-1.2,1.3-1.8c0.1-0.1,0.1-0.2,0.2-0.2
						c0.3-0.3,0.8-0.3,1.1,0.1c0.2,0.2,0.3,0.4,0.4,0.6c0.2,0.4,0.5,0.8,0.8,1.1c0.5,0.6,0.8,1.3,1.3,1.9
						C783.9,441.8,783.8,442,783.3,442z M780.5,440c0.2,0,0.3,0,0.5,0c0.3,0,0.4-0.2,0.2-0.5c-0.1-0.2-0.3-0.4-0.4-0.6
						c-0.1-0.2-0.3-0.2-0.4,0c-0.2,0.3-0.3,0.5-0.5,0.7c-0.1,0.2-0.1,0.3,0.2,0.3C780.2,440,780.3,440,780.5,440z"/>
					<path class="st0" d="M787.7,441.9c-0.8,0-1.4,0-2-0.2c-0.3-0.1-0.6-0.2-0.8-0.5c-0.1-0.2-0.3-0.4-0.1-0.6
						c0.2-0.2,0.5-0.3,0.7-0.2c0.2,0.1,0.4,0.3,0.6,0.4c0.8,0.2,1.5,0.2,2.3,0.1c0.1,0,0.3,0,0.4-0.1c0.1,0,0.3-0.1,0.3-0.2
						c0-0.1-0.1-0.2-0.3-0.3c-0.3-0.1-0.6-0.2-1-0.2c-0.7,0-1.3-0.1-1.9-0.3c-0.4-0.1-0.8-0.3-1-0.7c-0.2-0.5,0-1.1,0.6-1.3
						c0.6-0.3,1.2-0.4,1.9-0.4c0.3,0,0.7,0,1,0c0.4,0,0.7,0.2,1,0.3c0.3,0.1,0.5,0.3,0.6,0.6c0.1,0.1,0,0.2-0.1,0.3
						c-0.1,0.2-0.3,0.3-0.6,0.2c-0.1,0-0.2-0.1-0.4-0.2c-0.7-0.5-1.6-0.5-2.4-0.3c-0.2,0-0.6,0-0.6,0.3c0,0.3,0.3,0.3,0.5,0.4
						c0.6,0.1,1.1,0.1,1.7,0.2c0.5,0,0.9,0.2,1.4,0.4c0.5,0.3,0.6,0.7,0.5,1.2c-0.1,0.5-0.5,0.7-0.8,0.8
						C788.8,441.8,788.2,442.1,787.7,441.9z"/>
					<path class="st0" d="M796,441.9c-1-0.1-1.9-0.3-2.7-1c-0.3-0.3-0.6-0.5-0.8-0.8c0-0.1-0.1-0.1-0.2-0.1c-0.1,0-0.2,0.1-0.2,0.3
						c0,0.4,0,0.8,0,1.2c0,0.3-0.1,0.5-0.4,0.5c-0.4,0-0.6-0.3-0.6-0.6c0-0.5,0.1-1.1,0-1.6c0-0.7,0-1.3,0-2c0-0.2,0.1-0.3,0.3-0.3
						c0.4,0,0.6,0.1,0.6,0.4c0,0.2,0,0.5,0,0.7c0,0.3,0.1,0.4,0.4,0.3c0.7-0.3,1.4-0.6,2.1-1c0.4-0.3,0.9-0.3,1.4-0.3
						c0.1,0,0.3,0,0.3,0.2c0,0.1-0.1,0.2-0.2,0.3l-2.2,1.1c0,0,0,0,0,0c-0.6,0.3-0.6,0.6-0.1,1c0.6,0.5,1.3,0.9,2.1,0.9
						c0.2,0,0.4,0.1,0.6,0.2c0.2,0.1,0.2,0.3,0.2,0.4C796.4,441.8,796.3,442,796,441.9z"/>
				</g>
				<g>
					<g>
						<g>
							<g>
								<g>
									<polygon points="758.3,436.1 756.1,431.4 751.4,431.4 751.4,442.1 754.5,442.1 754.4,433.7 757.3,440.1 759.3,440.1 
										762.1,433.7 762.1,442.1 765.1,442.1 765.1,431.4 760.5,431.4 									"/>
								</g>
								<path d="M748.7,431.7c-0.3-0.2-0.6-0.3-1.1-0.3h-8.8v10.7h3.1v-3.6h0v-2.4h0v-2.4h4.2v2.5h-4.7v2.3h6.2
									c0.4,0,0.8-0.1,1.1-0.3c0.3-0.2,0.4-0.5,0.4-0.8v-4.8C749.2,432.2,749,431.9,748.7,431.7z"/>
							</g>
						</g>
					</g>
				</g>
				<g>
					<g>
						<g>
							<g>
								<g>
									<polygon points="758.3,436.1 756.1,431.4 751.4,431.4 751.4,442.1 754.5,442.1 754.4,433.7 757.3,440.1 759.3,440.1 
										762.1,433.7 762.1,442.1 765.1,442.1 765.1,431.4 760.5,431.4 									"/>
								</g>
								<path d="M748.7,431.7c-0.3-0.2-0.6-0.3-1.1-0.3h-8.8v10.7h3.1v-3.6h0v-2.4h0v-2.4h4.2v2.5h-4.7v2.3h6.2
									c0.4,0,0.8-0.1,1.1-0.3c0.3-0.2,0.4-0.5,0.4-0.8v-4.8C749.2,432.2,749,431.9,748.7,431.7z"/>
							</g>
						</g>
					</g>
				</g>
			</g>
		</g>
		<g>
			<g>
				<polygon class="st0" points="746.3,422.9 751,428.8 755.3,428.8 749.4,421.5 				"/>
				<polygon class="st0" points="738.3,407.6 688.1,344.9 687.4,349.4 737.4,411.8 				"/>
			</g>
			<polygon class="st0" points="768.1,444.8 768.1,445.1 764.1,445.1 766.4,448 775.7,454.3 			"/>
		</g>
		<g>
			<polygon class="st0" points="738.9,445.1 731.6,454.3 740.9,448 743.2,445.1 			"/>
			<polygon class="st0" points="756.3,428.8 819.9,349.4 819.2,344.9 752.1,428.8 			"/>
		</g>
	</g>
	<g>
		<g>
			<g>
				<path class="st4" d="M265.1,950.1l-5.7,0l-7.9-6.8h6.6L265.1,950.1z M255.9,950.1l-5.5,0l-7.9-6.8h5.5L255.9,950.1z
					 M246.9,950.1l-5.6,0l-7.9-6.8h5.6L246.9,950.1z M237.8,950.1l-6,0l-7.9-6.8h6L237.8,950.1z M228.3,950.1l-5.9,0l-7.9-6.8h5.9
					L228.3,950.1z M214.9,941l7.8-6.8h5.5l-7.8,6.8H214.9z M231.8,934.2h5.6l-7.8,6.8H224L231.8,934.2z M240.9,934.2h6L239,941h-6
					L240.9,934.2z M250.4,934.2h5.9l-7.8,6.8h-5.9L250.4,934.2z M208.3,943.3h2.8l7.9,6.8h-1.3C217.3,950.2,208.8,950.5,208.3,943.3
					z M219.3,934.2l-7.8,6.8h-3.1c0.5-7.1,8.9-6.8,9.3-6.8H219.3z M258.1,941h-6.3l7.8-6.8h5.4L258.1,941z"/>
				<polygon class="st4" points="268.8,941.9 181.9,941.9 174.4,944.2 270.9,944.2 				"/>
			</g>
			<g>
				<path class="st4" d="M131.9,935.8l5.7,0l7.9,6.8h-6.6L131.9,935.8z M141.1,935.8l5.5,0l7.9,6.8H149L141.1,935.8z M150.1,935.8
					l5.6,0l7.9,6.8H158L150.1,935.8z M159.2,935.8l6,0l7.9,6.8h-6L159.2,935.8z M168.7,935.8l5.9,0l7.9,6.8h-5.9L168.7,935.8z
					 M182.1,944.9l-7.8,6.8h-5.5l7.8-6.8H182.1z M165.2,951.7h-5.6l7.8-6.8h5.6L165.2,951.7z M156.1,951.7h-6l7.8-6.8h6L156.1,951.7
					z M146.7,951.7h-5.9l7.8-6.8h5.9L146.7,951.7z M188.7,942.6h-2.8l-7.9-6.8h1.3C179.8,935.7,188.2,935.4,188.7,942.6z
					 M177.7,951.7l7.8-6.8h3.1c-0.5,7.1-8.9,6.8-9.3,6.8H177.7z M138.9,944.9h6.3l-7.8,6.8H132L138.9,944.9z"/>
				<polygon class="st4" points="128.2,944 215.2,944 222.6,941.7 126.1,941.7 				"/>
			</g>
		</g>
	</g>
	<g>
		<g>
			<path class="st1" d="M160,862.4c-0.1-0.8-0.8-1.6-1.6-1.6c-0.6,0-1.2,0.5-1.4,1.1c-0.1,0.1-0.1,0.3-0.1,0.5c0,0,0,0.1,0,0.1
				c0,0,0,0,0,0.1c0,0.2,0,0.5,0.1,0.8c1.2,5.2,8.8,5.5,13.8,1.3C170.9,864.6,161.7,868.9,160,862.4z"/>
			<path class="st1" d="M158.3,900.1c-6-3.8-15.6-6.8-15.6-6.8l4.6-4l-1.9-3.5c0,0,0,0,0,0c-0.3,0.4-0.6,0.7-1,1c0,0-0.1,0-0.1,0.1
				c0,0,0,0,0,0c-1.3,0.9-3.2,1.4-5,1c-0.6-0.1-1.2-0.4-1.7-0.7c-2.1,0.3-2.5,0.1-3.5-0.9c0,0-0.5-0.7-0.5-0.8
				c1.1,0.6,1.8,0.6,2.9,0.5c-0.5-0.8-0.5-1.8-0.1-2.7c0.6-1.2,2-2.4,3.7-3l0.2-0.2l-0.3-0.5c-2.4,0.4-5.1-0.6-5.8-2.8
				c-0.4-1.2-0.2-2.3,0.4-3.3c-1.1-0.2-1.7-0.2-2.8,0.4c0-0.1,0.6-0.8,0.6-0.8c1.1-1.1,1.5-1.3,3.6-0.9c0.5-0.3,1-0.5,1.6-0.7
				c2.3-0.5,4.8,0.7,5.7,2.7l0.5-0.1c-0.3-2.1,0.8-4.4,2.6-5.6c1-0.7,2.1-0.8,3.1-0.5c0.1-1.1,0-1.8-0.7-2.7c0.1,0,0.8,0.3,0.9,0.3
				c1.2,0.7,1.5,1.1,1.3,3.2c0.4,0.4,0.7,0.8,0.9,1.4c0.8,2.3-0.2,5.3-2.3,6.6c-0.1,0.1-0.2,0.1-0.3,0.1c3.1,3.6,9.1,6.2,12.7,8.6
				c0,0,0.4,4.7-1.2,9.9C159.9,897.8,158.3,900.1,158.3,900.1z"/>
			<path class="st1" d="M228.9,896.3c0,0-9.8,2.9-13.8,15.4c0,0.1,0,0.1-0.1,0.2l-1.7,0.1c0,0,0-0.1,0-0.2c0.6-1.5,0.2-3.2-1.1-4.3
				c-1.7-1.5-4.5-1.4-6.1,0.3c-0.4,0.4-0.7,0.9-0.9,1.3c-1.8,0.6-2,1-2.2,2.4c0,0.1,0,0.9,0,1c0.5-1,1-1.4,2-1.7
				c0.1,1,0.5,2,1.4,2.7c0.4,0.3,0.8,0.6,1.3,0.8l0.1,1.1c0,0,0.1,0,0.1,0c-0.6,0.6-1,1.3-1.2,2.2c-0.1,0.5-0.1,1.1,0,1.6
				c-1.2,1.4-1.2,1.9-0.6,3.2c0,0.1,0.5,0.8,0.5,0.8c-0.1-1.1,0.1-1.7,0.7-2.5c0.6,0.8,1.5,1.4,2.7,1.5c2.3,0.3,4.6-1.3,5-3.5
				c0.1-0.3,0.1-0.6,0.1-0.8l2.1-0.3c0,0,0,0.1,0,0.3c0,0,0,0,0,0c0,0.6,0.1,1.3,0.5,1.9c1.1,2,3.7,2.9,5.7,2c1-0.5,1.7-1.3,2.1-2.2
				c0.8,0.6,1.2,1,1.4,2.2c0,0,0.2-0.9,0.2-0.9c0.2-1.4,0.1-1.8-1.5-2.9c-0.1-0.5-0.2-1-0.5-1.5c0,0,0,0,0-0.1c0,0,0,0,0,0
				c-0.1-0.2-0.2-0.3-0.3-0.5c-0.1-0.1-0.1-0.2-0.2-0.2c-0.3-0.3-0.6-0.6-1-0.9l-0.1-2.3l6.7-0.1v-7.6l3.2-2
				C233.6,902.5,229.5,900.6,228.9,896.3z"/>
			<path class="st1" d="M260.9,913.8l2.2,0.9v-7.9c-6.3-0.2-3.2-13-3.2-13c-14.1,2.9-10.2-7.1-10.2-7.1c5.3-0.7,14.3-5.8,13.6-14
				c-1.2-15.4-39.7-9.6-51.1-8.9c-11.5,0.7-6.1-2.6,3.5-3.4c9.6-0.8-4.5-12.2-4.5-12.2s3.4,3.2-10.9,10.9c-14.3,7.7,4.3,9.3,4.3,9.3
				c-4.6,4.2,2.8,7,2.8,7c-2.5-3.4,1.8-6.2,1.8-6.2s32.2-6.5,43.4-1.8c11.2,4.7,1.2,17.7-6.8,15.2c-8.1-2.5-25.1-0.7-25.1-0.7
				l-13.8,18c15.4-11.8,24.1-9,24.1-9c5.7,12.8,10.1,10.1,17.2,12.7c7.1,2.6,4.7,9.1,4.7,9.1h-4.1c0.3-0.9,0.3-1.9-0.1-2.8
				c-0.9-2.1-3.4-3.2-5.6-2.4c-0.5,0.2-1,0.5-1.4,0.8c-1.8-0.2-2.2,0-3,1.2c0,0-0.4,0.8-0.4,0.9c0.9-0.7,1.5-0.8,2.5-0.7
				c-0.4,0.9-0.4,2,0,3c0.4,0.9,1,1.5,1.8,2l0.8,0.9c-0.5,0.3-0.9,0.6-1.3,1c-0.4,0.4-0.6,0.9-0.8,1.4c-1.7,0.7-1.9,1.1-2,2.6
				c0,0.1,0,0.9,0.1,1c0.4-1.1,0.9-1.4,1.8-1.8c0.1,1,0.7,1.9,1.6,2.6c1.8,1.3,4.5,1,6-0.8c0.6-0.7,0.9-1.6,0.9-2.4h1.8
				c0.1,0.4,0.3,0.9,0.5,1.3c1.2,2,3.9,2.7,5.9,1.6c1-0.5,1.6-1.4,1.9-2.4c0.9,0.5,1.3,1,1.6,2.1c0,0,0.2-0.9,0.2-0.9
				c0.1-1.4-0.1-1.8-1.7-2.8c-0.1-0.5-0.3-1-0.6-1.5c-0.3-0.4-0.6-0.7-0.9-1C258.8,914.2,260.9,913.8,260.9,913.8z"/>
			<path class="st1" d="M194.7,881.8c0,0-10,19.5-49.7,23.8c0.1-0.3,0.1-0.5,0.1-0.8c0.2-2.5-1.6-5.1-4-5.8
				c-0.6-0.2-1.1-0.2-1.6-0.1c-1.6-1.4-2-1.4-3.3-0.8c-0.1,0-0.8,0.5-0.8,0.5c1.2-0.1,1.7,0.2,2.6,1c-0.8,0.6-1.3,1.6-1.4,2.8
				c-0.1,2.3,1.3,4.6,3.4,5.5l-0.2,0.4c-2-0.5-4.2,0.3-5.5,2.1c-0.4,0.5-0.6,1.1-0.8,1.7c-1.7,1-1.9,1.4-1.9,2.9c0,0.1,0.1,1,0.1,1
				c0.4-1.1,0.8-1.6,1.7-2.1c0.2,1.1,0.9,2,1.9,2.6c2.1,1.2,4.9,0,6.4-2.1c0,0,0,0,0-0.1l0.6,0.1l0.1,0.4c-0.3,1.8,0.1,3.7,0.9,4.8
				c0.6,0.9,1.5,1.2,2.5,1.2c-0.4,1.1-0.7,1.7-1.8,2.4c0,0,0.9-0.1,0.9-0.1c1.4-0.4,1.7-0.7,2.4-2.7c0.5-0.3,0.9-0.6,1.3-1.1
				c0.7-0.8,1.1-1.7,1.3-2.7c0,0,0,0,0,0c0-0.1,0-0.1,0-0.2c0.2-0.8,0.2-1.6,0-2.3l3.8,0.6l0.3,6.1c0,0,14.2-8.6,30.3-6.9
				c0,0,1.5-1.9,0.4-3.2c-1.1-1.3-2.3-9.8,1.3-11.9c0,0-1.6,11.1,5.7,7.2c7.3-3.9,12.4-6.3,12.4-6.3l12.8-17.6H194.7z"/>
		</g>
		<g>
			<path class="st1" d="M193,849.3l-4.6-0.4c-0.3,0-0.7,0.1-0.9,0.3c0,0,0,0,0,0c-0.2,0.1-0.4,0.3-0.5,0.6l-0.4,0.8
				c-0.2,0.4-0.1,0.2-0.5,1l-2,3.6l2.2-6.3l-12.2-0.5c-0.4,0-1,0.2-1.3,0.4c-0.2,0.1-0.6,0.3-0.7,0.5l-2,1.6c0,0,0,0,0,0l-6.7,0.5
				c-0.4,0-0.7,0.1-0.7,0.5l-0.3,2.7c0,0,0.3,0,0.4,0l3.9-0.7c0,0-0.3,1.1-3.3,1.6c-3,0.4,0.7,7.1,0.9,7.5c0.1,0.1,0.2,0.5,0.4,0.6
				l0.4,0.1c0.4,0.1,1.1-0.2,1.4-0.4c1.6-0.7,6.5-2.4,7.7,1.2c1.4,4.3-4.6,5.6-7.8,4.8c-0.1,0-0.1,0-0.1,0.1l0.1,5.6
				c0.1,0,0.1,0,0.1,0.1c0.9-0.8,6-5.4,10.7-3.5c0,0,0,0.1,0,0.1c-1.1,0.6-11.3,6.2-12,11.7c-0.7,5.6-0.7,14.7-3.6,16.7
				c-0.1,0,0,0.2,0.1,0.1l5.8-2.8l0.7-0.4c0.1,0,0.3-0.1,0.4-0.1l2.5-7.3l-0.6,6.6c2-0.7,4.1-1.6,6.2-2.5l2.9-12.2l-0.2,10.9
				c1.9-1,3.6-2.2,5.2-3.6l3.2-14.2l0,10.9l0.1-0.1l4.1-4.2c0.2-0.2,0.3-0.4,0.3-0.7c0-0.5,0-1.3,0-1.3v-18.8c0-0.1,0-0.3-0.1-0.4
				l-0.6-0.9c-0.1-0.2-0.3-0.3-0.4-0.4l-2-1l2.1-0.6c0,0,0.1,0,0.3-0.1c0.6-0.2,1-0.7,1.1-1.2l1.4-5.8
				C193.7,849.6,193.4,849.2,193,849.3z M178.3,851l-0.9,1c-0.1,0.1-0.3,0.2-0.5,0.2l-4.6-0.1c-0.3,0-0.5-0.4-0.2-0.6l1.1-1
				c0.2-0.1,0.4-0.2,0.6-0.2l4.4,0.1C178.4,850.4,178.5,850.8,178.3,851z M190.6,854.8c-0.1,0.3-0.3,0.5-0.6,0.6l-3.1,0.1l3.7-4.9
				l1.2,0L190.6,854.8z"/>
			<polygon class="st1" points="188.7,852.5 190.6,852.9 187.9,853.7 			"/>
			<polygon class="st1" points="187.8,853.9 189.7,854.3 187,855.1 			"/>
		</g>
	</g>
	<g>
		<g>
			<g>
				<g>
					<g>
						<path class="st4" d="M584.9,909.8h-6.4l7.6-6.3l5.5,0L584.9,909.8z M575.1,909.8h-5.3l7.6-6.3l5.3,0L575.1,909.8z
							 M566.4,909.8H561l7.6-6.3l5.4,0L566.4,909.8z M557.7,909.8h-5.8l7.6-6.3l5.8,0L557.7,909.8z M548.5,909.8h-5.6l7.6-6.3l5.6,0
							L548.5,909.8z M548.6,911.9l7.6,6.3h-5.3l-7.6-6.3H548.6z M551.9,911.9h5.4l7.6,6.3h-5.4L551.9,911.9z M560.7,911.9h5.8
							l7.6,6.3h-5.8L560.7,911.9z M569.8,911.9h5.6l7.6,6.3h-5.6L569.8,911.9z M545.8,903.5h1.3l-7.6,6.3h-2.7
							C537.3,903.2,545.5,903.5,545.8,903.5z M545.8,918.2c-0.4,0-8.5,0.3-9-6.3h3l7.6,6.3H545.8z M591.6,918.2h-5.2l-7.6-6.3h6
							L591.6,918.2z"/>
						<polygon class="st4" points="532.8,909 532.6,911.1 595.2,911.1 597.2,909 						"/>
					</g>
					<g>
						<path class="st4" d="M364.6,907.3l5.5,0l7.6,6.3h-6.4L364.6,907.3z M373.5,907.3l5.3,0l7.6,6.3h-5.3L373.5,907.3z
							 M382.2,907.3l5.4,0l7.6,6.3h-5.4L382.2,907.3z M391,907.3l5.8,0l7.6,6.3h-5.8L391,907.3z M400.1,907.3l5.6,0l7.6,6.3h-5.6
							L400.1,907.3z M413,915.7l-7.6,6.3h-5.3l7.6-6.3H413z M396.7,921.9h-5.4l7.6-6.3h5.4L396.7,921.9z M388,921.9h-5.8l7.6-6.3
							h5.8L388,921.9z M378.8,921.9h-5.6l7.6-6.3h5.6L378.8,921.9z M419.4,913.6h-2.7l-7.6-6.3h1.3
							C410.8,907.2,418.9,906.9,419.4,913.6z M408.8,921.9l7.6-6.3h3c-0.5,6.6-8.6,6.3-9,6.3H408.8z M371.3,915.7h6l-7.6,6.3h-5.2
							L371.3,915.7z"/>
						<polygon class="st4" points="424.1,914.7 423.7,912.7 359,912.7 361,914.8 424.1,914.8 						"/>
					</g>
				</g>
				<g>
					<g>
						<g>
							<path class="st1" d="M447.8,878.3c-0.1-0.6-0.7-1.2-1.3-1.2c-0.5,0-1,0.3-1.1,0.8c0,0.1-0.1,0.2-0.1,0.4c0,0,0,0,0,0.1
								c0,0,0,0,0,0c0,0.2,0,0.4,0.1,0.6c1,4,7.1,4.3,11.2,1C456.5,880,449.1,883.3,447.8,878.3z"/>
							<path class="st1" d="M446.4,907.4c-4.8-3-12.7-5.3-12.7-5.3l3.8-3.1l-1.5-2.7c0,0,0,0,0,0c-0.2,0.3-0.5,0.5-0.8,0.8
								c0,0,0,0-0.1,0.1c0,0,0,0,0,0c-1.1,0.7-2.6,1-4,0.7c-0.5-0.1-1-0.3-1.4-0.5c-1.7,0.2-2,0.1-2.8-0.7c0,0-0.4-0.5-0.4-0.6
								c0.9,0.4,1.4,0.5,2.3,0.4c-0.4-0.6-0.4-1.4-0.1-2.1c0.5-0.9,1.6-1.8,3-2.3l0.1-0.1l-0.2-0.4c-2,0.3-4.1-0.4-4.7-2.2
								c-0.3-0.9-0.2-1.8,0.3-2.5c-0.9-0.2-1.4-0.2-2.3,0.3c0,0,0.4-0.6,0.5-0.7c0.9-0.9,1.2-1,2.9-0.7c0.4-0.2,0.8-0.4,1.3-0.5
								c1.9-0.4,3.9,0.5,4.7,2.1l0.4-0.1c-0.2-1.6,0.6-3.4,2.1-4.3c0.8-0.5,1.7-0.6,2.5-0.4c0.1-0.9,0-1.4-0.6-2.1
								c0,0,0.7,0.2,0.7,0.3c1,0.5,1.2,0.8,1,2.5c0.3,0.3,0.5,0.6,0.7,1.1c0.7,1.8-0.2,4.1-1.9,5.1c-0.1,0-0.1,0.1-0.2,0.1
								c2.5,2.8,7.3,4.8,10.3,6.6c0,0,0.3,3.6-1,7.7C447.7,905.6,446.4,907.4,446.4,907.4z"/>
							<path class="st1" d="M503.5,904.5c0,0-8,2.2-11.2,11.9c0,0.1,0,0.1-0.1,0.2l-1.4,0c0,0,0-0.1,0-0.1c0.4-1.1,0.1-2.5-0.9-3.3
								c-1.4-1.2-3.6-1-4.9,0.2c-0.3,0.3-0.5,0.7-0.7,1c-1.4,0.5-1.6,0.8-1.8,1.8c0,0,0,0.7,0,0.7c0.4-0.8,0.8-1,1.6-1.3
								c0,0.8,0.4,1.5,1.1,2.1c0.3,0.3,0.7,0.4,1.1,0.6l0.1,0.8c0,0,0.1,0,0.1,0c-0.5,0.5-0.8,1-0.9,1.7c-0.1,0.4-0.1,0.8,0,1.2
								c-0.9,1.1-0.9,1.5-0.5,2.4c0,0,0.4,0.6,0.4,0.6c-0.1-0.9,0.1-1.3,0.6-1.9c0.5,0.6,1.2,1.1,2.2,1.2c1.9,0.2,3.7-1,4.1-2.7
								c0-0.2,0.1-0.4,0.1-0.6l1.7-0.2c0,0,0,0.1,0,0.2c0,0,0,0,0,0c0,0.5,0.1,1,0.4,1.5c0.9,1.6,3,2.3,4.7,1.5
								c0.8-0.4,1.4-1,1.7-1.7c0.7,0.5,1,0.8,1.1,1.7c0,0,0.2-0.7,0.2-0.7c0.2-1.1,0.1-1.4-1.2-2.2c0-0.4-0.2-0.8-0.4-1.2
								c0,0,0,0,0-0.1c0,0,0,0,0,0c-0.1-0.1-0.2-0.3-0.3-0.4c-0.1-0.1-0.1-0.1-0.2-0.2c-0.2-0.2-0.5-0.5-0.8-0.7l0-1.8l5.4,0v-5.9
								l2.6-1.5C507.3,909.3,504,907.8,503.5,904.5z"/>
							<path class="st1" d="M529.4,918l1.8,0.7v-6.1c-5.1-0.2-2.6-10-2.6-10c-11.4,2.3-8.2-5.5-8.2-5.5c4.3-0.5,11.5-4.5,11-10.8
								c-0.9-11.8-32.1-7.4-41.4-6.9c-9.3,0.5-4.9-2,2.8-2.6c7.8-0.6-3.6-9.4-3.6-9.4s2.7,2.4-8.8,8.4c-11.6,6,3.5,7.1,3.5,7.1
								c-3.7,3.3,2.3,5.4,2.3,5.4c-2-2.6,1.4-4.8,1.4-4.8s26-5,35.1-1.4s1,13.6-5.5,11.7c-6.5-1.9-20.3-0.5-20.3-0.5l-11.2,13.9
								c12.4-9.1,19.5-7,19.5-7c4.6,9.9,8.2,7.8,13.9,9.8c5.8,2,3.8,7.1,3.8,7.1h-3.3c0.3-0.7,0.3-1.4-0.1-2.2
								c-0.7-1.6-2.8-2.5-4.5-1.9c-0.4,0.1-0.8,0.4-1.1,0.6c-1.5-0.2-1.8,0-2.5,0.9c0,0-0.4,0.6-0.4,0.7c0.7-0.5,1.2-0.6,2-0.5
								c-0.3,0.7-0.3,1.5,0,2.3c0.3,0.7,0.8,1.2,1.4,1.5l0.6,0.7c-0.4,0.2-0.7,0.5-1,0.8c-0.3,0.3-0.5,0.7-0.6,1.1
								c-1.4,0.6-1.6,0.9-1.6,2c0,0,0,0.7,0,0.7c0.3-0.8,0.7-1.1,1.5-1.4c0.1,0.8,0.5,1.5,1.3,2c1.5,1,3.7,0.8,4.9-0.6
								c0.5-0.6,0.7-1.2,0.7-1.9h1.4c0.1,0.3,0.2,0.7,0.4,1c1,1.5,3.1,2,4.8,1.2c0.8-0.4,1.3-1.1,1.5-1.8c0.7,0.4,1,0.7,1.3,1.6
								c0,0,0.1-0.7,0.1-0.7c0.1-1.1-0.1-1.4-1.3-2.2c-0.1-0.4-0.2-0.8-0.5-1.1c-0.2-0.3-0.5-0.6-0.8-0.8
								C527.7,918.3,529.4,918,529.4,918z"/>
							<path class="st1" d="M475.8,893.3c0,0-8.1,15-40.2,18.3c0-0.2,0.1-0.4,0.1-0.6c0.1-1.9-1.3-3.9-3.2-4.5
								c-0.5-0.1-0.9-0.1-1.3-0.1c-1.3-1.1-1.6-1.1-2.7-0.7c0,0-0.6,0.4-0.6,0.4c0.9,0,1.4,0.2,2.1,0.8c-0.6,0.5-1.1,1.2-1.1,2.2
								c-0.1,1.8,1.1,3.6,2.7,4.3l-0.2,0.3c-1.6-0.4-3.4,0.2-4.4,1.6c-0.3,0.4-0.5,0.8-0.6,1.3c-1.4,0.8-1.5,1.1-1.5,2.3
								c0,0,0.1,0.8,0.1,0.8c0.3-0.9,0.7-1.2,1.4-1.7c0.2,0.8,0.7,1.6,1.5,2c1.7,0.9,4,0,5.2-1.7c0,0,0,0,0,0l0.5,0.1l0,0.3
								c-0.2,1.4,0.1,2.9,0.7,3.7c0.5,0.7,1.2,1,2,0.9c-0.3,0.8-0.6,1.3-1.4,1.8c0,0,0.7-0.1,0.7-0.1c1.1-0.3,1.4-0.6,2-2.1
								c0.4-0.2,0.7-0.5,1.1-0.9c0.5-0.6,0.9-1.3,1.1-2.1c0,0,0,0,0,0c0,0,0-0.1,0-0.2c0.1-0.6,0.1-1.2,0-1.8l3.1,0.5l0.2,4.7
								c0,0,11.5-6.6,24.5-5.3c0,0,1.2-1.5,0.3-2.5c-0.9-1-1.9-7.6,1.1-9.2c0,0-1.3,8.5,4.6,5.5c5.9-3,10.1-4.9,10.1-4.9l10.4-13.6
								H475.8z"/>
						</g>
					</g>
					<g>
						<path class="st1" d="M474.4,868.2l-3.8-0.3c-0.3,0-0.5,0.1-0.8,0.2c0,0,0,0,0,0c-0.2,0.1-0.3,0.3-0.4,0.5l-0.3,0.6
							c-0.2,0.3-0.1,0.2-0.4,0.8l-1.6,2.8l1.7-4.9l-9.9-0.4c-0.3,0-0.8,0.2-1.1,0.3c-0.2,0.1-0.4,0.2-0.6,0.3l-1.6,1.2c0,0,0,0,0,0
							l-5.4,0.4c-0.3,0-0.6,0.1-0.6,0.4l-0.3,2.1c0,0,0.2,0,0.3,0l3.1-0.6c0,0-0.2,0.9-2.7,1.2c-2.4,0.3,0.6,5.5,0.7,5.8
							c0.1,0.1,0.2,0.4,0.4,0.5l0.3,0.1c0.3,0.1,0.9-0.2,1.1-0.3c1.3-0.5,5.3-1.8,6.2,1c1.1,3.3-3.7,4.3-6.3,3.7c0,0-0.1,0-0.1,0.1
							l0.1,4.4c0.1,0,0.1,0,0.1,0c0.7-0.7,4.9-4.2,8.7-2.7c0,0,0,0,0,0.1c-0.9,0.5-9.2,4.8-9.7,9c-0.6,4.3-0.6,11.4-2.9,12.9
							c-0.1,0,0,0.1,0.1,0.1l4.7-2.1l0.6-0.3c0.1,0,0.2-0.1,0.3-0.1l2-5.6l-0.5,5.1c1.6-0.6,3.3-1.3,5-1.9l2.4-9.4l-0.2,8.4
							c1.5-0.8,2.9-1.7,4.2-2.8l2.6-10.9l0,8.4l0.1-0.1l3.4-3.2c0.1-0.1,0.2-0.3,0.2-0.6c0-0.4,0-1,0-1v-14.5c0-0.1,0-0.2-0.1-0.3
							l-0.5-0.7c-0.1-0.1-0.2-0.2-0.3-0.3l-1.6-0.7l1.7-0.5c0,0,0.1,0,0.2-0.1c0.5-0.1,0.8-0.5,0.9-1l1.1-4.5
							C475,868.4,474.8,868.1,474.4,868.2z M462.6,869.5l-0.8,0.8c-0.1,0.1-0.3,0.2-0.4,0.2l-3.7-0.1c-0.3,0-0.4-0.3-0.2-0.4
							l0.9-0.8c0.1-0.1,0.3-0.1,0.5-0.1l3.5,0.1C462.6,869.1,462.7,869.3,462.6,869.5z M472.5,872.5c-0.1,0.2-0.3,0.4-0.5,0.5
							l-2.5,0.1l3-3.8l1,0L472.5,872.5z"/>
						<polygon class="st1" points="471,870.7 472.5,871 470.3,871.6 						"/>
						<polygon class="st1" points="470.3,871.7 471.8,872.1 469.6,872.7 						"/>
					</g>
				</g>
				<g>
					<g>
						<path class="st1" d="M407.3,876.7c0.1-0.4,0.3-0.6,0.6-0.8c0.3-0.2,0.6-0.2,1-0.2l5.2,1.4c0.4,0.1,0.6,0.3,0.8,0.6
							c0.2,0.3,0.2,0.7,0.1,1l-1.5,5l4,1.1l-0.8,2.7l-11.8-3.1L407.3,876.7z M409.4,878.7l-1.1,3.7l2.7,0.7l1.1-3.7L409.4,878.7z"/>
						<path class="st1" d="M405.6,884.2l11,2.9l0.6-1.9l-4-1.1l1.6-5.4c0.1-0.3,0.1-0.5-0.1-0.8c-0.1-0.2-0.3-0.4-0.5-0.4l-5.2-1.4
							c-0.2-0.1-0.4,0-0.7,0.1c-0.2,0.1-0.4,0.3-0.5,0.6v0L405.6,884.2z M411.4,883.6l-3.5-0.9l1.3-4.4l3.5,0.9L411.4,883.6z"/>
					</g>
					<g>
						<path class="st1" d="M414.7,866.7l2,1l1.7-2.9l2.2,1.2l-1.7,2.9l1.9,1l3.1-5.3l2.2,1.2l-4.5,7.7l-10.7-5.7l4.5-7.7l2.3,1.2
							L414.7,866.7z"/>
						<path class="st1" d="M411.6,867.7l10,5.3l4.1-7l-1.6-0.8l-3.1,5.3l-2.6-1.4l1.7-2.9l-1.6-0.8l-1.7,2.9l-2.7-1.4l3.1-5.3
							l-1.6-0.9L411.6,867.7z"/>
					</g>
					<g>
						<path class="st1" d="M427.7,849.7l-1.9,2l7.2,6.2l-1.9,2l-7.2-6.2l-1.9,2l-1.9-1.6l5.7-6.1L427.7,849.7z"/>
						<path class="st1" d="M423.9,853.3l7.2,6.2l1.4-1.5l-7.2-6.2l1.9-2l-1.3-1.1l-5.2,5.5l1.3,1.1L423.9,853.3z"/>
					</g>
					<g>
						<path class="st1" d="M435.8,843.3l1.3,1.7l2.9-1.9l1.5,2l-2.9,1.9l1.3,1.7l5.2-3.5l1.5,2l-7.5,5.1l-7.1-9.5l7.5-5.1l1.5,2
							L435.8,843.3z"/>
						<path class="st1" d="M432.5,842.9l6.6,8.9l6.8-4.6l-1-1.4l-5.2,3.5L438,847l2.9-1.9l-1-1.4l-2.9,1.9l-1.8-2.4l5.2-3.5
							l-1.1-1.4L432.5,842.9z"/>
					</g>
					<g>
						<path class="st1" d="M458.6,842.1l-4.1-2.7l-1.9,0.7l1.5,3.7l-2.7,1l-4.5-10.9l7.7-2.9c0.4-0.1,0.7-0.2,1.1,0
							c0.4,0.1,0.6,0.3,0.7,0.7l2,4.8c0.1,0.3,0.1,0.7,0,1s-0.4,0.6-0.8,0.7l4.1,2.7L458.6,842.1z M451.6,837.8l3.7-1.4l-1-2.5
							l-3.7,1.4L451.6,837.8z"/>
						<path class="st1" d="M447.4,834.2l4.2,10.1l1.9-0.7l-1.5-3.7l2.5-0.9l4.1,2.7l2.2-0.8l-4.1-2.7l0.7-0.3
							c0.3-0.1,0.5-0.3,0.6-0.5c0.1-0.2,0.1-0.4,0-0.7l-2-4.8c-0.1-0.2-0.2-0.4-0.5-0.4c-0.3-0.1-0.5-0.1-0.8,0L447.4,834.2z
							 M451.3,838.3L450,835l4.5-1.7l1.3,3.2L451.3,838.3z"/>
					</g>
					<g>
						<path class="st4" d="M490.5,827.7l-0.8,11.7l-2.9-0.2l0.6-9.1l-3.1,4.7l-1.8-0.1l-2.4-5l-0.6,9.1l-2.9-0.2l0.8-11.7l4.4,0.3
							l1.9,3.1l2.3-2.9L490.5,827.7z"/>
						<path class="st4" d="M487.3,838.9l2.1,0.1l0.7-10.9l-3.8-0.2l-2.5,3.2l-2.1-3.5l-3.8-0.2l-0.7,10.9l2.1,0.1l0.6-10.3l3,6.2
							l1.4,0.1l3.8-5.8L487.3,838.9z"/>
					</g>
					<g>
						<path class="st4" d="M503.1,843.2l-6.6-2.2c-0.4-0.1-0.7-0.3-0.9-0.6c-0.2-0.3-0.2-0.6-0.1-1l3.6-9.9l2.8,0.9l-3.1,8.7
							l3.9,1.3l3.1-8.7l2.8,0.9l-3.6,9.9c-0.1,0.3-0.4,0.6-0.7,0.7C503.9,843.4,503.5,843.4,503.1,843.2z"/>
						<path class="st4" d="M503.3,842.9c0.3,0.1,0.6,0.1,0.8,0c0.2-0.1,0.4-0.2,0.5-0.5l3.4-9.5l-2-0.7l-3.1,8.7l-4.6-1.5l3.1-8.7
							l-2-0.7l-3.4,9.5c-0.1,0.2-0.1,0.4,0.1,0.6c0.1,0.2,0.3,0.4,0.6,0.5L503.3,842.9z"/>
					</g>
					<g>
						<path class="st4" d="M516.4,850.3l0-4.8l-1.7-1.1l-2.3,3.3l-2.4-1.5l6.7-9.8l7,4.4c0.3,0.2,0.6,0.5,0.7,0.8
							c0.1,0.3,0,0.7-0.1,0.9l-3,4.3c-0.2,0.3-0.5,0.5-0.9,0.5s-0.7,0-1.1-0.2l0,4.8L516.4,850.3z M516,842.3l3.3,2.1l1.6-2.3
							l-3.3-2.1L516,842.3z"/>
						<path class="st4" d="M516.8,850.1l2,1.3l0-4.8l0.6,0.4c0.3,0.2,0.5,0.2,0.8,0.2c0.3,0,0.4-0.2,0.6-0.4l3-4.3
							c0.1-0.2,0.2-0.4,0.1-0.6c-0.1-0.3-0.2-0.5-0.5-0.6l-6.6-4.1l-6.3,9.1l1.7,1.1l2.3-3.3l2.2,1.4L516.8,850.1z M519.5,844.9
							l-4-2.5l2-2.9l4,2.5L519.5,844.9z"/>
					</g>
					<g>
						<path class="st4" d="M537.2,853c0.3,0.3,0.4,0.6,0.4,1c0,0.4-0.1,0.7-0.4,0.9l-4,3.5c-0.3,0.2-0.6,0.3-1,0.3
							c-0.4,0-0.7-0.2-1-0.5l-3.7-3.8l-3.1,2.7l-2-2l9-7.9L537.2,853z M534.3,853.6l-2.7-2.8l-2.1,1.8l2.7,2.8L534.3,853.6z"/>
						<path class="st4" d="M527.6,853.8l4,4.1c0.2,0.2,0.4,0.3,0.7,0.3c0.3,0,0.5,0,0.7-0.2l4-3.5c0.2-0.2,0.3-0.3,0.3-0.6
							c0-0.3-0.1-0.5-0.3-0.7l-5.4-5.6l-8.4,7.4l1.4,1.5L527.6,853.8z M532.2,856l-3.3-3.4l2.7-2.3l3.3,3.4L532.2,856z"/>
					</g>
					<g>
						<path class="st4" d="M547.6,868.3l-10.7,5.7l-1.4-2.4l3.6-1.9l-1.9-3.3l-3.6,1.9l-1.4-2.4l10.7-5.7l1.4,2.4l-4.8,2.6l1.9,3.3
							l4.8-2.6L547.6,868.3z"/>
						<path class="st4" d="M536.1,871.8l1,1.7l10-5.3l-1-1.7l-4.8,2.6l-2.3-4l4.8-2.6l-1-1.7l-10,5.3l1,1.7l3.6-1.9l2.3,4
							L536.1,871.8z"/>
					</g>
					<g>
						<path class="st4" d="M546.3,883.9l-5.4,1.4l-0.7-2.7l5.4-1.4l5.2-5.9l1,3.6l-2.4,2.7l3.4,1.2l1,3.6L546.3,883.9z"/>
						<path class="st4" d="M546.3,883.5l7,2.4l-0.8-2.7l-3.8-1.3l2.6-2.9l-0.8-2.7l-4.8,5.4l-5.1,1.3l0.5,1.9L546.3,883.5z"/>
					</g>
				</g>
				<polygon class="st4" points="364.2,927.9 415.9,927.9 420.4,926.6 362.9,926.6 				"/>
				<polygon class="st4" points="592.2,900 540.4,900 535.9,898.7 593.4,898.7 				"/>
			</g>
		</g>
		<g>
			<path class="st4" d="M389.2,897c0.3,0.1,0.4,0.3,0.4,0.6c0,0.3-0.2,0.4-0.5,0.4c-1.2,0-2.4,0-3.6,0c-0.3,0-0.4,0.2-0.4,0.5
				c0,0.3,0.1,0.4,0.4,0.4c1,0,2,0.1,3,0.1c0.3,0,0.4,0.1,0.4,0.4c0,0.5-0.1,0.5-0.4,0.5c-0.9,0-1.9,0-2.8,0c-0.4,0-0.6,0.1-0.6,0.5
				c0,0.4,0.2,0.6,0.7,0.5c0.7-0.1,1.5-0.1,2.2,0c0.1,0,0.1,0,0.2,0c0.4-0.2,0.8-0.1,1.2,0c0.3,0.1,0.3,0.2,0.3,0.5
				c0,0.3-0.1,0.4-0.4,0.4c-0.8,0-1.6,0-2.3,0c-0.8,0-1.6,0-2.4,0c-0.3,0-0.4-0.1-0.5-0.4c-0.1-0.5-0.1-0.9,0-1.3
				c0.1-0.4-0.1-0.8-0.1-1.2c0-0.4,0.1-0.8,0-1.2c-0.1-0.3,0.1-0.5,0.5-0.5c0.7,0,1.3,0.1,2-0.1H389.2z"/>
			<path class="st4" d="M393.8,901.7c-0.9,0-1.6,0-2.2-0.2c-0.3-0.1-0.7-0.3-0.9-0.5c-0.2-0.2-0.3-0.4-0.1-0.7
				c0.2-0.2,0.5-0.3,0.8-0.2c0.2,0.1,0.4,0.3,0.6,0.4c0.8,0.2,1.7,0.2,2.5,0.1c0.2,0,0.3,0,0.5-0.1c0.1,0,0.3-0.1,0.3-0.2
				c0-0.2-0.1-0.2-0.3-0.3c-0.4-0.1-0.7-0.2-1.1-0.2c-0.7,0-1.4-0.1-2.1-0.3c-0.4-0.1-0.9-0.3-1.1-0.7c-0.2-0.6,0-1.1,0.6-1.4
				c0.7-0.3,1.4-0.4,2.1-0.4c0.4,0,0.7,0,1.1,0c0.4,0,0.7,0.2,1.1,0.3c0.3,0.1,0.5,0.3,0.7,0.6c0.1,0.1,0,0.2-0.1,0.3
				c-0.2,0.2-0.3,0.3-0.6,0.2c-0.1,0-0.3-0.1-0.4-0.2c-0.8-0.5-1.7-0.5-2.6-0.4c-0.2,0-0.6,0-0.6,0.4c0,0.3,0.4,0.4,0.6,0.4
				c0.6,0.1,1.2,0.2,1.9,0.2c0.5,0,1,0.2,1.5,0.4c0.5,0.3,0.6,0.7,0.6,1.2c-0.1,0.5-0.5,0.7-0.9,0.8
				C395.1,901.6,394.4,901.9,393.8,901.7z"/>
			<path class="st4" d="M401,899.5c0,0.6,0,1.1,0,1.7c0,0.4-0.2,0.6-0.6,0.5c-0.2,0-0.3-0.1-0.3-0.3c0-0.1-0.1-0.2-0.1-0.3
				c0-0.7,0-1.4,0-2.2c0-0.3,0-0.5,0-0.8c0-0.2-0.2-0.4-0.4-0.3c-0.5,0.1-1.1-0.1-1.6,0c-0.2,0-0.4,0-0.4-0.3c0-0.3,0.1-0.6,0.3-0.6
				c0.9,0.1,1.9,0,2.8,0c0.8,0,1.7,0.1,2.4,0c0.2,0,0.4,0,0.4,0.3c0,0.2,0,0.5-0.3,0.6c-0.1,0-0.2,0.1-0.4,0.1h-1.2
				c-0.4,0-0.6,0.1-0.6,0.5C401,898.8,401,899.2,401,899.5L401,899.5z"/>
			<path class="st4" d="M404.8,901.8c-0.3,0-0.5-0.2-0.4-0.6c0-0.3,0.2-0.3,0.5-0.3c0.3,0,0.5,0.2,0.5,0.4
				C405.5,901.6,405.1,901.8,404.8,901.8z"/>
		</g>
		<g>
			<path class="st1" d="M467.5,940.7c0.6,0.1,1.1,0.2,1.6,0.2c0.5,0,0.6,0.1,0.6,0.6c0,0.5-0.1,0.6-0.6,0.6h-5.9
				c-0.4,0-0.6-0.1-0.6-0.5c0-0.6,0-0.6,0.5-0.7c1.6-0.4,3.1-0.8,4.3-1.9c0.4-0.3,0.7-0.8,0.7-1.3c0-0.3-0.2-0.5-0.5-0.6
				c-1.1-0.4-2.1-0.2-3.1,0.3c-0.3,0.2-0.6,0.5-1.1,0.3c-0.3-0.1-0.5-0.3-0.6-0.5c-0.1-0.3,0.1-0.5,0.3-0.7c1.7-1.2,3.5-1.1,5.3-0.4
				c0.4,0.2,0.7,0.5,0.8,0.9c0.3,1.2-0.1,2.4-1.2,3.1C467.9,940.3,467.7,940.4,467.5,940.7z"/>
			<path class="st1" d="M474.9,942.1c-0.6,0-1.2,0-1.8-0.2c-1.3-0.3-2.3-1.6-2.1-2.9c0.1-0.4,0.1-0.8,0.1-1.2c0-0.9,1.3-1.8,2-2
				c1-0.3,2-0.3,3-0.2c1.1,0.2,2.1,0.5,2.5,1.6c0.5,1.2,0.4,2.6-0.3,3.7c-0.5,0.8-1.5,1-2.4,1.1
				C475.6,942.1,475.3,942.1,474.9,942.1z M475.2,936.9c-0.5,0-0.8,0-1.2,0.1c-1,0.2-1.5,0.8-1.6,1.8c0,1.1,0.3,1.6,1.4,1.9
				c0.4,0.1,0.8,0.2,1.3,0.2c1-0.1,1.9-0.4,2.3-1.5c0.3-0.7-0.2-1.9-0.8-2.1C476.1,937,475.6,936.8,475.2,936.9z"/>
			<path class="st1" d="M480.8,936.7c0.5-0.5,1-0.9,1.7-0.8c0.4,0,0.6,0.2,0.6,0.6c0,1.8,0,3.5,0,5.3c0,0.4-0.3,0.6-0.8,0.6
				c-0.4,0-0.6-0.2-0.6-0.6c0-0.7,0-1.3,0-2c0-0.6-0.1-1.2,0-1.8c0-0.2-0.1-0.4-0.4-0.4c-0.4,0-0.6-0.2-0.6-0.6V936.7z"/>
			<path class="st1" d="M488.5,942.1c-0.8,0.1-1.5,0-2.3-0.3c-0.4-0.2-0.7-0.5-1-0.8c-0.2-0.2-0.2-0.5,0-0.7
				c0.3-0.2,0.5-0.5,0.9-0.3c0.4,0.2,0.7,0.4,1,0.6c0.8,0.5,2.3,0.3,3.1-0.1c0.2-0.1,0.3-0.2,0.3-0.4c-0.1-0.2-0.2-0.4-0.4-0.5
				c-0.5-0.2-0.9-0.1-1.4-0.1c-0.4-0.1-0.6-0.3-0.6-0.6c0-0.6,0.1-0.7,0.6-0.7c0.4,0,0.8-0.1,1.2-0.2c0.3-0.1,0.3-0.2,0.2-0.5
				c-0.1-0.3-0.3-0.5-0.6-0.6c-1.1-0.3-2.1-0.1-3,0.6c-0.5,0.4-1.1,0.3-1.4-0.3c-0.1-0.2-0.1-0.4,0.2-0.6c0.7-0.6,1.4-0.9,2.4-1
				c1.2-0.2,2.2,0,3.2,0.5c0.6,0.3,1.1,1.2,0.8,1.8c-0.1,0.2-0.1,0.3-0.2,0.4c-0.2,0.3-0.1,0.5,0.1,0.7c0.4,0.5,0.5,1,0.4,1.6
				c-0.1,0.5-0.9,1.2-1.5,1.3C489.8,942.1,489.2,942.2,488.5,942.1z"/>
		</g>
		<g>
			<path class="st4" d="M548.5,923.2c0.7,0,1.1,0.4,1.5,0.8c0.2,0.3,0.5,0.5,0.7,0.8c0.2,0.2,0.5,0.2,0.8,0c0.5-0.4,0.9-0.9,1.4-1.3
				c0.3-0.2,0.9-0.4,1.2-0.2c0.2,0.1,0.2,0.1,0.1,0.3c-0.1,0.2-0.3,0.4-0.5,0.5c-0.5,0.3-0.8,0.8-1.2,1.2c-0.2,0.2-0.4,0.3-0.6,0.5
				c-0.2,0.2-0.3,0.4-0.3,0.7c0,0.4-0.1,0.8-0.1,1.1c0,0.3-0.2,0.4-0.6,0.4c-0.2,0-0.4-0.3-0.4-0.5c0-0.6,0.1-1.3-0.4-1.8
				c-0.3-0.3-0.7-0.6-1-0.9c-0.4-0.3-0.8-0.7-1.2-1.1c-0.2-0.2-0.1-0.4,0.1-0.5C548.3,923.2,548.4,923.2,548.5,923.2z"/>
			<path class="st4" d="M560.7,927.9c-0.5,0.1-0.8-0.2-1.2-0.5c-0.4-0.4-0.8-0.8-1.3-1.1c-0.2-0.1-0.3-0.1-0.5,0
				c-0.5,0.4-0.9,0.7-1.3,1.2c-0.3,0.3-0.7,0.5-1.1,0.4c-0.1,0-0.1,0-0.2,0c-0.1,0-0.3,0.1-0.3-0.1c-0.1-0.2,0-0.3,0.1-0.4
				c0.2-0.2,0.4-0.3,0.7-0.5c0.5-0.4,0.8-0.8,1.3-1.1c0.2-0.1,0.2-0.3,0.1-0.5c-0.3-0.2-0.5-0.5-0.8-0.7c-0.5-0.3-0.8-0.7-1.3-1.1
				c-0.1-0.1-0.2-0.2-0.1-0.3c0.1-0.1,0.2-0.2,0.3-0.2c0.6,0,1.1,0.1,1.5,0.5c0.4,0.4,0.8,0.7,1.2,1c0.2,0.2,0.7,0,0.9-0.2
				c0.4-0.4,0.8-0.8,1.2-1.1c0.4-0.3,0.8-0.2,1.2-0.1c0.2,0,0.2,0.2,0.1,0.3c-0.2,0.2-0.3,0.4-0.6,0.6c-0.3,0.2-0.6,0.5-0.9,0.7
				c-0.2,0.2-0.3,0.3-0.5,0.4c-0.3,0.2-0.3,0.3,0,0.6c0.5,0.5,1.1,0.8,1.6,1.2c0.2,0.2,0.4,0.3,0.5,0.5c0.1,0.1,0.1,0.1,0.1,0.3
				c0,0.1-0.2,0.1-0.3,0.1H560.7z"/>
			<path class="st4" d="M567.4,923.2c0.3,0.1,0.4,0.3,0.4,0.6c0,0.3-0.2,0.4-0.5,0.4c-1.2,0-2.4,0-3.6,0c-0.3,0-0.4,0.2-0.4,0.5
				c0,0.3,0.1,0.4,0.4,0.4c1,0,2,0.1,3,0.1c0.3,0,0.4,0.1,0.4,0.4c0,0.5-0.1,0.5-0.4,0.5c-0.9,0-1.9,0-2.8,0c-0.4,0-0.6,0.1-0.6,0.5
				c0,0.4,0.2,0.6,0.7,0.5c0.7-0.1,1.5-0.1,2.2,0c0.1,0,0.1,0,0.2,0c0.4-0.2,0.8-0.1,1.2,0c0.3,0.1,0.3,0.2,0.3,0.5
				c0,0.3-0.1,0.4-0.4,0.4c-0.8,0-1.6,0-2.3,0c-0.8,0-1.6,0-2.4,0c-0.3,0-0.4-0.1-0.5-0.4c-0.1-0.5-0.1-0.9,0-1.3
				c0.1-0.4-0.1-0.8-0.1-1.2c0-0.4,0.1-0.8,0-1.2c-0.1-0.3,0.1-0.5,0.5-0.5c0.7,0,1.3,0.1,2-0.1H567.4z"/>
		</g>
		<g>
			<path class="st4" d="M429,947.4c0.1,0.4,0.5,0.7,0.8,1c0.6,0.7,0.8,1.5,0.8,2.4c0,0.4-0.4,0.7-0.9,0.6c-0.5-0.1-0.8-0.4-0.9-0.8
				c-0.5-2.2-2.2-3.3-4-4.2c-0.5-0.3-1.1-0.2-1.6,0.1c-1.7,1.1-1.8,2.5-0.4,4c0.5,0.5,1.1,1,1.6,1.5c0.5,0.4,1.1,0.7,1.7,0.8
				c0.4,0.1,0.7,0.1,1.1,0.3c0.5,0.3,0.7,0.7,0.6,1.2c-0.1,0.5-0.5,0.5-0.9,0.5c-1.9,0.1-3.7-1.7-5-2.8c-1.5-1.3-2.6-3.7-1.1-5.4
				c0.3-0.3,0.6-0.6,0.8-0.9c0.7-1,1.8-1.2,3-1.2c0.5,0,0.9,0.2,1.3,0.5c0.5,0.3,1,0.5,1.5,0.9L429,947.4z"/>
			<path class="st4" d="M443.7,959.9c-0.1,0.2-0.2,0.5-0.4,0.7c-0.3,0.4-0.7,0.6-1.3,0.5c-0.9-0.2-1.8-0.3-2.5-0.8
				c-0.1-0.1-0.2,0-0.3,0c-0.1,0.1-0.1,0.2,0,0.4c0.2,0.8,0.8,1.3,1.3,1.9c0.5,0.5,1.1,0.9,1.7,1.3c0.4,0.3,0.5,0.6,0.2,1
				c-0.2,0.4-0.6,0.5-1,0.2c-1.7-0.9-3.1-2.2-3.9-3.9c-0.2-0.5-0.3-1-0.3-1.5c0-0.6-0.3-0.9-0.8-1.1c-0.5-0.2-0.8,0-1.1,0.5
				c-0.3,0.5-0.6,0.9-0.8,1.4c-0.1,0.4-0.4,0.4-0.7,0.4c-0.6-0.1-1.1-0.8-0.8-1.2c0.6-0.9,0.9-1.9,1.5-2.7c0.3-0.4,0.5-1,0.7-1.4
				c0.4-0.6,0.7-1.3,1.1-1.9c0.2-0.3,0.6-0.3,0.9-0.1c0.5,0.3,1,0.7,1.6,0.9c1.3,0.6,2.5,1.4,3.7,2
				C444.1,957.1,444.5,958.5,443.7,959.9z M439.8,956.7c-0.6-0.3-1.2-0.7-1.9-1c-0.5-0.2-0.8-0.1-1,0.4c-0.2,0.4-0.2,0.7,0.3,1
				c0.5,0.3,1,0.5,1.5,0.9c0.8,0.5,1.7,0.9,2.6,1.3c0.3,0.1,0.7,0.1,0.9-0.2c0.2-0.3,0.2-0.6-0.1-0.9c-0.1-0.2-0.3-0.3-0.5-0.4
				L439.8,956.7z"/>
			<path class="st4" d="M460.1,962.9c0.4,0.3,0.5,0.7,0.3,1.1c-0.2,0.5-0.5,0.6-1.1,0.4c-1.9-0.6-3.9-1.2-5.9-1.7
				c-0.5-0.2-0.8,0-1,0.6c-0.1,0.5-0.1,0.7,0.5,0.9c1.6,0.5,3.2,1.1,4.9,1.5c0.5,0.1,0.6,0.4,0.5,0.8c-0.2,0.7-0.4,0.9-0.9,0.7
				c-1.5-0.4-3.1-0.9-4.6-1.3c-0.7-0.2-1-0.1-1.2,0.5c-0.2,0.6,0.1,1.1,0.9,1.2c1.2,0.2,2.4,0.6,3.6,1c0.1,0,0.2,0.1,0.3,0.1
				c0.7-0.1,1.3,0.2,1.9,0.6c0.5,0.2,0.4,0.5,0.3,0.9c-0.1,0.4-0.4,0.6-0.8,0.5c-1.3-0.3-2.6-0.7-3.8-1.1c-1.3-0.4-2.6-0.8-3.9-1.1
				c-0.5-0.1-0.6-0.4-0.6-0.9c0.1-0.8,0.3-1.5,0.6-2.2c0.3-0.6,0.2-1.4,0.5-2.1c0.3-0.6,0.6-1.3,0.6-2c0.1-0.6,0.4-0.7,1-0.6
				c1.1,0.3,2.2,0.8,3.3,0.8L460.1,962.9z"/>
			<path class="st4" d="M477.1,973c-0.6,0-1-0.3-1.3-0.9c-0.4-0.7-1-1.2-1.9-1.2c-1.2-0.1-2.4-0.1-3.7-0.3c-0.7-0.1-1.2,0.2-1.6,0.7
				c-0.5,0.7-1.1,1.1-2.1,0.9c-0.6-0.1-0.8-0.4-0.4-0.9c0.8-1,1.7-1.8,2.5-2.8c0.8-1.1,1.8-2.1,2.7-3.1c0.1-0.1,0.3-0.3,0.4-0.4
				c0.7-0.6,1.5-0.5,2,0.3c0.3,0.4,0.4,0.8,0.7,1.2c0.4,0.7,0.9,1.4,1.4,2.1c0.9,1.1,1.4,2.4,2.2,3.5
				C478.4,972.8,478,973.1,477.1,973z M472.1,969.2c0.3,0,0.6,0.1,0.9,0c0.6,0,0.8-0.3,0.4-0.8c-0.3-0.4-0.5-0.7-0.7-1.1
				c-0.2-0.4-0.4-0.4-0.7-0.1c-0.3,0.5-0.7,0.9-1.1,1.3c-0.3,0.3-0.2,0.5,0.3,0.6C471.5,969.2,471.8,969.2,472.1,969.2z"/>
			<path class="st4" d="M491,968.2c0.1,0.9,0.3,1.9,0.4,2.8c0.1,0.7-0.2,1-0.9,1.1c-0.3,0-0.6,0-0.6-0.4c0-0.2-0.1-0.3-0.2-0.5
				c-0.1-1.2-0.3-2.4-0.6-3.6c-0.1-0.4-0.1-0.9-0.2-1.3c-0.1-0.4-0.3-0.6-0.8-0.5c-0.9,0.2-1.8,0.1-2.7,0.4
				c-0.4,0.1-0.7,0.1-0.8-0.4c-0.1-0.5,0-1,0.4-1.1c1.5-0.1,3.2-0.5,4.7-0.7c1.3-0.2,2.8-0.3,4.1-0.6c0.3-0.1,0.6,0,0.7,0.3
				c0.1,0.4,0.2,0.8-0.4,1c-0.2,0.1-0.4,0.1-0.6,0.2l-2.1,0.3c-0.7,0.1-0.9,0.3-0.9,1C490.8,967,490.9,967.6,491,968.2L491,968.2z"
				/>
			<path class="st4" d="M503.8,964c0.3,1.5,0.8,2.7,1.2,4c0.1,0.4,0.1,0.8-0.4,1c-0.4,0.2-0.9,0.1-1.2-0.3c-0.1-0.2-0.2-0.4-0.3-0.7
				c-0.3-1.4-0.8-2.7-1.3-4c-0.2-0.6-0.3-1.3-0.5-2c-0.2-0.6,0.5-0.6,0.8-0.8c0.3-0.1,0.6,0.1,0.7,0.4
				C503.2,962.4,503.3,963.3,503.8,964z"/>
			<path class="st4" d="M518.3,963.1c-0.3,0.2-0.7,0.2-1.1,0c-1.9-0.9-3.8-1.7-5.6-2.6c-0.5-0.2-1-0.5-1.5-0.7
				c-0.3-0.2-0.7-0.3-0.6-0.7c0.1-0.4,0.5-0.6,0.8-0.6c0.5-0.1,1.1-0.1,1.5,0.2c1.5,0.8,3.1,1.5,4.7,2.2c0.7,0.3,0.8,0.2,1-0.5
				c0.2-1.2,0.3-2.4,0.5-3.5c0.1-0.6,0.1-1.2,0.2-1.8c0.1-0.7,0.6-1.1,1.2-1.5c0.4-0.2,0.7,0,0.8,0.4c0,0.2,0,0.5-0.1,0.7
				c-0.2,1.6-0.4,3.3-0.7,4.9c-0.1,0.5-0.1,1-0.1,1.5C519.2,962,518.9,962.8,518.3,963.1z"/>
			<path class="st4" d="M531.4,943.9c0.5-0.1,0.8-0.1,1.1,0.4c0.3,0.5,0.2,0.7-0.2,1.1c-1.6,1.3-3.1,2.6-4.7,4
				c-0.4,0.4-0.4,0.7,0,1.1c0.3,0.4,0.6,0.5,1,0.1c1.3-1.1,2.7-2.1,3.9-3.3c0.4-0.4,0.7-0.3,1,0.1c0.5,0.6,0.5,0.8,0.1,1.2
				c-1.2,1.1-2.4,2.1-3.7,3.2c-0.6,0.5-0.6,0.8-0.3,1.2c0.4,0.5,1,0.5,1.4-0.1c0.8-1,1.8-1.7,2.8-2.4c0.1-0.1,0.2-0.1,0.3-0.2
				c0.3-0.7,0.9-1,1.5-1.3c0.5-0.3,0.7-0.1,0.9,0.2c0.3,0.3,0.2,0.7-0.1,0.9c-1,0.9-2,1.8-3,2.6c-1,0.9-2.1,1.7-3.1,2.6
				c-0.4,0.4-0.7,0.3-1.1,0c-0.6-0.5-1.1-1.1-1.5-1.7c-0.4-0.6-1-1-1.5-1.5c-0.4-0.6-0.8-1.2-1.3-1.6c-0.4-0.4-0.4-0.7,0.1-1.2
				c0.8-0.8,1.8-1.4,2.5-2.3L531.4,943.9z"/>
		</g>
	</g>
	<g>
		<g>
			<g>
				<g>
					<path class="st4" d="M700.2,846.5l5.2,6.4l-0.6,15.1l-6-7.5L700.2,846.5z M708.5,856.9l5,6.3l-0.6,15.1l-5-6.3L708.5,856.9z
						 M716.7,867.2l5.1,6.4l-0.6,15.1l-5.1-6.4L716.7,867.2z M725.8,878l5.1,6.4l-0.6,15.1l-5.1-6.4L725.8,878z M734.2,887.8
						l5.1,6.4l-0.6,15.1l-5.1-6.4L734.2,887.8z M735.3,911.7l-14.9-2.7l-5-6.3l14.9,2.7L735.3,911.7z M712.3,898.8l-5.1-6.4
						l14.9,2.7l5.1,6.4L712.3,898.8z M704,888.5l-5.4-6.8l14.9,2.7l5.4,6.8L704,888.5z M695.4,877.7l-5.3-6.6l14.9,2.7l5.3,6.6
						L695.4,877.7z M696.1,862.7l5.7,7.1l-14.9-2.7l-4.9-6.1L696.1,862.7z"/>
					<path class="st4" d="M808.7,860.6l-6,7.5L802,853l5.2-6.4L808.7,860.6z M799.5,872.1l-5,6.3l-0.6-15.1l5-6.3L799.5,872.1z
						 M791.3,882.3l-5.1,6.4l-0.6-15.1l5.1-6.4L791.3,882.3z M783,892.6l-5.4,6.8l-0.6-15.1l5.4-6.8L783,892.6z M777,905.4l14.9-2.7
						l-5,6.3l-14.9,2.7L777,905.4z M780.2,901.5l5.1-6.4l14.9-2.7l-5.1,6.4L780.2,901.5z M788.5,891.1l5.4-6.8l14.9-2.7l-5.4,6.8
						L788.5,891.1z M797.1,880.4l5.3-6.6l14.9-2.7l-5.3,6.6L797.1,880.4z M782.2,914.8c-0.4,0.5-7.6,10.3-16.2,4.4l2.8-3.5l14.9-2.7
						L782.2,914.8z M825.3,861l-4.9,6.1l-14.9,2.7l5.7-7.1L825.3,861z"/>
				</g>
				<g>
					<g>
						<g>
							<path class="st1" d="M735,877.7c-0.2-1-1-1.9-1.9-1.9c-0.8,0-1.4,0.6-1.7,1.3c-0.1,0.1-0.1,0.3-0.1,0.6c0,0,0,0.1,0,0.1
								c0,0,0,0.1,0,0.1c0,0.3,0.1,0.6,0.1,0.9c1.6,6.2,10.7,6.4,16.6,1.1C748.1,879.9,737.3,885.4,735,877.7z"/>
						</g>
					</g>
					<g>
						<path class="st1" d="M773.6,896.9l-0.6-22.5c0-0.2-0.1-0.3-0.1-0.5l-0.7-1.1c-0.1-0.2-0.3-0.3-0.5-0.4l-2.4-1.1l2.5-0.8
							c0,0,0.1-0.1,0.3-0.1c0.7-0.2,1.2-0.8,1.3-1.5l1.5-7c0.1-0.5-0.3-1-0.8-0.9l-5.6-0.4c-0.4,0-0.8,0.1-1.1,0.3c0,0,0,0,0,0
							c-0.3,0.2-0.5,0.4-0.6,0.7l-0.5,0.9c-0.2,0.5-0.2,0.3-0.6,1.2l-2.3,4.4l2.4-7.6l-14.7-0.2c-0.4,0-1.1,0.3-1.5,0.5
							c-0.3,0.1-0.7,0.4-0.9,0.6l-2.4,2c0,0,0,0-0.1,0l-8,0.8c-0.4,0-0.8,0.1-0.8,0.6l-0.3,3.2c0,0,0.4,0,0.5-0.1l4.6-1
							c0,0-0.3,1.4-3.9,2c-3.5,0.6,1,8.5,1.3,8.9c0.1,0.2,0.2,0.6,0.6,0.7l0.5,0.1c0.4,0.1,1.3-0.3,1.7-0.5c1.9-0.9,7.7-3,9.2,1.3
							c1.8,5.1-5.4,6.9-9.2,6c-0.1,0-0.1,0-0.1,0.1l0.3,6.8c0.1,0,0.1,0,0.2,0.1c1-1,7-6.7,12.7-4.5c0,0.1,0,0.1,0,0.1
							c-1.4,0.8-13.4,7.8-14.1,14.4c-0.7,6.7-0.5,17.7-3.8,20.1c-0.1,0.1,0,0.2,0.1,0.2l6.9-3.5l0.9-0.5c0.2-0.1,0.3-0.1,0.5-0.2
							l2.7-8.8l-0.5,7.9c2.3-0.9,4.9-2.1,7.3-3.2l3.1-14.7l0,13c2.2-1.3,4.3-2.8,6.1-4.5l3.4-17.1l0.3,13.1l0.1-0.1l4.8-5.1
							c0.2-0.2,0.3-0.5,0.3-0.9C773.6,897.9,773.6,896.9,773.6,896.9z M756.6,863.4l-1.1,1.3c-0.2,0.2-0.4,0.3-0.6,0.3l-5.5,0
							c-0.4,0-0.6-0.5-0.3-0.7l1.2-1.2c0.2-0.1,0.4-0.2,0.7-0.2l5.2,0C756.7,862.8,756.9,863.2,756.6,863.4z M767.1,868.6l4.2-6
							l1.5,0l-1.3,5.1c-0.1,0.4-0.4,0.6-0.8,0.7L767.1,868.6z"/>
						<polygon class="st1" points="769.1,864.9 771.4,865.4 768.2,866.4 						"/>
						<polygon class="st1" points="768.1,866.6 770.4,867.1 767.2,868.1 						"/>
					</g>
				</g>
			</g>
			<g>
				<g>
					<path class="st4" d="M717.9,937.9c0.2,0.1,0.4,0.3,0.3,0.6c0,0.3-0.2,0.4-0.5,0.4c-1.1,0-2.2,0-3.3,0c-0.3,0-0.4,0.1-0.4,0.5
						c0,0.3,0.1,0.4,0.4,0.4c0.9,0,1.8,0.1,2.7,0c0.3,0,0.4,0.1,0.4,0.4c0,0.4,0,0.5-0.4,0.5c-0.9,0-1.7,0-2.6,0
						c-0.4,0-0.5,0.1-0.5,0.4c0,0.4,0.2,0.6,0.6,0.5c0.7-0.1,1.3-0.1,2,0c0.1,0,0.1,0,0.2,0c0.4-0.2,0.7-0.1,1.1,0
						c0.3,0.1,0.3,0.2,0.3,0.4c0,0.2-0.1,0.4-0.3,0.4c-0.7,0-1.4,0-2.1,0c-0.7,0-1.4,0-2.2,0c-0.3,0-0.4-0.1-0.4-0.4
						c-0.1-0.4-0.1-0.8,0-1.3c0.1-0.4-0.1-0.8-0.1-1.2c0-0.4,0.1-0.8,0-1.2c-0.1-0.3,0.1-0.4,0.4-0.5c0.6,0,1.2,0.1,1.8-0.1H717.9z"
						/>
					<path class="st4" d="M722.1,942.4c-0.8,0-1.4,0-2-0.2c-0.3-0.1-0.6-0.2-0.8-0.5c-0.1-0.2-0.3-0.4-0.1-0.6
						c0.2-0.2,0.5-0.3,0.7-0.2c0.2,0.1,0.4,0.3,0.6,0.4c0.8,0.2,1.5,0.2,2.3,0.1c0.1,0,0.3,0,0.4-0.1c0.1,0,0.3-0.1,0.3-0.2
						c0-0.1-0.1-0.2-0.3-0.3c-0.3-0.1-0.6-0.2-1-0.2c-0.7,0-1.3-0.1-1.9-0.3c-0.4-0.1-0.8-0.3-1-0.7c-0.2-0.5,0-1.1,0.6-1.3
						c0.6-0.3,1.2-0.4,1.9-0.4c0.3,0,0.7,0,1,0c0.4,0,0.7,0.2,1,0.3c0.3,0.1,0.5,0.3,0.6,0.6c0.1,0.1,0,0.2-0.1,0.3
						c-0.1,0.2-0.3,0.3-0.6,0.2c-0.1,0-0.2-0.1-0.4-0.2c-0.7-0.5-1.6-0.5-2.4-0.3c-0.2,0-0.6,0-0.6,0.3c0,0.3,0.3,0.3,0.5,0.4
						c0.6,0.1,1.1,0.1,1.7,0.2c0.5,0,0.9,0.2,1.4,0.4c0.5,0.3,0.6,0.7,0.5,1.2c-0.1,0.5-0.5,0.7-0.8,0.8
						C723.2,942.3,722.6,942.5,722.1,942.4z"/>
					<path class="st4" d="M728.7,940.3c0,0.5,0,1.1,0,1.6c0,0.4-0.2,0.5-0.5,0.5c-0.2,0-0.3-0.1-0.3-0.3c0-0.1,0-0.2,0-0.3
						c0-0.7,0-1.4,0-2.1c0-0.2,0-0.5,0-0.7c0-0.2-0.1-0.3-0.4-0.3c-0.5,0.1-1-0.1-1.5,0c-0.2,0-0.4,0-0.4-0.3c0-0.3,0.1-0.6,0.3-0.6
						c0.8,0.1,1.7,0,2.5,0c0.7,0,1.5,0.1,2.2,0c0.2,0,0.3,0,0.3,0.2c0,0.2,0,0.5-0.3,0.5c-0.1,0-0.2,0-0.3,0h-1.1
						c-0.4,0-0.5,0.1-0.5,0.5C728.6,939.6,728.7,939.9,728.7,940.3L728.7,940.3z"/>
					<path class="st4" d="M732.1,942.5c-0.3,0-0.4-0.2-0.4-0.6c0-0.2,0.2-0.3,0.4-0.3c0.3,0,0.5,0.1,0.5,0.4
						C732.7,942.2,732.4,942.5,732.1,942.5z"/>
					<path class="st4" d="M773.8,942.4c-0.8,0-1.4,0-2-0.2c-0.3-0.1-0.6-0.2-0.8-0.5c-0.1-0.2-0.3-0.4-0.1-0.6
						c0.2-0.2,0.5-0.3,0.7-0.2c0.2,0.1,0.4,0.3,0.6,0.4c0.8,0.2,1.5,0.2,2.3,0.1c0.1,0,0.3,0,0.4-0.1c0.1,0,0.3-0.1,0.3-0.2
						c0-0.1-0.1-0.2-0.3-0.3c-0.3-0.1-0.6-0.2-1-0.2c-0.7,0-1.3-0.1-1.9-0.3c-0.4-0.1-0.8-0.3-1-0.7c-0.2-0.5,0-1.1,0.6-1.3
						c0.6-0.3,1.2-0.4,1.9-0.4c0.3,0,0.7,0,1,0c0.4,0,0.7,0.2,1,0.3c0.3,0.1,0.5,0.3,0.6,0.6c0.1,0.1,0,0.2-0.1,0.3
						c-0.1,0.2-0.3,0.3-0.6,0.2c-0.1,0-0.2-0.1-0.4-0.2c-0.7-0.5-1.6-0.5-2.4-0.3c-0.2,0-0.6,0-0.6,0.3c0,0.3,0.3,0.3,0.5,0.4
						c0.6,0.1,1.1,0.1,1.7,0.2c0.5,0,0.9,0.2,1.4,0.4c0.5,0.3,0.6,0.7,0.5,1.2c-0.1,0.5-0.5,0.7-0.8,0.8
						C775,942.3,774.4,942.5,773.8,942.4z"/>
					<path class="st4" d="M783.3,942.4c-0.3,0-0.5-0.1-0.7-0.4c-0.2-0.4-0.6-0.6-1.1-0.6c-0.7,0-1.3,0-2,0c-0.4,0-0.7,0.1-0.8,0.5
						c-0.2,0.4-0.6,0.7-1.1,0.6c-0.3,0-0.4-0.2-0.3-0.5c0.4-0.6,0.8-1.1,1.2-1.7c0.4-0.6,0.9-1.2,1.3-1.8c0.1-0.1,0.1-0.2,0.2-0.2
						c0.3-0.3,0.8-0.3,1.1,0.1c0.2,0.2,0.3,0.4,0.4,0.6c0.2,0.4,0.5,0.8,0.8,1.1c0.5,0.6,0.8,1.3,1.3,1.9
						C783.9,942.2,783.8,942.4,783.3,942.4z M780.5,940.4c0.2,0,0.3,0,0.5,0c0.3,0,0.4-0.2,0.2-0.5c-0.1-0.2-0.3-0.4-0.4-0.6
						c-0.1-0.2-0.3-0.2-0.4,0c-0.2,0.3-0.3,0.5-0.5,0.7c-0.1,0.2-0.1,0.3,0.2,0.3C780.2,940.4,780.3,940.4,780.5,940.4z"/>
					<path class="st4" d="M787.7,942.4c-0.8,0-1.4,0-2-0.2c-0.3-0.1-0.6-0.2-0.8-0.5c-0.1-0.2-0.3-0.4-0.1-0.6
						c0.2-0.2,0.5-0.3,0.7-0.2c0.2,0.1,0.4,0.3,0.6,0.4c0.8,0.2,1.5,0.2,2.3,0.1c0.1,0,0.3,0,0.4-0.1c0.1,0,0.3-0.1,0.3-0.2
						c0-0.1-0.1-0.2-0.3-0.3c-0.3-0.1-0.6-0.2-1-0.2c-0.7,0-1.3-0.1-1.9-0.3c-0.4-0.1-0.8-0.3-1-0.7c-0.2-0.5,0-1.1,0.6-1.3
						c0.6-0.3,1.2-0.4,1.9-0.4c0.3,0,0.7,0,1,0c0.4,0,0.7,0.2,1,0.3c0.3,0.1,0.5,0.3,0.6,0.6c0.1,0.1,0,0.2-0.1,0.3
						c-0.1,0.2-0.3,0.3-0.6,0.2c-0.1,0-0.2-0.1-0.4-0.2c-0.7-0.5-1.6-0.5-2.4-0.3c-0.2,0-0.6,0-0.6,0.3c0,0.3,0.3,0.3,0.5,0.4
						c0.6,0.1,1.1,0.1,1.7,0.2c0.5,0,0.9,0.2,1.4,0.4c0.5,0.3,0.6,0.7,0.5,1.2c-0.1,0.5-0.5,0.7-0.8,0.8
						C788.8,942.3,788.2,942.5,787.7,942.4z"/>
					<path class="st4" d="M796,942.4c-1-0.1-1.9-0.3-2.7-1c-0.3-0.3-0.6-0.5-0.8-0.8c0-0.1-0.1-0.1-0.2-0.1c-0.1,0-0.2,0.1-0.2,0.3
						c0,0.4,0,0.8,0,1.2c0,0.3-0.1,0.5-0.4,0.5c-0.4,0-0.6-0.3-0.6-0.6c0-0.5,0.1-1.1,0-1.6c0-0.7,0-1.3,0-2c0-0.2,0.1-0.3,0.3-0.3
						c0.4,0,0.6,0.1,0.6,0.4c0,0.2,0,0.5,0,0.7c0,0.3,0.1,0.4,0.4,0.3c0.7-0.3,1.4-0.6,2.1-1c0.4-0.3,0.9-0.3,1.4-0.3
						c0.1,0,0.3,0,0.3,0.2c0,0.1-0.1,0.2-0.2,0.3l-2.2,1.1c0,0,0,0,0,0c-0.6,0.3-0.6,0.6-0.1,1c0.6,0.5,1.3,0.9,2.1,0.9
						c0.2,0,0.4,0.1,0.6,0.2c0.2,0.1,0.2,0.3,0.2,0.4C796.4,942.3,796.3,942.4,796,942.4z"/>
				</g>
				<g>
					<g>
						<g>
							<g>
								<g>
									<polygon class="st0" points="758.3,936.5 756.1,931.8 751.4,931.8 751.4,942.5 754.5,942.5 754.4,934.1 757.3,940.5 
										759.3,940.5 762.1,934.1 762.1,942.5 765.1,942.5 765.1,931.8 760.5,931.8 									"/>
								</g>
								<path class="st0" d="M748.7,932.1c-0.3-0.2-0.6-0.3-1.1-0.3h-8.8v10.7h3.1v-3.6h0v-2.4h0v-2.4h4.2v2.5h-4.7v2.3h6.2
									c0.4,0,0.8-0.1,1.1-0.3c0.3-0.2,0.4-0.5,0.4-0.8v-4.8C749.2,932.6,749,932.3,748.7,932.1z"/>
							</g>
						</g>
					</g>
				</g>
				<g>
					<g>
						<g>
							<g>
								<g>
									<polygon class="st1" points="758.3,936.5 756.1,931.8 751.4,931.8 751.4,942.5 754.5,942.5 754.4,934.1 757.3,940.5 
										759.3,940.5 762.1,934.1 762.1,942.5 765.1,942.5 765.1,931.8 760.5,931.8 									"/>
								</g>
								<path class="st1" d="M748.7,932.1c-0.3-0.2-0.6-0.3-1.1-0.3h-8.8v10.7h3.1v-3.6h0v-2.4h0v-2.4h4.2v2.5h-4.7v2.3h6.2
									c0.4,0,0.8-0.1,1.1-0.3c0.3-0.2,0.4-0.5,0.4-0.8v-4.8C749.2,932.6,749,932.3,748.7,932.1z"/>
							</g>
						</g>
					</g>
				</g>
			</g>
		</g>
		<g>
			<g>
				<polygon class="st4" points="746.3,923.3 751,929.2 755.3,929.2 749.4,921.9 				"/>
				<polygon class="st4" points="738.3,908 688.1,845.3 687.4,849.8 737.4,912.2 				"/>
			</g>
			<polygon class="st4" points="768.1,945.2 768.1,945.6 764.1,945.6 766.4,948.4 775.7,954.8 			"/>
		</g>
		<g>
			<polygon class="st4" points="738.9,945.6 731.6,954.8 740.9,948.4 743.2,945.6 			"/>
			<polygon class="st4" points="756.3,929.2 819.9,849.8 819.2,845.3 752.1,929.2 			"/>
		</g>
	</g>
</g>
<g id="Layer_3" class="st9">
</g>
</svg>
