<?xml version="1.0" encoding="utf-8"?>
<!-- Generator: Adobe Illustrator 26.3.1, SVG Export Plug-In . SVG Version: 6.00 Build 0)  -->
<svg version="1.1" id="Layer_1" xmlns="http://www.w3.org/2000/svg" xmlns:xlink="http://www.w3.org/1999/xlink" x="0px" y="0px"
	 viewBox="0 0 459.7 428" style="enable-background:new 0 0 459.7 428;" xml:space="preserve">
<style type="text/css">
	.st0{fill:#E1251B;}
	.st1{fill:#FFFFFF;}
</style>
<g>
	<path class="st0" d="M172.9,306.9l11.1-19.7l-92.5-55.9L114,219l-12.4-39.4l36.8,6.1l2.6-31l51.2,46.2l-20.5-95.6l33.2,13.9
		l29.6-57.8l30.9,58.1l34.5-15.2l-11.1,56.2c0,0-37.1,17.1-46.2,53c-9.1,35.8,11.1,34.2-25.1,75.9
		C217.6,289.4,200.6,303.7,172.9,306.9"/>
	<path d="M203.2,306.2c0,0,46-15.5,45.3-75.9c0,0-3.9-33.9,42.3-63.6c0,0,11.7-8.1,37.5,19.7c0,0,9.8,8.4,17.3,9.7
		c7.5,1.3,22.8,17.8,22.5,20.7c-0.3,2.9,8.8,5.8-1.6,44.9c0,0-2.6,20.7-2.3,23.6c0.3,2.9-3.6,22.9-6.9,24.2
		c-3.3,1.3,0.7,4.2-24.8,7.4c0,0-9.8,2.9-21.5,23.6c-11.7,20.7-36.8,12.3-36.8,1.3c0,0-15.6-33.6-17.9-32.6c0,0-9.8-8.7-33.9-2.6
		C198.4,312.7,203.2,306.2,203.2,306.2"/>
	<path class="st1" d="M310.3,177c0,0-25.3,29.5-13.9,48.9c0,0,13.9,17.4,19.2,6.9c5.3-10.5,0.4-8.1-4.5-14.6
		c-4.9-6.5-6.9-7.7-1.6-25.5C314.8,175,310.3,177,310.3,177"/>
</g>
</svg>
