<?xml version="1.0" encoding="utf-8"?>
<!-- Generator: Adobe Illustrator 26.0.2, SVG Export Plug-In . SVG Version: 6.00 Build 0)  -->
<svg version="1.1" id="Layer_1" xmlns="http://www.w3.org/2000/svg" xmlns:xlink="http://www.w3.org/1999/xlink" x="0px" y="0px"
	 viewBox="0 0 459.74 428.04" style="enable-background:new 0 0 459.74 428.04;" xml:space="preserve">
<style type="text/css">
	.st0{fill:#33647E;}
</style>
<g>
	<polygon class="st0" points="300,232.09 158.06,91.69 95.07,154.2 160.03,217.74 182.07,196.62 187.25,202.02 159.98,228.16 
		84.4,154.24 158.05,81.15 299.98,221.55 363.06,158.95 301.41,94.45 247.1,146.32 241.93,140.91 301.65,83.87 373.55,159.09 	"/>
	<polygon class="st0" points="298.8,266.85 157.2,126.79 95.18,188.26 159.29,252.87 210.27,202.86 215.52,208.21 159.22,263.43 
		84.59,188.21 157.19,116.25 298.79,256.31 361.86,193.71 300.55,129.99 275.62,153.32 270.5,147.85 300.83,119.48 372.36,193.84 	
		"/>
</g>
<g>
	<g>
		<path class="st0" d="M271.2,265.19C271.2,265.19,271.2,265.19,271.2,265.19l-18.22,0.07l-0.5-6.49c-0.02-0.27-0.19-0.5-0.44-0.61
			c-0.25-0.1-0.54-0.05-0.74,0.13l-11.04,9.77l6.13-17.23c0.09-0.26,0.03-0.54-0.16-0.74c-0.19-0.19-0.47-0.26-0.73-0.18l-7.5,2.45
			l-8.28-20.2c-0.12-0.29-0.4-0.46-0.7-0.44c-0.29-0.02-0.58,0.15-0.7,0.44l-8.28,20.2l-7.5-2.45c-0.26-0.08-0.54-0.01-0.73,0.18
			c-0.19,0.19-0.25,0.48-0.16,0.74l6.13,17.23l-11.04-9.77c-0.2-0.18-0.49-0.23-0.74-0.13c-0.25,0.1-0.42,0.34-0.44,0.61l-0.5,6.49
			l-18.22-0.07c-0.29-0.02-0.55,0.17-0.66,0.44c-0.11,0.27-0.05,0.57,0.15,0.78l12.78,12.78l-5.95,4.3
			c-0.22,0.16-0.33,0.42-0.29,0.68c0.04,0.26,0.22,0.48,0.48,0.57l16.28,5.49l-5.79,16.63c-0.2,0.57-0.05,1.18,0.38,1.6
			c0.29,0.28,0.67,0.43,1.05,0.43c0.19,0,0.37-0.03,0.56-0.11l22.5-8.74l0.02,12.43c0,1.39-0.31,1.51-0.42,1.55l-1.6,0.59
			c-0.37,0.14-0.56,0.55-0.42,0.92c0.11,0.29,0.38,0.46,0.67,0.46c0.08,0,0.17-0.01,0.25-0.04l1.6-0.59
			c1.19-0.44,1.34-1.77,1.34-2.89l-0.02-12.41l22.46,8.72c0.18,0.07,0.37,0.11,0.56,0.11c0.39,0,0.76-0.15,1.05-0.43
			c0.43-0.42,0.58-1.03,0.38-1.6l-5.79-16.63l16.28-5.49c0.25-0.09,0.44-0.3,0.48-0.57c0.04-0.26-0.07-0.53-0.29-0.68l-5.95-4.3
			l12.8-12.71c0.22-0.21,0.26-0.53,0.14-0.79C271.78,265.39,271.52,265.19,271.2,265.19z M257.33,278.76c0,0,0,0.01-0.01,0.01
			c-0.02,0.02-0.05,0.05-0.07,0.08c-0.03,0.04-0.06,0.09-0.08,0.14c0,0.01,0,0.01-0.01,0.02c-0.03,0.08-0.05,0.16-0.05,0.25
			c0,0.01,0,0.01,0,0.02c0,0.09,0.02,0.17,0.05,0.25c0,0.01,0.01,0.01,0.01,0.02c0.03,0.08,0.08,0.15,0.14,0.22c0,0,0,0,0,0.01
			c0,0,0.01,0,0.01,0.01c0.02,0.02,0.05,0.05,0.08,0.07l5.51,3.98l-15.38,5.19c-0.1-0.01-0.2,0-0.3,0.03
			c-0.37,0.13-0.57,0.54-0.44,0.91l6.05,17.37c0.01,0.02,0.02,0.06-0.02,0.11c-0.05,0.04-0.09,0.03-0.11,0.02l-22.98-8.92
			l-0.02-13.53l11.45,10.71c0.14,0.13,0.31,0.19,0.49,0.19c0.19,0,0.38-0.08,0.52-0.23c0.27-0.29,0.25-0.74-0.03-1.01l-11.88-11.11
			l18.71-7.71c0.36-0.15,0.54-0.57,0.39-0.93c-0.15-0.36-0.57-0.54-0.93-0.39l-18.71,7.72l-0.04-27.16c0-0.39-0.32-0.71-0.71-0.71
			c0,0,0,0,0,0c-0.39,0-0.71,0.32-0.71,0.71l0.04,27.18l-18.67-7.7c-0.36-0.15-0.78,0.02-0.93,0.39c-0.15,0.36,0.02,0.78,0.39,0.93
			l18.6,7.67l-11.89,11.12c-0.29,0.27-0.3,0.72-0.03,1.01c0.14,0.15,0.33,0.23,0.52,0.23c0.17,0,0.35-0.06,0.49-0.19l11.53-10.79
			l0.02,13.59l-23.02,8.94c-0.02,0.01-0.06,0.02-0.11-0.02c-0.05-0.04-0.03-0.09-0.02-0.11l6.05-17.37
			c0.13-0.37-0.07-0.78-0.44-0.91c-0.1-0.04-0.2-0.04-0.3-0.03l-15.38-5.19l5.51-3.98c0.03-0.02,0.05-0.04,0.07-0.06
			c0,0,0.01-0.01,0.01-0.01c0,0,0-0.01,0.01-0.01c0.06-0.06,0.11-0.14,0.14-0.22c0-0.01,0.01-0.01,0.01-0.02
			c0.03-0.08,0.05-0.16,0.05-0.25c0-0.01,0-0.01,0-0.02c0-0.08-0.02-0.17-0.05-0.25c0-0.01,0-0.02-0.01-0.02
			c-0.02-0.05-0.05-0.1-0.08-0.14c-0.02-0.03-0.04-0.05-0.06-0.07c0,0-0.01-0.01-0.01-0.01l-12.15-12.15l17.15,0.06c0,0,0,0,0,0
			c0.37,0,0.68-0.29,0.71-0.66l0.44-5.73l11.5,10.18c0.29,0.26,0.74,0.23,1-0.06c0.11-0.12,0.16-0.27,0.17-0.42
			c0.19-0.19,0.26-0.47,0.17-0.74l-6.24-17.55l6.75,2.2c0.36,0.12,0.74-0.06,0.88-0.41l7.91-19.31l7.91,19.31
			c0.14,0.35,0.53,0.52,0.88,0.41l6.75-2.2l-6.24,17.55c-0.1,0.27-0.02,0.55,0.17,0.74c0.01,0.15,0.07,0.3,0.17,0.42
			c0.14,0.16,0.34,0.24,0.53,0.24c0.17,0,0.34-0.06,0.47-0.18l11.5-10.18l0.44,5.73c0.03,0.37,0.34,0.66,0.71,0.66c0,0,0,0,0,0
			l17.24-0.06L257.33,278.76z"/>
		<path class="st0" d="M226.58,316.73c-0.61,0-1.16-0.38-1.37-0.95c-0.14-0.37-0.12-0.77,0.05-1.12c0.16-0.35,0.45-0.62,0.82-0.75
			l1.44-0.54c0.03-0.12,0.08-0.38,0.08-0.9l-0.02-11.33l-21.49,8.34c-0.84,0.32-1.77,0.12-2.4-0.48c-0.64-0.63-0.86-1.54-0.57-2.38
			l5.55-15.91l-15.57-5.25c-0.52-0.18-0.89-0.62-0.98-1.16c-0.08-0.55,0.15-1.09,0.59-1.41l5.24-3.78l-12.16-12.15
			c-0.42-0.42-0.54-1.05-0.31-1.6c0.24-0.57,0.78-0.92,1.4-0.9l17.48,0.06l0.45-5.8c0.04-0.55,0.39-1.03,0.91-1.24
			c0.53-0.21,1.11-0.11,1.52,0.27l8.86,7.84l-5.15-14.5c-0.19-0.52-0.06-1.11,0.33-1.51c0.38-0.39,0.96-0.54,1.49-0.37l6.84,2.23
			l8.02-19.56c0.24-0.58,0.79-0.92,1.44-0.9c0.54,0.03,1.11,0.32,1.35,0.9l8.02,19.56l6.83-2.23c0.54-0.18,1.11-0.03,1.5,0.37
			c0.38,0.39,0.51,0.98,0.33,1.51l-5.15,14.5l8.86-7.85c0.41-0.37,0.99-0.47,1.51-0.26c0.52,0.21,0.87,0.69,0.91,1.25l0.45,5.8
			l17.53-0.06c0.62,0,1.18,0.4,1.38,0.99c0.22,0.51,0.1,1.14-0.33,1.57l-12.18,12.09l5.24,3.78c0.44,0.32,0.67,0.86,0.59,1.41
			c-0.08,0.54-0.46,0.99-0.98,1.16l-15.56,5.25l5.55,15.91c0.29,0.85,0.08,1.76-0.57,2.38c-0.64,0.61-1.56,0.8-2.4,0.49l-21.44-8.32
			l0.01,11.32c0,0.8,0,2.91-1.83,3.59l-1.6,0.6C226.92,316.7,226.75,316.73,226.58,316.73z M210.6,288.26
			c0.15,0.01,0.29,0.03,0.43,0.08c0.37,0.13,0.67,0.39,0.84,0.74c0.17,0.35,0.19,0.75,0.06,1.12l-5.59,16.04l21.23-8.24l-0.02-11.36
			l-10.28,9.61c-0.56,0.52-1.53,0.5-2.06-0.07c-0.55-0.58-0.52-1.51,0.07-2.06l11.04-10.32l-17.53-7.23
			c-0.75-0.31-1.1-1.17-0.79-1.91c0.15-0.36,0.43-0.64,0.79-0.79c0.36-0.15,0.76-0.15,1.12,0l17.64,7.27l-0.04-26.06
			c0-0.39,0.15-0.76,0.43-1.03c0.27-0.28,0.64-0.43,1.03-0.43c0.81,0,1.46,0.66,1.46,1.46l0.04,26.05l17.68-7.29
			c0.35-0.14,0.75-0.15,1.11,0c0.36,0.15,0.65,0.43,0.8,0.8c0.15,0.36,0.15,0.76-0.01,1.12c-0.15,0.36-0.43,0.64-0.79,0.79
			l-17.63,7.27l11.03,10.31c0.58,0.55,0.62,1.47,0.07,2.06c-0.55,0.58-1.52,0.6-2.07,0.07l-10.18-9.52l0.01,11.29l21.19,8.23
			l-5.59-16.04c-0.13-0.37-0.11-0.76,0.06-1.11c0.17-0.35,0.47-0.62,0.84-0.75c0.14-0.05,0.29-0.07,0.44-0.08l13.87-4.68l-4.73-3.57
			c-0.03-0.05-0.06-0.11-0.08-0.16l-0.07-0.2c-0.03-0.11-0.05-0.23-0.05-0.35c0-0.22,0.04-0.4,0.11-0.57l0.19-0.35
			c0-0.01,0.02-0.03,0.04-0.05l0.1-0.11l10.94-10.86l-15.41,0.06c-0.76,0-1.4-0.59-1.46-1.35l-0.33-4.23l-10.37,9.18
			c-0.59,0.52-1.54,0.45-2.06-0.13c-0.16-0.18-0.26-0.38-0.32-0.6c-0.26-0.38-0.33-0.87-0.17-1.31l5.73-16.11l-5.3,1.73
			c-0.71,0.24-1.51-0.13-1.8-0.83l-7.22-17.62l-7.22,17.62c-0.29,0.71-1.09,1.07-1.81,0.83l-5.3-1.73l5.73,16.11
			c0.16,0.44,0.09,0.93-0.17,1.31c-0.06,0.23-0.16,0.43-0.32,0.6c-0.54,0.6-1.46,0.66-2.06,0.13l-10.38-9.18l-0.33,4.23
			c-0.06,0.76-0.7,1.35-1.46,1.35l-15.34-0.06l11,11.02c0.07,0.1,0.12,0.19,0.17,0.3c0.08,0.21,0.12,0.39,0.12,0.56
			c0,0.22-0.04,0.39-0.1,0.55c-0.08,0.19-0.17,0.33-0.28,0.45l-0.25,0.38l-0.15-0.06l-4.15,3L210.6,288.26z M210.45,289.71
			l0.06,0.02l0.01-0.03L210.45,289.71z"/>
	</g>
</g>
</svg>
