<?xml version="1.0" encoding="utf-8"?>
<!-- Generator: Adobe Illustrator 26.0.2, SVG Export Plug-In . SVG Version: 6.00 Build 0)  -->
<svg version="1.1" id="Layer_1" xmlns="http://www.w3.org/2000/svg" xmlns:xlink="http://www.w3.org/1999/xlink" x="0px" y="0px"
	 viewBox="0 0 459.74 428.04" style="enable-background:new 0 0 459.74 428.04;" xml:space="preserve">
<style type="text/css">
	.st0{fill:#686058;}
	.st1{fill:#789904;}
</style>
<path class="st0" d="M244.38,281.05c-5.91,0-10.7-4.79-10.7-10.7v-30.06c0-5.91,4.79-10.7,10.7-10.7s10.7,4.79,10.7,10.7v30.06
	C255.08,276.26,250.29,281.05,244.38,281.05z"/>
<path class="st0" d="M272.45,322.97c-0.32,11.75-5.94,22.39-14.89,27.94l-13.18,8.17l-16.6-10.28
	c-7.12-4.41-11.54-13.05-11.54-22.53v-41.87h56.28v9.02h28.1v-23.07c0-7.76-6.29-14.05-14.05-14.05h-84.37
	c-7.76,0-14.05,6.29-14.05,14.05v55.92c0,19.14,9.52,36.92,24.84,46.42l23.99,14.86c2.27,1.4,4.83,2.11,7.4,2.11
	c2.57,0,5.13-0.7,7.4-2.11l20.58-12.75c17.14-10.62,27.88-30.41,28.22-51.82H272.45z"/>
<path class="st0" d="M300.36,331.89h-30.42c-4.92,0-8.91-3.99-8.91-8.91s3.99-8.91,8.91-8.91h30.42c4.92,0,8.91,3.99,8.91,8.91
	S305.28,331.89,300.36,331.89z"/>
<g>
	<path class="st1" d="M190.71,84.57c-4.45,0-8.13-3.52-8.29-8c-0.16-4.57,3.4-8.41,7.96-8.59c1.43-0.06,34.44-1.93,46.12-35.21
		c1.52-4.32,6.26-6.6,10.58-5.08c4.32,1.52,6.6,6.25,5.08,10.58c-15.5,44.16-59.29,46.23-61.15,46.3
		C190.91,84.57,190.81,84.57,190.71,84.57z"/>
	<path class="st1" d="M190.71,132.37c-4.45,0-8.13-3.52-8.29-8c-0.16-4.57,3.4-8.41,7.97-8.59c1.52-0.07,34.45-1.98,46.11-35.21
		c1.52-4.33,6.26-6.6,10.58-5.08c4.32,1.52,6.6,6.25,5.08,10.58c-15.5,44.16-59.29,46.23-61.15,46.3
		C190.91,132.37,190.81,132.37,190.71,132.37z"/>
	<path class="st1" d="M190.71,180.17c-4.45,0-8.13-3.52-8.29-8c-0.16-4.57,3.4-8.41,7.96-8.59c1.43-0.06,34.44-1.93,46.12-35.21
		c1.52-4.32,6.26-6.59,10.58-5.08c4.32,1.52,6.6,6.25,5.08,10.58c-15.5,44.16-59.29,46.23-61.15,46.3
		C190.91,180.16,190.81,180.17,190.71,180.17z"/>
	<path class="st1" d="M297.96,84.57c-0.1,0-0.2,0-0.3,0c-1.86-0.07-45.65-2.14-61.15-46.3c-1.52-4.32,0.76-9.06,5.08-10.58
		c4.33-1.52,9.06,0.76,10.58,5.08c11.79,33.59,45.75,35.2,46.09,35.21c4.58,0.17,8.16,4.01,8,8.59
		C306.08,81.05,302.4,84.57,297.96,84.57z"/>
	<path class="st1" d="M297.96,132.37c-0.1,0-0.2,0-0.3,0c-1.86-0.07-45.65-2.14-61.15-46.3c-1.52-4.32,0.76-9.06,5.08-10.58
		c4.33-1.52,9.06,0.76,10.58,5.08c11.79,33.59,45.75,35.2,46.09,35.21c4.58,0.17,8.16,4.01,8,8.59
		C306.08,128.85,302.4,132.37,297.96,132.37z"/>
	<path class="st1" d="M297.96,180.17c-0.1,0-0.2,0-0.3,0c-1.86-0.07-45.65-2.14-61.15-46.3c-1.52-4.32,0.76-9.06,5.08-10.58
		c4.33-1.52,9.06,0.76,10.58,5.08c11.79,33.59,45.75,35.2,46.09,35.21c4.58,0.17,8.16,4.01,8,8.59
		C306.08,176.64,302.4,180.17,297.96,180.17z"/>
	<path class="st1" d="M244.33,219.97c-4.58,0-8.3-3.55-8.3-7.93V35.16c0-4.38,3.71-7.93,8.3-7.93c4.58,0,8.3,3.55,8.3,7.93v176.88
		C252.63,216.42,248.91,219.97,244.33,219.97z"/>
</g>
</svg>
