<?xml version="1.0" encoding="utf-8"?>
<!-- Generator: Adobe Illustrator 26.0.2, SVG Export Plug-In . SVG Version: 6.00 Build 0)  -->
<svg version="1.1" id="Layer_1" xmlns="http://www.w3.org/2000/svg" xmlns:xlink="http://www.w3.org/1999/xlink" x="0px" y="0px"
	 viewBox="0 0 459.74 428.04" style="enable-background:new 0 0 459.74 428.04;" xml:space="preserve">
<style type="text/css">
	.st0{fill:#C23B33;}
	.st1{fill:#5F504D;}
</style>
<g>
	<g>
		<g id="XMLID_00000121967419423167229660000005611752016755575440_">
			<path id="XMLID_00000090988539632951051300000004857741353991552658_" class="st0" d="M311.99,179.44l-12.83-20.87
				c-0.35-0.57-1.24-0.57-1.59,0l-13.47,21.82c-0.03,0.05-0.02,0.09-0.04,0.14c-1.42,2.32-2.3,4.98-2.3,7.86
				c0,8.69,7.43,15.73,16.59,15.73c9.16,0,16.59-7.04,16.59-15.73C314.96,185.06,313.85,181.98,311.99,179.44z"/>
		</g>
		<path class="st0" d="M263.91,255.57v-127.8v-25.2c0-2.21-1.93-4.02-4.28-4.02h-10.56c0,0,0,0,0,0H134.73
			c-2.74,0-4.98,2.1-4.98,4.67v26.69c0,2.57,2.24,4.67,4.98,4.67H225v46.53h-66.57c-2.74,0-4.98,2.1-4.98,4.67v26.69
			c0,2.57,2.24,4.67,4.98,4.67H225v38.41c0,41.97,31.43,77.17,73.36,86v-38.12C278.19,295.79,263.91,277.22,263.91,255.57z"/>
	</g>
	<path class="st1" d="M346.37,111.32c-18.36-11.89-40.46-16.89-62.26-14.39v36.98c13.88-2.82,28.38-0.17,40.15,7.46
		c11.31,7.33,18.91,18.36,21.38,31.06c2.48,12.69-0.46,25.53-8.28,36.15c-10.13,13.77-26.97,21.57-44.66,20.82
		c-2.88-0.12-5.77-0.47-8.6-1.04v36.98c2.3,0.26,4.6,0.45,6.91,0.55c1.34,0.05,2.68,0.08,4.02,0.08c29.78,0,57.35-13.51,74.36-36.64
		C397.71,190.84,387.39,137.89,346.37,111.32z"/>
</g>
</svg>
