<?xml version="1.0" encoding="utf-8"?>
<!-- Generator: Adobe Illustrator 26.3.1, SVG Export Plug-In . SVG Version: 6.00 Build 0)  -->
<svg version="1.1" id="Layer_1" xmlns="http://www.w3.org/2000/svg" xmlns:xlink="http://www.w3.org/1999/xlink" x="0px" y="0px"
	 viewBox="0 0 1080 1864.8" style="enable-background:new 0 0 1080 1864.8;" xml:space="preserve">
<style type="text/css">
	.st0{fill:#FFFFFF;}
	.st1{fill:#C23B33;}
	.st2{fill:#5F504D;}
	.st3{clip-path:url(#SVGID_00000090252147502354352260000008492961483021330083_);fill:#FFFFFF;}
	.st4{clip-path:url(#SVGID_00000039849492370762884490000012943377985737285541_);fill:#5F504D;}
</style>
<rect x="-0.2" y="1.2" class="st0" width="1079.6" height="1870.9"/>
<rect x="355.9" y="1521.3" class="st0" width="360" height="349.2"/>
<rect y="1521.3" class="st1" width="355.9" height="349.7"/>
<rect x="711.2" y="1521.3" class="st2" width="368.8" height="349.7"/>
<rect y="830" class="st2" width="1081" height="350.7"/>
<g>
	<g id="XMLID_376_">
		<path id="XMLID_509_" class="st2" d="M170.4,573.1c-4.1,0-8.6-1.1-13.6-3.2c-5-2.1-8.9-5-11.8-8.6v50h-14.8V490.9h11.5l1.6,11.5
			c3.7-4.5,7.6-7.8,11.7-9.9c4.1-2.1,9.2-3.2,15.4-3.2c10.8,0,19.4,4.1,25.8,12.3c6.5,8.2,9.7,18.1,9.7,29.6
			c0,12.3-3.1,22.3-9.3,30.2C190.6,569.2,181.8,573.1,170.4,573.1z M168.8,502.4c-6.5,0-12.2,2.5-17.1,7.6s-7.4,12.1-7.4,21.2
			c0,9.4,2.4,16.6,7.3,21.5c4.9,4.9,10.6,7.3,17.2,7.3c6.9,0,12.4-2.7,16.4-8.2c4.1-5.5,6.1-12.3,6.1-20.5c0-8.4-2-15.3-6.1-20.7
			C181.2,505.1,175.7,502.4,168.8,502.4z"/>
		<path id="XMLID_507_" class="st2" d="M236,571.4h-14.8v-14.1H236V571.4z"/>
		<path id="XMLID_498_" class="st2" d="M322.8,561.6l-2.3,11.5h-1.1c-6.6,0-11.2-0.9-13.9-2.6c-2.7-1.8-5-4.7-6.8-8.9
			c-6.8,7.7-15.1,11.5-24.8,11.5c-7.4,0-13.3-2.2-17.8-6.5c-4.5-4.3-6.7-9.9-6.7-16.6c0-5.4,1.5-10.1,4.5-14.1c3-4,7-7,12-8.9
			s10-3.5,15.2-4.4s10.6-1.5,16.3-1.6c0-7.2-1.4-12.1-4.2-14.7c-2.8-2.6-7.3-3.9-13.5-3.9c-7.1,0-14.2,2.4-21.2,7.2l-2.1-12
			c7.2-5.6,16.3-8.4,27.2-8.4c10.3,0,17.7,2.9,22,8.5c4.3,5.7,6.5,15.7,6.5,30.1v16.6c0,6.4,0.5,10.9,1.6,13.4
			c1.1,2.5,3.6,3.7,7.6,3.7L322.8,561.6L322.8,561.6z M297.3,550.6v-19.4c-11.9,0.4-20.4,2-25.5,4.7c-5.1,2.7-7.7,7.1-7.7,13.2
			c0,8.3,4.2,12.5,12.6,12.5c4,0,7.8-1,11.5-3S294.9,553.9,297.3,550.6z"/>
		<path id="XMLID_467_" class="st2" d="M348.5,571.4h-14.8v-14.1h14.8V571.4z"/>
		<path id="XMLID_433_" class="st1" d="M415.2,504.9H396v66.6h-18.6v-66.6h-12.5l2-15.1h10.5V470c0-6.1,1.7-11.3,5.1-15.5
			s8.2-6.3,14.3-6.3c5.4,0,11.3,0.4,17.9,1.3l-1.8,15.5c-2.4-0.7-5.5-1-9.2-1c-3.3,0-5.4,1-6.3,2.9c-0.9,1.9-1.4,6-1.4,12.2v10.8
			h19.2L415.2,504.9L415.2,504.9z"/>
		<path id="XMLID_429_" class="st1" d="M496.7,557.6l-1.8,15.5h-5.6c-9.2,0-15.6-3.4-18.9-10.3c-5.9,6.9-14.2,10.3-25,10.3
			c-7,0-12.8-2.2-17.3-6.7c-4.5-4.5-6.8-10.4-6.8-17.7c0-5.3,1.6-10,4.8-14c3.2-4,7.3-7,12.4-9c5.1-2,10.1-3.5,15-4.4
			c4.9-0.9,9.8-1.5,14.7-1.6c-0.1-5.7-1.4-9.7-3.9-12c-2.5-2.4-6.4-3.6-11.9-3.6c-6.7,0-14,2.3-22,6.8l-2-15.1
			c9.3-5,19-7.5,29.1-7.5c9.8,0,17.1,2.7,22,8.1c4.9,5.4,7.3,14.3,7.3,26.7v20.3c0,6.1,0.5,10,1.4,11.7c0.9,1.7,3.1,2.5,6.5,2.5
			L496.7,557.6z M468.1,551.1v-18.8c-8.1,0.3-14.7,1.8-19.8,4.3s-7.6,6.3-7.6,11.2c0,7.1,3.8,10.6,11.5,10.6c2.6,0,5.4-0.7,8.4-2
			C463.5,555.2,466,553.4,468.1,551.1z"/>
		<path id="XMLID_427_" class="st1" d="M531.7,573.1c-12.2,0-21.4-2.1-27.8-6.4l1.8-16.4c2.6,2.1,6.3,4,11.1,5.7
			c4.8,1.7,9.5,2.5,14.2,2.5s8.2-0.9,10.4-2.6c2.2-1.8,3.3-4,3.3-6.7c0-2.3-0.9-4.3-2.6-6s-3.5-2.9-5.2-3.6
			c-1.7-0.7-4.2-1.6-7.7-2.5c-3.8-1.1-6.8-2.1-8.8-2.9c-2-0.8-4.4-2.1-7.2-3.8c-2.8-1.7-4.9-3.9-6.2-6.6c-1.3-2.7-2-5.9-2-9.8
			c0-6.9,2.4-12.9,7.2-18c4.8-5.1,12.4-7.6,22.8-7.6c9.9,0,18.1,2,24.5,5.9l-1.8,16.1c-6.1-5.5-13.3-8.2-21.6-8.2
			c-4.2,0-7.6,0.8-10.3,2.3c-2.7,1.5-4,3.9-4,7.2c0,2.5,0.9,4.6,2.8,6.2c1.9,1.6,3.8,2.8,5.8,3.5c2,0.7,5.4,1.6,10.2,2.8
			c15,3.9,22.5,12.2,22.5,24.8c0,3-0.4,5.7-1.2,8.2c-0.8,2.5-2.3,5.1-4.4,7.6c-2.1,2.6-5.4,4.6-9.8,6.1
			C543.4,572.3,538,573.1,531.7,573.1z"/>
		<path id="XMLID_420_" class="st1" d="M620.3,558l-1.6,15.1h-14.1c-7.2,0-12.7-2-16.3-6.1c-3.6-4-5.4-9-5.4-14.8v-47.3h-12.3
			l1.6-15.1h10.7v-18.6l18.6-2v20.5h19.1v15.1h-19.1v38.9c0,6.7,0.7,10.8,2.1,12.1c1.4,1.4,5.3,2.1,11.8,2.1L620.3,558L620.3,558z"
			/>
		<path id="XMLID_415_" class="st1" d="M673.7,573.1c-8.2,0-15.3-2.5-21.2-7.6v45.8H634V489.8h15.8l1.6,6.9
			c6.5-5.6,13.9-8.4,22.3-8.4c12.2,0,21.7,4.1,28.8,12.2c7,8.1,10.5,18.2,10.5,30.1c0,12.2-3.5,22.3-10.4,30.4
			C695.8,569,686.1,573.1,673.7,573.1z M672.3,504c-6.4,0-11.4,2.4-15,7c-3.7,4.7-5.5,11.2-5.5,19.5c0,8.4,1.8,15,5.5,19.7
			c3.7,4.7,8.7,7,15,7c6.6,0,11.8-2.5,15.6-7.5c3.8-5,5.8-11.4,5.8-19.2c0-8-1.9-14.4-5.8-19.2C684,506.5,678.8,504,672.3,504z"/>
		<path id="XMLID_383_" class="st1" d="M773.3,487.9l-3.6,18.2h-6.9c-3.3,0-6.4,0.9-9.5,2.6s-5.2,3.8-6.5,6.2v56.4h-19.4v-81.7h16.9
			l1.1,10.2c7.3-8,15.2-12,23.7-12L773.3,487.9L773.3,487.9z"/>
		<path id="XMLID_381_" class="st1" d="M801.6,571.4H783v-81.7h18.6V571.4z"/>
		<path id="XMLID_379_" class="st1" d="M894,571.4h-18.6v-44.2c0-8-1.4-13.9-4.2-17.6c-2.8-3.7-7.3-5.6-13.6-5.6
			c-7.7,0-13.5,2.7-17.6,8v59.3h-18.6v-81.7h16.8l0.7,6.1c6.3-5,13.3-7.6,20.7-7.6c22.9,0,34.4,13,34.4,39L894,571.4L894,571.4z"/>
		<path id="XMLID_377_" class="st1" d="M954.5,558l-1.6,15.1h-14.1c-7.2,0-12.7-2-16.3-6.1c-3.6-4-5.4-9-5.4-14.8v-47.3h-12.3
			l1.6-15.1H917v-18.6l18.6-2v20.5h19.1v15.1h-19.1v38.9c0,6.7,0.7,10.8,2,12.1s5.3,2.1,11.8,2.1L954.5,558L954.5,558z"/>
	</g>
</g>
<g>
	<g id="XMLID_584_">
		<path id="XMLID_649_" class="st0" d="M312.2,1034.2c-3.4,0-7.2-0.9-11.4-2.7c-4.2-1.8-7.5-4.2-9.9-7.3v42.1h-12.5V965h9.7l1.4,9.7
			c3.1-3.8,6.4-6.6,9.8-8.4s7.8-2.7,13-2.7c9,0,16.3,3.5,21.7,10.4s8.2,15.2,8.2,24.9c0,10.3-2.6,18.8-7.8,25.4
			C329.2,1030.9,321.9,1034.2,312.2,1034.2z M310.9,974.7c-5.4,0-10.2,2.1-14.4,6.4c-4.1,4.2-6.2,10.2-6.2,17.8c0,7.9,2,14,6.2,18
			c4.1,4.1,8.9,6.2,14.5,6.2c5.8,0,10.4-2.3,13.8-6.9c3.4-4.6,5.1-10.4,5.1-17.3c0-7.1-1.7-12.9-5.1-17.4
			C321.3,977,316.7,974.7,310.9,974.7z"/>
		<path id="XMLID_647_" class="st0" d="M367.5,1032.8H355v-11.9h12.5V1032.8z"/>
		<path id="XMLID_644_" class="st0" d="M440.5,1024.5l-1.9,9.7h-1c-5.5,0-9.4-0.7-11.7-2.2s-4.2-4-5.7-7.5
			c-5.7,6.5-12.7,9.7-20.9,9.7c-6.2,0-11.2-1.8-15-5.5c-3.8-3.7-5.7-8.3-5.7-14c0-4.5,1.3-8.5,3.8-11.8s5.9-5.8,10.1-7.5
			c4.2-1.7,8.5-2.9,12.8-3.7s8.9-1.2,13.7-1.3c0-6.1-1.2-10.2-3.5-12.4c-2.4-2.2-6.1-3.2-11.3-3.2c-6,0-11.9,2-17.8,6.1l-1.8-10.1
			c6.1-4.7,13.7-7.1,22.9-7.1c8.7,0,14.9,2.4,18.5,7.2c3.6,4.8,5.5,13.2,5.5,25.3v14c0,5.4,0.5,9.2,1.4,11.3c0.9,2.1,3,3.2,6.4,3.2
			L440.5,1024.5L440.5,1024.5z M419,1015.3v-16.4c-10,0.4-17.2,1.7-21.5,4c-4.3,2.3-6.5,6-6.5,11.1c0,7,3.5,10.5,10.6,10.5
			c3.3,0,6.6-0.8,9.7-2.5C414.4,1020.3,417,1018.1,419,1015.3z"/>
		<path id="XMLID_642_" class="st0" d="M462.1,1032.8h-12.5v-11.9h12.5V1032.8z"/>
		<path id="XMLID_640_" class="st1" d="M518.2,976.8H502v56h-15.6v-56h-10.5l1.7-12.7h8.9v-16.6c0-5.2,1.4-9.5,4.3-13.1
			c2.9-3.5,6.9-5.3,12-5.3c4.5,0,9.5,0.4,15.1,1.1l-1.5,13c-2-0.6-4.6-0.8-7.8-0.8c-2.8,0-4.5,0.8-5.3,2.4c-0.8,1.6-1.2,5-1.2,10.2
			v9h16.2L518.2,976.8L518.2,976.8z"/>
		<path id="XMLID_637_" class="st1" d="M586.9,1021.2l-1.5,13h-4.7c-7.8,0-13.1-2.9-15.9-8.7c-5,5.8-12,8.7-21,8.7
			c-5.9,0-10.8-1.9-14.6-5.6c-3.8-3.8-5.7-8.7-5.7-14.9c0-4.5,1.3-8.4,4-11.8c2.7-3.3,6.2-5.9,10.4-7.6c4.3-1.7,8.5-2.9,12.6-3.7
			c4.1-0.8,8.2-1.2,12.4-1.3c-0.1-4.8-1.2-8.1-3.2-10.1s-5.4-3-10-3c-5.6,0-11.8,1.9-18.5,5.7l-1.7-12.7c7.8-4.2,16-6.3,24.5-6.3
			c8.2,0,14.4,2.3,18.5,6.8c4.1,4.6,6.1,12.1,6.1,22.5v17.1c0,5.1,0.4,8.4,1.2,9.8c0.8,1.4,2.6,2.1,5.5,2.1L586.9,1021.2z
			 M562.8,1015.7v-15.8c-6.8,0.3-12.4,1.5-16.7,3.6s-6.4,5.3-6.4,9.4c0,6,3.2,8.9,9.7,8.9c2.2,0,4.6-0.5,7.1-1.7
			C558.9,1019.2,561,1017.6,562.8,1015.7z"/>
		<path id="XMLID_635_" class="st1" d="M616.3,1034.2c-10.2,0-18-1.8-23.4-5.4l1.5-13.8c2.2,1.8,5.3,3.3,9.3,4.8s8,2.1,12,2.1
			s6.9-0.7,8.7-2.2c1.8-1.5,2.8-3.4,2.8-5.7c0-1.9-0.7-3.6-2.2-5c-1.5-1.4-2.9-2.4-4.4-3s-3.6-1.3-6.4-2.1c-3.2-0.9-5.7-1.7-7.4-2.4
			c-1.7-0.7-3.7-1.8-6.1-3.2c-2.3-1.4-4.1-3.3-5.2-5.5s-1.7-5-1.7-8.2c0-5.8,2-10.9,6.1-15.2c4.1-4.3,10.5-6.4,19.2-6.4
			c8.3,0,15.2,1.7,20.6,5l-1.5,13.6c-5.1-4.6-11.2-6.9-18.2-6.9c-3.5,0-6.4,0.7-8.7,1.9s-3.4,3.3-3.4,6.1c0,2.1,0.8,3.9,2.3,5.3
			c1.6,1.4,3.2,2.3,4.8,2.9c1.7,0.5,4.5,1.3,8.6,2.3c12.6,3.3,19,10.3,19,20.9c0,2.5-0.3,4.8-1,6.9c-0.7,2.1-1.9,4.3-3.7,6.4
			c-1.8,2.2-4.5,3.9-8.3,5.1C626.2,1033.6,621.6,1034.2,616.3,1034.2z"/>
		<path id="XMLID_633_" class="st1" d="M690.9,1021.5l-1.4,12.7h-11.9c-6.1,0-10.7-1.7-13.7-5.1c-3-3.4-4.6-7.6-4.6-12.5v-39.8H649
			l1.4-12.7h9v-15.6l15.6-1.7v17.3h16v12.7h-16v32.8c0,5.6,0.6,9,1.7,10.2c1.2,1.2,4.5,1.7,9.9,1.7H690.9z"/>
		<path id="XMLID_630_" class="st1" d="M735.8,1034.2c-6.9,0-12.9-2.1-17.8-6.4v38.5h-15.6V964.1h13.3l1.4,5.8
			c5.4-4.7,11.7-7.1,18.8-7.1c10.2,0,18.3,3.4,24.2,10.3c5.9,6.9,8.9,15.3,8.9,25.3c0,10.3-2.9,18.8-8.7,25.6
			C754.4,1030.8,746.3,1034.2,735.8,1034.2z M734.6,976.1c-5.3,0-9.6,2-12.7,5.9c-3.1,4-4.6,9.4-4.6,16.4c0,7.1,1.5,12.6,4.6,16.5
			c3.1,4,7.3,5.9,12.7,5.9c5.5,0,9.9-2.1,13.1-6.3c3.2-4.2,4.8-9.6,4.8-16.2c0-6.7-1.6-12.1-4.8-16.2
			C744.5,978.2,740.1,976.1,734.6,976.1z"/>
		<path id="XMLID_628_" class="st1" d="M819.7,962.5l-3,15.4h-5.8c-2.8,0-5.4,0.7-8,2.2c-2.5,1.5-4.4,3.2-5.5,5.3v47.4h-16.3v-68.8
			h14.2l1,8.6c6.2-6.7,12.8-10.1,19.9-10.1H819.7z"/>
		<path id="XMLID_625_" class="st1" d="M843.5,1032.8h-15.6v-68.8h15.6V1032.8z"/>
		<path id="XMLID_623_" class="st1" d="M921.2,1032.8h-15.6v-37.2c0-6.7-1.2-11.7-3.5-14.8c-2.3-3.1-6.2-4.7-11.4-4.7
			c-6.5,0-11.4,2.3-14.8,6.8v49.9h-15.6v-68.8h14.1l0.5,5.1c5.3-4.2,11.2-6.4,17.4-6.4c19.3,0,28.9,10.9,28.9,32.8L921.2,1032.8
			L921.2,1032.8z"/>
		<path id="XMLID_585_" class="st1" d="M972.1,1021.5l-1.4,12.7h-11.9c-6.1,0-10.7-1.7-13.7-5.1c-3-3.4-4.6-7.6-4.6-12.5v-39.8
			h-10.4l1.4-12.7h9v-15.6l15.6-1.7v17.3h16v12.7h-16v32.8c0,5.6,0.6,9,1.7,10.2c1.2,1.2,4.5,1.7,9.9,1.7H972.1z"/>
	</g>
	<g id="XMLID_513_">
		<path id="XMLID_582_" class="st1" d="M164.1,1045.9h-17.3c-1.6,0-2.9-1.3-2.9-2.9V930.7c0-1.6,1.3-2.9,2.9-2.9h17.3
			c1.6,0,2.9,1.3,2.9,2.9V1043C167,1044.6,165.7,1045.9,164.1,1045.9z"/>
		<path id="XMLID_550_" class="st1" d="M197.4,982.2l-8.1-14c-0.2-0.4-0.8-0.4-1,0l-8.5,14.7c0,0,0,0.1,0,0.1
			c-0.9,1.6-1.4,3.3-1.4,5.3c0,5.8,4.7,10.6,10.5,10.6s10.5-4.7,10.5-10.6C199.3,986,198.6,983.9,197.4,982.2z"/>
		<g id="XMLID_514_">
			<g>
				<defs>
					<rect id="SVGID_1_" x="179.8" y="922.6" width="72.7" height="120.5"/>
				</defs>
				<clipPath id="SVGID_00000174585707232498244440000000125349821414975653_">
					<use xlink:href="#SVGID_1_"  style="overflow:visible;"/>
				</clipPath>
				<path id="XMLID_549_" style="clip-path:url(#SVGID_00000174585707232498244440000000125349821414975653_);fill:#FFFFFF;" d="
					M186.7,1040.4c-0.8,0-1.7,0-2.5-0.1c-3.3-0.1-6.6-0.6-9.8-1.3l5.3-24c1.8,0.4,3.7,0.7,5.6,0.7c11.2,0.5,21.8-4.8,28.2-14
					c4.9-7.2,6.8-15.8,5.2-24.3c-1.6-8.5-6.4-16-13.5-20.9c-8-5.5-17.9-7.2-27.2-4.6l-6.6-23.7c16.4-4.5,33.8-1.6,47.7,8
					c25.9,17.9,32.4,53.5,14.6,79.5C222.9,1031.3,205.5,1040.4,186.7,1040.4z"/>
			</g>
		</g>
	</g>
	<path class="st1" d="M167,1033.4v-86h-6.2v-16.5c0-1.7-1.4-3.1-3.1-3.1H85.4c-1.7,0-3.1,1.4-3.1,3.1v18c0,1.7,1.4,3.1,3.1,3.1h57
		v31.3h-42.1c-1.7,0-3.1,1.4-3.1,3.1v18c0,1.7,1.4,3.1,3.1,3.1h42.1v25.9c0,28.3,19.9,51.9,46.4,57.9v-25.7
		C176.1,1060.5,167,1048,167,1033.4z"/>
</g>
<g>
	<path id="XMLID_00000142875967359800203060000015063151621074778547_" class="st1" d="M434.9,1325.1h-17.3v60.8H401v-60.8h-11.2
		l1.8-13.8h9.5v-18c0-5.6,1.5-10.3,4.6-14.2s7.3-5.8,12.9-5.8c4.8,0,10.2,0.4,16.1,1.2l-1.6,14.1c-2.2-0.6-4.9-0.9-8.3-0.9
		c-3,0-4.9,0.9-5.7,2.6c-0.8,1.8-1.3,5.5-1.3,11.1v9.8h17.3L434.9,1325.1L434.9,1325.1z"/>
	<path id="XMLID_00000033337310810797119640000007748071204845603475_" class="st1" d="M508.2,1373.2l-1.6,14.1h-5
		c-8.3,0-14-3.1-17-9.4c-5.3,6.3-12.8,9.4-22.4,9.4c-6.3,0-11.5-2-15.6-6.1c-4.1-4.1-6.1-9.5-6.1-16.2c0-4.9,1.4-9.2,4.3-12.8
		s6.6-6.4,11.1-8.2c4.6-1.8,9.1-3.2,13.4-4c4.4-0.8,8.8-1.3,13.2-1.4c-0.1-5.2-1.2-8.8-3.5-11c-2.2-2.2-5.8-3.3-10.7-3.3
		c-6,0-12.6,2.1-19.8,6.2l-1.8-13.8c8.4-4.6,17.1-6.8,26.1-6.8c8.8,0,15.4,2.5,19.8,7.4c4.4,5,6.5,13.1,6.5,24.4v18.6
		c0,5.6,0.4,9.1,1.3,10.7c0.8,1.5,2.8,2.3,5.8,2.3L508.2,1373.2z M482.5,1367.3v-17.2c-7.3,0.3-13.2,1.6-17.8,4
		c-4.6,2.3-6.9,5.7-6.9,10.2c0,6.5,3.4,9.7,10.3,9.7c2.4,0,4.9-0.6,7.5-1.8C478.3,1371,480.6,1369.4,482.5,1367.3z"/>
	<path id="XMLID_00000005227587908350449610000017740388978288669355_" class="st1" d="M539.6,1387.4c-10.9,0-19.2-1.9-25-5.9
		l1.6-15c2.4,1.9,5.7,3.6,10,5.2c4.3,1.6,8.5,2.3,12.8,2.3s7.3-0.8,9.3-2.4s3-3.7,3-6.2c0-2.1-0.8-3.9-2.4-5.5
		c-1.6-1.6-3.1-2.7-4.7-3.3s-3.8-1.4-6.9-2.3c-3.5-1-6.1-1.9-7.9-2.6s-4-1.9-6.5-3.4c-2.5-1.6-4.3-3.6-5.5-6
		c-1.2-2.4-1.8-5.4-1.8-8.9c0-6.3,2.2-11.8,6.5-16.4c4.3-4.7,11.2-7,20.5-7c8.9,0,16.2,1.8,22,5.4l-1.6,14.7c-5.5-5-12-7.5-19.4-7.5
		c-3.7,0-6.8,0.7-9.2,2.1s-3.6,3.6-3.6,6.6c0,2.3,0.8,4.2,2.5,5.7c1.7,1.5,3.4,2.6,5.2,3.2c1.8,0.6,4.8,1.4,9.2,2.6
		c13.5,3.6,20.2,11.2,20.2,22.7c0,2.7-0.4,5.2-1.1,7.5s-2.1,4.6-4,7s-4.8,4.2-8.8,5.6C550.1,1386.7,545.3,1387.4,539.6,1387.4z"/>
	<path id="XMLID_00000079448768293608168850000004054861717800137873_" class="st1" d="M619.2,1373.6l-1.5,13.8H605
		c-6.5,0-11.4-1.8-14.6-5.6c-3.2-3.7-4.9-8.2-4.9-13.5V1325h-11.1l1.5-13.8h9.6v-17l16.7-1.8v18.8h17.1v13.8h-17.1v35.6
		c0,6.1,0.6,9.8,1.8,11.1c1.2,1.3,4.8,1.9,10.6,1.9L619.2,1373.6L619.2,1373.6z"/>
	<path id="XMLID_00000096742245448081533360000014401773531075093420_" class="st1" d="M667.2,1387.4c-7.4,0-13.7-2.3-19-7v41.8
		h-16.7v-111h14.2l1.5,6.3c5.8-5.1,12.5-7.7,20.1-7.7c10.9,0,19.5,3.7,25.8,11.2c6.3,7.4,9.5,16.6,9.5,27.5
		c0,11.1-3.1,20.4-9.3,27.8S678.3,1387.4,667.2,1387.4z M665.8,1324.3c-5.7,0-10.2,2.2-13.5,6.4c-3.3,4.3-5,10.2-5,17.8
		c0,7.7,1.7,13.7,5,18c3.3,4.3,7.8,6.4,13.5,6.4c5.9,0,10.6-2.3,14-6.8c3.4-4.5,5.2-10.4,5.2-17.6c0-7.3-1.7-13.2-5.2-17.6
		C676.4,1326.5,671.8,1324.3,665.8,1324.3z"/>
	<path id="XMLID_00000016790272846405770900000009168038367479442315_" class="st1" d="M756.7,1309.6l-3.2,16.7h-6.2
		c-3,0-5.8,0.8-8.5,2.4c-2.7,1.6-4.7,3.5-5.8,5.7v51.5h-17.4v-74.6h15.2l1,9.3c6.6-7.3,13.7-11,21.3-11L756.7,1309.6L756.7,1309.6z"
		/>
	<path id="XMLID_00000017496878138266530490000002352659795366930049_" class="st1" d="M782,1385.9h-16.7v-74.6H782V1385.9z"/>
	<path id="XMLID_00000129176647171275074410000007167827723242544556_" class="st1" d="M865,1385.9h-16.7v-40.4
		c0-7.3-1.2-12.7-3.8-16.1c-2.5-3.4-6.6-5.1-12.2-5.1c-6.9,0-12.2,2.4-15.8,7.4v54.2h-16.7v-74.6H815l0.6,5.6
		c5.7-4.6,11.9-6.9,18.6-6.9c20.6,0,30.9,11.9,30.9,35.6V1385.9z"/>
	<path id="XMLID_00000039850723393844247020000007138176775613651872_" class="st1" d="M919.4,1373.6l-1.5,13.8h-12.7
		c-6.5,0-11.4-1.8-14.6-5.6c-3.2-3.7-4.9-8.2-4.9-13.5V1325h-11.1l1.5-13.8h9.6v-17l16.7-1.8v18.8h17.1v13.8h-17.1v35.6
		c0,6.1,0.6,9.8,1.8,11.1c1.2,1.3,4.8,1.9,10.6,1.9L919.4,1373.6L919.4,1373.6z"/>
	<g id="XMLID_00000119103840029807339260000009628114862660157071_">
		<g id="XMLID_00000003070566771245278000000008649048260868194998_">
			<path id="XMLID_00000142887220956571877060000010972695607308267455_" class="st1" d="M300.3,1447.1h-3.1
				c-34.9,0-63.3-28.9-63.3-64.4v-93.4h26.2v93.4c0,20.8,16.6,37.7,37.1,37.7h3.1c8.5,0,16.6-2.9,23.2-8.4l16.5,20.8
				C328.8,1442,314.7,1447.1,300.3,1447.1z"/>
			<path id="XMLID_00000116202740132711330140000009979599738891473055_" class="st1" d="M257.2,1396.2h-18.9
				c-1.6,0-2.9-1.3-2.9-2.9v-122.5c0-1.6,1.3-2.9,2.9-2.9h18.9c1.6,0,2.9,1.3,2.9,2.9v122.5C260.1,1394.9,258.8,1396.2,257.2,1396.2
				z"/>
			<path id="XMLID_00000172415850542808269540000016569462092551697038_" class="st1" d="M253.4,1271.3v19.6c0,1.9-1.5,3.4-3.4,3.4
				h-77c-1.9,0-3.4-1.5-3.4-3.4v-19.6c0-1.9,1.5-3.4,3.4-3.4h77C251.9,1267.9,253.4,1269.4,253.4,1271.3z"/>
			<path id="XMLID_00000165929260717646516970000015400545149984684200_" class="st1" d="M256.8,1331.6v19.6c0,1.9-1.5,3.4-3.4,3.4
				H189c-1.9,0-3.4-1.5-3.4-3.4v-19.6c0-1.9,1.5-3.4,3.4-3.4h64.4C255.3,1328.2,256.8,1329.8,256.8,1331.6z"/>
		</g>
		<path id="XMLID_00000120532611925815388790000001879407793564620448_" class="st1" d="M292.5,1327l-8.6-15.2
			c-0.2-0.4-0.8-0.4-1.1,0l-9.1,15.9c0,0,0,0.1,0,0.1c-1,1.7-1.5,3.6-1.5,5.7c0,6.3,5,11.5,11.2,11.5s11.2-5.2,11.2-11.5
			C294.5,1331.1,293.8,1328.9,292.5,1327z"/>
		<g id="XMLID_00000146484827142432928290000004853112568691094461_">
			<g>
				<defs>
					<rect id="SVGID_00000123442232285838635340000018347245314183832990_" x="273.7" y="1262.3" width="77.6" height="130.8"/>
				</defs>
				<clipPath id="SVGID_00000134243266067829192020000000179043881232228486_">
					<use xlink:href="#SVGID_00000123442232285838635340000018347245314183832990_"  style="overflow:visible;"/>
				</clipPath>
				
					<path id="XMLID_00000142872419507001826630000012612054530542227078_" style="clip-path:url(#SVGID_00000134243266067829192020000000179043881232228486_);fill:#5F504D;" d="
					M281.1,1390.2c-0.9,0-1.8,0-2.7-0.1c-3.5-0.2-7-0.6-10.5-1.4l5.7-26.1c2,0.4,4,0.7,6,0.8c11.9,0.5,23.3-5.2,30.1-15.2
					c5.3-7.8,7.2-17.1,5.6-26.4s-6.8-17.3-14.4-22.7c-8.5-6-19.1-7.8-29-5l-7-25.7c17.5-4.9,36-1.8,51,8.7
					c27.7,19.4,34.6,58.1,15.5,86.2C319.7,1380.3,301.1,1390.2,281.1,1390.2z"/>
			</g>
		</g>
	</g>
	
		<rect id="XMLID_00000087409278427199977980000002857688827007743664_" x="283.3" y="1409.7" class="st0" width="85.7" height="40.3"/>
</g>
<g>
	<g>
		<g id="XMLID_00000063623400479175976370000016976351176975894460_">
			<path id="XMLID_00000011020946129331319090000009605192070208205983_" class="st0" d="M212.9,1667.3l-8.7-15.1
				c-0.2-0.4-0.8-0.4-1.1,0L194,1668c0,0,0,0.1,0,0.1c-1,1.7-1.6,3.6-1.6,5.7c0,6.3,5.1,11.4,11.3,11.4c6.2,0,11.3-5.1,11.3-11.4
				C214.9,1671.4,214.2,1669.2,212.9,1667.3z"/>
		</g>
		<path class="st0" d="M180.2,1722.4v-92.5v-18.2c0-1.6-1.3-2.9-2.9-2.9h-7.2l0,0H92.5c-1.9,0-3.4,1.5-3.4,3.4v19.3
			c0,1.9,1.5,3.4,3.4,3.4h61.3v33.7h-45.2c-1.9,0-3.4,1.5-3.4,3.4v19.3c0,1.9,1.5,3.4,3.4,3.4h45.2v27.8c0,30.4,21.4,55.9,49.8,62.2
			v-27.6C189.9,1751.6,180.2,1738.1,180.2,1722.4z"/>
	</g>
	<path class="st0" d="M236.3,1618c-12.5-8.6-27.5-12.2-42.3-10.4v26.8c9.4-2,19.3-0.1,27.3,5.4c7.7,5.3,12.9,13.3,14.5,22.5
		s-0.3,18.5-5.6,26.2c-6.9,10-18.3,15.6-30.3,15.1c-2-0.1-3.9-0.3-5.8-0.8v26.8c1.6,0.2,3.1,0.3,4.7,0.4c0.9,0,1.8,0.1,2.7,0.1
		c20.2,0,39-9.8,50.5-26.5C271.1,1675.6,264.1,1637.3,236.3,1618z"/>
</g>
<g>
	<g>
		<g id="XMLID_00000049900589099091898380000014033212364069664416_">
			<path id="XMLID_00000166649031009997730340000009001797558588805001_" class="st1" d="M572.9,1667.3l-8.7-15.1
				c-0.2-0.4-0.8-0.4-1.1,0L554,1668c0,0,0,0.1,0,0.1c-1,1.7-1.6,3.6-1.6,5.7c0,6.3,5,11.4,11.3,11.4s11.3-5.1,11.3-11.4
				C574.9,1671.4,574.2,1669.2,572.9,1667.3z"/>
		</g>
		<path class="st1" d="M540.2,1722.4v-92.5v-18.2c0-1.6-1.3-2.9-2.9-2.9h-7.2l0,0h-77.7c-1.9,0-3.4,1.5-3.4,3.4v19.3
			c0,1.9,1.5,3.4,3.4,3.4h61.3v33.7h-45.2c-1.9,0-3.4,1.5-3.4,3.4v19.3c0,1.9,1.5,3.4,3.4,3.4h45.2v27.8c0,30.4,21.3,55.9,49.8,62.2
			v-27.6C550,1751.6,540.2,1738.1,540.2,1722.4z"/>
	</g>
	<path class="st2" d="M596.3,1618c-12.5-8.6-27.5-12.2-42.3-10.4v26.8c9.4-2,19.3-0.1,27.3,5.4c7.7,5.3,12.8,13.3,14.5,22.5
		c1.7,9.2-0.3,18.5-5.6,26.2c-6.9,10-18.3,15.6-30.3,15.1c-2-0.1-3.9-0.3-5.8-0.8v26.8c1.6,0.2,3.1,0.3,4.7,0.4
		c0.9,0,1.8,0.1,2.7,0.1c20.2,0,39-9.8,50.5-26.5C631.1,1675.6,624.1,1637.3,596.3,1618z"/>
</g>
<g>
	<g>
		<g id="XMLID_00000090290601007996006300000016316401508008803988_">
			<path id="XMLID_00000132070030724344322610000013984309355535671713_" class="st1" d="M935.3,1667.3l-8.7-15.1
				c-0.2-0.4-0.8-0.4-1.1,0l-9.2,15.8c0,0,0,0.1,0,0.1c-1,1.7-1.6,3.6-1.6,5.7c0,6.3,5,11.4,11.3,11.4c6.2,0,11.3-5.1,11.3-11.4
				C937.3,1671.4,936.5,1669.2,935.3,1667.3z"/>
		</g>
		<path class="st1" d="M902.6,1722.4v-92.5v-18.2c0-1.6-1.3-2.9-2.9-2.9h-7.2l0,0h-77.7c-1.9,0-3.4,1.5-3.4,3.4v19.3
			c0,1.9,1.5,3.4,3.4,3.4h61.3v33.7H831c-1.9,0-3.4,1.5-3.4,3.4v19.3c0,1.9,1.5,3.4,3.4,3.4h45.2v27.8c0,30.4,21.3,55.9,49.8,62.2
			v-27.6C912.3,1751.6,902.6,1738.1,902.6,1722.4z"/>
	</g>
	<path class="st0" d="M958.6,1618c-12.5-8.6-27.5-12.2-42.3-10.4v26.8c9.4-2,19.3-0.1,27.3,5.4c7.7,5.3,12.8,13.3,14.5,22.5
		c1.7,9.2-0.3,18.5-5.6,26.2c-6.9,10-18.3,15.6-30.3,15.1c-2-0.1-3.9-0.3-5.8-0.8v26.8c1.6,0.2,3.1,0.3,4.7,0.4
		c0.9,0,1.8,0.1,2.7,0.1c20.2,0,39-9.8,50.5-26.5C993.5,1675.6,986.5,1637.3,958.6,1618z"/>
</g>
<g>
	<g>
		<g id="XMLID_00000021101704944533861510000002355539893270674102_">
			<path id="XMLID_00000031169141372081604250000007980007959703697830_" class="st1" d="M567.7,280.4l-9.4-15.3
				c-0.3-0.4-0.9-0.4-1.2,0l-9.9,16c0,0,0,0.1,0,0.1c-1,1.7-1.7,3.6-1.7,5.8c0,6.4,5.4,11.5,12.2,11.5s12.2-5.2,12.2-11.5
				C569.9,284.5,569,282.2,567.7,280.4z"/>
		</g>
		<path class="st1" d="M532.5,336.1v-93.6v-18.4c0-1.6-1.4-2.9-3.1-2.9h-7.7l0,0h-83.7c-2,0-3.6,1.5-3.6,3.4v19.5
			c0,1.9,1.6,3.4,3.6,3.4H504v34.1h-48.7c-2,0-3.6,1.5-3.6,3.4v19.5c0,1.9,1.6,3.4,3.6,3.4H504v28.1c0,30.7,23,56.5,53.7,63v-27.9
			C542.9,365.6,532.5,352,532.5,336.1z"/>
	</g>
	<path class="st2" d="M592.9,230.5c-13.4-8.7-29.6-12.4-45.6-10.5V247c10.2-2.1,20.8-0.1,29.4,5.5c8.3,5.4,13.8,13.4,15.7,22.7
		c1.8,9.3-0.3,18.7-6.1,26.5c-7.4,10.1-19.7,15.8-32.7,15.2c-2.1-0.1-4.2-0.4-6.3-0.8v27.1c1.7,0.2,3.4,0.3,5.1,0.4
		c1,0,2,0.1,2.9,0.1c21.8,0,42-9.9,54.4-26.8C630.5,288.7,622.9,250,592.9,230.5z"/>
</g>
</svg>
