<?xml version="1.0" encoding="utf-8"?>
<!-- Generator: Adobe Illustrator 26.3.1, SVG Export Plug-In . SVG Version: 6.00 Build 0)  -->
<svg version="1.1" id="Layer_1" xmlns="http://www.w3.org/2000/svg" xmlns:xlink="http://www.w3.org/1999/xlink" x="0px" y="0px"
	 viewBox="0 0 1080 1920" style="enable-background:new 0 0 1080 1920;" xml:space="preserve">
<style type="text/css">
	.st0{fill:#FFFFFF;}
	.st1{fill:#638C1C;}
	.st2{fill:#78B293;stroke:#FFFFFF;stroke-width:4;stroke-miterlimit:10;}
	.st3{fill:#FFFFFF;stroke:#FFFFFF;stroke-width:7;stroke-miterlimit:10;}
	.st4{fill:#FFFFFF;stroke:#FFFFFF;stroke-width:2;stroke-miterlimit:10;}
	.st5{fill:#B1C38D;}
	.st6{fill:none;stroke:#638C1C;stroke-miterlimit:10;}
	.st7{fill:#638C1C;stroke:#638C1C;stroke-miterlimit:10;}
	.st8{fill:#51534A;}
</style>
<rect x="-0.2" y="1.2" class="st0" width="1079.6" height="1870.9"/>
<rect y="1178.5" class="st1" width="1080" height="350.7"/>
<g>
	<g>
		<g>
			<g>
				<path class="st2" d="M793.8,1659.9c-27,0-48.8,21.8-48.8,48.8v73.2h73.2c27,0,48.8-21.8,48.8-48.8v-73.2H793.8z"/>
				<path class="st3" d="M818.2,1791.8h-83.1v-83.1c0-32.4,26.3-58.7,58.7-58.7h83.1v83.1C876.9,1765.5,850.6,1791.8,818.2,1791.8z
					 M754.9,1772h63.3c21.4,0,38.9-17.4,38.9-38.9v-63.3h-63.3c-21.4,0-38.9,17.4-38.9,38.9V1772z"/>
			</g>
			<path class="st1" d="M793.8,1659.9c-27,0-48.8,21.8-48.8,48.8v73.2h73.2c27,0,48.8-21.8,48.8-48.8v-73.2H793.8z"/>
			<rect x="803.1" y="1646.2" class="st4" width="5.8" height="148.5"/>
			<rect x="731.8" y="1718" class="st4" width="148.5" height="5.8"/>
		</g>
		<rect x="810" y="1659.9" class="st5" width="57.1" height="56.5"/>
		<rect x="744.6" y="1725.3" class="st5" width="57" height="56.6"/>
		<g>
			<g>
				<g>
					<line class="st6" x1="810.9" y1="1667" x2="866" y2="1667.2"/>
					<polygon class="st7" points="866,1667.5 810.9,1667.4 810.9,1666.7 866,1666.8 					"/>
				</g>
				<g>
					<line class="st6" x1="811" y1="1675.6" x2="866.1" y2="1675.7"/>
					<polygon class="st7" points="866.1,1676.1 811,1676 811,1675.2 866.1,1675.3 					"/>
				</g>
				<g>
					<line class="st6" x1="811.1" y1="1684.2" x2="866.2" y2="1684.3"/>
					<polygon class="st7" points="866.2,1684.7 811.1,1684.6 811.1,1683.8 866.2,1683.9 					"/>
				</g>
				<g>
					<line class="st6" x1="811.2" y1="1692.7" x2="866.3" y2="1692.9"/>
					<polygon class="st7" points="866.3,1693.2 811.2,1693.1 811.2,1692.4 866.3,1692.5 					"/>
				</g>
				<polygon class="st7" points="866.4,1701.1 811.3,1700.9 811.3,1701.7 866.4,1701.8 				"/>
				<g>
					<line class="st6" x1="811.3" y1="1709.9" x2="866.4" y2="1710"/>
					<polygon class="st7" points="866.4,1710.4 811.3,1710.2 811.3,1709.5 866.4,1709.6 					"/>
				</g>
			</g>
		</g>
		<g>
			<g>
				<g>
					<line class="st6" x1="745.2" y1="1732.5" x2="800.3" y2="1732.7"/>
					<polygon class="st7" points="800.3,1733 745.2,1732.9 745.2,1732.2 800.3,1732.3 					"/>
				</g>
				<g>
					<line class="st6" x1="745.3" y1="1740.9" x2="800.5" y2="1741"/>
					<polygon class="st7" points="800.5,1741.4 745.3,1741.3 745.3,1740.5 800.4,1740.7 					"/>
				</g>
				<g>
					<line class="st6" x1="745.5" y1="1749.3" x2="800.6" y2="1749.4"/>
					<polygon class="st7" points="800.6,1749.7 745.5,1749.6 745.4,1748.9 800.5,1749 					"/>
				</g>
				<g>
					<line class="st6" x1="745.6" y1="1757.6" x2="800.7" y2="1757.7"/>
					<polygon class="st7" points="800.7,1758.1 745.6,1758 745.5,1757.3 800.7,1757.4 					"/>
				</g>
				<g>
					<line class="st6" x1="745.7" y1="1766" x2="800.8" y2="1766.1"/>
					<polygon class="st7" points="800.8,1766.5 745.7,1766.3 745.7,1765.6 800.8,1765.7 					"/>
				</g>
				<g>
					<line class="st6" x1="745.8" y1="1774.3" x2="800.9" y2="1774.4"/>
					<polygon class="st7" points="800.9,1774.8 745.8,1774.7 745.8,1774 800.9,1774.1 					"/>
				</g>
			</g>
		</g>
	</g>
	<g>
		<path class="st1" d="M237.5,1654.7c-30.2,0-54.8,24.5-54.8,54.8v82.2h82.2c20.2,0,37.8-10.9,47.3-27.2h-44.7V1680H290v65.7h23.9
			c2.5,0,4.6-1.8,5-4.2c0.5-2.9,0.8-5.9,0.8-9v-77.8H237.5z M263.6,1688.6c0,4.5-3.6,8.1-8.1,8.1h-16.6c-4.5,0-8.1,3.6-8.1,8.1v10.6
			h26.1v14.7h-26.1v36.5h-23V1705c0-13.8,11.1-24.9,24.9-24.9h31L263.6,1688.6L263.6,1688.6z"/>
		<rect x="182.7" y="1774.9" class="st5" width="139.6" height="7.6"/>
		<path class="st5" d="M320.5,1739.3c-5.8,0-10.5,4.7-10.5,10.6v15.8h15.8c5.8,0,10.5-4.7,10.5-10.6v-15.8H320.5z"/>
	</g>
	<g>
		<g>
			<g>
				<g>
					<g>
						<path class="st5" d="M603.4,1699.7l-72.2-47.6c0,0,0,0-0.1,0l-18.1,12l54.9,35.6H603.4z"/>
						<path class="st1" d="M533.4,1647.4C533.5,1647.4,533.5,1647.4,533.4,1647.4l89,58.6l-0.2-11.3l-90-59.6l-0.7-0.5l0,0l0,0
							l-0.7,0.5l-90,59.6l-0.2,11.3l90.6-60.1l1.5,1L533.4,1647.4z"/>
						<g>
							<g>
								<path class="st1" d="M460.6,1672.1c1.2,0.9,2.5,1.6,3.2,1.9l0.1,6.1c0,0.6,0.5,1,1.1,1s1.1-0.5,1-1.1l-0.1-6.1
									c0.7-0.3,2-1,3.2-2c2.6-2.1,3.9-4.8,3.9-7.8c-0.1-6.8-7.4-14.9-7.7-15.2c-0.2-0.2-0.5-0.3-0.8-0.3s-0.6,0.1-0.8,0.4
									c-0.3,0.3-7.3,8.6-7.2,15.5C456.6,1667.5,458,1670.1,460.6,1672.1z"/>
							</g>
						</g>
					</g>
					<g>
						<g>
							<polygon class="st5" points="481.7,1755.2 481.7,1707.1 527.3,1677.1 510.2,1666 458.9,1700 458.9,1755.2 							"/>
						</g>
					</g>
					<rect x="459.5" y="1760.3" class="st1" width="62" height="22.8"/>
				</g>
			</g>
		</g>
		<g>
			<g>
				<rect x="571" y="1710.7" class="st1" width="33" height="31.7"/>
				<g>
					<rect x="571" y="1729.9" class="st5" width="33" height="3.2"/>
					<rect x="571" y="1724.8" class="st5" width="33" height="3.4"/>
					<rect x="571" y="1734.8" class="st5" width="33" height="3.5"/>
					<rect x="571" y="1740" class="st5" width="33" height="3"/>
					<rect x="571" y="1710" class="st5" width="33" height="3"/>
					<rect x="571" y="1719.8" class="st5" width="33" height="3.3"/>
					<rect x="571" y="1714.7" class="st5" width="33" height="3.4"/>
				</g>
			</g>
			<g>
				<rect x="532" y="1749.6" class="st1" width="33" height="31.7"/>
				<g>
					<rect x="532" y="1768.9" class="st5" width="33" height="3.2"/>
					<rect x="532" y="1763.8" class="st5" width="33" height="3.4"/>
					<rect x="532" y="1773.8" class="st5" width="33" height="3.5"/>
					<rect x="532" y="1779" class="st5" width="33" height="3"/>
					<rect x="532" y="1749" class="st5" width="33" height="3"/>
					<rect x="532" y="1758.8" class="st5" width="33" height="3.3"/>
					<rect x="532" y="1753.7" class="st5" width="33" height="3.4"/>
				</g>
			</g>
			<g>
				<g>
					<g>
						<g>
							<path class="st1" d="M571,1749v33h4.2c15.9,0,28.8-12.9,28.8-28.8v-4.2H571z"/>
						</g>
						<g>
							<path class="st1" d="M565,1743v-33h-4.2c-15.9,0-28.8,12.9-28.8,28.8v4.2H565z"/>
						</g>
					</g>
				</g>
			</g>
		</g>
	</g>
</g>
<rect x="-1" y="830" class="st8" width="1082" height="350.7"/>
<g>
	<g>
		<g>
			<g>
				<g>
					<path class="st8" d="M632.2,274l-101.1-66.7c0,0-0.1,0-0.1-0.1l-25.3,16.8l76.9,49.9L632.2,274L632.2,274z"/>
					<path class="st1" d="M534.2,200.8C534.2,200.8,534.2,200.8,534.2,200.8l124.7,82.1l-0.2-15.8l-126.1-83.5l-1-0.7l-0.1,0l-0.1,0
						l-1,0.7l-126.1,83.5l-0.2,15.8l127-84.3l2.1,1.4L534.2,200.8z"/>
					<g>
						<g>
							<path class="st1" d="M432.2,235.4c1.8,1.3,3.5,2.2,4.5,2.6l0.1,8.5c0,0.8,0.7,1.4,1.5,1.4c0.8,0,1.5-0.7,1.5-1.5l-0.1-8.5
								c1-0.5,2.8-1.4,4.5-2.7c3.6-2.9,5.5-6.7,5.4-10.9c-0.1-9.6-10.4-20.9-10.8-21.3c-0.3-0.3-0.7-0.5-1.1-0.5
								c-0.4,0-0.8,0.2-1.1,0.5c-0.4,0.5-10.3,12.1-10.1,21.7C426.5,228.9,428.5,232.6,432.2,235.4z"/>
						</g>
					</g>
				</g>
				<g>
					<g>
						<polygon class="st8" points="461.7,351.8 461.7,284.5 525.6,242.4 501.6,226.9 429.8,274.5 429.8,351.8 						"/>
					</g>
				</g>
				<rect x="430.7" y="359" class="st1" width="86.8" height="31.9"/>
			</g>
		</g>
	</g>
	<g>
		<g>
			<rect x="586.8" y="289.4" class="st1" width="46.2" height="44.4"/>
			<g>
				<rect x="586.8" y="316.4" class="st5" width="46.2" height="4.5"/>
				<rect x="586.8" y="309.3" class="st5" width="46.2" height="4.7"/>
				<rect x="586.8" y="323.3" class="st5" width="46.2" height="4.8"/>
				<rect x="586.8" y="330.6" class="st5" width="46.2" height="4.1"/>
				<rect x="586.8" y="288.5" class="st5" width="46.2" height="4.1"/>
				<rect x="586.8" y="302.3" class="st5" width="46.2" height="4.6"/>
				<rect x="586.8" y="295.1" class="st5" width="46.2" height="4.7"/>
			</g>
		</g>
		<g>
			<rect x="532.2" y="344" class="st1" width="46.2" height="44.4"/>
			<g>
				<rect x="532.2" y="371" class="st5" width="46.2" height="4.5"/>
				<rect x="532.2" y="363.9" class="st5" width="46.2" height="4.7"/>
				<rect x="532.2" y="377.9" class="st5" width="46.2" height="4.8"/>
				<rect x="532.2" y="385.2" class="st5" width="46.2" height="4.1"/>
				<rect x="532.2" y="343.1" class="st5" width="46.2" height="4.1"/>
				<rect x="532.2" y="356.9" class="st5" width="46.2" height="4.6"/>
				<rect x="532.2" y="349.7" class="st5" width="46.2" height="4.7"/>
			</g>
		</g>
		<g>
			<g>
				<g>
					<g>
						<path class="st1" d="M586.8,343.1v46.2h5.9c22.3,0,40.3-18,40.3-40.3v-5.9H586.8z"/>
					</g>
					<g>
						<path class="st1" d="M578.4,334.7v-46.2h-5.9c-22.3,0-40.3,18-40.3,40.3v5.9H578.4z"/>
					</g>
				</g>
			</g>
		</g>
	</g>
	<g>
		<rect x="161" y="581.8" class="st5" width="741" height="6.6"/>
		<g>
			<g>
				<path class="st8" d="M164,434.4h77.5v14.2c0,6.2-5,11.2-11.2,11.2H196v27.2h36.2v25.3H196v42H164L164,434.4L164,434.4z"/>
				<path class="st8" d="M266.4,472.8h29.7v81.6h-29.7V472.8z"/>
				<path class="st8" d="M326.4,464.4h29.2v7.9h0.2c5.9-6.6,14.7-9.9,25.4-9.9c13.6,0,24.5,7.1,24.5,18.7v73.4H376v-65.1
					c0-4.4-1.8-8.4-9.3-8.4c-6.3,0-10.6,4.9-10.6,10.8v62.8h-29.7V464.4z"/>
				<path class="st8" d="M433.8,529.2V491c0-18.4,17.7-28.6,39.4-28.6c22.9,0,36.2,10.6,36.2,26.8v28.3h-46v9.3
					c0,7.9,6.3,11.8,16.3,11.8c8.4,0,17.2-2,23.1-3.5l5.2,15.8c-10,3.5-20.8,5.5-34.4,5.5C450.5,556.3,433.8,547.2,433.8,529.2z
					 M483.1,501.7v-13.6c0-4.5-2.9-8.2-9.7-8.2c-6.8,0-10,3.9-10,8.2v13.6H483.1z"/>
				<path class="st8" d="M582.8,434.4h31.9v96h46v24h-77.9V434.4z"/>
				<path class="st8" d="M686.7,472.8h29.7v81.6h-29.7V472.8z"/>
				<path class="st8" d="M754.7,482.2h-10.9V465h10.9v-11.6c0-13,12-20.4,29.4-20.4c4.8,0,11.5,0.3,16.5,1.4v17.2
					c-2.7-0.5-5-0.7-9.1-0.7c-4.3,0-7.2,2.4-7.2,6.4v7.7h13.1v17.2h-13.1v72.2h-29.7L754.7,482.2L754.7,482.2z"/>
				<path class="st8" d="M823.3,529.2V491c0-18.4,17.7-28.6,39.4-28.6c22.9,0,36.2,10.6,36.2,26.8v28.3h-46v9.3
					c0,7.9,6.3,11.8,16.3,11.8c8.4,0,17.2-2,23.1-3.5l5.2,15.8c-10,3.5-20.8,5.5-34.4,5.5C840,556.3,823.3,547.2,823.3,529.2z
					 M872.7,501.7v-13.6c0-4.5-2.9-8.2-9.7-8.2c-6.8,0-10,3.9-10,8.2v13.6H872.7z"/>
			</g>
		</g>
		<path class="st1" d="M279.8,433.9c-6.2,0-11.2,5-11.2,11.2V462h16.9c6.2,0,11.2-5,11.2-11.2v-16.9H279.8z"/>
		<path class="st1" d="M699.4,433.9c-6.2,0-11.2,5-11.2,11.2V462h16.9c6.2,0,11.2-5,11.2-11.2v-16.9H699.4z"/>
		<g>
			<path class="st1" d="M255.9,618.3h10.3c6.3,0,9.9,2.7,9.9,8.2c0,4-1.8,6.4-4.6,7.4l5,12.6h-7l-4.1-11.5h-2.8v11.5h-6.7V618.3z
				 M265.6,631.3c2.4,0,3.8-1.3,3.8-4.4c0-2.7-1.2-4.4-3.8-4.4h-3v8.8L265.6,631.3L265.6,631.3z"/>
			<path class="st1" d="M312.5,618.3h17.4v4.2h-10.7v7.3h8.5v4.3h-8.5v8.1H330v4.3h-17.4L312.5,618.3L312.5,618.3z"/>
			<path class="st1" d="M364.7,639l6.3-0.2c0.3,1.9,1,4,3.7,4c2.4,0,3.1-1.5,3.1-3c0-1.6-1.4-2.9-3.5-4.5l-3.8-2.9
				c-3.1-2.4-5.3-4.3-5.3-7.5c0-3.8,3.2-7,9.6-7c4.6,0,8.8,1.8,9.1,7.6l-5.9,0.2c-0.3-2.2-1.1-3.8-3.5-3.8c-2,0-3,1.1-3,2.7
				c0,1.5,2,3,3.9,4.3l3.5,2.7c3.5,2.6,5.5,5,5.5,8.1c0,4.1-3.6,7.2-9.7,7.2C368.6,646.8,365.1,643.9,364.7,639z"/>
			<path class="st1" d="M420.3,618.3h6.7v28.2h-6.7V618.3z"/>
			<path class="st1" d="M463.9,618.3h10.5c5.5,0,9.9,2.1,9.9,6.6v14.7c0,4.7-4.4,7-10,7h-10.4L463.9,618.3L463.9,618.3z
				 M473.7,642.2c2.8,0,3.9-1.5,3.9-3v-13.9c0-1.6-1.3-2.8-3.9-2.8h-3.1v19.6L473.7,642.2L473.7,642.2z"/>
			<path class="st1" d="M520.7,618.3h17.4v4.2h-10.7v7.3h8.5v4.3h-8.5v8.1h10.7v4.3h-17.4L520.7,618.3L520.7,618.3z"/>
			<path class="st1" d="M574.3,618.3h6.9l8.4,16.3h0.2v-16.3h6v28.2h-6.1l-9.3-18h-0.1v18h-6V618.3z"/>
			<path class="st1" d="M638.3,622.5h-7.2v-4.2h21v4.2H645v23.9h-6.7V622.5z"/>
			<path class="st1" d="M687.6,618.3h6.7v28.2h-6.7V618.3z"/>
			<path class="st1" d="M737.5,618.2h9.1l7.4,28.2h-6.8l-1.8-6.8h-7.8l-1.7,6.8h-6.2L737.5,618.2z M744.5,635.6l-2.7-11.7h-0.2
				l-2.8,11.7H744.5z"/>
			<path class="st1" d="M789.6,618.3h6.7v23.9H807v4.3h-17.4V618.3z"/>
		</g>
	</g>
</g>
<g>
	<g>
		<rect x="349" y="1094.9" class="st5" width="646.9" height="5.8"/>
		<g>
			<g>
				<path class="st0" d="M351.6,966.1h67.6v12.4c0,5.4-4.4,9.8-9.8,9.8h-29.9v23.8h31.6v22.1h-31.6v36.7h-27.9L351.6,966.1
					L351.6,966.1z"/>
				<path class="st0" d="M441,999.7h25.9v71.2H441V999.7z"/>
				<path class="st0" d="M493.4,992.3h25.5v6.9h0.2c5.1-5.7,12.8-8.7,22.2-8.7c11.9,0,21.4,6.2,21.4,16.3v64.1h-25.9V1014
					c0-3.8-1.6-7.3-8.1-7.3c-5.5,0-9.3,4.3-9.3,9.4v54.8h-25.9L493.4,992.3L493.4,992.3z"/>
				<path class="st0" d="M587.1,1048.9v-33.3c0-16,15.4-25,34.4-25c20,0,31.6,9.3,31.6,23.4v24.7H613v8.1c0,6.9,5.5,10.3,14.2,10.3
					c7.3,0,15-1.8,20.2-3.1l4.5,13.8c-8.7,3.1-18.2,4.8-30,4.8C601.8,1072.5,587.1,1064.6,587.1,1048.9z M630.2,1024.9V1013
					c0-4-2.6-7.2-8.5-7.2s-8.7,3.4-8.7,7.2v11.9H630.2z"/>
				<path class="st0" d="M717.2,966.1h27.9v83.8h40.1v20.9h-68V966.1z"/>
				<path class="st0" d="M808,999.7h25.9v71.2H808V999.7z"/>
				<path class="st0" d="M867.3,1007.9h-9.5v-15h9.5v-10.1c0-11.3,10.5-17.8,25.7-17.8c4.2,0,10.1,0.3,14.4,1.2v15
					c-2.4-0.4-4.3-0.6-7.9-0.6c-3.8,0-6.3,2.1-6.3,5.6v6.8h11.5v15h-11.5v63h-25.9L867.3,1007.9L867.3,1007.9z"/>
				<path class="st0" d="M927.2,1048.9v-33.3c0-16,15.4-25,34.4-25c20,0,31.6,9.3,31.6,23.4v24.7h-40.1v8.1
					c0,6.9,5.5,10.3,14.2,10.3c7.3,0,15-1.8,20.2-3.1l4.5,13.8c-8.7,3.1-18.2,4.8-30,4.8C941.8,1072.5,927.2,1064.6,927.2,1048.9z
					 M970.3,1024.9V1013c0-4-2.6-7.2-8.5-7.2s-8.7,3.4-8.7,7.2v11.9H970.3z"/>
			</g>
		</g>
		<path class="st5" d="M452.7,965.7c-5.4,0-9.8,4.4-9.8,9.8v14.7h14.7c5.4,0,9.8-4.4,9.8-9.8v-14.7H452.7z"/>
		<path class="st5" d="M819.1,965.7c-5.4,0-9.8,4.4-9.8,9.8v14.7H824c5.4,0,9.8-4.4,9.8-9.8v-14.7H819.1z"/>
	</g>
	<g>
		<g>
			<g>
				<g>
					<g>
						<path class="st5" d="M290.9,978.7l-92.7-61.1c0,0-0.1,0-0.1,0L174.9,933l70.5,45.7H290.9z"/>
						<path class="st1" d="M201,911.6C201,911.6,201,911.6,201,911.6l114.3,75.3l-0.2-14.5l-115.6-76.5l-0.9-0.7l-0.1,0l-0.1,0
							l-0.9,0.7L81.9,972.4l-0.2,14.5l116.4-77.3l1.9,1.3L201,911.6z"/>
						<g>
							<g>
								<path class="st1" d="M107.5,943.4c1.6,1.2,3.2,2,4.2,2.4l0.1,7.8c0,0.7,0.6,1.3,1.4,1.3s1.4-0.6,1.3-1.3l-0.1-7.8
									c0.9-0.4,2.5-1.2,4.1-2.5c3.3-2.7,5.1-6.2,5-10c-0.1-8.8-9.5-19.1-9.9-19.6c-0.3-0.3-0.6-0.5-1-0.5c-0.4,0-0.8,0.2-1,0.5
									c-0.4,0.5-9.4,11.1-9.3,19.9C102.2,937.4,104.1,940.8,107.5,943.4z"/>
							</g>
						</g>
					</g>
					<g>
						<g>
							<polygon class="st5" points="134.6,1050 134.6,988.3 193.1,949.8 171.1,935.5 105.3,979.2 105.3,1050 							"/>
						</g>
					</g>
					<rect x="106.1" y="1056.7" class="st1" width="79.6" height="29.3"/>
				</g>
			</g>
		</g>
		<g>
			<g>
				<rect x="249.2" y="992.9" class="st1" width="42.3" height="40.7"/>
				<g>
					<rect x="249.2" y="1017.6" class="st5" width="42.3" height="4.1"/>
					<rect x="249.2" y="1011" class="st5" width="42.3" height="4.3"/>
					<rect x="249.2" y="1023.9" class="st5" width="42.3" height="4.4"/>
					<rect x="249.2" y="1030.6" class="st5" width="42.3" height="3.8"/>
					<rect x="249.2" y="992" class="st5" width="42.3" height="3.8"/>
					<rect x="249.2" y="1004.6" class="st5" width="42.3" height="4.2"/>
					<rect x="249.2" y="998.1" class="st5" width="42.3" height="4.3"/>
				</g>
			</g>
			<g>
				<rect x="199.2" y="1042.9" class="st1" width="42.3" height="40.7"/>
				<g>
					<rect x="199.2" y="1067.7" class="st5" width="42.3" height="4.1"/>
					<rect x="199.2" y="1061.1" class="st5" width="42.3" height="4.3"/>
					<rect x="199.2" y="1074" class="st5" width="42.3" height="4.4"/>
					<rect x="199.2" y="1080.6" class="st5" width="42.3" height="3.8"/>
					<rect x="199.2" y="1042.1" class="st5" width="42.3" height="3.8"/>
					<rect x="199.2" y="1054.7" class="st5" width="42.3" height="4.2"/>
					<rect x="199.2" y="1048.1" class="st5" width="42.3" height="4.3"/>
				</g>
			</g>
			<g>
				<g>
					<g>
						<g>
							<path class="st1" d="M249.2,1042.1v42.3h5.4c20.4,0,37-16.5,37-36.9v-5.4L249.2,1042.1z"/>
						</g>
						<g>
							<path class="st1" d="M241.6,1034.4V992h-5.4c-20.4,0-36.9,16.5-36.9,36.9v5.4L241.6,1034.4z"/>
						</g>
					</g>
				</g>
			</g>
		</g>
	</g>
</g>
<g>
	<g>
		<rect x="349" y="1432" class="st5" width="646.9" height="5.8"/>
		<g>
			<g>
				<path class="st0" d="M351.6,1303.3h67.6v12.4c0,5.4-4.4,9.8-9.8,9.8h-29.9v23.8h31.6v22.1h-31.6v36.7h-27.9L351.6,1303.3
					L351.6,1303.3z"/>
				<path class="st0" d="M441,1336.8h25.9v71.2H441V1336.8z"/>
				<path class="st0" d="M493.4,1329.4h25.5v6.9h0.2c5.1-5.7,12.8-8.7,22.2-8.7c11.9,0,21.4,6.2,21.4,16.3v64.1h-25.9v-56.9
					c0-3.8-1.6-7.3-8.1-7.3c-5.5,0-9.3,4.3-9.3,9.4v54.8h-25.9L493.4,1329.4L493.4,1329.4z"/>
				<path class="st0" d="M587.1,1386v-33.3c0-16,15.4-25,34.4-25c20,0,31.6,9.3,31.6,23.4v24.7H613v8.1c0,6.9,5.5,10.3,14.2,10.3
					c7.3,0,15-1.8,20.2-3.1l4.5,13.8c-8.7,3.1-18.2,4.8-30,4.8C601.8,1409.7,587.1,1401.7,587.1,1386z M630.2,1362.1v-11.9
					c0-4-2.6-7.2-8.5-7.2s-8.7,3.4-8.7,7.2v11.9H630.2z"/>
				<path class="st0" d="M717.2,1303.3h27.9v83.8h40.1v20.9h-68V1303.3z"/>
				<path class="st0" d="M808,1336.8h25.9v71.2H808V1336.8z"/>
				<path class="st0" d="M867.3,1345h-9.5v-15h9.5v-10.1c0-11.3,10.5-17.8,25.7-17.8c4.2,0,10.1,0.3,14.4,1.2v15
					c-2.4-0.4-4.3-0.6-7.9-0.6c-3.8,0-6.3,2.1-6.3,5.6v6.8h11.5v15h-11.5v63h-25.9L867.3,1345L867.3,1345z"/>
				<path class="st0" d="M927.2,1386v-33.3c0-16,15.4-25,34.4-25c20,0,31.6,9.3,31.6,23.4v24.7h-40.1v8.1c0,6.9,5.5,10.3,14.2,10.3
					c7.3,0,15-1.8,20.2-3.1l4.5,13.8c-8.7,3.1-18.2,4.8-30,4.8C941.8,1409.7,927.2,1401.7,927.2,1386z M970.3,1362.1v-11.9
					c0-4-2.6-7.2-8.5-7.2s-8.7,3.4-8.7,7.2v11.9H970.3z"/>
			</g>
		</g>
		<path class="st5" d="M452.7,1302.9c-5.4,0-9.8,4.4-9.8,9.8v14.7h14.7c5.4,0,9.8-4.4,9.8-9.8v-14.7H452.7z"/>
		<path class="st5" d="M819.1,1302.9c-5.4,0-9.8,4.4-9.8,9.8v14.7H824c5.4,0,9.8-4.4,9.8-9.8v-14.7H819.1z"/>
	</g>
	<g>
		<g>
			<g>
				<g>
					<g>
						<path class="st5" d="M290.9,1315.9l-92.7-61.1c0,0-0.1,0-0.1,0l-23.2,15.4l70.5,45.7L290.9,1315.9L290.9,1315.9z"/>
						<path class="st0" d="M201,1248.8C201,1248.8,201,1248.7,201,1248.8l114.3,75.3l-0.2-14.5L199.5,1233l-0.9-0.7l-0.1,0l-0.1,0
							l-0.9,0.7l-115.6,76.6l-0.2,14.5l116.4-77.3l1.9,1.3L201,1248.8z"/>
						<g>
							<g>
								<path class="st0" d="M107.5,1280.5c1.6,1.2,3.2,2,4.2,2.4l0.1,7.8c0,0.7,0.6,1.3,1.4,1.3c0.8,0,1.4-0.6,1.3-1.3l-0.1-7.8
									c0.9-0.4,2.5-1.2,4.1-2.5c3.3-2.7,5.1-6.2,5-10c-0.1-8.8-9.5-19.1-9.9-19.6c-0.3-0.3-0.6-0.4-1-0.4c-0.4,0-0.8,0.2-1,0.5
									c-0.4,0.4-9.4,11.1-9.3,19.9C102.2,1274.5,104.1,1277.9,107.5,1280.5z"/>
							</g>
						</g>
					</g>
					<g>
						<g>
							<polygon class="st5" points="134.6,1387.2 134.6,1325.4 193.1,1286.9 171.1,1272.6 105.3,1316.3 105.3,1387.2 							"/>
						</g>
					</g>
					<rect x="106.1" y="1393.8" class="st0" width="79.6" height="29.3"/>
				</g>
			</g>
		</g>
		<g>
			<g>
				<rect x="249.2" y="1330" class="st1" width="42.3" height="40.7"/>
				<g>
					<rect x="249.2" y="1354.7" class="st5" width="42.3" height="4.1"/>
					<rect x="249.2" y="1348.2" class="st5" width="42.3" height="4.3"/>
					<rect x="249.2" y="1361.1" class="st5" width="42.3" height="4.4"/>
					<rect x="249.2" y="1367.7" class="st5" width="42.3" height="3.8"/>
					<rect x="249.2" y="1329.2" class="st5" width="42.3" height="3.8"/>
					<rect x="249.2" y="1341.8" class="st5" width="42.3" height="4.2"/>
					<rect x="249.2" y="1335.2" class="st5" width="42.3" height="4.3"/>
				</g>
			</g>
			<g>
				<rect x="199.2" y="1380.1" class="st1" width="42.3" height="40.7"/>
				<g>
					<rect x="199.2" y="1404.8" class="st5" width="42.3" height="4.1"/>
					<rect x="199.2" y="1398.2" class="st5" width="42.3" height="4.3"/>
					<rect x="199.2" y="1411.1" class="st5" width="42.3" height="4.4"/>
					<rect x="199.2" y="1417.8" class="st5" width="42.3" height="3.8"/>
					<rect x="199.2" y="1379.2" class="st5" width="42.3" height="3.8"/>
					<rect x="199.2" y="1391.8" class="st5" width="42.3" height="4.2"/>
					<rect x="199.2" y="1385.2" class="st5" width="42.3" height="4.3"/>
				</g>
			</g>
			<g>
				<g>
					<g>
						<g>
							<path class="st0" d="M249.2,1379.2v42.3h5.4c20.4,0,37-16.5,37-36.9v-5.4L249.2,1379.2z"/>
						</g>
						<g>
							<path class="st0" d="M241.6,1371.5v-42.3h-5.4c-20.4,0-36.9,16.5-36.9,36.9v5.4L241.6,1371.5z"/>
						</g>
					</g>
				</g>
			</g>
		</g>
	</g>
</g>
</svg>
