<?xml version="1.0" encoding="utf-8"?>
<!-- Generator: Adobe Illustrator 26.0.2, SVG Export Plug-In . SVG Version: 6.00 Build 0)  -->
<svg version="1.1" id="Layer_1" xmlns="http://www.w3.org/2000/svg" xmlns:xlink="http://www.w3.org/1999/xlink" x="0px" y="0px"
	 viewBox="0 0 459.74 428.04" style="enable-background:new 0 0 459.74 428.04;" xml:space="preserve">
<style type="text/css">
	.st0{fill:#51534A;}
	.st1{fill:#638C1C;}
	.st2{fill:#B1C38D;}
</style>
<g>
	<g>
		<g>
			<g>
				<g>
					<path class="st0" d="M358.15,187.78L247.9,115.1c-0.03-0.02-0.07-0.03-0.1-0.05l-27.62,18.34l83.88,54.39H358.15z"/>
					<path class="st1" d="M251.27,107.98c0.01-0.02,0.04-0.04,0.05-0.06l135.86,89.56l-0.24-17.24L249.43,89.22l-1.08-0.8
						l-0.07,0.04l-0.07-0.04l-1.07,0.8l-137.51,91.03l-0.24,17.24l138.4-91.89l2.29,1.51L251.27,107.98z"/>
					<g>
						<g>
							<path class="st1" d="M140.05,145.71c1.91,1.45,3.8,2.36,4.95,2.84l0.14,9.25c0.01,0.87,0.75,1.57,1.65,1.56
								c0.9-0.01,1.61-0.73,1.6-1.61l-0.14-9.25c1.13-0.51,3-1.48,4.86-2.99c3.95-3.2,6-7.31,5.93-11.87
								c-0.16-10.42-11.29-22.75-11.76-23.27c-0.31-0.34-0.77-0.54-1.24-0.53c-0.47,0.01-0.92,0.21-1.22,0.57
								c-0.46,0.53-11.21,13.2-11.05,23.61C133.83,138.59,136.01,142.63,140.05,145.71z"/>
						</g>
					</g>
				</g>
				<g>
					<g>
						<polygon class="st0" points="172.25,272.55 172.25,199.17 241.92,153.35 215.71,136.36 137.42,188.33 137.42,272.55 						"/>
					</g>
				</g>
				<rect x="138.39" y="280.43" class="st1" width="94.66" height="34.82"/>
			</g>
		</g>
	</g>
	<g>
		<g>
			<rect x="308.63" y="204.58" class="st1" width="50.36" height="48.39"/>
			<g>
				<rect x="308.63" y="234" class="st2" width="50.36" height="4.86"/>
				<rect x="308.63" y="226.21" class="st2" width="50.36" height="5.14"/>
				<rect x="308.63" y="241.5" class="st2" width="50.36" height="5.28"/>
				<rect x="308.63" y="249.43" class="st2" width="50.36" height="4.52"/>
				<rect x="308.63" y="203.6" class="st2" width="50.36" height="4.52"/>
				<rect x="308.63" y="218.56" class="st2" width="50.36" height="5"/>
				<rect x="308.63" y="210.77" class="st2" width="50.36" height="5.14"/>
			</g>
		</g>
		<g>
			<rect x="249.13" y="264.09" class="st1" width="50.36" height="48.39"/>
			<g>
				<rect x="249.13" y="293.51" class="st2" width="50.36" height="4.86"/>
				<rect x="249.13" y="285.72" class="st2" width="50.36" height="5.14"/>
				<rect x="249.13" y="301.01" class="st2" width="50.36" height="5.28"/>
				<rect x="249.13" y="308.95" class="st2" width="50.36" height="4.52"/>
				<rect x="249.13" y="263.11" class="st2" width="50.36" height="4.52"/>
				<rect x="249.13" y="278.07" class="st2" width="50.36" height="5"/>
				<rect x="249.13" y="270.28" class="st2" width="50.36" height="5.14"/>
			</g>
		</g>
		<g>
			<g>
				<g>
					<g>
						<path class="st1" d="M308.63,263.11v50.36h6.41c24.27,0,43.94-19.67,43.94-43.94v-6.41L308.63,263.11z"/>
					</g>
					<g>
						<path class="st1" d="M299.49,253.96V203.6h-6.41c-24.27,0-43.94,19.67-43.94,43.94v6.41L299.49,253.96z"/>
					</g>
				</g>
			</g>
		</g>
	</g>
</g>
</svg>
