<svg xmlns="http://www.w3.org/2000/svg" xmlns:xlink="http://www.w3.org/1999/xlink" width="323.366" height="247.202" viewBox="0 0 323.366 247.202">
  <defs>
    <clipPath id="clip-path">
      <rect id="Rectangle_67" data-name="Rectangle 67" width="323.366" height="247.202" fill="none"/>
    </clipPath>
    <clipPath id="clip-path-2">
      <rect id="Rectangle_66" data-name="Rectangle 66" width="323.365" height="247.201" fill="none"/>
    </clipPath>
    <clipPath id="clip-path-3">
      <rect id="Rectangle_65" data-name="Rectangle 65" width="323.366" height="216.752" fill="none"/>
    </clipPath>
  </defs>
  <g id="Group_59" data-name="Group 59" clip-path="url(#clip-path)">
    <g id="Group_58" data-name="Group 58" transform="translate(0 0.001)">
      <g id="Group_57" data-name="Group 57" clip-path="url(#clip-path-2)">
        <g id="Group_56" data-name="Group 56" transform="translate(0 2.838)" style="mix-blend-mode: multiply;isolation: isolate">
          <g id="Group_55" data-name="Group 55">
            <g id="Group_54" data-name="Group 54" clip-path="url(#clip-path-3)">
              <path id="Path_359" data-name="Path 359" d="M40.861.876,52.508,15.425,51.094,49.583,37.508,32.613ZM59.667,24.364,71.028,38.556,69.611,72.715,58.25,58.523ZM78.184,47.5,89.675,61.846,88.258,96.008,76.767,81.654Zm20.56,24.513,11.491,14.354-1.417,34.159L97.327,106.17ZM117.722,94.15,129.213,108.5,127.8,142.663l-11.488-14.351Zm2.555,53.892L86.721,141.96,75.363,127.771l33.552,6.08ZM68.2,118.828,56.716,104.477l33.552,6.08,11.491,14.351ZM49.557,95.535,37.3,80.218,70.85,86.3l12.263,15.314ZM30.138,71.278l-12-15L51.69,62.365l12,14.993ZM31.672,37.36,44.531,53.422l-33.552-6.08L0,33.631Z" transform="translate(0 -0.875)" fill="#c8c5c5"/>
              <path id="Path_360" data-name="Path 360" d="M154.778,32.613,141.193,49.58l-1.417-34.159L151.422.876Zm-20.742,25.91L122.675,72.715l-1.417-34.162L132.62,24.361ZM115.516,81.654,104.028,96.008l-1.417-34.162L114.1,47.492ZM96.869,104.948l-12.26,15.317L83.192,86.1,95.455,70.786Zm-13.5,28.9,33.556-6.08L105.562,141.96l-33.552,6.08Zm7.159-8.939,11.488-14.351,33.556-6.083-11.491,14.354Zm18.647-23.293L121.433,86.3l33.556-6.08L142.726,95.535Zm19.419-24.256,12-15,33.552-6.08-12,15ZM95.1,155.03c-.791,1.1-17.23,23.206-36.642,9.938l6.394-7.986L98.406,150.9Zm97.185-121.4L181.308,47.343l-33.556,6.08L160.611,37.36Z" transform="translate(131.082 -0.875)" fill="#c8c5c5"/>
              <path id="Path_361" data-name="Path 361" d="M42.61,25.475c-.422-2.182-2.3-4.251-4.312-4.2a4.083,4.083,0,0,0-3.726,3,3.623,3.623,0,0,0-.208,1.287c0,.081-.039.152-.039.237,0,.049.049.117.055.169a10.181,10.181,0,0,0,.334,2.065c3.661,13.913,24.166,14.425,37.43,2.549,0,0-24.451,12.3-29.535-5.107" transform="translate(76.973 44.861)" fill="#989392"/>
              <path id="Path_362" data-name="Path 362" d="M121.016,93.066l-1.252-50.8a2.005,2.005,0,0,0-.327-1.047l-1.573-2.377a2.813,2.813,0,0,0-1.177-1.005l-5.376-2.445,5.59-1.851a6.9,6.9,0,0,1,.739-.285,4.621,4.621,0,0,0,2.98-3.456l3.288-15.885a1.719,1.719,0,0,0-1.783-2.069l-12.6-.82a4.185,4.185,0,0,0-2.529.739l-.029.019A4.067,4.067,0,0,0,105.6,13.4l-1.057,2.1c-.519,1.154-.34.642-1.287,2.724l-5.178,9.951,5.4-17.263L70.3,10.488A13.518,13.518,0,0,0,66.816,11.6a12.352,12.352,0,0,0-1.984,1.271l-5.376,4.419-.133.055L41.214,19.226c-.96-.032-1.9.324-1.916,1.352L38.6,27.9a2.108,2.108,0,0,0,1.083-.123l10.479-2.192s-.655,3.051-8.9,4.51c-7.957,1.407,2.335,19.2,2.85,20.19.182.35.545,1.355,1.242,1.667l1.164.3c.976.282,2.87-.743,3.8-1.161,4.283-1.923,17.409-6.884,20.787,2.866C75.11,65.538,59.011,69.5,50.357,67.59a.211.211,0,0,0-.256.22l.616,15.259.373.149C53.431,80.874,66.962,68.1,79.8,72.95c.013.123.013.149.026.276-3.058,1.731-30.278,17.551-31.8,32.518C46.483,120.817,47,145.6,39.365,151.215a.21.21,0,0,0,.185.37l15.557-7.853,1.968-1.158c.353-.117.788-.3,1.154-.425l6.193-19.792-1.07,17.888c5.246-2.075,11.092-4.666,16.52-7.172l7.1-33.118.1,29.409a73.762,73.762,0,0,0,13.832-10.12l7.659-38.53.6,29.629.22-.269,10.946-11.549a2.857,2.857,0,0,0,.733-1.952c-.023-1.362-.062-3.473-.052-3.508M82.58,17.488l-2.461,2.86a1.987,1.987,0,0,1-1.391.59l-12.435-.084a.874.874,0,0,1-.639-1.56l2.808-2.766a2.737,2.737,0,0,1,1.576-.545l11.806.026a.876.876,0,0,1,.736,1.479M106.143,29.2l9.565-13.6,3.369.013L116.12,27.135a2.407,2.407,0,0,1-1.706,1.66Z" transform="translate(85.769 20.679)" fill="#989392"/>
              <path id="Path_363" data-name="Path 363" d="M62.025,13.7l5.12,1.08-7.159,2.237Z" transform="translate(134.512 27.875)" fill="#c8c5c5"/>
              <path id="Path_364" data-name="Path 364" d="M61.319,14.874l5.12,1.08L59.28,18.191Z" transform="translate(132.93 30.514)" fill="#c8c5c5"/>
              <path id="Path_365" data-name="Path 365" d="M32.459,64.479a1.162,1.162,0,0,1,.749,1.274c-.094.71-.357.918-1.106.9-2.451-.036-4.925-.036-7.4-.036-.655,0-.9.334-.918,1.028,0,.6.169.937.879.956,2.062.094,4.121.169,6.2.11.636-.016.843.243.824.863-.016.973-.11,1.18-.843,1.18-1.945.019-3.894,0-5.84.019-.882,0-1.18.243-1.2.973-.039.8.506,1.255,1.385,1.106a16.568,16.568,0,0,1,4.513,0,1.052,1.052,0,0,0,.412.016,3.478,3.478,0,0,1,2.416,0c.619.133.674.49.674,1a.768.768,0,0,1-.788.859c-1.589.075-3.2.075-4.792.075-1.628.019-3.259-.094-4.886-.016-.639.036-.862-.243-1-.846a7.693,7.693,0,0,1,0-2.844c.133-.9-.2-1.78-.149-2.678a10.416,10.416,0,0,0,.075-2.659c-.13-.713.263-1.012,1.012-1.051a17.55,17.55,0,0,0,4.1-.224Z" transform="translate(48.416 141.749)" fill="#c8c5c5"/>
              <path id="Path_366" data-name="Path 366" d="M32.594,74.685a16.17,16.17,0,0,1-4.607-.412,3.8,3.8,0,0,1-1.819-1.086c-.337-.373-.632-.859-.185-1.4a1.422,1.422,0,0,1,1.686-.376c.486.227.8.678,1.329.843a10.9,10.9,0,0,0,5.149.208,7.828,7.828,0,0,0,.957-.149c.279-.075.652-.149.652-.506.023-.337-.282-.525-.577-.6a11.46,11.46,0,0,0-2.215-.506,17.248,17.248,0,0,1-4.38-.749,2.806,2.806,0,0,1-2.172-1.611,2.432,2.432,0,0,1,1.274-3.015,8.354,8.354,0,0,1,4.309-.84c.768.055,1.514.016,2.263.094a9.188,9.188,0,0,1,2.286.73,2.416,2.416,0,0,1,1.349,1.29.624.624,0,0,1-.133.752c-.337.389-.71.691-1.252.5a3.893,3.893,0,0,1-.807-.373,6.845,6.845,0,0,0-5.373-.768c-.49.075-1.278.036-1.278.768,0,.655.73.768,1.222.824,1.271.188,2.565.337,3.852.431a7.387,7.387,0,0,1,3.109.953,2.347,2.347,0,0,1-.71,4.364c-1.388.392-2.75.973-3.93.636" transform="translate(57.755 141.711)" fill="#c8c5c5"/>
              <path id="Path_367" data-name="Path 367" d="M37.393,69.767c0,1.216.019,2.435,0,3.651-.019.937-.357,1.219-1.219,1.18-.412,0-.655-.149-.691-.58-.019-.208-.113-.412-.113-.6.039-1.553.019-3.106-.094-4.643-.036-.541.058-1.086-.019-1.631-.075-.486-.318-.768-.84-.71-1.086.113-2.192-.188-3.278,0-.451.075-.843-.019-.882-.6-.075-.71.188-1.31.713-1.271,1.835.149,3.858-.023,5.71-.023,1.631,0,3.411.113,5.039,0,.392-.036.768.058.785.545.039.525.058,1.031-.6,1.235a1.979,1.979,0,0,1-.733.113H38.609c-.862,0-1.161.259-1.2,1.122-.039.752,0,1.482,0,2.211Z" transform="translate(67.82 141.872)" fill="#c8c5c5"/>
              <path id="Path_368" data-name="Path 368" d="M35.468,69.1c-.6-.019-.937-.486-.843-1.368.055-.541.47-.71,1.012-.671.71.036,1.067.337,1.067.953A1.323,1.323,0,0,1,35.468,69.1" transform="translate(77.608 147.535)" fill="#c8c5c5"/>
              <path id="Path_369" data-name="Path 369" d="M68.651,74.685a16.147,16.147,0,0,1-4.6-.412,3.812,3.812,0,0,1-1.819-1.086c-.337-.373-.636-.859-.185-1.4a1.417,1.417,0,0,1,1.683-.376c.49.227.807.678,1.329.843a10.914,10.914,0,0,0,5.152.208,7.493,7.493,0,0,0,.953-.149c.282-.075.655-.149.655-.506.019-.337-.282-.525-.58-.6a11.507,11.507,0,0,0-2.208-.506,17.272,17.272,0,0,1-4.384-.749,2.8,2.8,0,0,1-2.172-1.611,2.432,2.432,0,0,1,1.274-3.015,8.342,8.342,0,0,1,4.306-.84c.768.055,1.517.016,2.266.094a9.275,9.275,0,0,1,2.286.73,2.416,2.416,0,0,1,1.349,1.29.628.628,0,0,1-.133.752c-.337.389-.71.691-1.255.5a3.866,3.866,0,0,1-.8-.373,6.851,6.851,0,0,0-5.376-.768c-.486.075-1.271.036-1.271.768,0,.655.73.768,1.216.824,1.274.188,2.565.337,3.855.431a7.4,7.4,0,0,1,3.109.953,2.347,2.347,0,0,1-.71,4.364c-1.385.392-2.753.973-3.933.636" transform="translate(138.613 141.711)" fill="#c8c5c5"/>
              <path id="Path_370" data-name="Path 370" d="M79.916,74.591a1.575,1.575,0,0,1-1.631-.976A2.476,2.476,0,0,0,75.87,72.23c-1.479.039-2.96.058-4.439-.016a1.929,1.929,0,0,0-1.91,1.047,2.3,2.3,0,0,1-2.416,1.329c-.768-.094-1.012-.431-.616-1.067.824-1.329,1.89-2.49,2.753-3.784.934-1.423,1.945-2.772,2.938-4.137a6.5,6.5,0,0,1,.431-.545,1.541,1.541,0,0,1,2.474.169,13.847,13.847,0,0,1,.9,1.462,20.389,20.389,0,0,0,1.835,2.51c1.122,1.329,1.91,2.883,3,4.248.561.733.224,1.145-.9,1.145m-6.349-4.4a7.409,7.409,0,0,0,1.1-.019c.768-.094.921-.412.451-1.031a9.927,9.927,0,0,1-.973-1.346c-.243-.49-.58-.525-.862-.039a17.219,17.219,0,0,1-1.18,1.686c-.279.412-.149.691.357.749.357.036.73,0,1.106,0" transform="translate(148.677 141.825)" fill="#c8c5c5"/>
              <path id="Path_371" data-name="Path 371" d="M78.271,74.685a16.147,16.147,0,0,1-4.6-.412,3.812,3.812,0,0,1-1.819-1.086c-.337-.373-.636-.859-.185-1.4a1.417,1.417,0,0,1,1.683-.376c.49.227.807.678,1.329.843a10.914,10.914,0,0,0,5.152.208,7.494,7.494,0,0,0,.953-.149c.282-.075.655-.149.655-.506.019-.337-.282-.525-.58-.6a11.506,11.506,0,0,0-2.208-.506,17.272,17.272,0,0,1-4.384-.749,2.8,2.8,0,0,1-2.172-1.611,2.432,2.432,0,0,1,1.274-3.015,8.342,8.342,0,0,1,4.306-.84c.768.055,1.517.016,2.266.094a9.275,9.275,0,0,1,2.286.73,2.416,2.416,0,0,1,1.349,1.29.628.628,0,0,1-.133.752c-.337.389-.71.691-1.255.5a3.867,3.867,0,0,1-.8-.373A6.851,6.851,0,0,0,76,66.709c-.486.075-1.271.036-1.271.768,0,.655.73.768,1.216.824,1.274.188,2.565.337,3.855.431a7.4,7.4,0,0,1,3.109.953,2.347,2.347,0,0,1-.71,4.364c-1.384.392-2.753.973-3.933.636" transform="translate(160.185 141.711)" fill="#c8c5c5"/>
              <path id="Path_372" data-name="Path 372" d="M87.12,74.63a10.6,10.6,0,0,1-6.2-2.283,7.217,7.217,0,0,1-1.871-1.894.407.407,0,0,0-.525-.208.558.558,0,0,0-.373.584c0,.934,0,1.855-.023,2.769-.016.584-.165,1.07-.9,1.18-.84.113-1.31-.71-1.31-1.385,0-1.219.152-2.4.094-3.635a45.384,45.384,0,0,1,.058-4.549.718.718,0,0,1,.691-.73c.937-.019,1.313.2,1.365.824.039.525,0,1.051.023,1.592.016.785.185.953.879.6a38.641,38.641,0,0,0,4.643-2.341,5.757,5.757,0,0,1,3.11-.674c.243-.019.655.039.691.412.039.337-.2.541-.5.674l-5.019,2.526c-.019,0-.036.019-.075.019-1.4.694-1.462,1.313-.227,2.286a8.429,8.429,0,0,0,4.682,2.095,4.492,4.492,0,0,1,1.368.434c.451.185.467.616.376,1.008a.821.821,0,0,1-.957.694" transform="translate(170.246 141.747)" fill="#c8c5c5"/>
              <path id="Path_373" data-name="Path 373" d="M63.788,70.815,58.869,60.255H48.305V84.475H55.15L55.082,65.52,61.6,79.962H65.98L72.494,65.52V84.475H79.27V60.255H68.706Z" transform="translate(108.32 132.276)" fill="#989392"/>
              <path id="Path_374" data-name="Path 374" d="M61.826,61a3.87,3.87,0,0,0-2.393-.749H39.564V84.476h6.913V76.321h0v-5.5h0V65.462h9.5v5.545H45.423v5.155h14.01a3.87,3.87,0,0,0,2.393-.749,2.237,2.237,0,0,0,1-1.855V62.807a2.2,2.2,0,0,0-1-1.8" transform="translate(88.719 132.277)" fill="#989392"/>
              <path id="Path_375" data-name="Path 375" d="M63.788,70.815,58.869,60.255H48.305V84.475H55.15L55.082,65.52,61.6,79.962H65.98L72.494,65.52V84.475H79.27V60.255H68.706Z" transform="translate(108.32 132.276)" fill="#989392"/>
              <path id="Path_376" data-name="Path 376" d="M61.826,61a3.87,3.87,0,0,0-2.393-.749H39.564V84.476h6.913V76.321h0v-5.5h0V65.462h9.5v5.545H45.423v5.155h14.01a3.87,3.87,0,0,0,2.393-.749,2.237,2.237,0,0,0,1-1.855V62.807a2.2,2.2,0,0,0-1-1.8" transform="translate(88.719 132.277)" fill="#989392"/>
            </g>
          </g>
        </g>
      </g>
    </g>
    <path id="Path_377" data-name="Path 377" d="M44.755,56.618,55.293,69.782H64.93L51.788,53.366Z" transform="translate(100.36 119.668)" fill="#c8c5c5"/>
    <path id="Path_378" data-name="Path 378" d="M5.226,0,3.747,10.188,116.531,151.074l2.111-9.4Z" transform="translate(8.402 0.001)" fill="#c8c5c5"/>
    <path id="Path_379" data-name="Path 379" d="M66.148,70.382H57.14l5.12,6.4L83.388,91.137,66.148,69.6Z" transform="translate(128.132 156.066)" fill="#c8c5c5"/>
    <path id="Path_380" data-name="Path 380" d="M51.108,69.839,34.494,90.594,55.622,76.24l5.123-6.4Z" transform="translate(77.35 156.608)" fill="#c8c5c5"/>
    <path id="Path_381" data-name="Path 381" d="M200.416,0,48.753,189.451h9.636L201.895,10.188Z" transform="translate(109.324 0.001)" fill="#c8c5c5"/>
  </g>
</svg>
