<?xml version="1.0" encoding="utf-8"?>
<!-- Generator: Adobe Illustrator 26.3.1, SVG Export Plug-In . SVG Version: 6.00 Build 0)  -->
<svg version="1.1" id="Layer_1" xmlns="http://www.w3.org/2000/svg" xmlns:xlink="http://www.w3.org/1999/xlink" x="0px" y="0px"
	 viewBox="0 0 1080 1920" style="enable-background:new 0 0 1080 1920;" xml:space="preserve">
<style type="text/css">
	.st0{fill:#FFFFFF;}
	.st1{fill:#B6CC6E;}
	.st2{fill:#B1955F;}
	.st3{fill:#456633;}
	.st4{fill:none;stroke:#699152;stroke-linecap:round;stroke-miterlimit:10;}
	.st5{clip-path:url(#SVGID_00000136412941639279121430000006640037998446720949_);}
	.st6{fill:#699152;}
	.st7{fill:#AAC27F;}
	.st8{clip-path:url(#SVGID_00000068657082137588811540000002926552362135875713_);}
	.st9{clip-path:url(#SVGID_00000160155076144280576770000003442310247913745597_);}
	.st10{clip-path:url(#SVGID_00000013156244626546647750000007248741181890239873_);}
	.st11{clip-path:url(#SVGID_00000096761097624095890900000005000488843282107268_);}
</style>
<rect x="-0.2" y="1.2" class="st0" width="1079.6" height="1870.9"/>
<rect x="542.9" y="1173.8" class="st1" width="536.1" height="408.5"/>
<rect y="1173.8" class="st2" width="542.6" height="408.5"/>
<rect x="-1" y="830" class="st3" width="1082" height="350.7"/>
<g>
	<circle id="XMLID_00000019653195778363023880000011999589595113354417_" class="st3" cx="268.9" cy="1378.1" r="141.3"/>
	
		<ellipse id="XMLID_00000170966027506935919060000010470411507232920240_" transform="matrix(3.327795e-02 -0.9994 0.9994 3.327795e-02 -1117.3362 1601.0013)" class="st0" cx="268.9" cy="1378.1" rx="77.3" ry="77.3"/>
	<path id="XMLID_00000178920070596403934950000004402280574604119196_" class="st1" d="M268.9,1513.2
		c-74.5,0-135.1-60.6-135.1-135.2s60.6-135.2,135.1-135.2s135.2,60.6,135.2,135.2C404.1,1452.6,343.5,1513.2,268.9,1513.2z
		 M268.9,1251.5c-69.8,0-126.6,56.8-126.6,126.6s56.8,126.6,126.6,126.6s126.6-56.8,126.6-126.6S338.8,1251.5,268.9,1251.5z"/>
	<path id="XMLID_00000115511425310028968500000005646038395186249403_" class="st1" d="M268.9,1457.8c-43.9,0-79.7-35.7-79.7-79.7
		c0-43.9,35.7-79.7,79.7-79.7s79.7,35.7,79.7,79.7C348.6,1422,312.9,1457.8,268.9,1457.8z M268.9,1306.9
		c-39.2,0-71.1,31.9-71.1,71.1s31.9,71.1,71.1,71.1s71.1-31.9,71.1-71.1C340.1,1338.8,308.2,1306.9,268.9,1306.9z"/>
	<g id="XMLID_00000156565359257698021130000000762621211609139884_">
		<g>
			<path id="XMLID_00000099625874588950848810000006439779997864191924_" class="st0" d="M164.3,1343.1c-4-1-5.6-0.1-6.6,4
				c-0.9,3.4-0.8,5.9,0.1,7.4c1,1.6,4,3.7,8.2,4.7c7,1.8,12.1-0.9,13.7-7c1.1-4.2,0-4.8-3.1-5.6c-2.7-0.7-3.9,0.1-4.7,3.4
				c0,0.1-0.1,0.4-0.3,0.8l-1.7-1l2.8-10.8l1.7,1c-0.6,2.2,0.4,2.5,3.4,3.3l4.9,1.3c0.4,2.8,0.2,5.8-0.5,8.7
				c-2.2,8.3-8.7,12.1-16.8,9.9c-4.8-1.3-8.1-4-9.8-8c-1.5-3.5-1.2-7,0-11.5c0.4-1.7,1-3.4,1.7-5c1,0.3,2.4,0.7,4.2,1.1
				c0.3,0.1,1.3,0.3,2.9,0.7L164.3,1343.1z"/>
			<path id="XMLID_00000144297203329118529610000005921210469413394350_" class="st0" d="M201,1316.9l-3,4.3
				c-6.9-1.1-11.4-1.9-13.6-1.8c-1.2,0.1-2.2,0.8-3.2,2.1l5.9,4.1c2.9,2,4.2,1.8,6.8-1.4l1.1,1.4l-6.5,9.3l-1.1-1.4l0.2-0.2
				c1.3-1.9,0-3-3.9-5.7l-7.3-5.1c-5.1-3.6-6.7-4.6-8.9-1.8l-1.1-1.4c3.1-4.7,5-7.6,5.6-8.4c3.1-4.5,6.6-5.4,10.3-2.9
				c2.8,1.9,3.5,5.2,1.9,8.8c1.7-1.4,4.2-1.1,7.9-0.5c4.4,0.6,6.5,1.2,8.1-0.8L201,1316.9z M179.3,1320.2c0.6-0.7,1-1.3,1.2-1.6
				c2.1-3.1,1.9-5.5-0.7-7.3c-2.4-1.6-4.8-1.1-6.6,1.6c-1.3,1.9-0.7,2.6,1.5,4.1l1.2,0.8L179.3,1320.2z"/>
			<path id="XMLID_00000096018789176229525290000002868270630392423871_" class="st0" d="M209.3,1283.3l-1.5,1.8
				c-2.2-2.7-4.1-2.9-6.9-0.8c-3.4,2.6-3.2,3.3-1.4,5.7l3.5,4.7l2.3-1.7c1.9-1.4,2.6-2.3,1.4-4.2l1.2-1.6l5.2,7l-1.3,1.5
				c-2.1-2.5-3.1-2.5-5.5-0.7l-2,1.5l6.2,8.4c1.4-0.8,2.6-1.5,3.7-2.3c2.9-2.2,3.3-4.6,1.2-7.7l1.3-2l5.1,6.9l-15.4,11.4l-0.6-1.7
				l0.2-0.2c1.9-1.4,1-2.8-1.7-6.4l-5.2-7.1c-4-5.3-5.1-6.9-8.2-5l-0.6-1.7l14.9-11.1L209.3,1283.3z"/>
			<path id="XMLID_00000140007830304461971070000017806612423981239684_" class="st0" d="M242.8,1269.2l-2,1.3
				c-1.2-3.3-2.9-4.1-6.3-3c-4.1,1.3-4.1,2.1-3.2,4.9l1.8,5.6l2.7-0.9c2.3-0.8,3.2-1.3,2.7-3.5l1.7-1.1l2.7,8.3l-1.7,1
				c-1.2-3-2.2-3.3-5-2.4l-2.4,0.8l3.2,9.9c1.5-0.3,3-0.6,4.3-1c3.5-1.1,4.6-3.3,3.7-6.9l1.9-1.5l2.6,8.2l-18.2,5.9v-1.8l0.3-0.1
				c2.2-0.7,1.8-2.4,0.5-6.6l-2.7-8.4c-2.1-6.3-2.6-8.2-6.2-7.3v-1.8l17.6-5.7L242.8,1269.2z"/>
			<path id="XMLID_00000119088005228755874570000001739536270835800208_" class="st0" d="M271.4,1285.7l-0.6,1.7l-11-0.5l0.6-1.7
				l0.3,0c2.4,0.1,2.7-1.8,2.9-6.6l0.4-8.2c0.3-6.7,0.3-8.8-3.2-9l-0.2,0l0.6-1.7l5.8,0.3c5.3,8.2,10,15.3,14.3,21.4l0.5-12.8
				c0.2-5.2,0-6.2-5.4-6.5l0.6-1.7l11,0.5l-0.6,1.7l-0.3,0c-2.4-0.1-2.7,1.6-2.9,6.1l-0.7,14.5c-0.1,1.5-0.1,3.1-0.1,4.7l-2.2,0.6
				c-5.4-8.7-10.3-16-14.7-22.1l-0.5,12.9C265.8,1284.4,266,1285.5,271.4,1285.7z"/>
			<path id="XMLID_00000045614488494676386300000007546547201594558632_" class="st0" d="M315.3,1271.5c-3.9-1.3-4.4-0.4-5.9,3.3
				l-5.9,14.1c-0.1,0.2-0.3,0.8-0.7,2c1.2,0.7,2.5,1.4,3.9,2c3.4,1.4,5.5,0.5,7.2-3.1l2.4,0l-3.4,8.2l-17.5-7.3l1.1-1.4l0.3,0.1
				c2.2,0.9,3-0.7,4.8-5l3.4-8.2c2.4-5.8,3.1-7.5-0.1-9.1l1.1-1.4l10.5,4.4L315.3,1271.5z"/>
			<path id="XMLID_00000041297906556663084720000009735398430075868856_" class="st0" d="M343.9,1289.3l-0.2-0.2
				c-1.8-1.4-3.1-0.1-5.8,3.4l-5.4,6.9c-4,5.2-5.2,6.8-2.5,9.2l-1.5,1l-8-6.2l1.5-1l0.2,0.2c1.9,1.4,3,0.1,5.9-3.6l5.2-6.7
				c4.1-5.3,5.3-6.8,2.6-9.3l1.5-1l8,6.2L343.9,1289.3z"/>
			<path id="XMLID_00000148646724392073496050000012740480257446085258_" class="st0" d="M344,1324.2l-1.7,0.5l-6.2-9l1.7-0.6
				l0.2,0.3c1.4,2,3,1.1,7-1.7l6.8-4.7c5.5-3.8,7.2-5.1,5.2-8l-0.1-0.2l1.7-0.6l3.3,4.8c-3.4,9.2-6.1,17.3-8.4,24.3l10.5-7.3
				c4.2-3,5-3.7,1.9-8.2l1.7-0.5l6.2,9l-1.7,0.5l-0.2-0.2c-1.4-2-2.9-1.2-6.6,1.4l-12,8.2c-1.2,0.8-2.5,1.7-3.8,2.7l-1.8-1.3
				c3.7-9.6,6.5-17.9,8.7-25.1l-10.6,7.3C341.7,1319,340.9,1319.7,344,1324.2z"/>
			<path id="XMLID_00000008866044345789062500000011527691854459006143_" class="st0" d="M379.3,1359.4l-1.1-2.1
				c3.4-1,4.3-2.6,3.4-6.1c-1-4.1-1.8-4.2-4.7-3.5l-5.7,1.4l0.7,2.7c0.6,2.4,1.1,3.2,3.3,2.9l1,1.7l-8.5,2.1l-0.9-1.8
				c3.1-1,3.5-1.9,2.8-4.8l-0.6-2.4l-10.1,2.5c0.2,1.5,0.4,3,0.7,4.3c0.9,3.6,3,4.8,6.6,4.1l1.3,2l-8.4,2.1l-4.6-18.6l1.8,0.1
				l0.1,0.3c0.6,2.2,2.2,2,6.5,0.9l8.5-2.1c6.5-1.6,8.3-2.1,7.7-5.7l1.8,0.1l4.5,18L379.3,1359.4z"/>
		</g>
	</g>
	<g id="XMLID_00000070090502765662204510000017453668646894825862_">
		<g>
			<path id="XMLID_00000117639695459128290230000015594237054424867737_" class="st0" d="M160,1401.9c0.4,1.7,1.7,1.5,5,0.8l6.7-1.6
				c5.1-1.2,6.5-1.6,6.1-4.3l1.4,0.1c0.2,0.9,0.3,1.7,0.5,2.5c0.7,2.8,1.4,5.1,1.9,7c1.5,6.3-1.8,11-8,12.4
				c-2.9,0.7-5.7,0.4-7.8-0.7c-3-1.5-4.3-3.7-5.1-7.5c-0.5-2.3-0.8-4.7-1.4-7c-0.1-0.6-0.4-1.3-0.6-2.2l1.4,0.1L160,1401.9z
				 M161.8,1406.3c0.1,1.8,0.3,3.3,0.5,4.3c1.1,4.6,4.9,6.5,10.2,5.2c5.5-1.3,8.2-5.2,7.2-9.7c-0.9-3.8-2.1-3.6-5-2.9L161.8,1406.3z
				"/>
			<path id="XMLID_00000078046506244909787590000015189626560393731989_" class="st0" d="M189.1,1430.5l-0.1-0.2
				c-0.8-1.6-2.1-1.1-5.1,0.4l-6.1,3.1c-4.6,2.3-5.9,3.1-4.8,5.6l-1.4,0.2l-3.6-7l1.4-0.2l0.1,0.2c0.8,1.6,2.1,1.1,5.3-0.6l5.9-3
				c4.6-2.3,5.9-3.1,4.9-5.7l1.4-0.2l3.6,7L189.1,1430.5z"/>
			<path id="XMLID_00000111902868179806521850000008419122990569533831_" class="st0" d="M196.7,1448.8l0.6-0.5
				c1.9-1.5,1.8-2.9,0.1-5.1c-1.5-1.9-3.3-2.2-4.6-1.2c-1.5,1.2-1.1,2.9-0.6,5.9c0.8,4.5,1.2,7-1.4,9.1c-3,2.4-6.4,1.7-9.5-2.2
				c-0.5-0.7-1.5-2.1-3.2-4.3l5.2-4.1l1.6,0.9l-0.4,0.3c-2.9,2.3-3.4,3.7-1.2,6.4c1.6,2,3.6,2.4,5.2,1.2c1.7-1.3,1.4-2.9,0.9-6.1
				c-0.7-4.4-1.4-6.9,1.2-9s5.8-1.5,8.7,2.2c0.6,0.8,1.6,2.2,3.2,4.4l-4,3.2L196.7,1448.8z"/>
			<path id="XMLID_00000053510511372833326770000015706749257753685157_" class="st0" d="M218.3,1466.9l-1.6-0.4
				c1.9-2.7,1.4-3.9-1.6-6.2l-0.4-0.3c-0.9,1.2-1.8,2.2-2.6,3.2l-5.7,7.4c-2.2,2.9-2.6,3.6,0.2,5.9l-1.1,0.8l-7.9-6l1.1-0.8
				c2.9,1.9,3.4,1.3,5.6-1.6l5.6-7.4c0.3-0.4,1.1-1.6,2.4-3.3l-0.3-0.2c-2.9-2.2-4.1-2.5-6.1-0.4l-1.6-0.4l3.4-4.5l13.6,10.3
				L218.3,1466.9z"/>
			<path id="XMLID_00000123399695922657232440000013486327765543001739_" class="st0" d="M235.1,1492.2l-3.7-1.5
				c-0.3-5.4-0.4-8.9-0.9-10.6c-0.2-0.9-0.9-1.5-2.2-2.1l-2.1,5.1c-1.1,2.6-0.6,3.5,2.2,4.9l-0.9,1.1l-8.1-3.3l0.9-1.1l0.2,0.1
				c1.7,0.7,2.3-0.5,3.7-3.9l2.6-6.4c1.8-4.5,2.4-5.8-0.1-7.1l0.9-1.1c4.1,1.6,6.6,2.5,7.3,2.8c3.9,1.6,5.2,4.1,3.9,7.3
				c-1,2.4-3.4,3.5-6.4,2.9c1.4,1.1,1.5,3,1.7,5.8c0.3,3.4,0.2,5.1,1.9,6L235.1,1492.2z M229,1476.4c0.6,0.3,1.1,0.5,1.4,0.7
				c2.7,1.1,4.5,0.5,5.4-1.8c0.8-2.1,0-3.8-2.3-4.8c-1.7-0.7-2.1-0.1-2.9,1.9l-0.4,1L229,1476.4z"/>
			<path id="XMLID_00000173872878406713944350000003413995678576099207_" class="st0" d="M256.6,1476.6l-0.2,0
				c-1.8-0.3-2.1,1-2.7,4.4l-1.2,6.7c-0.9,5-1.1,6.5,1.6,7.2l-0.6,1.2l-7.7-1.4l0.6-1.2l0.2,0c1.8,0.3,2.1-1,2.8-4.6l1.1-6.4
				c0.9-5.1,1.1-6.6-1.6-7.3l0.6-1.2l7.7,1.4L256.6,1476.6z"/>
			<path id="XMLID_00000003088765054671657830000008870793407589574571_" class="st0" d="M265.8,1496l0.2,0c1.8-0.1,1.9-1.4,1.7-4.8
				l-0.2-6.8c-0.2-5.2-0.3-6.7-3.1-6.8l0.4-1.3l1,0c2.6-0.1,4.6-0.4,6.1-0.4c4.3-0.2,6.5,1.7,6.7,4.9c0.1,2.1-1.1,3.9-3.2,4.7
				c3,0.6,4.7,2.4,4.8,5.2c0.1,3.7-2.1,6.4-6.5,6.6c-1.2,0.1-3.7-0.1-7.4,0.1l-0.8,0L265.8,1496z M270.2,1484.7c0.6,0,1.1,0,1.3,0
				c2.9-0.1,4.4-1.5,4.3-3.8c-0.1-2.2-1.4-3.4-3.9-3.3c-1.9,0.1-2,0.9-1.9,2.8l0,1.2L270.2,1484.7z M270.6,1495.2
				c0.9,0.2,1.8,0.3,2.7,0.3c2.7-0.1,4.1-1.9,4-4.5c-0.1-2.9-2-4.5-5.5-4.4c-0.5,0-1,0.1-1.5,0.2l0.1,3.5
				C270.4,1491.9,270.5,1493.5,270.6,1495.2z"/>
			<path id="XMLID_00000021799377615575014120000007633198366815730306_" class="st0" d="M295.9,1473.3c-3.2,1.1-3.3,2-2.2,5.3
				c0.2,0.8,0.6,1.7,0.9,2.8l1,3.3c1.4,4.3,2.9,6.9,6.9,5.7c1.5-0.5,2.4-1.2,3-2.3c0.9-1.6,0.4-3.3-0.4-5.8l-2-6.2
				c-1-3.2-1.4-4.2-4.3-3.6l0-1.4l6.6-2.1l0,1.4c-1.6,0.5-1.3,1.9-0.3,5l1.6,5.2c1,3.1,1.6,5.4,0.8,7.6c-0.7,2-2.5,3.4-5.2,4.3
				c-2.1,0.7-4.4,0.5-6-0.5c-1.9-1.1-2.5-3-3.3-5.6l-1.4-4.4c-1.4-4.3-2-6.1-4.4-5.8l0-1.4l8.6-2.7L295.9,1473.3z"/>
			<path id="XMLID_00000009565597496277183470000007617346763397200017_" class="st0" d="M328.6,1460.5l-0.9,1.3
				c-2-2.6-3.2-2.7-6.4-0.6l-0.5,0.3c0.8,1.3,1.5,2.4,2.2,3.5l5.2,7.8c2,3.1,2.6,3.6,5.6,1.8l0.4,1.3l-8.3,5.5l-0.5-1.3
				c2.8-2.1,2.3-2.8,0.3-5.8l-5.1-7.7c-0.3-0.4-1.1-1.6-2.4-3.4l-0.3,0.2c-3,2-3.7,3.1-2.4,5.7l-0.9,1.3l-3.1-4.7l14.2-9.4
				L328.6,1460.5z"/>
			<path id="XMLID_00000142156061795266743810000001076564932389392282_" class="st0" d="M352.3,1441.9c5.3,4.4,5.9,11.1,1.6,16.2
				c-4,4.7-9.3,5.1-14.2,1c-5.3-4.4-5.9-11.1-1.6-16.2C342.1,1438.3,347.5,1437.9,352.3,1441.9z M339.3,1445.6
				c-3.2,3.9-2.8,6.8,1.8,10.6c4.3,3.6,8.3,3.3,11.7-0.7c3.3-3.9,2.7-6.9-1.9-10.7C346.8,1441.3,342.7,1441.6,339.3,1445.6z"/>
			<path id="XMLID_00000164475185784153742480000016931695152351240590_" class="st0" d="M374.3,1422.1l-1.6,3.7
				c-5.4,0.2-8.9,0.3-10.6,0.7c-0.9,0.2-1.5,0.9-2.1,2.1l5.1,2.2c2.5,1.1,3.5,0.7,4.9-2.1l1,0.9l-3.5,8.1l-1.1-0.9l0.1-0.2
				c0.7-1.7-0.5-2.3-3.8-3.8l-6.4-2.8c-4.4-1.9-5.8-2.5-7.1,0l-1.1-0.9c1.7-4.1,2.6-6.5,3-7.2c1.7-3.9,4.2-5.2,7.4-3.8
				c2.4,1,3.5,3.4,2.8,6.4c1.1-1.4,3-1.4,5.9-1.6c3.4-0.2,5.1-0.1,6-1.8L374.3,1422.1z M358.4,1427.9c0.4-0.6,0.6-1.1,0.7-1.4
				c1.1-2.6,0.6-4.5-1.7-5.4c-2-0.9-3.8-0.1-4.8,2.2c-0.7,1.7-0.1,2.1,1.8,2.9l1,0.4L358.4,1427.9z"/>
			<path id="XMLID_00000160160672535568705830000002791503602167737987_" class="st0" d="M363.8,1397.9l-0.8-0.1
				c-2.4-0.4-3.4,0.7-3.8,3.3c-0.4,2.4,0.5,3.9,2.2,4.2c1.9,0.3,2.9-1.1,4.8-3.5c2.8-3.6,4.4-5.6,7.7-5c3.8,0.6,5.6,3.7,4.8,8.6
				c-0.1,0.8-0.6,2.6-1.1,5.2l-6.5-1.1l-0.4-1.8l0.5,0.1c3.6,0.6,5,0,5.6-3.4c0.4-2.5-0.6-4.3-2.6-4.6c-2.1-0.3-3.1,0.9-5.1,3.4
				c-2.8,3.4-4.2,5.7-7.5,5.2c-3.3-0.5-5-3.3-4.2-7.9c0.2-0.9,0.6-2.7,1.1-5.3l5,0.8L363.8,1397.9z"/>
		</g>
	</g>
	
		<line id="XMLID_00000145759286612628330330000010684815607430252185_" class="st4" x1="153.9" y1="1378.1" x2="183.9" y2="1378.1"/>
	
		<line id="XMLID_00000064333884726999809830000015952828252424882592_" class="st4" x1="356.8" y1="1378.1" x2="386.9" y2="1378.1"/>
	<g id="XMLID_00000082336101348007257010000011581160530652524434_">
		<g>
			<defs>
				<ellipse id="SVGID_1_" cx="271.1" cy="1375" rx="74.3" ry="75.2"/>
			</defs>
			<clipPath id="SVGID_00000046302869178946754210000001612274053252705436_">
				<use xlink:href="#SVGID_1_"  style="overflow:visible;"/>
			</clipPath>
			
				<g id="XMLID_00000136402198959402484830000014412022122709702801_" style="clip-path:url(#SVGID_00000046302869178946754210000001612274053252705436_);">
				<path id="XMLID_00000154418658040437133020000012312708068244044959_" class="st1" d="M275.5,1325.5c0,0-4.5,4-4.8,18.3
					c-0.2,14.3-15.6,38.4-32,44.7c0,0-12.6-30.8,23.5-54.8L275.5,1325.5z"/>
				<polygon id="XMLID_00000013915334715251336720000011092525660764327849_" class="st1" points="-96.2,1467.2 -78.3,1466.4 
					211.8,1413 225,1412.3 214.5,1410.7 232.4,1401 262.2,1389.6 262.9,1387.1 236.6,1397 231.1,1399.2 242.3,1385.3 240.4,1382.8 
					226.3,1400 211,1407.7 				"/>
				<path id="XMLID_00000026849742160561962040000010711030690155899034_" class="st1" d="M336,1347.4c0,0-8.6,6.9-14.2,16.8
					c-5.6,9.9-20.4,29-61.4,26.2c0,0,11.3-32.7,48-39.8S336,1347.4,336,1347.4z"/>
				<path id="XMLID_00000179605787127444304350000011195889415372755637_" class="st1" d="M234.2,1404.7c0,0,21.4-14.3,56.9,9.2
					c0,0-3-0.1-14.2,4.1s-30.5,11.5-57.1-4.6l-5.2-2.8C214.5,1410.7,224.4,1410.8,234.2,1404.7z"/>
				<path id="XMLID_00000065761180499036759520000013932471749348350638_" class="st6" d="M266.9,1337.4c0,0-1.8,34.7-24.1,45.3
					l8.5-19.9l-10.3,16.6C241,1379.4,236.6,1346.5,266.9,1337.4z"/>
				<path id="XMLID_00000072251192826506134260000000609306817879023006_" class="st6" d="M275.5,1379l-6.6,3.7
					c0,0,8.2-24,55.6-29.8c0,0-14.1,34.3-54.5,32.8l31.2-17.9L275.5,1379z"/>
				<path id="XMLID_00000061457083608675931170000010105204113232349606_" class="st6" d="M239.7,1405.8c0,0,17.4-5.8,32.9,2.1
					l9.7,4.9c0,0-11.7,7.4-33.3,7.7c-19.4,0.2-17.4-8.8-17.4-8.8l35.4,0.3l-34.2-2.8C232.7,1409.2,236.9,1406.7,239.7,1405.8z"/>
			</g>
		</g>
	</g>
</g>
<g>
	<g>
		<g id="XMLID_130_">
			<g>
				<rect x="638.6" y="455.3" class="st1" width="195.2" height="3.3"/>
			</g>
			<g>
				<rect x="638.6" y="455.3" class="st1" width="195.2" height="3.3"/>
			</g>
		</g>
		<path id="XMLID_37_" class="st2" d="M215.1,457c0-2,1.6-3.5,3.5-3.5s3.5,1.6,3.5,3.5s-1.6,3.5-3.5,3.5
			C216.6,460.5,215.1,458.9,215.1,457z"/>
		<path id="XMLID_128_" class="st2" d="M854.5,457c0-2,1.6-3.5,3.5-3.5s3.5,1.6,3.5,3.5s-1.6,3.5-3.5,3.5
			C856.1,460.5,854.5,458.9,854.5,457z"/>
		<path id="XMLID_921_" class="st1" d="M609.7,385.6c0,0-5.1,3.1-7.8,16.7c-2.7,13.6-21.8,34.1-38.8,37.1c0,0-6.8-31.7,32.4-48.4
			L609.7,385.6z"/>
		<polygon id="XMLID_920_" class="st1" points="241.4,455.8 242.2,458.2 532.7,458.2 545.6,459.9 535.8,456.5 554.8,450.4 
			585.6,444.8 586.8,442.5 559.6,447.3 553.9,448.5 567.1,437.1 565.7,434.4 549,448.3 532.9,453.1 		"/>
		<path id="XMLID_919_" class="st1" d="M664.5,417.3c0,0-9.5,5.1-16.7,13.6c-7.2,8.5-24.9,24.2-64.1,14.3c0,0,16.7-29.3,53.5-29.6
			C674.1,415.3,664.5,417.3,664.5,417.3z"/>
		<path id="XMLID_918_" class="st1" d="M555.9,454.3c0,0,23.2-10,53.5,18.9c0,0-2.9-0.6-14.5,1.5c-11.6,2.1-31.5,5.6-54.6-14.5
			l-4.6-3.6C535.8,456.5,545.3,458.4,555.9,454.3z"/>
		<path id="XMLID_915_" class="st6" d="M599.3,395.5c0,0-7.8,32.9-31.2,39.2l11.7-17.6l-12.9,14.1
			C566.9,431.2,568.4,399,599.3,395.5z"/>
		<path id="XMLID_913_" class="st6" d="M600.4,437l-7.1,2.4c0,0,12.2-21.5,59.1-18.7c0,0-19.7,30.4-58.5,21.9l33.4-11.6L600.4,437z"
			/>
		<path id="XMLID_911_" class="st6" d="M561,456.3c0,0,17.9-2.5,31.6,7.8l8.5,6.4c0,0-12.7,5.1-33.6,1.5
			c-18.8-3.2-15.4-11.6-15.4-11.6l34.2,6.6l-32.7-8.7C553.6,458.4,558.1,456.7,561,456.3z"/>
		<g id="XMLID_11_">
			<g>
				<path id="XMLID_00000058549948636628090980000014847785277751299756_" class="st2" d="M320,542.8c1.9,0,3.6,0.2,5.2,0.6
					s2.9,0.9,3.9,1.6c1,0.7,2,1.5,2.7,2.3c0.8,0.9,1.4,1.8,1.8,2.9c0.4,1.1,0.7,2.1,0.9,3.2c0.2,1,0.3,2.1,0.3,3.2
					c0,1.3-0.1,2.5-0.3,3.7c-0.2,1.2-0.5,2.4-1,3.6c-0.5,1.2-1.1,2.3-1.8,3.3c-0.7,1-1.7,1.8-2.9,2.6c-1.2,0.8-2.5,1.4-4,1.7
					c-0.8,0.2-1.6,0.3-2.6,0.4c-1,0.1-1.7,0.2-2.4,0.2c-0.6,0-1.5,0-2.6,0h-6.4v-29.4L320,542.8L320,542.8z M314.4,545.9v23.2h4.3
					c0.6,0,1.1,0,1.5,0s1-0.1,1.6-0.1c0.7-0.1,1.3-0.2,1.8-0.3s1.1-0.3,1.7-0.6c0.6-0.3,1.2-0.6,1.7-1s1-0.8,1.5-1.4s0.9-1.2,1.3-2
					c0.9-1.8,1.4-3.9,1.4-6.4c0-1.7-0.2-3.3-0.8-4.7s-1.2-2.5-2-3.4c-0.8-0.9-1.7-1.6-2.7-2.1c-0.9-0.5-1.9-0.9-3-1
					c-0.6-0.1-1.5-0.2-2.8-0.2H314.4z"/>
				<path id="XMLID_00000132794702944202288320000004869573025456909721_" class="st2" d="M357.4,542.8h3.5v29.4h-3.5V542.8z"/>
				<path id="XMLID_00000097475495451799905210000000586911561414454413_" class="st2" d="M395.6,542.5c2.3,0,4.7,0.4,7.3,1.2
					l-1.1,3.2c-2.5-0.7-4.6-1.1-6.5-1.1c-2,0-3.8,0.4-5.2,1.3s-2.1,2-2.1,3.3c0,0.8,0.2,1.4,0.7,2c0.5,0.6,1,1.1,1.8,1.5
					s1.6,0.7,2.5,1.1s1.9,0.7,2.9,1s2,0.7,2.9,1.2c1,0.5,1.8,1,2.5,1.5c0.8,0.6,1.3,1.3,1.8,2.2c0.5,0.9,0.7,1.9,0.7,3
					c0,0.8-0.1,1.6-0.4,2.3c-0.2,0.8-0.7,1.5-1.2,2.3s-1.3,1.4-2.1,2c-0.9,0.6-1.9,1-3.2,1.4s-2.8,0.5-4.4,0.5s-3.1-0.2-4.4-0.5
					c-1.3-0.3-2.9-0.8-4.5-1.5l1.2-3.4c3.5,1.3,6.2,1.9,8.2,1.9c2.1,0,3.8-0.4,5.1-1.3s2-2,2-3.4c0-0.9-0.3-1.8-0.9-2.4
					s-1.4-1.2-2.3-1.7c-0.9-0.4-2-0.8-3.1-1.2s-2.3-0.8-3.4-1.2s-2.1-0.9-3.1-1.5c-0.9-0.5-1.7-1.3-2.3-2.2c-0.6-0.9-0.9-2-0.9-3.3
					c0-1.1,0.3-2.2,0.8-3.2c0.5-1,1.3-1.9,2.3-2.7c1-0.8,2.2-1.4,3.6-1.9S393.9,542.5,395.6,542.5z"/>
				<path id="XMLID_00000150808954485050815530000015762827300710452880_" class="st2" d="M421.2,542.8h23.2v3.1h-9.8v26.3h-3.5
					v-26.3h-9.8L421.2,542.8L421.2,542.8z"/>
				<path id="XMLID_00000122688857346402565480000017712320650321759164_" class="st2" d="M482.6,550.9c0,1-0.1,1.9-0.4,2.8
					c-0.2,0.9-0.6,1.7-1.1,2.5c-0.5,0.8-1.2,1.5-2.1,2.1s-1.9,1-3.1,1.3l8.3,12.6h-3.9l-8-12.2h-5.7v12.2h-3.5v-29.4H474
					c0.5,0,0.9,0,1.3,0c0.4,0,0.9,0.1,1.5,0.2c0.6,0.1,1.2,0.3,1.7,0.5c0.5,0.2,1,0.5,1.5,0.9s1,0.9,1.3,1.4
					c0.4,0.5,0.6,1.3,0.9,2.1C482.5,548.9,482.6,549.8,482.6,550.9z M466.8,556.9h5.1c0.7,0,1.3,0,1.9-0.1c0.5,0,1.2-0.2,1.9-0.4
					s1.3-0.5,1.8-0.9c0.5-0.4,0.9-0.9,1.2-1.7s0.5-1.6,0.5-2.6c0-0.7-0.1-1.3-0.3-1.9s-0.4-1-0.7-1.4s-0.6-0.7-1-1
					c-0.4-0.3-0.8-0.5-1.2-0.6c-0.4-0.1-0.8-0.2-1.2-0.3c-0.5-0.1-0.8-0.1-1.1-0.2c-0.3,0-0.6,0-0.9,0h-5.9V556.9z"/>
				<path id="XMLID_00000049925515343038744800000010027446081690486942_" class="st2" d="M506.3,542.8h3.5v29.4h-3.5V542.8z"/>
				<path id="XMLID_00000142869403980543102700000013695190582001206656_" class="st2" d="M533.5,542.8h10.4c1,0,1.9,0.1,2.8,0.3
					c0.8,0.2,1.5,0.5,2.1,0.8c0.5,0.3,1,0.7,1.5,1.2s0.7,0.9,1,1.3c0.2,0.4,0.4,0.9,0.5,1.4c0.1,0.5,0.2,0.9,0.3,1.2
					c0,0.3,0,0.6,0,0.9c0,1.2-0.4,2.4-1.2,3.6s-1.7,2-2.6,2.3c1.8,0.3,3.3,1.2,4.5,2.6s1.8,3,1.8,4.9c0,0.4,0,0.9-0.1,1.3
					c-0.1,0.5-0.2,1-0.5,1.6s-0.5,1.2-0.8,1.7c-0.3,0.5-0.8,1.1-1.4,1.6c-0.6,0.5-1.3,1-2,1.4c-0.8,0.4-1.7,0.7-2.8,0.9
					s-2.3,0.4-3.7,0.4h-9.6L533.5,542.8L533.5,542.8z M537,545.5v9.9c0.3,0,0.7,0,1.4,0s1.2,0,1.5,0s0.9,0,1.5-0.1s1.2-0.1,1.6-0.2
					s0.9-0.2,1.4-0.3s1-0.3,1.4-0.5s0.7-0.4,1.1-0.7c0.4-0.3,0.7-0.6,0.9-0.9s0.4-0.7,0.5-1.2s0.2-1,0.2-1.5c0-0.4,0-0.8-0.1-1.2
					c-0.1-0.4-0.2-0.8-0.5-1.2c-0.3-0.4-0.6-0.8-1-1.1c-0.4-0.3-1-0.6-1.7-0.8c-0.7-0.2-1.6-0.3-2.5-0.3L537,545.5L537,545.5z
					 M537,558.1v11h5.5c0.5,0,0.9,0,1.2,0s0.8,0,1.5-0.1c0.6-0.1,1.2-0.2,1.6-0.3c0.5-0.1,1-0.3,1.5-0.6c0.5-0.3,1-0.6,1.3-1
					s0.6-0.8,0.9-1.4s0.3-1.2,0.3-2c0-1.8-0.7-3.3-2.1-4.3c-1.4-1-3.3-1.5-5.7-1.5C542.8,557.8,540.8,557.9,537,558.1z"/>
				<path id="XMLID_00000098194636948479471810000002400669774178456487_" class="st2" d="M575.7,542.8h3.5v19c0,1.2,0.1,2.2,0.3,3
					s0.6,1.6,1.3,2.4c1.4,1.6,3.4,2.3,6.1,2.3c2,0,3.6-0.4,4.9-1.3c1.3-0.8,2.2-2,2.5-3.6c0.2-0.7,0.3-1.7,0.3-2.9v-19h3.5
					c0,4.4,0,8,0,10.9s0,4.6,0,5.4s0,1.4,0,1.9c0,0.5,0,0.9,0,1.2c0,0.6,0,1.2,0,1.7c0,0.5-0.1,1.1-0.3,1.9c-0.2,0.8-0.4,1.4-0.7,2
					c-0.3,0.6-0.7,1.2-1.2,1.8s-1.2,1.2-2,1.6c-0.8,0.4-1.7,0.8-2.9,1c-1.2,0.3-2.5,0.4-4,0.4c-1.6,0-3.1-0.2-4.3-0.5
					s-2.3-0.7-3-1.2c-0.7-0.5-1.4-1-1.9-1.7c-0.5-0.7-0.9-1.2-1.1-1.7c-0.2-0.5-0.4-1-0.5-1.5c-0.2-0.9-0.3-2.2-0.3-3.9L575.7,542.8
					L575.7,542.8z"/>
				<path id="XMLID_00000031929259880029782360000013422098143743963534_" class="st2" d="M616.9,542.8H640v3.1h-9.8v26.3h-3.5
					v-26.3h-9.8L616.9,542.8L616.9,542.8z"/>
				<path id="XMLID_00000093864290821130601170000001795648486079827330_" class="st2" d="M671.2,542.5c1.9,0,3.8,0.3,5.5,1
					s3.2,1.6,4.4,2.9c1.2,1.2,2.2,2.8,2.9,4.6c0.7,1.8,1,3.9,1,6.1c0,3-0.6,5.7-1.8,8s-2.8,4.2-5,5.4c-2.1,1.3-4.5,1.9-7.2,1.9
					c-1.8,0-3.5-0.3-5.1-0.9c-1.6-0.6-3.1-1.5-4.4-2.7s-2.3-2.8-3.1-4.7c-0.8-1.9-1.2-4.1-1.2-6.5c0-2.3,0.3-4.4,1.1-6.2
					c0.7-1.9,1.7-3.5,2.9-4.8c1.2-1.3,2.7-2.3,4.4-3C667.3,542.8,669.2,542.5,671.2,542.5z M671,545.6c-1.2,0-2.5,0.2-3.6,0.7
					c-1.2,0.5-2.2,1.2-3.2,2.1c-1,0.9-1.8,2.1-2.3,3.6s-0.9,3.2-0.9,5.2c0,1.8,0.3,3.5,0.8,5.1s1.3,2.8,2.2,3.9c0.9,1,2,1.9,3.3,2.4
					s2.6,0.9,4.1,0.9c1,0,1.9-0.1,2.9-0.4c0.9-0.3,1.8-0.8,2.7-1.4s1.6-1.4,2.3-2.3s1.2-2,1.6-3.4c0.4-1.3,0.6-2.8,0.6-4.4
					c0-1.6-0.2-3.1-0.6-4.5s-1-2.5-1.7-3.4c-0.7-0.9-1.5-1.7-2.4-2.3c-0.9-0.6-1.8-1.1-2.8-1.4C672.9,545.7,672,545.6,671,545.6z"/>
				<path id="XMLID_00000034788320739494151450000005534248999420264834_" class="st2" d="M725.8,550.9c0,1-0.1,1.9-0.3,2.8
					s-0.6,1.7-1.1,2.5c-0.5,0.8-1.2,1.5-2.1,2.1s-1.9,1-3.1,1.3l8.3,12.6h-3.9l-8-12.2H710v12.2h-3.5v-29.4h10.8c0.5,0,0.9,0,1.3,0
					c0.4,0,0.9,0.1,1.5,0.2s1.2,0.3,1.7,0.5c0.5,0.2,1,0.5,1.5,0.9s1,0.9,1.3,1.4c0.3,0.5,0.6,1.3,0.9,2.1
					C725.7,548.9,725.8,549.8,725.8,550.9z M710,556.9h5.1c0.7,0,1.3,0,1.9-0.1s1.2-0.2,1.9-0.4s1.3-0.5,1.8-0.9s0.9-0.9,1.2-1.7
					c0.3-0.7,0.5-1.6,0.5-2.6c0-0.7-0.1-1.3-0.3-1.9s-0.4-1-0.7-1.4c-0.3-0.4-0.6-0.7-1-1s-0.8-0.5-1.2-0.6s-0.8-0.2-1.2-0.3
					s-0.8-0.1-1.1-0.2s-0.6,0-0.9,0H710L710,556.9L710,556.9z"/>
				<path id="XMLID_00000018924857256936111060000010670691600072038838_" class="st2" d="M759.9,542.5c2.3,0,4.7,0.4,7.3,1.2
					l-1.1,3.2c-2.5-0.7-4.6-1.1-6.5-1.1c-2,0-3.8,0.4-5.2,1.3c-1.4,0.9-2.1,2-2.1,3.3c0,0.8,0.2,1.4,0.7,2s1.1,1.1,1.8,1.5
					s1.6,0.7,2.5,1.1c1,0.4,1.9,0.7,2.9,1s2,0.7,2.9,1.2c1,0.5,1.8,1,2.5,1.5c0.7,0.6,1.3,1.3,1.8,2.2c0.5,0.9,0.7,1.9,0.7,3
					c0,0.8-0.1,1.6-0.4,2.3c-0.2,0.8-0.7,1.5-1.2,2.3s-1.3,1.4-2.2,2s-1.9,1-3.2,1.4s-2.8,0.5-4.3,0.5s-3.1-0.2-4.4-0.5
					c-1.3-0.3-2.8-0.8-4.5-1.5l1.2-3.4c3.5,1.3,6.2,1.9,8.2,1.9c2.1,0,3.8-0.4,5.1-1.3s2-2,2-3.4c0-0.9-0.3-1.8-0.9-2.4
					s-1.3-1.2-2.3-1.7c-0.9-0.4-2-0.8-3.1-1.2s-2.3-0.8-3.4-1.2c-1.1-0.4-2.2-0.9-3.1-1.5c-0.9-0.5-1.7-1.3-2.3-2.2
					c-0.6-0.9-0.9-2-0.9-3.3c0-1.1,0.3-2.2,0.8-3.2c0.5-1,1.3-1.9,2.3-2.7c1-0.8,2.2-1.4,3.6-1.9
					C756.6,542.8,758.2,542.5,759.9,542.5z"/>
			</g>
		</g>
	</g>
	<g>
		<g id="XMLID_134_">
			<g id="XMLID_140_">
				<path id="XMLID_352_" class="st3" d="M305.8,330c11.8,9.5,17.5,14.3,29,24c3.9,3.4,9.2,4.8,14.1,4.2c0.2,1.7,0.3,2.5,0.5,4.1
					c-10.1,1.2-15.2,1.9-25.3,3.3c-12.3-11.1-18.6-16.6-31.3-27.5c-4.2-3.6-7-4.3-9.3-3.9c1.3,8.1,2,12.1,3.3,20.2
					c1.6,10.2,3.9,11.9,17.5,9.9c0.2,1.6,0.4,2.5,0.6,4.1c-16.9,2.6-25.4,4-42.2,7c-0.3-1.6-0.4-2.5-0.7-4.1
					c9.4-1.7,10.8-4,9.2-13.7c-3.3-19-4.9-28.5-8.2-47.6c-1.6-9.6-3.3-11.1-12.5-9.9c-0.3-1.6-0.4-2.5-0.7-4.1
					c15.5-2.8,23.2-4,38.7-6.4c21.5-3.3,35,2.6,36.6,15.1C326.4,316.3,320.7,325.2,305.8,330z M282.4,328.1c2.8-0.5,4.3-0.7,7.1-1.1
					c13.7-2.1,19.8-7.8,18.1-19.3c-1.3-8.8-8.3-13.8-18.5-12.2c-3.9,0.6-5.8,0.9-9.7,1.5c-1.2,0.2-1.9,1-1.7,2.1
					C279.5,310.7,280.5,316.5,282.4,328.1z"/>
				<path id="XMLID_732_" class="st3" d="M380.6,314.2c18.8-1.9,21.5-3.4,21.9-14.8c1.6-0.1,2.5-0.2,4.1-0.3
					c1,12.2,1.5,18.3,2.5,30.5c-1.6,0.1-2.4,0.2-4,0.3c-2.8-11.1-5.6-12.2-23.9-10.4c0.9,8.6,1.3,12.9,2.1,21.4
					c0.9,8.9,5.7,11.4,19.6,10.1c16.4-1.4,21.5-5.7,23.6-20.1c1.7-0.1,2.6-0.2,4.4-0.3c0,9.6-0.1,14.4-0.1,24
					c-29.1,2-43.6,3.4-72.6,6.7c-0.2-1.7-0.3-2.5-0.5-4.1c9.5-1.4,11-3.4,10-13.1c-2.1-19.2-3.1-28.8-5.2-48
					c-1-9.7-2.8-11.3-11.8-10.7c-0.2-1.7-0.3-2.5-0.5-4.2c28.4-3.3,42.7-4.6,71.2-6.7c0.9,8.1,1.4,12.2,2.2,20.4
					c-1.9,0.1-2.9,0.2-4.8,0.4c-2.8-11.5-8.1-14.5-24-13c-5.1,0.5-7.6,0.7-12.7,1.2c-3.8,0.4-4.2,0.9-3.9,4.3
					C379,298.3,379.5,303.6,380.6,314.2z"/>
				<path id="XMLID_349_" class="st3" d="M473.8,307.7c18.9-0.8,21.6-2.2,22.6-13.5c1.6,0,2.5-0.1,4.1-0.1
					c0.3,12.2,0.4,18.4,0.7,30.6c-1.6,0-2.4,0.1-4,0.1c-2.1-11.2-4.8-12.5-23.2-11.8c0.4,8.6,0.5,12.9,0.9,21.5
					c0.4,9,5,11.7,18.9,11.3c16.4-0.5,21.8-4.4,24.7-18.7c1.8,0,2.6,0,4.4,0c-0.6,9.6-0.9,14.4-1.5,24c-29.1,0.3-43.7,0.8-72.8,2.5
					c-0.1-1.7-0.1-2.5-0.2-4.2c9.6-0.9,11.2-2.7,10.7-12.5c-1-19.3-1.5-28.9-2.4-48.2c-0.5-9.7-2.1-11.4-11.2-11.3
					c-0.1-1.7-0.1-2.5-0.2-4.2c28.5-1.6,42.8-2.1,71.4-2.5c0.4,8.2,0.6,12.3,1,20.5c-1.9,0-2.9,0-4.8,0.1
					c-2.1-11.7-7.2-14.9-23.2-14.4c-5.1,0.1-7.6,0.2-12.7,0.4c-3.8,0.1-4.3,0.7-4.1,4C473.2,291.8,473.4,297.1,473.8,307.7z"/>
				<path id="XMLID_347_" class="st3" d="M607.5,353.5c-17.8-27.2-27.2-40.7-46.7-67.3c-0.2,0-0.3,0-0.5,0c-0.2,18-0.4,27-0.6,44.9
					c-0.2,13.8,1.4,15.5,11,16c0,1.7,0,2.5-0.1,4.2c-12.8-0.3-19.2-0.3-31.9-0.3c0-1.7,0-2.5,0-4.2c10.6-0.3,12.4-2,12.5-15
					c0.1-16.8,0.2-25.2,0.3-42c0.1-11.8-1.6-14.7-11.7-15.1c0-1.7,0-2.5,0-4.2c12.6,0,18.9,0.1,31.5,0.3
					c17.7,24.5,26.3,36.9,42.6,61.9c0.2,0,0.3,0,0.4,0c0.8-16.2,1.2-24.2,2-40.4c0.7-13.8-0.9-15.6-11-16.3c0.1-1.7,0.1-2.5,0.2-4.2
					c13.4,0.5,20.1,0.9,33.5,1.7c-0.1,1.7-0.2,2.5-0.3,4.2c-11-0.4-13.1,1.3-13.8,14.3c-1.3,24.9-2,37.3-3.3,62.2
					C616.2,353.9,613.3,353.8,607.5,353.5z"/>
				<path id="XMLID_345_" class="st3" d="M722.8,361.9c-29.5-3.5-44.2-4.9-73.8-7c0.1-1.7,0.2-2.5,0.3-4.2c9.6,0.4,11.5-1.2,12.2-11
					c1.5-19.2,2.3-28.9,3.8-48.1c0.8-9.7-0.7-11.6-9.6-12.7c0.1-1.7,0.2-2.5,0.3-4.2c15.6,1.1,23.3,1.8,38.9,3.3
					c-0.2,1.7-0.2,2.5-0.4,4.2c-10.1-0.7-11.9,1-12.8,11.5c-1.5,17.5-2.3,26.2-3.9,43.6c-1,11.7,3.3,14.4,18.2,15.9
					c16.5,1.7,22-1,27-15.1c1.7,0.2,2.6,0.3,4.3,0.5C725.5,347.9,724.6,352.5,722.8,361.9z"/>
				<path id="XMLID_315_" class="st3" d="M776.7,369.3c-15.2-2.4-22.8-3.4-38.1-5.4c0.2-1.7,0.3-2.5,0.5-4.1
					c9.7,0.9,11.5-0.6,13.3-13.4c2.3-16.6,3.4-25,5.7-41.6c1.6-11.7,0.5-14.7-8.6-16.3c0.2-1.7,0.3-2.5,0.5-4.1
					c15.1,2,22.7,3,37.8,5.4c-0.2,1.6-0.4,2.5-0.6,4.1c-9.2-1-11.1,1.6-12.8,13.3c-2.5,16.6-3.7,24.9-6.1,41.6
					c-1.9,12.8-0.5,14.8,9,16.6C777.1,366.8,777,367.6,776.7,369.3z"/>
				<path id="XMLID_174_" class="st3" d="M860,385.5c-13.3-29.8-20.3-44.6-35.3-74.1c-0.2,0-0.3,0-0.4-0.1
					c-3.2,17.7-4.7,26.5-7.9,44.2c-2.4,13.6-1.1,15.5,8.3,17.6c-0.3,1.6-0.5,2.5-0.8,4.1c-12.6-2.4-18.9-3.5-31.6-5.5
					c0.3-1.6,0.4-2.5,0.7-4.1c10.5,1.4,12.6,0,14.8-12.8c2.9-16.6,4.3-24.8,7.2-41.4c2-11.6,0.8-14.7-9.1-16.8
					c0.3-1.6,0.4-2.5,0.7-4.1c12.5,2.1,18.7,3.2,31.2,5.5c13.6,27.1,20,40.7,32.2,68c0.2,0,0.3,0.1,0.4,0.1
					c3.4-15.8,5.1-23.7,8.5-39.5c2.9-13.5,1.6-15.5-8.2-17.9c0.3-1.6,0.5-2.5,0.8-4.1c13.2,2.7,19.8,4.2,33,7.2
					c-0.4,1.6-0.6,2.5-0.9,4.1c-10.9-2.2-13.2-0.8-16,11.8c-5.4,24.3-8,36.5-13.4,60.8C868.5,387.3,865.7,386.7,860,385.5z"/>
				<path id="XMLID_171_" class="st3" d="M938.5,357.1c18.5,4.8,21.5,4.2,25.8-6.4c1.6,0.4,2.4,0.7,4,1.1
					c-3.3,11.8-4.9,17.7-8.1,29.5c-1.6-0.4-2.4-0.6-3.9-1.1c1.2-11.4-1.1-13.4-19-18c-2.2,8.3-3.2,12.5-5.4,20.9
					c-2.2,8.7,1.5,12.6,15,16.3c16,4.3,22.4,2.1,29.2-10.7c1.7,0.5,2.5,0.7,4.2,1.2c-3.3,9-5,13.5-8.3,22.5
					c-28.3-8.2-42.5-11.9-71-18.8c0.4-1.6,0.6-2.4,1-4.1c9.5,1.9,11.6,0.7,13.9-8.9c4.6-18.8,6.9-28.1,11.6-46.9
					c2.3-9.4,1.2-11.6-7.5-14.1c0.4-1.6,0.6-2.4,1-4.1c28,6.7,41.9,10.4,69.6,18.3c-2,8-2.9,12-4.9,19.9c-1.9-0.5-2.8-0.8-4.7-1.3
					c1.4-11.8-2.7-16.4-18.3-20.5c-5-1.3-7.4-2-12.4-3.3c-3.7-1-4.3-0.6-5.1,2.7C942.5,341.7,941.2,346.9,938.5,357.1z"/>
			</g>
			<g id="XMLID_135_">
				<g>
					<path id="XMLID_22_" class="st3" d="M90.9,360.5c-10.9-41.1,16.3-82.4,57.9-90.9c15.8-3.2,30.6-3.2,49.3,2.2
						c0.6-4.6,0.9-7,1.5-11.6c2.8-0.6,4.2-0.9,7.1-1.4c3.6,17.8,5.4,26.6,8.9,44.4c-3.8,0.8-5.7,1.1-9.5,1.9
						c-9.5-20.9-28.8-30.3-52.2-24.8c-29.4,6.9-41,33.4-31.3,69.9c9.5,35.8,30.2,51.4,58.3,44.8c20.2-4.8,30.2-18.1,26.4-36
						c-2.3-10.7-8.9-14.3-23-12.2c-0.6-2.8-0.9-4.2-1.6-7c24.2-5.5,36.3-8,60.6-12.5c0.5,2.8,0.8,4.2,1.3,7
						c-12.1,2.3-15.4,7.3-12.8,20.5c1.8,9.4,2.8,14,4.6,23.4c-10.5,2.1-12.8,3.3-24.3,13.8c-8.1,7.2-19.4,12.3-32.7,15.7
						C141.5,417.4,101.4,400,90.9,360.5z"/>
					<path class="st0" d="M158.3,411.9c-32.7,0-60.5-19.6-68.8-51l0,0c-5.2-19.7-2.1-40.1,8.8-57.7c11.1-18,29.5-30.7,50.3-35
						c16.8-3.5,31.4-2.9,48.4,1.8c0.4-3.6,0.7-5.9,1.3-10l0.1-1l1-0.2c2.8-0.6,4.2-0.9,7.1-1.4l1.4-0.3l9.5,47.2l-1.4,0.3
						c-3.8,0.8-5.7,1.1-9.5,1.9l-1.1,0.2l-0.5-1c-9.2-20.3-28.1-29.2-50.6-24c-12.3,2.9-21.4,9.2-27.1,18.7
						c-7.4,12.3-8.5,29.4-3.1,49.4c9.2,34.7,29.3,50.2,56.6,43.8c19.4-4.6,28.9-17.4,25.3-34.3c-2.1-9.9-8.1-13-21.4-11l-1.3,0.2
						l-2.2-9.7l1.4-0.3c24.3-5.5,36.2-8,60.7-12.5l1.4-0.3l1.8,9.9l-1.4,0.3c-5.7,1.1-9.1,2.7-10.8,5.3c-1.9,2.8-2.1,6.9-0.8,13.5
						l4.9,24.8l-1.4,0.3c-10.1,2-12.1,2.9-23.6,13.4c-7.8,7-19,12.3-33.3,16C172.4,411,165.2,411.9,158.3,411.9z M92.3,360.1
						c9.7,36.5,46.9,56.4,86.7,46.2c13.9-3.5,24.7-8.7,32.1-15.4c11-10,13.8-11.8,23.6-13.8l-4.3-22c-1.5-7.4-1.1-12.2,1.3-15.7
						c2.1-3,5.6-5,11.3-6.2l-0.8-4.2c-23,4.3-34.9,6.8-57.8,11.9l1,4.3c13.9-1.8,20.9,2.3,23.3,13.5c4,18.6-6.3,32.7-27.4,37.7
						c-29,6.8-50.3-9.4-60-45.8c-5.5-20.8-4.3-38.6,3.4-51.6c6-10,16-17,28.9-20c23.5-5.5,43.4,3.6,53.4,24.5c2.7-0.5,4.4-0.9,7-1.4
						l-8.4-41.6c-1.7,0.3-2.9,0.6-4.6,0.9c-0.5,4-0.8,6.3-1.3,10.6l-0.2,1.7l-1.6-0.5c-17.3-5-31.8-5.7-48.7-2.2
						c-20.1,4.1-37.7,16.4-48.4,33.7C90.3,321.5,87.3,341.2,92.3,360.1L92.3,360.1z"/>
				</g>
			</g>
		</g>
		<path id="XMLID_32_" class="st7" d="M107.3,306.4c0,0-26.3,67.7,24.2,87.6C131.6,394,95.9,373.4,107.3,306.4z"/>
		<path id="XMLID_29_" class="st7" d="M225.7,337.1c0,0-3,0.8-1.6,9.7c1.4,8.9,3.6,25.3,3.6,25.3l3.1,1.4c0,0-10.4-34.7-1.9-38.1
			L225.7,337.1z"/>
		<path id="XMLID_28_" class="st7" d="M255.8,297.6c0,0,7.5,0.7,7.5,5.1s10.4,60.2,10.4,60.2l2.2,1.9L265,301.7
			C265,301.7,263.5,295.2,255.8,297.6z"/>
		<polygon id="XMLID_31_" class="st7" points="292.5,335.9 321.9,360.7 325.7,361.7 297.3,336.6 		"/>
		<path id="XMLID_27_" class="st7" d="M316.5,296.9c0,0,8.7,11.3-0.5,21.9C316.1,318.8,332,308.2,316.5,296.9z"/>
		<path id="XMLID_26_" class="st7" d="M451,276.1c0,0,5.8-0.3,6.8,5c1,5.2,2.8,60,2.8,60l1.2,1.9l-2.2-61.9
			C459.6,281,458.8,273.9,451,276.1z"/>
		<polygon id="XMLID_25_" class="st7" points="521.2,330 517.5,348.9 519.6,349.1 		"/>
		<path id="XMLID_23_" class="st7" d="M488.8,312c0,0,8.8-1,8.7,9.4C497.5,321.3,500.1,309.3,488.8,312z"/>
		<path id="XMLID_20_" class="st7" d="M505.4,272.7h9.3v6.5C514.6,279.2,516.1,273.2,505.4,272.7z"/>
		<path id="XMLID_19_" class="st7" d="M356.2,283.8c0,0,5.8-0.7,7.1,4.5s7,59.7,7,59.7l1.4,1.8l-6.5-61.6
			C365.1,288.2,363.8,281.1,356.2,283.8z"/>
		<polygon id="XMLID_355_" class="st7" points="430,332.7 427.6,351.8 429.7,351.8 		"/>
		<path id="XMLID_13_" class="st7" d="M396.4,316.9c0,0,8.7-1.6,9.3,8.8C405.8,325.7,407.5,313.5,396.4,316.9z"/>
		<path id="XMLID_12_" class="st7" d="M410.2,276.7l9.2-0.6l0.5,6.5C419.9,282.5,420.9,276.3,410.2,276.7z"/>
		<polygon id="XMLID_9_" class="st7" points="558.9,277 609.5,347.1 615.1,347.5 		"/>
		<polygon id="XMLID_8_" class="st7" points="203.5,263 203.1,264.9 210,300.1 210.9,300.1 		"/>
		<path id="XMLID_5_" class="st7" d="M545.2,347.5c0,0,8-1.1,8-11.5C553.2,336.1,555.7,349.2,545.2,347.5z"/>
		<path id="XMLID_4_" class="st7" d="M659.5,278.2c0,0,8.7,0.5,8.2,5.8s-4.2,61.7-4.2,61.7l1.1,1.6l4.6-63.7
			C669.1,283.6,669.1,276.5,659.5,278.2z"/>
		<path id="XMLID_3_" class="st7" d="M703.5,355.8c0,0,15.6,3.1,17.8-10.6c0,0-3.5,10.2-17.9,9.8"/>
		<path id="XMLID_363_" class="st7" d="M779.8,291.8c0,0-5.8,0.9-5.8,4.5s-9.2,60.6-9.2,60.6l-1.6,0.7l9.2-61.8
			C772.4,295.8,771.5,292.9,779.8,291.8z"/>
		<path id="XMLID_2_" class="st7" d="M740.6,360.9c0,0,9.6,3.1,12.1-8C752.7,352.9,752.5,364.7,740.6,360.9z"/>
		<polygon id="XMLID_362_" class="st7" points="822.2,309.9 812.4,361 813.7,363.4 823.4,309 		"/>
		<polygon id="XMLID_366_" class="st7" points="830.8,298.8 836.6,299.7 867.7,367.5 		"/>
		<polygon id="XMLID_1_" class="st7" points="885.3,324 874.8,368.3 875,371 886.5,324.3 		"/>
		<path id="XMLID_368_" class="st7" d="M945.2,325c0,0-3,0.6-4,4.5c-0.9,4-14.1,56.3-14.1,56.3l2.6-0.8l13-55.4L945.2,325z"/>
		<path id="XMLID_369_" class="st7" d="M974.2,334.8c0,0,10.5,1.9,8.3,14.7C982.4,349.5,990.3,336.1,974.2,334.8z"/>
		<polygon id="XMLID_367_" class="st7" points="966.8,352.9 965.7,353.6 958.7,379 958.9,380.5 		"/>
		<polygon id="XMLID_370_" class="st7" points="961.9,406.9 969.6,408 974.9,399 971,410.3 		"/>
	</g>
</g>
<g>
	<g id="XMLID_242_">
		<g id="XMLID_910_">
			<g>
				<path id="XMLID_00000010991109182985821610000011786911472927351226_" class="st0" d="M331.1,1060.8c1.5,0,3,0.2,4.2,0.5
					c1.3,0.3,2.3,0.7,3.2,1.3c0.9,0.6,1.6,1.2,2.2,1.9s1.1,1.5,1.4,2.4s0.6,1.7,0.8,2.6c0.2,0.8,0.2,1.7,0.2,2.6c0,1-0.1,2.1-0.2,3
					s-0.4,1.9-0.8,2.9c-0.4,1-0.9,1.9-1.5,2.7s-1.4,1.5-2.3,2.1c-1,0.6-2,1.1-3.2,1.4c-0.6,0.2-1.3,0.3-2.1,0.3
					c-0.8,0.1-1.4,0.1-1.9,0.1c-0.5,0-1.2,0-2.1,0h-5.2v-23.9L331.1,1060.8L331.1,1060.8z M326.5,1063.3v18.9h3.5c0.5,0,0.9,0,1.2,0
					s0.8-0.1,1.3-0.1c0.6-0.1,1-0.1,1.5-0.2s0.9-0.3,1.4-0.5s1-0.5,1.4-0.8c0.4-0.3,0.8-0.7,1.2-1.2c0.4-0.5,0.8-1,1.1-1.6
					c0.7-1.4,1.1-3.2,1.1-5.2c0-1.4-0.2-2.7-0.6-3.8c-0.4-1.1-1-2.1-1.6-2.8c-0.7-0.7-1.4-1.3-2.2-1.7c-0.8-0.4-1.6-0.7-2.4-0.8
					c-0.5-0.1-1.2-0.1-2.2-0.1L326.5,1063.3L326.5,1063.3z"/>
				<path id="XMLID_00000176033266748602942020000014518740823767368882_" class="st0" d="M361.5,1060.8h2.9v23.9h-2.9V1060.8z"/>
				<path id="XMLID_00000029748816721267508230000008420562786040866982_" class="st0" d="M392.6,1060.6c1.8,0,3.8,0.3,5.9,1
					l-0.9,2.6c-2-0.6-3.8-0.9-5.2-0.9c-1.7,0-3.1,0.3-4.2,1.1c-1.1,0.7-1.7,1.6-1.7,2.7c0,0.6,0.2,1.2,0.6,1.7s0.9,0.9,1.5,1.2
					c0.6,0.3,1.3,0.6,2.1,0.9c0.8,0.3,1.6,0.6,2.4,0.8c0.8,0.2,1.6,0.6,2.4,0.9c0.8,0.4,1.5,0.8,2.1,1.2c0.6,0.4,1.1,1.1,1.5,1.8
					c0.4,0.7,0.6,1.6,0.6,2.5c0,0.6-0.1,1.3-0.3,1.9c-0.2,0.6-0.5,1.3-1,1.9s-1,1.2-1.8,1.6s-1.6,0.8-2.6,1.1s-2.2,0.4-3.5,0.4
					s-2.5-0.1-3.6-0.4s-2.3-0.7-3.7-1.2l1-2.8c2.8,1,5,1.6,6.6,1.6c1.7,0,3.1-0.3,4.2-1c1.1-0.7,1.6-1.6,1.6-2.7
					c0-0.8-0.2-1.4-0.7-2c-0.5-0.6-1.1-1-1.9-1.3s-1.6-0.7-2.5-1s-1.8-0.6-2.8-1s-1.8-0.7-2.5-1.2s-1.4-1.1-1.9-1.8
					c-0.5-0.8-0.7-1.7-0.7-2.7c0-0.9,0.2-1.8,0.7-2.6s1.1-1.6,1.8-2.2s1.8-1.1,2.9-1.5C389.9,1060.8,391.2,1060.6,392.6,1060.6z"/>
				<path id="XMLID_00000176724381715369495270000008087767501365609112_" class="st0" d="M413.4,1060.8h18.8v2.5h-8v21.4h-2.9
					v-21.4h-8L413.4,1060.8L413.4,1060.8z"/>
				<path id="XMLID_00000063630438781560467750000006543396604827131265_" class="st0" d="M463.4,1067.4c0,0.8-0.1,1.6-0.3,2.3
					c-0.2,0.7-0.5,1.4-0.9,2.1c-0.4,0.7-1,1.2-1.7,1.7c-0.7,0.5-1.5,0.8-2.5,1.1l6.7,10.3h-3.2l-6.5-10h-4.6v10h-2.9v-23.9h8.8
					c0.4,0,0.8,0,1.1,0c0.3,0,0.7,0.1,1.2,0.2c0.5,0.1,1,0.2,1.4,0.4c0.4,0.2,0.8,0.4,1.2,0.7c0.4,0.3,0.8,0.7,1.1,1.2
					c0.3,0.4,0.5,1,0.7,1.7C463.3,1065.7,463.4,1066.5,463.4,1067.4z M450.5,1072.2h4.1c0.6,0,1.1,0,1.5-0.1c0.4,0,1-0.2,1.5-0.3
					s1.1-0.4,1.5-0.7c0.4-0.3,0.7-0.8,1-1.3c0.3-0.6,0.4-1.3,0.4-2.1c0-0.6-0.1-1.1-0.2-1.6c-0.1-0.5-0.3-0.8-0.6-1.1
					c-0.2-0.3-0.5-0.6-0.8-0.8c-0.3-0.2-0.6-0.4-0.9-0.5c-0.3-0.1-0.6-0.2-1-0.3c-0.4-0.1-0.7-0.1-0.9-0.1c-0.2,0-0.5,0-0.8,0h-4.8
					L450.5,1072.2L450.5,1072.2z"/>
				<path id="XMLID_00000124141488389052480970000001709558002830001799_" class="st0" d="M482.6,1060.8h2.9v23.9h-2.9V1060.8z"/>
				<path id="XMLID_00000156549322113678355720000014289971621690504849_" class="st0" d="M504.7,1060.8h8.4c0.8,0,1.6,0.1,2.2,0.3
					s1.2,0.4,1.7,0.7c0.4,0.3,0.8,0.6,1.2,1c0.3,0.4,0.6,0.7,0.8,1.1c0.2,0.3,0.3,0.7,0.4,1.1c0.1,0.4,0.2,0.7,0.2,1s0,0.5,0,0.7
					c0,1-0.3,1.9-1,2.9c-0.7,1-1.4,1.6-2.1,1.9c1.5,0.3,2.7,1,3.6,2.2c1,1.2,1.4,2.5,1.4,4c0,0.3,0,0.7-0.1,1.1s-0.2,0.8-0.4,1.3
					c-0.2,0.5-0.4,0.9-0.7,1.4c-0.3,0.4-0.7,0.9-1.2,1.3c-0.5,0.4-1,0.8-1.7,1.1c-0.6,0.3-1.4,0.6-2.3,0.8c-0.9,0.2-1.9,0.3-3,0.3
					h-7.8L504.7,1060.8L504.7,1060.8z M507.6,1063v8c0.2,0,0.6,0,1.1,0s0.9,0,1.2,0s0.7,0,1.2-0.1c0.5,0,0.9-0.1,1.3-0.1
					s0.7-0.1,1.2-0.2c0.5-0.1,0.8-0.2,1.1-0.4s0.6-0.3,0.9-0.5c0.3-0.2,0.6-0.5,0.8-0.7s0.3-0.6,0.5-1s0.2-0.8,0.2-1.2
					c0-0.3,0-0.7-0.1-1c-0.1-0.3-0.2-0.6-0.4-1c-0.2-0.3-0.5-0.6-0.8-0.9c-0.3-0.2-0.8-0.4-1.4-0.6s-1.3-0.2-2-0.2L507.6,1063
					L507.6,1063z M507.6,1073.2v8.9h4.5c0.4,0,0.7,0,1,0s0.7,0,1.2-0.1c0.5-0.1,1-0.2,1.3-0.2s0.8-0.3,1.2-0.5
					c0.5-0.2,0.8-0.5,1.1-0.8c0.3-0.3,0.5-0.7,0.7-1.2c0.2-0.5,0.3-1,0.3-1.6c0-1.5-0.6-2.7-1.7-3.5c-1.2-0.8-2.7-1.3-4.7-1.3
					C512.2,1073,510.6,1073.1,507.6,1073.2z"/>
				<path id="XMLID_00000003086905042249512430000014788608953276350386_" class="st0" d="M539,1060.8h2.9v15.5
					c0,0.9,0.1,1.8,0.2,2.5c0.2,0.7,0.5,1.3,1,1.9c1.1,1.3,2.8,1.9,5,1.9c1.6,0,2.9-0.3,4-1c1.1-0.7,1.7-1.7,2.1-2.9
					c0.1-0.6,0.2-1.4,0.2-2.3v-15.5h2.8c0,3.6,0,6.5,0,8.8c0,2.3,0,3.8,0,4.4s0,1.2,0,1.6s0,0.7,0,1c0,0.5,0,1,0,1.3
					c0,0.4-0.1,0.9-0.2,1.5c-0.1,0.6-0.3,1.2-0.5,1.6c-0.2,0.5-0.6,1-1,1.5c-0.5,0.5-1,1-1.6,1.3c-0.6,0.3-1.4,0.6-2.4,0.8
					c-1,0.2-2.1,0.3-3.3,0.3c-1.3,0-2.5-0.1-3.5-0.4c-1-0.3-1.9-0.6-2.5-1s-1.1-0.8-1.5-1.4s-0.7-1-0.9-1.4
					c-0.2-0.4-0.3-0.8-0.4-1.2c-0.2-0.7-0.3-1.8-0.3-3.2L539,1060.8L539,1060.8z"/>
				<path id="XMLID_00000181088621875788226460000003823581467246870696_" class="st0" d="M572.5,1060.8h18.8v2.5h-8v21.4h-2.9
					v-21.4h-8L572.5,1060.8L572.5,1060.8z"/>
				<path id="XMLID_00000142166794719696456490000014858623971777781173_" class="st0" d="M616.7,1060.6c1.6,0,3.1,0.3,4.4,0.8
					c1.4,0.6,2.6,1.3,3.6,2.3s1.8,2.3,2.4,3.8c0.6,1.5,0.9,3.2,0.9,5c0,2.4-0.5,4.6-1.5,6.5c-1,1.9-2.3,3.4-4,4.4s-3.7,1.6-5.8,1.6
					c-1.4,0-2.8-0.3-4.1-0.8s-2.5-1.2-3.5-2.2s-1.9-2.2-2.5-3.8s-0.9-3.3-0.9-5.3c0-1.8,0.3-3.5,0.9-5.1c0.6-1.5,1.4-2.8,2.4-3.9
					s2.2-1.9,3.6-2.4C613.5,1060.8,615,1060.6,616.7,1060.6z M616.5,1063.1c-1,0-2,0.2-2.9,0.6s-1.8,0.9-2.6,1.7
					c-0.8,0.7-1.4,1.7-1.9,3c-0.5,1.2-0.7,2.6-0.7,4.2c0,1.5,0.2,2.9,0.7,4.1s1,2.3,1.8,3.2c0.8,0.8,1.6,1.5,2.7,2
					c1,0.5,2.1,0.7,3.3,0.7c0.8,0,1.6-0.1,2.3-0.3c0.8-0.2,1.5-0.6,2.2-1.1c0.7-0.5,1.3-1.1,1.9-1.9c0.5-0.7,1-1.7,1.3-2.7
					s0.5-2.3,0.5-3.6c0-1.3-0.2-2.5-0.5-3.6c-0.3-1.1-0.8-2-1.3-2.8s-1.2-1.4-1.9-1.9c-0.7-0.5-1.5-0.9-2.3-1.1
					C618.1,1063.2,617.3,1063.1,616.5,1063.1z"/>
				<path id="XMLID_00000167388451393996381830000010326924124210781882_" class="st0" d="M661.1,1067.4c0,0.8-0.1,1.6-0.3,2.3
					s-0.5,1.4-0.9,2.1s-1,1.2-1.7,1.7c-0.7,0.5-1.5,0.8-2.5,1.1l6.8,10.3h-3.2l-6.5-10h-4.6v10h-2.9v-23.9h8.8c0.4,0,0.8,0,1.1,0
					s0.7,0.1,1.2,0.2c0.5,0.1,1,0.2,1.3,0.4c0.4,0.2,0.8,0.4,1.2,0.7c0.4,0.3,0.8,0.7,1.1,1.2c0.3,0.4,0.5,1,0.7,1.7
					C661,1065.7,661.1,1066.5,661.1,1067.4z M648.2,1072.2h4.1c0.6,0,1.1,0,1.5-0.1c0.4,0,1-0.2,1.5-0.3c0.6-0.2,1.1-0.4,1.5-0.7
					c0.4-0.3,0.7-0.8,1-1.3c0.3-0.6,0.4-1.3,0.4-2.1c0-0.6-0.1-1.1-0.2-1.6c-0.2-0.5-0.3-0.8-0.6-1.1c-0.2-0.3-0.5-0.6-0.8-0.8
					c-0.3-0.2-0.6-0.4-0.9-0.5c-0.3-0.1-0.6-0.2-1-0.3c-0.4-0.1-0.7-0.1-0.9-0.1s-0.5,0-0.8,0h-4.8L648.2,1072.2L648.2,1072.2z"/>
				<path id="XMLID_00000052100160989093796560000010029221353934019490_" class="st0" d="M688.8,1060.6c1.8,0,3.8,0.3,5.9,1
					l-0.9,2.6c-2-0.6-3.8-0.9-5.2-0.9c-1.7,0-3.1,0.3-4.2,1.1c-1.2,0.7-1.7,1.6-1.7,2.7c0,0.6,0.2,1.2,0.5,1.7s0.9,0.9,1.5,1.2
					c0.6,0.3,1.3,0.6,2.1,0.9s1.6,0.6,2.4,0.8c0.8,0.2,1.6,0.6,2.4,0.9c0.8,0.4,1.5,0.8,2.1,1.2c0.6,0.4,1.1,1.1,1.5,1.8
					c0.4,0.7,0.6,1.6,0.6,2.5c0,0.6-0.1,1.3-0.3,1.9s-0.5,1.3-1,1.9c-0.5,0.6-1,1.2-1.8,1.6s-1.6,0.8-2.6,1.1s-2.2,0.4-3.5,0.4
					s-2.5-0.1-3.6-0.4s-2.3-0.7-3.7-1.2l1-2.8c2.8,1,5,1.6,6.7,1.6c1.7,0,3.1-0.3,4.2-1c1.1-0.7,1.6-1.6,1.6-2.7
					c0-0.8-0.2-1.4-0.7-2c-0.5-0.6-1.1-1-1.8-1.3c-0.8-0.3-1.6-0.7-2.5-1c-0.9-0.3-1.8-0.6-2.8-1c-0.9-0.3-1.8-0.7-2.5-1.2
					c-0.8-0.4-1.4-1.1-1.8-1.8c-0.5-0.8-0.7-1.7-0.7-2.7c0-0.9,0.2-1.8,0.7-2.6s1.1-1.6,1.8-2.2c0.8-0.6,1.8-1.1,2.9-1.5
					C686.2,1060.8,687.4,1060.6,688.8,1060.6z"/>
			</g>
		</g>
	</g>
	<g>
		<g>
			<g>
				<g>
					<g id="XMLID_1411_">
						<g id="XMLID_1446_">
							<path id="XMLID_1461_" class="st0" d="M337,975.9c6.5,6.5,12.9,13.1,19.4,19.6c2.7,2.7,6.5,4.2,10.2,4.2c0,1.2,0,1.8,0,3
								c-7.7,0-11.6,0-19.4,0c-6.9-7.5-13.8-15-20.8-22.5c-2.8-3-4.8-3.8-6.5-3.8c0.1,5.8,0.2,8.7,0.3,14.5
								c0.2,7.3,1.7,8.8,12.1,8.8c0,1.2,0,1.8,0.1,3c-10.9,0-21.7,0-32.6,0c0-1.2,0-1.8-0.1-3c7.2,0,8.6-1.5,8.4-8.5
								c-0.3-11.4-0.5-22.8-0.7-34.2c-0.1-6.9-1.1-8.1-7.9-8.4c0-1.2,0-1.8,0-3c9.5,0,19.1,0,28.6,0c9-0.4,25,2.4,25.1,14.2
								C353.4,969.5,345.7,974.5,337,975.9z M320,972c2.1,0,3.2,0,5.4,0c7.4,0.5,15.6-3.1,15.2-11.6c-0.2-6.1-4.6-10.5-12.2-10.5
								c-2.9,0-4.3,0-7.2,0c-0.9,0-1.5,0.5-1.5,1.3C319.7,958.1,319.8,965.1,320,972z"/>
							<path id="XMLID_1459_" class="st0" d="M393.4,971.2c6.9,0.2,17.1,0.4,16.9-9c1.2,0,1.8,0,3,0c0,7.2,0.1,14.4,0.2,21.6
								c-1.2,0-1.8,0-3,0c-0.4-9.3-10-9-17-8.8c0.1,6.1,0.1,9.1,0.2,15.2c0.1,6.3,3.6,8.3,14,8.4c9.5,0.1,16.9-2.8,18.6-12.9
								c1.3,0,2,0,3.2,0c-0.5,6.8-0.7,10.2-1.1,16.9c-18.4,0-36.7,0-55.1,0.1c0-1.2,0-1.8,0-3c7.2-0.2,8.5-1.5,8.4-8.4
								c-0.2-11.4-0.3-22.8-0.4-34.1c-0.1-6.9-1.2-8.1-7.8-8.4c0-1.2,0-1.8,0-3c17.2,0,34.4-0.1,51.6,0c0.2,5.8,0.4,8.7,0.6,14.5
								c-1.4,0-2.1,0-3.5,0c-1.2-9-8.7-10.7-16.7-10.5c-3.7,0-5.5,0-9.2,0c-2.8,0-3.1,0.4-3.1,2.7
								C393.3,959.9,393.3,963.7,393.4,971.2z"/>
							<path id="XMLID_1457_" class="st0" d="M462.1,971.1c6.9,0.2,17,0.4,16.9-9c1.2,0,1.8,0,3,0c0,7.2,0,14.4,0,21.6
								c-1.2,0-1.8,0-3,0c-0.3-9.3-9.9-9.1-16.9-8.9c0,6.1,0,9.1,0.1,15.2c0,6.3,3.6,8.3,13.9,8.4c9.5,0.1,16.8-2.8,18.7-12.8
								c1.3,0,1.9,0,3.2,0c-0.5,6.8-0.8,10.2-1.3,16.9c-18.3,0-36.6,0-54.8,0c0-1.2,0-1.8,0-3c7.2-0.2,8.5-1.5,8.5-8.4
								c-0.1-11.4-0.1-22.8-0.2-34.1c0-6.9-1.2-8.1-7.7-8.4c0-1.2,0-1.8,0-3c17.1,0,34.2,0,51.4,0c0.2,5.8,0.3,8.7,0.6,14.5
								c-1.4,0-2.1,0-3.5,0c-1.1-9-8.6-10.7-16.6-10.6c-3.7,0-5.5,0-9.2,0c-2.8,0-3.1,0.4-3.1,2.7
								C462.1,959.8,462.1,963.6,462.1,971.1z"/>
							<path id="XMLID_1455_" class="st0" d="M561.5,1003.3c-11.8-15.6-23.8-31.1-35.7-46.6c-0.1,0-0.2,0-0.3,0
								c0,10.6,0,21.2,0,31.8c0,9.8,1.2,10.9,8.4,11.2c0,1.2,0,1.8,0,3c-8,0-16,0-24,0c0-1.2,0-1.8,0-3c7.9-0.2,9.3-1.5,9.3-10.6
								c0-9.9,0-19.8,0-29.7c0-8.3-1.2-10.3-8.5-10.6c0-1.2,0-1.8,0-3c7.6,0,15.1,0,22.7,0c10.9,14.2,21.8,28.4,32.6,42.7
								c0.1,0,0.2,0,0.3,0c0.1-9.5,0.1-19,0.1-28.6c0-9.8-1.2-10.9-8.4-11.2c0-1.2,0-1.8,0-3c8,0,16.1,0,24.2,0c0,1.2,0,1.8,0,3
								c-8,0.2-9.4,1.5-9.4,10.6c-0.1,14.7-0.2,29.3-0.3,44C568.1,1003.3,565.9,1003.3,561.5,1003.3z"/>
							<path id="XMLID_1453_" class="st0" d="M648.8,1002.7c-18.7-0.1-37.3-0.1-56-0.1c0-1.2,0-1.8,0-3c7.2-0.2,8.5-1.5,8.6-8.4
								c0.1-11.4,0.2-22.8,0.3-34.1c0-6.9-1.1-8.1-7.6-8.4c0-1.2,0-1.8,0-3c9.4,0,18.8,0,28.2,0c0,1.2,0,1.8,0,3
								c-7.3,0.2-8.5,1.5-8.5,8.9c-0.1,10.3-0.2,20.6-0.3,31c-0.9,8.8,8,10.2,14.6,10c9.2-0.2,17-2.5,19.1-12.7c1.3,0,2,0,3.3,0
								C649.8,992.7,649.5,996,648.8,1002.7z"/>
							<path id="XMLID_1451_" class="st0" d="M690.1,1002.8c-9.7,0-19.5,0-29.2-0.1c0-1.2,0-1.8,0.1-3c7.3-0.2,8.6-1.5,8.8-10.6
								c0.2-9.9,0.3-19.8,0.5-29.7c0.1-8.3-1-10.3-7.7-10.7c0-1.2,0-1.8,0-3c9.2,0,18.5,0,27.7,0c0,1.2,0,1.8,0,3
								c-6.8,0.3-7.8,2.3-8,10.6c-0.1,9.9-0.3,19.8-0.5,29.7c-0.2,9.2,1,10.4,8.4,10.7C690.1,1001,690.1,1001.6,690.1,1002.8z"/>
							<path id="XMLID_1449_" class="st0" d="M754.9,1003.7c-11.7-15.7-23.5-31.2-35.5-46.7c-0.1,0-0.2,0-0.3,0
								c-0.2,10.6-0.4,21.2-0.7,31.8c-0.2,9.8,0.9,11,8.3,11.2c0,1.2,0,1.8-0.1,3c-8.1,0-16.3,0-24.4,0c0-1.2,0-1.8,0.1-3
								c8-0.2,9.5-1.5,9.7-10.6c0.2-9.9,0.4-19.8,0.6-29.7c0.1-8.3-1.1-10.3-8.5-10.7c0-1.2,0-1.8,0-3c7.7,0,15.4,0,23.1,0
								c10.9,14.2,21.8,28.5,32.5,42.8c0.1,0,0.2,0,0.3,0c0.3-9.5,0.6-19.1,0.8-28.7c0.2-9.8-1-11-8.5-11.2c0-1.2,0-1.8,0-3
								c8.3,0,16.6,0,24.9,0c0,1.2,0,1.8-0.1,3c-8.2,0.2-9.7,1.5-9.9,10.7c-0.4,14.7-0.8,29.4-1.3,44.2
								C761.5,1003.7,759.3,1003.7,754.9,1003.7z"/>
							<path id="XMLID_1447_" class="st0" d="M809.3,971.4c7.1,0.2,17.6,0.5,17.9-9.1c1.3,0,1.9,0,3.1,0c-0.2,7.2-0.5,14.5-0.8,21.8
								c-1.2,0-1.9,0-3.1,0c0-9.5-10.2-9.1-17.2-8.9c-0.2,6.1-0.3,9.2-0.6,15.3c-0.3,6.4,3.2,8.4,14,8.5c9.8,0.1,17.6-2.8,20.1-13
								c1.4,0,2,0,3.4,0c-0.9,6.8-1.3,10.2-2.2,17c-19,0-37.9,0-56.9,0c0-1.2,0.1-1.8,0.1-3c7.4-0.2,8.8-1.5,9.1-8.5
								c0.5-11.4,0.8-22.8,1.1-34.2c0.2-6.9-1-8.2-7.7-8.4c0-1.2,0-1.8,0.1-3c17.9,0,35.7-0.1,53.6-0.1c0.1,5.8,0.1,8.7,0.1,14.5
								c-1.5,0-2.2,0-3.7,0c-0.9-9.3-9-10.8-17-10.6c-3.8,0-5.8,0-9.6,0c-2.9,0-3.2,0.4-3.3,2.8
								C809.7,960.1,809.6,963.8,809.3,971.4z"/>
						</g>
						<g id="XMLID_1412_">
							<g>
								<path id="XMLID_1413_" class="st0" d="M174.2,964.6c-0.4-30.5,28.5-52.7,57.4-51.7c12.5,0.4,23.3,3.9,34.5,9.2
									c1.1-3.1,1.6-4.7,2.7-7.8c2.1,0,3.1,0,5.2,0c0.1,10.7,0.2,21.4,0.3,32c-2.9,0-4.3,0-7.1,0c-3.9-15.9-17.8-25.1-33.7-25.1
									c-23.5,0-34.8,21.4-34.1,42.5c0.7,21.4,13.5,40.4,36.3,41c12.2,0.3,25.1-7.5,24.9-20.8c-0.1-8.2-8-11.9-15.3-11.9
									c-0.1-2-0.1-3-0.1-5.1c15.4,0,30.8,0,46.2,0c0,2,0.1,3,0.1,5.1c-8-0.8-13.1,4.6-12,12.6c0.2,6.8,0.3,10.1,0.5,16.9
									c-7.5-0.4-13.9,2.3-20.2,6.1c-8.3,4.3-17.9,5.6-27.1,5.7C204.7,1013.5,174.6,995,174.2,964.6z"/>
								<path class="st3" d="M215.9,1012.4c-22.3-5.1-43-23.5-42.8-47.8l0,0c1.2-15.7,6.2-27.2,16.9-37.6
									c10.4-10.2,26.9-15.9,41.6-15.1c12.1,0.7,22.5,3.7,33.9,8.8c0.8-2.4,1.4-4,2.3-6.7c0.1-0.3,0.1-0.4,0.2-0.7
									c0.3,0,0.4,0,0.7,0c2.1,0,3.1,0,5.2,0c0.4,0,0.6,0,1,0c0.1,11.3,0.2,22.7,0.4,34.1c-0.4,0-0.6,0-1,0c-2.9,0-4.3,0-7.1,0
									c-0.3,0-0.5,0-0.8,0c-0.1-0.3-0.1-0.5-0.2-0.8c-3.7-15.4-17.3-24.3-32.7-24.3c-8.1,0-16.4,2.6-22.4,8.2
									c-9,8.5-10.8,22-10.7,33.3c0.1,20,13,39.7,35.2,39.9c11.4,0.1,24-7.1,23.9-19.8c-0.1-7.6-7.6-10.9-14.3-10.9
									c-0.4,0-0.6,0-1-0.1c-0.1-2.8-0.1-4.2-0.2-7c0.4,0,0.6,0,1.1,0c15.4,0,30.8,0,46.2,0c0.4,0,0.6,0,1.1,0
									c0.1,2.8,0.1,4.2,0.1,7.1c-0.4,0-0.6,0-1.1,0c-4.4,0-7,0.7-8.7,2.2c-1.7,1.7-2.5,4.5-2.3,9.3c0.2,7.2,0.3,10.7,0.5,17.9
									c-0.4,0-0.7,0-1.1,0c-7.3-0.4-13.6,2.6-19.6,6c-8.2,4.6-18.2,5.5-27.6,5.9C227,1014.4,221.2,1013.6,215.9,1012.4z
									 M175.3,964.6c0.4,29.9,30.4,48.5,57.2,47.5c9-0.3,18.6-1.2,26.6-5.6c6-3.4,12.4-6.5,19.6-6.2c-0.2-6.3-0.3-9.5-0.5-15.9
									c-0.1-5.3,0.8-8.7,3-10.7c1.9-1.8,4.7-2.7,9.1-2.8c0-1.2,0-1.8-0.1-3.1c-14.7,0-29.4,0-44.1,0c0,1.2,0.1,1.9,0.1,3.1
									c7.6,0.2,15.3,4.5,15.4,12.8c0.2,14.4-12.8,21.9-26,21.8c-23.8-0.1-37.7-19.8-37.4-42c0.1-12,1.9-25.9,11.4-34.8
									c6.4-6,15.2-8.8,23.8-8.8c16,0,30.3,9.2,34.5,25.1c2,0,3.3,0,5.3,0c-0.1-10-0.2-20-0.3-30c-1.2,0-2.1,0-3.4,0
									c-0.9,2.7-1.5,4.3-2.4,7.2c-0.1,0.5-0.2,0.7-0.4,1.1c-0.4-0.2-0.6-0.3-1.1-0.5c-11.4-5.2-21.8-8.4-34-9.1
									c-13.9-0.8-30.2,4.6-40.1,14.5C181.2,938.7,176.4,949.5,175.3,964.6L175.3,964.6z"/>
							</g>
						</g>
					</g>
					<path id="XMLID_1409_" class="st7" d="M277.2,971.2c0,0-2.3,0.1-2.5,6.5s-0.6,18.1-0.6,18.1c0.9,0.6,1.3,0.8,2.1,1.4
						c-0.9-7.5-3.6-21.8,3.4-26.8C278.7,970.8,278.2,970.9,277.2,971.2z"/>
					<path id="XMLID_1408_" class="st7" d="M304,947.6c0,0,5.1,1.6,4.8,4.4c-1.4,13.4,0.3,28.9,0.9,43.2c0.6,0.6,0.9,1,1.4,1.6
						c-0.4-15.1-0.7-30.2-1-45.3C310.2,951.6,309.9,946.9,304,947.6z"/>
					<path id="XMLID_1407_" class="st7" d="M326.6,978.6c6.4,6.9,12.9,13.7,19.5,20.4c1.1,0.4,1.7,0.6,2.8,1
						c-6.4-6.7-12.6-13.5-18.9-20.4C328.7,979.2,328,979,326.6,978.6z"/>
					<path id="XMLID_1406_" class="st7" d="M348,953.7c0,0,5.3,8.8-2.4,15.3C345.7,969,358.2,963.1,348,953.7z"/>
					<path id="XMLID_1405_" class="st7" d="M446.6,948c0,0,4.3,0.1,4.7,3.8c1.4,13.5,0.2,28.3,0,42.5c0.4,0.6,0.5,0.8,0.9,1.4
						c0.1-14.6,0.2-29.2,0.4-43.8C452.6,951.8,452.2,946.8,446.6,948z"/>
					<path id="XMLID_1404_" class="st7" d="M496.8,987.7c-1.2,5.3-1.8,8-2.9,13.3c0.6,0,0.9,0.1,1.5,0.1
						C496,995.8,496.2,993.1,496.8,987.7z"/>
					<path id="XMLID_1403_" class="st7" d="M473,974.5c0,0,6.5-0.5,6.2,6.8C479.3,981.3,481.4,972.8,473,974.5z"/>
					<path id="XMLID_1402_" class="st7" d="M485.8,947.1c2.7,0,4,0.1,6.7,0.1c0,1.8,0,2.7-0.1,4.6
						C492.4,951.7,493.5,947.5,485.8,947.1z"/>
					<path id="XMLID_1401_" class="st7" d="M377.8,948c0,0,4.4,0.1,4.8,3.7c1.6,13.5,0.7,28.4,0.9,42.5c0.4,0.6,0.5,0.8,0.9,1.4
						c-0.2-14.6-0.3-29.2-0.5-43.8C383.9,951.7,383.5,946.7,377.8,948z"/>
					<path id="XMLID_1400_" class="st7" d="M428.9,987.1c-1.1,5.3-1.6,8-2.7,13.4c0.6,0,0.9,0.1,1.6,0.1
						C428.2,995.1,428.5,992.4,428.9,987.1z"/>
					<path id="XMLID_1399_" class="st7" d="M404.9,974.1c0,0,6.5-0.6,6.4,6.7C411.2,980.8,413.2,972.4,404.9,974.1z"/>
					<path id="XMLID_1398_" class="st7" d="M417.1,946.5c2.7,0,4,0,6.7,0c0,1.8,0,2.7,0,4.6C423.8,951.2,424.9,946.9,417.1,946.5z"
						/>
					<path id="XMLID_1397_" class="st7" d="M524.3,950.2c12.5,16.4,25.3,32.6,38.5,48.5c1.7,0.1,2.5,0.1,4.2,0.2
						C552.4,983,538.2,966.8,524.3,950.2z"/>
					<path id="XMLID_1396_" class="st7" d="M271.1,916.7c-0.2,0.5-0.4,0.7-0.6,1.2c0,8.5,0,16.9,0.1,25.4c0.3,0,0.4,0.1,0.7,0.1
						C271.2,934.6,271.2,925.7,271.1,916.7z"/>
					<path id="XMLID_1395_" class="st7" d="M514.6,1000.1c0,0,6-0.8,6-8.1C520.5,992,522.5,1001.3,514.6,1000.1z"/>
					<path id="XMLID_1394_" class="st7" d="M596.9,948c0,0,6.2-0.1,6.2,3.6c-0.2,14.4,0.1,29.1,0.2,43.7c0.4,0.4,0.5,0.7,0.9,1.1
						c0-15,0-30.1,0-45.1C604.1,951.3,603.7,946.4,596.9,948z"/>
					<path id="XMLID_1393_" class="st7" d="M633.9,1000c0,0,11.9,1,12.6-8.8c0,0-1.9,7.5-12.7,8.2"/>
					<path id="XMLID_1392_" class="st7" d="M684.7,948.3c0,0-3.9,1.3-3.7,3.8c1.2,13.6-0.4,28.9-1,43.3c-0.5,0.3-0.7,0.4-1.2,0.7
						c0.4-14.7,0.7-29.5,0.9-44.2C679.7,951.8,678.8,949.9,684.7,948.3z"/>
					<path id="XMLID_1391_" class="st7" d="M662.1,1000.5c0,0,7.5,1.3,8.4-6.7C670.5,993.8,671.4,1002.1,662.1,1000.5z"/>
					<path id="XMLID_1360_" class="st7" d="M717.3,956.1c-0.4,12.3-0.8,24.6-1.3,36.9c0.5,0.6,0.7,0.9,1.2,1.5
						c0.3-13,0.7-26.1,0.9-39.1C717.8,955.7,717.7,955.8,717.3,956.1z"/>
					<path id="XMLID_1359_" class="st7" d="M722.3,947.4c1.7,0,2.6-0.1,4.3-0.1c10.4,14.4,20.9,28.7,31.7,42.8
						C746,976,734,961.8,722.3,947.4z"/>
					<path id="XMLID_1358_" class="st7" d="M765.1,957.3c-0.5,10.8-0.9,21.5-1.5,32.2c0.2,0.7,0.3,1.1,0.5,1.8
						c0.7-11.3,1.4-22.7,1.9-34C765.7,957.3,765.5,957.3,765.1,957.3z"/>
					<path id="XMLID_1357_" class="st7" d="M808.8,948.2c0,0-2.1,0.9-2.1,3.8c-0.2,13.7-0.7,27.5-1.2,41.2c0.7-0.4,1.1-0.6,1.9-1
						c0.2-13.4,0.4-26.9,0.5-40.3C808.2,950.3,808.4,949.6,808.8,948.2z"/>
					<path id="XMLID_1356_" class="st7" d="M831.6,949.5c0,0,8-0.8,8.7,8.4C840.3,957.9,843.6,947.3,831.6,949.5z"/>
					<path id="XMLID_1355_" class="st7" d="M829.4,963.3c-0.3,0.3-0.4,0.4-0.7,0.7c-0.3,7.5-0.4,11.2-0.7,18.7
						c0.2,0.4,0.2,0.6,0.4,1C828.8,976.9,829.1,970.1,829.4,963.3z"/>
					<path id="XMLID_1354_" class="st7" d="M835.3,1001.2c2.4-0.3,3.6-0.4,6-0.7c1-2.9,1.4-4.3,2.4-7.2c-0.4,3.4-0.6,5.1-1,8.5
						C839.7,1001.5,838.2,1001.4,835.3,1001.2z"/>
				</g>
			</g>
		</g>
		<path id="XMLID_34_" class="st7" d="M186.9,939.8c0,0-20.6,44.2,14.5,59C201.4,998.7,176.9,983.9,186.9,939.8z"/>
	</g>
	<g>
		<path id="XMLID_1026_" class="st2" d="M184.5,1036.7c0-1.8,1.5-3.3,3.3-3.3c1.8,0,3.3,1.5,3.3,3.3c0,1.8-1.5,3.3-3.3,3.3
			C186,1040,184.5,1038.5,184.5,1036.7z"/>
		<path id="XMLID_1024_" class="st1" d="M913.3,969.5c0,0-4.8,2.9-7.4,15.7c-2.6,12.8-20.5,32.1-36.6,35c0,0-6.4-29.8,30.5-45.5
			L913.3,969.5z"/>
		<polygon id="XMLID_1023_" class="st1" points="199.1,1035.6 199.8,1037.8 840.8,1037.8 853,1039.4 843.7,1036.2 861.7,1030.4 
			890.7,1025.2 891.8,1023 866.2,1027.6 860.8,1028.6 873.2,1018 871.9,1015.4 856.2,1028.5 841,1033 		"/>
		<path id="XMLID_1022_" class="st1" d="M964.9,999.3c0,0-9,4.8-15.7,12.8c-6.7,8-23.4,22.8-60.3,13.5c0,0,15.7-27.6,50.3-27.9
			S964.9,999.3,964.9,999.3z"/>
		<path id="XMLID_1021_" class="st1" d="M862.7,1034.1c0,0,21.9-9.4,50.4,17.8c0,0-2.7-0.6-13.7,1.4c-10.9,1.9-29.7,5.3-51.4-13.7
			l-4.3-3.4C843.7,1036.2,852.7,1038,862.7,1034.1z"/>
		<path id="XMLID_1019_" class="st6" d="M903.5,978.8c0,0-7.3,31-29.4,36.9l11-16.5l-12.1,13.3C873.1,1012.4,874.4,982,903.5,978.8z
			"/>
		<path id="XMLID_925_" class="st6" d="M904.5,1017.8l-6.7,2.2c0,0,11.4-20.2,55.7-17.6c0,0-18.5,28.6-55.1,20.6l31.5-10.9
			L904.5,1017.8z"/>
		<path id="XMLID_894_" class="st6" d="M867.5,1036c0,0,16.8-2.4,29.7,7.4l8,6.1c0,0-11.9,4.8-31.7,1.4
			c-17.7-3.1-14.5-10.9-14.5-10.9l32.2,6.2l-30.8-8.2C860.5,1037.9,864.8,1036.4,867.5,1036z"/>
	</g>
</g>
<g>
	<circle id="XMLID_00000116932567999084329540000003826601017008241850_" class="st0" cx="812.9" cy="1378.1" r="141.3"/>
	<path id="XMLID_00000029022356267471291790000015437927452425771661_" class="st1" d="M812.9,1513.2
		c-74.5,0-135.1-60.6-135.1-135.2s60.6-135.2,135.2-135.2s135.2,60.6,135.2,135.2C948.1,1452.6,887.4,1513.2,812.9,1513.2z
		 M812.9,1251.5c-69.8,0-126.6,56.8-126.6,126.6s56.8,126.6,126.6,126.6s126.6-56.8,126.6-126.6S882.7,1251.5,812.9,1251.5z"/>
	<path id="XMLID_00000051372317755295167070000007589323279623306172_" class="st1" d="M812.9,1457.8c-43.9,0-79.7-35.7-79.7-79.7
		c0-43.9,35.7-79.7,79.7-79.7s79.7,35.7,79.7,79.7C892.6,1422,856.9,1457.8,812.9,1457.8z M812.9,1306.9
		c-39.2,0-71.1,31.9-71.1,71.1s31.9,71.1,71.1,71.1c39.2,0,71.1-31.9,71.1-71.1C884.1,1338.8,852.2,1306.9,812.9,1306.9z"/>
	<g id="XMLID_00000063620193059908036660000004592350816303446923_">
		<g>
			<path id="XMLID_00000131362219637663439240000014949816332765692859_" class="st6" d="M708.3,1343.1c-4-1-5.6-0.1-6.7,4
				c-0.9,3.4-0.8,5.9,0.1,7.4c1,1.6,4,3.7,8.2,4.7c7,1.8,12.1-0.9,13.7-7c1.1-4.2,0-4.8-3.1-5.6c-2.7-0.7-3.9,0.1-4.7,3.4
				c0,0.1-0.1,0.4-0.3,0.8l-1.7-1l2.8-10.8l1.7,1c-0.6,2.2,0.3,2.5,3.5,3.3l4.9,1.3c0.4,2.8,0.2,5.8-0.5,8.7
				c-2.2,8.3-8.7,12.1-16.8,9.9c-4.8-1.3-8.1-4-9.8-8c-1.5-3.5-1.2-7,0-11.5c0.4-1.7,1-3.4,1.7-5c1,0.3,2.4,0.7,4.2,1.1
				c0.3,0.1,1.3,0.3,2.9,0.7L708.3,1343.1z"/>
			<path id="XMLID_00000114034379542666890390000006125967165195821990_" class="st6" d="M745,1316.9l-3,4.3
				c-6.9-1.1-11.3-1.9-13.6-1.8c-1.2,0.1-2.2,0.8-3.2,2.1l5.9,4.1c2.9,2,4.2,1.8,6.8-1.4l1.1,1.4l-6.5,9.3l-1.1-1.4l0.2-0.2
				c1.3-1.9,0-3-3.9-5.7l-7.3-5.1c-5.1-3.6-6.7-4.6-9-1.8l-1.1-1.4c3.1-4.7,5-7.6,5.6-8.4c3.1-4.5,6.6-5.4,10.3-2.9
				c2.8,1.9,3.5,5.2,1.9,8.8c1.7-1.4,4.2-1.1,7.8-0.5c4.4,0.6,6.5,1.2,8.1-0.8L745,1316.9z M723.3,1320.2c0.6-0.7,1-1.3,1.2-1.6
				c2.1-3.1,1.9-5.5-0.7-7.3c-2.3-1.6-4.8-1.1-6.7,1.6c-1.3,1.9-0.7,2.6,1.5,4.1l1.2,0.8L723.3,1320.2z"/>
			<path id="XMLID_00000073710205810955912530000003132345580209547652_" class="st6" d="M753.3,1283.3l-1.5,1.8
				c-2.2-2.7-4-2.9-6.9-0.8c-3.4,2.6-3.2,3.3-1.4,5.7l3.5,4.7l2.3-1.7c2-1.4,2.6-2.3,1.4-4.2l1.2-1.6l5.2,7l-1.3,1.5
				c-2.1-2.5-3.1-2.5-5.5-0.7l-2,1.5l6.2,8.4c1.4-0.8,2.6-1.5,3.7-2.3c2.9-2.2,3.3-4.6,1.2-7.7l1.3-2l5.2,6.9l-15.3,11.4l-0.6-1.7
				l0.2-0.2c1.8-1.4,1-2.8-1.7-6.4l-5.2-7.1c-4-5.3-5.1-6.9-8.2-5l-0.6-1.7l14.9-11.1L753.3,1283.3z"/>
			<path id="XMLID_00000075854381820252284510000001433715362553292941_" class="st6" d="M786.8,1269.2l-2,1.3
				c-1.2-3.3-2.9-4.1-6.3-3c-4.1,1.3-4.1,2.1-3.2,4.9l1.8,5.6l2.7-0.9c2.3-0.8,3.2-1.3,2.7-3.5l1.7-1.1l2.7,8.3l-1.7,1
				c-1.2-3-2.2-3.3-5-2.4l-2.4,0.8l3.2,9.9c1.5-0.3,3-0.6,4.3-1c3.5-1.1,4.6-3.3,3.7-6.9l1.9-1.5l2.7,8.2l-18.2,5.9v-1.8l0.3-0.1
				c2.2-0.7,1.8-2.4,0.5-6.6l-2.7-8.4c-2-6.3-2.6-8.2-6.2-7.3v-1.8l17.6-5.7L786.8,1269.2z"/>
			<path id="XMLID_00000114779403432643104760000002826938919446641831_" class="st6" d="M815.4,1285.7l-0.6,1.7l-11-0.5l0.6-1.7
				l0.3,0c2.4,0.1,2.7-1.8,2.9-6.6l0.4-8.2c0.3-6.7,0.3-8.8-3.2-9l-0.2,0l0.6-1.7l5.8,0.3c5.3,8.2,10,15.3,14.3,21.4l0.5-12.8
				c0.2-5.2,0-6.2-5.4-6.5l0.6-1.7l11,0.5l-0.6,1.7l-0.3,0c-2.4-0.1-2.7,1.6-2.9,6.1l-0.7,14.5c-0.1,1.5-0.1,3.1-0.1,4.7l-2.2,0.6
				c-5.4-8.7-10.3-16-14.7-22.1l-0.5,12.9C809.8,1284.4,809.9,1285.5,815.4,1285.7z"/>
			<path id="XMLID_00000030459197909668767300000012508767124104115642_" class="st6" d="M859.2,1271.5c-3.8-1.3-4.4-0.4-5.9,3.3
				l-5.9,14.1c-0.1,0.2-0.3,0.8-0.7,2c1.2,0.7,2.5,1.4,3.9,2c3.4,1.4,5.5,0.5,7.2-3.1l2.4,0l-3.4,8.2l-17.5-7.3l1.1-1.4l0.3,0.1
				c2.2,0.9,3-0.7,4.8-5l3.4-8.2c2.4-5.8,3.1-7.5-0.1-9.1l1.1-1.4l10.5,4.4L859.2,1271.5z"/>
			<path id="XMLID_00000136389916160663607730000015234686940526381727_" class="st6" d="M887.9,1289.3l-0.2-0.2
				c-1.8-1.4-3.1-0.1-5.8,3.4l-5.4,6.9c-4,5.2-5.2,6.8-2.5,9.2l-1.5,1l-8-6.2l1.5-1l0.2,0.2c1.8,1.4,3,0.1,5.9-3.6l5.2-6.7
				c4.1-5.3,5.3-6.8,2.6-9.3l1.5-1l8,6.2L887.9,1289.3z"/>
			<path id="XMLID_00000039837060980892154990000010449743530990657922_" class="st6" d="M888,1324.2l-1.7,0.5l-6.2-9l1.7-0.6
				l0.2,0.3c1.4,2,3,1.1,7-1.7l6.8-4.7c5.5-3.8,7.2-5.1,5.2-8l-0.1-0.2l1.7-0.6l3.3,4.8c-3.4,9.2-6.2,17.3-8.4,24.3l10.5-7.3
				c4.2-3,5-3.7,1.9-8.2l1.7-0.5l6.2,9l-1.7,0.5l-0.2-0.2c-1.4-2-2.9-1.2-6.6,1.4l-12,8.2c-1.2,0.8-2.5,1.7-3.8,2.7l-1.8-1.3
				c3.7-9.6,6.5-17.9,8.7-25.1l-10.6,7.3C885.7,1319,884.9,1319.7,888,1324.2z"/>
			<path id="XMLID_00000058588192883691784650000012434392741306872216_" class="st6" d="M923.3,1359.4l-1.1-2.1
				c3.4-1,4.3-2.6,3.4-6.1c-1-4.1-1.8-4.2-4.7-3.5l-5.7,1.4l0.7,2.7c0.6,2.4,1.1,3.2,3.3,2.9l1,1.7l-8.5,2.1l-0.9-1.8
				c3.1-1,3.5-1.9,2.8-4.8l-0.6-2.4l-10.1,2.5c0.2,1.5,0.3,3,0.7,4.3c0.9,3.6,3,4.8,6.6,4.1l1.3,2l-8.4,2.1l-4.6-18.6l1.8,0.1
				l0.1,0.3c0.6,2.2,2.2,2,6.5,0.9l8.5-2.1c6.5-1.6,8.3-2.1,7.7-5.7l1.8,0.1l4.5,18L923.3,1359.4z"/>
		</g>
	</g>
	<g id="XMLID_00000100351007614759905510000015926334345341034117_">
		<g>
			<path id="XMLID_00000079446104564045139270000011882654930172474769_" class="st6" d="M704,1401.9c0.4,1.7,1.7,1.5,5,0.8l6.7-1.6
				c5.1-1.2,6.5-1.6,6-4.3l1.4,0.1c0.2,0.9,0.3,1.7,0.5,2.5c0.7,2.8,1.4,5.1,1.9,7c1.5,6.3-1.8,11-8,12.4c-2.9,0.7-5.7,0.4-7.8-0.7
				c-3-1.5-4.3-3.7-5.2-7.5c-0.5-2.3-0.8-4.7-1.4-7c-0.1-0.6-0.3-1.3-0.6-2.2l1.4,0.1L704,1401.9z M705.8,1406.3
				c0.1,1.8,0.3,3.3,0.5,4.3c1.1,4.6,5,6.5,10.2,5.2c5.5-1.3,8.2-5.2,7.2-9.7c-0.9-3.8-2.1-3.6-5-2.9L705.8,1406.3z"/>
			<path id="XMLID_00000118379242567135216660000016278363620160159398_" class="st6" d="M733.1,1430.5l-0.1-0.2
				c-0.8-1.6-2.1-1.1-5.2,0.4l-6.1,3.1c-4.5,2.3-5.9,3.1-4.8,5.6l-1.4,0.2l-3.5-7l1.4-0.2l0.1,0.2c0.8,1.6,2.1,1.1,5.3-0.6l5.8-3
				c4.6-2.3,6-3.1,4.9-5.7l1.4-0.2l3.5,7L733.1,1430.5z"/>
			<path id="XMLID_00000163765633976968233750000014109920229205372292_" class="st6" d="M740.7,1448.8l0.6-0.5
				c1.9-1.5,1.8-2.9,0.1-5.1c-1.5-1.9-3.3-2.2-4.7-1.2c-1.5,1.2-1.1,2.9-0.6,5.9c0.8,4.5,1.2,7-1.4,9.1c-3,2.4-6.5,1.7-9.5-2.2
				c-0.5-0.7-1.5-2.1-3.2-4.3l5.2-4.1l1.6,0.9l-0.4,0.3c-2.9,2.3-3.4,3.7-1.2,6.4c1.6,2,3.6,2.4,5.2,1.2c1.7-1.3,1.4-2.9,0.9-6.1
				c-0.7-4.4-1.4-6.9,1.2-9c2.6-2.1,5.8-1.5,8.7,2.2c0.6,0.8,1.6,2.2,3.2,4.4l-4,3.2L740.7,1448.8z"/>
			<path id="XMLID_00000103229189779594396310000003672612663819631524_" class="st6" d="M762.3,1466.9l-1.6-0.4
				c1.8-2.7,1.5-3.9-1.6-6.2l-0.5-0.3c-1,1.2-1.8,2.2-2.6,3.2l-5.7,7.4c-2.2,2.9-2.6,3.6,0.2,5.9l-1.1,0.8l-7.9-6l1.1-0.8
				c2.9,1.9,3.4,1.3,5.6-1.6l5.6-7.4c0.3-0.4,1.1-1.6,2.4-3.3l-0.3-0.2c-2.9-2.2-4.1-2.5-6.1-0.4l-1.6-0.4l3.4-4.5l13.6,10.3
				L762.3,1466.9z"/>
			<path id="XMLID_00000173131635810632669150000002374151001452363150_" class="st6" d="M779.1,1492.2l-3.7-1.5
				c-0.3-5.4-0.5-8.9-0.9-10.6c-0.2-0.9-1-1.5-2.2-2.1l-2.1,5.1c-1.1,2.6-0.6,3.5,2.2,4.9l-0.9,1.1l-8.1-3.3l0.9-1.1l0.2,0.1
				c1.7,0.7,2.3-0.5,3.7-3.9l2.6-6.4c1.8-4.5,2.4-5.8-0.1-7.1l0.9-1.1c4.1,1.6,6.5,2.5,7.3,2.8c3.9,1.6,5.2,4.1,3.9,7.3
				c-1,2.4-3.4,3.5-6.4,2.9c1.4,1.1,1.5,3,1.7,5.8c0.3,3.4,0.2,5.1,1.9,6L779.1,1492.2z M773,1476.4c0.7,0.3,1.1,0.5,1.4,0.7
				c2.7,1.1,4.5,0.5,5.4-1.8c0.8-2.1,0-3.8-2.3-4.8c-1.7-0.7-2.1-0.1-2.9,1.9l-0.4,1L773,1476.4z"/>
			<path id="XMLID_00000183966316634690007410000013408473313857916324_" class="st6" d="M800.6,1476.6l-0.2,0
				c-1.8-0.3-2.1,1-2.7,4.4l-1.2,6.7c-0.9,5-1.1,6.5,1.6,7.2l-0.6,1.2l-7.7-1.4l0.6-1.2l0.2,0c1.8,0.3,2.1-1,2.8-4.6l1.1-6.4
				c0.9-5.1,1.1-6.6-1.6-7.3l0.6-1.2l7.7,1.4L800.6,1476.6z"/>
			<path id="XMLID_00000132779734210804484070000012142391025059279780_" class="st6" d="M809.8,1496l0.2,0c1.8-0.1,1.9-1.4,1.7-4.8
				l-0.2-6.8c-0.2-5.2-0.3-6.7-3.1-6.8l0.4-1.3l1,0c2.6-0.1,4.6-0.4,6.1-0.4c4.3-0.2,6.5,1.7,6.7,4.9c0.1,2.1-1.1,3.9-3.2,4.7
				c3,0.6,4.7,2.4,4.8,5.2c0.1,3.7-2.2,6.4-6.5,6.6c-1.2,0.1-3.7-0.1-7.4,0.1l-0.8,0L809.8,1496z M814.2,1484.7c0.6,0,1.1,0,1.3,0
				c2.9-0.1,4.4-1.5,4.3-3.8c-0.1-2.2-1.4-3.4-3.9-3.3c-1.9,0.1-2,0.9-1.9,2.8l0,1.2L814.2,1484.7z M814.6,1495.2
				c0.9,0.2,1.8,0.3,2.7,0.3c2.7-0.1,4.1-1.9,4-4.5c-0.1-2.9-2-4.5-5.5-4.4c-0.5,0-1,0.1-1.5,0.2l0.1,3.5
				C814.4,1491.9,814.5,1493.5,814.6,1495.2z"/>
			<path id="XMLID_00000138553268778192372240000017371685116902445228_" class="st6" d="M839.9,1473.3c-3.2,1.1-3.3,2-2.2,5.3
				c0.2,0.8,0.6,1.7,0.9,2.8l1,3.3c1.4,4.3,2.9,6.9,6.9,5.7c1.5-0.5,2.4-1.2,3-2.3c0.9-1.6,0.4-3.3-0.4-5.8l-2-6.2
				c-1-3.2-1.3-4.2-4.3-3.6l0-1.4l6.7-2.1l0,1.4c-1.6,0.5-1.3,1.9-0.3,5l1.7,5.2c1,3.1,1.7,5.4,0.8,7.6c-0.7,2-2.5,3.4-5.2,4.3
				c-2.2,0.7-4.4,0.5-6-0.5c-1.9-1.1-2.5-3-3.3-5.6l-1.4-4.4c-1.4-4.3-2-6.1-4.4-5.8l0-1.4l8.6-2.7L839.9,1473.3z"/>
			<path id="XMLID_00000167390393381922492820000015558930733306576553_" class="st6" d="M872.6,1460.5l-0.9,1.3
				c-2-2.6-3.2-2.7-6.4-0.6l-0.5,0.3c0.8,1.3,1.5,2.4,2.2,3.5l5.2,7.8c2,3.1,2.6,3.6,5.6,1.8l0.4,1.3l-8.3,5.5l-0.5-1.3
				c2.8-2.1,2.3-2.8,0.3-5.8l-5.1-7.7c-0.3-0.4-1.1-1.6-2.4-3.4l-0.3,0.2c-3,2-3.7,3.1-2.4,5.7l-0.9,1.3l-3.1-4.7l14.2-9.4
				L872.6,1460.5z"/>
			<path id="XMLID_00000074442893102950723440000012958237413794307503_" class="st6" d="M896.3,1441.9c5.3,4.4,5.9,11.1,1.6,16.2
				c-4,4.7-9.3,5.1-14.2,1c-5.3-4.4-5.9-11.1-1.6-16.2C886.1,1438.3,891.5,1437.9,896.3,1441.9z M883.3,1445.6
				c-3.2,3.9-2.8,6.8,1.8,10.6c4.3,3.6,8.3,3.3,11.7-0.7c3.3-3.9,2.7-6.9-1.9-10.7C890.8,1441.3,886.7,1441.6,883.3,1445.6z"/>
			<path id="XMLID_00000106827558567623610140000010839553312059915652_" class="st6" d="M918.3,1422.1l-1.6,3.7
				c-5.4,0.2-8.9,0.3-10.6,0.7c-0.9,0.2-1.5,0.9-2.1,2.1l5.1,2.2c2.5,1.1,3.5,0.7,4.9-2.1l1,0.9l-3.5,8.1l-1.1-0.9l0.1-0.2
				c0.7-1.7-0.5-2.3-3.8-3.8l-6.3-2.8c-4.4-1.9-5.8-2.5-7.1,0l-1.1-0.9c1.7-4.1,2.6-6.5,3-7.2c1.7-3.9,4.2-5.2,7.4-3.8
				c2.4,1,3.5,3.4,2.8,6.4c1.1-1.4,3-1.4,5.9-1.6c3.4-0.2,5.1-0.1,6-1.8L918.3,1422.1z M902.3,1427.9c0.3-0.6,0.6-1.1,0.7-1.4
				c1.2-2.6,0.6-4.5-1.7-5.4c-2-0.9-3.8-0.1-4.8,2.2c-0.7,1.7-0.1,2.1,1.8,2.9l1,0.4L902.3,1427.9z"/>
			<path id="XMLID_00000017481440482152777670000006379840881366584485_" class="st6" d="M907.8,1397.9l-0.8-0.1
				c-2.4-0.4-3.4,0.7-3.8,3.3c-0.4,2.4,0.5,3.9,2.2,4.2c1.9,0.3,2.9-1.1,4.8-3.5c2.8-3.6,4.4-5.6,7.7-5c3.8,0.6,5.6,3.7,4.8,8.6
				c-0.1,0.8-0.6,2.6-1.1,5.2l-6.5-1.1l-0.4-1.8l0.5,0.1c3.6,0.6,5,0,5.6-3.4c0.4-2.5-0.6-4.3-2.6-4.6c-2.1-0.3-3.1,0.9-5.1,3.4
				c-2.8,3.4-4.2,5.7-7.5,5.2c-3.3-0.5-5-3.3-4.2-7.9c0.2-0.9,0.6-2.7,1.1-5.3l5,0.8L907.8,1397.9z"/>
		</g>
	</g>
	
		<line id="XMLID_00000037686528550471876610000010447920845911268737_" class="st4" x1="697.9" y1="1378.1" x2="727.9" y2="1378.1"/>
	
		<line id="XMLID_00000106116826185390286750000015336479239563009725_" class="st4" x1="900.8" y1="1378.1" x2="930.8" y2="1378.1"/>
	<g id="XMLID_00000181057167976189152690000004809384986741075854_">
		<g>
			<defs>
				<circle id="SVGID_00000002348719662636221900000002884072975882249883_" cx="814.2" cy="1375" r="75.2"/>
			</defs>
			<clipPath id="SVGID_00000173876328118408286460000010393790889355720327_">
				<use xlink:href="#SVGID_00000002348719662636221900000002884072975882249883_"  style="overflow:visible;"/>
			</clipPath>
			
				<g id="XMLID_00000181088799112610926030000003601943013862770863_" style="clip-path:url(#SVGID_00000173876328118408286460000010393790889355720327_);">
				<path id="XMLID_00000130637664705265086950000004289475460001064106_" class="st1" d="M818.6,1325.5c0,0-4.6,4-4.8,18.3
					s-15.8,38.4-32.4,44.7c0,0-12.7-30.8,23.8-54.8L818.6,1325.5z"/>
				<polygon id="XMLID_00000120528334162686102380000016771767491703792031_" class="st1" points="442.7,1467.2 460.9,1466.4 
					754.2,1413 767.6,1412.3 757,1410.7 775.2,1401 805.2,1389.6 806,1387.1 779.4,1397 773.8,1399.2 785.1,1385.3 783.2,1382.8 
					768.9,1400 753.5,1407.7 				"/>
				<path id="XMLID_00000062178878186281195650000009275245515479267762_" class="st1" d="M879.9,1347.4c0,0-8.7,6.9-14.3,16.8
					s-20.7,29-62.1,26.2c0,0,11.5-32.7,48.6-39.8C889.1,1343.6,879.9,1347.4,879.9,1347.4z"/>
				<path id="XMLID_00000086669581655046001300000014811608437096584847_" class="st1" d="M777,1404.7c0,0,21.6-14.3,57.5,9.2
					c0,0-3-0.1-14.4,4.1s-30.8,11.5-57.8-4.6l-5.3-2.8C757,1410.7,767,1410.8,777,1404.7z"/>
				<path id="XMLID_00000084529749597273445340000012766650145009849994_" class="st6" d="M810,1337.4c0,0-1.8,34.7-24.4,45.3
					l8.6-19.9l-10.4,16.6C783.8,1379.4,779.4,1346.5,810,1337.4z"/>
				<path id="XMLID_00000121983084967992240460000009897078539397714841_" class="st6" d="M818.7,1379l-6.7,3.7
					c0,0,8.3-24,56.3-29.8c0,0-14.3,34.3-55.1,32.8l31.6-17.9L818.7,1379z"/>
				<path id="XMLID_00000067203569218474462690000012530777680162170546_" class="st6" d="M782.5,1405.8c0,0,17.6-5.8,33.3,2.1
					l9.8,4.9c0,0-11.9,7.4-33.7,7.7c-19.6,0.2-17.6-8.8-17.6-8.8l35.8,0.3l-34.6-2.8C775.4,1409.2,779.6,1406.7,782.5,1405.8z"/>
			</g>
		</g>
	</g>
</g>
<g>
	<circle id="XMLID_00000078750390380562612700000002585236632428829844_" class="st3" cx="268.9" cy="1755.5" r="107.4"/>
	<path id="XMLID_00000013161784817192656540000016093358570832486290_" class="st1" d="M268.9,1866.2
		c-61.1,0-110.8-49.7-110.8-110.8s49.7-110.8,110.8-110.8s110.8,49.7,110.8,110.8C379.7,1816.6,330,1866.2,268.9,1866.2z
		 M268.9,1656.6c-54.5,0-98.9,44.4-98.9,98.9s44.4,98.9,98.9,98.9s98.9-44.4,98.9-98.9S323.5,1656.6,268.9,1656.6z"/>
	<g id="XMLID_00000178926617646045648830000013607810562288029830_">
		<g>
			<defs>
				<ellipse id="SVGID_00000106836403328977916560000002266848436712413118_" cx="271.9" cy="1751.2" rx="103.3" ry="104.5"/>
			</defs>
			<clipPath id="SVGID_00000034798261912863890900000007206646934202560421_">
				<use xlink:href="#SVGID_00000106836403328977916560000002266848436712413118_"  style="overflow:visible;"/>
			</clipPath>
			
				<g id="XMLID_00000011728756940385944800000006519495642741417617_" style="clip-path:url(#SVGID_00000034798261912863890900000007206646934202560421_);">
				<path id="XMLID_00000148654478374603546830000002776490482562670474_" class="st1" d="M278,1682.4c0,0-6.3,5.6-6.7,25.4
					s-21.6,53.4-44.5,62.1c0,0-17.5-42.7,32.7-76.2L278,1682.4z"/>
				<polygon id="XMLID_00000027594382279508996630000008098083078539625132_" class="st1" points="-238.7,1879.4 -213.7,1878.3 
					189.5,1804 207.9,1803.1 193.3,1800.8 218.2,1787.3 259.6,1771.5 260.6,1768 224.1,1781.8 216.4,1784.8 231.9,1765.5 
					229.3,1762 209.7,1785.9 188.5,1796.7 				"/>
				<path id="XMLID_00000085208508060263576030000013570850949632134842_" class="st1" d="M362.1,1712.9c0,0-12,9.6-19.7,23.4
					s-28.4,40.3-85.3,36.5c0,0,15.8-45.4,66.8-55.3C374.9,1707.6,362.1,1712.9,362.1,1712.9z"/>
				<path id="XMLID_00000105386179375582599660000016810481354506050998_" class="st1" d="M220.7,1792.5c0,0,29.7-19.9,79.1,12.8
					c0,0-4.2-0.1-19.8,5.8s-42.4,15.9-79.4-6.4l-7.3-3.8C193.3,1800.8,207.1,1801,220.7,1792.5z"/>
				<path id="XMLID_00000060753329408484087430000015317807912783867324_" class="st6" d="M266.1,1698.9c0,0-2.5,48.2-33.5,63
					l11.9-27.7l-14.3,23.1C230.2,1757.3,224,1711.6,266.1,1698.9z"/>
				<path id="XMLID_00000124120262045577170650000006468055092191304885_" class="st6" d="M278,1756.8l-9.2,5.1
					c0,0,11.4-33.3,77.3-41.4c0,0-19.7,47.7-75.7,45.7l43.4-24.9L278,1756.8z"/>
				<path id="XMLID_00000144332038474094277080000005127645456538810781_" class="st6" d="M228.3,1794c0,0,24.1-8.1,45.8,2.9
					l13.4,6.9c0,0-16.3,10.3-46.3,10.6c-26.9,0.3-24.2-12.3-24.2-12.3l49.2,0.5l-47.6-3.8C218.6,1798.8,224.4,1795.3,228.3,1794z"/>
			</g>
		</g>
	</g>
</g>
<g>
	<path id="XMLID_00000075161495841289462960000002794923819926683575_" class="st1" d="M812.9,1866.2
		c-61.1,0-110.8-49.7-110.8-110.8s49.7-110.8,110.8-110.8s110.8,49.7,110.8,110.8C923.7,1816.6,874,1866.2,812.9,1866.2z
		 M812.9,1656.6c-54.5,0-98.9,44.4-98.9,98.9s44.4,98.9,98.9,98.9s98.9-44.4,98.9-98.9S867.5,1656.6,812.9,1656.6z"/>
	<g id="XMLID_00000012473451214772090530000000280732025546979769_">
		<g>
			<defs>
				<ellipse id="SVGID_00000181797148895606530350000008774558965361579175_" cx="815.9" cy="1751.2" rx="103.3" ry="104.5"/>
			</defs>
			<clipPath id="SVGID_00000182496880197554792490000015520424136477501847_">
				<use xlink:href="#SVGID_00000181797148895606530350000008774558965361579175_"  style="overflow:visible;"/>
			</clipPath>
			
				<g id="XMLID_00000171697717738033957880000008453894559146374319_" style="clip-path:url(#SVGID_00000182496880197554792490000015520424136477501847_);">
				<path id="XMLID_00000117638211537248006400000002499969220588093575_" class="st1" d="M822,1682.4c0,0-6.3,5.6-6.7,25.4
					c-0.3,19.8-21.7,53.4-44.5,62.1c0,0-17.5-42.7,32.7-76.2L822,1682.4z"/>
				<polygon id="XMLID_00000083070950573906638710000009164765104466290591_" class="st1" points="305.3,1879.4 330.3,1878.3 
					733.5,1804 751.8,1803.1 737.3,1800.8 762.2,1787.3 803.5,1771.5 804.6,1768 768,1781.8 760.4,1784.8 775.9,1765.5 773.3,1762 
					753.7,1785.9 732.5,1796.7 				"/>
				<path id="XMLID_00000034066738004468345680000012207797979524038286_" class="st1" d="M906.1,1712.9c0,0-12,9.6-19.7,23.4
					c-7.8,13.8-28.4,40.3-85.3,36.5c0,0,15.8-45.4,66.8-55.3C918.8,1707.6,906.1,1712.9,906.1,1712.9z"/>
				<path id="XMLID_00000111156348659353028800000018104470198524908679_" class="st1" d="M764.7,1792.5c0,0,29.7-19.9,79.1,12.8
					c0,0-4.2-0.1-19.8,5.8s-42.4,15.9-79.4-6.4l-7.3-3.8C737.3,1800.8,751.1,1801,764.7,1792.5z"/>
				<path id="XMLID_00000000920881481682930930000015736616681391075216_" class="st6" d="M810.1,1698.9c0,0-2.5,48.2-33.5,63
					l11.9-27.7l-14.3,23.1C774.2,1757.3,768,1711.6,810.1,1698.9z"/>
				<path id="XMLID_00000017476645457775791640000014610953935845474238_" class="st6" d="M822,1756.8l-9.2,5.1
					c0,0,11.4-33.3,77.3-41.4c0,0-19.7,47.7-75.7,45.7l43.4-24.9L822,1756.8z"/>
				<path id="XMLID_00000010277719625029364630000006349040116795328940_" class="st6" d="M772.3,1794c0,0,24.2-8.1,45.8,2.9
					l13.4,6.9c0,0-16.3,10.3-46.3,10.6c-26.9,0.3-24.2-12.3-24.2-12.3l49.2,0.5l-47.6-3.8C762.6,1798.8,768.3,1795.3,772.3,1794z"/>
			</g>
		</g>
	</g>
</g>
<g>
	<circle id="XMLID_00000048469437617186038880000007395382066099869356_" class="st6" cx="542.9" cy="1755.5" r="107.4"/>
	<path id="XMLID_00000031902287080521516070000008609388092899109283_" class="st0" d="M542.9,1866.2
		c-61.1,0-110.8-49.7-110.8-110.8s49.7-110.8,110.8-110.8s110.8,49.7,110.8,110.8S604,1866.2,542.9,1866.2z M542.9,1656.6
		c-54.5,0-98.9,44.4-98.9,98.9s44.4,98.9,98.9,98.9s98.9-44.4,98.9-98.9S597.5,1656.6,542.9,1656.6z"/>
	<g id="XMLID_00000139272787787343254790000005208575291804975261_">
		<g>
			<defs>
				<ellipse id="SVGID_00000052072104365679764980000007293964732069640092_" cx="545.9" cy="1751.2" rx="103.3" ry="104.5"/>
			</defs>
			<clipPath id="SVGID_00000118366072902266106880000004871090374713811387_">
				<use xlink:href="#SVGID_00000052072104365679764980000007293964732069640092_"  style="overflow:visible;"/>
			</clipPath>
			
				<g id="XMLID_00000121981697260136761550000011237398721885947778_" style="clip-path:url(#SVGID_00000118366072902266106880000004871090374713811387_);">
				<path id="XMLID_00000016768083115175385850000002555560028600518049_" class="st0" d="M552,1682.4c0,0-6.3,5.6-6.7,25.4
					c-0.3,19.8-21.7,53.4-44.5,62.1c0,0-17.5-42.7,32.7-76.2L552,1682.4z"/>
				<polygon id="XMLID_00000152957270442925441330000011323651412198034341_" class="st0" points="35.3,1879.4 60.3,1878.3 
					463.5,1804 481.9,1803.1 467.3,1800.8 492.2,1787.3 533.5,1771.5 534.6,1768 498,1781.8 490.4,1784.8 505.9,1765.5 503.3,1762 
					483.6,1785.9 462.5,1796.7 				"/>
				<path id="XMLID_00000127735996084570698840000015013181233215191694_" class="st0" d="M636.1,1712.9c0,0-12,9.6-19.7,23.4
					c-7.8,13.8-28.4,40.3-85.3,36.5c0,0,15.8-45.4,66.8-55.3C648.8,1707.6,636.1,1712.9,636.1,1712.9z"/>
				<path id="XMLID_00000101820542335608793220000008396004252646838674_" class="st0" d="M494.7,1792.5c0,0,29.7-19.9,79.1,12.8
					c0,0-4.2-0.1-19.8,5.8s-42.4,15.9-79.4-6.4l-7.3-3.8C467.3,1800.8,481.1,1801,494.7,1792.5z"/>
				<path id="XMLID_00000113339022720497809360000015524003065456660635_" class="st6" d="M540.1,1698.9c0,0-2.5,48.2-33.5,63
					l11.9-27.7l-14.3,23.1C504.1,1757.3,498,1711.6,540.1,1698.9z"/>
				<path id="XMLID_00000112593908076922400260000005739427851418772404_" class="st6" d="M552,1756.8l-9.2,5.1
					c0,0,11.4-33.3,77.3-41.4c0,0-19.7,47.7-75.7,45.7l43.4-24.9L552,1756.8z"/>
				<path id="XMLID_00000034807017812851223190000003672480315608247451_" class="st6" d="M502.3,1794c0,0,24.2-8.1,45.8,2.9
					l13.4,6.9c0,0-16.3,10.3-46.3,10.6c-26.9,0.3-24.2-12.3-24.2-12.3l49.2,0.5l-47.6-3.8C492.6,1798.8,498.3,1795.3,502.3,1794z"/>
			</g>
		</g>
	</g>
</g>
</svg>
