<?xml version="1.0" encoding="utf-8"?>
<!-- Generator: Adobe Illustrator 26.0.2, SVG Export Plug-In . SVG Version: 6.00 Build 0)  -->
<svg version="1.1" id="Layer_1" xmlns="http://www.w3.org/2000/svg" xmlns:xlink="http://www.w3.org/1999/xlink" x="0px" y="0px"
	 viewBox="0 0 459.74 428.04" style="enable-background:new 0 0 459.74 428.04;" xml:space="preserve">
<style type="text/css">
	.st0{fill:#456633;}
	.st1{fill:#B6CC6E;}
	.st2{clip-path:url(#XMLID_00000106847056139120713400000000607522806523578255_);}
	.st3{fill:#699152;}
</style>
<g>
	<circle id="XMLID_00000026865833471586993820000004925713904898441375_" class="st0" cx="211.4" cy="210.66" r="128.28"/>
	<path id="XMLID_00000099664053553719690740000000752747105918825120_" class="st1" d="M211.4,342.9
		c-72.91,0-132.23-59.32-132.23-132.23S138.49,78.43,211.4,78.43s132.23,59.32,132.23,132.23S284.32,342.9,211.4,342.9z M211.4,92.6
		c-65.1,0-118.06,52.96-118.06,118.06S146.3,328.73,211.4,328.73s118.06-52.96,118.06-118.06S276.5,92.6,211.4,92.6z"/>
	<g id="XMLID_00000008841832908051839150000005715916508093342607_">
		<defs>
			<ellipse id="XMLID_00000094613432814613547800000006024307271754551988_" cx="214.95" cy="205.49" rx="123.33" ry="124.73"/>
		</defs>
		<clipPath id="XMLID_00000026126804780879909960000000260955587373229485_">
			<use xlink:href="#XMLID_00000094613432814613547800000006024307271754551988_"  style="overflow:visible;"/>
		</clipPath>
		
			<g id="XMLID_00000134930576307367287240000015407841117790462865_" style="clip-path:url(#XMLID_00000026126804780879909960000000260955587373229485_);">
			<path id="XMLID_00000142151354910394000900000016152897823065143479_" class="st1" d="M222.22,123.4c0,0-7.54,6.7-7.95,30.38
				c-0.4,23.67-25.85,63.77-53.16,74.11c0,0-20.86-51.03,39.03-90.98L222.22,123.4z"/>
			<polygon id="XMLID_00000052078449415008300760000006924068089383239073_" class="st1" points="-394.64,358.61 -364.87,357.26 
				116.52,268.55 138.49,267.46 121.09,264.76 150.86,248.66 200.21,229.83 201.42,225.62 157.83,242.06 148.66,245.71 
				167.17,222.64 164.09,218.49 140.64,247 115.33,259.83 			"/>
			<path id="XMLID_00000036961510814475897210000009637212330446748061_" class="st1" d="M322.69,159.76
				c0,0-14.27,11.48-23.55,27.94c-9.29,16.46-33.91,48.14-101.83,43.54c0,0,18.82-54.21,79.7-66.02
				C337.88,153.42,322.69,159.76,322.69,159.76z"/>
			<path id="XMLID_00000044856167046835686100000014331824945801273995_" class="st1" d="M153.84,254.85c0,0,35.51-23.8,94.44,15.3
				c0,0-5-0.16-23.64,6.87s-50.59,19.03-94.84-7.68l-8.71-4.58C121.09,264.76,137.55,265.04,153.84,254.85z"/>
			<path id="XMLID_00000096771478715033341100000004263163275071540353_" class="st3" d="M207.99,143.16c0,0-2.98,57.58-39.97,75.18
				l14.16-33.05l-17.06,27.58C165.11,212.88,157.75,158.31,207.99,143.16z"/>
			<path id="XMLID_00000160912074402636163400000013709834173691315864_" class="st3" d="M222.26,212.26l-11.03,6.13
				c0,0,13.66-39.76,92.33-49.47c0,0-23.48,56.91-90.36,54.5l51.87-29.68L222.26,212.26z"/>
			<path id="XMLID_00000146492174181395333970000007912405686291292058_" class="st3" d="M162.85,256.65c0,0,28.83-9.7,54.66,3.51
				l16.04,8.19c0,0-19.46,12.36-55.28,12.7c-32.12,0.31-28.95-14.69-28.95-14.69l58.75,0.58l-56.81-4.56
				C151.27,262.38,158.17,258.23,162.85,256.65z"/>
		</g>
	</g>
</g>
</svg>
