<?xml version="1.0" encoding="utf-8"?>
<!-- Generator: Adobe Illustrator 26.3.1, SVG Export Plug-In . SVG Version: 6.00 Build 0)  -->
<svg version="1.1" xmlns="http://www.w3.org/2000/svg" xmlns:xlink="http://www.w3.org/1999/xlink" x="0px" y="0px"
	 viewBox="0 0 782.3 211.3" style="enable-background:new 0 0 782.3 211.3;" xml:space="preserve">
<style type="text/css">
	.st0{fill:#E8E6E6;}
	.st1{fill:#A9A4A3;}
	.st2{font-family:'Roboto-Bold';}
	.st3{font-size:12.5654px;}
	.st4{fill:#E8E6E6;stroke:#E8E6E6;stroke-miterlimit:10;}
	.st5{stroke:#FFFFFF;stroke-width:0.5;stroke-miterlimit:10;}
	.st6{display:none;}
	.st7{display:inline;}
	.st8{fill:#372E2C;}
	.st9{fill:#FFFFFF;}
	.st10{fill:#FFFFFF;stroke:#FFFFFF;stroke-width:0.5;stroke-miterlimit:10;}
	.st11{fill:#D2D0CF;}
</style>
<g id="Layer_1">
	<g>
		<circle class="st0" cx="106.3" cy="51.8" r="8.5"/>
		<text transform="matrix(1 0 0 1 102.6776 56.2204)" class="st1 st2 st3">1</text>
	</g>
	<line class="st4" x1="159.8" y1="98.1" x2="183.7" y2="120.4"/>
	<line class="st4" x1="472.1" y1="64.3" x2="454.3" y2="80.5"/>
	<line class="st4" x1="510.6" y1="103.8" x2="484" y2="128"/>
	<line class="st4" x1="507.4" y1="100.5" x2="530.1" y2="122.2"/>
	<line class="st4" x1="107.2" y1="108.3" x2="131.1" y2="130.6"/>
	<g>
		<circle class="st0" cx="510.5" cy="104.7" r="8.5"/>
		<text transform="matrix(1 0 0 1 506.9098 109.1522)" class="st1 st2 st3">5</text>
	</g>
	<line class="st4" x1="391.9" y1="142.9" x2="380.1" y2="154.7"/>
	<g>
		<g>
			<g>
				<path d="M333.8,77.5c-0.2-1.1-1.1-2.1-2.1-2.1c-0.9,0-1.6,0.6-1.9,1.4c-0.1,0.2-0.1,0.4-0.1,0.6c0,0,0,0.1,0,0.1
					c0,0,0,0.1,0,0.1c0,0.3,0,0.6,0.1,1c1.6,6.9,11.8,7.4,18.5,1.7C348.3,80.4,336.1,86.1,333.8,77.5z"/>
				<path d="M331.5,128c-8-5.1-21-9.1-21-9.1l6.2-5.4l-2.5-4.6c0,0,0,0,0,0c-0.4,0.5-0.8,0.9-1.3,1.3c0,0-0.1,0.1-0.1,0.1
					c0,0,0,0,0,0c-1.8,1.2-4.3,1.8-6.7,1.3c-0.9-0.2-1.6-0.5-2.3-0.9c-2.8,0.4-3.4,0.2-4.7-1.2c-0.1-0.1-0.7-0.9-0.7-1
					c1.4,0.8,2.4,0.8,3.9,0.6c-0.6-1.1-0.7-2.4-0.1-3.6c0.8-1.6,2.7-3.2,4.9-4l0.2-0.3l-0.4-0.6c-3.3,0.5-6.8-0.8-7.8-3.7
					c-0.5-1.6-0.3-3.1,0.6-4.4c-1.5-0.3-2.3-0.3-3.8,0.5c0-0.1,0.7-1.1,0.8-1.1c1.4-1.5,2-1.8,4.8-1.2c0.6-0.4,1.3-0.7,2.1-0.9
					c3.1-0.7,6.4,0.9,7.7,3.6l0.6-0.1c-0.4-2.8,1-5.9,3.5-7.5c1.4-0.9,2.9-1.1,4.2-0.7c0.1-1.5,0-2.4-1-3.6c0.1,0,1.1,0.4,1.2,0.5
					c1.6,0.9,2,1.5,1.7,4.3c0.5,0.5,0.9,1.1,1.2,1.9c1.1,3.1-0.3,7.1-3.1,8.9c-0.1,0.1-0.2,0.1-0.4,0.2c4.1,4.8,12.2,8.3,17,11.5
					c0,0,0.6,6.3-1.6,13.3C333.6,124.9,331.5,128,331.5,128z"/>
				<path d="M426.2,122.9c0,0-13.2,3.9-18.5,20.7c0,0.1-0.1,0.2-0.1,0.3l-2.3,0.1c0,0,0-0.1,0-0.3c0.7-2,0.2-4.3-1.5-5.7
					c-2.3-2-6-1.8-8.1,0.4c-0.5,0.5-0.9,1.1-1.2,1.8c-2.4,0.8-2.7,1.3-3,3.2c0,0.1-0.1,1.2,0,1.3c0.7-1.4,1.3-1.8,2.6-2.3
					c0.1,1.3,0.7,2.7,1.8,3.6c0.5,0.5,1.1,0.8,1.8,1l0.1,1.4c0,0,0.1,0,0.1,0c-0.8,0.8-1.3,1.8-1.6,2.9c-0.1,0.7-0.1,1.4,0,2.1
					c-1.6,1.9-1.6,2.5-0.7,4.3c0,0.1,0.6,1,0.7,1.1c-0.2-1.5,0.1-2.2,1-3.3c0.8,1.1,2.1,1.8,3.6,2c3.1,0.4,6.1-1.7,6.7-4.7
					c0.1-0.4,0.1-0.8,0.1-1.1l2.8-0.4c0,0,0,0.1,0,0.4c0,0,0,0,0,0c0,0.8,0.2,1.7,0.6,2.5c1.5,2.7,4.9,3.9,7.7,2.7
					c1.4-0.6,2.3-1.7,2.8-3c1.1,0.8,1.6,1.4,1.9,2.9c0.1-0.1,0.3-1.2,0.3-1.2c0.3-1.9,0.1-2.5-2-3.9c-0.1-0.7-0.3-1.4-0.6-2
					c0,0,0-0.1-0.1-0.1c0,0,0,0,0,0c-0.1-0.2-0.3-0.4-0.5-0.7c-0.1-0.1-0.2-0.2-0.3-0.3c-0.4-0.4-0.8-0.8-1.4-1.3l-0.1-3l9-0.1
					v-10.2l4.3-2.6C432.5,131.2,427,128.6,426.2,122.9z"/>
				<path d="M469,146.4l3,1.3v-10.5c-8.5-0.3-4.2-17.4-4.2-17.4c-18.9,3.9-13.7-9.5-13.7-9.5c7.1-0.9,19.1-7.7,18.3-18.7
					c-1.6-20.6-53.2-12.9-68.6-11.9c-15.4,0.9-8.2-3.5,4.7-4.6c12.9-1.1-6-16.3-6-16.3s4.6,4.2-14.6,14.6
					c-19.2,10.4,5.8,12.4,5.8,12.4c-6.1,5.7,3.8,9.4,3.8,9.4c-3.3-4.6,2.4-8.3,2.4-8.3s43.1-8.7,58.2-2.4
					c15.1,6.3,1.7,23.7-9.2,20.4c-10.8-3.3-33.6-0.9-33.6-0.9L396.8,128c20.6-15.9,32.4-12.1,32.4-12.1c7.7,17.1,13.5,13.5,23.1,17
					c9.6,3.5,6.3,12.3,6.3,12.3H453c0.4-1.2,0.4-2.5-0.1-3.8c-1.2-2.8-4.6-4.3-7.5-3.2c-0.7,0.3-1.3,0.6-1.8,1.1
					c-2.5-0.3-3,0-4.1,1.6c0,0.1-0.6,1.1-0.6,1.1c1.2-0.9,2-1,3.4-0.9c-0.5,1.2-0.6,2.7,0,4.1c0.5,1.1,1.3,2.1,2.4,2.7l1.1,1.1
					c-0.6,0.4-1.2,0.8-1.7,1.4c-0.5,0.6-0.8,1.2-1,1.9c-2.3,1-2.6,1.5-2.7,3.4c0,0.1,0,1.2,0.1,1.3c0.6-1.4,1.2-1.9,2.4-2.5
					c0.2,1.3,0.9,2.6,2.1,3.5c2.5,1.8,6.1,1.3,8.1-1.1c0.8-1,1.2-2.1,1.2-3.3h2.4c0.1,0.6,0.4,1.2,0.7,1.8c1.7,2.6,5.2,3.6,7.9,2.1
					c1.3-0.7,2.2-1.9,2.5-3.2c1.2,0.7,1.7,1.3,2.1,2.8c0.1-0.1,0.2-1.2,0.2-1.3c0.1-1.9-0.1-2.5-2.2-3.7c-0.1-0.7-0.4-1.4-0.8-2
					c-0.3-0.5-0.8-1-1.2-1.4C466.3,146.9,469,146.4,469,146.4z"/>
				<path d="M380.3,103.4c0,0-13.4,26.1-66.7,31.8c0.1-0.3,0.1-0.7,0.2-1.1c0.2-3.4-2.2-6.9-5.3-7.8c-0.8-0.2-1.5-0.3-2.2-0.2
					c-2.1-1.9-2.7-1.9-4.5-1.1c-0.1,0-1,0.6-1.1,0.7c1.5-0.1,2.3,0.3,3.5,1.3c-1.1,0.8-1.8,2.1-1.9,3.8c-0.2,3.1,1.8,6.2,4.5,7.4
					l-0.3,0.5c-2.6-0.7-5.7,0.4-7.4,2.8c-0.5,0.7-0.8,1.5-1,2.2c-2.3,1.3-2.5,1.9-2.5,3.9c0,0.1,0.1,1.3,0.2,1.4
					c0.5-1.5,1.1-2.2,2.3-2.9c0.3,1.4,1.2,2.7,2.5,3.5c2.9,1.6,6.6,0,8.6-2.9c0,0,0-0.1,0-0.1l0.8,0.1l0.1,0.5
					c-0.4,2.4,0.1,5,1.2,6.5c0.8,1.1,2.1,1.7,3.3,1.6c-0.5,1.5-1,2.3-2.4,3.2c0.1,0,1.2-0.2,1.2-0.2c1.8-0.5,2.3-1,3.3-3.7
					c0.6-0.4,1.2-0.9,1.8-1.5c0.9-1.1,1.5-2.3,1.8-3.6c0,0,0,0,0,0c0-0.1,0-0.2,0-0.3c0.2-1.1,0.2-2.1,0-3.1l5.1,0.8l0.4,8.2
					c0,0,19-11.5,40.6-9.3c0,0,2-2.6,0.5-4.4c-1.5-1.7-3.1-13.2,1.8-15.9c0,0-2.1,14.8,7.7,9.6c9.8-5.2,16.7-8.5,16.7-8.5l17.2-23.6
					H380.3z"/>
			</g>
			<g>
				<path class="st1" d="M621.9,130h-12.6l14.9-13l10.8,0L621.9,130z M602.7,130h-10.5l14.9-13l10.5,0L602.7,130z M585.5,130h-10.7
					l14.9-13l10.7,0L585.5,130z M568.2,130h-11.4l14.9-13l11.4,0L568.2,130z M550.2,130H539l14.9-13l11.1,0L550.2,130z M550.2,134.4
					l14.9,13h-10.5l-14.9-13H550.2z M556.9,134.4h10.7l14.9,13h-10.7L556.9,134.4z M574.2,134.4h11.4l14.9,13h-11.4L574.2,134.4z
					 M592.2,134.4h11.1l14.9,13h-11.1L592.2,134.4z M544.8,117h2.6l-14.9,13h-5.3C528.1,116.3,544.1,117,544.8,117z M544.9,147.4
					c-0.8,0-16.7,0.6-17.8-13h5.9l14.9,13H544.9z M635,147.4h-10.2l-14.9-13h11.9L635,147.4z"/>
				<polygon class="st1" points="642.1,132.7 496.4,132.7 482.3,128.3 646.2,128.3 				"/>
			</g>
			<g>
				<path class="st1" d="M138.9,117l10.8,0l14.9,13h-12.6L138.9,117z M156.4,117l10.5,0l14.9,13h-10.5L156.4,117z M173.5,117l10.7,0
					l14.9,13h-10.7L173.5,117z M190.8,117l11.4,0l14.9,13h-11.4L190.8,117z M208.9,117l11.1,0l14.9,13h-11.1L208.9,117z
					 M234.3,134.4l-14.9,13h-10.5l14.9-13H234.3z M202.2,147.4h-10.7l14.9-13h10.7L202.2,147.4z M184.9,147.4h-11.4l14.9-13h11.4
					L184.9,147.4z M166.9,147.4h-11.1l14.9-13h11.1L166.9,147.4z M246.9,130h-5.3l-14.9-13h2.6C229.9,117,245.9,116.3,246.9,130z
					 M226,147.4l14.9-13h5.9c-1,13.6-17,13-17.8,13H226z M152.1,134.4H164l-14.9,13H139L152.1,134.4z"/>
				<polygon class="st1" points="131.9,132.7 277.6,132.7 291.7,128.3 127.8,128.3 				"/>
			</g>
		</g>
		<g>
			<path d="M378,59.8l-6.2-0.6c-0.4,0-0.9,0.1-1.3,0.3c0,0,0,0,0,0c-0.3,0.2-0.5,0.5-0.7,0.8l-0.5,1c-0.3,0.6-0.2,0.3-0.7,1.3
				l-2.7,4.9l2.9-8.5l-16.4-0.6c-0.5,0-1.3,0.3-1.7,0.5c-0.3,0.1-0.7,0.4-1,0.6l-2.7,2.1c0,0,0,0-0.1,0l-9,0.7c-0.5,0-0.9,0.1-1,0.6
				l-0.4,3.6c0,0,0.4,0,0.5,0l5.2-1c0,0-0.4,1.5-4.5,2.1c-4,0.6,0.9,9.5,1.2,10c0.1,0.2,0.3,0.7,0.6,0.8l0.6,0.2
				c0.5,0.2,1.4-0.3,1.9-0.5c2.1-0.9,8.7-3.2,10.3,1.7c1.8,5.8-6.2,7.5-10.4,6.5c-0.1,0-0.1,0-0.1,0.1l0.1,7.6c0.1,0,0.1,0,0.2,0.1
				c1.2-1.1,8-7.3,14.3-4.7c0,0.1,0,0.1,0,0.1c-1.5,0.8-15.2,8.3-16.1,15.7c-0.9,7.4-1,19.7-4.8,22.4c-0.1,0.1,0,0.2,0.1,0.2
				l7.8-3.7l1-0.5c0.2-0.1,0.4-0.1,0.6-0.2l3.3-9.7l-0.7,8.8c2.6-1,5.5-2.2,8.3-3.4l3.9-16.3l-0.3,14.6c2.5-1.3,4.8-3,7-4.8l4.3-19
				l-0.1,14.7l0.1-0.1l5.6-5.6c0.2-0.3,0.4-0.6,0.4-1c0-0.7,0-1.7,0-1.7V74.9c0-0.2-0.1-0.4-0.1-0.5l-0.7-1.2
				c-0.1-0.2-0.3-0.4-0.6-0.5l-2.6-1.3l2.8-0.8c0,0,0.2-0.1,0.4-0.1c0.8-0.3,1.3-0.9,1.5-1.7l1.8-7.8
				C378.9,60.3,378.5,59.8,378,59.8z M358.3,62.1l-1.3,1.4c-0.2,0.2-0.4,0.3-0.7,0.3l-6.2-0.2c-0.5,0-0.7-0.5-0.3-0.8l1.4-1.3
				c0.2-0.2,0.5-0.2,0.8-0.2l5.8,0.2C358.4,61.4,358.6,61.9,358.3,62.1z M374.8,67.3c-0.1,0.4-0.5,0.7-0.9,0.8l-4.1,0.1l4.9-6.6
				l1.7,0L374.8,67.3z"/>
			<polygon points="372.2,64.2 374.8,64.8 371.2,65.8 			"/>
			<polygon points="371.1,66 373.6,66.6 370,67.6 			"/>
		</g>
	</g>
	<line class="st4" x1="346.4" y1="121.5" x2="377.9" y2="153"/>
	<g>
		<circle class="st0" cx="379.4" cy="152.7" r="8.5"/>
		<text transform="matrix(1 0 0 1 375.8386 157.0929)" class="st1 st2 st3">6</text>
	</g>
	<g>
		<circle class="st0" cx="471.7" cy="64.6" r="8.5"/>
		<text transform="matrix(1 0 0 1 468.1372 69.0188)" class="st1 st2 st3">4</text>
	</g>
	<g>
		<circle class="st0" cx="110.3" cy="109.3" r="8.5"/>
		<text transform="matrix(1 0 0 1 106.7369 113.7769)" class="st1 st2 st3">2</text>
	</g>
	<g>
		<circle class="st0" cx="157.3" cy="94.9" r="8.5"/>
		<text transform="matrix(1 0 0 1 153.6499 99.34)" class="st1 st2 st3">3</text>
	</g>
</g>
<g id="Layer_2">
</g>
<g id="Layer_3" class="st6">
</g>
</svg>
