<?xml version="1.0" encoding="utf-8"?>
<!-- Generator: Adobe Illustrator 26.4.0, SVG Export Plug-In . SVG Version: 6.00 Build 0)  -->
<svg version="1.1" id="Layer_1" xmlns="http://www.w3.org/2000/svg" xmlns:xlink="http://www.w3.org/1999/xlink" x="0px" y="0px"
	 viewBox="0 0 610.3 211.3" style="enable-background:new 0 0 610.3 211.3;" xml:space="preserve">
<style type="text/css">
	.st0{fill:#E8E6E6;}
	.st1{enable-background:new    ;}
	.st2{fill:#A9A4A3;}
	.st3{fill:none;stroke:#E8E6E6;stroke-miterlimit:10;}
	.st4{display:none;}
</style>
<g id="Layer_1_00000114053566923874920510000007864691363369416125_">
	<g>
		<circle class="st0" cx="25.1" cy="51.8" r="8.5"/>
		<g class="st1">
			<path class="st2" d="M26.4,56.2h-1.8v-6.8L22.5,50v-1.4l3.7-1.3h0.2V56.2z"/>
		</g>
	</g>
	<line class="st3" x1="78.6" y1="98.1" x2="102.5" y2="120.4"/>
	<line class="st3" x1="390.9" y1="64.3" x2="373.1" y2="80.5"/>
	<line class="st3" x1="429.4" y1="103.8" x2="402.8" y2="128"/>
	<line class="st3" x1="426.2" y1="100.5" x2="448.9" y2="122.2"/>
	<line class="st3" x1="26" y1="108.3" x2="49.9" y2="130.6"/>
	<g>
		<circle class="st0" cx="429.3" cy="104.7" r="8.5"/>
		<g class="st1">
			<path class="st2" d="M426.6,104.8l0.5-4.5h5v1.5h-3.6l-0.2,1.9c0.4-0.2,0.9-0.3,1.3-0.3c0.9,0,1.5,0.3,2,0.8
				c0.5,0.5,0.7,1.3,0.7,2.2c0,0.6-0.1,1.1-0.4,1.5s-0.6,0.8-1,1.1c-0.5,0.3-1,0.4-1.6,0.4c-0.5,0-1-0.1-1.5-0.3
				c-0.5-0.2-0.8-0.5-1.1-0.9s-0.4-0.8-0.4-1.4h1.8c0,0.4,0.2,0.7,0.4,0.9c0.2,0.2,0.5,0.3,0.9,0.3c0.4,0,0.7-0.1,0.9-0.4
				s0.3-0.7,0.3-1.2c0-0.5-0.1-0.9-0.4-1.2c-0.2-0.3-0.6-0.4-1.1-0.4c-0.4,0-0.8,0.1-1,0.3l-0.2,0.2L426.6,104.8z"/>
		</g>
	</g>
	<g>
		<g>
			<g>
				<path d="M252.6,77.5c-0.2-1.1-1.1-2.1-2.1-2.1c-0.9,0-1.6,0.6-1.9,1.4c-0.1,0.2-0.1,0.4-0.1,0.6v0.1v0.1c0,0.3,0,0.6,0.1,1
					c1.6,6.9,11.8,7.4,18.5,1.7C267.1,80.4,254.9,86.1,252.6,77.5z"/>
				<path d="M250.3,128c-8-5.1-21-9.1-21-9.1l6.2-5.4l-2.5-4.6l0,0c-0.4,0.5-0.8,0.9-1.3,1.3l-0.1,0.1l0,0c-1.8,1.2-4.3,1.8-6.7,1.3
					c-0.9-0.2-1.6-0.5-2.3-0.9c-2.8,0.4-3.4,0.2-4.7-1.2c-0.1-0.1-0.7-0.9-0.7-1c1.4,0.8,2.4,0.8,3.9,0.6c-0.6-1.1-0.7-2.4-0.1-3.6
					c0.8-1.6,2.7-3.2,4.9-4l0.2-0.3l-0.4-0.6c-3.3,0.5-6.8-0.8-7.8-3.7c-0.5-1.6-0.3-3.1,0.6-4.4c-1.5-0.3-2.3-0.3-3.8,0.5
					c0-0.1,0.7-1.1,0.8-1.1c1.4-1.5,2-1.8,4.8-1.2c0.6-0.4,1.3-0.7,2.1-0.9c3.1-0.7,6.4,0.9,7.7,3.6l0.6-0.1c-0.4-2.8,1-5.9,3.5-7.5
					c1.4-0.9,2.9-1.1,4.2-0.7c0.1-1.5,0-2.4-1-3.6c0.1,0,1.1,0.4,1.2,0.5c1.6,0.9,2,1.5,1.7,4.3c0.5,0.5,0.9,1.1,1.2,1.9
					c1.1,3.1-0.3,7.1-3.1,8.9c-0.1,0.1-0.2,0.1-0.4,0.2c4.1,4.8,12.2,8.3,17,11.5c0,0,0.6,6.3-1.6,13.3
					C252.4,124.9,250.3,128,250.3,128z"/>
				<path d="M345,122.9c0,0-13.2,3.9-18.5,20.7c0,0.1-0.1,0.2-0.1,0.3l-2.3,0.1c0,0,0-0.1,0-0.3c0.7-2,0.2-4.3-1.5-5.7
					c-2.3-2-6-1.8-8.1,0.4c-0.5,0.5-0.9,1.1-1.2,1.8c-2.4,0.8-2.7,1.3-3,3.2c0,0.1-0.1,1.2,0,1.3c0.7-1.4,1.3-1.8,2.6-2.3
					c0.1,1.3,0.7,2.7,1.8,3.6c0.5,0.5,1.1,0.8,1.8,1l0.1,1.4h0.1c-0.8,0.8-1.3,1.8-1.6,2.9c-0.1,0.7-0.1,1.4,0,2.1
					c-1.6,1.9-1.6,2.5-0.7,4.3c0,0.1,0.6,1,0.7,1.1c-0.2-1.5,0.1-2.2,1-3.3c0.8,1.1,2.1,1.8,3.6,2c3.1,0.4,6.1-1.7,6.7-4.7
					c0.1-0.4,0.1-0.8,0.1-1.1l2.8-0.4c0,0,0,0.1,0,0.4l0,0c0,0.8,0.2,1.7,0.6,2.5c1.5,2.7,4.9,3.9,7.7,2.7c1.4-0.6,2.3-1.7,2.8-3
					c1.1,0.8,1.6,1.4,1.9,2.9c0.1-0.1,0.3-1.2,0.3-1.2c0.3-1.9,0.1-2.5-2-3.9c-0.1-0.7-0.3-1.4-0.6-2c0,0,0-0.1-0.1-0.1l0,0
					c-0.1-0.2-0.3-0.4-0.5-0.7c-0.1-0.1-0.2-0.2-0.3-0.3c-0.4-0.4-0.8-0.8-1.4-1.3l-0.1-3l9-0.1V134l4.3-2.6
					C351.3,131.2,345.8,128.6,345,122.9z"/>
				<path d="M387.8,146.4l3,1.3v-10.5c-8.5-0.3-4.2-17.4-4.2-17.4c-18.9,3.9-13.7-9.5-13.7-9.5c7.1-0.9,19.1-7.7,18.3-18.7
					C389.6,71,338,78.7,322.6,79.7c-15.4,0.9-8.2-3.5,4.7-4.6c12.9-1.1-6-16.3-6-16.3s4.6,4.2-14.6,14.6s5.8,12.4,5.8,12.4
					c-6.1,5.7,3.8,9.4,3.8,9.4c-3.3-4.6,2.4-8.3,2.4-8.3s43.1-8.7,58.2-2.4c15.1,6.3,1.7,23.7-9.2,20.4c-10.8-3.3-33.6-0.9-33.6-0.9
					l-18.5,24c20.6-15.9,32.4-12.1,32.4-12.1c7.7,17.1,13.5,13.5,23.1,17s6.3,12.3,6.3,12.3h-5.6c0.4-1.2,0.4-2.5-0.1-3.8
					c-1.2-2.8-4.6-4.3-7.5-3.2c-0.7,0.3-1.3,0.6-1.8,1.1c-2.5-0.3-3,0-4.1,1.6c0,0.1-0.6,1.1-0.6,1.1c1.2-0.9,2-1,3.4-0.9
					c-0.5,1.2-0.6,2.7,0,4.1c0.5,1.1,1.3,2.1,2.4,2.7l1.1,1.1c-0.6,0.4-1.2,0.8-1.7,1.4c-0.5,0.6-0.8,1.2-1,1.9
					c-2.3,1-2.6,1.5-2.7,3.4c0,0.1,0,1.2,0.1,1.3c0.6-1.4,1.2-1.9,2.4-2.5c0.2,1.3,0.9,2.6,2.1,3.5c2.5,1.8,6.1,1.3,8.1-1.1
					c0.8-1,1.2-2.1,1.2-3.3h2.4c0.1,0.6,0.4,1.2,0.7,1.8c1.7,2.6,5.2,3.6,7.9,2.1c1.3-0.7,2.2-1.9,2.5-3.2c1.2,0.7,1.7,1.3,2.1,2.8
					c0.1-0.1,0.2-1.2,0.2-1.3c0.1-1.9-0.1-2.5-2.2-3.7c-0.1-0.7-0.4-1.4-0.8-2c-0.3-0.5-0.8-1-1.2-1.4
					C385.1,146.9,387.8,146.4,387.8,146.4z"/>
				<path d="M299.1,103.4c0,0-13.4,26.1-66.7,31.8c0.1-0.3,0.1-0.7,0.2-1.1c0.2-3.4-2.2-6.9-5.3-7.8c-0.8-0.2-1.5-0.3-2.2-0.2
					c-2.1-1.9-2.7-1.9-4.5-1.1c-0.1,0-1,0.6-1.1,0.7c1.5-0.1,2.3,0.3,3.5,1.3c-1.1,0.8-1.8,2.1-1.9,3.8c-0.2,3.1,1.8,6.2,4.5,7.4
					l-0.3,0.5c-2.6-0.7-5.7,0.4-7.4,2.8c-0.5,0.7-0.8,1.5-1,2.2c-2.3,1.3-2.5,1.9-2.5,3.9c0,0.1,0.1,1.3,0.2,1.4
					c0.5-1.5,1.1-2.2,2.3-2.9c0.3,1.4,1.2,2.7,2.5,3.5c2.9,1.6,6.6,0,8.6-2.9v-0.1l0.8,0.1l0.1,0.5c-0.4,2.4,0.1,5,1.2,6.5
					c0.8,1.1,2.1,1.7,3.3,1.6c-0.5,1.5-1,2.3-2.4,3.2c0.1,0,1.2-0.2,1.2-0.2c1.8-0.5,2.3-1,3.3-3.7c0.6-0.4,1.2-0.9,1.8-1.5
					c0.9-1.1,1.5-2.3,1.8-3.6l0,0c0-0.1,0-0.2,0-0.3c0.2-1.1,0.2-2.1,0-3.1l5.1,0.8l0.4,8.2c0,0,19-11.5,40.6-9.3c0,0,2-2.6,0.5-4.4
					c-1.5-1.7-3.1-13.2,1.8-15.9c0,0-2.1,14.8,7.7,9.6c9.8-5.2,16.7-8.5,16.7-8.5l17.2-23.6h-30V103.4z"/>
			</g>
			<g>
				<path class="st2" d="M540.7,130h-12.6l14.9-13h10.8L540.7,130z M521.5,130H511l14.9-13h10.5L521.5,130z M504.3,130h-10.7
					l14.9-13h10.7L504.3,130z M487,130h-11.4l14.9-13h11.4L487,130z M469,130h-11.2l14.9-13h11.1L469,130z M469,134.4l14.9,13h-10.5
					l-14.9-13H469z M475.7,134.4h10.7l14.9,13h-10.7L475.7,134.4z M493,134.4h11.4l14.9,13h-11.4L493,134.4z M511,134.4h11.1
					l14.9,13h-11.1L511,134.4z M463.6,117h2.6l-14.9,13H446C446.9,116.3,462.9,117,463.6,117z M463.7,147.4c-0.8,0-16.7,0.6-17.8-13
					h5.9l14.9,13H463.7z M553.8,147.4h-10.2l-14.9-13h11.9L553.8,147.4z"/>
				<polygon class="st2" points="560.9,132.7 415.2,132.7 401.1,128.3 565,128.3 				"/>
			</g>
			<g>
				<path class="st2" d="M57.7,117h10.8l14.9,13H70.8L57.7,117z M75.2,117h10.5l14.9,13H90.1L75.2,117z M92.3,117H103l14.9,13h-10.7
					L92.3,117z M109.6,117H121l14.9,13h-11.4L109.6,117z M127.7,117h11.1l14.9,13h-11.1L127.7,117z M153.1,134.4l-14.9,13h-10.5
					l14.9-13H153.1z M121,147.4h-10.7l14.9-13h10.7L121,147.4z M103.7,147.4H92.3l14.9-13h11.4L103.7,147.4z M85.7,147.4H74.6
					l14.9-13h11.1L85.7,147.4z M165.7,130h-5.3l-14.9-13h2.6C148.7,117,164.7,116.3,165.7,130z M144.8,147.4l14.9-13h5.9
					c-1,13.6-17,13-17.8,13H144.8z M70.9,134.4h11.9l-14.9,13H57.8L70.9,134.4z"/>
				<polygon class="st2" points="50.7,132.7 196.4,132.7 210.5,128.3 46.6,128.3 				"/>
			</g>
		</g>
		<g>
			<path d="M296.8,59.8l-6.2-0.6c-0.4,0-0.9,0.1-1.3,0.3l0,0c-0.3,0.2-0.5,0.5-0.7,0.8l-0.5,1c-0.3,0.6-0.2,0.3-0.7,1.3l-2.7,4.9
				l2.9-8.5l-16.4-0.6c-0.5,0-1.3,0.3-1.7,0.5c-0.3,0.1-0.7,0.4-1,0.6l-2.7,2.1c0,0,0,0-0.1,0l-9,0.7c-0.5,0-0.9,0.1-1,0.6l-0.4,3.6
				c0,0,0.4,0,0.5,0l5.2-1c0,0-0.4,1.5-4.5,2.1c-4,0.6,0.9,9.5,1.2,10c0.1,0.2,0.3,0.7,0.6,0.8l0.6,0.2c0.5,0.2,1.4-0.3,1.9-0.5
				c2.1-0.9,8.7-3.2,10.3,1.7c1.8,5.8-6.2,7.5-10.4,6.5c-0.1,0-0.1,0-0.1,0.1l0.1,7.6c0.1,0,0.1,0,0.2,0.1c1.2-1.1,8-7.3,14.3-4.7
				c0,0.1,0,0.1,0,0.1c-1.5,0.8-15.2,8.3-16.1,15.7c-0.9,7.4-1,19.7-4.8,22.4c-0.1,0.1,0,0.2,0.1,0.2l7.8-3.7l1-0.5
				c0.2-0.1,0.4-0.1,0.6-0.2l3.3-9.7l-0.7,8.8c2.6-1,5.5-2.2,8.3-3.4l3.9-16.3l-0.3,14.6c2.5-1.3,4.8-3,7-4.8l4.3-19l-0.1,14.7
				l0.1-0.1l5.6-5.6c0.2-0.3,0.4-0.6,0.4-1c0-0.7,0-1.7,0-1.7v-25c0-0.2-0.1-0.4-0.1-0.5l-0.7-1.2c-0.1-0.2-0.3-0.4-0.6-0.5
				l-2.6-1.3l2.8-0.8c0,0,0.2-0.1,0.4-0.1c0.8-0.3,1.3-0.9,1.5-1.7l1.8-7.8C297.7,60.3,297.3,59.8,296.8,59.8z M277.1,62.1l-1.3,1.4
				c-0.2,0.2-0.4,0.3-0.7,0.3l-6.2-0.2c-0.5,0-0.7-0.5-0.3-0.8l1.4-1.3c0.2-0.2,0.5-0.2,0.8-0.2l5.8,0.2
				C277.2,61.4,277.4,61.9,277.1,62.1z M293.6,67.3c-0.1,0.4-0.5,0.7-0.9,0.8l-4.1,0.1l4.9-6.6h1.7L293.6,67.3z"/>
			<polygon points="291,64.2 293.6,64.8 290,65.8 			"/>
			<polygon points="289.9,66 292.4,66.6 288.8,67.6 			"/>
		</g>
	</g>
	<g>
		<circle class="st0" cx="390.5" cy="64.6" r="8.5"/>
		<g class="st1">
			<path class="st2" d="M392.8,65.7h1v1.4h-1V69H391v-1.9h-3.7l-0.1-1.1l3.7-5.9h1.8V65.7z M389,65.7h2v-3.2l-0.1,0.2L389,65.7z"/>
		</g>
	</g>
	<g>
		<circle class="st0" cx="29.1" cy="109.3" r="8.5"/>
		<g class="st1">
			<path class="st2" d="M32.2,113.8h-6.1v-1.2l2.9-3.1c0.4-0.4,0.7-0.8,0.9-1.1c0.2-0.3,0.3-0.6,0.3-0.9c0-0.4-0.1-0.7-0.3-0.9
				c-0.2-0.2-0.5-0.3-0.9-0.3c-0.4,0-0.7,0.1-0.9,0.4c-0.2,0.3-0.3,0.6-0.3,1.1h-1.8c0-0.5,0.1-1,0.4-1.5s0.6-0.8,1.1-1.1
				c0.5-0.3,1-0.4,1.6-0.4c0.9,0,1.6,0.2,2.1,0.7c0.5,0.4,0.8,1.1,0.8,1.9c0,0.4-0.1,0.9-0.3,1.4s-0.6,1-1.2,1.6l-2,2.1h3.8V113.8z"
				/>
		</g>
	</g>
	<g>
		<circle class="st0" cx="76.1" cy="94.9" r="8.5"/>
		<g class="st1">
			<path class="st2" d="M74.8,94.1h0.9c0.5,0,0.8-0.1,1-0.3c0.2-0.2,0.3-0.5,0.3-0.9c0-0.4-0.1-0.6-0.3-0.8
				c-0.2-0.2-0.5-0.3-0.9-0.3c-0.3,0-0.6,0.1-0.9,0.3c-0.2,0.2-0.3,0.4-0.3,0.7h-1.8c0-0.5,0.1-0.9,0.4-1.3s0.6-0.7,1.1-0.9
				c0.5-0.2,1-0.3,1.5-0.3c0.9,0,1.7,0.2,2.2,0.7c0.5,0.5,0.8,1.1,0.8,1.9c0,0.4-0.1,0.8-0.4,1.1s-0.6,0.6-1,0.8
				c0.5,0.2,0.9,0.4,1.1,0.8c0.2,0.4,0.4,0.8,0.4,1.3c0,0.8-0.3,1.4-0.9,1.9c-0.6,0.5-1.3,0.7-2.3,0.7c-0.9,0-1.6-0.2-2.2-0.7
				c-0.6-0.5-0.8-1.1-0.8-1.9h1.8c0,0.3,0.1,0.6,0.4,0.8c0.3,0.2,0.6,0.3,0.9,0.3c0.4,0,0.8-0.1,1-0.3c0.2-0.2,0.4-0.5,0.4-0.9
				c0-0.9-0.5-1.3-1.5-1.3h-0.9V94.1z"/>
		</g>
	</g>
</g>
<g id="Layer_2_00000073709834907939971720000007777133398587536032_">
</g>
<g id="Layer_3" class="st4">
</g>
</svg>
