<?xml version="1.0" encoding="utf-8"?>
<!-- Generator: Adobe Illustrator 26.0.2, SVG Export Plug-In . SVG Version: 6.00 Build 0)  -->
<svg version="1.1" id="Layer_1" xmlns="http://www.w3.org/2000/svg" xmlns:xlink="http://www.w3.org/1999/xlink" x="0px" y="0px"
	 viewBox="0 0 459.74 428.04" style="enable-background:new 0 0 459.74 428.04;" xml:space="preserve">
<style type="text/css">
	.st0{fill:#4E738A;}
	.st1{fill:#FF9D6C;}
	.st2{clip-path:url(#SVGID_00000177481436426154221660000003504369963084341174_);}
	.st3{clip-path:url(#SVGID_00000025427404942013464400000011527906488598608024_);}
</style>
<g>
	<path class="st0" d="M177.77,152.71c10.85-0.05,12.93,0,20.75,3.57c16.62,7.6,29.05,12.74,27.05,25.71
		c1.9,1.47,4.09,2.63,6.05,4.03c13.56-16.34,8.81-38.68-11.24-50.7l-51.35-30.8c-0.99-0.59-2.31-0.66-3.37-0.17
		c-1.06,0.5-1.63,1.45-1.46,2.41l7.42,44.25"/>
	<g>
		<path class="st1" d="M224.81,142.9l-55.46-32.38l4.8,29.9c0.46,2.86,2.1,13.03,4.89,13.8c10.06,2.77,35.21,11.63,49.18,28.15
			c9.58,11.34,4.55-28.26,0.12-35.22C226.96,144.99,225.78,143.59,224.81,142.9z"/>
		<path class="st0" d="M231.2,187.17c-2.23,0-4.2-1.97-5.09-3.03c-5.82-6.88-14.29-13.12-25.17-18.54
			c-10.14-5.05-19.2-7.78-22.62-8.72c-3.24-0.89-5.17-5.38-6.89-16l-5.73-35.71l60.71,35.46c1.31,0.93,2.7,2.57,4.26,5.02
			c2.3,3.61,4.24,12.98,5.15,20.66c2,16.91-1.19,19.25-2.24,20.03C232.77,186.94,231.97,187.17,231.2,187.17z M180.07,151.63
			c6.3,1.76,34.66,10.49,50.26,28.95c0.08,0.09,0.15,0.18,0.22,0.25c0.46-2.2,0.63-7.07-0.35-14.78c-1.11-8.77-3-15.51-4.21-17.41
			c-1.45-2.28-2.34-3.12-2.71-3.41l-50.27-29.36l3.87,24.12C178.32,148.88,179.64,151.11,180.07,151.63z"/>
	</g>
	<g>
		<defs>
			<path id="SVGID_1_" d="M224.81,142.9l-55.46-32.38l4.8,29.9c0.46,2.86,2.1,13.03,4.89,13.8c10.06,2.77,35.21,11.63,49.18,28.15
				c9.58,11.34,4.55-28.26,0.12-35.22C226.96,144.99,225.78,143.59,224.81,142.9z"/>
		</defs>
		<clipPath id="SVGID_00000180361234072188936140000003506838417723947418_">
			<use xlink:href="#SVGID_1_"  style="overflow:visible;"/>
		</clipPath>
		<g style="clip-path:url(#SVGID_00000180361234072188936140000003506838417723947418_);">
			<path class="st0" d="M245.91,181.11c-2.45,0-5.05-0.23-7.78-0.76c-14.51-2.85-27.71-13.49-39.24-31.61
				c-6.87-10.8-15.08-19.51-24.41-25.88c-7.44-5.09-15.61-8.72-24.29-10.79c-14.85-3.55-26.21-1.27-26.32-1.25l-1.14-5.42
				c0.5-0.11,12.47-2.54,28.47,1.22c9.38,2.2,18.21,6.1,26.25,11.57c10.01,6.81,18.79,16.09,26.1,27.58
				c10.66,16.75,22.61,26.55,35.54,29.13c14.31,2.86,24.94-4.42,25.05-4.49l3.19,4.52C266.91,175.23,258.42,181.11,245.91,181.11z"
				/>
		</g>
	</g>
	<g>
		<path class="st0" d="M295.66,152.71c-10.85-0.05-12.93,0-20.75,3.57c-16.62,7.6-29.05,12.74-27.05,25.71
			c-1.9,1.47-4.09,2.63-6.05,4.03c-13.56-16.34-8.81-38.68,11.24-50.7l51.35-30.8c0.99-0.59,2.31-0.66,3.37-0.17
			c1.06,0.5,1.63,1.45,1.46,2.41l-6.9,44.67"/>
		<g>
			<path class="st1" d="M248.71,142.9l55.46-32.38l-4.8,29.9c-0.46,2.86-3.76,6.13-5.69,8.29c-15.68,17.54-37.91,20.8-51.87,37.31
				c-9.58,11.34-1.05-31.92,3.37-38.88C246.56,144.99,247.74,143.59,248.71,142.9z"/>
			<path class="st0" d="M239.17,190.69c-0.95,0-1.71-0.38-2.22-0.76c-1.22-0.9-4.08-3-0.63-21.86c1.51-8.23,4.19-18.75,6.53-22.42
				c1.56-2.45,2.95-4.09,4.26-5.02l0.2-0.13l60.51-35.33l-5.72,35.68c-0.54,3.32-3.35,6.4-5.61,8.87c-0.26,0.29-0.52,0.56-0.75,0.82
				c-8.18,9.15-17.94,14.49-27.38,19.66c-9.16,5.01-17.81,9.75-24.44,17.59C242.05,190.03,240.43,190.69,239.17,190.69z
				 M250.23,145.22c-0.37,0.29-1.26,1.13-2.71,3.41c-1.27,1.99-3.63,9.37-5.51,19.15c-1.51,7.83-1.89,13.06-1.79,15.84
				c7.23-8.27,16.5-13.35,25.48-18.26c9.03-4.94,18.37-10.06,25.91-18.5c0.24-0.27,0.51-0.56,0.79-0.87
				c1.48-1.62,3.96-4.33,4.23-6.02l3.87-24.11L250.23,145.22z"/>
		</g>
	</g>
	<g>
		<defs>
			<path id="SVGID_00000161610837126079277630000015095820151216490931_" d="M247.51,142.09l55.46-32.38l-4.8,29.9
				c-0.46,2.86-2.1,13.03-4.89,13.8c-10.06,2.77-35.21,11.63-49.18,28.15c-9.58,11.34-4.55-28.26-0.12-35.22
				C245.36,144.17,246.54,142.78,247.51,142.09z"/>
		</defs>
		<clipPath id="SVGID_00000009559099129497766360000016446678146259095725_">
			<use xlink:href="#SVGID_00000161610837126079277630000015095820151216490931_"  style="overflow:visible;"/>
		</clipPath>
		<g style="clip-path:url(#SVGID_00000009559099129497766360000016446678146259095725_);">
			<path class="st0" d="M226.42,180.3c-12.51,0-21.01-5.88-21.43-6.18l3.2-4.52c0.1,0.07,10.74,7.35,25.04,4.49
				c12.92-2.58,24.88-12.38,35.54-29.13c7.31-11.49,16.1-20.77,26.1-27.58c8.04-5.47,16.87-9.36,26.25-11.57
				c16-3.76,27.97-1.32,28.47-1.22l-1.14,5.42c-0.11-0.02-11.47-2.3-26.32,1.25c-8.68,2.07-16.85,5.7-24.29,10.79
				c-9.32,6.38-17.53,15.08-24.41,25.88c-11.53,18.12-24.73,28.75-39.24,31.61C231.47,180.08,228.86,180.3,226.42,180.3z"/>
		</g>
	</g>
	<path class="st0" d="M238.91,369.7h-4.4c-1.96,0-3.54-1.59-3.54-3.54V246.59c0-1.96,1.59-3.54,3.54-3.54h4.4
		c1.96,0,3.54,1.59,3.54,3.54v119.57C242.45,368.11,240.87,369.7,238.91,369.7z"/>
	<polyline class="st0" points="284.07,199.96 236.71,256.51 191.6,202.63 	"/>
	<polyline class="st1" points="255.39,220.34 236.71,242.65 218.03,220.34 	"/>
	<polygon class="st0" points="240.86,294.84 277.12,261.9 282.08,271.12 241.59,307.7 	"/>
	<g>
		<polygon class="st1" points="280.73,264.79 295.58,293.69 297.42,269.39 		"/>
		<path class="st0" d="M296.93,300.34l-19.77-38.44l22.21,6.11L296.93,300.34z M284.29,267.69l9.95,19.34l1.23-16.27L284.29,267.69z
			"/>
	</g>
	<g>
		<g>
			<path class="st1" d="M357.06,159.87c0,0-51.96-41.33-93.08-0.02s-69.46,26.96-69.46,26.96s31.87,56.58,83.01,17.96
				S322.59,171.9,357.06,159.87z"/>
			<path class="st0" d="M242.46,221.04c-3.16,0-6.31-0.32-9.43-0.98c-25.73-5.36-40.32-30.81-40.93-31.89l-4.48-7.95l8.14,4.12
				c2.29,1.13,9.06,2.94,18.16,1.67c19.27-2.67,36.79-16.77,48.09-28.12c17.56-17.65,39.93-23.25,64.68-16.19
				c18.45,5.26,31.54,15.56,32.09,16l3.93,3.13l-4.74,1.65c-5.09,1.78-9.25,3.15-12.92,4.36c-20.88,6.9-22.59,7.46-65.85,40.13
				C266.82,216.33,254.5,221.04,242.46,221.04z M201.05,191.49c5.74,7.54,17.25,19.86,33.15,23.16
				c13.35,2.77,27.37-1.29,41.66-12.08c43.99-33.22,46.21-33.96,67.45-40.97c2.34-0.77,4.87-1.61,7.72-2.57
				c-5.17-3.38-14.59-8.8-26.02-12.03c-10.09-2.85-19.76-3.47-28.75-1.82c-11.18,2.05-21.38,7.65-30.33,16.64
				c-17.49,17.58-34.91,27.59-51.76,29.77C208.87,192.26,204.44,192.02,201.05,191.49z"/>
		</g>
		<g>
			<path class="st0" d="M227.71,206.17c-0.26,0-0.52,0-0.78-0.01c-16.97-0.32-26.98-11.02-27.4-11.47l4.08-3.74
				c0.08,0.09,8.94,9.45,23.52,9.68c13.17,0.2,26.93-6.84,40.89-20.96c9.58-9.69,20.12-16.9,31.34-21.44
				c9.01-3.65,18.47-5.58,28.1-5.76c16.43-0.3,27.62,4.62,28.09,4.83l-2.26,5.05l1.13-2.53l-1.13,2.53
				c-0.1-0.05-10.72-4.67-25.99-4.34c-8.92,0.19-17.67,2.01-26.02,5.41c-10.46,4.26-20.33,11.04-29.33,20.14
				C257.13,198.56,242.25,206.17,227.71,206.17z"/>
			<g>
				<line class="st1" x1="265.22" y1="159.14" x2="279.71" y2="173.37"/>
				
					<rect x="270.99" y="156.1" transform="matrix(0.7007 -0.7135 0.7135 0.7007 -37.0669 244.1464)" class="st0" width="2.95" height="20.31"/>
			</g>
			<g>
				<line class="st1" x1="270.94" y1="155.22" x2="284.84" y2="169.13"/>
				
					<rect x="276.41" y="152.34" transform="matrix(0.7071 -0.7071 0.7071 0.7071 -33.2809 244.0003)" class="st0" width="2.95" height="19.67"/>
			</g>
		</g>
	</g>
	<g>
		<g>
			<path class="st0" d="M234.09,226.71V92.03c0-1.34,1.17-2.43,2.62-2.43s2.62,1.09,2.62,2.43v134.67"/>
			<path class="st0" d="M240.26,226.71h-1.85V92.03c0-0.83-0.76-1.51-1.7-1.51c-0.94,0-1.7,0.68-1.7,1.51v134.67h-1.85V92.03
				c0-1.85,1.59-3.35,3.55-3.35c1.96,0,3.55,1.5,3.55,3.35V226.71z"/>
		</g>
	</g>
	<g>
		<path class="st1" d="M126.99,168.53c0,0,50.64-40.36,91.47,0.93s68.54,27.38,68.54,27.38s-30.74,55.65-81.39,16.92
			S160.98,180.79,126.99,168.53z"/>
		<path class="st0" d="M240.63,230.25c-11.98,0-24.29-4.78-36.72-14.28c-42.85-32.77-44.53-33.34-65.13-40.38
			c-3.62-1.24-7.73-2.64-12.74-4.45l-4.66-1.68l3.88-3.09c0.53-0.43,13.31-10.5,31.41-15.52c10.73-2.98,21.09-3.54,30.79-1.67
			c12.16,2.34,23.25,8.51,32.96,18.34c11.22,11.35,28.57,25.47,47.52,28.31c8.95,1.34,15.57-0.37,17.82-1.46l7.86-3.82l-4.21,7.64
			c-0.58,1.05-14.54,25.86-39.56,31.11C246.8,229.93,243.73,230.25,240.63,230.25z M132.96,167.72c2.81,0.98,5.31,1.84,7.62,2.63
			c20.94,7.16,23.13,7.91,66.7,41.22c14.28,10.92,28.21,15.06,41.4,12.31c15.36-3.21,26.39-15.12,31.9-22.45
			c-3.34,0.49-7.7,0.68-12.94-0.05c-16.58-2.32-33.79-12.41-51.16-29.97c-8.89-8.99-18.97-14.63-29.97-16.77
			c-8.83-1.72-18.32-1.22-28.2,1.5C147.18,159.2,138.02,164.43,132.96,167.72z"/>
	</g>
	<g>
		<path class="st0" d="M255.94,215.68c-14.54,0-29.42-7.6-44.26-22.61c-9-9.1-18.87-15.88-29.33-20.14
			c-8.35-3.4-17.1-5.22-26.02-5.41c-15.27-0.33-25.88,4.3-25.99,4.34l-2.26-5.06c0.47-0.21,11.66-5.12,28.09-4.83
			c9.63,0.17,19.09,2.11,28.1,5.76c11.22,4.54,21.77,11.76,31.34,21.44c13.96,14.12,27.72,21.17,40.89,20.96
			c14.59-0.23,23.44-9.59,23.53-9.69l4.07,3.75c-0.42,0.46-10.42,11.15-27.4,11.47C256.46,215.68,256.2,215.68,255.94,215.68z"/>
		<g>
			<line class="st1" x1="207.24" y1="187.25" x2="192.76" y2="201.48"/>
			
				<rect x="189.85" y="192.89" transform="matrix(0.7135 -0.7007 0.7007 0.7135 -78.8837 195.8226)" class="st0" width="20.31" height="2.95"/>
		</g>
		<g>
			<line class="st1" x1="201.21" y1="183.02" x2="187.31" y2="196.93"/>
			
				<rect x="184.43" y="188.5" transform="matrix(0.7071 -0.7071 0.7071 0.7071 -77.4366 193.0066)" class="st0" width="19.67" height="2.95"/>
		</g>
	</g>
	<g>
		<rect x="227.16" y="232.86" class="st0" width="20.34" height="1.85"/>
	</g>
	<g>
		<rect x="223.1" y="228.29" class="st0" width="24.61" height="1.85"/>
	</g>
	<g>
		<rect x="284.07" y="271.97" class="st0" width="12.06" height="1.85"/>
	</g>
	<g>
		<rect x="226.54" y="237.55" class="st0" width="20.34" height="1.85"/>
	</g>
	<g>
		<rect x="287.09" y="277.6" class="st0" width="8.49" height="1.85"/>
	</g>
	<polygon class="st0" points="220.05,225.12 228.22,226.71 228.22,228.66 222.28,229.21 	"/>
	<g>
		<path class="st1" d="M222.4,97.35l-2.4,2.4c-1.07,1.07-2.79,1.07-3.86,0l-2.4-2.4c-1.07-1.07-1.07-2.79,0-3.86l2.4-2.4
			c1.07-1.07,2.79-1.07,3.86,0l2.4,2.4C223.47,94.56,223.47,96.28,222.4,97.35z"/>
		<path class="st0" d="M218.08,101.98c-1.15,0-2.23-0.45-3.05-1.26l-2.25-2.25c-0.81-0.81-1.26-1.9-1.26-3.05s0.45-2.23,1.26-3.05
			l2.25-2.25c0.81-0.81,1.9-1.26,3.05-1.26c1.15,0,2.23,0.45,3.05,1.26l2.25,2.25c0.81,0.81,1.26,1.9,1.26,3.05
			s-0.45,2.23-1.26,3.05l-2.25,2.25C220.31,101.53,219.23,101.98,218.08,101.98z M218.08,91.82c-0.36,0-0.7,0.14-0.96,0.4
			l-2.25,2.25c-0.26,0.26-0.4,0.6-0.4,0.96c0,0.36,0.14,0.7,0.4,0.96l2.25,2.25c0.51,0.51,1.41,0.51,1.92,0l2.25-2.25
			c0.26-0.26,0.4-0.6,0.4-0.96c0-0.36-0.14-0.7-0.4-0.96l-2.25-2.25C218.78,91.96,218.44,91.82,218.08,91.82z"/>
	</g>
	<g>
		<path class="st1" d="M259.67,97.35l-2.4,2.4c-1.07,1.07-2.79,1.07-3.86,0l-2.4-2.4c-1.07-1.07-1.07-2.79,0-3.86l2.4-2.4
			c1.07-1.07,2.79-1.07,3.86,0l2.4,2.4C260.74,94.56,260.74,96.28,259.67,97.35z"/>
		<path class="st0" d="M255.35,101.98c-1.15,0-2.23-0.45-3.05-1.26l-2.25-2.25c-1.68-1.68-1.68-4.42,0-6.1l2.25-2.25
			c0.81-0.81,1.9-1.26,3.05-1.26c1.15,0,2.23,0.45,3.05,1.26l2.25,2.25c0.81,0.81,1.26,1.9,1.26,3.05s-0.45,2.23-1.26,3.05
			l-2.25,2.25C257.58,101.53,256.5,101.98,255.35,101.98z M255.35,91.82c-0.36,0-0.7,0.14-0.96,0.4l-2.25,2.25
			c-0.53,0.53-0.53,1.39,0,1.92l2.25,2.25c0.51,0.51,1.41,0.51,1.92,0l2.25-2.25c0.26-0.26,0.4-0.6,0.4-0.96
			c0-0.36-0.14-0.7-0.4-0.96l-2.25-2.25C256.05,91.96,255.71,91.82,255.35,91.82z"/>
	</g>
	<g>
		<path class="st1" d="M241.04,78.71l-2.4,2.4c-1.07,1.07-2.79,1.07-3.86,0l-2.4-2.4c-1.07-1.07-1.07-2.79,0-3.86l2.4-2.4
			c1.07-1.07,2.79-1.07,3.86,0l2.4,2.4C242.1,75.92,242.1,77.65,241.04,78.71z"/>
		<path class="st0" d="M236.71,83.34c-1.15,0-2.23-0.45-3.05-1.26l-2.25-2.25c-1.68-1.68-1.68-4.42,0-6.1l2.25-2.25
			c0.81-0.81,1.9-1.26,3.05-1.26c1.15,0,2.23,0.45,3.05,1.26l2.25,2.25c0.81,0.81,1.26,1.9,1.26,3.05s-0.45,2.23-1.26,3.05
			l-2.25,2.25C238.95,82.89,237.86,83.34,236.71,83.34z M236.71,73.18c-0.36,0-0.7,0.14-0.96,0.4l-2.25,2.25
			c-0.53,0.53-0.53,1.39,0,1.92l2.25,2.25c0.51,0.51,1.41,0.51,1.92,0l2.25-2.25c0.26-0.26,0.4-0.6,0.4-0.96
			c0-0.36-0.14-0.7-0.4-0.96l-2.25-2.25C237.42,73.32,237.07,73.18,236.71,73.18z"/>
	</g>
	<polygon class="st0" points="240.78,326.62 204.51,293.69 199.56,302.91 240.05,339.49 	"/>
	<g>
		<polygon class="st1" points="200.91,296.58 186.05,325.47 184.22,301.17 		"/>
		<path class="st0" d="M182.26,299.79l22.21-6.11l-19.77,38.44L182.26,299.79z M186.17,302.55l1.23,16.27l9.95-19.34L186.17,302.55z
			"/>
	</g>
	<g>
		<line class="st1" x1="197.57" y1="304.68" x2="185.51" y2="304.68"/>
		<rect x="185.51" y="303.76" class="st0" width="12.06" height="1.85"/>
	</g>
	<g>
		<line class="st1" x1="194.54" y1="310.31" x2="186.05" y2="310.31"/>
		<rect x="186.05" y="309.38" class="st0" width="8.49" height="1.85"/>
	</g>
</g>
</svg>
