<?xml version="1.0" encoding="utf-8"?>
<!-- Generator: Adobe Illustrator 26.3.1, SVG Export Plug-In . SVG Version: 6.00 Build 0)  -->
<svg version="1.1" id="Layer_1" xmlns="http://www.w3.org/2000/svg" xmlns:xlink="http://www.w3.org/1999/xlink" x="0px" y="0px"
	 viewBox="0 0 1080 1873.7" style="enable-background:new 0 0 1080 1873.7;" xml:space="preserve">
<style type="text/css">
	.st0{fill:#FFFFFF;}
	.st1{fill:#4E738A;}
	.st2{fill:#FF9D6C;}
	.st3{clip-path:url(#SVGID_00000011726666987242577270000018034702912118036106_);}
	.st4{clip-path:url(#SVGID_00000057832946311273737540000006733049652096590480_);}
	.st5{fill:none;}
	.st6{clip-path:url(#SVGID_00000040553202362353231870000013880610919054421906_);}
	.st7{clip-path:url(#SVGID_00000177478736444684976440000010897542213726938025_);}
	.st8{clip-path:url(#SVGID_00000013154595214493139870000018101234710611156382_);}
	.st9{clip-path:url(#SVGID_00000160182656212172613350000002622464748676667279_);}
	.st10{clip-path:url(#SVGID_00000015326675879934428910000006987506199308420757_);}
	.st11{clip-path:url(#SVGID_00000052816933610671599840000012896841191260085902_);}
	.st12{clip-path:url(#SVGID_00000049186606057397266860000018001173201715142047_);}
	.st13{clip-path:url(#SVGID_00000016797744768583183530000012117356894012669880_);}
	.st14{clip-path:url(#SVGID_00000060031944667363718210000013369851669240573570_);}
	.st15{clip-path:url(#SVGID_00000075137363856709235050000008755582054597848247_);}
</style>
<rect x="-0.2" y="1.2" class="st0" width="1079.9" height="1870.9"/>
<circle class="st1" cx="181.2" cy="1704.5" r="140.5"/>
<rect x="721.2" y="1527.9" class="st1" width="360" height="346.1"/>
<g>
	<path class="st1" d="M125.6,555.5h-19.9V600h-18V490.4h37.8c26,0,38.8,14.8,38.8,32.6C164.4,538.6,154.1,555.5,125.6,555.5z
		 M125.6,540.8c14,0,20.3-6.8,20.3-17.8c0-11.4-6.3-18-20.3-18h-19.9v35.8L125.6,540.8L125.6,540.8z"/>
	<path class="st1" d="M191,483.3h18V600h-18V483.3z"/>
	<path class="st1" d="M277.1,511.6c14.7,0,24.8,6.9,30.1,14v-12.6h18.1V600h-18.1V587c-5.5,7.4-15.9,14.3-30.4,14.3
		c-22.5,0-40.7-18.5-40.7-45.2S254.3,511.6,277.1,511.6z M280.9,527.3c-13.4,0-26.3,10.1-26.3,28.9s12.9,29.6,26.3,29.6
		c13.6,0,26.3-10.6,26.3-29.3C307.3,537.8,294.5,527.3,280.9,527.3z"/>
	<path class="st1" d="M356.1,490c0-6.5,5-11.5,11.5-11.5c6.3,0,11.4,5,11.4,11.5c0,6.5-5,11.5-11.4,11.5
		C361.2,501.6,356.1,496.5,356.1,490z M358.5,513.1h18V600h-18V513.1z"/>
	<path class="st1" d="M471.2,551.4c0-15.9-8.7-24.1-21.8-24.1c-13.2,0-21.9,8.2-21.9,24.1V600h-18v-86.9h18v9.9
		c5.8-7.1,15.5-11.4,25.9-11.4c20.3,0,35.6,12.8,35.6,37.1V600h-17.8V551.4z"/>
	<path class="st1" d="M552.9,601.4c-20.8,0-35.5-12.3-36.3-28.1h18.6c0.6,7.1,7.4,12.9,17.3,12.9c10.4,0,15.9-4.4,15.9-10.4
		c0-17-50.5-7.2-50.5-39.1c0-13.9,12.9-25.1,33.4-25.1c19.7,0,32.6,10.6,33.6,27.9h-18c-0.6-7.6-6.5-12.8-16.2-12.8
		c-9.6,0-14.7,3.9-14.7,9.8c0,17.5,49,7.7,50,39.1C586.2,590.3,573.4,601.4,552.9,601.4z"/>
	<path class="st1" d="M624,513.1l24.6,70.8l24.6-70.8h19.1L659.2,600h-21.5l-33-86.9H624z"/>
	<path class="st1" d="M713,490c0-6.5,5-11.5,11.5-11.5c6.3,0,11.3,5,11.3,11.5c0,6.5-5,11.5-11.3,11.5C718,501.6,713,496.5,713,490z
		 M715.3,513.1h18V600h-18V513.1z"/>
	<path class="st1" d="M803.8,601.4c-24.9,0-43.4-17.7-43.4-44.9s17.7-44.8,43.4-44.8c24.8,0,42.3,17.2,42.3,42.7
		c0,3-0.2,5.8-0.6,8.8H779c1.3,14.3,11.5,23,24.8,23c11,0,17.2-5.4,20.5-12.1h19.4C838.8,589.2,825.1,601.4,803.8,601.4z
		 M779.2,548.7h48.1c-0.3-13.4-10.9-21.9-24.3-21.9C790.9,526.8,781.1,535,779.2,548.7z"/>
	<path class="st1" d="M862.9,513.1h18.3l18.1,69.8l18.5-69.8h18.8l17.7,69.5l18-69.5h17.7l-27,86.9H944l-17.5-64.2L909,600h-18.9
		L862.9,513.1z"/>
</g>
<g>
	<path class="st2" d="M188.3,653.2h14.5v1.8h-6.1v20.2h-2.2V655h-6.1V653.2z"/>
	<path class="st2" d="M279.1,675.4c-6.2,0-10.9-4.6-10.9-11.2c0-6.6,4.7-11.2,10.9-11.2c6.2,0,10.9,4.7,10.9,11.2
		C290.1,670.8,285.4,675.4,279.1,675.4z M279.1,673.5c4.9,0,8.6-3.6,8.6-9.3s-3.8-9.3-8.6-9.3c-4.9,0-8.6,3.5-8.6,9.3
		C270.5,669.9,274.3,673.5,279.1,673.5z"/>
	<path class="st2" d="M355.4,653.2h2.4l5,19.3l5.6-19.3h2.5l5.5,19.3l5.1-19.3h2.4l-6.2,22h-2.5l-5.5-18.8l-5.7,18.8l-2.4,0
		L355.4,653.2z"/>
	<path class="st2" d="M466.8,653.2v22h-2.2l-12.2-18.5v18.5h-2.2v-22h2.2l12.2,18.5v-18.5H466.8z"/>
	<path class="st2" d="M549,664.9h-11.9v10.3h-2.2v-22h2.2v9.9H549v-9.9h2.2v22H549V664.9z"/>
	<path class="st2" d="M629.2,675.4c-6.2,0-10.9-4.6-10.9-11.2c0-6.6,4.7-11.2,10.9-11.2c6.2,0,10.9,4.7,10.9,11.2
		C640.1,670.8,635.4,675.4,629.2,675.4z M629.2,673.5c4.9,0,8.6-3.6,8.6-9.3s-3.8-9.3-8.6-9.3c-4.9,0-8.6,3.5-8.6,9.3
		C620.6,669.9,624.3,673.5,629.2,673.5z"/>
	<path class="st2" d="M707.2,653.4h2.3l8.4,18.8l8.4-18.8h2.4v21.8h-2.2v-17.4l-7.8,17.4h-1.6l-7.8-17.3v17.3h-2.2L707.2,653.4
		L707.2,653.4z"/>
	<path class="st2" d="M808.2,655h-9.3v8.2h8.3v1.8h-8.3v8.3h9.3v1.8h-11.5v-22.1h11.5V655z"/>
	<path class="st2" d="M882.3,675.4c-4.4,0-7.3-2.5-7.4-5.9h2.3c0.2,1.8,1.5,4,5.1,4c3.1,0,4.8-1.8,4.8-4.1c0-6.5-12.1-2.4-12.1-10.7
		c0-3.4,2.8-5.9,7.1-5.9c4.2,0,6.7,2.3,7.1,5.4h-2.4c-0.2-1.5-1.7-3.4-4.8-3.5c-2.6,0-4.7,1.4-4.7,3.9c0,6.4,12.1,2.5,12.1,10.7
		C889.4,672.4,886.9,675.4,882.3,675.4z"/>
</g>
<rect y="830" class="st1" width="1081" height="350.7"/>
<g>
	<path class="st1" d="M475,236.2c10.8-0.1,12.8,0,20.6,3.5c16.5,7.6,28.8,12.6,26.8,25.5c1.9,1.5,4.1,2.6,6,4
		c13.5-16.2,8.7-38.4-11.2-50.3l-51-30.6c-1-0.6-2.3-0.6-3.3-0.2c-1,0.5-1.6,1.4-1.5,2.4l7.4,43.9"/>
	<g>
		<path class="st2" d="M521.7,226.4l-55-32.2l4.8,29.7c0.5,2.8,2.1,12.9,4.9,13.7c10,2.8,35,11.5,48.8,27.9
			c9.5,11.2,4.5-28.1,0.1-35C523.8,228.5,522.7,227.1,521.7,226.4z"/>
		<path class="st1" d="M528,270.4c-2.2,0-4.2-2-5.1-3c-5.8-6.8-14.2-13-25-18.4c-10.1-5-19.1-7.7-22.5-8.7
			c-3.2-0.9-5.1-5.3-6.8-15.9L463,189l60.3,35.2c1.3,0.9,2.7,2.6,4.2,5c2.3,3.6,4.2,12.9,5.1,20.5c2,16.8-1.2,19.1-2.2,19.9
			C529.6,270.2,528.8,270.4,528,270.4z M477.3,235.1c6.3,1.8,34.4,10.4,49.9,28.7c0.1,0.1,0.2,0.2,0.2,0.2c0.5-2.2,0.6-7-0.3-14.7
			c-1.1-8.7-3-15.4-4.2-17.3c-1.4-2.3-2.3-3.1-2.7-3.4l-49.9-29.1l3.8,23.9C475.5,232.4,476.9,234.6,477.3,235.1z"/>
	</g>
	<g>
		<g>
			<defs>
				<path id="SVGID_1_" d="M521.7,226.4l-55-32.2l4.8,29.7c0.5,2.8,2.1,12.9,4.9,13.7c10,2.8,35,11.5,48.8,27.9
					c9.5,11.2,4.5-28.1,0.1-35C523.8,228.5,522.7,227.1,521.7,226.4z"/>
			</defs>
			<clipPath id="SVGID_00000080182474763598188540000003157238099321449606_">
				<use xlink:href="#SVGID_1_"  style="overflow:visible;"/>
			</clipPath>
			<g style="clip-path:url(#SVGID_00000080182474763598188540000003157238099321449606_);">
				<path class="st1" d="M542.6,264.4c-2.4,0-5-0.2-7.7-0.8c-14.4-2.8-27.5-13.4-39-31.4c-6.8-10.7-15-19.4-24.2-25.7
					c-7.4-5.1-15.5-8.7-24.1-10.7c-14.7-3.5-26-1.3-26.1-1.2l-1.1-5.4c0.5-0.1,12.4-2.5,28.3,1.2c9.3,2.2,18.1,6.1,26.1,11.5
					c9.9,6.8,18.6,16,25.9,27.4c10.6,16.6,22.4,26.4,35.3,28.9c14.2,2.8,24.8-4.4,24.9-4.5l3.2,4.5
					C563.5,258.5,555.1,264.4,542.6,264.4z"/>
			</g>
		</g>
	</g>
	<g>
		<path class="st1" d="M592,236.2c-10.8-0.1-12.8,0-20.6,3.5c-16.5,7.6-28.8,12.6-26.8,25.5c-1.9,1.5-4.1,2.6-6,4
			c-13.5-16.2-8.7-38.4,11.2-50.3l51-30.6c1-0.6,2.3-0.6,3.3-0.2c1,0.5,1.6,1.4,1.5,2.4l-6.8,44.3"/>
		<g>
			<path class="st2" d="M545.4,226.4l55-32.2l-4.8,29.7c-0.5,2.8-3.7,6.1-5.6,8.2c-15.6,17.4-37.6,20.6-51.5,37
				c-9.5,11.2-1-31.7,3.3-38.6C543.3,228.5,544.5,227.1,545.4,226.4z"/>
			<path class="st1" d="M536,273.9c-1,0-1.7-0.4-2.2-0.8c-1.2-0.9-4-3-0.6-21.7c1.5-8.2,4.2-18.6,6.5-22.3c1.5-2.4,2.9-4.1,4.2-5
				l0.2-0.1l60.1-35.1l-5.7,35.4c-0.5,3.3-3.3,6.4-5.6,8.8c-0.3,0.3-0.5,0.6-0.7,0.8c-8.1,9.1-17.8,14.4-27.2,19.5
				c-9.1,5-17.7,9.7-24.3,17.5C538.8,273.2,537.2,273.9,536,273.9z M546.9,228.8c-0.4,0.3-1.2,1.1-2.7,3.4c-1.3,2-3.6,9.3-5.5,19
				c-1.5,7.8-1.9,13-1.8,15.7c7.2-8.2,16.4-13.2,25.3-18.1c9-4.9,18.2-10,25.7-18.4c0.2-0.3,0.5-0.6,0.8-0.9c1.5-1.6,3.9-4.3,4.2-6
				l3.8-23.9L546.9,228.8z"/>
		</g>
	</g>
	<g>
		<g>
			<defs>
				<path id="SVGID_00000145759439425537616050000012640805749908205488_" d="M544.2,225.6l55-32.2l-4.8,29.7
					c-0.5,2.8-2.1,12.9-4.9,13.7c-10,2.8-35,11.5-48.8,27.9c-9.5,11.2-4.5-28.1-0.1-35C542.1,227.7,543.3,226.3,544.2,225.6z"/>
			</defs>
			<clipPath id="SVGID_00000181797829350569060410000017326207411331651006_">
				<use xlink:href="#SVGID_00000145759439425537616050000012640805749908205488_"  style="overflow:visible;"/>
			</clipPath>
			<g style="clip-path:url(#SVGID_00000181797829350569060410000017326207411331651006_);">
				<path class="st1" d="M523.3,263.6c-12.4,0-20.8-5.8-21.3-6.1l3.2-4.5c0.1,0.1,10.7,7.3,24.9,4.5c12.8-2.6,24.7-12.3,35.3-28.9
					c7.3-11.4,16-20.6,25.9-27.4c8-5.4,16.8-9.3,26.1-11.5c15.9-3.7,27.8-1.3,28.3-1.2l-1.1,5.4c-0.1,0-11.4-2.3-26.1,1.2
					c-8.6,2.1-16.7,5.7-24.1,10.7c-9.3,6.3-17.4,15-24.2,25.7c-11.5,18-24.5,28.5-39,31.4C528.3,263.4,525.7,263.6,523.3,263.6z"/>
			</g>
		</g>
	</g>
	<path class="st1" d="M535.7,451.6h-4.3c-2,0-3.5-1.6-3.5-3.5V329.4c0-2,1.6-3.5,3.5-3.5h4.3c2,0,3.5,1.6,3.5,3.5v118.6
		C539.2,450,537.6,451.6,535.7,451.6z"/>
	<polyline class="st1" points="580.5,283.1 533.5,339.2 488.7,285.8 	"/>
	<polyline class="st2" points="552.1,303.3 533.5,325.5 515,303.3 	"/>
	<polygon class="st1" points="537.6,377.3 573.6,344.6 578.6,353.7 538.4,390 	"/>
	<g>
		<polygon class="st2" points="577.2,347.5 592,376.1 593.8,352 		"/>
		<path class="st1" d="M593.3,382.8l-19.6-38.2l22,6.1L593.3,382.8z M580.7,350.3l9.9,19.2l1.2-16.1L580.7,350.3z"/>
	</g>
	<g>
		<g>
			<path class="st2" d="M653,243.3c0,0-51.6-41-92.4,0s-69,26.8-69,26.8s31.6,56.2,82.4,17.8C624.8,249.5,618.8,255.2,653,243.3z"/>
			<path class="st1" d="M539.2,304c-3.1,0-6.3-0.3-9.4-1c-25.5-5.3-40-30.6-40.6-31.7l-4.4-7.9l8.1,4.1c2.3,1.1,9,2.9,18,1.7
				c19.1-2.6,36.5-16.6,47.7-27.9c17.4-17.5,39.6-23.1,64.2-16.1c18.3,5.2,31.3,15.4,31.8,15.9l3.9,3.1l-4.7,1.6
				c-5,1.8-9.2,3.1-12.8,4.3c-20.7,6.9-22.4,7.4-65.4,39.8C563.4,299.4,551.2,304,539.2,304z M498.1,274.7
				c5.7,7.5,17.1,19.7,32.9,23c13.3,2.8,27.2-1.3,41.4-12c43.7-33,45.9-33.7,67-40.7c2.3-0.8,4.8-1.6,7.7-2.6
				c-5.1-3.4-14.5-8.7-25.8-11.9c-10-2.8-19.6-3.4-28.5-1.8c-11.1,2-21.2,7.6-30.1,16.5c-17.4,17.4-34.7,27.4-51.4,29.6
				C505.9,275.4,501.5,275.2,498.1,274.7z"/>
		</g>
		<g>
			<path class="st1" d="M524.6,289.2c-0.3,0-0.5,0-0.8,0c-16.8-0.3-26.8-10.9-27.2-11.4l4-3.7c0.1,0.1,8.9,9.4,23.3,9.6
				c13.1,0.2,26.7-6.8,40.6-20.8c9.5-9.6,20-16.8,31.1-21.3c9-3.6,18.3-5.5,27.9-5.7c16.3-0.3,27.4,4.6,27.9,4.8l-2.2,5l1.1-2.5
				l-1.1,2.5c-0.1-0.1-10.6-4.6-25.8-4.3c-8.8,0.2-17.5,2-25.8,5.4c-10.4,4.2-20.2,11-29.1,20C553.8,281.7,539,289.2,524.6,289.2z"
				/>
			<g>
				<line class="st5" x1="561.8" y1="242.6" x2="576.2" y2="256.7"/>
				
					<rect x="567.5" y="239.5" transform="matrix(0.7007 -0.7135 0.7135 0.7007 -7.7681 480.6877)" class="st1" width="2.9" height="20.2"/>
			</g>
			<g>
				<line class="st5" x1="567.5" y1="238.7" x2="581.3" y2="252.5"/>
				
					<rect x="572.9" y="235.8" transform="matrix(0.7071 -0.7071 0.7071 0.7071 -5.4233 478.0845)" class="st1" width="2.9" height="19.5"/>
			</g>
		</g>
	</g>
	<g>
		<g>
			<path class="st1" d="M530.9,309.6V175.9c0-1.3,1.2-2.4,2.6-2.4s2.6,1.1,2.6,2.4v133.7"/>
			<path class="st1" d="M537,309.6h-1.8V175.9c0-0.8-0.8-1.5-1.7-1.5s-1.7,0.7-1.7,1.5v133.7H530V175.9c0-1.8,1.6-3.3,3.5-3.3
				s3.5,1.5,3.5,3.3V309.6z"/>
		</g>
	</g>
	<g>
		<path class="st2" d="M424.6,251.9c0,0,50.3-40.1,90.8,0.9s68,27.2,68,27.2s-30.5,55.2-80.8,16.8S458.3,264.1,424.6,251.9z"/>
		<path class="st1" d="M537.4,313.2c-11.9,0-24.1-4.8-36.4-14.2c-42.5-32.5-44.2-33.1-64.7-40.1c-3.6-1.2-7.7-2.6-12.6-4.4l-4.6-1.7
			l3.9-3.1c0.5-0.4,13.2-10.4,31.2-15.4c10.6-3,20.9-3.5,30.6-1.6c12.1,2.3,23.1,8.4,32.7,18.2c11.1,11.3,28.4,25.3,47.2,28.1
			c8.9,1.3,15.5-0.4,17.7-1.5l7.8-3.8l-4.2,7.6c-0.6,1-14.4,25.7-39.3,30.9C543.5,312.8,540.5,313.2,537.4,313.2z M430.5,251.1
			c2.8,1,5.3,1.8,7.6,2.6c20.8,7.1,23,7.9,66.2,40.9c14.2,10.8,28,15,41.1,12.2c15.2-3.2,26.2-15,31.7-22.3c-3.3,0.5-7.6,0.7-12.8,0
			c-16.5-2.3-33.5-12.3-50.8-29.8c-8.8-8.9-18.8-14.5-29.8-16.6c-8.8-1.7-18.2-1.2-28,1.5C444.6,242.6,435.5,247.8,430.5,251.1z"/>
	</g>
	<g>
		<path class="st1" d="M552.6,298.7c-14.4,0-29.2-7.5-43.9-22.4c-8.9-9-18.7-15.8-29.1-20c-8.3-3.4-17-5.2-25.8-5.4
			c-15.2-0.3-25.7,4.3-25.8,4.3l-2.2-5c0.5-0.2,11.6-5.1,27.9-4.8c9.6,0.2,19,2.1,27.9,5.7c11.1,4.5,21.6,11.7,31.1,21.3
			c13.9,14,27.5,21,40.6,20.8c14.5-0.2,23.3-9.5,23.4-9.6l4,3.7c-0.4,0.5-10.3,11.1-27.2,11.4C553.1,298.7,552.9,298.7,552.6,298.7z
			"/>
		<g>
			<line class="st5" x1="504.3" y1="270.5" x2="489.9" y2="284.6"/>
			
				<rect x="487" y="276.1" transform="matrix(0.7135 -0.7007 0.7007 0.7135 -52.0321 427.8089)" class="st1" width="20.2" height="2.9"/>
		</g>
		<g>
			<line class="st5" x1="498.3" y1="266.3" x2="484.5" y2="280.1"/>
			
				<rect x="481.6" y="271.7" transform="matrix(0.7071 -0.7071 0.7071 0.7071 -49.2569 427.4612)" class="st1" width="19.5" height="2.9"/>
		</g>
	</g>
	<g>
		<rect x="524" y="315.8" class="st1" width="20.2" height="1.8"/>
	</g>
	<g>
		<rect x="520" y="311.2" class="st1" width="24.4" height="1.8"/>
	</g>
	<g>
		<rect x="580.5" y="354.6" class="st1" width="12" height="1.8"/>
	</g>
	<g>
		<rect x="523.4" y="320.4" class="st1" width="20.2" height="1.8"/>
	</g>
	<g>
		<rect x="583.5" y="360.2" class="st1" width="8.4" height="1.8"/>
	</g>
	<polygon class="st1" points="517,308.1 525.1,309.6 525.1,311.6 519.2,312.1 	"/>
	<g>
		<path class="st2" d="M519.3,181.2l-2.3,2.4c-1.1,1.1-2.8,1.1-3.9,0l-2.3-2.4c-1.1-1.1-1.1-2.8,0-3.9l2.3-2.4
			c1.1-1.1,2.8-1.1,3.9,0l2.3,2.4C520.4,178.4,520.4,180.2,519.3,181.2z"/>
		<path class="st1" d="M515,185.8c-1.1,0-2.2-0.4-3-1.2l-2.2-2.2c-0.8-0.8-1.2-1.9-1.2-3s0.5-2.2,1.2-3l2.2-2.2
			c0.8-0.8,1.9-1.2,3-1.2s2.2,0.4,3,1.2l2.2,2.2c0.8,0.8,1.2,1.9,1.2,3s-0.5,2.2-1.2,3l-2.2,2.2C517.2,185.4,516.2,185.8,515,185.8z
			 M515,175.7c-0.4,0-0.7,0.1-1,0.4l-2.2,2.2c-0.2,0.2-0.4,0.6-0.4,0.9s0.1,0.7,0.4,0.9l2.2,2.2c0.5,0.5,1.4,0.5,1.9,0l2.2-2.2
			c0.2-0.2,0.4-0.6,0.4-0.9s-0.1-0.7-0.4-0.9l-2.2-2.2C515.7,175.9,515.4,175.7,515,175.7z"/>
	</g>
	<g>
		<path class="st2" d="M556.3,181.2l-2.3,2.4c-1.1,1.1-2.8,1.1-3.9,0l-2.3-2.4c-1.1-1.1-1.1-2.8,0-3.9l2.3-2.4
			c1.1-1.1,2.8-1.1,3.9,0l2.3,2.4C557.4,178.4,557.4,180.2,556.3,181.2z"/>
		<path class="st1" d="M552,185.8c-1.1,0-2.2-0.4-3-1.2l-2.2-2.2c-1.7-1.7-1.7-4.4,0-6.1l2.2-2.2c0.8-0.8,1.9-1.2,3-1.2
			c1.1,0,2.2,0.4,3,1.2l2.2,2.2c0.8,0.8,1.2,1.9,1.2,3s-0.5,2.2-1.2,3l-2.2,2.2C554.2,185.4,553.2,185.8,552,185.8z M552,175.7
			c-0.4,0-0.7,0.1-1,0.4l-2.2,2.2c-0.5,0.5-0.5,1.4,0,1.9l2.2,2.2c0.5,0.5,1.4,0.5,1.9,0l2.2-2.2c0.2-0.2,0.4-0.6,0.4-0.9
			s-0.1-0.7-0.4-0.9l-2.2-2.2C552.7,175.9,552.4,175.7,552,175.7z"/>
	</g>
	<g>
		<path class="st2" d="M537.8,162.7l-2.3,2.4c-1.1,1.1-2.8,1.1-3.9,0l-2.3-2.4c-1.1-1.1-1.1-2.8,0-3.9l2.3-2.4
			c1.1-1.1,2.8-1.1,3.9,0l2.3,2.4C538.9,159.9,538.9,161.7,537.8,162.7z"/>
		<path class="st1" d="M533.5,167.3c-1.1,0-2.2-0.4-3-1.2l-2.2-2.2c-1.7-1.7-1.7-4.4,0-6.1l2.2-2.2c0.8-0.8,1.9-1.2,3-1.2
			s2.2,0.4,3,1.2l2.2,2.2c0.8,0.8,1.2,1.9,1.2,3c0,1.1-0.5,2.2-1.2,3l-2.2,2.2C535.7,166.9,534.7,167.3,533.5,167.3z M533.5,157.2
			c-0.4,0-0.7,0.1-1,0.4l-2.2,2.2c-0.5,0.5-0.5,1.4,0,1.9l2.2,2.2c0.5,0.5,1.4,0.5,1.9,0l2.2-2.2c0.2-0.2,0.4-0.6,0.4-0.9
			s-0.1-0.7-0.4-0.9l-2.2-2.2C534.2,157.4,533.9,157.2,533.5,157.2z"/>
	</g>
	<polygon class="st1" points="537.5,408.8 501.5,376.1 496.6,385.3 536.8,421.6 	"/>
	<g>
		<polygon class="st2" points="498,379 483.2,407.7 481.4,383.6 		"/>
		<path class="st1" d="M479.5,382.2l22.1-6.1l-19.6,38.2L479.5,382.2z M483.3,384.9l1.2,16.1l9.9-19.2L483.3,384.9z"/>
	</g>
	<g>
		<rect x="482.7" y="386.1" class="st1" width="12" height="1.8"/>
	</g>
	<g>
		<rect x="483.2" y="391.7" class="st1" width="8.4" height="1.8"/>
	</g>
</g>
<g>
	<path class="st1" d="M489.2,1668.8c8.8,0,10.5,0,16.8,2.9c13.4,6.2,23.5,10.3,21.9,20.8c1.5,1.2,3.3,2.1,4.9,3.3
		c11-13.2,7.1-31.3-9.1-41l-41.5-24.9c-0.8-0.5-1.9-0.5-2.7-0.1c-0.9,0.4-1.3,1.2-1.2,1.9l6,35.8"/>
	<g>
		<path class="st0" d="M527.2,1660.9l-44.8-26.2l3.9,24.2c0.4,2.3,1.7,10.5,4,11.2c8.1,2.2,28.5,9.4,39.8,22.8
			c7.8,9.2,3.7-22.8,0.1-28.5C529,1662.6,528,1661.5,527.2,1660.9z"/>
		<path class="st1" d="M532.4,1696.7c-1.8,0-3.4-1.6-4.1-2.4c-4.7-5.6-11.5-10.6-20.4-15c-8.2-4.1-15.5-6.3-18.3-7.1
			c-2.6-0.7-4.2-4.3-5.6-12.9l-4.6-28.9l49.1,28.7c1.1,0.8,2.2,2.1,3.5,4.1c1.9,2.9,3.4,10.5,4.2,16.7c1.6,13.7-1,15.6-1.8,16.2
			C533.7,1696.5,533,1696.7,532.4,1696.7z M491.1,1668c5.1,1.4,28,8.5,40.6,23.4c0.1,0.1,0.1,0.1,0.2,0.2c0.4-1.8,0.5-5.7-0.3-11.9
			c-0.9-7.1-2.4-12.5-3.4-14.1c-1.2-1.8-1.9-2.5-2.2-2.8l-40.6-23.7l3.1,19.5C489.7,1665.8,490.7,1667.6,491.1,1668z"/>
	</g>
	<g>
		<g>
			<defs>
				<path id="SVGID_00000152956925023006645420000015531279958220300457_" d="M527.2,1660.9l-44.8-26.2l3.9,24.2
					c0.4,2.3,1.7,10.5,4,11.2c8.1,2.2,28.5,9.4,39.8,22.8c7.8,9.2,3.7-22.8,0.1-28.5C529,1662.6,528,1661.5,527.2,1660.9z"/>
			</defs>
			<clipPath id="SVGID_00000020391991563583332670000010550455445505207188_">
				<use xlink:href="#SVGID_00000152956925023006645420000015531279958220300457_"  style="overflow:visible;"/>
			</clipPath>
			<g style="clip-path:url(#SVGID_00000020391991563583332670000010550455445505207188_);">
				<path class="st1" d="M544.3,1691.8c-2,0-4.1-0.2-6.3-0.6c-11.7-2.3-22.4-10.9-31.7-25.6c-5.6-8.7-12.2-15.8-19.7-20.9
					c-6-4.1-12.6-7.1-19.6-8.7c-12-2.9-21.2-1-21.3-1l-0.9-4.4c0.4-0.1,10.1-2.1,23,1c7.6,1.8,14.7,4.9,21.2,9.3
					c8.1,5.5,15.2,13,21.1,22.3c8.6,13.5,18.3,21.5,28.7,23.6c11.6,2.3,20.2-3.6,20.2-3.6l2.6,3.7
					C561.3,1687.1,554.4,1691.8,544.3,1691.8z"/>
			</g>
		</g>
	</g>
	<g>
		<path class="st1" d="M584.5,1668.8c-8.8,0-10.5,0-16.8,2.9c-13.4,6.2-23.5,10.3-21.9,20.8c-1.5,1.2-3.3,2.1-4.9,3.3
			c-11-13.2-7.1-31.3,9.1-41l41.5-24.9c0.8-0.5,1.9-0.5,2.7-0.1c0.9,0.4,1.3,1.2,1.2,1.9l-5.6,36.1"/>
		<g>
			<path class="st0" d="M546.6,1660.9l44.8-26.2l-3.9,24.2c-0.4,2.3-3,5-4.6,6.7c-12.7,14.2-30.6,16.8-41.9,30.2
				c-7.8,9.2-0.8-25.8,2.7-31.4C544.8,1662.6,545.8,1661.5,546.6,1660.9z"/>
			<path class="st1" d="M538.8,1699.6c-0.8,0-1.4-0.3-1.8-0.6c-1-0.7-3.3-2.4-0.5-17.7c1.2-6.7,3.4-15.2,5.3-18.1
				c1.3-2,2.4-3.3,3.5-4.1l0.2-0.1l48.9-28.6l-4.6,28.8c-0.4,2.7-2.7,5.2-4.5,7.2c-0.2,0.2-0.4,0.5-0.6,0.7
				c-6.6,7.4-14.5,11.7-22.1,15.9c-7.4,4.1-14.4,7.9-19.8,14.2C541.2,1699,539.9,1699.6,538.8,1699.6z M547.8,1662.8
				c-0.3,0.2-1,0.9-2.2,2.8c-1,1.6-2.9,7.6-4.5,15.5c-1.2,6.3-1.5,10.6-1.4,12.8c5.8-6.7,13.3-10.8,20.6-14.8
				c7.3-4,14.8-8.1,21-14.9c0.2-0.2,0.4-0.4,0.6-0.7c1.2-1.3,3.2-3.5,3.4-4.9l3.1-19.5L547.8,1662.8z"/>
		</g>
	</g>
	<g>
		<g>
			<defs>
				<path id="SVGID_00000114794362770403943950000015723553963481502619_" d="M545.6,1660.3l44.8-26.2l-3.9,24.2
					c-0.4,2.3-1.7,10.5-4,11.2c-8.1,2.2-28.5,9.4-39.8,22.8c-7.8,9.2-3.7-22.8-0.1-28.5C543.9,1661.9,544.8,1660.8,545.6,1660.3z"/>
			</defs>
			<clipPath id="SVGID_00000029759886384363101080000010921279217623834546_">
				<use xlink:href="#SVGID_00000114794362770403943950000015723553963481502619_"  style="overflow:visible;"/>
			</clipPath>
			<g style="clip-path:url(#SVGID_00000029759886384363101080000010921279217623834546_);">
				<path class="st1" d="M528.5,1691.2c-10.1,0-17-4.8-17.3-5l2.6-3.7c0.1,0.1,8.7,5.9,20.2,3.6c10.5-2.1,20.1-10,28.7-23.6
					c5.9-9.3,13-16.8,21.1-22.3c6.5-4.4,13.6-7.6,21.2-9.3c12.9-3,22.6-1.1,23-1l-0.9,4.4c-0.1,0-9.3-1.9-21.3,1
					c-7,1.7-13.6,4.6-19.6,8.7c-7.5,5.2-14.2,12.2-19.7,20.9c-9.3,14.7-20,23.2-31.7,25.6C532.6,1691,530.5,1691.2,528.5,1691.2z"/>
			</g>
		</g>
	</g>
	<path class="st1" d="M538,1844.2h-2.2c-2,0-3.5-1.6-3.5-3.5v-95.3c0-2,1.6-3.5,3.5-3.5h2.2c2,0,3.5,1.6,3.5,3.5v95.3
		C541.5,1842.7,539.9,1844.2,538,1844.2z"/>
	<polyline class="st1" points="575.1,1707 536.9,1752.8 500.4,1709.2 	"/>
	<polyline class="st0" points="552,1723.5 536.9,1741.6 521.8,1723.5 	"/>
	<polygon class="st1" points="540.2,1783.7 569.5,1757.1 573.5,1764.6 540.8,1794.1 	"/>
	<g>
		<polygon class="st0" points="572.4,1759.4 584.5,1782.8 585.9,1763.2 		"/>
		<path class="st1" d="M585.5,1788.2l-16-31.1l18,4.9L585.5,1788.2z M575.3,1761.8l8,15.6l1-13.2L575.3,1761.8z"/>
	</g>
	<g>
		<g>
			<path class="st0" d="M634.2,1674.6c0,0-42-33.4-75.2,0s-56.1,21.8-56.1,21.8s25.8,45.7,67.1,14.5
				C611.2,1679.7,606.3,1684.4,634.2,1674.6z"/>
			<path class="st1" d="M541.5,1724.1c-2.6,0-5.1-0.3-7.6-0.8c-20.8-4.3-32.6-24.9-33.1-25.8l-3.6-6.4l6.6,3.3
				c1.9,0.9,7.3,2.4,14.7,1.3c15.6-2.2,29.7-13.6,38.9-22.7c14.2-14.3,32.3-18.8,52.3-13.1c14.9,4.2,25.5,12.6,25.9,12.9l3.2,2.5
				l-3.8,1.3c-4.1,1.4-7.5,2.6-10.4,3.5c-16.9,5.6-18.3,6-53.2,32.4C561.2,1720.3,551.2,1724.1,541.5,1724.1z M508,1700.2
				c4.6,6.1,13.9,16.1,26.8,18.7c10.8,2.2,22.1-1.1,33.7-9.8c35.6-26.9,37.4-27.4,54.5-33.1c1.9-0.6,3.9-1.3,6.2-2.1
				c-4.2-2.7-11.8-7.1-21-9.7c-8.2-2.3-16-2.8-23.2-1.5c-9,1.7-17.3,6.2-24.5,13.4c-14.1,14.2-28.2,22.3-41.8,24.1
				C514.4,1700.8,510.8,1700.6,508,1700.2z"/>
		</g>
		<g>
			<path class="st1" d="M529.6,1712.1c-0.2,0-0.4,0-0.6,0c-13.7-0.3-21.8-8.9-22.1-9.3l3.3-3c0.1,0.1,7.2,7.6,19,7.8
				c10.7,0.2,21.8-5.5,33-16.9c7.7-7.8,16.3-13.7,25.3-17.3c7.3-2.9,14.9-4.5,22.7-4.7c13.3-0.2,22.3,3.7,22.7,3.9l-1.8,4.1l0.9-2
				l-0.9,2c-0.1,0-8.7-3.8-21-3.5c-7.2,0.2-14.3,1.6-21,4.4c-8.5,3.4-16.4,8.9-23.7,16.3C553.4,1705.9,541.3,1712.1,529.6,1712.1z"
				/>
			<g>
				<line class="st5" x1="559.9" y1="1674" x2="571.6" y2="1685.5"/>
				
					<rect x="564.7" y="1671.6" transform="matrix(0.7007 -0.7135 0.7135 0.7007 -1029.0981 906.5063)" class="st1" width="2.4" height="16.4"/>
			</g>
			<g>
				<line class="st5" x1="564.5" y1="1670.9" x2="575.8" y2="1682.1"/>
				
					<rect x="568.9" y="1668.6" transform="matrix(0.7071 -0.7071 0.7071 0.7071 -1018.4752 894.1832)" class="st1" width="2.4" height="15.9"/>
			</g>
		</g>
	</g>
	<g>
		<g>
			<path class="st1" d="M534.7,1728.7v-108.9c0-1.1,1-2,2.1-2s2.1,0.9,2.1,2v108.9"/>
			<path class="st1" d="M539.7,1728.7h-1.5v-108.9c0-0.7-0.6-1.2-1.4-1.2s-1.4,0.6-1.4,1.2v108.9H534v-108.9c0-1.5,1.3-2.7,2.9-2.7
				s2.9,1.2,2.9,2.7L539.7,1728.7L539.7,1728.7z"/>
		</g>
	</g>
	<g>
		<path class="st0" d="M448.2,1681.6c0,0,40.9-32.6,73.9,0.8s55.4,22.1,55.4,22.1s-24.8,45-65.8,13.7S475.6,1691.5,448.2,1681.6z"/>
		<path class="st1" d="M540,1731.5c-9.7,0-19.6-3.9-29.7-11.5c-34.6-26.5-36-26.9-52.6-32.6c-2.9-1-6.2-2.1-10.3-3.6l-3.8-1.4
			l3.1-2.5c0.4-0.3,10.8-8.5,25.4-12.6c8.7-2.4,17-2.9,24.9-1.3c9.8,1.9,18.8,6.9,26.6,14.8c9.1,9.2,23.1,20.6,38.4,22.9
			c7.2,1.1,12.6-0.3,14.4-1.2l6.3-3.1l-3.4,6.2c-0.5,0.8-11.8,20.9-32,25.1C545,1731.3,542.5,1731.5,540,1731.5z M453,1681
			c2.3,0.8,4.3,1.5,6.2,2.1c16.9,5.8,18.7,6.4,53.9,33.3c11.5,8.8,22.8,12.2,33.5,9.9c12.4-2.6,21.3-12.2,25.8-18.2
			c-2.7,0.4-6.2,0.6-10.5,0c-13.4-1.9-27.3-10-41.4-24.2c-7.2-7.3-15.3-11.8-24.2-13.6c-7.1-1.4-14.8-1-22.8,1.2
			C464.5,1674.1,457.1,1678.3,453,1681z"/>
	</g>
	<g>
		<path class="st1" d="M552.4,1719.8c-11.8,0-23.8-6.2-35.8-18.3c-7.3-7.4-15.2-12.8-23.7-16.3c-6.8-2.8-13.8-4.2-21-4.4
			c-12.3-0.3-20.9,3.5-21,3.5l-1.8-4.1c0.4-0.2,9.4-4.1,22.7-3.9c7.8,0.1,15.4,1.7,22.7,4.7c9.1,3.7,17.6,9.5,25.3,17.3
			c11.3,11.4,22.4,17.1,33,16.9c11.8-0.2,19-7.8,19-7.8l3.3,3c-0.3,0.4-8.4,9-22.2,9.3C552.8,1719.8,552.6,1719.8,552.4,1719.8z"/>
		<g>
			<line class="st5" x1="513" y1="1696.8" x2="501.3" y2="1708.3"/>
			
				<rect x="499" y="1701.3" transform="matrix(0.7135 -0.7007 0.7007 0.7135 -1047.59 843.2333)" class="st1" width="16.4" height="2.4"/>
		</g>
		<g>
			<line class="st5" x1="508.2" y1="1693.3" x2="496.9" y2="1704.6"/>
			
				<rect x="494.6" y="1697.8" transform="matrix(0.7071 -0.7071 0.7071 0.7071 -1054.1608 852.9639)" class="st1" width="15.9" height="2.4"/>
		</g>
	</g>
	<g>
		<rect x="529.2" y="1733.6" class="st1" width="16.4" height="1.5"/>
	</g>
	<g>
		<rect x="525.9" y="1729.9" class="st1" width="19.9" height="1.5"/>
	</g>
	<g>
		<rect x="575.1" y="1765.2" class="st1" width="9.8" height="1.5"/>
	</g>
	<g>
		<rect x="528.7" y="1737.4" class="st1" width="16.4" height="1.5"/>
	</g>
	<g>
		<rect x="577.6" y="1769.8" class="st1" width="6.9" height="1.5"/>
	</g>
	<polygon class="st1" points="523.4,1727.4 530,1728.7 530,1730.2 525.2,1730.7 	"/>
	<g>
		<path class="st1" d="M524.9,1624.5l-1.2,1.2c-1.1,1.1-2.8,1.1-3.9,0l-1.2-1.2c-1.1-1.1-1.1-2.8,0-3.9l1.2-1.2
			c1.1-1.1,2.8-1.1,3.9,0l1.2,1.2C526,1621.7,526,1623.4,524.9,1624.5z"/>
		<path class="st1" d="M521.8,1627.8c-0.9,0-1.8-0.4-2.5-1l-1.8-1.8c-0.7-0.7-1-1.5-1-2.5s0.4-1.8,1-2.5l1.8-1.8
			c0.7-0.7,1.5-1,2.5-1s1.8,0.4,2.5,1l1.8,1.8c0.7,0.7,1,1.5,1,2.5s-0.4,1.8-1,2.5l-1.8,1.8C523.6,1627.5,522.7,1627.8,521.8,1627.8
			z M521.8,1619.6c-0.3,0-0.6,0.1-0.8,0.3l-1.8,1.8c-0.2,0.2-0.3,0.5-0.3,0.8c0,0.3,0.1,0.6,0.3,0.8l1.8,1.8c0.4,0.4,1.1,0.4,1.5,0
			l1.8-1.8c0.2-0.2,0.3-0.5,0.3-0.8c0-0.3-0.1-0.6-0.3-0.8l-1.8-1.8C522.4,1619.7,522.1,1619.6,521.8,1619.6z"/>
	</g>
	<g>
		<g>
			<path class="st1" d="M555.1,1624.5l-1.2,1.2c-1.1,1.1-2.8,1.1-3.9,0l-1.2-1.2c-1.1-1.1-1.1-2.8,0-3.9l1.2-1.2
				c1.1-1.1,2.8-1.1,3.9,0l1.2,1.2C556.1,1621.7,556.1,1623.4,555.1,1624.5z"/>
			<path class="st1" d="M551.9,1627.8c-0.9,0-1.8-0.4-2.5-1l-1.8-1.8c-1.4-1.4-1.4-3.6,0-4.9l1.8-1.8c0.7-0.7,1.5-1,2.5-1
				s1.8,0.4,2.5,1l1.8,1.8c0.7,0.7,1,1.5,1,2.5s-0.4,1.8-1,2.5l-1.8,1.8C553.7,1627.5,552.9,1627.8,551.9,1627.8z M551.9,1619.6
				c-0.3,0-0.6,0.1-0.8,0.3l-1.8,1.8c-0.4,0.4-0.4,1.1,0,1.6l1.8,1.8c0.4,0.4,1.1,0.4,1.5,0l1.8-1.8c0.2-0.2,0.3-0.5,0.3-0.8
				c0-0.3-0.1-0.6-0.3-0.8l-1.8-1.8C552.5,1619.7,552.2,1619.6,551.9,1619.6z"/>
		</g>
	</g>
	<g>
		<path class="st1" d="M540,1609.4l-1.2,1.2c-1.1,1.1-2.8,1.1-3.9,0l-1.2-1.2c-1.1-1.1-1.1-2.8,0-3.9l1.2-1.2c1.1-1.1,2.8-1.1,3.9,0
			l1.2,1.2C541.1,1606.6,541.1,1608.3,540,1609.4z"/>
		<path class="st1" d="M536.9,1612.8c-0.9,0-1.8-0.4-2.5-1l-1.8-1.8c-1.4-1.4-1.4-3.6,0-4.9l1.8-1.8c0.7-0.7,1.5-1,2.5-1
			s1.8,0.4,2.5,1l1.8,1.8c0.7,0.7,1,1.5,1,2.5s-0.4,1.8-1,2.5l-1.8,1.8C538.7,1612.4,537.8,1612.8,536.9,1612.8z M536.9,1604.6
			c-0.3,0-0.6,0.1-0.8,0.3l-1.8,1.8c-0.4,0.4-0.4,1.1,0,1.6l1.8,1.8c0.4,0.4,1.1,0.4,1.5,0l1.8-1.8c0.2-0.2,0.3-0.5,0.3-0.8
			c0-0.3-0.1-0.6-0.3-0.8l-1.8-1.8C537.4,1604.7,537.2,1604.6,536.9,1604.6z"/>
	</g>
	<polygon class="st1" points="540.2,1809.4 510.8,1782.8 506.8,1790.3 539.6,1819.8 	"/>
	<g>
		<polygon class="st0" points="507.9,1785.1 495.9,1808.5 494.4,1788.8 		"/>
		<path class="st1" d="M492.9,1787.7l18-4.9l-16,31.1L492.9,1787.7z M496,1790l1,13.2l8-15.6L496,1790z"/>
	</g>
	<g>
		<g>
			<g>
				<rect x="495.5" y="1790.9" class="st1" width="9.8" height="1.5"/>
			</g>
		</g>
	</g>
	<g>
		<g>
			<g>
				<rect x="495.9" y="1795.5" class="st1" width="6.9" height="1.5"/>
			</g>
		</g>
	</g>
</g>
<g>
	<path class="st2" d="M849.2,1668.8c8.8,0,10.5,0,16.8,2.9c13.4,6.2,23.5,10.3,21.9,20.8c1.5,1.2,3.3,2.1,4.9,3.3
		c11-13.2,7.1-31.3-9.1-41l-41.5-24.9c-0.8-0.5-1.9-0.5-2.7-0.1c-0.9,0.4-1.3,1.2-1.2,1.9l6,35.8"/>
	<g>
		<path class="st0" d="M887.2,1660.9l-44.8-26.2l3.9,24.2c0.4,2.3,1.7,10.5,4,11.2c8.1,2.2,28.5,9.4,39.8,22.8
			c7.8,9.2,3.7-22.8,0.1-28.5C889,1662.6,888,1661.5,887.2,1660.9z"/>
		<path class="st2" d="M892.4,1696.7c-1.8,0-3.4-1.6-4.1-2.4c-4.7-5.6-11.5-10.6-20.3-15c-8.2-4.1-15.5-6.3-18.3-7.1
			c-2.6-0.7-4.2-4.3-5.6-12.9l-4.6-28.9l49.1,28.7c1.1,0.8,2.2,2.1,3.5,4.1c1.9,2.9,3.4,10.5,4.2,16.7c1.6,13.7-1,15.6-1.8,16.2
			C893.7,1696.5,893,1696.7,892.4,1696.7z M851.1,1668c5.1,1.4,28,8.5,40.6,23.4c0.1,0.1,0.1,0.1,0.2,0.2c0.4-1.8,0.5-5.7-0.3-11.9
			c-0.9-7.1-2.4-12.5-3.4-14.1c-1.2-1.8-1.9-2.5-2.2-2.8l-40.6-23.7l3.1,19.5C849.7,1665.8,850.7,1667.6,851.1,1668z"/>
	</g>
	<g>
		<g>
			<defs>
				<path id="SVGID_00000178909497003165242290000012601464550453884846_" d="M887.2,1660.9l-44.8-26.2l3.9,24.2
					c0.4,2.3,1.7,10.5,4,11.2c8.1,2.2,28.5,9.4,39.8,22.8c7.8,9.2,3.7-22.8,0.1-28.5C889,1662.6,888,1661.5,887.2,1660.9z"/>
			</defs>
			<clipPath id="SVGID_00000120527923510291345670000015444263719265103755_">
				<use xlink:href="#SVGID_00000178909497003165242290000012601464550453884846_"  style="overflow:visible;"/>
			</clipPath>
			<g style="clip-path:url(#SVGID_00000120527923510291345670000015444263719265103755_);">
				<path class="st2" d="M904.3,1691.8c-2,0-4.1-0.2-6.3-0.6c-11.7-2.3-22.4-10.9-31.7-25.6c-5.6-8.7-12.2-15.8-19.7-20.9
					c-6-4.1-12.6-7.1-19.6-8.7c-12-2.9-21.2-1-21.3-1l-0.9-4.4c0.4-0.1,10.1-2.1,23,1c7.6,1.8,14.7,4.9,21.2,9.3
					c8.1,5.5,15.2,13,21.1,22.3c8.6,13.5,18.3,21.5,28.7,23.6c11.6,2.3,20.2-3.6,20.2-3.6l2.6,3.7
					C921.3,1687.1,914.4,1691.8,904.3,1691.8z"/>
			</g>
		</g>
	</g>
	<g>
		<path class="st2" d="M944.5,1668.8c-8.8,0-10.5,0-16.8,2.9c-13.4,6.2-23.5,10.3-21.9,20.8c-1.5,1.2-3.3,2.1-4.9,3.3
			c-11-13.2-7.1-31.3,9.1-41l41.5-24.9c0.8-0.5,1.9-0.5,2.7-0.1c0.9,0.4,1.3,1.2,1.2,1.9l-5.6,36.1"/>
		<g>
			<path class="st0" d="M906.6,1660.9l44.8-26.2l-3.9,24.2c-0.4,2.3-3,5-4.6,6.7c-12.7,14.2-30.6,16.8-41.9,30.2
				c-7.8,9.2-0.8-25.8,2.7-31.4C904.8,1662.6,905.8,1661.5,906.6,1660.9z"/>
			<path class="st2" d="M898.8,1699.6c-0.8,0-1.4-0.3-1.8-0.6c-1-0.7-3.3-2.4-0.5-17.7c1.2-6.7,3.4-15.2,5.3-18.1
				c1.3-2,2.4-3.3,3.5-4.1l0.2-0.1l48.9-28.6l-4.6,28.8c-0.4,2.7-2.7,5.2-4.5,7.2c-0.2,0.2-0.4,0.5-0.6,0.7
				c-6.6,7.4-14.5,11.7-22.1,15.9c-7.4,4.1-14.4,7.9-19.8,14.2C901.2,1699,899.9,1699.6,898.8,1699.6z M907.8,1662.8
				c-0.3,0.2-1,0.9-2.2,2.8c-1,1.6-2.9,7.6-4.5,15.5c-1.2,6.3-1.5,10.6-1.4,12.8c5.8-6.7,13.3-10.8,20.6-14.8
				c7.3-4,14.8-8.1,21-14.9c0.2-0.2,0.4-0.4,0.6-0.7c1.2-1.3,3.2-3.5,3.4-4.9l3.1-19.5L907.8,1662.8z"/>
		</g>
	</g>
	<g>
		<g>
			<defs>
				<path id="SVGID_00000106142064007980567790000000097281683869790125_" d="M905.6,1660.3l44.8-26.2l-3.9,24.2
					c-0.4,2.3-1.7,10.5-4,11.2c-8.1,2.2-28.5,9.4-39.8,22.8c-7.8,9.2-3.7-22.8-0.1-28.5C903.9,1661.9,904.8,1660.8,905.6,1660.3z"/>
			</defs>
			<clipPath id="SVGID_00000015313233212315660420000015313701453135805870_">
				<use xlink:href="#SVGID_00000106142064007980567790000000097281683869790125_"  style="overflow:visible;"/>
			</clipPath>
			<g style="clip-path:url(#SVGID_00000015313233212315660420000015313701453135805870_);">
				<path class="st2" d="M888.5,1691.2c-10.1,0-17-4.8-17.3-5l2.6-3.7c0.1,0.1,8.7,5.9,20.2,3.6c10.5-2.1,20.1-10,28.7-23.6
					c5.9-9.3,13-16.8,21.1-22.3c6.5-4.4,13.6-7.6,21.2-9.3c12.9-3,22.6-1.1,23-1l-0.9,4.4c-0.1,0-9.3-1.9-21.3,1
					c-7,1.7-13.6,4.6-19.6,8.7c-7.5,5.2-14.2,12.2-19.7,20.9c-9.3,14.7-20,23.2-31.7,25.6C892.6,1691,890.5,1691.2,888.5,1691.2z"/>
			</g>
		</g>
	</g>
	<path class="st2" d="M898,1844.2h-2.2c-2,0-3.5-1.6-3.5-3.5v-95.3c0-2,1.6-3.5,3.5-3.5h2.2c2,0,3.5,1.6,3.5,3.5v95.3
		C901.5,1842.7,899.9,1844.2,898,1844.2z"/>
	<polyline class="st2" points="935.1,1707 896.9,1752.8 860.4,1709.2 	"/>
	<polyline class="st0" points="912,1723.5 896.9,1741.6 881.8,1723.5 	"/>
	<polygon class="st2" points="900.2,1783.7 929.5,1757.1 933.5,1764.6 900.8,1794.1 	"/>
	<g>
		<polygon class="st0" points="932.4,1759.4 944.5,1782.8 945.9,1763.2 		"/>
		<path class="st2" d="M945.5,1788.2l-16-31.1l18,4.9L945.5,1788.2z M935.3,1761.8l8,15.6l1-13.2L935.3,1761.8z"/>
	</g>
	<g>
		<g>
			<path class="st0" d="M994.2,1674.6c0,0-42-33.4-75.2,0s-56.2,21.8-56.2,21.8s25.8,45.7,67.1,14.5
				C971.2,1679.7,966.3,1684.4,994.2,1674.6z"/>
			<path class="st2" d="M901.5,1724.1c-2.6,0-5.1-0.3-7.6-0.8c-20.8-4.3-32.6-24.9-33.1-25.8l-3.6-6.4l6.6,3.3
				c1.8,0.9,7.3,2.4,14.7,1.3c15.6-2.2,29.7-13.6,38.9-22.7c14.2-14.3,32.3-18.8,52.3-13.1c14.9,4.2,25.5,12.6,25.9,12.9l3.2,2.5
				l-3.8,1.3c-4.1,1.4-7.5,2.6-10.4,3.5c-16.9,5.6-18.3,6-53.2,32.4C921.2,1720.3,911.2,1724.1,901.5,1724.1z M868,1700.2
				c4.6,6.1,14,16.1,26.8,18.7c10.8,2.2,22.1-1.1,33.7-9.8c35.6-26.9,37.4-27.4,54.5-33.1c1.9-0.6,3.9-1.3,6.2-2.1
				c-4.2-2.7-11.8-7.1-21-9.7c-8.2-2.3-16-2.8-23.2-1.5c-9,1.7-17.3,6.2-24.5,13.4c-14.1,14.2-28.2,22.3-41.8,24.1
				C874.4,1700.8,870.8,1700.6,868,1700.2z"/>
		</g>
		<g>
			<path class="st2" d="M889.6,1712.1c-0.2,0-0.4,0-0.6,0c-13.7-0.3-21.8-8.9-22.2-9.3l3.3-3c0.1,0.1,7.2,7.6,19,7.8
				c10.7,0.2,21.8-5.5,33-16.9c7.7-7.8,16.3-13.7,25.3-17.3c7.3-2.9,14.9-4.5,22.7-4.7c13.3-0.2,22.3,3.7,22.7,3.9l-1.8,4.1l0.9-2
				l-0.9,2c-0.1,0-8.7-3.8-21-3.5c-7.2,0.2-14.3,1.6-21,4.4c-8.5,3.4-16.4,8.9-23.7,16.3C913.4,1705.9,901.3,1712.1,889.6,1712.1z"
				/>
			<g>
				<line class="st5" x1="919.9" y1="1674" x2="931.6" y2="1685.5"/>
				
					<rect x="924.6" y="1671.5" transform="matrix(0.7007 -0.7135 0.7135 0.7007 -921.3301 1163.3514)" class="st2" width="2.4" height="16.4"/>
			</g>
			<g>
				<line class="st5" x1="924.5" y1="1670.9" x2="935.8" y2="1682.1"/>
				
					<rect x="928.9" y="1668.6" transform="matrix(0.7071 -0.7071 0.7071 0.7071 -913.0369 1148.7423)" class="st2" width="2.4" height="15.9"/>
			</g>
		</g>
	</g>
	<g>
		<g>
			<path class="st2" d="M894.7,1728.7v-108.9c0-1.1,1-2,2.1-2s2.1,0.9,2.1,2v108.9"/>
			<path class="st2" d="M899.7,1728.7h-1.5v-108.9c0-0.7-0.6-1.2-1.4-1.2s-1.4,0.6-1.4,1.2v108.9H894v-108.9c0-1.5,1.3-2.7,2.9-2.7
				s2.9,1.2,2.9,2.7L899.7,1728.7L899.7,1728.7z"/>
		</g>
	</g>
	<g>
		<path class="st0" d="M808.2,1681.6c0,0,40.9-32.6,73.9,0.8c33,33.4,55.4,22.1,55.4,22.1s-24.8,45-65.8,13.7
			S835.7,1691.5,808.2,1681.6z"/>
		<path class="st2" d="M900,1731.5c-9.7,0-19.6-3.9-29.7-11.5c-34.6-26.5-36-26.9-52.7-32.6c-2.9-1-6.2-2.1-10.3-3.6l-3.8-1.4
			l3.1-2.5c0.4-0.3,10.8-8.5,25.4-12.6c8.7-2.4,17-2.9,24.9-1.3c9.8,1.9,18.8,6.9,26.6,14.8c9.1,9.2,23.1,20.6,38.4,22.9
			c7.2,1.1,12.6-0.3,14.4-1.2l6.3-3.1l-3.4,6.2c-0.5,0.8-11.8,20.9-32,25.1C905,1731.3,902.5,1731.5,900,1731.5z M813,1681
			c2.3,0.8,4.3,1.5,6.2,2.1c16.9,5.8,18.7,6.4,53.9,33.3c11.5,8.8,22.8,12.2,33.5,9.9c12.4-2.6,21.3-12.2,25.8-18.2
			c-2.7,0.4-6.2,0.6-10.5,0c-13.4-1.9-27.3-10-41.4-24.2c-7.2-7.3-15.3-11.8-24.2-13.6c-7.1-1.4-14.8-1-22.8,1.2
			C824.5,1674.1,817.1,1678.3,813,1681z"/>
	</g>
	<g>
		<path class="st2" d="M912.4,1719.8c-11.8,0-23.8-6.2-35.8-18.3c-7.3-7.4-15.2-12.8-23.7-16.3c-6.8-2.8-13.8-4.2-21-4.4
			c-12.3-0.3-20.9,3.5-21,3.5l-1.8-4.1c0.4-0.2,9.4-4.1,22.7-3.9c7.8,0.1,15.4,1.7,22.7,4.7c9.1,3.7,17.6,9.5,25.3,17.3
			c11.3,11.4,22.4,17.1,33,16.9c11.8-0.2,19-7.8,19-7.8l3.3,3c-0.3,0.4-8.4,9-22.2,9.3C912.8,1719.8,912.6,1719.8,912.4,1719.8z"/>
		<g>
			<line class="st5" x1="873" y1="1696.8" x2="861.3" y2="1708.3"/>
			
				<rect x="859" y="1701.3" transform="matrix(0.7135 -0.7007 0.7007 0.7135 -944.4328 1095.4777)" class="st2" width="16.4" height="2.4"/>
		</g>
		<g>
			<line class="st5" x1="868.2" y1="1693.3" x2="856.9" y2="1704.6"/>
			
				<rect x="854.6" y="1697.8" transform="matrix(0.7071 -0.7071 0.7071 0.7071 -948.7217 1107.5214)" class="st2" width="15.9" height="2.4"/>
		</g>
	</g>
	<g>
		<rect x="889.2" y="1733.6" class="st2" width="16.4" height="1.5"/>
	</g>
	<g>
		<rect x="885.9" y="1729.9" class="st2" width="19.9" height="1.5"/>
	</g>
	<g>
		<rect x="935.1" y="1765.2" class="st2" width="9.8" height="1.5"/>
	</g>
	<g>
		<rect x="888.7" y="1737.4" class="st2" width="16.4" height="1.5"/>
	</g>
	<g>
		<rect x="937.6" y="1769.8" class="st2" width="6.9" height="1.5"/>
	</g>
	<polygon class="st2" points="883.4,1727.4 890,1728.7 890,1730.2 885.2,1730.7 	"/>
	<g>
		<path class="st2" d="M884.9,1624.5l-1.2,1.2c-1.1,1.1-2.8,1.1-3.9,0l-1.2-1.2c-1.1-1.1-1.1-2.8,0-3.9l1.2-1.2
			c1.1-1.1,2.8-1.1,3.9,0l1.2,1.2C886,1621.7,886,1623.4,884.9,1624.5z"/>
		<path class="st2" d="M881.8,1627.8c-0.9,0-1.8-0.4-2.5-1l-1.8-1.8c-0.7-0.7-1-1.5-1-2.5s0.4-1.8,1-2.5l1.8-1.8
			c0.7-0.7,1.5-1,2.5-1s1.8,0.4,2.5,1l1.8,1.8c0.7,0.7,1,1.5,1,2.5s-0.4,1.8-1,2.5l-1.8,1.8C883.6,1627.5,882.7,1627.8,881.8,1627.8
			z M881.8,1619.6c-0.3,0-0.6,0.1-0.8,0.3l-1.8,1.8c-0.2,0.2-0.3,0.5-0.3,0.8c0,0.3,0.1,0.6,0.3,0.8l1.8,1.8c0.4,0.4,1.1,0.4,1.5,0
			l1.8-1.8c0.2-0.2,0.3-0.5,0.3-0.8c0-0.3-0.1-0.6-0.3-0.8l-1.8-1.8C882.4,1619.7,882.1,1619.6,881.8,1619.6z"/>
	</g>
	<g>
		<path class="st2" d="M915.1,1624.5l-1.2,1.2c-1.1,1.1-2.8,1.1-3.9,0l-1.2-1.2c-1.1-1.1-1.1-2.8,0-3.9l1.2-1.2
			c1.1-1.1,2.8-1.1,3.9,0l1.2,1.2C916.1,1621.7,916.1,1623.4,915.1,1624.5z"/>
		<path class="st2" d="M911.9,1627.8c-0.9,0-1.8-0.4-2.5-1l-1.8-1.8c-1.4-1.4-1.4-3.6,0-4.9l1.8-1.8c0.7-0.7,1.5-1,2.5-1
			s1.8,0.4,2.5,1l1.8,1.8c0.7,0.7,1,1.5,1,2.5s-0.4,1.8-1,2.5l-1.8,1.8C913.7,1627.5,912.9,1627.8,911.9,1627.8z M911.9,1619.6
			c-0.3,0-0.6,0.1-0.8,0.3l-1.8,1.8c-0.4,0.4-0.4,1.1,0,1.6l1.8,1.8c0.4,0.4,1.1,0.4,1.5,0l1.8-1.8c0.2-0.2,0.3-0.5,0.3-0.8
			c0-0.3-0.1-0.6-0.3-0.8l-1.8-1.8C912.5,1619.7,912.2,1619.6,911.9,1619.6z"/>
	</g>
	<g>
		<path class="st2" d="M900,1609.4l-1.2,1.2c-1.1,1.1-2.8,1.1-3.9,0l-1.2-1.2c-1.1-1.1-1.1-2.8,0-3.9l1.2-1.2c1.1-1.1,2.8-1.1,3.9,0
			l1.2,1.2C901.1,1606.6,901.1,1608.3,900,1609.4z"/>
		<path class="st2" d="M896.9,1612.8c-0.9,0-1.8-0.4-2.5-1l-1.8-1.8c-1.4-1.4-1.4-3.6,0-4.9l1.8-1.8c0.7-0.7,1.5-1,2.5-1
			s1.8,0.4,2.5,1l1.8,1.8c0.7,0.7,1,1.5,1,2.5s-0.4,1.8-1,2.5l-1.8,1.8C898.7,1612.4,897.8,1612.8,896.9,1612.8z M896.9,1604.6
			c-0.3,0-0.6,0.1-0.8,0.3l-1.8,1.8c-0.4,0.4-0.4,1.1,0,1.6l1.8,1.8c0.4,0.4,1.1,0.4,1.5,0l1.8-1.8c0.2-0.2,0.3-0.5,0.3-0.8
			c0-0.3-0.1-0.6-0.3-0.8l-1.8-1.8C897.4,1604.7,897.2,1604.6,896.9,1604.6z"/>
	</g>
	<polygon class="st2" points="900.2,1809.4 870.8,1782.8 866.8,1790.3 899.6,1819.8 	"/>
	<g>
		<polygon class="st0" points="867.9,1785.1 855.9,1808.5 854.4,1788.8 		"/>
		<path class="st2" d="M852.8,1787.7l18-4.9l-16,31.1L852.8,1787.7z M856,1790l1,13.2l8-15.6L856,1790z"/>
	</g>
	<g>
		<g>
			<rect x="855.5" y="1790.9" class="st2" width="9.8" height="1.5"/>
		</g>
	</g>
	<g>
		<g>
			<rect x="855.9" y="1795.5" class="st2" width="6.9" height="1.5"/>
		</g>
	</g>
</g>
<g>
	<path class="st0" d="M130.5,1668.8c8.8,0,10.4,0,16.8,2.9c13.4,6.2,23.5,10.3,21.9,20.8c1.5,1.2,3.3,2.1,4.9,3.3
		c11-13.2,7.1-31.3-9.1-41l-41.5-24.9c-0.8-0.5-1.9-0.5-2.7-0.1c-0.9,0.4-1.3,1.2-1.2,1.9l6,35.8"/>
	<g>
		<path class="st1" d="M168.6,1660.9l-44.8-26.2l3.9,24.2c0.4,2.3,1.7,10.5,4,11.2c8.1,2.2,28.5,9.4,39.8,22.8
			c7.8,9.2,3.7-22.8,0.1-28.5C170.3,1662.6,169.4,1661.5,168.6,1660.9z"/>
		<path class="st0" d="M173.7,1696.7c-1.8,0-3.4-1.6-4.1-2.4c-4.7-5.6-11.6-10.6-20.4-15c-8.2-4.1-15.5-6.3-18.3-7.1
			c-2.6-0.7-4.2-4.3-5.6-12.9l-4.6-28.9l49.1,28.7c1.1,0.8,2.2,2.1,3.4,4.1c1.9,2.9,3.4,10.5,4.2,16.7c1.6,13.7-1,15.6-1.8,16.2
			C175,1696.5,174.4,1696.7,173.7,1696.7z M132.4,1668c5.1,1.4,28,8.5,40.6,23.4c0.1,0.1,0.1,0.1,0.2,0.2c0.4-1.8,0.5-5.7-0.3-11.9
			c-0.9-7.1-2.4-12.5-3.4-14.1c-1.2-1.8-1.9-2.5-2.2-2.8l-40.6-23.7l3.1,19.5C131,1665.8,132,1667.6,132.4,1668z"/>
	</g>
	<g>
		<g>
			<defs>
				<path id="SVGID_00000045597985972875507010000003713040764649462409_" d="M168.6,1660.9l-44.8-26.2l3.9,24.2
					c0.4,2.3,1.7,10.5,4,11.2c8.1,2.2,28.5,9.4,39.8,22.8c7.8,9.2,3.7-22.8,0.1-28.5C170.3,1662.6,169.4,1661.5,168.6,1660.9z"/>
			</defs>
			<clipPath id="SVGID_00000052826982852601682210000010429250104220564101_">
				<use xlink:href="#SVGID_00000045597985972875507010000003713040764649462409_"  style="overflow:visible;"/>
			</clipPath>
			<g style="clip-path:url(#SVGID_00000052826982852601682210000010429250104220564101_);">
				<path class="st0" d="M185.6,1691.8c-2,0-4.1-0.2-6.3-0.6c-11.7-2.3-22.4-10.9-31.7-25.6c-5.6-8.7-12.2-15.8-19.7-20.9
					c-6-4.1-12.6-7.1-19.6-8.7c-12-2.9-21.2-1-21.3-1l-0.9-4.4c0.4-0.1,10.1-2.1,23,1c7.6,1.8,14.7,4.9,21.2,9.3
					c8.1,5.5,15.2,13,21.1,22.3c8.6,13.5,18.3,21.5,28.7,23.6c11.6,2.3,20.2-3.6,20.2-3.6l2.6,3.7
					C202.6,1687.1,195.7,1691.8,185.6,1691.8z"/>
			</g>
		</g>
	</g>
	<g>
		<path class="st0" d="M225.8,1668.8c-8.8,0-10.4,0-16.8,2.9c-13.4,6.2-23.5,10.3-21.9,20.8c-1.5,1.2-3.3,2.1-4.9,3.3
			c-11-13.2-7.1-31.3,9.1-41l41.5-24.9c0.8-0.5,1.9-0.5,2.7-0.1c0.9,0.4,1.3,1.2,1.2,1.9l-5.6,36.1"/>
		<g>
			<path class="st1" d="M187.9,1660.9l44.8-26.2l-3.9,24.2c-0.4,2.3-3,5-4.6,6.7c-12.7,14.2-30.6,16.8-41.9,30.2
				c-7.8,9.2-0.9-25.8,2.7-31.4C186.1,1662.6,187.1,1661.5,187.9,1660.9z"/>
			<path class="st0" d="M180.2,1699.6c-0.8,0-1.4-0.3-1.8-0.6c-1-0.7-3.3-2.4-0.5-17.7c1.2-6.7,3.4-15.2,5.3-18.1
				c1.3-2,2.4-3.3,3.4-4.1l0.2-0.1l48.9-28.6l-4.6,28.8c-0.4,2.7-2.7,5.2-4.5,7.2c-0.2,0.2-0.4,0.5-0.6,0.7
				c-6.6,7.4-14.5,11.7-22.1,15.9c-7.4,4.1-14.4,7.9-19.8,14.2C182.5,1699,181.2,1699.6,180.2,1699.6z M189.1,1662.8
				c-0.3,0.2-1,0.9-2.2,2.8c-1,1.6-2.9,7.6-4.4,15.5c-1.2,6.3-1.5,10.6-1.4,12.8c5.8-6.7,13.3-10.8,20.6-14.8
				c7.3-4,14.9-8.1,20.9-14.9c0.2-0.2,0.4-0.4,0.6-0.7c1.2-1.3,3.2-3.5,3.4-4.9l3.1-19.5L189.1,1662.8z"/>
		</g>
	</g>
	<g>
		<g>
			<defs>
				<path id="SVGID_00000041991946247597866710000001802132797975033789_" d="M186.9,1660.3l44.8-26.2l-3.9,24.2
					c-0.4,2.3-1.7,10.5-3.9,11.2c-8.1,2.2-28.5,9.4-39.8,22.8c-7.8,9.2-3.7-22.8-0.1-28.5C185.2,1661.9,186.1,1660.8,186.9,1660.3z"
					/>
			</defs>
			<clipPath id="SVGID_00000042706463671354553630000011014478010789946756_">
				<use xlink:href="#SVGID_00000041991946247597866710000001802132797975033789_"  style="overflow:visible;"/>
			</clipPath>
			<g style="clip-path:url(#SVGID_00000042706463671354553630000011014478010789946756_);">
				<path class="st0" d="M169.9,1691.2c-10.1,0-17-4.8-17.3-5l2.6-3.7c0.1,0.1,8.7,5.9,20.2,3.6c10.4-2.1,20.1-10,28.7-23.6
					c5.9-9.3,13-16.8,21.1-22.3c6.5-4.4,13.6-7.6,21.2-9.3c12.9-3,22.6-1.1,23-1l-0.9,4.4c-0.1,0-9.3-1.9-21.3,1
					c-7,1.7-13.6,4.6-19.6,8.7c-7.5,5.2-14.2,12.2-19.7,20.9c-9.3,14.7-20,23.2-31.7,25.6C173.9,1691,171.8,1691.2,169.9,1691.2z"/>
			</g>
		</g>
	</g>
	<path class="st0" d="M179.3,1851.8h-2.2c-2,0-3.5-1.6-3.5-3.5v-102.9c0-2,1.6-3.5,3.5-3.5h2.2c2,0,3.5,1.6,3.5,3.5v102.9
		C182.8,1850.2,181.2,1851.8,179.3,1851.8z"/>
	<polyline class="st0" points="216.5,1707 178.2,1752.8 141.7,1709.2 	"/>
	<polyline class="st1" points="193.3,1723.5 178.2,1741.6 163.1,1723.5 	"/>
	<polygon class="st0" points="181.5,1783.7 210.9,1757.1 214.9,1764.6 182.1,1794.1 	"/>
	<g>
		<polygon class="st1" points="213.8,1759.4 225.8,1782.8 227.2,1763.2 		"/>
		<path class="st0" d="M226.9,1788.2l-16-31.1l18,4.9L226.9,1788.2z M216.6,1761.8l8,15.6l1-13.2L216.6,1761.8z"/>
	</g>
	<g>
		<g>
			<path class="st1" d="M275.5,1674.6c0,0-42-33.4-75.2,0s-56.1,21.8-56.1,21.8s25.8,45.7,67.1,14.5S247.6,1684.4,275.5,1674.6z"/>
			<path class="st0" d="M182.8,1724.1c-2.6,0-5.1-0.3-7.6-0.8c-20.8-4.3-32.6-24.9-33.1-25.8l-3.6-6.4l6.6,3.3
				c1.9,0.9,7.3,2.4,14.7,1.3c15.6-2.2,29.7-13.6,38.9-22.7c14.2-14.3,32.3-18.8,52.3-13.1c14.9,4.2,25.5,12.6,25.9,12.9l3.2,2.5
				l-3.8,1.3c-4.1,1.4-7.5,2.6-10.4,3.5c-16.9,5.6-18.3,6-53.2,32.4C202.5,1720.3,192.6,1724.1,182.8,1724.1z M149.4,1700.2
				c4.6,6.1,13.9,16.1,26.8,18.7c10.8,2.2,22.1-1.1,33.7-9.8c35.6-26.9,37.4-27.4,54.5-33.1c1.9-0.6,3.9-1.3,6.2-2.1
				c-4.2-2.7-11.8-7.1-21-9.7c-8.2-2.3-16-2.8-23.2-1.5c-9,1.7-17.3,6.2-24.5,13.4c-14.1,14.2-28.2,22.3-41.8,24.1
				C155.7,1700.8,152.1,1700.6,149.4,1700.2z"/>
		</g>
		<g>
			<path class="st0" d="M170.9,1712.1c-0.2,0-0.4,0-0.6,0c-13.7-0.3-21.8-8.9-22.1-9.3l3.3-3c0.1,0.1,7.2,7.6,19,7.8
				c10.6,0.2,21.8-5.5,33.1-16.9c7.7-7.8,16.3-13.7,25.3-17.3c7.3-2.9,14.9-4.5,22.7-4.7c13.3-0.2,22.3,3.7,22.7,3.9l-1.8,4.1l0.9-2
				l-0.9,2c-0.1,0-8.7-3.8-21-3.5c-7.2,0.2-14.3,1.6-21,4.4c-8.4,3.4-16.4,8.9-23.7,16.3C194.7,1705.9,182.6,1712.1,170.9,1712.1z"
				/>
			<g>
				<line class="st5" x1="201.2" y1="1674" x2="212.9" y2="1685.5"/>
				
					<rect x="206" y="1671.6" transform="matrix(0.7007 -0.7135 0.7135 0.7007 -1136.4691 650.6009)" class="st0" width="2.4" height="16.4"/>
			</g>
			<g>
				<line class="st5" x1="205.9" y1="1670.9" x2="217.1" y2="1682.1"/>
				
					<rect x="210.3" y="1668.5" transform="matrix(0.7071 -0.7071 0.7071 0.7071 -1123.5322 640.5526)" class="st0" width="2.4" height="15.9"/>
			</g>
		</g>
	</g>
	<g>
		<g>
			<path class="st0" d="M176.1,1728.7v-108.9c0-1.1,0.9-2,2.1-2s2.1,0.9,2.1,2v108.9"/>
			<path class="st0" d="M181.1,1728.7h-1.5v-108.9c0-0.7-0.6-1.2-1.4-1.2c-0.8,0-1.4,0.6-1.4,1.2v108.9h-1.5v-108.9
				c0-1.5,1.3-2.7,2.9-2.7s2.9,1.2,2.9,2.7L181.1,1728.7L181.1,1728.7z"/>
		</g>
	</g>
	<g>
		<path class="st1" d="M89.5,1681.6c0,0,40.9-32.6,73.9,0.8s55.4,22.1,55.4,22.1s-24.9,45-65.8,13.7S117,1691.5,89.5,1681.6z"/>
		<path class="st0" d="M181.4,1731.5c-9.7,0-19.6-3.9-29.7-11.5c-34.6-26.5-36-26.9-52.7-32.6c-2.9-1-6.2-2.1-10.3-3.6l-3.8-1.4
			l3.1-2.5c0.4-0.3,10.8-8.5,25.4-12.6c8.7-2.4,17-2.9,24.9-1.3c9.8,1.9,18.8,6.9,26.6,14.8c9.1,9.2,23.1,20.6,38.4,22.9
			c7.2,1.1,12.6-0.3,14.4-1.2l6.4-3.1l-3.4,6.2c-0.5,0.8-11.8,20.9-32,25.1C186.3,1731.3,183.9,1731.5,181.4,1731.5z M94.3,1681
			c2.3,0.8,4.3,1.5,6.2,2.1c16.9,5.8,18.7,6.4,53.9,33.3c11.5,8.8,22.8,12.2,33.5,9.9c12.4-2.6,21.3-12.2,25.8-18.2
			c-2.7,0.4-6.2,0.6-10.5,0c-13.4-1.9-27.3-10-41.4-24.2c-7.2-7.3-15.3-11.8-24.2-13.6c-7.1-1.4-14.8-1-22.8,1.2
			C105.8,1674.1,98.4,1678.3,94.3,1681z"/>
	</g>
	<g>
		<path class="st0" d="M193.7,1719.8c-11.8,0-23.8-6.2-35.8-18.3c-7.3-7.4-15.2-12.8-23.7-16.3c-6.8-2.8-13.8-4.2-21-4.4
			c-12.3-0.3-20.9,3.5-21,3.5l-1.8-4.1c0.4-0.2,9.4-4.1,22.7-3.9c7.8,0.1,15.4,1.7,22.7,4.7c9.1,3.7,17.6,9.5,25.3,17.3
			c11.3,11.4,22.4,17.1,33.1,16.9c11.8-0.2,18.9-7.8,19-7.8l3.3,3c-0.3,0.4-8.4,9-22.1,9.3C194.1,1719.8,193.9,1719.8,193.7,1719.8z
			"/>
		<g>
			<line class="st5" x1="154.4" y1="1696.8" x2="142.6" y2="1708.3"/>
			
				<rect x="140.4" y="1701.3" transform="matrix(0.7135 -0.7007 0.7007 0.7135 -1150.3672 591.912)" class="st0" width="16.4" height="2.4"/>
		</g>
		<g>
			<line class="st5" x1="149.5" y1="1693.3" x2="138.2" y2="1704.6"/>
			
				<rect x="135.9" y="1697.8" transform="matrix(0.7071 -0.7071 0.7071 0.7071 -1159.2113 599.338)" class="st0" width="15.9" height="2.4"/>
		</g>
	</g>
	<g>
		<rect x="170.5" y="1733.6" class="st0" width="16.4" height="1.5"/>
	</g>
	<g>
		<rect x="167.2" y="1729.9" class="st0" width="19.9" height="1.5"/>
	</g>
	<g>
		<rect x="216.5" y="1765.2" class="st0" width="9.8" height="1.5"/>
	</g>
	<g>
		<rect x="170" y="1737.4" class="st0" width="16.4" height="1.5"/>
	</g>
	<g>
		<rect x="218.9" y="1769.8" class="st0" width="6.9" height="1.5"/>
	</g>
	<polygon class="st0" points="164.7,1727.4 171.3,1728.7 171.3,1730.2 166.5,1730.7 	"/>
	<g>
		<path class="st0" d="M166.2,1624.5l-1.2,1.2c-1.1,1.1-2.8,1.1-3.9,0l-1.2-1.2c-1.1-1.1-1.1-2.8,0-3.9l1.2-1.2
			c1.1-1.1,2.8-1.1,3.9,0l1.2,1.2C167.3,1621.7,167.3,1623.4,166.2,1624.5z"/>
		<path class="st0" d="M163.1,1627.8c-0.9,0-1.8-0.4-2.5-1l-1.8-1.8c-0.7-0.7-1-1.5-1-2.5s0.4-1.8,1-2.5l1.8-1.8
			c0.7-0.7,1.5-1,2.5-1s1.8,0.4,2.5,1l1.8,1.8c0.7,0.7,1,1.5,1,2.5s-0.4,1.8-1,2.5l-1.8,1.8C164.9,1627.5,164.1,1627.8,163.1,1627.8
			z M163.1,1619.6c-0.3,0-0.6,0.1-0.8,0.3l-1.8,1.8c-0.2,0.2-0.3,0.5-0.3,0.8c0,0.3,0.1,0.6,0.3,0.8l1.8,1.8c0.4,0.4,1.1,0.4,1.6,0
			l1.8-1.8c0.2-0.2,0.3-0.5,0.3-0.8c0-0.3-0.1-0.6-0.3-0.8l-1.8-1.8C163.7,1619.7,163.4,1619.6,163.1,1619.6z"/>
	</g>
	<g>
		<path class="st0" d="M196.4,1624.5l-1.2,1.2c-1.1,1.1-2.8,1.1-3.9,0l-1.2-1.2c-1.1-1.1-1.1-2.8,0-3.9l1.2-1.2
			c1.1-1.1,2.8-1.1,3.9,0l1.2,1.2C197.4,1621.7,197.4,1623.4,196.4,1624.5z"/>
		<path class="st0" d="M193.2,1627.8c-0.9,0-1.8-0.4-2.5-1l-1.8-1.8c-1.4-1.4-1.4-3.6,0-4.9l1.8-1.8c0.7-0.7,1.5-1,2.5-1
			s1.8,0.4,2.5,1l1.8,1.8c0.7,0.7,1,1.5,1,2.5s-0.4,1.8-1,2.5l-1.8,1.8C195.1,1627.5,194.2,1627.8,193.2,1627.8z M193.2,1619.6
			c-0.3,0-0.6,0.1-0.8,0.3l-1.8,1.8c-0.4,0.4-0.4,1.1,0,1.6l1.8,1.8c0.4,0.4,1.1,0.4,1.6,0l1.8-1.8c0.2-0.2,0.3-0.5,0.3-0.8
			c0-0.3-0.1-0.6-0.3-0.8l-1.8-1.8C193.8,1619.7,193.5,1619.6,193.2,1619.6z"/>
	</g>
	<g>
		<path class="st0" d="M181.3,1609.4l-1.2,1.2c-1.1,1.1-2.8,1.1-3.9,0l-1.2-1.2c-1.1-1.1-1.1-2.8,0-3.9l1.2-1.2
			c1.1-1.1,2.8-1.1,3.9,0l1.2,1.2C182.4,1606.6,182.4,1608.3,181.3,1609.4z"/>
		<path class="st0" d="M178.2,1612.8c-0.9,0-1.8-0.4-2.5-1l-1.8-1.8c-1.4-1.4-1.4-3.6,0-4.9l1.8-1.8c0.7-0.7,1.5-1,2.5-1
			s1.8,0.4,2.5,1l1.8,1.8c0.7,0.7,1,1.5,1,2.5s-0.4,1.8-1,2.5l-1.8,1.8C180,1612.4,179.1,1612.8,178.2,1612.8z M178.2,1604.6
			c-0.3,0-0.6,0.1-0.8,0.3l-1.8,1.8c-0.4,0.4-0.4,1.1,0,1.6l1.8,1.8c0.4,0.4,1.1,0.4,1.6,0l1.8-1.8c0.2-0.2,0.3-0.5,0.3-0.8
			c0-0.3-0.1-0.6-0.3-0.8l-1.8-1.8C178.8,1604.7,178.5,1604.6,178.2,1604.6z"/>
	</g>
	<polygon class="st0" points="181.5,1809.4 152.1,1782.8 148.1,1790.3 180.9,1819.8 	"/>
	<g>
		<polygon class="st1" points="149.2,1785.1 137.2,1808.5 135.8,1788.8 		"/>
		<path class="st0" d="M134.2,1787.7l18-4.9l-16,31.1L134.2,1787.7z M137.3,1790l1,13.2l8-15.6L137.3,1790z"/>
	</g>
	<g>
		<g>
			<rect x="136.8" y="1790.9" class="st0" width="9.8" height="1.5"/>
		</g>
	</g>
	<g>
		<g>
			<rect x="137.2" y="1795.5" class="st0" width="6.9" height="1.5"/>
		</g>
	</g>
</g>
<g>
	<g>
		<path class="st0" d="M278.7,1014.6h-16.4v36.8h-14.9v-90.7h31.3c21.5,0,32.1,12.3,32.1,27C310.8,1000.6,302.4,1014.6,278.7,1014.6
			z M278.7,1002.5c11.6,0,16.8-5.6,16.8-14.7c0-9.4-5.2-14.9-16.8-14.9h-16.4v29.6H278.7z"/>
		<path class="st0" d="M332.9,954.8h14.9v96.6h-14.9V954.8z"/>
		<path class="st0" d="M404.1,978.3c12.1,0,20.5,5.7,24.9,11.6v-10.4h15v71.9h-15v-10.7c-4.6,6.1-13.2,11.9-25.2,11.9
			c-18.7,0-33.7-15.3-33.7-37.5C370.2,992.9,385.2,978.3,404.1,978.3z M407.3,991.2c-11.1,0-21.8,8.3-21.8,23.9s10.7,24.5,21.8,24.5
			c11.2,0,21.8-8.7,21.8-24.3C429.1,1000,418.5,991.2,407.3,991.2z"/>
		<path class="st0" d="M469.5,960.4c0-5.3,4.2-9.5,9.5-9.5c5.2,0,9.4,4.2,9.4,9.5s-4.2,9.5-9.4,9.5
			C473.7,970,469.5,965.8,469.5,960.4z M471.5,979.5h14.9v71.9h-14.9V979.5z"/>
		<path class="st0" d="M564.8,1011.2c0-13.2-7.2-20-18-20c-11,0-18.1,6.8-18.1,20v40.2h-14.9v-71.9h14.9v8.2
			c4.8-5.9,12.8-9.4,21.4-9.4c16.8,0,29.5,10.6,29.5,30.7v42.4h-14.7V1011.2z"/>
		<path class="st0" d="M632.4,1052.6c-17.2,0-29.4-10.2-30-23.2h15.4c0.5,5.9,6.1,10.7,14.3,10.7c8.6,0,13.2-3.7,13.2-8.6
			c0-14.1-41.8-6-41.8-32.4c0-11.5,10.7-20.8,27.7-20.8c16.3,0,27,8.7,27.8,23.1h-14.9c-0.5-6.3-5.3-10.6-13.4-10.6
			c-8,0-12.1,3.3-12.1,8.1c0,14.5,40.6,6.4,41.4,32.4C659.9,1043.4,649.3,1052.6,632.4,1052.6z"/>
		<path class="st0" d="M691.2,979.5l20.4,58.6l20.4-58.6h15.8l-27.4,71.9h-17.8l-27.3-71.9L691.2,979.5L691.2,979.5z"/>
		<path class="st0" d="M764.8,960.4c0-5.3,4.2-9.5,9.5-9.5c5.2,0,9.4,4.2,9.4,9.5s-4.2,9.5-9.4,9.5C769,970,764.8,965.8,764.8,960.4
			z M766.8,979.5h14.9v71.9h-14.9V979.5z"/>
		<path class="st0" d="M840,1052.6c-20.6,0-35.9-14.6-35.9-37.2c0-22.6,14.6-37.1,35.9-37.1c20.5,0,35,14.2,35,35.4
			c0,2.5-0.1,4.8-0.5,7.3h-54.9c1,11.9,9.5,19,20.5,19c9.1,0,14.2-4.4,17-10.1h16C868.9,1042.5,857.6,1052.6,840,1052.6z
			 M819.6,1009h39.8c-0.3-11.1-9-18.1-20.1-18.1C829.3,990.8,821.2,997.6,819.6,1009z"/>
		<path class="st0" d="M888.9,979.5H904l15,57.8l15.3-57.8h15.5l14.6,57.5l14.9-57.5h14.6l-22.3,71.9H956l-14.5-53.1l-14.5,53.1
			h-15.7L888.9,979.5z"/>
	</g>
	<g>
		<path class="st2" d="M257.1,1089.2h14.5v1.8h-6.1v20.2h-2.2V1091h-6.1L257.1,1089.2L257.1,1089.2z"/>
		<path class="st2" d="M348,1111.4c-6.2,0-10.9-4.6-10.9-11.2c0-6.6,4.7-11.2,10.9-11.2c6.2,0,10.9,4.7,10.9,11.2
			C358.9,1106.8,354.2,1111.4,348,1111.4z M348,1109.5c4.9,0,8.6-3.6,8.6-9.3c0-5.8-3.8-9.3-8.6-9.3c-4.9,0-8.6,3.5-8.6,9.3
			C339.4,1105.9,343.1,1109.5,348,1109.5z"/>
		<path class="st2" d="M424.3,1089.2h2.4l5,19.3l5.6-19.3h2.5l5.5,19.3l5.1-19.3h2.4l-6.2,22H444l-5.5-18.8l-5.7,18.8l-2.4,0
			L424.3,1089.2z"/>
		<path class="st2" d="M535.7,1089.2v22h-2.2l-12.2-18.5v18.5h-2.2v-22h2.2l12.2,18.5v-18.5H535.7z"/>
		<path class="st2" d="M617.9,1100.9H606v10.3h-2.2v-22h2.2v9.9h11.9v-9.9h2.2v22h-2.2V1100.9z"/>
		<path class="st2" d="M698.1,1111.4c-6.2,0-10.9-4.6-10.9-11.2c0-6.6,4.7-11.2,10.9-11.2c6.2,0,10.9,4.7,10.9,11.2
			C709,1106.8,704.3,1111.4,698.1,1111.4z M698.1,1109.5c4.9,0,8.6-3.6,8.6-9.3c0-5.8-3.8-9.3-8.6-9.3c-4.9,0-8.6,3.5-8.6,9.3
			S693.2,1109.5,698.1,1109.5z"/>
		<path class="st2" d="M776,1089.4h2.3l8.4,18.8l8.4-18.8h2.4v21.8h-2.2v-17.4l-7.8,17.4H786l-7.8-17.3v17.3H776L776,1089.4
			L776,1089.4z"/>
		<path class="st2" d="M877.1,1090.9h-9.3v8.2h8.3v1.8h-8.3v8.3h9.3v1.8h-11.5v-22.1h11.5V1090.9z"/>
		<path class="st2" d="M951.1,1111.4c-4.4,0-7.3-2.5-7.4-5.9h2.3c0.2,1.8,1.5,4,5.1,4c3.1,0,4.8-1.8,4.8-4.1
			c0-6.5-12.1-2.4-12.1-10.7c0-3.4,2.8-5.9,7.1-5.9c4.2,0,6.7,2.3,7.1,5.4h-2.4c-0.2-1.5-1.7-3.4-4.8-3.5c-2.6,0-4.7,1.4-4.7,3.9
			c0,6.4,12.1,2.5,12.1,10.7C958.2,1108.4,955.8,1111.4,951.1,1111.4z"/>
	</g>
	<g>
		<path class="st2" d="M91.8,955.2c6.7,0,8,0,12.8,2.2c10.2,4.7,17.9,7.9,16.7,15.8c1.2,0.9,2.5,1.6,3.7,2.5
			c8.4-10.1,5.4-23.8-6.9-31.3l-31.7-19c-0.6-0.4-1.4-0.4-2.1-0.1s-1,0.9-0.9,1.5l4.6,27.3"/>
		<g>
			<path class="st0" d="M120.8,949.2l-34.2-20l3,18.4c0.3,1.8,1.3,8,3,8.5c6.2,1.7,21.7,7.2,30.3,17.4c5.9,7,2.8-17.4,0.1-21.7
				C122.1,950.4,121.4,949.6,120.8,949.2z"/>
			<path class="st2" d="M124.8,976.5c-1.4,0-2.6-1.2-3.1-1.9c-3.6-4.2-8.8-8.1-15.5-11.4c-6.3-3.1-11.8-4.8-13.9-5.4
				c-2-0.5-3.2-3.3-4.2-9.9l-3.5-22l37.4,21.9c0.8,0.6,1.7,1.6,2.6,3.1c1.4,2.2,2.6,8,3.2,12.7c1.2,10.4-0.7,11.9-1.4,12.3
				C125.7,976.3,125.2,976.5,124.8,976.5z M93.2,954.5c3.9,1.1,21.4,6.5,31,17.8c0.1,0.1,0.1,0.1,0.1,0.2c0.3-1.4,0.4-4.4-0.2-9.1
				c-0.7-5.4-1.8-9.6-2.6-10.7c-0.9-1.4-1.4-1.9-1.7-2.1l-31-18.1l2.4,14.9C92.1,952.8,92.9,954.2,93.2,954.5z"/>
		</g>
		<g>
			<g>
				<defs>
					<path id="SVGID_00000107573261997813937420000003474851104548627364_" d="M120.8,949.2l-34.2-20l3,18.4c0.3,1.8,1.3,8,3,8.5
						c6.2,1.7,21.7,7.2,30.3,17.4c5.9,7,2.8-17.4,0.1-21.7C122.1,950.4,121.4,949.6,120.8,949.2z"/>
				</defs>
				<clipPath id="SVGID_00000176012593355739709490000011859650197613897652_">
					<use xlink:href="#SVGID_00000107573261997813937420000003474851104548627364_"  style="overflow:visible;"/>
				</clipPath>
				<g style="clip-path:url(#SVGID_00000176012593355739709490000011859650197613897652_);">
					<path class="st2" d="M133.8,972.7c-1.5,0-3.1-0.1-4.8-0.5c-8.9-1.8-17.1-8.3-24.2-19.5c-4.2-6.7-9.3-12-15.1-16
						c-4.6-3.1-9.6-5.4-15-6.7c-9.2-2.2-16.2-0.8-16.2-0.8l-0.7-3.3c0.3-0.1,7.7-1.6,17.6,0.8c5.8,1.4,11.2,3.8,16.2,7.1
						c6.2,4.2,11.6,9.9,16.1,17c6.6,10.3,13.9,16.4,21.9,18c8.8,1.8,15.4-2.7,15.4-2.8l2,2.8C146.8,969.1,141.5,972.7,133.8,972.7z"
						/>
				</g>
			</g>
		</g>
		<g>
			<path class="st2" d="M164.5,955.2c-6.7,0-8,0-12.8,2.2c-10.2,4.7-17.9,7.9-16.7,15.8c-1.2,0.9-2.5,1.6-3.7,2.5
				c-8.4-10.1-5.4-23.8,6.9-31.3l31.7-19c0.6-0.4,1.4-0.4,2.1-0.1c0.6,0.3,1,0.9,0.9,1.5l-4.3,27.5"/>
			<g>
				<path class="st0" d="M135.6,949.2l34.2-20l-3,18.4c-0.3,1.8-2.3,3.8-3.5,5.1c-9.7,10.8-23.4,12.8-32,23c-5.9,7-0.6-19.7,2.1-24
					C134.2,950.4,134.9,949.6,135.6,949.2z"/>
				<path class="st2" d="M129.7,978.6c-0.6,0-1.1-0.2-1.4-0.5c-0.8-0.5-2.5-1.8-0.4-13.5c0.9-5.1,2.6-11.6,4-13.8
					c1-1.5,1.8-2.5,2.6-3.1l0.1-0.1l37.3-21.8l-3.5,22c-0.3,2-2.1,4-3.5,5.5c-0.2,0.2-0.3,0.3-0.5,0.5c-5,5.6-11.1,8.9-16.9,12.1
					c-5.6,3.1-11,6-15.1,10.8C131.4,978.2,130.4,978.6,129.7,978.6z M136.5,950.6c-0.2,0.2-0.8,0.7-1.7,2.1
					c-0.8,1.2-2.2,5.8-3.4,11.8c-0.9,4.8-1.2,8-1.1,9.8c4.5-5.1,10.2-8.2,15.7-11.3c5.6-3,11.3-6.2,16-11.4c0.1-0.2,0.3-0.3,0.5-0.5
					c0.9-1,2.4-2.7,2.6-3.7l2.4-14.9L136.5,950.6z"/>
			</g>
		</g>
		<g>
			<g>
				<defs>
					<path id="SVGID_00000087414370627219989360000009905123392339073694_" d="M134.8,948.7l34.2-20l-3,18.4c-0.3,1.8-1.3,8-3,8.5
						c-6.2,1.7-21.7,7.2-30.3,17.4c-5.9,7-2.8-17.4-0.1-21.7C133.5,949.9,134.2,949.1,134.8,948.7z"/>
				</defs>
				<clipPath id="SVGID_00000038394478335213468250000004477428749201478065_">
					<use xlink:href="#SVGID_00000087414370627219989360000009905123392339073694_"  style="overflow:visible;"/>
				</clipPath>
				<g style="clip-path:url(#SVGID_00000038394478335213468250000004477428749201478065_);">
					<path class="st2" d="M121.8,972.2c-7.7,0-12.9-3.6-13.2-3.8l2-2.8c0.1,0,6.6,4.5,15.4,2.8c8-1.6,15.3-7.6,21.9-18
						c4.5-7.1,9.9-12.8,16.1-17c5-3.4,10.4-5.8,16.2-7.1c9.9-2.3,17.2-0.8,17.6-0.8l-0.7,3.3c-0.1,0-7.1-1.4-16.2,0.8
						c-5.4,1.3-10.4,3.5-15,6.7c-5.8,3.9-10.8,9.3-15.1,16c-7.1,11.2-15.2,17.7-24.2,19.5C124.9,972.1,123.3,972.2,121.8,972.2z"/>
				</g>
			</g>
		</g>
		<path class="st2" d="M128.1,1089L128.1,1089c-2,0-3.5-1.6-3.5-3.5v-71c0-2,1.6-3.5,3.5-3.5l0,0c2,0,3.5,1.6,3.5,3.5v71
			C131.7,1087.4,130.1,1089,128.1,1089z"/>
		<polyline class="st2" points="157.4,984.3 128.1,1019.2 100.3,986 		"/>
		<polyline class="st0" points="139.7,996.9 128.1,1010.7 116.6,996.9 		"/>
		<polygon class="st2" points="130.7,1042.9 153.1,1022.5 156.1,1028.2 131.2,1050.8 		"/>
		<g>
			<polygon class="st0" points="155.3,1024.3 164.5,1042.2 165.6,1027.2 			"/>
			<path class="st2" d="M165.3,1046.3l-12.2-23.7l13.7,3.8L165.3,1046.3z M157.5,1026.1l6.1,11.9l0.8-10L157.5,1026.1z"/>
		</g>
		<g>
			<g>
				<path class="st0" d="M202.4,959.6c0,0-32.1-25.5-57.4,0s-42.8,16.6-42.8,16.6s19.7,34.9,51.2,11.1S181.1,967,202.4,959.6z"/>
				<path class="st2" d="M131.7,997.3c-1.9,0-3.9-0.2-5.8-0.6c-15.9-3.3-24.9-19-25.2-19.7l-2.8-4.9l5,2.5c1.4,0.7,5.6,1.8,11.2,1
					c11.9-1.7,22.7-10.3,29.7-17.3c10.8-10.9,24.6-14.3,39.9-10c11.4,3.2,19.4,9.6,19.8,9.9l2.4,1.9l-2.9,1c-3.1,1.1-5.7,1.9-8,2.7
					c-12.9,4.2-13.9,4.6-40.6,24.8C146.7,994.5,139.1,997.3,131.7,997.3z M106.2,979.1c3.5,4.7,10.6,12.2,20.4,14.3
					c8.2,1.7,16.9-0.8,25.7-7.5c27.1-20.5,28.5-20.9,41.6-25.3c1.4-0.5,3-1,4.8-1.6c-3.2-2.1-9-5.4-16-7.4
					c-6.2-1.8-12.2-2.1-17.7-1.1c-6.9,1.3-13.2,4.7-18.7,10.3c-10.8,10.8-21.5,17-31.9,18.4C111,979.6,108.2,979.5,106.2,979.1z"/>
			</g>
			<g>
				<path class="st2" d="M122.6,988.2c-0.2,0-0.3,0-0.5,0c-10.5-0.2-16.6-6.8-16.9-7.1l2.5-2.3c0.1,0,5.5,5.8,14.5,6
					c8.1,0.1,16.6-4.2,25.2-12.9c5.9-6,12.4-10.4,19.3-13.2c5.6-2.2,11.4-3.4,17.3-3.5c10.1-0.2,17,2.8,17.3,3l-1.4,3.1l0.7-1.6
					l-0.7,1.6c-0.1,0-6.6-2.9-16-2.7c-5.5,0.1-10.9,1.2-16.1,3.3c-6.4,2.6-12.5,6.8-18.1,12.4C140.8,983.5,131.6,988.2,122.6,988.2z
					"/>
				<g>
					<line class="st5" x1="145.7" y1="959.2" x2="154.7" y2="968"/>
					
						<rect x="149.3" y="957.3" transform="matrix(0.7007 -0.7135 0.7135 0.7007 -642.4974 395.6089)" class="st2" width="1.8" height="12.5"/>
				</g>
				<g>
					<line class="st5" x1="149.3" y1="956.8" x2="157.8" y2="965.3"/>
					
						<rect x="152.6" y="955" transform="matrix(0.7071 -0.7071 0.7071 0.7071 -634.59 390.0516)" class="st2" width="1.8" height="12.1"/>
				</g>
			</g>
		</g>
		<g>
			<g>
				<path class="st2" d="M126.5,1000.8v-83.1c0-0.8,0.7-1.5,1.6-1.5s1.6,0.7,1.6,1.5v83.1"/>
				<path class="st2" d="M130.3,1000.8h-1.1v-83.1c0-0.5-0.5-0.9-1.1-0.9s-1.1,0.4-1.1,0.9v83.1H126v-83.1c0-1.1,1-2.1,2.2-2.1
					c1.2,0,2.2,0.9,2.2,2.1V1000.8z"/>
			</g>
		</g>
		<g>
			<path class="st0" d="M60.5,965c0,0,31.2-24.9,56.4,0.6s42.3,16.9,42.3,16.9s-19,34.3-50.2,10.4S81.4,972.5,60.5,965z"/>
			<path class="st2" d="M130.6,1003c-7.4,0-15-3-22.6-8.8c-26.4-20.2-27.5-20.6-40.2-24.9c-2.2-0.8-4.8-1.6-7.9-2.7l-2.9-1l2.4-1.9
				c0.3-0.3,8.2-6.5,19.4-9.6c6.6-1.8,13-2.2,19-1c7.5,1.5,14.3,5.2,20.3,11.3c6.9,7,17.6,15.7,29.3,17.5c5.5,0.8,9.6-0.2,11-0.9
				l4.9-2.4l-2.6,4.7c-0.4,0.7-9,16-24.4,19.2C134.4,1002.8,132.5,1003,130.6,1003z M64.2,964.5c1.7,0.6,3.3,1.1,4.7,1.6
				c12.9,4.4,14.3,4.9,41.1,25.4c8.8,6.7,17.4,9.3,25.5,7.6c9.5-2,16.3-9.3,19.7-13.8c-2.1,0.3-4.8,0.4-8,0
				c-10.2-1.4-20.8-7.7-31.6-18.5c-5.5-5.5-11.7-9-18.5-10.3c-5.4-1.1-11.3-0.8-17.4,0.9C72.9,959.2,67.3,962.4,64.2,964.5z"/>
		</g>
		<g>
			<path class="st2" d="M140,994c-9,0-18.1-4.7-27.3-13.9c-5.6-5.6-11.6-9.8-18.1-12.4c-5.2-2.1-10.6-3.2-16.1-3.3
				c-9.4-0.2-16,2.7-16,2.7l-1.4-3.1c0.3-0.1,7.2-3.2,17.3-3c5.9,0.1,11.8,1.3,17.3,3.5c6.9,2.8,13.4,7.2,19.3,13.2
				c8.6,8.7,17.1,13.1,25.2,12.9c9-0.1,14.5-5.9,14.5-6l2.5,2.3c-0.3,0.3-6.4,6.9-16.9,7.1C140.3,994,140.2,994,140,994z"/>
			<g>
				<line class="st5" x1="110" y1="976.5" x2="101" y2="985.3"/>
				
					<rect x="99.3" y="980" transform="matrix(0.7135 -0.7007 0.7007 0.7135 -657.0623 355.0049)" class="st2" width="12.5" height="1.8"/>
			</g>
			<g>
				<line class="st5" x1="106.3" y1="973.9" x2="97.7" y2="982.5"/>
				
					<rect x="95.9" y="977.3" transform="matrix(0.7071 -0.7071 0.7071 0.7071 -661.8146 358.6038)" class="st2" width="12.1" height="1.8"/>
			</g>
		</g>
		<g>
			<rect x="122.3" y="1004.6" class="st2" width="12.5" height="1.1"/>
		</g>
		<g>
			<rect x="119.8" y="1001.8" class="st2" width="15.2" height="1.1"/>
		</g>
		<g>
			<rect x="157.4" y="1028.8" class="st2" width="7.4" height="1.1"/>
		</g>
		<g>
			<rect x="121.9" y="1007.5" class="st2" width="12.5" height="1.1"/>
		</g>
		<g>
			<rect x="159.2" y="1032.2" class="st2" width="5.2" height="1.1"/>
		</g>
		<polygon class="st2" points="117.9,999.9 122.9,1000.8 122.9,1002 119.2,1002.4 		"/>
		<g>
			<path class="st2" d="M118.6,921.8L118.6,921.8c-1.1,1.1-2.8,1.1-3.9,0l0,0c-1.1-1.1-1.1-2.8,0-3.9l0,0c1.1-1.1,2.8-1.1,3.9,0l0,0
				C119.7,919,119.7,920.7,118.6,921.8z"/>
			<path class="st2" d="M116.7,923.9c-0.7,0-1.4-0.3-1.9-0.8l-1.4-1.4c-0.5-0.5-0.8-1.2-0.8-1.9s0.3-1.4,0.8-1.9l1.4-1.4
				c0.5-0.5,1.2-0.8,1.9-0.8s1.4,0.3,1.9,0.8l1.4,1.4c0.5,0.5,0.8,1.2,0.8,1.9s-0.3,1.4-0.8,1.9l-1.4,1.4
				C118,923.6,117.4,923.9,116.7,923.9z M116.7,917.7c-0.2,0-0.4,0.1-0.6,0.2l-1.4,1.4c-0.2,0.2-0.2,0.4-0.2,0.6
				c0,0.2,0.1,0.4,0.2,0.6l1.4,1.4c0.3,0.3,0.9,0.3,1.2,0l1.4-1.4c0.2-0.2,0.2-0.4,0.2-0.6c0-0.2-0.1-0.4-0.2-0.6l-1.4-1.4
				C117.1,917.7,116.9,917.7,116.7,917.7z"/>
		</g>
		<g>
			<path class="st2" d="M141.6,921.8L141.6,921.8c-1.1,1.1-2.8,1.1-3.9,0l0,0c-1.1-1.1-1.1-2.8,0-3.9l0,0c1.1-1.1,2.8-1.1,3.9,0l0,0
				C142.6,919,142.6,920.7,141.6,921.8z"/>
			<path class="st2" d="M139.6,923.9c-0.7,0-1.4-0.3-1.9-0.8l-1.4-1.4c-1-1-1-2.7,0-3.8l1.4-1.4c0.5-0.5,1.2-0.8,1.9-0.8
				s1.4,0.3,1.9,0.8l1.4,1.4c0.5,0.5,0.8,1.2,0.8,1.9s-0.3,1.4-0.8,1.9l-1.4,1.4C141,923.6,140.4,923.9,139.6,923.9z M139.6,917.7
				c-0.2,0-0.4,0.1-0.6,0.2l-1.4,1.4c-0.3,0.3-0.3,0.9,0,1.2l1.4,1.4c0.3,0.3,0.9,0.3,1.2,0l1.4-1.4c0.2-0.2,0.2-0.4,0.2-0.6
				c0-0.2-0.1-0.4-0.2-0.6l-1.4-1.4C140.1,917.7,139.9,917.7,139.6,917.7z"/>
		</g>
		<g>
			<path class="st2" d="M130.1,910.3L130.1,910.3c-1.1,1.1-2.8,1.1-3.9,0l0,0c-1.1-1.1-1.1-2.8,0-3.9l0,0c1.1-1.1,2.8-1.1,3.9,0l0,0
				C131.1,907.5,131.1,909.2,130.1,910.3z"/>
			<path class="st2" d="M128.1,912.4c-0.7,0-1.4-0.3-1.9-0.8l-1.4-1.4c-1-1-1-2.7,0-3.8l1.4-1.4c0.5-0.5,1.2-0.8,1.9-0.8
				c0.7,0,1.4,0.3,1.9,0.8l1.4,1.4c0.5,0.5,0.8,1.2,0.8,1.9s-0.3,1.4-0.8,1.9l-1.4,1.4C129.5,912.2,128.9,912.4,128.1,912.4z
				 M128.1,906.2c-0.2,0-0.4,0.1-0.6,0.2l-1.4,1.4c-0.3,0.3-0.3,0.9,0,1.2l1.4,1.4c0.3,0.3,0.9,0.3,1.2,0l1.4-1.4
				c0.2-0.2,0.2-0.4,0.2-0.6c0-0.2-0.1-0.4-0.2-0.6l-1.4-1.4C128.6,906.2,128.4,906.2,128.1,906.2z"/>
		</g>
		<polygon class="st2" points="130.7,1062.5 108.3,1042.2 105.2,1047.8 130.2,1070.4 		"/>
		<g>
			<polygon class="st0" points="106.1,1043.9 96.9,1061.8 95.8,1046.8 			"/>
			<path class="st2" d="M94.6,1045.9l13.7-3.8l-12.2,23.7L94.6,1045.9z M97,1047.6l0.8,10l6.1-11.9L97,1047.6z"/>
		</g>
		<g>
			<g>
				<rect x="96.6" y="1048.4" class="st2" width="7.4" height="1.1"/>
			</g>
		</g>
		<g>
			<g>
				<rect x="96.9" y="1051.8" class="st2" width="5.2" height="1.1"/>
			</g>
		</g>
	</g>
</g>
<g>
	<rect x="-1" y="1178.5" class="st2" width="1082" height="350.7"/>
	<g>
		<g>
			<path class="st0" d="M278.7,1363.1h-16.4v36.8h-14.9v-90.7h31.3c21.5,0,32.1,12.3,32.1,27
				C310.8,1349.1,302.4,1363.1,278.7,1363.1z M278.7,1351c11.6,0,16.8-5.6,16.8-14.7c0-9.4-5.2-14.9-16.8-14.9h-16.4v29.6H278.7z"/>
			<path class="st0" d="M332.9,1303.3h14.9v96.6h-14.9V1303.3z"/>
			<path class="st0" d="M404.1,1326.8c12.1,0,20.5,5.7,24.9,11.6V1328h15v71.9h-15v-10.7c-4.6,6.1-13.2,11.9-25.2,11.9
				c-18.7,0-33.7-15.3-33.7-37.4S385.2,1326.8,404.1,1326.8z M407.3,1339.7c-11.1,0-21.8,8.3-21.8,23.9s10.7,24.5,21.8,24.5
				c11.2,0,21.8-8.7,21.8-24.3C429.1,1348.5,418.5,1339.7,407.3,1339.7z"/>
			<path class="st0" d="M469.5,1308.9c0-5.3,4.2-9.5,9.5-9.5c5.2,0,9.4,4.2,9.4,9.5s-4.2,9.5-9.4,9.5
				C473.7,1318.5,469.5,1314.3,469.5,1308.9z M471.5,1328h14.9v71.9h-14.9V1328z"/>
			<path class="st0" d="M564.8,1359.7c0-13.2-7.2-20-18-20c-11,0-18.1,6.8-18.1,20v40.2h-14.9V1328h14.9v8.2
				c4.8-5.9,12.8-9.4,21.4-9.4c16.8,0,29.5,10.6,29.5,30.7v42.4h-14.7V1359.7z"/>
			<path class="st0" d="M632.4,1401.1c-17.2,0-29.4-10.2-30-23.2h15.4c0.5,5.9,6.1,10.7,14.3,10.7c8.6,0,13.2-3.7,13.2-8.6
				c0-14.1-41.8-6-41.8-32.4c0-11.5,10.7-20.8,27.7-20.8c16.3,0,27,8.7,27.8,23.1h-14.9c-0.5-6.3-5.3-10.6-13.4-10.6
				c-8,0-12.1,3.3-12.1,8.1c0,14.5,40.6,6.4,41.4,32.4C659.9,1391.9,649.3,1401.1,632.4,1401.1z"/>
			<path class="st0" d="M691.2,1328l20.4,58.6l20.4-58.6h15.8l-27.4,71.9h-17.8l-27.3-71.9H691.2z"/>
			<path class="st0" d="M764.8,1308.9c0-5.3,4.2-9.5,9.5-9.5c5.2,0,9.4,4.2,9.4,9.5s-4.2,9.5-9.4,9.5
				C769,1318.5,764.8,1314.3,764.8,1308.9z M766.8,1328h14.9v71.9h-14.9V1328z"/>
			<path class="st0" d="M840,1401.1c-20.6,0-35.9-14.6-35.9-37.2c0-22.6,14.6-37.1,35.9-37.1c20.5,0,35,14.2,35,35.4
				c0,2.5-0.1,4.8-0.5,7.3h-54.9c1,11.9,9.5,19.1,20.5,19.1c9.1,0,14.2-4.4,17-10.1h16C868.9,1391,857.6,1401.1,840,1401.1z
				 M819.6,1357.5h39.8c-0.3-11.1-9-18.1-20.1-18.1C829.3,1339.3,821.2,1346.1,819.6,1357.5z"/>
			<path class="st0" d="M888.9,1328H904l15,57.8l15.3-57.8h15.5l14.6,57.5l14.9-57.5h14.6l-22.3,71.9H956l-14.5-53.1l-14.5,53.1
				h-15.7L888.9,1328z"/>
		</g>
	</g>
	<g>
		<path class="st1" d="M257.1,1437.7h14.5v1.8h-6.1v20.2h-2.2v-20.2h-6.1L257.1,1437.7L257.1,1437.7z"/>
		<path class="st1" d="M348,1459.9c-6.2,0-10.9-4.6-10.9-11.2c0-6.6,4.7-11.2,10.9-11.2c6.2,0,10.9,4.7,10.9,11.2
			C358.9,1455.3,354.2,1459.9,348,1459.9z M348,1458c4.9,0,8.6-3.6,8.6-9.3c0-5.8-3.8-9.3-8.6-9.3c-4.9,0-8.6,3.5-8.6,9.3
			C339.4,1454.4,343.1,1458,348,1458z"/>
		<path class="st1" d="M424.3,1437.7h2.4l5,19.3l5.6-19.3h2.5l5.5,19.3l5.1-19.3h2.4l-6.2,22H444l-5.5-18.8l-5.7,18.8l-2.4,0
			L424.3,1437.7z"/>
		<path class="st1" d="M535.7,1437.7v22h-2.2l-12.2-18.5v18.5h-2.2v-22h2.2l12.2,18.5v-18.5H535.7z"/>
		<path class="st1" d="M617.9,1449.4H606v10.3h-2.2v-22h2.2v9.9h11.9v-9.9h2.2v22h-2.2V1449.4z"/>
		<path class="st1" d="M698.1,1459.9c-6.2,0-10.9-4.6-10.9-11.2c0-6.6,4.7-11.2,10.9-11.2c6.2,0,10.9,4.7,10.9,11.2
			C709,1455.3,704.3,1459.9,698.1,1459.9z M698.1,1458c4.9,0,8.6-3.6,8.6-9.3c0-5.8-3.8-9.3-8.6-9.3c-4.9,0-8.6,3.5-8.6,9.3
			S693.2,1458,698.1,1458z"/>
		<path class="st1" d="M776,1437.9h2.3l8.4,18.8l8.4-18.8h2.4v21.8h-2.2v-17.4l-7.8,17.4H786l-7.8-17.3v17.3H776L776,1437.9
			L776,1437.9z"/>
		<path class="st1" d="M877.1,1439.4h-9.3v8.2h8.3v1.8h-8.3v8.3h9.3v1.8h-11.5v-22.1h11.5V1439.4z"/>
		<path class="st1" d="M951.1,1459.9c-4.4,0-7.3-2.5-7.4-5.9h2.3c0.2,1.8,1.5,4,5.1,4c3.1,0,4.8-1.8,4.8-4.1
			c0-6.5-12.1-2.4-12.1-10.7c0-3.4,2.8-5.9,7.1-5.9c4.2,0,6.7,2.3,7.1,5.4h-2.4c-0.2-1.5-1.7-3.4-4.8-3.5c-2.6,0-4.7,1.4-4.7,3.9
			c0,6.4,12.1,2.5,12.1,10.7C958.2,1456.9,955.8,1459.9,951.1,1459.9z"/>
	</g>
	<g>
		<path class="st1" d="M91.8,1303.7c6.7,0,8,0,12.8,2.2c10.2,4.7,17.9,7.9,16.7,15.8c1.2,0.9,2.5,1.6,3.7,2.5
			c8.4-10.1,5.4-23.8-6.9-31.3l-31.7-19c-0.6-0.4-1.4-0.4-2.1-0.1s-1,0.9-0.9,1.5l4.6,27.3"/>
		<g>
			<path class="st0" d="M120.8,1297.7l-34.2-20l3,18.4c0.3,1.8,1.3,8,3,8.5c6.2,1.7,21.7,7.2,30.3,17.4c5.9,7,2.8-17.4,0.1-21.7
				C122.1,1298.9,121.4,1298.1,120.8,1297.7z"/>
			<path class="st1" d="M124.8,1325c-1.4,0-2.6-1.2-3.1-1.9c-3.6-4.2-8.8-8.1-15.5-11.4c-6.3-3.1-11.8-4.8-13.9-5.4
				c-2-0.6-3.2-3.3-4.2-9.9l-3.5-22l37.4,21.9c0.8,0.6,1.7,1.6,2.6,3.1c1.4,2.2,2.6,8,3.2,12.7c1.2,10.4-0.7,11.9-1.4,12.3
				C125.7,1324.8,125.2,1325,124.8,1325z M93.2,1303c3.9,1.1,21.4,6.5,31,17.8c0.1,0.1,0.1,0.1,0.1,0.2c0.3-1.4,0.4-4.4-0.2-9.1
				c-0.7-5.4-1.8-9.6-2.6-10.7c-0.9-1.4-1.4-1.9-1.7-2.1l-31-18.1l2.4,14.9C92.1,1301.3,92.9,1302.7,93.2,1303z"/>
		</g>
		<g>
			<g>
				<defs>
					<path id="SVGID_00000176732794180799287140000010571131332066750650_" d="M120.8,1297.7l-34.2-20l3,18.4c0.3,1.8,1.3,8,3,8.5
						c6.2,1.7,21.7,7.2,30.3,17.4c5.9,7,2.8-17.4,0.1-21.7C122.1,1298.9,121.4,1298.1,120.8,1297.7z"/>
				</defs>
				<clipPath id="SVGID_00000161597751398411726760000008479859343608689850_">
					<use xlink:href="#SVGID_00000176732794180799287140000010571131332066750650_"  style="overflow:visible;"/>
				</clipPath>
				<g style="clip-path:url(#SVGID_00000161597751398411726760000008479859343608689850_);">
					<path class="st1" d="M133.8,1321.2c-1.5,0-3.1-0.1-4.8-0.5c-8.9-1.8-17.1-8.3-24.2-19.5c-4.2-6.7-9.3-12-15.1-16
						c-4.6-3.1-9.6-5.4-15-6.7c-9.2-2.2-16.2-0.8-16.2-0.8l-0.7-3.3c0.3-0.1,7.7-1.6,17.6,0.8c5.8,1.4,11.2,3.8,16.2,7.1
						c6.2,4.2,11.6,9.9,16.1,17c6.6,10.3,13.9,16.4,21.9,18c8.8,1.8,15.4-2.7,15.4-2.8l2,2.8
						C146.8,1317.6,141.5,1321.2,133.8,1321.2z"/>
				</g>
			</g>
		</g>
		<g>
			<path class="st1" d="M164.5,1303.7c-6.7,0-8,0-12.8,2.2c-10.2,4.7-17.9,7.9-16.7,15.8c-1.2,0.9-2.5,1.6-3.7,2.5
				c-8.4-10.1-5.4-23.8,6.9-31.3l31.7-19c0.6-0.4,1.4-0.4,2.1-0.1c0.6,0.3,1,0.9,0.9,1.5l-4.3,27.6"/>
			<g>
				<path class="st0" d="M135.6,1297.7l34.2-20l-3,18.4c-0.3,1.8-2.3,3.8-3.5,5.1c-9.7,10.8-23.4,12.8-32,23c-5.9,7-0.6-19.7,2.1-24
					C134.2,1298.9,134.9,1298.1,135.6,1297.7z"/>
				<path class="st1" d="M129.7,1327.1c-0.6,0-1.1-0.2-1.4-0.5c-0.8-0.6-2.5-1.8-0.4-13.5c0.9-5.1,2.6-11.6,4-13.8
					c1-1.5,1.8-2.5,2.6-3.1l0.1-0.1l37.3-21.8l-3.5,22c-0.3,2.1-2.1,3.9-3.5,5.5c-0.2,0.2-0.3,0.3-0.5,0.5
					c-5,5.6-11.1,8.9-16.9,12.1c-5.6,3.1-11,6-15.1,10.8C131.4,1326.7,130.4,1327.1,129.7,1327.1z M136.5,1299.1
					c-0.2,0.2-0.8,0.7-1.7,2.1c-0.8,1.2-2.2,5.8-3.4,11.8c-0.9,4.8-1.2,8.1-1.1,9.8c4.5-5.1,10.2-8.2,15.7-11.3
					c5.6-3.1,11.3-6.2,16-11.4c0.1-0.2,0.3-0.3,0.5-0.5c0.9-1,2.4-2.7,2.6-3.7l2.4-14.9L136.5,1299.1z"/>
			</g>
		</g>
		<g>
			<g>
				<defs>
					<path id="SVGID_00000062165619700548176730000016988078266086600122_" d="M134.8,1297.2l34.2-20l-3,18.4c-0.3,1.8-1.3,8-3,8.5
						c-6.2,1.7-21.7,7.2-30.3,17.4c-5.9,7-2.8-17.4-0.1-21.7C133.5,1298.4,134.2,1297.6,134.8,1297.2z"/>
				</defs>
				<clipPath id="SVGID_00000155829741644523266080000016049122423149089464_">
					<use xlink:href="#SVGID_00000062165619700548176730000016988078266086600122_"  style="overflow:visible;"/>
				</clipPath>
				<g style="clip-path:url(#SVGID_00000155829741644523266080000016049122423149089464_);">
					<path class="st1" d="M121.8,1320.7c-7.7,0-12.9-3.6-13.2-3.8l2-2.8c0.1,0,6.6,4.5,15.4,2.8c8-1.6,15.3-7.6,21.9-18
						c4.5-7.1,9.9-12.8,16.1-17c5-3.4,10.4-5.8,16.2-7.1c9.9-2.3,17.2-0.8,17.6-0.8l-0.7,3.3c-0.1,0-7.1-1.4-16.2,0.8
						c-5.4,1.3-10.4,3.5-15,6.7c-5.8,3.9-10.8,9.3-15.1,16c-7.1,11.2-15.2,17.7-24.2,19.5C124.9,1320.6,123.3,1320.7,121.8,1320.7z"
						/>
				</g>
			</g>
		</g>
		<path class="st1" d="M128.1,1437.5L128.1,1437.5c-2,0-3.5-1.6-3.5-3.5v-71c0-2,1.6-3.5,3.5-3.5l0,0c2,0,3.5,1.6,3.5,3.5v71
			C131.7,1435.9,130.1,1437.5,128.1,1437.5z"/>
		<polyline class="st1" points="157.4,1332.8 128.1,1367.7 100.3,1334.5 		"/>
		<polyline class="st0" points="139.7,1345.4 128.1,1359.2 116.6,1345.4 		"/>
		<polygon class="st1" points="130.7,1391.4 153.1,1371.1 156.1,1376.7 131.2,1399.3 		"/>
		<g>
			<polygon class="st0" points="155.3,1372.8 164.5,1390.7 165.6,1375.7 			"/>
			<path class="st1" d="M165.3,1394.8l-12.2-23.7l13.7,3.8L165.3,1394.8z M157.5,1374.6l6.1,11.9l0.8-10L157.5,1374.6z"/>
		</g>
		<g>
			<g>
				<path class="st0" d="M202.4,1308.1c0,0-32.1-25.5-57.4,0c-25.4,25.5-42.8,16.6-42.8,16.6s19.7,34.9,51.2,11.1
					C184.9,1312,181.1,1315.6,202.4,1308.1z"/>
				<path class="st1" d="M131.7,1345.8c-1.9,0-3.9-0.2-5.8-0.6c-15.9-3.3-24.9-19-25.2-19.7l-2.8-4.9l5,2.5c1.4,0.7,5.6,1.8,11.2,1
					c11.9-1.7,22.7-10.3,29.7-17.3c10.8-10.9,24.6-14.3,39.9-10c11.4,3.2,19.4,9.6,19.8,9.9l2.4,1.9l-2.9,1c-3.1,1.1-5.7,1.9-8,2.7
					c-12.9,4.2-13.9,4.6-40.6,24.8C146.7,1342.9,139.1,1345.8,131.7,1345.8z M106.2,1327.6c3.5,4.7,10.6,12.2,20.4,14.3
					c8.2,1.7,16.9-0.8,25.7-7.4c27.1-20.5,28.5-20.9,41.6-25.3c1.4-0.5,3-1,4.8-1.6c-3.2-2.1-9-5.4-16-7.4
					c-6.2-1.8-12.2-2.1-17.7-1.1c-6.9,1.3-13.2,4.7-18.7,10.3c-10.8,10.8-21.5,17-31.9,18.4C111,1328.1,108.2,1327.9,106.2,1327.6z"
					/>
			</g>
			<g>
				<path class="st1" d="M122.6,1336.7c-0.2,0-0.3,0-0.5,0c-10.5-0.2-16.6-6.8-16.9-7.1l2.5-2.3c0.1,0.1,5.5,5.8,14.5,6
					c8.1,0.1,16.6-4.2,25.2-12.9c5.9-6,12.4-10.4,19.3-13.2c5.6-2.2,11.4-3.4,17.3-3.6c10.1-0.2,17,2.8,17.3,3l-1.4,3.1l0.7-1.6
					l-0.7,1.6c-0.1,0-6.6-2.9-16-2.7c-5.5,0.1-10.9,1.2-16.1,3.3c-6.4,2.6-12.5,6.8-18.1,12.4C140.8,1332,131.6,1336.7,122.6,1336.7
					z"/>
				<g>
					<line class="st5" x1="145.7" y1="1307.7" x2="154.7" y2="1316.4"/>
					
						<rect x="149.4" y="1305.8" transform="matrix(0.7007 -0.7135 0.7135 0.7007 -891.1396 499.9326)" class="st1" width="1.8" height="12.5"/>
				</g>
				<g>
					<line class="st5" x1="149.3" y1="1305.3" x2="157.8" y2="1313.8"/>
					
						<rect x="152.6" y="1303.5" transform="matrix(0.7071 -0.7071 0.7071 0.7071 -881.0192 492.1201)" class="st1" width="1.8" height="12.1"/>
				</g>
			</g>
		</g>
		<g>
			<g>
				<path class="st1" d="M126.5,1349.3v-83.1c0-0.8,0.7-1.5,1.6-1.5s1.6,0.7,1.6,1.5v83.1"/>
				<path class="st1" d="M130.3,1349.3h-1.1v-83.1c0-0.5-0.5-0.9-1.1-0.9s-1.1,0.4-1.1,0.9v83.1H126v-83.1c0-1.1,1-2.1,2.2-2.1
					c1.2,0,2.2,0.9,2.2,2.1V1349.3z"/>
			</g>
		</g>
		<g>
			<path class="st0" d="M60.5,1313.5c0,0,31.2-24.9,56.4,0.6s42.3,16.9,42.3,16.9s-19,34.3-50.2,10.4
				C77.7,1317.5,81.4,1321,60.5,1313.5z"/>
			<path class="st1" d="M130.6,1351.5c-7.4,0-15-2.9-22.6-8.8c-26.4-20.2-27.5-20.6-40.2-24.9c-2.2-0.8-4.8-1.6-7.9-2.7l-2.9-1
				l2.4-1.9c0.3-0.3,8.2-6.5,19.4-9.6c6.6-1.8,13-2.2,19-1c7.5,1.4,14.3,5.2,20.3,11.3c6.9,7,17.6,15.7,29.3,17.5
				c5.5,0.8,9.6-0.2,11-0.9l4.9-2.4l-2.6,4.7c-0.4,0.7-9,15.9-24.4,19.2C134.4,1351.3,132.5,1351.5,130.6,1351.5z M64.2,1313
				c1.7,0.6,3.3,1.1,4.7,1.6c12.9,4.4,14.3,4.9,41.1,25.4c8.8,6.7,17.4,9.3,25.5,7.6c9.5-2,16.3-9.3,19.7-13.8c-2.1,0.3-4.8,0.4-8,0
				c-10.2-1.4-20.8-7.7-31.6-18.5c-5.5-5.5-11.7-9-18.5-10.3c-5.4-1.1-11.3-0.8-17.4,0.9C72.9,1307.7,67.3,1310.9,64.2,1313z"/>
		</g>
		<g>
			<path class="st1" d="M140,1342.6c-9,0-18.1-4.7-27.3-13.9c-5.6-5.6-11.6-9.8-18.1-12.4c-5.2-2.1-10.6-3.2-16.1-3.3
				c-9.4-0.2-16,2.7-16,2.7l-1.4-3.1c0.3-0.1,7.2-3.2,17.3-3c5.9,0.1,11.8,1.3,17.3,3.6c6.9,2.8,13.4,7.2,19.3,13.2
				c8.6,8.7,17.1,13.1,25.2,12.9c9-0.1,14.5-5.9,14.5-6l2.5,2.3c-0.3,0.3-6.4,6.9-16.9,7.1C140.3,1342.6,140.2,1342.6,140,1342.6z"
				/>
			<g>
				<line class="st5" x1="110" y1="1325" x2="101" y2="1333.8"/>
				
					<rect x="99.3" y="1328.5" transform="matrix(0.7135 -0.7007 0.7007 0.7135 -901.2506 454.8649)" class="st1" width="12.5" height="1.8"/>
			</g>
			<g>
				<line class="st5" x1="106.3" y1="1322.4" x2="97.7" y2="1331"/>
				
					<rect x="95.9" y="1325.8" transform="matrix(0.7071 -0.7071 0.7071 0.7071 -908.2451 460.68)" class="st1" width="12.1" height="1.8"/>
			</g>
		</g>
		<g>
			<rect x="122.3" y="1353.1" class="st1" width="12.5" height="1.1"/>
		</g>
		<g>
			<rect x="119.8" y="1350.3" class="st1" width="15.2" height="1.1"/>
		</g>
		<g>
			<rect x="157.4" y="1377.3" class="st1" width="7.4" height="1.1"/>
		</g>
		<g>
			<rect x="121.9" y="1356" class="st1" width="12.5" height="1.1"/>
		</g>
		<g>
			<rect x="159.2" y="1380.7" class="st1" width="5.2" height="1.1"/>
		</g>
		<polygon class="st1" points="117.9,1348.4 122.9,1349.3 122.9,1350.6 119.2,1350.9 		"/>
		<g>
			<path class="st1" d="M118.6,1270.3L118.6,1270.3c-1.1,1.1-2.8,1.1-3.9,0l0,0c-1.1-1.1-1.1-2.8,0-3.9l0,0c1.1-1.1,2.8-1.1,3.9,0
				l0,0C119.7,1267.5,119.7,1269.2,118.6,1270.3z"/>
			<path class="st1" d="M116.7,1272.4c-0.7,0-1.4-0.3-1.9-0.8l-1.4-1.4c-0.5-0.5-0.8-1.2-0.8-1.9s0.3-1.4,0.8-1.9l1.4-1.4
				c0.5-0.5,1.2-0.8,1.9-0.8s1.4,0.3,1.9,0.8l1.4,1.4c0.5,0.5,0.8,1.2,0.8,1.9s-0.3,1.4-0.8,1.9l-1.4,1.4
				C118,1272.2,117.4,1272.4,116.7,1272.4z M116.7,1266.2c-0.2,0-0.4,0.1-0.6,0.2l-1.4,1.4c-0.2,0.2-0.2,0.4-0.2,0.6
				s0.1,0.4,0.2,0.6l1.4,1.4c0.3,0.3,0.9,0.3,1.2,0l1.4-1.4c0.2-0.2,0.2-0.4,0.2-0.6s-0.1-0.4-0.2-0.6l-1.4-1.4
				C117.1,1266.2,116.9,1266.2,116.7,1266.2z"/>
		</g>
		<g>
			<path class="st1" d="M141.6,1270.3L141.6,1270.3c-1.1,1.1-2.8,1.1-3.9,0l0,0c-1.1-1.1-1.1-2.8,0-3.9l0,0c1.1-1.1,2.8-1.1,3.9,0
				l0,0C142.6,1267.5,142.6,1269.2,141.6,1270.3z"/>
			<path class="st1" d="M139.6,1272.4c-0.7,0-1.4-0.3-1.9-0.8l-1.4-1.4c-1-1-1-2.7,0-3.8l1.4-1.4c0.5-0.5,1.2-0.8,1.9-0.8
				s1.4,0.3,1.9,0.8l1.4,1.4c0.5,0.5,0.8,1.2,0.8,1.9s-0.3,1.4-0.8,1.9l-1.4,1.4C141,1272.2,140.4,1272.4,139.6,1272.4z
				 M139.6,1266.2c-0.2,0-0.4,0.1-0.6,0.2l-1.4,1.4c-0.3,0.3-0.3,0.9,0,1.2l1.4,1.4c0.3,0.3,0.9,0.3,1.2,0l1.4-1.4
				c0.2-0.2,0.2-0.4,0.2-0.6s-0.1-0.4-0.2-0.6l-1.4-1.4C140.1,1266.2,139.9,1266.2,139.6,1266.2z"/>
		</g>
		<g>
			<path class="st1" d="M130.1,1258.8L130.1,1258.8c-1.1,1.1-2.8,1.1-3.9,0l0,0c-1.1-1.1-1.1-2.8,0-3.9l0,0c1.1-1.1,2.8-1.1,3.9,0
				l0,0C131.1,1256,131.1,1257.8,130.1,1258.8z"/>
			<path class="st1" d="M128.1,1260.9c-0.7,0-1.4-0.3-1.9-0.8l-1.4-1.4c-1-1-1-2.7,0-3.8l1.4-1.4c0.5-0.5,1.2-0.8,1.9-0.8
				c0.7,0,1.4,0.3,1.9,0.8l1.4,1.4c0.5,0.5,0.8,1.2,0.8,1.9s-0.3,1.4-0.8,1.9l-1.4,1.4C129.5,1260.7,128.9,1260.9,128.1,1260.9z
				 M128.1,1254.7c-0.2,0-0.4,0.1-0.6,0.2l-1.4,1.4c-0.3,0.3-0.3,0.9,0,1.2l1.4,1.4c0.3,0.3,0.9,0.3,1.2,0l1.4-1.4
				c0.2-0.2,0.2-0.4,0.2-0.6s-0.1-0.4-0.2-0.6l-1.4-1.4C128.6,1254.8,128.4,1254.7,128.1,1254.7z"/>
		</g>
		<polygon class="st1" points="130.7,1411 108.3,1390.7 105.2,1396.3 130.2,1418.9 		"/>
		<g>
			<polygon class="st0" points="106.1,1392.4 96.9,1410.3 95.8,1395.3 			"/>
			<path class="st1" d="M94.6,1394.4l13.7-3.8l-12.2,23.7L94.6,1394.4z M97,1396.1l0.8,10l6.1-11.9L97,1396.1z"/>
		</g>
		<g>
			<g>
				<rect x="96.6" y="1396.9" class="st1" width="7.4" height="1.1"/>
			</g>
		</g>
		<g>
			<g>
				<rect x="96.9" y="1400.3" class="st1" width="5.2" height="1.1"/>
			</g>
		</g>
	</g>
</g>
</svg>
