<svg xmlns="http://www.w3.org/2000/svg" width="126.829" height="95.289" viewBox="0 0 126.829 95.289">
  <g id="Group_49" data-name="Group 49" transform="translate(-702 -1068.558)">
    <g id="Group_48" data-name="Group 48" transform="translate(703.107 1069.022)">
      <g id="Group_50" data-name="Group 50" transform="translate(0 0)">
        <path id="Path_351" data-name="Path 351" d="M49.955,92.667l-.1-30.916A12.879,12.879,0,0,0,36.971,48.872H23.3c-.666-16.6,1.488-32.568,20.077-35.885L45.452,1.9c-11.285.663-17.51,6.811-25.475,13.45C9.356,24.31,5.042,35.263,5.042,54.184L1.107,93.706Z" transform="translate(-1.107 0.095)" fill="none" stroke="#2a2221" stroke-miterlimit="10" stroke-width="2"/>
        <path id="Path_352" data-name="Path 352" d="M46.021,87.931V59.32A12.879,12.879,0,0,0,33.141,46.441H19.467c-.663-16.6,4.628-35.362,23.217-38.679l3.337-6.13C34.736,2.3,24.115,6.278,16.148,12.917,5.526,21.879,1.212,32.832,1.212,51.753V87.931Z" transform="translate(-0.973 -0.246)" fill="#1a1818"/>
        <path id="Path_353" data-name="Path 353" d="M83.35,92.057l-.1-30.916A12.879,12.879,0,0,0,70.366,48.262H56.692c-.663-16.6,1.488-32.568,20.077-35.887L78.847,1.29C67.563,1.953,61.338,8.1,53.373,14.74,42.751,23.7,38.437,34.653,38.437,53.574L34.5,93.1Z" transform="translate(41.369 -0.681)" fill="none" stroke="#2a2221" stroke-miterlimit="10" stroke-width="2"/>
        <path id="Path_354" data-name="Path 354" d="M79.416,87.321V58.71A12.879,12.879,0,0,0,66.536,45.831H52.862C52.2,29.235,57.49,10.469,76.079,7.152l3.337-6.13C68.131,1.685,57.51,5.668,49.543,12.307,38.921,21.269,34.607,32.222,34.607,51.143V87.321Z" transform="translate(41.502 -1.022)" fill="#1a1818"/>
      </g>
    </g>
  </g>
</svg>
