<svg xmlns="http://www.w3.org/2000/svg" width="128.188" height="96.304" viewBox="0 0 128.188 96.304">
  <g id="Group_53" data-name="Group 53" transform="translate(1.003 1.024)">
    <path id="Path_355" data-name="Path 355" d="M494.718,2.074l.106,31.253a13.019,13.019,0,0,0,13.02,13.02h13.824c.671,16.777-1.5,32.923-20.3,36.278l-2.1,11.205c11.407-.671,17.7-6.885,25.752-13.6,10.737-9.058,15.1-20.13,15.1-39.257L544.1,1.024Z" transform="translate(-418.021 -1.024)" fill="none" stroke="#2a2221" stroke-miterlimit="10" stroke-width="2"/>
    <path id="Path_356" data-name="Path 356" d="M496.391,3.716V32.638a13.019,13.019,0,0,0,13.02,13.02h13.824c.671,16.777-4.678,35.748-23.47,39.1l-3.374,6.2c11.408-.671,22.144-4.7,30.2-11.408,10.737-9.06,15.1-20.133,15.1-39.259V3.716Z" transform="translate(-415.852 2.467)" fill="#1a1818"/>
    <path id="Path_357" data-name="Path 357" d="M461.323,2.684l.106,31.253a13.019,13.019,0,0,0,13.02,13.02h13.824c.671,16.777-1.5,32.923-20.3,36.278l-2.1,11.205c11.408-.671,17.7-6.885,25.752-13.6,10.737-9.058,15.1-20.13,15.1-39.257L510.7,1.634Z" transform="translate(-461.323 -0.233)" fill="none" stroke="#2a2221" stroke-miterlimit="10" stroke-width="2"/>
    <path id="Path_358" data-name="Path 358" d="M463,4.326V33.248a13.019,13.019,0,0,0,13.02,13.02h13.824c.671,16.777-4.678,35.748-23.47,39.1L463,91.565c11.408-.671,22.144-4.7,30.2-11.408,10.737-9.06,15.1-20.133,15.1-39.259V4.326Z" transform="translate(-459.154 3.258)" fill="#1a1818"/>
  </g>
</svg>
