<?xml version="1.0" encoding="utf-8"?>
<!-- Generator: Adobe Illustrator 26.0.2, SVG Export Plug-In . SVG Version: 6.00 Build 0)  -->
<svg version="1.1" id="Layer_1" xmlns="http://www.w3.org/2000/svg" xmlns:xlink="http://www.w3.org/1999/xlink" x="0px" y="0px"
	 viewBox="0 0 459.74 428.04" style="enable-background:new 0 0 459.74 428.04;" xml:space="preserve">
<style type="text/css">
	.st0{fill:#B1A7A2;}
	.st1{fill:#686058;}
</style>
<g>
	<polygon class="st0" points="297.35,137.29 297.35,134.03 298.61,130.59 301.67,123.99 302.89,123.99 304.25,126.03 304.59,130.31 
		302.89,136.54 298.5,139.93 	"/>
	<polygon class="st0" points="299.07,147.1 300.29,145.3 301.5,143.8 305.15,142.52 309.28,141.3 310.27,142.52 308.61,145.52 
		304.7,148.37 300.38,147.97 	"/>
	<polygon class="st0" points="320.13,182.02 316.04,183.18 311.47,187.11 309.48,191.31 308.61,194.87 308.77,197.97 309.59,199.31 
		311.61,198.86 314.31,197.49 318.66,187.24 321.18,183.44 	"/>
	<polygon class="st0" points="327.73,189.65 326.5,194.34 330.61,194.34 335.72,192.45 340.02,188.41 341.9,184.64 341.97,182.47 
		337.63,183.74 330.81,186.78 	"/>
	<polygon class="st0" points="346.49,200.95 349.84,199.31 353.4,199.31 357.83,199.97 362.86,201.87 365.43,205.42 366.5,207.17 
		362.49,207.72 353.85,208.26 349.02,207.38 345.03,204.17 	"/>
	<polygon class="st0" points="330.15,210.48 332.2,209.54 335.04,208.93 337.53,209.54 339.57,211.25 338.84,211.6 333.8,212.86 
		330.81,211.84 	"/>
	<polygon class="st0" points="291.68,209.96 293.61,209.96 293.85,207.38 292.2,204.28 291.35,206.24 	"/>
	<polygon class="st0" points="310.27,219.06 314.31,217.23 321.18,217.23 330.15,218.74 328.94,220.4 327.12,222.35 320.79,224.38 
		315.48,224.13 310.87,221.98 	"/>
	<polygon class="st0" points="275.08,220.8 281.74,216.26 282.63,211.84 281.14,207.12 277.8,208.93 275.62,215.21 	"/>
	<polygon class="st0" points="284.62,231.12 288.5,228.83 296.88,228.83 302.08,229.61 302.68,231.21 299.07,233.97 291.35,235.19 
		285.77,233.42 	"/>
	<polygon class="st0" points="89.43,121.79 92.55,129.16 98.28,133.16 105.06,134.05 107.73,132.63 105.86,129.01 100.8,124.79 	"/>
	<polygon class="st0" points="114.24,121.05 115.93,125.55 122.85,136.98 127.87,139.25 129.56,138.71 129.56,134.44 128.14,129.31 
		125.1,124.65 119.49,120.45 116.46,119.64 	"/>
	<polygon class="st0" points="62.11,151.33 64.85,146.65 70.29,143.43 75.65,141.83 80.13,141.83 86.7,144.82 86.26,147.89 
		83.14,150.43 76.48,152.43 	"/>
	<polygon class="st0" points="93.67,154.78 95.99,152.78 98.89,152.16 100.8,152.06 103.35,152.06 104.29,152.96 104.97,154.07 
		103.35,155.1 100.8,156.25 93.62,155.7 	"/>
	<polygon class="st0" points="357.41,325.34 237.09,325.34 228.83,329.61 361.68,329.61 361.68,215.21 357.41,215.21 	"/>
	<g>
		<polygon class="st0" points="104.04,227.3 99.77,226.69 99.77,329.61 180.67,329.61 184.37,325.34 104.04,325.34 		"/>
		<polygon class="st0" points="99.77,67.7 99.77,105.57 104.04,107.57 104.04,71.97 357.41,71.97 357.41,190.62 361.68,190.62 
			361.68,67.7 		"/>
	</g>
	<g>
		<path class="st1" d="M104.9,366.99c0,3.04-2.35,4.73-5.02,4.94C99.13,372,98.63,372,97.93,372H92.6v-18.42h4.83
			c0.77,0,1.26,0,2.16,0.05c2.83,0.24,4.62,1.81,4.62,4.4c0,2.27-1.31,3.76-3.42,4.22C103.51,362.77,104.9,364.45,104.9,366.99
			 M93.61,361.94h4.22c0.43,0,0.88-0.03,1.47-0.05c1.92-0.16,3.82-1.12,3.82-3.71c0-2.64-1.95-3.58-3.95-3.68
			c-0.59-0.03-1.04-0.03-1.68-0.03h-3.87V361.94z M103.81,367.07c0-2.16-1.1-4.03-4.22-4.19c-0.61-0.05-0.99-0.05-1.41-0.05h-4.56
			v8.3h4.73c0.43,0,0.88-0.03,1.23-0.05C101.7,370.91,103.81,369.74,103.81,367.07"/>
		<path class="st1" d="M118.55,364.98l-2.59,7.02h-1.09l7.02-18.42h1.34l6.94,18.42h-1.09l-2.64-7.02H118.55z M126.11,364.1
			l-3.58-9.69l-3.63,9.69H126.11z"/>
		<polygon class="st1" points="145.21,354.44 145.21,372.01 144.19,372.01 144.19,354.44 137.28,354.44 137.28,353.59 
			152.15,353.59 152.15,354.44 		"/>
		<polygon class="st1" points="176.16,372 175.14,372 175.14,363.41 163.72,363.41 163.72,372 162.7,372 162.7,353.58 
			163.72,353.58 163.72,362.53 175.14,362.53 175.14,353.58 176.16,353.58 		"/>
		<path class="st1" d="M216.13,359.17l0.03,0.27h-1.01l-0.05-0.27c-0.59-2.91-2.64-5.07-6.14-5.07c-3.82,0-7.24,3.18-7.24,8.7
			c0,5.74,3.15,8.7,7.02,8.7c3.74,0,5.74-2.29,6.35-5.31l0.05-0.27h1.01l-0.03,0.27c-0.61,3.42-2.94,6.19-7.45,6.19
			c-4.78,0-8.09-3.68-8.09-9.53c0-5.71,3.6-9.64,8.44-9.64C213.22,353.21,215.52,355.8,216.13,359.17"/>
		<path class="st1" d="M243.69,362.79c0,5.53-3.26,9.58-8.41,9.58c-5.18,0-8.44-4.06-8.44-9.58c0-5.55,3.26-9.58,8.44-9.58
			C240.44,353.21,243.69,357.24,243.69,362.79 M242.57,362.79c0-5.55-3.25-8.7-7.29-8.7c-4.06,0-7.32,3.15-7.32,8.7
			c0,5.53,3.26,8.7,7.32,8.7C239.32,371.5,242.57,368.32,242.57,362.79"/>
		<path class="st1" d="M272.46,372h-0.99v-10.38c0-2.32-0.03-4.94,0.03-7.18c-0.83,2.24-1.84,4.89-2.77,7.18L264.53,372h-1.28
			l-4.19-10.41c-0.91-2.27-1.95-4.91-2.77-7.13c0.05,2.24,0.05,4.83,0.05,7.15V372h-1.02v-18.42h1.66l6.94,17.54l6.99-17.54h1.55
			V372z"/>
		<path class="st1" d="M296.63,358.66c0,3.2-2,4.83-4.54,5.18c-0.86,0.11-1.66,0.11-2.59,0.11h-3.47V372h-1.02v-18.42h4.48
			c0.94,0,1.74,0.03,2.59,0.14C294.68,354.04,296.63,355.53,296.63,358.66 M295.53,358.66c0-2.59-1.55-3.76-3.55-4.03
			c-0.77-0.11-1.49-0.13-2.43-0.13h-3.52v8.57h3.52c0.93,0,1.66-0.03,2.43-0.13C293.99,362.64,295.53,361.38,295.53,358.66"/>
		<path class="st1" d="M308.57,364.98l-2.59,7.02h-1.09l7.02-18.42h1.34l6.94,18.42h-1.09l-2.64-7.02H308.57z M316.13,364.1
			l-3.58-9.69l-3.63,9.69H316.13z"/>
		<path class="st1" d="M342.65,372l-10.49-17.46c0.05,2.4,0.05,5.23,0.05,7.63V372h-1.02v-18.42h1.55l10.52,17.46
			c-0.05-2.4-0.05-5.26-0.05-7.66v-9.8h0.99l0.03,18.42H342.65z"/>
		<polygon class="st1" points="362.3,372 361.29,372 361.29,364.53 354.75,353.58 355.92,353.58 361.85,363.52 367.67,353.58 
			368.85,353.58 362.3,364.53 		"/>
		<polygon class="st1" points="213.45,92.43 213.65,107.01 212.81,107.03 212.61,92.44 206.87,92.52 206.86,91.82 219.2,91.65 
			219.21,92.35 		"/>
		<polygon class="st1" points="239.35,106.66 238.51,106.67 238.41,99.53 228.92,99.66 229.02,106.8 228.18,106.81 227.97,91.52 
			228.81,91.51 228.91,98.93 238.4,98.8 238.29,91.38 239.13,91.37 		"/>
		<polygon class="st1" points="259.46,106.38 249.77,106.51 249.56,91.22 259.02,91.09 259.03,91.8 250.41,91.92 250.5,98.5 
			258.61,98.39 258.62,99.1 250.51,99.21 250.6,105.77 259.45,105.65 		"/>
		<path class="st1" d="M332.41,112.28c-0.48-0.04-0.97-0.02-1.45,0.05l-20.91,3.12l3.04,3.79l-0.19,49.33l-3.41,4.74l18.59-3.04
			l-3.79-3.61l-0.19-23.15c0,0,22.58-2.28,24.1-14.99C349.67,116.1,343.35,113.11,332.41,112.28z M337.37,127.4
			c-1.52,11.19-13.09,12.52-13.09,12.52l-0.19-22.96C328.83,116.21,338.89,116.21,337.37,127.4z"/>
		<path class="st1" d="M207.9,157.22c-2.54-5.46-6.15-10.16-10.81-14.2c-4.66-4.04-10.05-7.72-16.16-11.13
			c-6.1-3.41-12.29-6.96-18.55-10.68c-1.34-0.64-2.49-1.29-3.45-1.94c-0.95-0.65-1.79-1.21-2.51-1.67
			c-0.72-0.46-1.36-1.02-1.92-1.67c-1.72-1.7-3.07-3.83-4.04-6.36c-0.97-2.53-1.41-5.15-1.16-7.64c0.19-1.87,0.88-3.81,1.89-5.69
			c1.02-1.88,2.34-3.56,3.95-5.05c1.62-1.49,3.49-2.68,5.61-3.6c2.13-0.92,4.48-1.37,7.07-1.37c4.66,0,8.25,1.36,10.74,4.16
			c2.49,2.79,3.46,6.4,2.88,10.86c-0.57,4.46-2.05,7.88-4.42,10.23c-2.38,2.35-5.12,3.56-8.23,3.6c2.25,1.63,4.55,2.41,6.89,2.35
			c0.52-0.01,1.05-0.09,1.59-0.24c2.91-0.47,5.46-1.66,7.64-3.53c0.13-0.01,0.2-0.07,0.22-0.2c0.09-0.08,0.13-0.12,0.22-0.2
			c0.26-0.24,0.4-0.36,0.66-0.6c0.09-0.08,0.13-0.12,0.22-0.2c1.52-1.72,2.63-3.54,3.4-5.31c0.67-1.54,1.19-3.23,1.42-5.01
			c0.21-1.66,0.24-3.37,0.07-5.13c-0.59-3.51-2.65-6.62-5.99-9.4c-3.26-2.72-7.53-4.43-12.77-5.02c-1.15-0.12-2.37-0.17-3.67-0.17
			c-3.89,0-7.77,0.78-11.55,2.14c-5.06,1.82-9.5,4.66-13.07,8.76c-3.57,4.09-5.69,8.78-6.38,14.14c-0.47,3.7,0.04,7.24,1.56,10.62
			c1.51,3.37,3.58,6.45,6.21,9.19c2.63,2.74,5.56,5.18,8.78,7.28c3.23,2.11,6.31,3.84,9.24,5.23c0.44,0.23,0.65,0.34,1.09,0.56
			c2.08,1,4,1.92,5.77,2.77c1.77,0.85,3.5,1.75,5.19,2.71c2.89,1.67,5.62,3.67,8.17,6c2.55,2.33,4.76,5.03,6.64,8.11
			c1.87,3.09,3.21,6.54,4.01,10.39c0.8,3.84,0.99,8.16,0.32,12.65c-0.47,3.14-1.73,6.92-3.57,11.17c-1.84,4.25-4.4,8.33-7.69,12.23
			c-3.28,3.89-7.35,7.31-12.19,10.19c-4.84,2.88-10.45,4.47-16.82,4.66c-0.54,0-0.82,0.01-1.36,0.01
			c-7.26,0.04-13.21-1.33-17.86-3.95c-4.65-2.62-8.25-5.91-10.8-9.76c-2.55-3.85-4.26-7.97-5.13-12.31
			c-0.87-4.34-1.07-8.36-0.59-12.05c0.04-0.31,0.06-0.46,0.1-0.76c0.23-1.78,0.55-3.5,0.95-5.14c0.4-1.64,0.96-3.2,1.67-4.68
			c0.19-0.5,0.38-0.96,0.57-1.4c0.19-0.43,0.37-0.9,0.57-1.4c2.4-4.55,5.54-8.11,9.44-10.73c3.9-2.62,8.01-4.46,12.25-5.41
			c2.51-0.56,5.09-0.79,7.67-0.74c1.55,0.03,3.02,0.18,4.41,0.44c3.93,0.67,7.05,2.1,9.35,4.35c2.3,2.25,3.94,4.88,4.92,7.89
			c0.97,3.02,1.27,6.17,1.26,9.1c0,0.73-0.01,1.59-0.12,2.48c-0.28,2.17-0.8,4.22-1.56,6.15c-1.13,2.83-2.59,5.04-4.35,6.61
			c3.25-0.08,6.48-1.29,9.69-3.59c3.21-2.3,5.82-5.24,7.83-8.78c1.21-2.35,1.99-4.93,2.35-7.73c0.16-1.27,0.27-2.61,0.32-4
			c-0.23-4.28-2.16-8.45-5.77-12.58c-1.24-1.46-2.57-2.67-4-3.63c-1.43-0.96-2.88-1.8-4.34-2.52c-6.35-3-12.69-4.57-19.02-4.7
			c-3.36-0.07-6.71,0.27-10.04,1.02c-9.62,2.26-17.87,7.5-24.79,16.05c-0.02,0.13-0.1,0.25-0.24,0.36c-2.32,2.98-4.27,6.27-5.83,9.9
			c-1.57,3.63-2.61,7.47-3.13,11.55c-0.62,4.85-0.39,9.59,0.67,14.21c-0.35-0.19-0.54-0.29-0.54-0.29l-6.88-6.29
			c-0.47-0.43-0.7-1.06-0.62-1.69l0.46-3.6c-10.36,1.06-0.43,16.43-4.61,18.58c-4.17,2.16-0.18,15.64-0.18,15.64
			c5.23-11.32,13.64-9.79,20.37-5.87c0.55,0.68,1.11,1.35,1.71,2c8.05,8.94,18.64,13.86,31.44,13.96
			c6.41,0.05,12.69-1.22,18.63-3.57c5.94-2.35,11.39-5.45,16.34-9.23c4.95-3.79,9.29-8.09,13.02-12.86
			c3.72-4.77,6.61-9.61,8.66-14.49c0.72-1.59,1.28-3.16,1.67-4.71c0.39-1.55,0.82-3.11,1.28-4.67c0.01-0.03,0.01-0.06,0.02-0.09
			C211.37,169.97,210.57,162.97,207.9,157.22z"/>
	</g>
	<g>
		<g>
			<path class="st1" d="M292.69,215.79c0.02,0,0.03,0,0.04,0c0-0.03,0-0.05-0.01-0.08L292.69,215.79z"/>
			<path class="st1" d="M303.97,208.8c0.01,0.02,0.02,0.03,0.03,0.04c0.01,0,0.02-0.01,0.03-0.01
				C304.04,208.83,303.97,208.8,303.97,208.8z"/>
		</g>
		<g>
			<path class="st1" d="M326.47,194.92c0.01,0,0.01,0,0.02,0c0-0.02,0.01-0.03,0.01-0.05L326.47,194.92z"/>
			<path class="st1" d="M325.56,195.13c0.01,0.01,0.02,0.02,0.03,0.03c0.01,0,0.02,0,0.03,0L325.56,195.13z"/>
		</g>
		<path class="st1" d="M311.14,197.36c-0.95,0.24-1.9,0.49-2.85,0.73c-1.22,3.2-2.45,6.4-3.67,9.61l-0.05-0.03
			c3.09-3.54,7.64-5.69,9.73-10.18C313.26,197.2,312.11,199.62,311.14,197.36"/>
		<path class="st1" d="M298.33,231.26c-0.6,1.45-1.48,2.98-2.79,3.91c-0.05,0.04-0.13-0.03-0.09-0.09c1.08-1.21,2.04-2.4,2.68-3.91
			C298.18,231.06,298.37,231.15,298.33,231.26"/>
		<path class="st1" d="M296.44,231.99c-0.65,1.07-1.33,2.4-2.48,3.03c-0.06,0.03-0.15-0.04-0.09-0.09c0.94-0.97,1.7-1.92,2.4-3.07
			C296.34,231.75,296.51,231.88,296.44,231.99"/>
		<path class="st1" d="M294.89,231.62c-0.51,1.38-1.61,2.8-2.93,3.52c-0.04,0.03-0.11-0.03-0.07-0.07c1.1-1.09,2.26-2.05,2.82-3.53
			C294.75,231.43,294.93,231.51,294.89,231.62"/>
		<path class="st1" d="M292.86,231.96c-0.71,1.05-1.3,2.44-2.56,2.97c-0.05,0.02-0.13-0.02-0.14-0.08c-0.01-0.1-0.01-0.19-0.01-0.29
			c0-0.05,0.07-0.08,0.1-0.02c0.17,0.41,1.2-0.84,1.38-1.07c0.39-0.53,0.71-1.09,1.07-1.63
			C292.77,231.74,292.93,231.86,292.86,231.96"/>
		<path class="st1" d="M291.43,231.38c-0.49,0.73-1.69,3.48-3,2.88c-0.06-0.03-0.05-0.11,0.01-0.12c1.46-0.21,2.09-1.83,2.81-2.89
			C291.34,231.14,291.51,231.27,291.43,231.38"/>
		<path class="st1" d="M289.75,230.63c-0.45,1.03-1.21,2.27-2.35,2.68c-0.06,0.02-0.16-0.02-0.16-0.09c0-0.1,0-0.2,0-0.3
			c0-0.06,0.09-0.06,0.11-0.01c0.02,0.04,0.04,0.09,0.06,0.14c0.99-0.57,1.68-1.48,2.14-2.5
			C289.6,230.43,289.8,230.51,289.75,230.63"/>
		<path class="st1" d="M287.47,229.19c-0.21,0.55-0.66,1.07-1.06,1.5c-0.19,0.2-0.66,0.79-1.01,0.55c-0.05-0.03-0.02-0.09,0.03-0.1
			c0.43-0.09,0.82-0.6,1.08-0.9c0.29-0.34,0.61-0.71,0.77-1.12C287.33,228.99,287.51,229.07,287.47,229.19"/>
		<path class="st1" d="M280.66,207.4c1.02,0.86,1.7,2.05,2.61,3.02c0.03,0.03-0.03,0.08-0.06,0.06c-1.08-0.79-1.64-2.1-2.62-3
			C280.55,207.43,280.61,207.35,280.66,207.4"/>
		<path class="st1" d="M280.6,209.04c1.03,0.8,2.05,1.84,2.5,3.09c0.02,0.05-0.06,0.1-0.09,0.05c-0.73-1.13-1.46-2.16-2.52-3.01
			C280.41,209.11,280.52,208.97,280.6,209.04"/>
		<path class="st1" d="M280.76,210.7c0.71,0.75,1.62,1.6,1.87,2.66c0.01,0.05-0.06,0.11-0.09,0.05c-0.56-0.96-1.16-1.78-1.92-2.6
			C280.54,210.73,280.68,210.63,280.76,210.7"/>
		<path class="st1" d="M280.12,211.86c0.99,0.71,1.88,1.91,2.16,3.12c0.01,0.04-0.05,0.09-0.07,0.04c-0.62-1.12-1.14-2.26-2.19-3.03
			C279.94,211.93,280.04,211.8,280.12,211.86"/>
		<path class="st1" d="M279.94,213.55c0.68,0.8,1.66,1.58,1.8,2.7c0.01,0.05-0.04,0.1-0.09,0.09c-0.08-0.01-0.16-0.03-0.23-0.05
			c-0.04-0.01-0.05-0.08,0-0.08c0.36-0.04-0.4-1.15-0.55-1.34c-0.33-0.43-0.72-0.81-1.06-1.22
			C279.74,213.58,279.88,213.47,279.94,213.55"/>
		<path class="st1" d="M279.16,214.56c0.47,0.55,2.4,2.12,1.63,3.03c-0.04,0.04-0.1,0.01-0.09-0.04c0.16-1.21-1-2.07-1.68-2.89
			C278.95,214.59,279.09,214.48,279.16,214.56"/>
		<path class="st1" d="M278.19,215.74c0.73,0.59,1.54,1.47,1.62,2.47c0,0.05-0.05,0.12-0.11,0.11c-0.08-0.02-0.16-0.04-0.24-0.07
			c-0.05-0.01-0.03-0.08,0.02-0.09c0.04-0.01,0.08-0.01,0.12-0.02c-0.23-0.92-0.81-1.67-1.52-2.26
			C277.99,215.81,278.11,215.67,278.19,215.74"/>
		<path class="st1" d="M277.43,216.52c0.37,0.34,0.69,0.77,0.96,1.2c0.14,0.23,0.49,0.71,0.26,0.99c-0.03,0.03-0.08,0.02-0.08-0.02
			c-0.04-0.75-0.73-1.56-1.24-2.04C277.25,216.59,277.35,216.46,277.43,216.52"/>
		<path class="st1" d="M276.53,217.24c0.39,0.29,0.71,0.76,0.96,1.17c0.12,0.2,0.49,0.7,0.21,0.93c-0.04,0.03-0.08,0-0.07-0.04
			c0.03-0.37-0.3-0.79-0.48-1.06c-0.2-0.3-0.43-0.64-0.72-0.87C276.35,217.31,276.45,217.18,276.53,217.24"/>
		<path class="st1" d="M326.54,220c-0.67,1.46-1.83,2.64-2.66,4.01c-0.03,0.05-0.11,0-0.09-0.05c0.57-1.51,1.91-2.58,2.64-4.01
			C326.46,219.89,326.57,219.93,326.54,220"/>
		<path class="st1" d="M324.61,220.46c-0.59,1.45-1.48,2.98-2.79,3.91c-0.05,0.04-0.13-0.03-0.09-0.08c1.08-1.21,2.04-2.4,2.68-3.91
			C324.46,220.26,324.66,220.34,324.61,220.46"/>
		<path class="st1" d="M322.72,221.18c-0.65,1.07-1.33,2.4-2.48,3.03c-0.06,0.03-0.15-0.04-0.09-0.09c0.94-0.97,1.7-1.92,2.4-3.07
			C322.62,220.94,322.79,221.07,322.72,221.18"/>
		<path class="st1" d="M321.17,220.82c-0.51,1.38-1.61,2.8-2.93,3.52c-0.04,0.02-0.11-0.03-0.07-0.07c1.1-1.09,2.26-2.05,2.82-3.53
			C321.03,220.62,321.21,220.7,321.17,220.82"/>
		<path class="st1" d="M319.14,221.15c-0.71,1.05-1.3,2.44-2.56,2.97c-0.05,0.02-0.13-0.02-0.14-0.08c-0.01-0.1-0.01-0.19-0.01-0.29
			c0-0.05,0.07-0.08,0.1-0.02c0.17,0.41,1.2-0.84,1.38-1.07c0.39-0.52,0.71-1.09,1.07-1.63
			C319.05,220.93,319.21,221.05,319.14,221.15"/>
		<path class="st1" d="M317.72,220.57c-0.49,0.73-1.69,3.48-3,2.88c-0.06-0.03-0.05-0.11,0.01-0.12c1.46-0.21,2.09-1.83,2.81-2.89
			C317.62,220.33,317.79,220.46,317.72,220.57"/>
		<path class="st1" d="M316.03,219.83c-0.45,1.03-1.21,2.27-2.35,2.68c-0.06,0.02-0.16-0.02-0.16-0.09c0-0.1,0-0.2,0-0.3
			c0-0.06,0.09-0.06,0.11-0.01c0.02,0.04,0.04,0.09,0.06,0.14c0.99-0.57,1.68-1.48,2.14-2.5
			C315.88,219.62,316.08,219.71,316.03,219.83"/>
		<path class="st1" d="M314.87,219.19c-0.28,0.55-0.67,1.06-1.09,1.51c-0.22,0.24-0.66,0.79-1.07,0.62c-0.05-0.02-0.05-0.09,0-0.1
			c0.86-0.29,1.58-1.35,1.97-2.1C314.75,219.01,314.93,219.08,314.87,219.19"/>
		<path class="st1" d="M349.03,204.49c0.67-1.46,1.83-2.64,2.66-4.01c0.03-0.05,0.11,0,0.09,0.05c-0.57,1.51-1.91,2.58-2.64,4.01
			C349.11,204.6,349,204.56,349.03,204.49"/>
		<path class="st1" d="M350.96,204.03c0.6-1.45,1.48-2.98,2.79-3.91c0.05-0.04,0.13,0.04,0.09,0.09c-1.08,1.21-2.04,2.4-2.68,3.91
			C351.11,204.23,350.91,204.14,350.96,204.03"/>
		<path class="st1" d="M352.84,203.31c0.65-1.07,1.33-2.39,2.48-3.03c0.06-0.03,0.15,0.03,0.09,0.09c-0.94,0.97-1.7,1.93-2.4,3.07
			C352.95,203.55,352.78,203.42,352.84,203.31"/>
		<path class="st1" d="M354.4,203.67c0.51-1.38,1.61-2.8,2.93-3.52c0.04-0.02,0.12,0.03,0.07,0.07c-1.1,1.09-2.26,2.05-2.82,3.53
			C354.54,203.86,354.35,203.78,354.4,203.67"/>
		<path class="st1" d="M356.42,203.33c0.71-1.05,1.3-2.44,2.56-2.97c0.05-0.02,0.13,0.02,0.14,0.08c0.01,0.09,0.01,0.19,0.01,0.29
			c0,0.05-0.07,0.08-0.1,0.02c-0.17-0.41-1.2,0.84-1.38,1.07c-0.39,0.53-0.71,1.1-1.07,1.63
			C356.51,203.55,356.35,203.43,356.42,203.33"/>
		<path class="st1" d="M357.85,203.92c0.49-0.73,1.69-3.48,3-2.88c0.06,0.03,0.05,0.11-0.01,0.12c-1.46,0.21-2.09,1.83-2.81,2.89
			C357.95,204.15,357.78,204.02,357.85,203.92"/>
		<path class="st1" d="M359.54,204.66c0.45-1.03,1.21-2.27,2.35-2.68c0.06-0.02,0.16,0.02,0.16,0.09c0,0.1,0,0.2,0,0.3
			c0,0.06-0.09,0.06-0.11,0.01c-0.02-0.05-0.04-0.09-0.06-0.14c-0.99,0.57-1.68,1.48-2.14,2.5
			C359.68,204.86,359.48,204.78,359.54,204.66"/>
		<path class="st1" d="M360.69,205.29c0.28-0.55,0.67-1.06,1.09-1.51c0.22-0.24,0.66-0.79,1.07-0.62c0.05,0.02,0.05,0.09,0,0.1
			c-0.86,0.29-1.58,1.35-1.97,2.1C360.82,205.48,360.64,205.4,360.69,205.29"/>
		<path class="st1" d="M361.82,206.1c0.21-0.55,0.66-1.07,1.05-1.5c0.19-0.2,0.66-0.79,1.01-0.55c0.05,0.03,0.02,0.09-0.03,0.1
			c-0.43,0.09-0.82,0.6-1.08,0.9c-0.29,0.33-0.61,0.71-0.77,1.12C361.96,206.3,361.77,206.22,361.82,206.1"/>
		<path class="st1" d="M318.61,184.59c-1.57-0.34-3.21-0.11-4.81-0.27c-0.06-0.01-0.06,0.09-0.01,0.1c1.55,0.45,3.21,0.01,4.79,0.29
			C318.66,184.72,318.69,184.61,318.61,184.59"/>
		<path class="st1" d="M317.2,185.88c-1.52-0.39-3.27-0.6-4.8-0.11c-0.06,0.02-0.05,0.13,0.02,0.12c1.62-0.14,3.15-0.2,4.74,0.19
			C317.28,186.12,317.33,185.91,317.2,185.88"/>
		<path class="st1" d="M315.38,186.94c-1.24-0.12-2.72-0.37-3.91,0.17c-0.06,0.03-0.06,0.14,0.02,0.13c1.34-0.17,2.56-0.21,3.9-0.09
			C315.52,187.17,315.51,186.95,315.38,186.94"/>
		<path class="st1" d="M314.88,188.38c-1.41-0.42-3.21-0.39-4.58,0.24c-0.05,0.02-0.05,0.11,0.01,0.1c1.53-0.23,3-0.58,4.51-0.15
			C314.95,188.61,315,188.42,314.88,188.38"/>
		<path class="st1" d="M313.55,189.8c-1.27-0.06-2.73-0.42-3.91,0.27c-0.05,0.03-0.06,0.12-0.02,0.16c0.07,0.06,0.14,0.12,0.22,0.18
			c0.04,0.03,0.11-0.01,0.08-0.07c-0.23-0.38,1.39-0.46,1.68-0.46c0.65,0,1.3,0.09,1.95,0.12
			C313.67,190.01,313.67,189.81,313.55,189.8"/>
		<path class="st1" d="M312.87,191.32c-0.87-0.05-3.8-0.73-4.1,0.68c-0.01,0.06,0.06,0.1,0.1,0.06c1.04-1.04,2.72-0.58,4-0.52
			C313.01,191.54,313,191.32,312.87,191.32"/>
		<path class="st1" d="M312.46,193.11c-1.1-0.26-2.54-0.39-3.55,0.28c-0.05,0.03-0.08,0.14-0.02,0.18c0.08,0.06,0.16,0.12,0.24,0.18
			c0.05,0.03,0.1-0.03,0.07-0.08c-0.02-0.04-0.05-0.09-0.07-0.13c1.05-0.45,2.19-0.46,3.28-0.22
			C312.54,193.35,312.59,193.14,312.46,193.11"/>
		<path class="st1" d="M312.28,194.42c-0.6-0.1-1.25-0.09-1.86-0.03c-0.32,0.03-1.03,0.06-1.14,0.49c-0.01,0.05,0.04,0.09,0.08,0.06
			c0.74-0.51,2.03-0.45,2.87-0.32C312.35,194.63,312.4,194.44,312.28,194.42"/>
		<path class="st1" d="M312.25,195.8c-0.57-0.16-1.25-0.11-1.83-0.05c-0.28,0.03-1.03,0.05-1.05,0.48c0,0.06,0.06,0.07,0.1,0.04
			c0.33-0.3,0.98-0.3,1.37-0.33c0.44-0.03,0.93-0.06,1.36,0.05C312.32,196.03,312.37,195.83,312.25,195.8"/>
		<path class="st1" d="M330.65,190.95c1.22,0.99,2.73,1.9,4.32,2.09c0.07,0.01,0.1-0.1,0.04-0.12c-1.53-0.54-2.95-1.12-4.23-2.14
			C330.68,190.71,330.55,190.87,330.65,190.95"/>
		<path class="st1" d="M332.65,190.68c1.08,0.63,2.32,1.46,3.63,1.47c0.06,0,0.11-0.1,0.04-0.12c-1.29-0.4-2.41-0.87-3.58-1.54
			C332.62,190.42,332.53,190.62,332.65,190.68"/>
		<path class="st1" d="M333.83,189.62c1.11,0.96,2.76,1.68,4.26,1.68c0.05,0,0.09-0.08,0.03-0.1c-1.48-0.42-2.97-0.72-4.17-1.74
			C333.86,189.38,333.74,189.54,333.83,189.62"/>
		<path class="st1" d="M335.77,188.94c1.13,0.58,2.31,1.52,3.67,1.37c0.06-0.01,0.11-0.08,0.08-0.14c-0.04-0.09-0.08-0.17-0.12-0.26
			c-0.02-0.05-0.1-0.03-0.1,0.03c0.05,0.44-1.46-0.16-1.72-0.28c-0.59-0.27-1.15-0.62-1.73-0.92
			C335.74,188.7,335.66,188.88,335.77,188.94"/>
		<path class="st1" d="M336.74,187.74c0.78,0.41,3.15,2.24,4.01,1.08c0.04-0.05-0.01-0.12-0.07-0.1c-1.38,0.52-2.71-0.6-3.85-1.18
			C336.72,187.49,336.63,187.68,336.74,187.74"/>
		<path class="st1" d="M337.87,186.28c0.89,0.69,2.15,1.41,3.35,1.22c0.06-0.01,0.13-0.09,0.09-0.16c-0.05-0.09-0.09-0.18-0.14-0.26
			c-0.03-0.05-0.1-0.01-0.1,0.04c0,0.05,0.01,0.1,0.01,0.15c-1.14-0.02-2.19-0.49-3.08-1.16
			C337.9,186.03,337.76,186.2,337.87,186.28"/>
		<path class="st1" d="M338.57,185.17c0.51,0.34,1.1,0.6,1.68,0.8c0.31,0.1,0.96,0.38,1.24,0.03c0.03-0.04,0-0.1-0.05-0.09
			c-0.89,0.16-2.03-0.43-2.74-0.9C338.6,184.94,338.47,185.1,338.57,185.17"/>
		<path class="st1" d="M339.17,183.92c0.45,0.38,1.09,0.62,1.64,0.81c0.26,0.09,0.96,0.38,1.15,0c0.03-0.05-0.03-0.09-0.07-0.08
			c-0.42,0.13-1.01-0.13-1.38-0.27c-0.41-0.16-0.87-0.33-1.22-0.61C339.2,183.68,339.08,183.84,339.17,183.92"/>
		<polygon class="st1" points="292.27,210.82 292.2,208.26 293.15,210.09 		"/>
		<g>
			<path class="st1" d="M272.16,160.84c-1.74-0.01-3.43-0.12-4.95-0.35l-4.78,19.28l-3.04,4.93l11.19-2.66l-2.66-2.09L272.16,160.84
				z"/>
			<path class="st1" d="M302.08,174.65l-2.09-2.09l-13.85-46.49l1.71-4.93l-19.16,4.36l-1.52,3.6c8.16,0.95,6.07,7.02,6.07,7.02
				l-5.19,20.93c1.22,0.23,2.57,0.36,3.96,0.39l5.4-16.95l5.1,14.86l-7.54,2.04c3.01-0.18,5.9-0.71,7.7-1.39
				c0.14,0.83,0.2,1.83,0.33,2.74l4.08,17.81l-1.52,1.9L302.08,174.65z"/>
		</g>
		<path class="st1" d="M300.75,137.59c-0.18-0.2-0.36-0.34-0.54-0.46c-0.24,0.16-0.45,0.33-0.71,0.47c-0.1,0.06-0.23,0.04-0.29-0.03
			c-0.18-0.2-0.32-0.41-0.45-0.63c-0.65,0.16-1.29,0.56-1.94,0.74c-0.03,0.01-0.2-0.47-0.3-0.72l-0.14-0.08
			c-0.43,0.72-1.06,1.38-1.25,2.16c-2.84,11.34-15.56,19.51-28.42,17.66c-1.16-0.17-2.4-0.61-3.74-0.08
			c-0.4,0.16-0.6,0.65-0.39,1.03c0.7,1.27,2.13,1.02,3.37,1.11c6.84,0.48,13.33-1.2,19.77-3.18c2.87-0.88,5.42-1.41,8.29-2.28
			c-0.24-1.16-0.02-2.59,1.48-3c1.47-0.54,2.85-1.22,4.21-1.96c0.07-1.03,0.26-2.05,0.59-3.02c-2.17,1.19-4.46,2.22-6.95,2.99
			c2.77-3.37,5.54-6.73,8.31-10.1C301.35,137.99,301.05,137.79,300.75,137.59z"/>
		<polygon class="st1" points="298.76,138.44 298.5,138.54 298.71,138.72 		"/>
		<path class="st1" d="M302.36,122.51c-0.08-0.06-0.19-0.08-0.31-0.04c-0.11,0.04-0.2,0.12-0.25,0.22c-0.54,1.26-1.25,2.6-2,4.01
			c-2.53,4.77-5.39,10.17-2.02,14.05c0.09,0.11,0.27,0.13,0.42,0.05c0.73-0.39,1.41-0.85,2.04-1.35c2.33-1.88,3.91-4.48,4.52-7.53
			C305.55,128.08,304.56,124.21,302.36,122.51z M304.16,131.31c-0.44,2.16-1.55,4-3.2,5.33c-0.45,0.36-0.93,0.68-1.45,0.96
			c-0.1,0.06-0.23,0.04-0.29-0.03c-2.39-2.75-0.36-6.58,1.43-9.95c0.53-1,1.03-1.94,1.41-2.84c0.03-0.07,0.1-0.13,0.18-0.15
			c0.08-0.03,0.16-0.01,0.22,0.03C304,125.86,304.71,128.6,304.16,131.31z"/>
		<path class="st1" d="M298.99,135.5c1.14,0,2.24-0.4,3.37-0.53c0.04-0.01,0.03-0.07-0.01-0.07c-1.14-0.08-2.23,0.46-3.36,0.51
			C298.94,135.41,298.93,135.5,298.99,135.5"/>
		<path class="st1" d="M299.85,134.39c1.11,0.05,2.36-0.07,3.34-0.64c0.04-0.02,0.02-0.1-0.03-0.08c-1.1,0.34-2.15,0.61-3.31,0.57
			C299.77,134.24,299.76,134.39,299.85,134.39"/>
		<path class="st1" d="M300.88,133.39c0.88-0.1,1.94-0.15,2.69-0.7c0.04-0.03,0.02-0.1-0.03-0.09c-0.9,0.32-1.74,0.52-2.69,0.64
			C300.75,133.25,300.78,133.4,300.88,133.39"/>
		<path class="st1" d="M301.1,132.28c1.04,0.08,2.28-0.21,3.14-0.85c0.03-0.02,0.02-0.08-0.02-0.07c-1.02,0.38-1.99,0.85-3.11,0.77
			C301.02,132.14,301.01,132.28,301.1,132.28"/>
		<path class="st1" d="M301.92,131.08c0.89-0.14,1.96-0.11,2.67-0.77c0.03-0.03,0.03-0.09-0.01-0.11c-0.06-0.03-0.12-0.07-0.18-0.09
			c-0.03-0.02-0.07,0.03-0.04,0.06c0.21,0.23-0.9,0.53-1.1,0.57c-0.45,0.09-0.91,0.13-1.37,0.21
			C301.8,130.95,301.83,131.09,301.92,131.08"/>
		<path class="st1" d="M301.96,129.98c0.61-0.1,2.74-0.06,2.74-1.08c0-0.05-0.05-0.06-0.08-0.03c-0.57,0.88-1.8,0.8-2.69,0.96
			C301.84,129.85,301.87,130,301.96,129.98"/>
		<path class="st1" d="M301.98,128.68c0.8,0.01,1.82-0.11,2.42-0.72c0.03-0.03,0.03-0.11-0.01-0.13c-0.07-0.03-0.13-0.06-0.19-0.09
			c-0.04-0.02-0.06,0.04-0.04,0.07c0.02,0.03,0.05,0.05,0.07,0.08c-0.66,0.47-1.45,0.64-2.24,0.64
			C301.9,128.52,301.89,128.68,301.98,128.68"/>
		<path class="st1" d="M301.92,127.75c0.43-0.02,0.88-0.12,1.29-0.25c0.22-0.07,0.71-0.19,0.72-0.51c0-0.03-0.04-0.06-0.07-0.03
			c-0.44,0.46-1.34,0.61-1.94,0.65C301.84,127.61,301.83,127.75,301.92,127.75"/>
		<path class="st1" d="M301.73,126.78c0.42,0.03,0.88-0.11,1.28-0.24c0.19-0.06,0.71-0.19,0.65-0.49c-0.01-0.04-0.05-0.04-0.07-0.01
			c-0.19,0.25-0.63,0.35-0.9,0.43c-0.3,0.08-0.64,0.18-0.95,0.17C301.65,126.64,301.64,126.78,301.73,126.78"/>
		<path class="st1" d="M298.99,135.5c1.14,0,2.24-0.4,3.37-0.53c0.04-0.01,0.03-0.07-0.01-0.07c-1.14-0.08-2.23,0.46-3.36,0.51
			C298.94,135.41,298.93,135.5,298.99,135.5"/>
		<path class="st1" d="M299.85,134.39c1.11,0.05,2.36-0.07,3.34-0.64c0.04-0.02,0.02-0.1-0.03-0.08c-1.1,0.34-2.15,0.61-3.31,0.57
			C299.77,134.24,299.76,134.39,299.85,134.39"/>
		<path class="st1" d="M300.88,133.39c0.88-0.1,1.94-0.15,2.69-0.7c0.04-0.03,0.02-0.1-0.03-0.09c-0.9,0.32-1.74,0.52-2.69,0.64
			C300.75,133.25,300.78,133.4,300.88,133.39"/>
		<path class="st1" d="M301.1,132.28c1.04,0.08,2.28-0.21,3.14-0.85c0.03-0.02,0.02-0.08-0.02-0.07c-1.02,0.38-1.99,0.85-3.11,0.77
			C301.02,132.14,301.01,132.28,301.1,132.28"/>
		<path class="st1" d="M301.92,131.08c0.89-0.14,1.96-0.11,2.67-0.77c0.03-0.03,0.03-0.09-0.01-0.11c-0.06-0.03-0.12-0.07-0.18-0.09
			c-0.03-0.02-0.07,0.03-0.04,0.06c0.21,0.23-0.9,0.53-1.1,0.57c-0.45,0.09-0.91,0.13-1.37,0.21
			C301.8,130.95,301.83,131.09,301.92,131.08"/>
		<path class="st1" d="M301.96,129.98c0.61-0.1,2.74-0.06,2.74-1.08c0-0.05-0.05-0.06-0.08-0.03c-0.57,0.88-1.8,0.8-2.69,0.96
			C301.84,129.85,301.87,130,301.96,129.98"/>
		<path class="st1" d="M301.98,128.68c0.8,0.01,1.82-0.11,2.42-0.72c0.03-0.03,0.03-0.11-0.01-0.13c-0.07-0.03-0.13-0.06-0.19-0.09
			c-0.04-0.02-0.06,0.04-0.04,0.07c0.02,0.03,0.05,0.05,0.07,0.08c-0.66,0.47-1.45,0.64-2.24,0.64
			C301.9,128.52,301.89,128.68,301.98,128.68"/>
		<path class="st1" d="M301.92,127.75c0.43-0.02,0.88-0.12,1.29-0.25c0.22-0.07,0.71-0.19,0.72-0.51c0-0.03-0.04-0.06-0.07-0.03
			c-0.44,0.46-1.34,0.61-1.94,0.65C301.84,127.61,301.83,127.75,301.92,127.75"/>
		<path class="st1" d="M301.73,126.78c0.42,0.03,0.88-0.11,1.28-0.24c0.19-0.06,0.71-0.19,0.65-0.49c-0.01-0.04-0.05-0.04-0.07-0.01
			c-0.19,0.25-0.63,0.35-0.9,0.43c-0.3,0.08-0.64,0.18-0.95,0.17C301.65,126.64,301.64,126.78,301.73,126.78"/>
		<path class="st1" d="M311.31,141.03c-0.06-0.04-0.04-0.15-0.11-0.15c-0.6-0.84-1.98-0.22-2.92,0.06c-1.84,0.54-3.58,1.25-5.24,2.1
			c-2.16,0.7-4.1,1.67-5.25,3.3c-0.57,0.43-1.14,0.87-1.69,1.34c-1.17,0.98-2.07,2.6-3.99,2.38c-0.9,0.77-0.46,1.5,0.08,2.22
			c1.57-1.46,3.37-2.5,5.25-3.37c0.5,0.18,1.01,0.34,1.53,0.44c2.42,0.47,4.96,0.05,7.32-1.25c2.66-1.46,4.63-3.87,5.05-6.07
			c0.05-0.12,0.07-0.25,0.05-0.39c0.01-0.12,0.04-0.25,0.05-0.36C311.43,141.17,311.38,141.08,311.31,141.03z M305.45,146.88
			c-1.45,0.8-3.01,1.06-4.49,0.77c-0.4-0.08-0.8-0.2-1.18-0.35c-0.08-0.03-0.12-0.11-0.11-0.18c0.58-2.68,3.69-3.38,6.43-4
			c0.81-0.18,1.58-0.36,2.27-0.57c0.06-0.02,0.12-0.01,0.17,0.02c0.05,0.03,0.08,0.08,0.08,0.14
			C308.57,144.16,307.27,145.88,305.45,146.88z"/>
		<path class="st1" d="M307.38,143.88c-0.04,1.13-0.25,2.38-0.91,3.34c-0.03,0.04-0.1,0.01-0.08-0.04c0.43-1.09,0.78-2.13,0.83-3.31
			C307.23,143.78,307.39,143.78,307.38,143.88"/>
		<path class="st1" d="M306.29,144.84c-0.17,0.88-0.3,1.95-0.92,2.67c-0.03,0.04-0.11,0.01-0.08-0.04c0.39-0.89,0.67-1.73,0.86-2.68
			C306.16,144.7,306.31,144.74,306.29,144.84"/>
		<path class="st1" d="M305.15,144.98c0,1.06-0.39,2.3-1.1,3.11c-0.02,0.03-0.09,0.01-0.07-0.03c0.47-1.01,1.01-1.95,1.02-3.09
			C305.01,144.88,305.15,144.89,305.15,144.98"/>
		<path class="st1" d="M303.87,145.71c-0.22,0.89-0.26,1.97-0.99,2.65c-0.03,0.03-0.09,0.02-0.11-0.02
			c-0.03-0.06-0.06-0.12-0.08-0.19c-0.01-0.03,0.03-0.07,0.06-0.04c0.22,0.23,0.6-0.87,0.66-1.07c0.13-0.45,0.2-0.92,0.32-1.37
			C303.75,145.59,303.89,145.63,303.87,145.71"/>
		<path class="st1" d="M302.75,145.68c-0.15,0.61-0.27,2.77-1.3,2.69c-0.05,0-0.06-0.06-0.02-0.08c0.93-0.51,0.95-1.76,1.18-2.66
			C302.63,145.54,302.77,145.59,302.75,145.68"/>
		<path class="st1" d="M301.43,145.6c-0.05,0.81-0.25,1.83-0.92,2.4c-0.04,0.03-0.11,0.03-0.13-0.02c-0.03-0.07-0.05-0.13-0.08-0.2
			c-0.01-0.04,0.04-0.06,0.07-0.03c0.03,0.03,0.05,0.05,0.08,0.08c0.53-0.63,0.76-1.42,0.82-2.22
			C301.28,145.5,301.43,145.5,301.43,145.6"/>
		<path class="st1" d="M299.53,145.19c0,0.43-0.18,0.88-0.34,1.28c-0.08,0.19-0.24,0.7-0.55,0.62c-0.04-0.01-0.04-0.06-0.01-0.07
			c0.27-0.17,0.41-0.61,0.5-0.88c0.11-0.3,0.23-0.63,0.24-0.95C299.38,145.1,299.53,145.1,299.53,145.19"/>
		<path class="st1" d="M130.76,137.2L130.76,137.2L130.76,137.2c-0.27-4.65-2.08-9.11-5.27-12.84c-4.01-4.69-9.61-7.28-13.62-6.31
			c-0.15,0.04-0.27,0.16-0.32,0.33c-0.05,0.17-0.04,0.36,0.05,0.52c1.08,1.89,2.09,4.05,3.17,6.34c2.64,5.6,5.54,11.73,9.87,14.57
			c1.14,1.38,2.48,2.55,3.88,3.65l4.03,3.95c0.29-0.12,0.58-0.22,0.87-0.31c0.05-0.02,0.11-0.03,0.16-0.05
			c0.27-0.08,0.55-0.16,0.83-0.22c0.22-0.05,0.44-0.09,0.67-0.13C133.44,144.16,131.77,140.94,130.76,137.2z M128.4,136.67
			c-0.02,0.17-0.14,0.3-0.28,0.31c-5.19,0.18-7.97-5.73-10.42-10.94c-0.73-1.54-1.41-3-2.14-4.28c-0.06-0.1-0.07-0.23-0.04-0.35
			c0.04-0.12,0.12-0.2,0.22-0.22c2.7-0.66,6.48,1.09,9.19,4.26c2.15,2.52,3.38,5.53,3.56,8.67
			C128.54,134.96,128.51,135.81,128.4,136.67z"/>
		<path class="st1" d="M106.24,153.79c-0.45-0.37-0.92-0.69-1.42-0.97c-1.85-1.02-4.02-1.38-6.25-1.01
			c-2.81,0.47-5.21,2.08-5.84,3.92c-0.02,0.07-0.01,0.15,0.04,0.21c0.05,0.06,0.13,0.1,0.21,0.1c1,0.03,2.08,0.15,3.23,0.27
			c3.87,0.42,8.26,0.9,10.09-2.25C106.36,153.98,106.33,153.86,106.24,153.79z M104.28,154.1c-1.28,2.19-4.33,1.86-7.03,1.56
			c-0.8-0.09-1.55-0.17-2.25-0.19c-0.06,0-0.11-0.03-0.15-0.07c-0.04-0.04-0.05-0.1-0.03-0.15c0.44-1.28,2.11-2.41,4.07-2.73
			c1.55-0.26,3.06-0.01,4.35,0.7c0.35,0.19,0.68,0.42,0.99,0.68C104.29,153.96,104.31,154.04,104.28,154.1z"/>
		<path class="st1" d="M123.09,143.79C123.09,143.79,123.08,143.79,123.09,143.79c-2.62-2.69-5.23-5.38-7.84-8.08
			c-1.18-1.59-4.6-5.82-8.02-6.84c-3.36-4.23-8.88-5.88-13.91-7.37c-1.98-0.59-3.85-1.15-5.55-1.83c-0.14-0.06-0.28-0.03-0.39,0.07
			c-0.11,0.1-0.16,0.26-0.14,0.42c0.52,4.5,4.11,9.84,8.73,12.97c3.02,2.05,6.11,2.97,9.03,2.76c4.09,1.77,8.32,3.24,12.27,5.29
			c1.24,1.15,3.27,3.15,4.57,5.07c-0.34,0.08-0.87,0.07-1.67-0.08c-3.12-0.54-6.26-0.99-9.38-1.48c0,0,0,0,0,0
			c-8.94-2.01-17.87-4.57-26.87-3.13c-3.63-0.91-7.47-0.85-11.26,0.24c-6.25,1.8-11.21,6.24-12.04,10.8
			c-0.03,0.17,0.03,0.35,0.17,0.49c0.14,0.14,0.33,0.21,0.52,0.2c2.28-0.17,4.8-0.15,7.46-0.14c8.01,0.06,16.95,0.11,21.03-5.52
			c10.02-3.91,10.93-2.6,18.34,0.56c3.23,0.56,4.62,0.76,4.48,0.82c0.74,0.08,0.75-0.22,1.04-0.17l-0.7,1.37
			c-0.29,0.56-0.72,1.03-1.25,1.37l-2.09,1.33c-0.03,0.02-0.07,0.04-0.11,0.05l-7.62,1.47c0.93,0.5,10.07-0.78,11.01-1.27l0.03-0.02
			c0.38-0.19,0.71-0.46,0.99-0.79l4.41-2.17c3.11,0.18,6.17,0.61,9.19,1.35c0.88-1.05,1.76-2.1,2.89-2.92
			C127.96,147.03,125.52,145.4,123.09,143.79z M105.71,132.04c-0.57,0.31-1.16,0.54-1.76,0.69c-2.24,0.55-4.7,0-7.1-1.62
			c-3.01-2.04-5.35-5.52-5.69-8.46c-0.01-0.11,0.02-0.21,0.09-0.27c0.07-0.06,0.16-0.08,0.25-0.05c1.11,0.45,2.33,0.81,3.62,1.2
			c4.36,1.3,9.3,2.77,10.72,8.15C105.88,131.83,105.83,131.98,105.71,132.04z M69.5,151.23c-1.88-0.01-3.67-0.03-5.28,0.1
			c-0.13,0.01-0.27-0.04-0.37-0.14c-0.1-0.1-0.14-0.23-0.12-0.35c0.59-3.23,4.1-6.37,8.53-7.65c3.52-1.01,7.11-0.78,10.34,0.64
			c0.87,0.38,1.72,0.85,2.53,1.4c0.16,0.11,0.24,0.3,0.18,0.46C83.07,151.33,75.86,151.28,69.5,151.23z"/>
		<path class="st1" d="M117.13,122.39c1.84-0.49,3.78-0.32,5.65-0.6c0.07-0.01,0.08,0.1,0.02,0.12c-1.8,0.62-3.78,0.2-5.63,0.62
			C117.09,122.55,117.05,122.41,117.13,122.39"/>
		<path class="st1" d="M119.01,123.8c1.77-0.55,3.82-0.9,5.66-0.41c0.07,0.02,0.07,0.15-0.01,0.14c-1.92-0.07-3.72-0.05-5.57,0.5
			C118.93,124.08,118.86,123.84,119.01,123.8"/>
		<path class="st1" d="M121.08,124.97c1.46-0.22,3.18-0.59,4.63-0.02c0.07,0.03,0.08,0.16-0.01,0.15c-1.59-0.13-3.03-0.09-4.6,0.12
			C120.94,125.24,120.93,124.99,121.08,124.97"/>
		<path class="st1" d="M121.92,126.65c1.64-0.57,3.76-0.64,5.41,0.02c0.05,0.02,0.06,0.13-0.01,0.12c-1.81-0.18-3.57-0.51-5.33,0.09
			C121.85,126.93,121.78,126.7,121.92,126.65"/>
		<path class="st1" d="M122.6,128.24c1.49-0.15,3.19-0.66,4.63,0.1c0.06,0.03,0.08,0.14,0.03,0.18c-0.08,0.08-0.16,0.15-0.25,0.23
			c-0.05,0.04-0.13-0.01-0.09-0.07c0.24-0.46-1.67-0.46-2.01-0.44c-0.77,0.04-1.53,0.18-2.29,0.25
			C122.47,128.49,122.46,128.26,122.6,128.24"/>
		<path class="st1" d="M124.29,129.98c1.03-0.11,4.44-1.08,4.87,0.56c0.02,0.07-0.06,0.12-0.12,0.07c-1.29-1.17-3.24-0.52-4.74-0.38
			C124.15,130.25,124.14,130,124.29,129.98"/>
		<path class="st1" d="M124.88,132.07c1.28-0.37,2.97-0.61,4.2,0.12c0.07,0.04,0.1,0.16,0.03,0.22c-0.09,0.08-0.18,0.15-0.27,0.23
			c-0.05,0.04-0.11-0.04-0.09-0.09c0.03-0.05,0.05-0.1,0.08-0.16c-1.26-0.48-2.61-0.41-3.88-0.07
			C124.81,132.36,124.73,132.12,124.88,132.07"/>
		<path class="st1" d="M125.18,133.6c0.71-0.16,1.47-0.19,2.19-0.15c0.38,0.02,1.22,0.01,1.37,0.51c0.02,0.06-0.04,0.11-0.09,0.08
			c-0.91-0.56-2.42-0.41-3.4-0.21C125.1,133.86,125.03,133.64,125.18,133.6"/>
		<path class="st1" d="M125.28,135.24c0.66-0.22,1.47-0.2,2.16-0.17c0.33,0.02,1.22,0,1.26,0.51c0.01,0.07-0.07,0.09-0.11,0.05
			c-0.41-0.33-1.17-0.3-1.64-0.3c-0.52-0.01-1.1-0.02-1.6,0.14C125.21,135.51,125.15,135.28,125.28,135.24"/>
		<path class="st1" d="M103.31,130.59c-1.38,1.23-3.11,2.4-4.98,2.72c-0.08,0.01-0.12-0.11-0.05-0.14c1.77-0.73,3.41-1.49,4.86-2.77
			C103.26,130.3,103.43,130.48,103.31,130.59"/>
		<path class="st1" d="M100.94,130.38c-1.24,0.8-2.65,1.86-4.2,1.94c-0.08,0-0.14-0.11-0.05-0.14c1.5-0.54,2.8-1.17,4.14-2.02
			C100.95,130.07,101.07,130.3,100.94,130.38"/>
		<path class="st1" d="M99.48,129.2c-1.25,1.2-3.15,2.14-4.93,2.23c-0.06,0-0.11-0.09-0.04-0.11c1.72-0.59,3.46-1.02,4.81-2.29
			C99.43,128.92,99.58,129.1,99.48,129.2"/>
		<path class="st1" d="M97.15,128.51c-1.3,0.75-2.63,1.92-4.25,1.83c-0.07,0-0.13-0.09-0.1-0.15c0.04-0.11,0.08-0.21,0.13-0.31
			c0.03-0.06,0.12-0.05,0.11,0.03c-0.03,0.52,1.71-0.27,2.02-0.43c0.68-0.36,1.32-0.8,1.98-1.18
			C97.17,128.22,97.28,128.44,97.15,128.51"/>
		<path class="st1" d="M95.94,127.15c-0.89,0.52-3.59,2.82-4.67,1.51c-0.05-0.06,0.01-0.14,0.08-0.12c1.66,0.53,3.16-0.87,4.48-1.62
			C95.95,126.85,96.07,127.07,95.94,127.15"/>
		<path class="st1" d="M94.53,125.49c-1.01,0.87-2.45,1.78-3.87,1.64c-0.08-0.01-0.16-0.1-0.12-0.18c0.05-0.11,0.1-0.21,0.15-0.32
			c0.03-0.06,0.12-0.01,0.12,0.04c0,0.06,0,0.12-0.01,0.18c1.34-0.09,2.55-0.71,3.56-1.55C94.48,125.2,94.65,125.39,94.53,125.49"/>
		<path class="st1" d="M93.63,124.22c-0.58,0.43-1.26,0.78-1.93,1.04c-0.36,0.14-1.11,0.5-1.46,0.11c-0.04-0.04-0.01-0.12,0.05-0.11
			c1.06,0.13,2.37-0.62,3.18-1.22C93.59,123.96,93.74,124.14,93.63,124.22"/>
		<path class="st1" d="M92.85,122.78c-0.51,0.48-1.25,0.79-1.89,1.05c-0.31,0.12-1.11,0.5-1.36,0.06c-0.03-0.06,0.03-0.11,0.08-0.09
			c0.51,0.13,1.19-0.22,1.62-0.4c0.48-0.21,1.01-0.44,1.4-0.79C92.8,122.5,92.96,122.68,92.85,122.78"/>
		<path class="st1" d="M254.42,133.79c-1.2-2.81-3.57-4.91-6.57-6.13c-3.01-1.22-6.45-1.27-10.33-0.19
			c-3.71,1.03-7.08,2.88-10.1,5.56c-3.03,2.68-5.31,5.72-6.86,9.14c-0.05,0.01-0.08,0.02-0.13,0.03c-1.28,2.85-1.95,5.69-2.03,8.51
			c-0.29,10.73-0.44,16.09-0.73,26.82c-0.07,2.57,0.34,4.87,1.22,6.92c0.89,2.04,2.15,3.7,3.78,4.95c1.63,1.25,3.58,2.06,5.84,2.4
			c2.26,0.34,4.68,0.16,7.27-0.56c2.59-0.72,5.02-1.89,7.29-3.49c2.27-1.6,4.27-3.5,6-5.68c1.73-2.18,3.1-4.56,4.11-7.12
			c1.01-2.56,1.55-5.13,1.62-7.7c0.29-10.73,0.44-16.09,0.73-26.82C255.58,138.13,255.27,135.79,254.42,133.79z M245.11,173.49
			c-0.08,5.31-5.04,12.22-11.01,12.58c-3.85,0.23-6.95-2.38-6.9-5.8l0.51-35.53c0.08-5.31,4.9-11.44,10.87-11.79
			c3.85-0.23,6.95,2.38,6.9,5.8L245.11,173.49z"/>
		<path class="st1" d="M327.86,289.22l-0.32,0.14l-2.3,3.58l25.14-7.74l-1.49-2.82l-0.84,0.17c-4.66,0.94-5.55-0.31-8.85-4.98
			l-0.47-0.67c-2.06-2.83-4.19-5.88-6.46-9.1c-1.61-2.3-3.27-4.66-4.96-7.04c5.1-9.83,6.69-12.79,9.26-17.52
			c3.34-6.12,4.66-8.17,10.15-10.65l0.68-0.31l-0.03-3.46l-22.03,6.78l4.16,2.11l0.38-0.07c2.17-0.38,2.55,0.02,2.55,0.02
			c0.18,0.23,0.11,1.16-1.27,4.24c-1.63,3.58-3.89,8.22-7.08,14.51c-2.75-3.78-5.39-7.49-7.67-11.11c-0.31-0.47-0.62-1.22-0.35-2.1
			c0.36-1.16,1.62-2.21,3.65-3.05l0.79-0.32l-0.26-2.65l-21.66,6.67l0.06,2.74l1.33-0.25c4.33-0.82,5.28,0.55,7.83,4.19
			c0.34,0.48,0.7,1,1.08,1.52c0.99,1.43,2.13,3.04,3.37,4.81c1.88,2.67,4.02,5.72,6.35,9.08c-6.37,12.49-9.56,18.48-12.55,23.57
			l-0.08,0.13c-2.23,3.74-4.15,6.98-8.45,8.76l-0.59,0.25l-0.5,3.17l21.14-6.51l-1.01-2.83l-0.95,0.17
			c-2.54,0.45-3.14-0.02-3.27-0.18c-0.13-0.17-0.47-0.94,0.75-3.71c2.39-5.33,5.54-11.65,8.88-18.24
			c4.05,5.75,7.02,10.32,8.68,12.86l0.21,0.33c0.6,1,0.77,1.86,0.52,2.62C331.03,287.39,329.82,288.38,327.86,289.22z"/>
		<path class="st1" d="M82.42,147.61c-0.88-1.68-2.32-3.01-3.37-4.58c-0.04-0.05-0.13,0.01-0.1,0.07c0.76,1.75,2.4,2.93,3.34,4.58
			C82.33,147.75,82.46,147.69,82.42,147.61"/>
		<path class="st1" d="M80.12,147.18c-0.79-1.67-1.92-3.43-3.52-4.45c-0.07-0.04-0.16,0.05-0.1,0.11c1.35,1.37,2.55,2.71,3.39,4.45
			C79.96,147.43,80.18,147.32,80.12,147.18"/>
		<path class="st1" d="M77.85,146.44c-0.83-1.22-1.71-2.75-3.1-3.43c-0.07-0.03-0.17,0.05-0.1,0.11c1.16,1.09,2.11,2.17,3.01,3.48
			C77.75,146.73,77.94,146.57,77.85,146.44"/>
		<path class="st1" d="M76.04,146.96c-0.68-1.6-2.06-3.21-3.66-3.98c-0.05-0.03-0.13,0.04-0.08,0.09c1.36,1.22,2.78,2.29,3.53,4
			C75.89,147.19,76.1,147.09,76.04,146.96"/>
		<path class="st1" d="M73.64,146.68c-0.9-1.2-1.67-2.8-3.19-3.35c-0.07-0.02-0.15,0.03-0.15,0.1c0,0.11,0,0.22,0,0.34
			c0,0.06,0.09,0.09,0.12,0.02c0.18-0.49,1.47,0.92,1.69,1.19c0.49,0.6,0.9,1.25,1.36,1.86C73.54,146.95,73.72,146.79,73.64,146.68"
			/>
		<path class="st1" d="M71.98,147.45c-0.62-0.83-2.2-4-3.7-3.22c-0.07,0.04-0.05,0.13,0.02,0.14c1.73,0.16,2.57,2.04,3.48,3.24
			C71.88,147.74,72.08,147.57,71.98,147.45"/>
		<path class="st1" d="M70.04,148.42c-0.59-1.19-1.56-2.6-2.92-3.02c-0.07-0.02-0.18,0.03-0.18,0.12c0,0.12,0.01,0.23,0.02,0.35
			c0,0.07,0.1,0.06,0.13,0.01c0.02-0.05,0.04-0.11,0.06-0.16c1.2,0.61,2.07,1.65,2.67,2.82C69.88,148.67,70.11,148.56,70.04,148.42"
			/>
		<path class="st1" d="M68.71,149.24c-0.36-0.63-0.85-1.21-1.37-1.71c-0.27-0.27-0.83-0.9-1.3-0.67c-0.05,0.03-0.05,0.11,0,0.12
			c1.03,0.29,1.94,1.51,2.45,2.36C68.57,149.46,68.78,149.36,68.71,149.24"/>
		<path class="st1" d="M67.43,150.26c-0.28-0.64-0.84-1.22-1.33-1.7c-0.23-0.23-0.82-0.9-1.23-0.59c-0.05,0.04-0.02,0.11,0.04,0.12
			c0.52,0.08,1.01,0.66,1.33,1c0.36,0.38,0.76,0.8,0.98,1.28C67.28,150.5,67.49,150.39,67.43,150.26"/>
	</g>
	<path class="st1" d="M295.62,250.55c-1.2-2.81-3.57-4.91-6.57-6.13c-3.01-1.22-6.45-1.27-10.33-0.19
		c-3.71,1.03-7.08,2.88-10.1,5.56c-3.03,2.68-5.31,5.72-6.86,9.15c-0.05,0.01-0.08,0.02-0.13,0.03c-1.28,2.85-1.95,5.68-2.03,8.51
		c-0.29,10.73-0.44,16.09-0.73,26.82c-0.07,2.57,0.34,4.87,1.22,6.92c0.89,2.04,2.15,3.7,3.78,4.95c1.63,1.25,3.58,2.06,5.84,2.4
		c2.26,0.34,4.68,0.16,7.27-0.56c2.59-0.72,5.02-1.89,7.29-3.49c2.27-1.6,4.27-3.5,6-5.68c1.73-2.18,3.1-4.56,4.11-7.13
		c1.01-2.56,1.55-5.13,1.62-7.7c0.29-10.73,0.44-16.09,0.73-26.82C296.79,254.89,296.47,252.55,295.62,250.55z M286.32,290.25
		c-0.08,5.31-5.04,12.22-11.01,12.58c-3.85,0.23-6.95-2.38-6.9-5.8l0.51-35.53c0.08-5.31,4.9-11.44,10.87-11.79
		c3.85-0.23,6.95,2.38,6.9,5.8L286.32,290.25z"/>
	<path class="st1" d="M249.94,257.53c-1.25-2.7-2.97-4.89-5.18-6.53c-2.2-1.64-4.78-2.73-7.73-3.25c-2.95-0.52-6.17-0.33-9.65,0.59
		c4.03-3.21,7.32-7.06,9.88-11.56c2.56-4.5,3.85-9.06,3.88-13.7c0.01-1.58,0.01-2.37,0.02-3.95c0.02-3.06-0.54-5.76-1.69-8.11
		c-1.15-2.35-2.74-4.2-4.79-5.55c-2.05-1.35-4.41-2.13-7.1-2.33c-2.69-0.21-5.62,0.27-8.79,1.42c-10.84,3.96-16.26,6.03-27.11,10.27
		c-0.01,0.89-0.01,1.33-0.01,2.21c0.19-0.07,0.28-0.11,0.48-0.19c0.74-0.29,1.37-0.3,1.9-0.03c0.53,0.27,0.78,0.83,0.78,1.67
		c-0.09,13.97-0.18,27.93-0.26,41.9c-1.59-1.83-3.42-3.41-5.51-4.71c-1.17-0.85-2.49-1.55-3.97-2.1c-1.37-0.5-2.7-0.7-3.8-0.76
		c-1.91-0.1-3.69,0.17-5.05,1.1c-1.36,0.93-2.41,2.06-3.14,3.39c-0.21,0.45-0.36,0.9-0.47,1.33c-0.1,0.44-0.15,0.92-0.15,1.45
		c0,0.06,0,0.1,0,0.16c0.01,1.27,0.28,2.57,0.81,3.92c0.54,1.35,1.28,2.5,2.24,3.48c0-0.06,0-0.1,0-0.16
		c0.41-2.17,1.48-3.71,3.21-4.61c1.73-0.9,3.94-1.08,6.24-0.34c2.06,0.67,3.91,1.92,5.4,3.42c1.48,1.5,2.63,3.11,3.43,4.84
		c0.28,0.6,0.49,1.22,0.67,1.84c-0.12,18.8-0.24,37.6-0.36,56.4c0,0.74-0.27,1.47-0.8,2.21c-0.53,0.73-1.17,1.24-1.91,1.53
		c-0.19,0.07-0.29,0.11-0.48,0.19c0,0.82-0.01,1.23-0.01,2.06c13.44-5.26,20.17-7.82,33.61-12.62c3.7-1.32,7.19-3.25,10.47-5.8
		c3.29-2.55,6.15-5.42,8.6-8.65c2.45-3.23,4.39-6.7,5.84-10.42c1.45-3.72,2.18-7.43,2.2-11.12c0.05-7.84,0.07-11.76,0.12-19.61
		C251.8,263.33,251.18,260.23,249.94,257.53z M206.58,211.31c4.44-1.68,6.66-2.51,11.1-4.13c3.28-1.2,6.07-0.99,8.38,0.6
		c2.31,1.6,3.45,4.09,3.43,7.47l-0.13,19.93c-0.02,3.38-1.15,6.61-3.38,9.72c-2.23,3.11-4.94,5.34-8.11,6.71
		c-4.63,1.69-6.94,2.55-11.57,4.31C206.41,238.07,206.47,229.15,206.58,211.31z M239.87,299.26c-0.01,2.21-0.42,4.4-1.23,6.57
		c-0.8,2.16-1.9,4.19-3.28,6.09c-1.38,1.89-3,3.58-4.86,5.07c-1.85,1.49-3.84,2.61-5.95,3.37c-1.39,0.5-2.09,0.75-3.49,1.25
		c-3.91,0.99-6.91,0.89-9.01-0.32c-2.1-1.22-3.62-2.64-4.56-4.29c-0.21-0.13-0.31-0.3-0.31-0.51c-0.12-0.21-0.19-0.31-0.31-0.51
		c-0.42-0.9-0.62-1.98-0.61-3.24c0-0.32-0.12-0.79-0.05-1.22l-0.17-14.31c0.1-15.62,0.15-23.44,0.25-39.06
		c7.48-2.83,11.22-4.21,18.7-6.88c2.11-0.76,4.09-1.03,5.94-0.83c1.84,0.2,3.45,0.78,4.81,1.73c1.36,0.95,2.44,2.25,3.22,3.88
		c0.78,1.63,1.16,3.55,1.15,5.77C240.01,276.77,239.96,284.27,239.87,299.26z"/>
	<g>
		<polygon class="st0" points="367.75,335.68 93.7,335.68 93.7,225.83 89.43,225.22 89.43,339.95 372.02,339.95 372.02,215.21 
			367.75,215.21 		"/>
		<polygon class="st0" points="89.43,57.36 89.43,100.72 93.7,102.72 93.7,61.63 367.75,61.63 367.75,190.62 372.02,190.62 
			372.02,57.36 		"/>
	</g>
	<path class="st1" d="M357.04,199.17c-3.27-0.77-6.54-0.65-9.59,0.28c-7.65-0.83-15.08,1.68-22.55,3.74c0,0,0,0,0,0
		c-2.63,0.54-5.26,1.05-7.88,1.64c-0.68,0.15-1.12,0.18-1.41,0.13c1.03-1.67,2.66-3.45,3.66-4.48c3.25-1.9,6.78-3.32,10.16-4.99
		c2.48,0.05,5.05-0.85,7.53-2.71c3.78-2.84,6.59-7.5,6.84-11.33c0.01-0.14-0.04-0.27-0.13-0.35c-0.09-0.08-0.22-0.1-0.33-0.04
		c-1.41,0.65-2.96,1.2-4.62,1.78c-4.19,1.47-8.79,3.1-11.46,6.81c-2.86,1-5.58,4.74-6.5,6.13l-6.29,7.15c0,0,0,0,0,0
		c-2.64,1.94-5.25,3.91-7.93,5.79c-0.7,0.49-1.55,1.39-2.37,0.31l7.39-7.99l-3.54,1.52l0.82-1.35c6.18-0.47,9.21-7.8,11.89-14.31
		c0.82-1.98,1.59-3.85,2.42-5.5c0.07-0.13,0.08-0.3,0.02-0.44c-0.05-0.14-0.16-0.24-0.28-0.26c-3.43-0.66-8.06,1.77-11.26,5.9
		c-2.54,3.29-3.89,7.13-3.92,11.08c0,0,0,0,0,0c-1.27,5.81-4.44,10.32-6.09,12.36c-0.42,0.34-0.82,0.71-1.2,1.1l-6.14,4.18
		c-0.17-1.1-0.62-2.87-1.03-3.85c0.03-0.03,0.08-0.06,0.11-0.09c0.8-0.88,1.17-2.11,1.06-3.55c-0.14-1.81-1.07-3.65-2.26-4.47
		c-0.04-0.03-0.1-0.04-0.14-0.02c-0.04,0.02-0.08,0.05-0.08,0.1c-0.08,0.6-0.23,1.23-0.38,1.89c-0.52,2.25-1.1,4.8,0.88,6.65
		c0.02,0.02,0.05,0.03,0.07,0.03c-0.08,1.73,0.04,2.9,0.16,3.6c-0.32,0.09-0.6,0.19-0.85,0.32l-0.11-0.05
		c-0.06,0.07-0.13,0.14-0.19,0.21c-0.84,0.52-1.29,1.23-1.51,1.7c-4.71,5.12-10.12,9.41-16.96,12.2c2.61-3.79,5.22-7.58,7.83-11.37
		c-0.01,0-0.02-0.01-0.02-0.01c0.56-0.66,1.07-1.37,1.49-2.15c1.48-2.72,1.83-5.66,1.04-8.46c-0.21-0.75-0.51-1.5-0.88-2.23
		c-0.08-0.15-0.24-0.23-0.39-0.2c-5.5,1.08-6.58,6.93-7.54,12.09c-0.15,0.83-0.31,1.63-0.47,2.4c0,0.01-0.01,0.02-0.01,0.03
		c0,0.02-0.01,0.05-0.02,0.07c-0.13,0.61-0.27,1.21-0.42,1.77c-0.01,0.05-0.01,0.11,0,0.17c-2.96,11.23-14.94,19.87-27.88,19.12
		c-1.43-0.08-3.01-0.54-4.6,0.66c0.73,2.1,2.48,1.59,3.98,1.57c7.24-0.11,13.92-2.46,20.52-5.12c2.94-1.18,5.89-2.35,8.84-3.52
		c-0.09-0.3-0.17-0.6-0.22-0.88c0.05,0.29,0.13,0.58,0.22,0.88c3.1-1.29,6.3-1.74,9.53-1.93c0.4,0.3,0.81,0.59,1.23,0.85
		c2.92,1.78,6.43,2.46,10.13,1.91c4.65-0.69,8.76-3.32,9.99-6.4c0.05-0.11,0.03-0.24-0.05-0.35c-0.08-0.11-0.2-0.18-0.33-0.18
		c-1.63-0.08-3.39-0.32-5.26-0.57c-5.46-0.73-11.55-1.53-15.25,1.67c-0.84,0.27-1.72,0.57-2.68,0.91c-2,0.71-3.94,2.39-6.34,1.17
		c-0.78,0.29-1.11,0.73-1.2,1.25c0.09-0.52,0.41-0.96,1.2-1.25c4.38-2.05,8.03-5.22,11.86-8.06c4.88-3.62,10.09-4.18,15.78-2.84
		c2.33,0.55,4.63,1.27,6.95,1.91c3.21,1.76,6.92,2.51,10.76,2.12c5.2-0.53,9.71-3.18,10.95-6.45c0.05-0.12,0.02-0.26-0.07-0.38
		c-0.09-0.12-0.24-0.2-0.38-0.21c-1.84-0.16-3.83-0.5-5.94-0.85c-5.24-0.88-10.99-1.83-15.07-0.09c-4.31-0.4-8.75,0.55-14.12,1.03
		c7.14-6.33,14.61-9.08,22.58-9.93l3.82,1.65c0.24,0.27,0.54,0.48,0.87,0.63l0.02,0.01c0.48,0.22,3.33,0.55,5.78,0.69
		c1.74,2.33,5.31,1.78,8.47,1.27c0.96-0.15,1.88-0.3,2.72-0.36c0.07,0,0.13-0.04,0.17-0.1c0.04-0.05,0.05-0.12,0.03-0.18
		c-0.61-1.53-2.71-2.8-5.1-3.07c-1.9-0.22-3.72,0.17-5.24,1.11c-0.35,0.22-0.67,0.47-0.99,0.75l-2.99-0.43
		c-0.03-0.01-0.07-0.02-0.1-0.03l-1.83-1.04c-0.46-0.26-0.85-0.64-1.11-1.11l-0.65-1.13c0.25-0.05,0.27,0.2,0.89,0.1
		c-0.12-0.04,1.05-0.27,3.76-0.87c6.14-2.99,6.86-4.13,15.49-1.24c3.69,4.59,11.25,4.17,18.02,3.79c2.25-0.13,4.38-0.25,6.32-0.2
		c0.16,0,0.32-0.07,0.43-0.19c0.11-0.12,0.16-0.28,0.13-0.42C366.78,203.98,362.4,200.43,357.04,199.17z M328.98,190.59
		c0.01-0.02,0.01-0.04,0.02-0.06c0.18-0.43,0.4-0.83,0.64-1.2c1.71-2.59,4.81-3.7,7.63-4.69c1.08-0.38,2.09-0.74,3.01-1.16
		c0.07-0.03,0.15-0.02,0.22,0.03c0.06,0.05,0.1,0.14,0.09,0.23c-0.08,1.2-0.56,2.53-1.29,3.8c-0.39,0.66-0.85,1.31-1.37,1.91
		c-0.01,0.01-0.02,0.03-0.03,0.04c-0.23,0.26-0.48,0.52-0.73,0.76c-0.04,0.04-0.07,0.08-0.11,0.12c-0.29,0.27-0.6,0.53-0.91,0.77
		c-0.37,0.28-0.75,0.52-1.12,0.73c-0.06,0.03-0.12,0.07-0.18,0.1c-0.38,0.2-0.75,0.37-1.13,0.51c-0.03,0.01-0.07,0.02-0.1,0.03
		c-0.81,0.28-1.62,0.42-2.42,0.39c-0.04,0-0.09,0-0.13,0c-0.29-0.01-0.58-0.04-0.86-0.1c-0.52-0.1-1.03-0.27-1.52-0.51
		c-0.1-0.05-0.15-0.18-0.12-0.3C328.66,191.48,328.81,191.02,328.98,190.59z M312.14,187.5c2.16-2.79,5.28-4.43,7.6-3.98
		c0.08,0.02,0.16,0.08,0.19,0.18c0.04,0.1,0.03,0.21-0.02,0.3c-0.56,1.11-1.08,2.37-1.63,3.71c-1.86,4.51-3.96,9.62-8.36,9.69
		c-0.12,0-0.23-0.1-0.25-0.25c-0.12-0.72-0.18-1.44-0.18-2.16C309.52,192.32,310.43,189.72,312.14,187.5z M276.16,216.29
		c0.56-3.01,1.19-6.41,4.39-7.04c0.09-0.02,0.19,0.03,0.23,0.12c0.22,0.42,0.39,0.86,0.51,1.3c0.46,1.63,0.26,3.34-0.61,4.93
		c-0.42,0.77-0.97,1.45-1.59,2c-0.23,0.2-0.47,0.38-0.71,0.55c-0.06,0.04-0.12,0.08-0.18,0.11c-0.19,0.12-0.38,0.22-0.57,0.32
		c-0.08,0.04-0.16,0.07-0.24,0.11c-0.19,0.08-0.37,0.14-0.56,0.2c-0.08,0.02-0.15,0.05-0.23,0.07c-0.26,0.06-0.51,0.1-0.77,0.1
		c-0.06,0-0.13-0.03-0.17-0.08c-0.04-0.05-0.06-0.12-0.04-0.18C275.84,218.02,275.99,217.18,276.16,216.29z M286.74,231.75
		c0.12-0.19,0.25-0.36,0.39-0.52c0.04-0.05,0.09-0.1,0.14-0.15c0.09-0.1,0.19-0.21,0.29-0.3c0.06-0.05,0.12-0.1,0.18-0.15
		c0.1-0.08,0.19-0.16,0.3-0.23c0.06-0.05,0.13-0.09,0.2-0.13c0.1-0.07,0.21-0.13,0.32-0.19c0.07-0.04,0.14-0.08,0.21-0.11
		c0.12-0.06,0.24-0.11,0.36-0.16c0.06-0.03,0.13-0.06,0.19-0.08c0.17-0.06,0.34-0.12,0.52-0.16c0.05-0.01,0.09-0.02,0.14-0.04
		c0.17-0.04,0.34-0.08,0.52-0.11c0.09-0.02,0.17-0.03,0.26-0.04c0.12-0.02,0.24-0.04,0.37-0.05c0.1-0.01,0.2-0.02,0.3-0.03
		c0.11-0.01,0.23-0.02,0.34-0.02c0.11-0.01,0.22-0.01,0.33-0.01c0.11,0,0.22,0,0.33-0.01c0.12,0,0.23,0,0.35,0c0.1,0,0.2,0,0.3,0.01
		c0.13,0,0.26,0.01,0.39,0.01c0.05,0,0.1,0.01,0.16,0.01c0.58,0.03,1.17,0.09,1.76,0.16c0,0,0,0,0,0c0.56,0.07,1.13,0.14,1.68,0.21
		c0.75,0.1,1.45,0.18,2.14,0.25c0.37,0.04,0.74,0.08,1.09,0.09c0.08,0,0.16,0.05,0.2,0.11c0.05,0.07,0.06,0.15,0.03,0.22
		c-0.08,0.2-0.19,0.39-0.3,0.57c-0.05,0.08-0.1,0.16-0.16,0.24c-0.05,0.08-0.12,0.15-0.18,0.23c-0.18,0.22-0.37,0.43-0.59,0.64
		c-1.18,1.11-2.96,1.96-4.91,2.25c-2.27,0.34-4.42-0.08-6.21-1.17c-0.14-0.09-0.27-0.18-0.41-0.28c-0.33-0.23-0.65-0.47-0.96-0.75
		C286.7,231.96,286.68,231.84,286.74,231.75z M292.49,209.95c-0.03,0.02-0.07,0.01-0.1-0.01c-1.02-0.95-0.72-2.27-0.45-3.42
		c0.08-0.34,0.15-0.67,0.19-0.97c0-0.03,0.02-0.04,0.04-0.05c0.02-0.01,0.05,0,0.07,0.01c0.61,0.42,1.09,1.37,1.16,2.3
		c0.06,0.74-0.13,1.37-0.54,1.83C292.75,209.75,292.63,209.85,292.49,209.95z M323.66,218.61c1.34,0.22,2.6,0.43,3.76,0.54
		c0.09,0.01,0.19,0.06,0.24,0.13c0.06,0.08,0.08,0.17,0.05,0.24c-0.79,2.06-3.64,3.74-6.93,4.08c-2.62,0.27-5.13-0.29-7.27-1.59
		c-0.57-0.35-1.12-0.76-1.63-1.21c-0.1-0.09-0.13-0.23-0.07-0.32c0.11-0.17,0.23-0.32,0.35-0.47c0.1-0.12,0.21-0.24,0.32-0.35
		C314.96,217.17,319.56,217.93,323.66,218.61z M330.84,210.72c0.25-0.23,0.52-0.44,0.81-0.61c1.06-0.66,2.33-0.93,3.65-0.78
		c1.67,0.19,3.13,1.07,3.55,2.14c0.02,0.04,0.01,0.09-0.02,0.12c-0.03,0.04-0.07,0.06-0.12,0.07c-0.59,0.05-1.22,0.15-1.89,0.25
		c-2.11,0.33-4.46,0.69-5.72-0.7c0.88,0.01,1.54-0.03,1.74-0.15l-2.03-0.29C330.82,210.76,330.82,210.74,330.84,210.72z
		 M364.89,206.74c-0.08,0.09-0.19,0.14-0.3,0.13c-1.37-0.04-2.88,0.05-4.47,0.14c-5.38,0.3-11.48,0.65-13.6-4.03
		c-0.06-0.13,0-0.3,0.13-0.4c0.66-0.5,1.36-0.93,2.08-1.29c0.01-0.01,0.03-0.01,0.04-0.02c0.43-0.21,0.87-0.39,1.32-0.55
		c0.08-0.03,0.16-0.05,0.23-0.08c0.45-0.15,0.9-0.28,1.36-0.38h0c1.86-0.4,3.81-0.39,5.77,0.07c3.8,0.89,6.9,3.41,7.53,6.11
		C365,206.54,364.97,206.65,364.89,206.74z"/>
</g>
</svg>
