<?xml version="1.0" encoding="utf-8"?>
<!-- Generator: Adobe Illustrator 26.0.2, SVG Export Plug-In . SVG Version: 6.00 Build 0)  -->
<svg version="1.1" id="Layer_1" xmlns="http://www.w3.org/2000/svg" xmlns:xlink="http://www.w3.org/1999/xlink" x="0px" y="0px"
	 viewBox="0 0 459.74 428.04" style="enable-background:new 0 0 459.74 428.04;" xml:space="preserve">
<style type="text/css">
	.st0{fill:#007580;}
	.st1{fill:#FFFFFF;}
</style>
<g>
	<circle class="st0" cx="223" cy="215.6" r="154.59"/>
	<g>
		<path class="st1" d="M262.58,81.78c-0.09,2.43,0.63,3.76,3.24,4.55c60.61,18.4,100.5,77.86,92.23,141
			c-7.04,53.73-37.15,89.96-87.62,109.19c-6.8,2.59-14.11,4.19-21.33,5.29c-8.74,1.33-15.25-2.78-17.39-9.95l2.33-11.92
			c0.67-0.63,1.67-0.9,1.79-0.97c0.23-3.07-0.38-6.02,0.81-7.65c1.07-1.47,4.12-1.51,6.74-2.33c-1.14-1.25-2.36-2.8-3.79-4.12
			c-0.91-0.83-1.59-1.74-2.09-2.69l0.71-3.65l-1.26-2.23c0.56-1.65,1.72-3.18,3.49-4.4c0.88-0.61,1.82-1.13,2.41-1.49
			c-1.92-1.34-3.83-2.67-6.31-4.4l1.86-1.38c11.24-5.54,22.23-7.5,33.8-6.79c8.99,0.55,18.03,2.04,26.96,1.52
			c10.33-0.6,18.86-6.16,26.27-13.23c-2.48-1.65-4.67-3.12-6.87-4.58c1.67-0.1,2.88,0.49,4.13,0.96c5.37,1.98,8.06,1.01,11.14-3.83
			c1.52-2.38,3.13-4.71,4.76-7.01c1.65-2.33,1.8-4.59-0.14-6.79c-3.62-4.12-6.6-9.02-12.57-10.32c-0.67-0.15-1.17-1.02-1.8-1.47
			c-4.58-3.26-8.98-6.81-13.79-9.66c-7.54-4.46-15.79-7.82-22.97-12.77c-9.55-6.59-16.69-15.05-13.99-26.82
			c-3.55-4.63-7.15-8.28-9.53-12.61c-6.1-11.11-14.61-19.46-26.03-24.81c-0.9-0.42-1.81-0.8-2.73-1.16l-6.57-4.17
			c5.22,1.07,10.21,3.04,15.04,5.74c0.37-0.47,0.69-0.78,0.9-1.16c6.62-11.93,11.82-24.42,14.33-37.88
			c2.01-10.78,2.5-21.58-1.12-32.17c-0.54-1.59-1.8-2.94-2.72-4.4c-1.39,1.08-3.13,1.91-4.1,3.28c-3.72,5.25-7.27,10.62-10.72,16.06
			c-2.36,3.72-3.91,8.06-6.72,11.35c-6.67,7.82-13.64,15.41-20.95,22.63c-3.62,3.58-6.19,6.97-4.97,12.26
			c0.16,0.68-0.07,1.46-0.12,2.19c-0.87-0.92-1.31-1.92-1.39-2.96c-0.91-11.48-1.58-22.99-2.69-34.46
			c-0.74-7.6-1.6-15.26-3.33-22.67c-1.04-4.45-5.1-4.94-7.87-1.19c-2.46,3.32-4.51,7.06-6.09,10.88
			c-4.32,10.41-8.04,21.06-17.37,28.48c-2.29,1.82-3.69,4.81-5.38,7.34c-1.5,2.25-2.62,4.79-4.31,6.88
			c-7.78,9.62-12.23,20.7-14.95,32.65c-1.92,8.4-3.79,16.74-1.56,25.17l-1.07,0.99c-1.13-3.58-2.18-6.89-3.23-10.2
			c-0.53,0.56-1.17,1.19-1.75,1.86c-9.46,10.87-17.5,22.72-24.73,35.17c-0.38,0.65-0.79,1.27-1.21,1.9l-9.76,9.07
			c-0.69-0.29-1.33-0.94-1.92-1.95c-1.35-2.35-2.43-5.25-2.42-7.9c0.01-7.78-0.06-15.66,1.12-23.32
			c7.54-49.04,34.32-83.6,79.52-103.75c4.8-2.14,7.32-5.02,8.66-9.97C130.25,94.57,74.39,152.45,82.74,232.22
			c7.42,70.87,67.66,127.1,142.76,125.73c77.81-1.42,136.35-63.59,138.53-136.46C366.34,144.29,309.73,93.21,262.58,81.78z
			 M323.36,250.16l6.21-2.16C328.35,250.23,325.84,250.72,323.36,250.16z M267.12,184.14c0.65,1.81,1.43,3.57,2.28,5.31
			l-16.45-29.57C258.91,166.51,263.72,174.59,267.12,184.14z"/>
		<path class="st1" d="M209.54,81.9c9.67-0.3,19.35-0.83,29.01-0.66c3.28,0.06,4.64-0.99,5.75-3.91
			c-13.81-2.24-27.34-2.22-41.42-0.22c0.68,2.03,1.2,3.6,1.77,5.3C206.43,82.22,207.98,81.95,209.54,81.9z"/>
	</g>
</g>
</svg>
